<svg xmlns="http://www.w3.org/2000/svg" xmlns:xlink="http://www.w3.org/1999/xlink" width="375" height="667" viewBox="0 0 375 667">
  <defs>
    <clipPath id="clip-path">
      <rect id="長方形_504" data-name="長方形 504" width="375" height="667" fill="#f4f4f4"/>
    </clipPath>
  </defs>
  <g id="マスクグループ_47" data-name="マスクグループ 47" opacity="0.319" clip-path="url(#clip-path)">
    <g id="レイヤー_2" data-name="レイヤー 2" transform="translate(0 254.76)">
      <g id="_饑1" data-name="ﾑ饑1" transform="translate(-200 -150.938)">
        <path id="パス_8031" data-name="パス 8031" d="M359.127,184.489a136.65,136.65,0,0,1-15.139-.855,168.306,168.306,0,0,1-30.785-6.565,230.621,230.621,0,0,1-29.8-11.658c-16.036-7.527-31.563-16.983-46.58-26.126-20.215-12.307-41.112-25.033-63.547-33.247-26.765-9.8-49.315-4.433-68.944,16.4a214.8,214.8,0,0,0-15.014,18.628c-9.729,13.022-19.79,26.487-34,33.747-8.48,4.331-17.777,5.062-28.424,2.231C17.461,174.534,8.187,169.575,0,165.2l.054-.1c16.957,9.062,36.177,19.335,55.214,9.61,14.188-7.248,24.241-20.7,33.961-33.714a214.578,214.578,0,0,1,15.022-18.638,76.927,76.927,0,0,1,15.243-12.7,54.55,54.55,0,0,1,34.422-8.239,76.14,76.14,0,0,1,19.4,4.5c22.446,8.217,43.346,20.946,63.568,33.256,15.014,9.143,30.539,18.594,46.568,26.121,46.07,21.628,87.284,24.826,122.516,9.5,36.444-15.85,63.093-46.493,88.865-76.126,2.712-3.117,5.515-6.341,8.265-9.474l2.03-2.312c10.34-11.789,22.06-25.15,35.278-35.411,15.184-11.793,29.963-17.646,45.2-17.9,13.975-.231,28.634,3.79,44.826,12.269,14.177,7.429,27.3,17.01,39.987,26.275,2.884,2.1,5.608,4.093,8.338,6.052l-.068.095c-2.73-1.96-5.454-3.949-8.338-6.054-24.752-18.073-52.774-38.53-83.605-38.53-.381,0-.757,0-1.139.009-34.152.56-59.791,29.788-80.392,53.273q-1.021,1.165-2.03,2.313c-2.749,3.129-5.553,6.353-8.264,9.475-25.78,29.643-52.438,60.3-88.906,76.151a114.832,114.832,0,0,1-30.881,8.546,122.956,122.956,0,0,1-16.008,1.034Z" transform="translate(0 35.803)" fill="#0e0e0e"/>
        <path id="パス_8032" data-name="パス 8032" d="M356.589,180.208c-23.036,0-47.682-5.685-73.723-17.024-17.042-7.424-33.608-16.99-49.63-26.24-19.124-11.041-38.9-22.458-59.843-30.485-27.3-10.466-48.823-6.775-67.721,11.615a197.829,197.829,0,0,0-14.278,16.063c-9.779,11.821-19.9,24.042-34.591,30.792a41.17,41.17,0,0,1-17.435,3.737A55.132,55.132,0,0,1,27.6,167.319c-9.437-2.06-18.431-6.086-27.581-10.37l.049-.1c15.462,7.244,36.639,17.165,56.685,7.973,14.676-6.73,24.779-18.949,34.551-30.757a196.773,196.773,0,0,1,14.286-16.071A66.857,66.857,0,0,1,120.442,106.9a52.283,52.283,0,0,1,16.12-5.552c11.144-1.871,23.213-.237,36.872,5,20.953,8.03,40.731,19.45,59.859,30.494,16.019,9.248,32.583,18.81,49.623,26.233,45.706,19.913,87.1,22.361,123.042,7.275,35.333-14.861,61.667-42.517,87.135-69.274,3.663-3.848,7.451-7.826,11.167-11.66l1.864-1.925c10.615-10.961,22.645-23.384,36.122-32.847C557.72,43.783,572.726,38.5,588.118,38.493c31.224,0,59.911,19.579,85.221,36.853,3.253,2.219,6.327,4.317,9.4,6.374l-.065.1c-3.079-2.058-6.15-4.156-9.4-6.376-25.3-17.264-53.967-36.832-85.152-36.832-34.512.013-60.8,27.156-81.914,48.965L504.342,89.5c-3.716,3.832-7.5,7.816-11.167,11.66-25.475,26.765-51.817,54.43-87.174,69.3A126.312,126.312,0,0,1,356.589,180.208Z" transform="translate(0.022 41.051)" fill="#0e0e0e"/>
        <path id="パス_8033" data-name="パス 8033" d="M353.68,175.993q-5.145,0-10.362-.346c-19.456-1.3-39.978-6.233-60.992-14.677-18.341-7.369-36.257-17.173-53.582-26.655-17.737-9.711-36.079-19.745-55.236-27.422-27.919-11.187-48.428-9.08-66.5,6.83a185.47,185.47,0,0,0-13.56,13.631c-9.819,10.564-19.973,21.488-35.165,27.694a48.889,48.889,0,0,1-18.737,3.566A65.84,65.84,0,0,1,28.3,157.6c-10.185-1.762-19.927-5.511-28.262-8.882l.043-.107c18.718,7.58,38.626,14.311,58.156,6.334,15.168-6.2,25.312-17.11,35.124-27.664a184.99,184.99,0,0,1,13.567-13.64c9.238-8.129,19.107-12.58,30.18-13.607,10.7-.992,22.62,1.217,36.44,6.751,19.165,7.679,37.508,17.72,55.248,27.428,17.323,9.475,35.236,19.284,53.57,26.647,45.3,18.2,86.88,19.9,123.568,5.046,34.172-13.888,60.118-38.727,85.21-62.747,4.679-4.479,9.517-9.11,14.264-13.522l1.62-1.508c10.9-10.142,23.256-21.637,37.01-30.3,15.777-9.94,31.017-14.657,46.589-14.417,31.111.5,60.038,18.935,85.56,35.2,3.647,2.324,7.09,4.518,10.54,6.663l-.062.1c-3.449-2.145-6.893-4.341-10.54-6.664-25.509-16.254-54.422-34.677-85.5-35.174-.368-.006-.737-.008-1.1-.008-34.375,0-60.992,24.76-82.414,44.7l-1.62,1.506c-4.747,4.413-9.585,9.043-14.263,13.522-25.1,24.027-51.055,48.873-85.247,62.769a135.836,135.836,0,0,1-31.245,8.47,145.272,145.272,0,0,1-21.056,1.509Z" transform="translate(0.044 46.283)" fill="#0e0e0e"/>
        <path id="パス_8034" data-name="パス 8034" d="M350.405,171.832q-3.688,0-7.409-.166c-19.716-.873-40.31-5.211-61.21-12.9-20.086-7.388-39.82-17.639-58.9-27.552-15.9-8.258-32.332-16.8-49.26-23.877-28.551-11.944-48.075-11.333-65.281,2.046-4.4,3.421-8.431,7.208-12.7,11.217-9.891,9.292-20.12,18.9-35.885,24.582-9.21,3.316-19.272,4.205-30.761,2.71-10.484-1.366-20.512-4.51-28.94-7.406l.037-.11c19.319,6.632,39.911,11.8,59.625,4.7,15.741-5.673,25.96-15.278,35.843-24.558,4.264-4.01,8.3-7.8,12.705-11.223a47.562,47.562,0,0,1,29.407-10.55c10.2-.153,21.974,2.624,35.99,8.488,16.929,7.082,33.369,15.622,49.267,23.88,19.08,9.912,38.81,20.162,58.889,27.546,44.853,16.5,86.6,17.444,124.095,2.817,32.948-12.927,58.427-35.095,83.068-56.532,5.765-5.017,11.725-10.2,17.579-15.074l1.272-1.066c11.2-9.331,23.9-19.91,37.944-27.783C561.873,52,577.365,47.848,593.136,48.336c13.835.443,28.492,4.166,44.807,11.384,14.341,6.343,27.9,14.4,41.009,22.187,4.068,2.416,7.911,4.7,11.755,6.92l-.057.1c-3.847-2.222-7.689-4.5-11.758-6.921-25.69-15.258-54.811-32.558-85.759-33.553-35.36-1.1-61.848,20.972-85.223,40.441l-1.272,1.066c-5.849,4.87-11.811,10.056-17.576,15.073-24.648,21.443-50.136,43.617-83.1,56.552A152.087,152.087,0,0,1,350.405,171.832Z" transform="translate(0.064 51.506)" fill="#0e0e0e"/>
        <path id="パス_8035" data-name="パス 8035" d="M346.7,167.736q-2.013,0-4.027-.045a209.123,209.123,0,0,1-61.433-11.121c-22.555-7.526-43.873-18.089-66.451-29.271-13.315-6.6-27.084-13.416-41.054-19.509-29.746-12.974-47.707-13.738-64.061-2.737-4.112,2.768-7.908,5.8-11.925,9.009C87.82,122,77.551,130.2,61.242,135.325A75.239,75.239,0,0,1,38.6,138.6c-13.856,0-27.3-3.14-38.522-6.333l.032-.111c17.309,4.923,39.9,9.72,61.1,3.059C77.5,130.1,87.757,121.9,97.684,113.972c4.02-3.212,7.816-6.245,11.933-9.015a43.812,43.812,0,0,1,13.7-6.248,46.57,46.57,0,0,1,14.922-1.259c9.745.654,21.042,3.908,35.552,10.235,13.975,6.094,27.743,12.909,41.06,19.512,22.571,11.18,43.891,21.74,66.44,29.266,43.715,14.587,86.81,14.791,124.619.592,31.648-11.975,56.572-31.621,80.675-50.618,7.256-5.719,14.109-11.12,21.143-16.325l.785-.58c11.53-8.527,24.6-18.2,38.946-25.29,16.426-8.115,32.191-11.7,48.2-10.958,13.766.656,28.394,4.288,44.718,11.1,14.366,6,28.034,13.556,41.253,20.865,4.524,2.5,8.8,4.865,13.074,7.153l-.055.1c-4.277-2.289-8.551-4.653-13.076-7.156-25.843-14.29-55.135-30.487-85.921-31.953-35.866-1.658-63.068,18.466-87.068,36.225l-.784.582c-7.035,5.2-13.887,10.6-21.141,16.322-24.11,19-49.042,38.654-80.706,50.635A168,168,0,0,1,346.7,167.736Z" transform="translate(0.086 56.721)" fill="#0e0e0e"/>
        <path id="パス_8036" data-name="パス 8036" d="M342.459,163.742h-.088a215.428,215.428,0,0,1-61.662-9.338c-26.324-7.885-51.43-19.88-78.009-32.579-9.4-4.492-19.124-9.137-28.845-13.553-26.7-12.13-45.546-17.25-62.84-7.52-3.819,2.148-7.369,4.471-11.133,6.928-9.967,6.514-20.274,13.264-37.163,17.818C45.377,130.176,24.893,129.712.1,124.076l.025-.113c24.777,5.63,45.241,6.1,62.567,1.421,16.871-4.551,27.169-11.289,37.129-17.8,3.759-2.459,7.31-4.781,11.133-6.932,17.337-9.753,36.208-4.629,62.945,7.517,9.721,4.415,19.444,9.061,28.846,13.553,26.576,12.7,51.678,24.691,77.993,32.569,43.139,12.921,86.413,12.355,125.146-1.64,30.252-11.03,54.52-28.294,77.987-44.99,8.584-6.108,16.692-11.876,25-17.291l.111-.072c12.465-8.117,25.355-16.511,40.037-22.821,16.786-7.215,32.859-10.236,49.134-9.238,13.682.861,28.262,4.4,44.572,10.823,14.369,5.657,28.126,12.724,41.43,19.56,5.025,2.581,9.771,5.019,14.518,7.369l-.051.1c-4.749-2.35-9.495-4.788-14.52-7.37-25.952-13.332-55.368-28.444-85.956-30.371-36.46-2.242-64.427,15.97-89.1,32.038l-.11.072c-8.312,5.412-16.418,11.18-25,17.291-23.474,16.7-47.748,33.97-78.015,45A185.994,185.994,0,0,1,342.459,163.742Z" transform="translate(0.105 61.907)" fill="#0e0e0e"/>
        <path id="パス_8037" data-name="パス 8037" d="M337.549,159.849a223.914,223.914,0,0,1-57.386-7.6,372.75,372.75,0,0,1-48.955-17.21c-16.275-6.858-32.924-14.748-49.018-22.383l-8.227-3.9C147.8,96.4,129.375,88.868,112.341,96.459c-3.5,1.561-6.773,3.213-10.238,4.962-10.012,5.052-20.37,10.275-37.9,14.258a139.136,139.136,0,0,1-30.632,3.2A199.8,199.8,0,0,1,.123,115.9l.019-.118c16.377,2.816,40.779,5.065,64.037-.217,17.528-3.979,27.872-9.2,37.877-14.248,3.466-1.75,6.742-3.4,10.244-4.965,7.909-3.527,16.5-3.979,27.038-1.421,9.639,2.339,20.416,6.987,34.68,13.727q4.121,1.948,8.227,3.9c33.5,15.878,65.137,30.876,97.953,39.581,42.473,11.268,85.93,9.929,125.672-3.869,28.739-10.083,52.228-25.107,74.941-39.633,10.041-6.423,19.525-12.487,29.223-17.981,12.04-6.82,25.684-14.549,40.919-20.1,17.007-6.192,33.27-8.59,49.717-7.333,13.576,1.066,28.081,4.509,44.348,10.54,14.346,5.322,28.163,11.9,41.524,18.268,5.579,2.658,10.849,5.167,16.121,7.572l-.047.105c-5.273-2.405-10.54-4.916-16.123-7.574-26.009-12.389-55.489-26.43-85.832-28.8-37.16-2.842-66.774,13.936-90.57,27.416-9.695,5.492-19.178,11.557-29.217,17.978-22.721,14.532-46.214,29.558-74.967,39.645a207.7,207.7,0,0,1-63.843,11.421Q339.807,159.851,337.549,159.849Z" transform="translate(0.131 67.077)" fill="#0e0e0e"/>
        <path id="パス_8038" data-name="パス 8038" d="M331.924,156.1a232.46,232.46,0,0,1-52.271-5.958c-37.282-8.608-74.284-25.476-105.573-40.843l-3.442-1.692c-24.961-12.285-41.451-20.4-56.965-15.4-3.067.989-5.954,2-9.009,3.07A232.152,232.152,0,0,1,65.68,105.906a216.661,216.661,0,0,1-38.964,3.382A226.965,226.965,0,0,1,.14,107.763l.013-.118c21.554,2.555,45.429,1.88,65.508-1.855a232.044,232.044,0,0,0,38.964-10.619c3.057-1.066,5.944-2.081,9.013-3.071,15.557-5.02,32.064,3.1,57.05,15.4l3.442,1.694c31.279,15.363,68.277,32.228,105.522,40.827a233.145,233.145,0,0,0,126.2-6.1c27.076-9.132,49.635-22.044,71.45-34.531,11.66-6.674,22.673-12.977,33.889-18.421,13.636-6.618,27.091-12.922,41.767-17.323a130.674,130.674,0,0,1,50.222-5.408c13.441,1.249,27.841,4.6,44.024,10.256,14.289,4.99,28.13,11.086,41.515,16.984,6.2,2.733,12.066,5.315,17.928,7.775l-.045.107c-5.863-2.46-11.725-5.042-17.93-7.776C661.4,83.567,633.2,71.144,603.162,68.351c-37.981-3.462-67.893,11.056-91.929,22.72-11.213,5.448-22.224,11.745-33.881,18.417-21.821,12.49-44.383,25.4-71.47,34.539a234.227,234.227,0,0,1-64.121,11.862Q336.848,156.1,331.924,156.1Z" transform="translate(0.15 72.211)" fill="#0e0e0e"/>
        <path id="パス_8039" data-name="パス 8039" d="M325.51,152.526a240.893,240.893,0,0,1-46.425-4.464,343.377,343.377,0,0,1-52.465-15.017,490.636,490.636,0,0,1-52.425-23.17c-4.721-2.408-9.058-4.7-13.252-6.921C141.8,92.829,127.972,85.514,115.006,88l-2.842.547c-11.538,2.222-22.436,4.319-45,7.621-23.77,3.478-48.192,4.751-67,3.494l.008-.118c18.8,1.257,43.214-.017,66.978-3.493,22.564-3.3,33.46-5.4,45-7.621l2.842-.546c6.012-1.155,12.554-.3,20.588,2.685,7.441,2.765,15.774,7.173,25.422,12.278,4.195,2.218,8.527,4.512,13.251,6.92,37.205,18.974,72.486,31.819,104.861,38.176a240.094,240.094,0,0,0,46.246,4.434,264.921,264.921,0,0,0,80.479-12.761c25.22-8.165,46.656-19.092,67.387-29.661,13.486-6.869,26.224-13.369,39.124-18.626,13.152-5.359,27.276-10.9,42.625-14.546A148.521,148.521,0,0,1,605.686,73.3c13.264,1.428,27.516,4.684,43.567,9.955,14.186,4.658,28,10.274,41.367,15.705,6.925,2.815,13.464,5.473,20.007,7.987l-.042.108c-6.543-2.514-13.084-5.173-20.009-7.987C663.4,88.024,635.308,76.6,605.673,73.414c-35.976-3.8-64.655,6.356-93.287,18.024-12.9,5.256-25.632,11.748-39.116,18.622-20.735,10.57-42.175,21.5-67.4,29.668a267.805,267.805,0,0,1-64.4,12.285Q333.473,152.527,325.51,152.526Z" transform="translate(0.169 77.306)" fill="#0e0e0e"/>
        <path id="パス_8040" data-name="パス 8040" d="M318.434,149.2a249.938,249.938,0,0,1-39.884-3.142,324.606,324.606,0,0,1-52.183-13.074,356.305,356.305,0,0,1-52.055-22.465c-7.724-4.087-14.6-8.13-20.677-11.7-15.35-9.02-26.441-15.537-37.3-14.959-3.75.2-7.343.277-11.149.355-9.015.194-19.233.413-36.544,2.285l-4.974.539c-20.9,2.273-42.479,4.619-60.309,4.619q-1.614,0-3.185-.027v-.118c18.4.308,41.317-2.183,63.479-4.592l4.974-.539c17.317-1.871,27.538-2.092,36.555-2.285,3.8-.082,7.4-.159,11.146-.355,10.887-.58,21.993,5.944,37.36,14.974,6.07,3.567,12.95,7.61,20.672,11.7,33.253,17.594,69.282,29.88,104.2,35.529,39.9,6.452,83.9,2.8,127.252-10.556,23.2-7.151,43.321-16.256,62.776-25.061,15.514-7.023,30.174-13.657,44.908-18.562,12.587-4.19,27.366-8.9,43.49-11.76A171.809,171.809,0,0,1,608.2,78.425c29.134,3.553,57.006,13.975,83.968,24.057,7.77,2.905,15.111,5.649,22.452,8.221l-.038.109c-7.343-2.572-14.685-5.318-22.456-8.223-26.949-10.076-54.817-20.5-83.936-24.05-37.032-4.446-67.062,4.145-94.647,13.328-14.729,4.9-29.383,11.536-44.9,18.558-19.457,8.807-39.577,17.913-62.789,25.066A307.76,307.76,0,0,1,341.2,148.231Q329.728,149.2,318.434,149.2Z" transform="translate(0.191 82.334)" fill="#0e0e0e"/>
        <path id="パス_8041" data-name="パス 8041" d="M310.366,148.992a256.716,256.716,0,0,1-32.359-2,308.252,308.252,0,0,1-51.894-11.143A277.581,277.581,0,0,1,174.424,114.1c-10.273-5.635-18.783-11.315-26.292-16.326-11.938-7.967-21.367-14.26-30.465-15.117-3.159-.3-6.188-.757-9.4-1.242a151.568,151.568,0,0,0-38.147-1.639c-10.471.745-21.5,2.041-32.156,3.294C24.312,84.673,11.414,86.189.2,86.544v-.118c11.207-.355,24.1-1.87,37.757-3.474C48.617,81.7,59.646,80.4,70.119,79.657A151.573,151.573,0,0,1,108.292,81.3c3.206.484,6.234.947,9.389,1.24,9.126.861,18.566,7.16,30.519,15.137,7.506,5.01,16.014,10.687,26.283,16.32,31.061,17.039,65.9,28.1,103.542,32.878a256.715,256.715,0,0,0,32.345,2c30.089,0,62.058-4.943,95.433-14.785,20.813-6.136,39.256-13.5,57.093-20.621,17.945-7.164,34.893-13.931,51.765-18.337,13.467-3.517,28.163-7.037,44.362-8.964a203.09,203.09,0,0,1,51.688.328c28.444,3.876,55.91,13.294,82.473,22.4,8.8,3.016,17.106,5.866,25.417,8.508l-.036.11c-8.31-2.642-16.621-5.493-25.419-8.509C666.59,99.9,639.129,90.483,610.7,86.609c-38.372-5.149-68.466,1.441-96.006,8.632-16.865,4.4-33.81,11.17-51.754,18.333-17.839,7.122-36.285,14.487-57.1,20.625C372.444,144.041,340.462,148.99,310.366,148.992Z" transform="translate(0.215 84.415)" fill="#0e0e0e"/>
        <path id="パス_8042" data-name="パス 8042" d="M301.4,153.26q-12.291,0-23.923-1.066c-39.352-3.618-73.983-13.792-102.93-30.243-12.435-7.063-22.028-14.437-30.5-20.943-9.721-7.461-17.4-13.365-25.042-15.286-2.842-.711-5.59-1.627-8.494-2.592-9.173-3.046-19.57-6.5-38.9-5.813-13.983.5-28.695,2.678-42.922,4.787C18.466,83.618,8.812,85.048.225,85.723L.215,85.6C8.8,84.93,18.454,83.5,28.67,81.986,42.9,79.876,57.614,77.7,71.6,77.2c19.35-.689,29.757,2.768,38.939,5.819,2.9.964,5.641,1.874,8.486,2.589,7.666,1.927,15.352,7.832,25.085,15.307,8.467,6.5,18.062,13.874,30.487,20.935,28.933,16.441,63.548,26.61,102.882,30.227q11.827,1.087,24.184,1.088c31.531,0,65.836-5.32,104.121-16.107,17.983-5.065,34.3-10.793,50.081-16.331,20.866-7.324,40.575-14.241,59.95-17.964A358.075,358.075,0,0,1,561.059,96.6a246.984,246.984,0,0,1,52.165,2.221c27.5,4.133,54.3,12.535,80.221,20.66,10.088,3.162,19.617,6.149,29.142,8.882l-.032.111c-9.527-2.733-19.056-5.721-29.145-8.882-25.913-8.124-52.709-16.525-80.2-20.656-36.022-5.338-64.975-2.287-97.366,3.937-19.367,3.721-39.072,10.637-59.933,17.959-15.782,5.539-32.1,11.266-50.088,16.333a446.6,446.6,0,0,1-65.186,13.554A315.9,315.9,0,0,1,301.4,153.26Z" transform="translate(0.23 82.231)" fill="#0e0e0e"/>
        <path id="パス_8043" data-name="パス 8043" d="M292.121,157.985q-7.715,0-15.185-.425c-41.237-2.34-74.691-11.369-102.275-27.594-14.247-8.381-24.976-17.93-33.6-25.6-7.982-7.106-14.288-12.716-20.731-15.416-2.605-1.091-5.114-2.4-7.775-3.79-9.135-4.763-19.49-10.165-39.466-10.138-16.107.019-33.766,3.273-49.35,6.145-8.4,1.547-16.332,3.009-23.494,3.9l-.014-.118c7.159-.889,15.092-2.351,23.488-3.9,15.586-2.866,33.257-6.122,49.37-6.138h.131c19.921,0,30.262,5.392,39.388,10.152,2.659,1.386,5.171,2.7,7.767,3.79,6.462,2.707,12.773,8.326,20.763,15.438,8.617,7.668,19.34,17.212,33.578,25.588,27.567,16.217,61.005,25.238,102.224,27.578,36.4,2.065,77.336-3.413,128.831-17.244,14.549-3.908,28.1-8.086,41.2-12.127,24.488-7.554,47.618-14.685,70.006-17.5a387.025,387.025,0,0,1,46.118-3.341,311.363,311.363,0,0,1,52.639,4.1c26.173,4.293,51.9,11.648,76.781,18.761,11.792,3.371,22.93,6.554,34.056,9.413l-.03.118c-11.133-2.86-22.265-6.04-34.057-9.414-24.88-7.112-50.606-14.466-76.768-18.757a313.884,313.884,0,0,0-50.473-4.1,379.661,379.661,0,0,0-48.252,3.333c-22.384,2.812-45.5,9.948-69.986,17.5-13.1,4.042-26.647,8.22-41.2,12.129a565.508,565.508,0,0,1-65.445,13.948A335.53,335.53,0,0,1,292.121,157.985Z" transform="translate(0.249 79.884)" fill="#0e0e0e"/>
        <path id="パス_8044" data-name="パス 8044" d="M282.151,163.063q-2.9,0-5.752-.062c-19.208-.41-35.892-2.183-51.006-5.421a180.279,180.279,0,0,1-25.8-7.5,148.745,148.745,0,0,1-24.817-12.028c-15.763-9.593-26.877-21.081-35.808-30.3-6.354-6.565-11.843-12.234-17.3-15.5-2.377-1.421-4.684-3.079-7.126-4.844-9.077-6.535-19.364-13.943-39.965-14.6-17.627-.565-36.925,3.719-53.949,7.5C13.372,81.91,6.521,83.43.27,84.483l-.019-.118c6.248-1.052,13.1-2.572,20.35-4.183,17.029-3.776,36.334-8.06,53.98-7.5a64.88,64.88,0,0,1,24.41,5.153,83.76,83.76,0,0,1,15.619,9.475c2.44,1.758,4.746,3.417,7.119,4.838,5.475,3.278,10.968,8.953,17.326,15.523,8.926,9.222,20.034,20.7,35.785,30.286,34.735,21.141,74.6,24.352,101.564,24.929,43.147.92,87.67-8.815,129.357-19.473,10.261-2.623,20.093-5.306,29.608-7.9,30.4-8.29,56.648-15.453,82.775-17.064a434.49,434.49,0,0,1,47-.509,413.788,413.788,0,0,1,53.115,5.968c24.172,4.292,48.148,10.533,71.335,16.567,14.193,3.7,27.595,7.184,40.977,10.237l-.026.118c-13.383-3.054-26.786-6.545-40.977-10.238-23.185-6.034-47.159-12.274-71.326-16.566a410.267,410.267,0,0,0-100.085-5.456c-26.115,1.608-52.362,8.764-82.753,17.054-9.509,2.595-19.342,5.277-29.608,7.9-26.594,6.8-46.859,11.219-65.706,14.33A355.961,355.961,0,0,1,282.151,163.063Z" transform="translate(0.268 77.46)" fill="#0e0e0e"/>
        <path id="パス_8045" data-name="パス 8045" d="M270.03,168.526c-17.184,0-31.565-1.152-44.874-3.579a159.584,159.584,0,0,1-25.7-6.842A128.053,128.053,0,0,1,174.9,146.187c-17.021-10.712-28.277-24.2-37.32-35.033-5.319-6.373-9.912-11.875-14.574-15.565-2.167-1.715-4.28-3.671-6.514-5.757-9-8.365-19.207-17.846-40.425-19.21-18.84-1.21-39.432,4.145-57.6,8.869C12,81.17,5.9,82.756.293,83.94l-.025-.118c5.607-1.184,11.7-2.77,18.16-4.449C36.605,74.646,57.208,69.289,76.065,70.5a56.638,56.638,0,0,1,24.924,7.069c6.367,3.618,11.258,8.162,15.573,12.172,2.236,2.077,4.348,4.039,6.514,5.751,4.672,3.7,9.268,9.2,14.591,15.581,9.039,10.829,20.287,24.307,37.293,35.011,32.663,20.557,71.082,22.7,100.9,22.278,43.069-.615,89.192-11.817,129.884-21.7,4.712-1.144,9.381-2.293,13.9-3.4,36.856-9.065,68.69-16.9,99.616-16.9h.04c16.171,0,31.831.766,47.873,2.331,16.962,1.658,34.491,4.214,53.591,7.825,20.914,3.993,41.845,8.966,62.086,13.776,17.919,4.264,34.844,8.278,51.7,11.661l-.024.118c-16.856-3.382-33.783-7.4-51.7-11.662-20.241-4.809-41.17-9.782-62.082-13.775-37.112-7.015-68.4-10.146-101.444-10.153h-.04c-30.911,0-62.738,7.827-99.589,16.891-4.515,1.111-9.183,2.26-13.9,3.4-23.657,5.746-44.949,10.819-65.966,14.7-24.085,4.445-45,6.738-63.945,7.008Q272.892,168.526,270.03,168.526Z" transform="translate(0.287 74.997)" fill="#0e0e0e"/>
        <path id="パス_8046" data-name="パス 8046" d="M256.819,174.494a215.842,215.842,0,0,1-31.9-2.178,142.98,142.98,0,0,1-25.6-6.181,111.937,111.937,0,0,1-24.3-11.8c-18.057-11.746-29.273-27.285-38.284-39.772-4.5-6.231-8.381-11.612-12.391-15.618-1.967-1.964-3.894-4.181-5.935-6.527-8.475-9.747-19.021-21.878-40.859-23.961C57.677,66.56,35.986,73.021,16.847,78.72c-5.865,1.747-11.406,3.4-16.532,4.692L.287,83.3c5.123-1.3,10.659-2.945,16.528-4.692,19.147-5.7,40.849-12.165,60.739-10.268a51.656,51.656,0,0,1,25.431,9.051c6.417,4.5,11.251,10.049,15.506,14.95,2.038,2.345,3.964,4.56,5.922,6.521,4.018,4.011,7.9,9.4,12.4,15.633,9.007,12.478,20.215,28.008,38.253,39.742,31.02,20.176,68.083,21.242,100.249,19.628,35.648-1.79,71.493-10.185,109.445-19.067,6.85-1.6,13.935-3.263,20.962-4.866C449.362,139.791,485.517,132.2,520.45,134.3c29.282,1.755,60.032,6.2,102.82,14.852,14.785,3.019,29.716,6.3,44.155,9.483,24.674,5.431,47.979,10.561,71.1,14.586l-.02.118c-23.126-4.027-46.433-9.156-71.108-14.587-14.438-3.178-29.371-6.464-44.154-9.482-42.782-8.654-73.527-13.095-102.8-14.85-34.917-2.093-71.065,5.493-114.691,15.633-7.031,1.6-14.116,3.262-20.962,4.866C346.839,163.8,310.987,172.2,275.33,173.985,269.787,174.258,263.529,174.494,256.819,174.494Z" transform="translate(0.307 72.52)" fill="#0e0e0e"/>
        <path id="パス_8047" data-name="パス 8047" d="M742.5,184.611c-38.5-5.715-78.275-14.352-116.74-22.7l-9.465-2.043c-34.7-7.5-64.679-13.975-94.7-17.5a208.367,208.367,0,0,0-24.4-1.369c-30.375,0-61.652,5.784-91.463,12.332-12.66,2.732-25.3,5.729-37.515,8.627-32.291,7.657-62.792,14.889-93.442,17.537-13.906,1.2-32.169,2.309-50.1.2a129.248,129.248,0,0,1-25.508-5.515,98.976,98.976,0,0,1-24.049-11.683c-18.906-12.7-29.947-30.331-38.817-44.495a160.1,160.1,0,0,0-10.64-15.684c-1.776-2.17-3.522-4.589-5.372-7.15C111.922,83.555,101.494,69.124,79.025,66.3,58.251,63.7,35.586,71.286,15.59,77.985,10.186,79.8,5.081,81.5.336,82.9L.3,82.786c4.743-1.392,9.846-3.1,15.249-4.91,9.593-3.215,20.477-6.86,31.3-9.286,12.39-2.781,22.92-3.566,32.191-2.4a48.623,48.623,0,0,1,25.936,11.1c6.46,5.4,11.219,11.99,15.417,17.8,1.849,2.559,3.594,4.974,5.367,7.144a160,160,0,0,1,10.648,15.7c8.866,14.155,19.9,31.77,38.784,44.46,29.726,19.977,67.025,19.793,99.585,16.98,30.635-2.647,61.132-9.878,93.419-17.534,12.221-2.9,24.856-5.894,37.518-8.627,24.9-5.469,43.648-8.739,60.8-10.6,20.358-2.211,38.381-2.331,55.1-.362,30.023,3.533,60,10.009,94.707,17.505q4.666,1.009,9.466,2.043c38.463,8.351,78.237,16.987,116.733,22.7Z" transform="translate(0.325 70.029)" fill="#0e0e0e"/>
        <path id="パス_8048" data-name="パス 8048" d="M746.492,195.894a1178.6,1178.6,0,0,1-118.218-21.335c-14.07-3.212-27.207-6.462-39.911-9.6-22.669-5.607-44.081-10.9-65.611-14.639a219.927,219.927,0,0,0-37.839-3.134c-22.976,0-48.634,3.1-79.189,9.433-17.241,3.509-34.3,7.716-50.789,11.784-27.81,6.858-54.078,13.337-80.684,16.608-14.946,1.838-32.551,3.519-49.8,2.051a117.715,117.715,0,0,1-25.407-4.844,88.237,88.237,0,0,1-23.8-11.558c-19.6-13.6-30.365-33.331-39.015-49.188-3.179-5.827-6.181-11.329-9.222-15.78-1.592-2.331-3.166-4.9-4.832-7.625-8.269-13.512-18.561-30.328-41.67-33.9-21.6-3.343-46.188,5.788-65.938,13.126C9.54,79.152,4.791,80.915.357,82.39l-.036-.109c4.433-1.474,9.181-3.238,14.212-5.106C24.473,73.484,35.74,69.3,47,66.536c12.923-3.168,23.889-3.984,33.524-2.487C103.692,67.634,114,84.475,122.28,98.007c1.666,2.724,3.239,5.292,4.83,7.62,3.044,4.455,6.047,9.96,9.227,15.789,8.645,15.846,19.4,35.567,38.979,49.149,28.508,19.778,64.392,18.577,98.926,14.33,26.6-3.271,52.864-9.749,80.669-16.606,16.5-4.068,33.55-8.275,50.794-11.784,23.2-4.807,43.256-7.7,61.3-8.852,20.219-1.287,38.462-.452,55.771,2.551,21.531,3.736,42.944,9.034,65.611,14.642,12.707,3.142,25.844,6.4,39.911,9.6a1177.371,1177.371,0,0,0,118.207,21.333Z" transform="translate(0.343 67.53)" fill="#0e0e0e"/>
        <path id="パス_8049" data-name="パス 8049" d="M750.48,207.182a882.65,882.65,0,0,1-119.7-19.968c-19.439-4.686-37.193-9.83-54.36-14.8-18.029-5.225-35.056-10.16-52.516-14.134a228.2,228.2,0,0,0-51.044-5.522c-20.522,0-42.626,2.382-67.156,7.157-21.13,4.046-41.861,9.453-61.908,14.685-24.105,6.288-46.875,12.227-70.086,15.937-13.475,2.154-27.754,4.085-41.964,4.085q-3.777,0-7.539-.191a106.484,106.484,0,0,1-25.3-4.17,79.491,79.491,0,0,1-23.544-11.426c-8.971-6.425-16.775-14.822-23.856-25.669-6.158-9.433-10.905-19.387-15.094-28.171-2.769-5.8-5.385-11.292-8.065-15.917-1.421-2.446-2.823-5.119-4.312-7.949-8.146-15.483-18.282-34.75-42.043-39.1-22.369-4.1-47.821,6.265-68.272,14.591C9.005,78.535,4.552,80.347.38,81.893l-.04-.108c4.171-1.547,8.623-3.359,13.337-5.277C23.934,72.332,35.559,67.6,47.241,64.5c13.424-3.567,24.8-4.413,34.771-2.587,23.818,4.362,33.97,23.657,42.126,39.16,1.489,2.829,2.894,5.5,4.31,7.946,2.682,4.629,5.3,10.116,8.07,15.925,8.367,17.544,18.78,39.378,38.913,53.8,28.85,20.66,65.848,16.863,98.266,11.682,23.205-3.709,45.971-9.649,70.075-15.936,20.049-5.23,40.781-10.637,61.916-14.685,22.6-4.4,42.811-6.72,61.792-7.093a230.957,230.957,0,0,1,56.451,5.458c17.461,3.976,34.492,8.911,52.523,14.136,17.172,4.974,34.922,10.121,54.36,14.8a882.762,882.762,0,0,0,119.681,19.965Z" transform="translate(0.363 65.027)" fill="#0e0e0e"/>
        <path id="パス_8050" data-name="パス 8050" d="M754.473,218.481c-22-1.692-41.758-3.849-60.409-6.592A593.962,593.962,0,0,1,633.3,199.881c-22.63-5.74-43.136-12.626-62.969-19.284-15.491-5.2-30.123-10.114-45.269-14.355-36.086-10.1-75.13-11.1-119.365-3.029-24.55,4.407-48.448,11.069-71.559,17.51-20.933,5.835-40.7,11.347-60.957,15.338-14.2,2.8-30.59,5.751-46.769,5.751-.815,0-1.625-.007-2.439-.022a98.415,98.415,0,0,1-25.2-3.49,72.021,72.021,0,0,1-23.292-11.29c-9.175-6.78-17.024-15.8-24-27.594-6.07-10.259-10.645-21.2-14.685-30.85-2.435-5.821-4.737-11.318-7.114-16.107-1.249-2.513-2.5-5.238-3.813-8.122-8.006-17.511-17.968-39.3-42.4-44.448C60.378,55.023,34.1,66.637,12.988,75.964,8.543,77.928,4.342,79.783.4,81.392l-.043-.107C4.3,79.68,8.5,77.831,12.946,75.862c10.556-4.665,22.521-9.948,34.6-13.4,13.9-3.973,25.662-4.856,35.955-2.682,10.88,2.292,19.867,8.081,27.456,17.7,6.567,8.317,11.06,18.145,15.024,26.815,1.318,2.884,2.563,5.608,3.812,8.12,2.382,4.791,4.682,10.29,7.117,16.107,8.046,19.24,18.061,43.185,38.642,58.393,30.2,22.317,72.4,14,97.606,9.033,20.252-3.991,40.018-9.5,60.947-15.336,23.114-6.444,47.017-13.106,71.57-17.514a304.424,304.424,0,0,1,62.276-5.329,241.008,241.008,0,0,1,29.1,2.424,224.716,224.716,0,0,1,28.043,5.938c15.15,4.241,29.783,9.155,45.275,14.356,19.83,6.658,40.335,13.543,62.96,19.283,35.56,9.065,74.057,14.973,121.155,18.594Z" transform="translate(0.379 62.512)" fill="#0e0e0e"/>
        <path id="パス_8051" data-name="パス 8051" d="M758.462,229.776c-23.58-1.29-43.058-3-61.3-5.376a472.1,472.1,0,0,1-61.354-11.857c-24.764-6.591-47.174-15.159-68.844-23.455-13.919-5.329-27.067-10.356-40.752-14.882-37.881-12.529-77.308-15.041-120.533-7.7-27.637,4.637-54.35,12.641-80.185,20.383-17.33,5.193-35.25,10.563-52.851,14.695-15.719,3.69-32.45,7.313-48.912,7.555a91.481,91.481,0,0,1-25.09-2.808,65.571,65.571,0,0,1-23.041-11.15c-9.337-7.117-17.2-16.753-24.042-29.461-5.957-11.072-10.343-23-14.212-33.523-2.158-5.866-4.195-11.406-6.323-16.352-1.091-2.536-2.183-5.26-3.337-8.142-7.85-19.6-17.619-43.992-42.73-49.951C61.169,52.11,34.1,64.989,12.351,75.339,8.142,77.342,4.167,79.233.42,80.9l-.047-.105C4.12,79.133,8.093,77.238,12.3,75.235,34.066,64.881,61.16,51.99,84.992,57.644c11.178,2.652,20.324,9.21,27.963,20.052C119.548,87.052,123.933,98,127.8,107.659c1.155,2.884,2.25,5.607,3.335,8.141,2.132,4.948,4.168,10.491,6.325,16.358,7.7,20.928,17.273,46.975,38.211,62.931,29.232,22.279,69.982,12.714,96.947,6.383,17.6-4.131,35.516-9.5,52.844-14.694,25.838-7.742,52.555-15.751,80.2-20.386a289.749,289.749,0,0,1,32.085-3.671,252.519,252.519,0,0,1,30.667.108,231.467,231.467,0,0,1,57.837,11.265c13.687,4.526,26.835,9.557,40.757,14.883,21.673,8.29,44.074,16.862,68.832,23.449,43.892,11.725,88.587,15.366,122.63,17.228Z" transform="translate(0.398 60.002)" fill="#0e0e0e"/>
        <path id="パス_8052" data-name="パス 8052" d="M762.447,241.08c-25.087-.829-44.267-2.116-62.188-4.158a394.749,394.749,0,0,1-61.94-11.707c-26.313-7.326-50.166-17.567-73.234-27.469-12.3-5.281-25.024-10.743-37.719-15.565-39.506-15.011-79.315-19.053-121.7-12.359-30.495,4.76-59.777,14.224-88.094,23.377-14.9,4.814-30.3,9.792-45.463,13.929-13.937,3.8-31.282,8.535-48.623,9.375a85.312,85.312,0,0,1-24.976-2.123,60.015,60.015,0,0,1-22.79-11.006c-9.465-7.437-17.313-17.67-23.991-31.281-5.826-11.874-10.01-24.789-13.7-36.184-1.925-5.939-3.742-11.549-5.657-16.659-.947-2.508-1.884-5.18-2.883-8.008-7.273-20.6-17.232-48.815-43.041-55.607C61.987,49.2,34.151,63.366,11.785,74.751c-4,2.033-7.771,3.954-11.341,5.665l-.05-.1c3.568-1.709,7.343-3.63,11.339-5.663,22.384-11.393,50.241-25.573,74.74-19.125,11.481,3.021,20.793,10.376,28.472,22.485,6.612,10.429,10.881,22.523,14.649,33.2,1,2.827,1.941,5.5,2.881,8.006,1.917,5.111,3.735,10.723,5.66,16.664,7.7,23.782,16.437,50.737,37.653,67.41,28.341,22.265,67.612,11.557,96.285,3.733,15.159-4.136,30.564-9.119,45.457-13.928,28.323-9.154,57.61-18.62,88.113-23.381a251.675,251.675,0,0,1,32.273-3.015,232.175,232.175,0,0,1,30.948,1.215,229.528,229.528,0,0,1,29.777,5.211,243.578,243.578,0,0,1,28.762,8.958c12.7,4.825,25.42,10.286,37.724,15.568,23.065,9.9,46.914,20.133,73.221,27.464,41.932,11.709,84.427,14.543,124.1,15.862Z" transform="translate(0.421 57.488)" fill="#0e0e0e"/>
        <path id="パス_8053" data-name="パス 8053" d="M766.437,252.378c-38.32-.474-82.784-2.03-125.608-14.5-27.5-7.993-52.529-19.888-76.73-31.391-11.6-5.512-23.589-11.212-35.583-16.344-41-17.535-81.192-23.1-122.87-17.023-33.19,4.8-64.866,15.858-95.5,26.552-12.635,4.41-25.7,8.972-38.581,12.982l-.024.007c-16.713,5.2-37.016,11.523-56.5,11.523-14.045,0-27.664-3.283-39.21-12.635-9.542-7.728-17.335-18.511-23.825-32.971-5.669-12.627-9.64-26.5-13.146-38.736-1.748-6.108-3.4-11.876-5.159-17.207-.78-2.386-1.564-4.9-2.393-7.563-7.088-22.747-16.8-53.906-43.384-61.571-25.107-7.237-53.69,8.235-76.657,20.667-3.805,2.058-7.4,4-10.8,5.757l-.053-.1c3.406-1.748,7-3.693,10.8-5.751C22.6,67.915,35.5,60.928,48.692,56.393,63.935,51.149,76.78,50.17,87.957,53.4c11.815,3.406,21.318,11.606,29.037,25.078,6.632,11.573,10.777,24.855,14.427,36.574.829,2.661,1.613,5.175,2.392,7.561,1.761,5.329,3.412,11.1,5.161,17.212,7.291,25.463,15.554,54.332,36.929,71.651,27.516,22.289,66.869,10.037,95.6,1.092l.025-.007c12.878-4.01,25.944-8.571,38.578-12.981,30.638-10.7,62.319-21.757,95.518-26.558a223.4,223.4,0,0,1,32.121-2.356h.338a216.83,216.83,0,0,1,31.224,2.322,227.454,227.454,0,0,1,30.116,6.6,256,256,0,0,1,29.134,10.467c12,5.13,23.989,10.831,35.587,16.343,24.2,11.5,49.216,23.395,76.713,31.384,42.807,12.464,87.266,14.016,125.579,14.494Z" transform="translate(0.438 54.968)" fill="#0e0e0e"/>
        <path id="パス_8054" data-name="パス 8054" d="M758.205,263.736c-16.833,0-34.381-.347-51.74-1.776-23.541-1.94-44.187-5.67-63.124-11.4-28.46-8.612-54.478-22.156-79.643-35.253-11.086-5.77-22.548-11.737-34.028-17.173-42.4-20.093-82.968-27.187-124.04-21.687-35.773,4.766-69.722,17.574-102.552,29.963-10.494,3.959-21.346,8.053-32.048,11.8l-.947.33c-17.105,5.994-38.016,13.32-57.805,13.321-13.08,0-25.663-3.2-36.332-12.107-9.628-8.038-17.375-19.4-23.686-34.744-5.518-13.417-9.111-27.644-12.585-41.4-1.568-6.206-3.047-12.066-4.637-17.555-.66-2.288-1.323-4.682-2.024-7.216C126.124,93.958,116.689,59.889,89.4,51.39c-25.717-8.076-55.029,8.72-78.58,22.215C7.182,75.691,3.746,77.662.479,79.446l-.056-.1c3.265-1.786,6.7-3.755,10.341-5.84,11.644-6.672,24.841-14.234,38.381-19.137C64.81,48.7,77.99,47.686,89.438,51.279c27.358,8.51,36.8,42.616,43.7,67.518.7,2.534,1.364,4.927,2.024,7.215,1.589,5.49,3.07,11.353,4.637,17.557,6.876,27.227,14.67,58.087,36.231,76.086,26.757,22.336,65.637,8.713,94.026-1.234l.942-.33c10.7-3.748,21.555-7.841,32.045-11.8,32.836-12.389,66.8-25.2,102.578-29.963a201.412,201.412,0,0,1,32.641-1.7,204.932,204.932,0,0,1,31.5,3.435,227.385,227.385,0,0,1,30.453,7.988,271.029,271.029,0,0,1,29.514,11.977c11.481,5.442,22.945,11.408,34.031,17.173,25.157,13.1,51.173,26.638,79.623,35.245,41.889,12.688,85.735,13.441,127.053,13.126v.118Q764.4,263.73,758.205,263.736Z" transform="translate(0.452 52.446)" fill="#0e0e0e"/>
        <path id="パス_8055" data-name="パス 8055" d="M743.416,275.492c-11.133,0-22.59-.257-33.856-1.014-23.891-1.6-44.73-5.286-63.71-11.251-29.252-9.2-56.149-24.387-82.159-39.075-10.7-6.046-21.774-12.3-32.868-18.054-35.766-18.557-69.692-27.7-103.052-27.7a182.7,182.7,0,0,0-22.154,1.348c-38.293,4.673-74.431,19.4-109.381,33.652-8.43,3.434-17.148,6.987-25.745,10.34l-1.7.663c-17.447,6.806-38.9,15.175-58.905,15.176-12.229,0-23.915-3.124-33.822-11.645-9.692-8.336-17.377-20.271-23.494-36.477-5.358-14.2-8.738-29.371-12.008-44.056-1.409-6.324-2.739-12.3-4.179-17.954-.54-2.122-1.082-4.323-1.658-6.651-3.236-13.11-7.263-29.427-13.9-43.285-7.744-16.184-17.537-26.077-29.937-30.25-26.359-8.869-56.4,9.26-80.533,23.827C6.89,75.174,3.62,77.151.5,78.952l-.058-.1c3.115-1.8,6.385-3.777,9.846-5.866,11.9-7.183,25.39-15.324,39.286-20.607C65.674,46.259,79.2,45.2,90.928,49.148a43.137,43.137,0,0,1,17.779,11.725,72.585,72.585,0,0,1,12.226,18.584c6.639,13.869,10.668,30.193,13.905,43.308.574,2.328,1.118,4.528,1.658,6.65,1.44,5.659,2.771,11.632,4.179,17.958,6.455,28.972,13.769,61.809,35.465,80.471,26.055,22.413,64.524,7.407,92.613-3.553l1.7-.662c8.6-3.35,17.313-6.9,25.745-10.34,17.458-7.117,35.51-14.476,53.639-20.5,20.345-6.759,38.586-11.064,55.767-13.16,40.566-4.949,81.546,3.671,125.277,26.364,11.1,5.759,22.167,12.01,32.872,18.056,26,14.686,52.894,29.87,82.138,39.066,41.2,12.956,84.309,12.954,128.526,11.757v.118C764.7,275.25,754.206,275.492,743.416,275.492Z" transform="translate(0.477 49.928)" fill="#0e0e0e"/>
        <path id="パス_8056" data-name="パス 8056" d="M768.436,274.556c-18.313-.118-37.825-.355-57.341-1.945-21.239-1.727-39.813-4.866-56.783-9.593-3.843-1.066-7.68-2.25-11.4-3.5-27.735-9.267-53.494-24.019-78.4-38.285-11.4-6.53-23.2-13.284-35.044-19.437a258.276,258.276,0,0,0-43.871-18.142c-27.21-8.219-53.431-10.349-80.161-6.514-20.258,2.913-41.224,8.772-67.98,19-10.6,4.062-21.318,8.515-31.679,12.82-10.925,4.541-22.222,9.238-33.428,13.489-8.461,3.191-20.049,7.561-31.695,10.553-12.9,3.316-23.9,4.471-33.627,3.534a54.7,54.7,0,0,1-14.966-3.52,47.875,47.875,0,0,1-13.607-8.271c-21.621-18.668-29.41-51.063-36.281-79.645-1.522-6.33-2.961-12.309-4.5-17.984-.628-2.3-1.259-4.685-1.927-7.211-2.7-10.185-5.749-21.742-10.039-32.712-8.461-21.836-19.587-34.871-34.026-39.851a44.068,44.068,0,0,0-15.821-2.327c-9.983.316-20.779,3.316-35.006,9.711C30.772,59.28,20.9,64.865,12.187,69.792,8.357,71.958,4.738,74,1.3,75.858l-.056-.1C4.682,73.9,8.3,71.858,12.13,69.692,20.842,64.764,30.716,59.177,40.8,54.618c14.247-6.4,25.055-9.4,35.053-9.722a44.177,44.177,0,0,1,15.863,2.333c14.473,4.994,25.626,18.05,34.087,39.918,4.293,10.977,7.343,22.532,10.043,32.725.668,2.526,1.3,4.913,1.927,7.211,1.547,5.676,2.984,11.656,4.5,17.986,6.869,28.566,14.651,60.941,36.24,79.586,7.906,6.824,17.232,10.671,28.508,11.76,22.249,2.144,47.114-7.234,65.27-14.08,11.2-4.253,22.5-8.947,33.426-13.488,10.362-4.306,21.081-8.758,31.682-12.821,26.766-10.227,47.741-16.088,68.007-19a179.366,179.366,0,0,1,40.771-1.165,194.267,194.267,0,0,1,39.438,7.683A258.372,258.372,0,0,1,529.5,201.69c11.85,6.158,23.642,12.909,35.047,19.439,24.906,14.264,50.659,29.016,78.384,38.276,3.722,1.252,7.557,2.429,11.4,3.5,36.729,10.241,73.4,11.284,114.093,11.538Z" transform="translate(1.331 47.854)" fill="#0e0e0e"/>
        <path id="パス_8057" data-name="パス 8057" d="M762.451,274.132c-18.771-.782-37.164-1.658-55.787-3.736-20.788-2.322-38.951-5.887-55.525-10.9-3.76-1.133-7.52-2.369-11.176-3.686-26.238-9.306-50.856-23.619-74.663-37.46-12.1-7.034-24.6-14.307-37.205-20.856a245.544,245.544,0,0,0-43.583-17.865c-26.723-7.84-52.652-9.506-79.27-5.093-24.766,4.123-47.609,12.48-66.695,20.113-8.386,3.372-16.893,7.009-25.119,10.526-12.791,5.468-26.011,11.122-39.243,15.98a268.166,268.166,0,0,1-31.676,9.884c-12.733,2.929-23.647,3.79-33.369,2.64a56.158,56.158,0,0,1-14.82-3.776,49.424,49.424,0,0,1-13.5-8.344c-21.523-18.653-29.778-50.6-37.062-78.782-1.634-6.325-3.179-12.3-4.83-17.986-.7-2.388-1.4-4.866-2.144-7.491-2.831-9.993-6.04-21.318-10.338-32.079-8.7-21.768-19.817-34.784-33.99-39.793a41.887,41.887,0,0,0-15.769-2.347c-11.888.493-23.8,4.974-34.915,9.754-9.655,4.192-19.186,9.238-27.6,13.681C9.916,68.761,5.9,70.884,2.1,72.779l-.051-.1c3.8-1.895,7.816-4.021,12.059-6.266,8.416-4.448,17.953-9.491,27.612-13.685,11.12-4.78,23.05-9.271,34.957-9.763a42,42,0,0,1,15.812,2.353c14.212,5.021,25.344,18.061,34.061,39.862,4.3,10.764,7.511,22.095,10.343,32.095.744,2.623,1.446,5.1,2.144,7.49,1.658,5.685,3.2,11.663,4.831,17.99,7.279,28.168,15.53,60.093,37.025,78.724,7.859,6.806,17.1,10.762,28.257,12.091,20.515,2.433,43.359-4.579,64.99-12.518,13.23-4.856,26.453-10.51,39.239-15.978,8.226-3.517,16.733-7.154,25.12-10.526,12.523-5.008,22.944-8.777,32.795-11.859a251.01,251.01,0,0,1,33.925-8.262,174.263,174.263,0,0,1,40.164-1.986,183.2,183.2,0,0,1,39.158,7.082,246.646,246.646,0,0,1,43.605,17.874c12.6,6.552,25.113,13.824,37.21,20.858C589.162,232.089,613.772,246.4,640,255.7c3.654,1.311,7.413,2.551,11.17,3.684,35.459,10.72,71.379,12.968,111.284,14.631Z" transform="translate(2.189 45.773)" fill="#0e0e0e"/>
        <path id="パス_8058" data-name="パス 8058" d="M756.471,273.7c-19.259-1.529-36.632-3-54.234-5.53a320.307,320.307,0,0,1-54.269-12.2c-3.514-1.144-7.1-2.411-10.948-3.873-24.721-9.375-48.18-23.213-70.867-36.6-12.8-7.544-26.048-15.35-39.421-22.312a234.6,234.6,0,0,0-43.3-17.588,166.829,166.829,0,0,0-78.378-3.671c-23.695,4.5-46.361,13.257-65.41,21.231-6.774,2.857-13.666,5.9-20.331,8.844-14.059,6.211-28.6,12.632-43.287,17.858a239.369,239.369,0,0,1-31.659,9.206c-12.566,2.553-23.395,3.127-33.106,1.754a57.858,57.858,0,0,1-14.676-4.027,51.208,51.208,0,0,1-13.39-8.418c-21.429-18.649-30.147-50.154-37.845-77.95-1.748-6.312-3.4-12.274-5.154-17.965-.784-2.519-1.574-5.135-2.41-7.9-2.945-9.759-6.283-20.82-10.588-31.311-8.9-21.687-20.015-34.687-33.968-39.742A39.945,39.945,0,0,0,77.516,41.14c-11.716.592-23.159,4.974-34.826,9.791-9.209,3.8-17.968,8.126-26.44,12.306C11.544,65.559,7.1,67.754,2.9,69.692l-.049-.105c4.2-1.938,8.645-4.131,13.347-6.453,8.471-4.178,17.235-8.5,26.45-12.307,11.676-4.821,23.13-9.2,34.864-9.8A40.039,40.039,0,0,1,93.275,43.4c7.7,2.787,14.677,8.139,20.749,15.907,4.929,6.306,9.276,14.124,13.287,23.9,4.307,10.5,7.646,21.555,10.592,31.32.835,2.77,1.625,5.385,2.41,7.905,1.756,5.685,3.406,11.654,5.154,17.967,7.689,27.78,16.4,59.267,37.806,77.888,7.816,6.792,16.975,10.854,28.007,12.422,21.515,3.041,45.884-4.258,64.711-10.955,14.685-5.225,29.221-11.645,43.278-17.855,6.665-2.944,13.557-5.989,20.332-8.844,19.054-7.978,41.728-16.738,65.433-21.238a169.478,169.478,0,0,1,39.556-2.807,172.89,172.89,0,0,1,38.877,6.482,235.082,235.082,0,0,1,43.32,17.6c13.377,6.959,26.62,14.77,39.427,22.322,22.682,13.383,46.137,27.211,70.848,36.582,3.851,1.46,7.432,2.724,10.944,3.87,36.832,12.04,74.9,15.06,108.476,17.723Z" transform="translate(3.042 43.699)" fill="#0e0e0e"/>
        <path id="パス_8059" data-name="パス 8059" d="M750.487,273.275h-.02c-34.666-4.145-70.512-8.43-105.672-20.82-3.358-1.177-6.869-2.5-10.722-4.059-23.234-9.356-45.513-22.72-67.059-35.642-13.514-8.107-27.49-16.489-41.648-23.862a223.673,223.673,0,0,0-43.013-17.311,159.611,159.611,0,0,0-77.485-2.25c-22.53,4.825-44.135,13.592-64.125,22.349-5.5,2.433-11.116,5-16.544,7.485-14.992,6.855-30.5,13.952-46.328,19.409a208.2,208.2,0,0,1-31.645,8.527c-12.222,2.151-23.272,2.443-32.842.868a59.544,59.544,0,0,1-14.53-4.285,53.087,53.087,0,0,1-13.282-8.494c-21.344-18.64-30.526-49.716-38.626-77.134-1.858-6.29-3.613-12.23-5.473-17.915-.878-2.651-1.76-5.4-2.693-8.315-3.052-9.524-6.514-20.319-10.822-30.546-9.11-21.611-20.214-34.594-33.944-39.688a38.118,38.118,0,0,0-15.663-2.384c-11.577.7-22.729,5.093-34.537,9.748l-.2.078c-8.681,3.42-17,7.234-25.047,10.921C13.323,62.361,8.367,64.633,3.7,66.61L3.657,66.5c4.663-1.977,9.619-4.248,14.864-6.652,8.047-3.689,16.37-7.5,25.053-10.924l.2-.078C55.59,44.194,66.749,39.8,78.345,39.093a38.263,38.263,0,0,1,15.71,2.392c7.608,2.822,14.567,8.225,20.677,16.06,4.9,6.277,9.259,14.026,13.333,23.686,4.313,10.231,7.773,21.029,10.826,30.555.933,2.913,1.816,5.665,2.692,8.315,1.861,5.685,3.616,11.628,5.474,17.917,8.1,27.4,17.274,58.462,38.592,77.08A54.444,54.444,0,0,0,213.4,227.852c22.549,3.71,47.571-3.584,64.427-9.393,15.827-5.448,31.327-12.548,46.318-19.409,5.427-2.487,11.039-5.052,16.545-7.486,20-8.764,41.606-17.528,64.146-22.356a160.469,160.469,0,0,1,77.541,2.26,224.048,224.048,0,0,1,43.037,17.319c14.166,7.375,28.141,15.758,41.658,23.865,21.542,12.921,43.82,26.281,67.043,35.635,3.855,1.553,7.361,2.879,10.717,4.056,35.147,12.387,70.987,16.67,105.647,20.814h.02Z" transform="translate(3.9 41.622)" fill="#0e0e0e"/>
        <path id="パス_8060" data-name="パス 8060" d="M744.506,272.848l-3.236-.525c-32.616-5.293-66.343-10.765-99.645-23.39-3.2-1.2-6.632-2.594-10.494-4.246-21.762-9.3-42.845-22.174-63.234-34.627-14.227-8.689-28.939-17.675-43.892-25.47a213.747,213.747,0,0,0-42.729-17.035c-25.383-6.78-50.438-7.053-76.593-.829-22.463,5.377-43.36,14.541-62.837,23.467-4.474,2.071-9.041,4.242-13.458,6.341C312.7,204,296.477,211.7,279.72,217.287a189.24,189.24,0,0,1-31.629,7.85c-12.05,1.791-23.012,1.786-32.58-.015a61.573,61.573,0,0,1-14.385-4.541,55.156,55.156,0,0,1-13.173-8.574c-9.457-8.29-17.427-19.66-24.366-34.766-6.1-13.279-10.581-27.489-14.914-41.232-2.013-6.383-3.908-12.413-5.922-18.191-.9-2.595-1.812-5.276-2.774-8.115-3.211-9.475-6.849-20.213-11.258-30.392C119.388,57.769,108.293,44.8,94.8,39.678a36.491,36.491,0,0,0-15.609-2.4c-10.531.74-20.607,4.554-31.273,8.591q-1.681.636-3.373,1.273c-8.053,3.018-15.824,6.315-23.343,9.5-5.9,2.5-11.471,4.864-16.7,6.884l-.043-.108c5.223-2.02,10.794-4.382,16.7-6.883,7.52-3.188,15.3-6.485,23.348-9.505q1.694-.635,3.372-1.272c10.675-4.041,20.759-7.857,31.306-8.6A36.573,36.573,0,0,1,94.838,39.57c7.52,2.857,14.449,8.312,20.607,16.213a107.426,107.426,0,0,1,13.383,23.481c4.41,10.185,8.053,20.924,11.26,30.4.962,2.842,1.87,5.52,2.774,8.115,2.013,5.781,3.908,11.81,5.922,18.195,8.483,26.909,18.1,57.407,39.245,75.945A56.5,56.5,0,0,0,215.529,225c17.242,3.246,38.827.612,64.152-7.829,16.751-5.584,32.97-13.293,48.655-20.748,4.418-2.1,8.985-4.264,13.46-6.342,19.483-8.929,40.385-18.1,62.859-23.474a159.844,159.844,0,0,1,38.336-4.446,154.317,154.317,0,0,1,38.315,5.281,213.7,213.7,0,0,1,42.754,17.043c14.957,7.8,29.669,16.784,43.9,25.475,20.386,12.451,41.465,25.325,63.219,34.62,3.866,1.651,7.3,3.039,10.489,4.243,33.291,12.62,67.012,18.092,99.623,23.383l3.236.526Z" transform="translate(4.754 39.545)" fill="#0e0e0e"/>
        <path id="パス_8061" data-name="パス 8061" d="M738.53,272.425l-6.751-1.4c-30.484-6.323-62.006-12.86-93.324-25.607-3.073-1.242-6.335-2.65-10.267-4.432-20.305-9.194-40.175-21.57-59.392-33.539-14.941-9.305-30.391-18.927-46.154-27.153A204.24,204.24,0,0,0,480.2,163.537c-24.977-6.451-49.741-6.26-75.7.585-21.7,5.762-42.306,15.3-61.552,24.585-3.908,1.885-7.9,3.855-11.765,5.76-15.93,7.859-32.4,15.988-49.616,21.53a170.959,170.959,0,0,1-31.621,7.17c-11.874,1.437-22.747,1.135-32.316-.9a63.755,63.755,0,0,1-14.24-4.8,57.479,57.479,0,0,1-13.065-8.645c-9.42-8.29-17.452-19.566-24.556-34.473-6.25-13.115-10.948-27.148-15.492-40.719-2.132-6.359-4.145-12.364-6.26-18.138-.989-2.692-1.984-5.47-3.037-8.409-3.316-9.274-7.081-19.785-11.51-29.74-9.54-21.436-20.626-34.384-33.9-39.579a34.928,34.928,0,0,0-15.556-2.423c-9.66.751-18.831,4.13-28.542,7.708-1.962.722-3.991,1.47-6.017,2.192-7.255,2.584-14.33,5.346-21.164,8.018-6.723,2.626-13.075,5.107-19,7.184l-.038-.109c5.922-2.077,12.273-4.557,19-7.183,6.838-2.672,13.91-5.434,21.166-8.019,2.036-.722,4.069-1.471,6.032-2.193,9.711-3.58,18.892-6.961,28.568-7.715A35.09,35.09,0,0,1,95.625,37.66c7.43,2.909,14.338,8.419,20.534,16.379A111.052,111.052,0,0,1,129.584,77.3c4.432,9.96,8.194,20.473,11.514,29.749,1.053,2.941,2.048,5.719,3.035,8.409,2.122,5.776,4.133,11.782,6.261,18.141,8.882,26.529,18.949,56.61,40.016,75.142a58.713,58.713,0,0,0,27.252,13.414c22.119,4.7,46.943-.814,63.872-6.267,17.2-5.543,33.674-13.667,49.6-21.524,3.863-1.906,7.857-3.875,11.767-5.76,19.251-9.283,39.863-18.831,61.572-24.592a155.2,155.2,0,0,1,37.726-5.267,145.657,145.657,0,0,1,38.033,4.68A204.369,204.369,0,0,1,522.7,180.192c15.768,8.227,31.218,17.851,46.161,27.157,19.214,11.962,39.082,24.34,59.379,33.53,3.931,1.776,7.191,3.188,10.262,4.431,31.31,12.742,62.826,19.279,93.3,25.6q3.382.7,6.745,1.4Z" transform="translate(5.605 37.463)" fill="#0e0e0e"/>
        <path id="パス_8062" data-name="パス 8062" d="M732.544,272c-3.493-.9-7.077-1.814-10.54-2.7-28.271-7.208-57.5-14.661-86.714-27.4-2.906-1.26-6.1-2.724-10.038-4.619-18.864-9.046-37.506-20.9-55.535-32.368-15.655-9.957-31.843-20.252-48.431-28.916a195.236,195.236,0,0,0-42.161-16.481c-24.59-6.132-49.06-5.476-74.809,2.005-20.55,6.016-39.452,15.2-60.266,25.7-3.2,1.617-6.481,3.3-9.649,4.926-16.3,8.365-33.154,17.015-50.986,22.561a155.5,155.5,0,0,1-31.6,6.49,99.381,99.381,0,0,1-32.053-1.784,61.369,61.369,0,0,1-27.051-13.77c-9.388-8.29-17.485-19.48-24.752-34.2-6.4-12.959-11.317-26.82-16.073-40.226-2.242-6.319-4.359-12.288-6.586-18.045-1.08-2.793-2.165-5.669-3.316-8.715-3.421-9.071-7.3-19.352-11.75-29.082C120.457,54,109.378,41.072,96.36,35.85a33.6,33.6,0,0,0-15.507-2.438c-8.972.783-17.425,3.84-26.373,7.076-2.63.947-5.35,1.935-8.091,2.86-6.2,2.093-12.3,4.28-18.2,6.4C20.355,52.552,12.956,55.2,6.1,57.363l-.034-.11c6.856-2.152,14.253-4.811,22.084-7.619,5.9-2.113,12-4.3,18.205-6.4,2.742-.925,5.461-1.909,8.09-2.86,8.956-3.239,17.415-6.3,26.4-7.082A33.664,33.664,0,0,1,96.4,35.747c7.343,2.944,14.228,8.507,20.465,16.533a115.539,115.539,0,0,1,13.469,23.05c4.451,9.734,8.329,20.015,11.752,29.09,1.149,3.046,2.235,5.922,3.316,8.713,2.227,5.759,4.345,11.725,6.587,18.05,9.285,26.173,19.81,55.837,40.795,74.375a61.146,61.146,0,0,0,27,13.738c22.719,5.391,47.121.417,63.6-4.705,17.823-5.543,34.672-14.19,50.967-22.553,3.169-1.627,6.445-3.308,9.651-4.926,20.819-10.506,39.725-19.693,60.282-25.71,25.77-7.488,50.26-8.145,74.87-2.006a195.458,195.458,0,0,1,42.182,16.489c16.592,8.667,32.783,18.964,48.438,28.922,18.025,11.464,36.665,23.318,55.522,32.361,3.941,1.895,7.13,3.358,10.035,4.619,29.2,12.737,58.43,20.19,86.692,27.4,3.468.884,7.053,1.8,10.54,2.7Z" transform="translate(6.468 35.383)" fill="#0e0e0e"/>
        <path id="パス_8063" data-name="パス 8063" d="M726.562,271.574c-4.826-1.5-9.81-3.021-14.63-4.491-25.979-7.921-52.843-16.107-79.823-28.7-3.553-1.646-7.106-3.435-9.812-4.8-17.437-8.852-34.834-20.168-51.66-31.11-16.37-10.647-33.3-21.656-50.725-30.768a186.906,186.906,0,0,0-41.871-16.2c-24.222-5.826-48.4-4.705-73.917,3.425-20.878,6.7-40.248,16.929-58.979,26.82-2.591,1.369-5.242,2.786-7.8,4.155-16.574,8.859-33.713,18.019-52.085,23.528a137.786,137.786,0,0,1-39.233,6.06,95.342,95.342,0,0,1-24.143-2.917,64.223,64.223,0,0,1-26.8-14.093c-9.356-8.3-17.528-19.4-24.961-33.944-6.552-12.811-11.69-26.507-16.659-39.754-2.351-6.267-4.571-12.187-6.9-17.914-1.175-2.892-2.356-5.868-3.606-9.02-3.69-9.3-7.506-18.918-11.973-28.424C120.969,52.088,109.9,39.179,97.138,33.941A32.254,32.254,0,0,0,81.688,31.48c-8.394.81-16.242,3.617-24.551,6.59-3.181,1.137-6.471,2.314-9.83,3.384-4.678,1.491-9.332,3.02-13.833,4.5-9.451,3.1-18.378,6.04-26.58,8.329l-.032-.111c8.2-2.292,17.125-5.224,26.575-8.327,4.5-1.479,9.156-3.008,13.834-4.5,3.352-1.066,6.642-2.25,9.822-3.382,8.316-2.975,16.171-5.784,24.578-6.6a32.35,32.35,0,0,1,15.506,2.469c12.792,5.249,23.884,18.178,33.916,39.526,4.468,9.508,8.29,19.128,11.976,28.429,1.249,3.15,2.43,6.126,3.606,9.019,2.327,5.73,4.548,11.649,6.9,17.916,9.688,25.827,20.669,55.1,41.587,73.651a64.01,64.01,0,0,0,26.75,14.076c18.161,4.769,40.647,3.654,63.315-3.142,18.357-5.506,35.5-14.663,52.064-23.519,2.563-1.37,5.211-2.787,7.8-4.155,18.737-9.894,38.111-20.124,59-26.828,25.539-8.137,49.741-9.258,73.979-3.427a187.012,187.012,0,0,1,41.9,16.213c17.434,9.119,34.363,20.126,50.735,30.774,16.823,10.941,34.218,22.254,51.649,31.1,2.7,1.371,6.258,3.157,9.808,4.8,26.968,12.587,53.827,20.776,79.8,28.7,4.82,1.47,9.8,2.989,14.631,4.491Z" transform="translate(7.319 33.304)" fill="#0e0e0e"/>
        <path id="パス_8064" data-name="パス 8064" d="M720.573,271.147c-6.227-2.3-12.425-4.509-18.986-6.852-23.615-8.433-48.033-17.155-72.651-29.434-3.3-1.633-6.555-3.365-9.585-4.992-16.028-8.609-31.449-18.88-47.775-29.756-17.081-11.38-34.744-23.146-53.03-32.717a175.253,175.253,0,0,0-41.585-15.927c-23.782-5.559-47.669-3.975-73.026,4.845-19.528,6.843-37.955,17.028-55.781,26.884l-1.917,1.059c-2.05,1.132-4.145,2.3-6.174,3.434-16.773,9.344-34.119,19.007-52.971,24.449a131.2,131.2,0,0,1-31.573,5.129A100.446,100.446,0,0,1,224,213.718a67.223,67.223,0,0,1-26.544-14.431c-9.337-8.313-17.574-19.34-25.18-33.709-6.706-12.672-12.065-26.211-17.248-39.3-2.453-6.2-4.77-12.052-7.194-17.736-1.277-3-2.558-6.073-3.915-9.33-3.79-9.086-7.7-18.475-12.179-27.759-10.28-21.275-21.343-34.169-33.824-39.415a31.03,31.03,0,0,0-15.4-2.481c-7.9.838-15.23,3.446-22.992,6.208-3.643,1.3-7.41,2.636-11.292,3.8q-3.278.984-6.514,1.965C29.569,45.191,18.095,48.655,7.7,51.2L7.67,51.09c10.394-2.546,21.867-6.009,34.013-9.676L48.2,39.451c3.88-1.165,7.646-2.5,11.288-3.8,7.768-2.764,15.106-5.374,23.018-6.214a31.158,31.158,0,0,1,15.454,2.487c7.166,3.013,14.007,8.679,20.331,16.839A126.709,126.709,0,0,1,131.84,71.4c4.485,9.281,8.4,18.677,12.184,27.764,1.356,3.257,2.637,6.334,3.908,9.329,2.423,5.685,4.737,11.541,7.195,17.74,10.093,25.5,21.532,54.4,42.4,72.97a67.143,67.143,0,0,0,26.5,14.406c18.565,5.357,40.951,4.8,63.034-1.58,18.842-5.437,36.187-15.1,52.951-24.442,2.028-1.13,4.124-2.3,6.174-3.435l1.917-1.066c17.825-9.852,36.257-20.041,55.794-26.884a140.8,140.8,0,0,1,35.9-7.745,120.736,120.736,0,0,1,37.187,2.9A175.392,175.392,0,0,1,518.6,167.288c18.289,9.573,35.956,21.341,53.041,32.721,16.322,10.874,31.74,21.145,47.765,29.751,3.029,1.627,6.286,3.358,9.581,4.99,24.611,12.277,49.031,21,72.639,29.429,6.561,2.344,12.759,4.557,18.986,6.852Z" transform="translate(8.18 31.226)" fill="#0e0e0e"/>
        <path id="パス_8065" data-name="パス 8065" d="M714.593,270.732c-7.682-3.309-15.41-6.49-23.594-9.857-21.183-8.717-43.087-17.729-65.232-29.521-3.212-1.7-6.514-3.564-9.356-5.178-14.638-8.314-28.842-18.021-43.879-28.3-17.791-12.162-36.189-24.733-55.346-34.771a167.85,167.85,0,0,0-41.3-15.65c-23.449-5.274-47.047-3.225-72.133,6.264-18.291,6.97-35.539,16.965-52.22,26.632l-4.188,2.424q-2.347,1.356-4.71,2.731c-16.914,9.83-34.405,19.991-53.69,25.344a121.558,121.558,0,0,1-31.56,4.446,101.428,101.428,0,0,1-31.266-4.43,70.779,70.779,0,0,1-26.292-14.76c-9.322-8.33-17.634-19.289-25.412-33.5-6.869-12.54-12.447-25.936-17.848-38.881-2.549-6.112-4.956-11.885-7.461-17.511-1.384-3.1-2.772-6.277-4.242-9.647-3.872-8.867-7.874-18.037-12.37-27.086C121.952,48.241,110.89,35.366,98.7,30.121a29.846,29.846,0,0,0-15.344-2.5c-7.471.862-14.356,3.316-21.645,5.9-4.033,1.434-8.2,2.917-12.554,4.145-15.9,4.479-28.9,7.972-40.662,10.454l-.024-.118c11.76-2.487,24.758-5.972,40.655-10.452,4.345-1.225,8.513-2.707,12.543-4.145,7.3-2.595,14.187-5.045,21.673-5.91a30,30,0,0,1,15.4,2.508c7.079,3.046,13.9,8.764,20.266,16.99A133.689,133.689,0,0,1,132.6,69.424c4.5,9.052,8.5,18.222,12.372,27.091,1.47,3.366,2.858,6.545,4.242,9.646,2.511,5.628,4.918,11.4,7.461,17.514,11.014,26.41,22.4,53.728,43.227,72.339a70.565,70.565,0,0,0,26.248,14.736c18.662,5.879,41.535,5.873,62.754-.017,19.27-5.35,36.754-15.507,53.662-25.332l4.71-2.731,4.193-2.42c16.685-9.669,33.938-19.667,52.238-26.64A136.966,136.966,0,0,1,439,145.043a114.53,114.53,0,0,1,36.9,2.3A168,168,0,0,1,517.236,163c19.164,10.041,37.563,22.614,55.356,34.775,15.041,10.275,29.237,19.981,43.872,28.292,2.842,1.614,6.142,3.478,9.356,5.177,22.141,11.789,44.042,20.8,65.222,29.517,8.182,3.367,15.912,6.548,23.594,9.857Z" transform="translate(9.034 29.139)" fill="#0e0e0e"/>
        <path id="パス_8066" data-name="パス 8066" d="M708.608,270.3c-9.165-4.569-18.517-8.942-28.418-13.572-18.693-8.743-38.022-17.782-57.6-28.9-2.961-1.666-5.884-3.416-9.13-5.364-13.264-7.965-26.238-17.077-39.974-26.723-18.493-12.988-37.616-26.42-57.669-36.936-14.212-7.453-27.623-12.481-41.015-15.372-23.141-5-46.444-2.487-71.24,7.683-17.156,7.086-33.323,16.92-48.957,26.43-2.023,1.232-4.114,2.5-6.166,3.744q-1.684,1.018-3.378,2.046c-17.008,10.313-34.6,20.979-54.276,26.229a113.093,113.093,0,0,1-31.547,3.764,102.318,102.318,0,0,1-31-5.31,74.558,74.558,0,0,1-26.036-15.091c-9.312-8.354-17.707-19.252-25.662-33.317-7.024-12.418-12.837-25.67-18.458-38.49-2.634-6.006-5.122-11.68-7.711-17.229-1.5-3.213-3-6.5-4.587-9.973-3.951-8.645-8.037-17.588-12.542-26.41-6.915-13.536-17.94-32.332-33.774-39.306a28.813,28.813,0,0,0-15.291-2.52c-7.1.887-13.592,3.206-20.47,5.661-4.363,1.557-8.874,3.168-13.636,4.422C34.2,39.954,20.856,42.985,9.3,45.038l-.02-.118c11.4-2.024,25.117-5.141,40.777-9.265,4.757-1.253,9.266-2.862,13.627-4.42,6.883-2.456,13.383-4.778,20.489-5.666A28.92,28.92,0,0,1,99.52,28.1c15.87,6.987,26.908,25.81,33.831,39.361,4.5,8.82,8.592,17.765,12.544,26.41,1.588,3.476,3.088,6.759,4.586,9.971,2.59,5.552,5.078,11.226,7.712,17.233,11.45,26.106,23.29,53.1,44.091,71.762a74.451,74.451,0,0,0,26,15.067c19,6.5,41.77,7.063,62.475,1.54C310.415,204.2,328,193.538,345,183.229q1.695-1.028,3.379-2.047c2.05-1.241,4.145-2.513,6.166-3.744,15.633-9.514,31.808-19.35,48.973-26.44a133.193,133.193,0,0,1,34.686-9.388,108.654,108.654,0,0,1,36.622,1.7c13.4,2.893,26.827,7.925,41.044,15.383,20.059,10.521,39.185,23.954,57.682,36.951,13.738,9.645,26.706,18.756,39.967,26.718,3.245,1.948,6.173,3.7,9.127,5.364,19.571,11.112,38.9,20.151,57.59,28.9,9.9,4.631,19.252,9,28.424,13.575Z" transform="translate(9.891 27.059)" fill="#0e0e0e"/>
        <path id="パス_8067" data-name="パス 8067" d="M702.623,269.877c-10.659-6.1-21.713-11.908-33.42-18.06-16.155-8.488-32.86-17.265-49.781-27.5-2.906-1.747-5.765-3.561-8.792-5.482l-.11-.069c-11.909-7.557-23.642-16.04-36.063-25.021-19.186-13.875-39.031-28.222-60-39.233-14.1-7.406-27.424-12.343-40.729-15.1-23.169-4.792-45.523-1.895-70.348,9.1-16.116,7.194-31.291,16.9-45.966,26.278-2.583,1.651-5.254,3.359-7.871,5.014l-2.161,1.369c-17.054,10.806-34.7,21.978-54.746,27.1a105.708,105.708,0,0,1-31.534,3.079,103.556,103.556,0,0,1-30.732-6.192,78.973,78.973,0,0,1-25.782-15.421c-9.31-8.385-17.792-19.232-25.936-33.161-7.191-12.307-13.236-25.431-19.082-38.122-2.707-5.879-5.265-11.431-7.921-16.886-1.619-3.324-3.237-6.714-4.949-10.3-4.027-8.425-8.182-17.138-12.695-25.723-7.106-13.528-18.345-32.315-33.753-39.253a27.822,27.822,0,0,0-15.239-2.538c-6.767.911-12.921,3.123-19.436,5.464A144.193,144.193,0,0,1,51,33.876c-14.085,3.452-28.229,6.247-40.9,8.081l-.017-.118c12.672-1.833,26.813-4.626,40.9-8.077A144.224,144.224,0,0,0,65.546,29.11c6.521-2.345,12.68-4.56,19.459-5.472a27.93,27.93,0,0,1,15.3,2.547c6.9,3.109,13.679,8.927,20.133,17.291A153.484,153.484,0,0,1,134.107,65.49c4.513,8.587,8.674,17.3,12.7,25.727,1.713,3.587,3.33,6.977,4.949,10.3,2.655,5.456,5.211,11.014,7.922,16.889,11.893,25.818,24.192,52.521,44.986,71.248a78.791,78.791,0,0,0,25.745,15.4,107.115,107.115,0,0,0,62.2,3.109c20.031-5.116,37.661-16.284,54.715-27.084l2.163-1.37c2.616-1.658,5.288-3.362,7.871-5.013,14.678-9.386,29.857-19.089,45.981-26.292a129.628,129.628,0,0,1,34.077-10.21,103.165,103.165,0,0,1,36.341,1.1c13.316,2.754,26.647,7.7,40.759,15.106,20.975,11.014,40.822,25.363,60.014,39.241,12.42,8.979,24.152,17.462,36.058,25.016l.11.07c3.026,1.921,5.885,3.734,8.79,5.48,16.919,10.237,33.623,19.013,49.777,27.5,11.708,6.151,22.766,11.962,33.424,18.061Z" transform="translate(10.749 24.979)" fill="#0e0e0e"/>
        <path id="パス_8068" data-name="パス 8068" d="M696.641,269.45c-12.121-7.916-24.961-15.417-38.554-23.358s-27.626-16.137-41.837-25.3c-2.629-1.683-5.218-3.419-7.957-5.257l-.718-.481c-10.57-7.087-21.049-14.9-32.143-23.177-19.876-14.824-40.429-30.153-62.339-41.669-13.994-7.357-27.223-12.2-40.443-14.818-22.892-4.528-44.961-1.184-69.456,10.521-15.162,7.3-29.421,16.888-43.214,26.164-3.065,2.062-6.234,4.194-9.336,6.246l-1.036.686c-17.073,11.305-34.728,22.995-55.127,27.978a99.26,99.26,0,0,1-31.52,2.4,104.884,104.884,0,0,1-30.465-7.072,83.978,83.978,0,0,1-25.529-15.751c-9.317-8.424-17.9-19.233-26.227-33.042-7.365-12.21-13.648-25.218-19.725-37.8-2.767-5.726-5.38-11.133-8.088-16.47-1.744-3.44-3.487-6.937-5.329-10.637-4.086-8.2-8.312-16.682-12.828-25.033-7.935-14.674-18.942-32.39-33.727-39.2a26.872,26.872,0,0,0-15.184-2.558c-6.476.933-12.326,3.058-18.52,5.308A126.772,126.772,0,0,1,51.93,31.981a376.338,376.338,0,0,1-41.036,6.893l-.013-.118A376.393,376.393,0,0,0,51.9,31.865,127.427,127.427,0,0,0,67.3,27.02c6.2-2.25,12.055-4.382,18.543-5.313a27.008,27.008,0,0,1,15.243,2.571c6.817,3.138,13.571,9.007,20.076,17.441a162.551,162.551,0,0,1,13.7,21.807c4.517,8.352,8.744,16.834,12.831,25.035,1.844,3.7,3.586,7.2,5.329,10.636,2.713,5.338,5.319,10.746,8.089,16.47,12.349,25.561,25.118,51.991,45.925,70.805a83.872,83.872,0,0,0,25.495,15.73c19.58,7.8,42.147,9.5,61.916,4.67,20.38-4.974,38.026-16.662,55.091-27.962l1.036-.686c3.1-2.054,6.277-4.184,9.335-6.246,13.8-9.279,28.06-18.873,43.227-26.173a126.2,126.2,0,0,1,33.469-11.03,98.118,98.118,0,0,1,36.06.5c13.231,2.616,26.471,7.467,40.474,14.83,21.918,11.521,42.474,26.852,62.354,41.678,11.093,8.274,21.571,16.088,32.14,23.173l.717.481c2.739,1.838,5.329,3.573,7.956,5.256,14.212,9.154,28.252,17.358,41.834,25.293s26.434,15.443,38.559,23.362Z" transform="translate(11.604 22.899)" fill="#0e0e0e"/>
        <path id="パス_8069" data-name="パス 8069" d="M690.659,269.024c-13.532-10.039-28.216-19.49-43.761-29.5-10.989-7.073-22.352-14.386-33.818-22.249-2.382-1.622-4.728-3.286-7.211-5.048l-1.236-.876c-9.248-6.552-18.465-13.656-28.221-21.177-20.551-15.843-41.806-32.223-64.681-44.263-13.884-7.308-27.02-12.06-40.159-14.547-22.633-4.264-44.42-.474-68.563,11.941-14.284,7.392-27.7,16.9-40.682,26.088-3.475,2.461-7.069,5.006-10.583,7.44-8.374,5.8-17.034,11.8-26.209,16.963-10.382,5.842-19.936,9.735-29.209,11.9a93.512,93.512,0,0,1-31.509,1.71,106.411,106.411,0,0,1-30.2-7.949,89.727,89.727,0,0,1-25.274-16.081c-9.336-8.475-18.022-19.259-26.555-32.97-7.546-12.127-14.077-25.034-20.393-37.514-2.806-5.545-5.456-10.777-8.2-15.969-1.878-3.553-3.75-7.16-5.731-10.975-4.145-7.976-8.428-16.225-12.946-24.34-5.7-10.24-17.562-31.545-33.7-39.144a26.011,26.011,0,0,0-15.132-2.577c-6.214.955-11.8,3.007-17.7,5.18a113.251,113.251,0,0,1-16.132,5.012,329.823,329.823,0,0,1-41.158,5.713l-.009-.118a329.5,329.5,0,0,0,41.145-5.7,113.208,113.208,0,0,0,16.115-5.008c5.914-2.174,11.5-4.229,17.727-5.186a26.1,26.1,0,0,1,15.2,2.588c6.728,3.168,13.462,9.086,20.015,17.591a172.217,172.217,0,0,1,13.738,21.6c4.518,8.117,8.8,16.366,12.946,24.344,1.981,3.815,3.854,7.419,5.732,10.974,2.74,5.19,5.391,10.422,8.2,15.972,12.819,25.334,26.075,51.529,46.921,70.45a89.537,89.537,0,0,0,25.244,16.06c20.119,8.6,42.009,10.81,61.636,6.233,20.711-4.831,38.335-17.038,55.379-28.843,3.513-2.434,7.106-4.974,10.582-7.44,12.981-9.194,26.4-18.7,40.7-26.1a122.791,122.791,0,0,1,32.86-11.843,93.316,93.316,0,0,1,35.778-.1c13.146,2.48,26.292,7.24,40.191,14.553,22.887,12.044,44.142,28.424,64.7,44.273,9.756,7.522,18.971,14.625,28.217,21.174l1.236.878c2.487,1.761,4.828,3.424,7.21,5.046,11.465,7.86,22.828,15.173,33.816,22.246,15.548,10.007,30.232,19.461,43.768,29.5Z" transform="translate(12.459 20.819)" fill="#0e0e0e"/>
        <path id="パス_8070" data-name="パス 8070" d="M684.671,268.6c-14.856-12.48-31.435-24.139-48.989-36.477-8.387-5.9-17.061-12-25.779-18.357-2.161-1.566-4.29-3.162-6.543-4.856l-1.677-1.257c-7.935-5.943-15.882-12.285-24.29-19-21.213-16.936-43.148-34.452-67.032-47.035-13.774-7.257-26.816-11.924-39.871-14.264-22.393-4.015-43.9.237-67.673,13.359-13.469,7.485-26.118,16.92-38.34,26.045-3.822,2.852-7.774,5.8-11.634,8.6a300.738,300.738,0,0,1-25.724,17.251c-10.221,5.887-19.689,9.748-28.948,11.805a88.356,88.356,0,0,1-31.5,1.024,108.066,108.066,0,0,1-29.935-8.827A96.291,96.291,0,0,1,211.718,180.2c-20.93-19.067-34.7-45.079-48.013-70.23-2.82-5.329-5.483-10.358-8.233-15.365-2.013-3.671-4.027-7.384-6.149-11.311-4.192-7.753-8.527-15.768-13.044-23.648-6.331-11.044-18.12-31.6-33.678-39.089a25.152,25.152,0,0,0-15.079-2.6c-5.981.977-11.321,2.969-16.975,5.078a102.109,102.109,0,0,1-16.771,5.152A303.141,303.141,0,0,1,12.49,32.711v-.118a302.8,302.8,0,0,0,41.269-4.516A102,102,0,0,0,70.512,22.93c5.659-2.11,11-4.1,17-5.083a25.258,25.258,0,0,1,15.147,2.605c15.583,7.51,27.38,28.084,33.722,39.14,4.519,7.882,8.854,15.9,13.046,23.651,2.123,3.928,4.13,7.639,6.148,11.311,2.751,5.007,5.415,10.039,8.235,15.366,13.31,25.142,27.075,51.14,47.99,70.2a96.173,96.173,0,0,0,24.989,16.391c20.342,9.3,42.132,12.066,61.357,7.8,21.016-4.669,38.874-17.615,54.629-29.037,3.86-2.8,7.816-5.746,11.632-8.6,12.23-9.127,24.876-18.565,38.359-26.055,23.8-13.146,45.327-17.392,67.743-13.372,13.068,2.343,26.12,7.012,39.911,14.276,23.892,12.588,45.833,30.105,67.05,47.047,8.409,6.713,16.349,13.055,24.287,19l1.677,1.258c2.25,1.69,4.382,3.286,6.542,4.856,8.718,6.359,17.39,12.458,25.779,18.357,17.554,12.344,34.135,24,49,36.487Z" transform="translate(13.32 18.736)" fill="#0e0e0e"/>
        <path id="パス_8071" data-name="パス 8071" d="M678.693,268.177c-16.062-15.243-34.573-29.353-54.17-44.293-5.8-4.42-11.793-8.989-17.787-13.639-1.958-1.51-3.889-3.041-5.932-4.664l-2.061-1.633c-6.64-5.252-13.3-10.777-20.35-16.618-21.859-18.12-44.461-36.858-69.391-50.008-13.472-7.106-26.79-11.814-39.586-13.988-22.169-3.766-43.388.93-66.78,14.779-12.729,7.58-24.654,16.964-36.187,26.04-4.11,3.233-8.358,6.578-12.506,9.726A263.987,263.987,0,0,1,328.7,191.417c-10.067,5.931-19.446,9.762-28.689,11.714a83.829,83.829,0,0,1-31.484.338,110.034,110.034,0,0,1-29.669-9.7,103.867,103.867,0,0,1-24.768-16.74c-21.037-19.244-35.34-45.1-49.173-70.1-2.68-4.843-5.448-9.851-8.179-14.633-2.163-3.79-4.306-7.6-6.576-11.638-4.236-7.531-8.616-15.319-13.133-22.967l-.2-.339C129.911,45.62,118.324,26,103.381,18.648c-5.211-2.559-10.26-3.435-15.027-2.615-5.771,1-10.9,2.939-16.319,5S61,25.211,54.7,26.3C40,28.832,25.517,29.4,13.289,29.629V29.51c12.224-.225,26.7-.8,41.392-3.329,6.3-1.086,11.9-3.209,17.317-5.264s10.558-4,16.344-5c4.791-.829,9.87.054,15.1,2.626,14.974,7.365,26.572,27,33.5,38.742l.2.338c4.518,7.649,8.9,15.438,13.134,22.976,2.27,4.036,4.414,7.848,6.576,11.638,2.724,4.783,5.5,9.791,8.179,14.633,13.828,24.989,28.127,50.841,49.149,70.072a103.769,103.769,0,0,0,24.74,16.723C259.456,203.677,281.147,207,300,203.019c19.682-4.155,36.047-15.7,53.886-29.231,4.145-3.148,8.4-6.491,12.505-9.724,11.535-9.077,23.464-18.463,36.2-26.048,23.416-13.865,44.66-18.565,66.859-14.793,12.806,2.176,26.137,6.886,39.62,14,24.939,13.154,47.547,31.9,69.41,50.021,7.05,5.845,13.708,11.369,20.349,16.617q1.035.818,2.061,1.633c2.043,1.621,3.973,3.153,5.931,4.663,5.994,4.648,11.989,9.219,17.786,13.637,19.586,14.94,38.1,29.052,54.168,44.3Z" transform="translate(14.171 16.653)" fill="#0e0e0e"/>
        <path id="パス_8072" data-name="パス 8072" d="M672.712,267.751c-17.123-18.334-37.588-35.121-59.255-52.891-3.231-2.652-6.573-5.392-9.893-8.13-1.763-1.446-3.5-2.906-5.344-4.452q-1.2-1.009-2.422-2.031c-5.352-4.474-10.721-9.109-16.406-14.013-21.436-18.5-45.732-39.465-71.754-53.206-13.361-7.057-26.584-11.67-39.3-13.711-21.963-3.525-42.9,1.622-65.888,16.2-12.04,7.673-23.3,17.022-34.19,26.063-4.343,3.607-8.835,7.343-13.217,10.819-16.669,13.248-33.279,25.463-53.182,29.45a79.7,79.7,0,0,1-31.472-.355,112.048,112.048,0,0,1-29.4-10.578,112.921,112.921,0,0,1-24.515-17.071c-21.2-19.463-36.069-45.223-50.452-70.135-2.622-4.539-5.329-9.238-8-13.738-2.306-3.9-4.588-7.8-7-11.933-4.278-7.32-8.7-14.89-13.22-22.317l-.886-1.459c-6.882-11.337-18.4-30.318-32.745-37.523-5.2-2.613-10.237-3.5-14.972-2.635a87.173,87.173,0,0,0-15.726,4.934c-5.554,2.142-11.3,4.358-17.839,5.368C40.993,26.665,26.511,26.7,14.09,26.549V26.43c12.416.147,26.884.118,41.515-2.142,6.529-1.009,12.267-3.223,17.816-5.364a87.3,87.3,0,0,1,15.751-4.939c4.761-.868,9.83.021,15.041,2.646,6.334,3.183,12.594,8.785,19.136,17.125A204.2,204.2,0,0,1,137,54.2l.886,1.458c4.521,7.428,8.944,15,13.223,22.32,2.415,4.133,4.7,8.037,7,11.933,2.668,4.5,5.379,9.2,8,13.738,14.382,24.9,29.253,50.655,50.434,70.111a112.782,112.782,0,0,0,24.489,17.054c14.649,7.6,37.087,15.664,60.8,10.919,19.876-3.977,36.477-16.188,53.132-29.427,4.382-3.482,8.873-7.211,13.216-10.818,10.9-9.043,22.156-18.395,34.2-26.071,10.847-6.877,21-11.557,31.029-14.308a80.963,80.963,0,0,1,34.937-1.908c12.729,2.043,25.964,6.661,39.336,13.723,11.641,6.148,23.882,14.212,37.424,24.667,11.946,9.22,23.331,19.048,34.352,28.555,5.685,4.9,11.053,9.537,16.4,14.012q1.222,1.022,2.423,2.031c1.84,1.54,3.579,3.006,5.342,4.452,3.316,2.737,6.662,5.479,9.893,8.129,21.673,17.774,42.138,34.563,59.265,52.9Z" transform="translate(15.026 14.573)" fill="#0e0e0e"/>
        <path id="パス_8073" data-name="パス 8073" d="M666.73,267.328c-18.01-21.752-40.435-41.412-64.177-62.219l-2.159-1.895c-1.581-1.379-3.14-2.764-4.789-4.23q-1.363-1.212-2.75-2.44c-4.063-3.592-8.131-7.256-12.435-11.133-22.013-19.83-46.963-42.306-74.138-56.676-13.185-6.972-26.311-11.488-39.015-13.434-21.821-3.252-42.474,2.346-65,17.618-11.4,7.767-22.045,17.1-32.332,26.12-4.737,4.153-9.215,8.078-13.783,11.88-7.04,5.86-15.3,12.576-24.267,18.113-9.75,6.021-18.964,9.793-28.17,11.533a69.022,69.022,0,0,1-12.839,1.184c-18.565,0-35.726-7.048-47.756-13.675a125.294,125.294,0,0,1-24.262-17.4c-21.412-19.741-36.913-45.478-51.9-70.379-2.511-4.169-5.107-8.48-7.658-12.635-2.446-3.986-4.974-8.149-7.414-12.176-4.333-7.132-8.807-14.5-13.334-21.725q-.741-1.184-1.554-2.487c-7.275-11.692-18.27-29.36-32.052-36.435-5.193-2.666-10.214-3.559-14.922-2.654A84.839,84.839,0,0,0,74.837,17.06c-5.667,2.228-11.527,4.531-18.287,5.448-13.961,1.907-27.671,1.54-41.658.957v-.118c13.975.584,27.686.947,41.638-.955,6.751-.921,12.6-3.223,18.261-5.448A85.436,85.436,0,0,1,90,12.054c4.737-.911,9.778-.013,14.995,2.665,6.09,3.127,12.162,8.561,18.563,16.615A208.428,208.428,0,0,1,137.092,51.2c.541.87,1.06,1.7,1.554,2.487,4.532,7.224,9,14.594,13.328,21.723,2.442,4.027,4.967,8.188,7.414,12.175,2.551,4.156,5.147,8.468,7.657,12.637,14.986,24.888,30.483,50.623,51.882,70.348a124.947,124.947,0,0,0,24.239,17.385c14.749,8.126,37.222,16.886,60.518,12.483,20.059-3.79,36.877-16.713,52.385-29.622,4.566-3.8,9.042-7.724,13.781-11.879,10.3-9.024,20.942-18.357,32.35-26.128,10.609-7.194,20.56-12.136,30.419-15.108a77.816,77.816,0,0,1,34.658-2.527c12.717,1.943,25.856,6.468,39.052,13.446,27.192,14.378,52.148,36.858,74.165,56.693,4.307,3.88,8.374,7.544,12.435,11.133q1.387,1.228,2.75,2.44c1.65,1.466,3.208,2.852,4.788,4.23l2.16,1.895c23.744,20.814,46.173,40.474,64.19,62.232Z" transform="translate(15.882 12.489)" fill="#0e0e0e"/>
        <path id="パス_8074" data-name="パス 8074" d="M660.751,266.9c-17.142-23.363-38.912-44.258-63.525-67.2-1.393-1.293-2.768-2.587-4.223-3.957q-1.528-1.438-3.087-2.9c-2.771-2.591-5.532-5.2-8.455-7.954C558.9,163.6,533.326,139.47,504.916,124.431c-13.08-6.925-26.109-11.352-38.727-13.157-21.631-3.016-42,3.024-64.106,19.035-10.81,7.864-20.882,17.19-30.62,26.209-4.889,4.526-9.505,8.8-14.212,12.909-7.281,6.351-15.2,12.975-23.781,18.4-9.593,6.066-18.726,9.81-27.911,11.444a72.9,72.9,0,0,1-31.447-1.729,117.015,117.015,0,0,1-28.875-12.327,138.33,138.33,0,0,1-24.007-17.73c-21.938-20.306-38.27-46.406-54.064-71.651-2.165-3.461-4.4-7.038-6.6-10.508-2.868-4.493-5.815-9.178-8.664-13.71-4.1-6.514-8.33-13.247-12.594-19.831-.7-1.08-1.448-2.26-2.243-3.509-7.205-11.33-18.1-28.453-31.338-35.364-5.155-2.717-10.158-3.616-14.867-2.674A84.792,84.792,0,0,0,76.2,15.077c-5.77,2.318-11.748,4.712-18.729,5.541-14.434,1.713-28.964.68-41.783-.237l.008-.118c12.814.911,27.337,1.943,41.761.237,6.964-.829,12.93-3.215,18.7-5.526a84.889,84.889,0,0,1,14.677-4.847c4.737-.947,9.765-.045,14.944,2.684,13.271,6.926,24.171,24.064,31.384,35.4.795,1.249,1.54,2.429,2.243,3.509,4.264,6.585,8.5,13.32,12.6,19.833,2.849,4.531,5.8,9.216,8.663,13.71,2.2,3.47,4.436,7.048,6.6,10.508,15.793,25.235,32.115,51.329,54.046,71.624A138.262,138.262,0,0,0,245.3,185.12c21.271,12.415,42.1,17.272,60.24,14.044,20.238-3.6,36.6-16.7,51.636-29.816,4.708-4.106,9.323-8.381,14.212-12.909,9.742-9.021,19.816-18.35,30.632-26.217,10.385-7.524,20.133-12.734,29.81-15.929a74.421,74.421,0,0,1,34.377-3.128c12.633,1.807,25.676,6.238,38.767,13.17,28.423,15.041,54,39.179,76.569,60.47,2.923,2.758,5.685,5.363,8.455,7.954q1.562,1.459,3.088,2.9c1.456,1.37,2.829,2.664,4.223,3.957,24.618,22.95,46.391,43.849,63.54,67.22Z" transform="translate(16.733 10.413)" fill="#0e0e0e"/>
        <path id="パス_8075" data-name="パス 8075" d="M654.771,266.48c-16.995-26.173-40.25-50.009-60.715-70.3-1.191-1.176-2.369-2.347-3.609-3.587-1.131-1.127-2.3-2.294-3.475-3.456q-2.2-2.171-4.439-4.4c-23.081-22.89-49.24-48.836-78.981-64.6-12.974-6.878-25.908-11.217-38.443-12.875-21.466-2.795-41.552,3.7-63.212,20.455-10.262,7.956-19.8,17.292-29.018,26.325-5,4.891-9.711,9.51-14.527,13.911C344.418,180.7,327.838,194.587,307.408,198a61.709,61.709,0,0,1-10.17.829c-15.423,0-32.146-5.511-49.87-16.454a154.366,154.366,0,0,1-23.754-18.06c-22.368-20.784-39.5-47.1-56.069-72.56-1.871-2.874-3.806-5.847-5.7-8.744-2.961-4.478-5.983-9.119-8.911-13.62-4.191-6.431-8.527-13.08-12.863-19.572-.876-1.311-1.842-2.8-2.865-4.375C130.059,34.435,119.262,17.8,106.51,11,101.357,8.23,96.373,7.327,91.7,8.307a83.369,83.369,0,0,0-14.219,4.818c-5.855,2.395-11.911,4.87-19.077,5.594-13.829,1.4-27.476.028-40.663-1.294L16.492,17.3l.012-.118,1.242.124c13.187,1.322,26.825,2.688,40.641,1.294,7.15-.721,13.2-3.2,19.045-5.585A83.565,83.565,0,0,1,91.672,8.19c4.705-.989,9.711-.078,14.893,2.7,12.779,6.816,23.584,23.466,30.735,34.484,1.023,1.575,1.988,3.063,2.864,4.374,4.339,6.492,8.673,13.146,12.864,19.572,2.926,4.492,5.954,9.136,8.91,13.62,1.895,2.9,3.835,5.869,5.706,8.744,16.565,25.447,33.694,51.76,56.045,72.531a154.279,154.279,0,0,0,23.736,18.047c21.673,13.383,41.844,18.63,59.961,15.606,20.4-3.4,36.962-17.276,50.886-30.009,4.811-4.4,9.529-9.019,14.524-13.909,9.226-9.03,18.765-18.369,29.032-26.334,10.158-7.856,19.709-13.334,29.2-16.75a71.242,71.242,0,0,1,34.1-3.728c12.554,1.67,25.5,6.007,38.483,12.891,29.755,15.78,55.921,41.734,79.008,64.63q2.242,2.224,4.438,4.4c1.175,1.162,2.344,2.328,3.476,3.456,1.244,1.24,2.417,2.411,3.609,3.587,10.112,10.024,21.926,21.941,32.893,34.32a304.71,304.71,0,0,1,27.837,35.994Z" transform="translate(17.588 8.323)" fill="#0e0e0e"/>
        <path id="パス_8076" data-name="パス 8076" d="M648.791,266.048c-15.7-27.393-37.11-51.46-57.9-73.387q-1.428-1.5-2.881-3.04c-1.292-1.367-2.628-2.778-3.975-4.189l-.39-.407c-22.391-23.449-50.258-52.63-81.45-69.185-12.869-6.83-25.707-11.071-38.157-12.6-21.307-2.574-41.11,4.382-62.32,21.873-9.666,8-18.627,17.276-27.292,26.249-5.147,5.329-10.009,10.364-14.97,15.106-6.4,6.158-14.11,13.231-22.8,18.98-9.291,6.148-18.255,9.83-27.4,11.251-9.845,1.54-20.418.488-31.423-3.111a122.333,122.333,0,0,1-28.339-14.074,174.527,174.527,0,0,1-23.5-18.39c-22.963-21.422-41.045-48.164-58.531-74.02q-2.176-3.22-4.343-6.412c-2.977-4.365-6.015-8.867-8.953-13.22-4.35-6.445-8.85-13.113-13.335-19.611-1.041-1.51-2.221-3.294-3.468-5.181-7.079-10.706-17.777-26.884-30.065-33.584C102.144,6.269,97.177,5.36,92.529,6.38a81.774,81.774,0,0,0-13.821,4.806c-5.922,2.474-12.046,5.031-19.386,5.642-13.337,1.11-26.587-.606-39.4-2.267l-2.627-.339.015-.118,2.622.343c12.808,1.658,26.055,3.374,39.38,2.266,7.323-.609,13.437-3.163,19.35-5.634A81.906,81.906,0,0,1,92.5,6.267c4.674-1.03,9.668-.118,14.841,2.724,12.317,6.71,23.022,22.9,30.106,33.621,1.248,1.887,2.427,3.671,3.468,5.178,4.485,6.5,8.984,13.166,13.337,19.613,2.938,4.352,5.976,8.854,8.953,13.219q2.167,3.2,4.341,6.413c17.484,25.855,35.563,52.591,58.516,74a174.318,174.318,0,0,0,23.485,18.378c21.743,14.176,41.823,19.952,59.681,17.173,19.676-3.067,35.726-16.331,50.138-30.2,4.96-4.737,9.82-9.774,14.966-15.1,8.669-8.977,17.632-18.259,27.3-26.259,9.925-8.186,19.277-13.933,28.593-17.569a68.207,68.207,0,0,1,33.819-4.339c12.464,1.534,25.316,5.778,38.2,12.615,13.9,7.377,28.247,17.788,43.863,31.831,13.608,12.235,26.363,25.592,37.616,37.377l.388.406c1.348,1.411,2.684,2.823,3.976,4.19q1.456,1.54,2.881,3.04c13.264,13.989,23.023,24.976,31.637,35.622a287.207,287.207,0,0,1,26.285,37.787Z" transform="translate(18.442 6.249)" fill="#0e0e0e"/>
        <path id="パス_8077" data-name="パス 8077" d="M642.809,265.622c-15.01-29.758-36.274-55.36-55.094-76.478l-1.895-2.12c-1.54-1.724-3.125-3.507-4.737-5.3-24.106-26.742-50.159-54.191-80.259-70.185-12.762-6.784-25.5-10.93-37.87-12.326-21.165-2.353-40.684,5.048-61.428,23.293-9.222,8.126-17.746,17.467-25.99,26.5-5.153,5.648-10.021,10.983-14.987,15.97-5.815,5.868-13.607,13.361-22.312,19.262-9.143,6.2-18.022,9.849-27.142,11.17-9.849,1.421-20.416.147-31.413-3.8-8.928-3.208-18.111-8.1-28.068-14.945a200.437,200.437,0,0,1-23.247-18.72c-23.837-22.326-43.109-49.806-61.737-76.382l-2.241-3.2c-2.894-4.112-5.84-8.328-8.688-12.406-4.612-6.6-9.381-13.43-14.117-20.071-1.2-1.678-2.587-3.745-4.056-5.932-7.01-10.422-17.6-26.173-29.454-32.778C102.932,4.3,97.983,3.389,93.366,4.448a80.259,80.259,0,0,0-13.457,4.8c-5.976,2.552-12.156,5.191-19.66,5.685-2.056.135-4.113.2-6.167.2-10.867,0-21.681-1.718-32.2-3.39q-1.9-.3-3.79-.6l.018-.118q1.888.295,3.79.6c12.5,1.986,25.418,4.04,38.337,3.2,7.484-.49,13.655-3.125,19.622-5.674A80.246,80.246,0,0,1,93.338,4.338c4.646-1.072,9.623-.148,14.8,2.749C120.01,13.7,130.612,29.47,137.624,39.9c1.47,2.186,2.859,4.252,4.054,5.929C146.415,52.472,151.184,59.3,155.8,65.9c2.842,4.076,5.794,8.29,8.688,12.4q1.119,1.6,2.241,3.2c18.63,26.571,37.9,54.047,61.722,76.365a200.32,200.32,0,0,0,23.233,18.712c22.1,15.192,41.53,21.318,59.4,18.73,19.778-2.864,35.423-16.3,49.386-30.4,4.965-4.985,9.83-10.319,14.984-15.967,8.245-9.036,16.772-18.382,26-26.511,9.685-8.519,18.839-14.534,27.983-18.39a65.553,65.553,0,0,1,33.533-4.931c12.381,1.4,25.137,5.549,37.913,12.339,13.936,7.406,28.165,17.9,43.5,32.095,13.521,12.512,26.079,26.235,36.788,38.115,1.612,1.788,3.2,3.572,4.737,5.3q.947,1.066,1.895,2.12c12.384,13.9,22.038,25.629,30.381,36.923a274.619,274.619,0,0,1,24.731,39.58Z" transform="translate(19.298 4.167)" fill="#0e0e0e"/>
        <path id="パス_8078" data-name="パス 8078" d="M636.829,265.2c-11.066-25.051-27.192-49.591-52.285-79.569-1.717-2.05-4-4.768-6.4-7.6-23.44-27.49-49.2-55.091-78.678-70.778-12.659-6.736-25.305-10.79-37.587-12.049-21.032-2.132-40.267,5.714-60.535,24.711-8.808,8.264-16.923,17.683-24.771,26.792-5.13,5.956-9.977,11.58-14.922,16.8-5.6,5.932-13.146,13.514-21.828,19.533-8.992,6.238-17.786,9.868-26.884,11.1a56.175,56.175,0,0,1-16.011-.249,73.356,73.356,0,0,1-15.4-4.264c-8.753-3.427-17.849-8.6-27.805-15.8a235.3,235.3,0,0,1-22.992-19.05c-25.15-23.654-46.355-52.907-65.067-78.714-2.671-3.677-5.379-7.427-8-11.053-5.011-6.939-10.193-14.113-15.323-21.069-1.343-1.82-2.866-4.052-4.631-6.632-7.356-10.771-17.425-25.521-28.861-32.024C103.716,2.343,98.787,1.418,94.2,2.522A78.752,78.752,0,0,0,81.08,7.329c-6.022,2.633-12.249,5.354-19.908,5.714-1.366.066-2.736.1-4.1.1-11.2,0-22.4-2.113-33.279-4.164-1.608-.3-3.27-.617-4.892-.915l.02-.118c1.624.3,3.285.612,4.894.915,12.2,2.3,24.817,4.679,37.359,4.063,7.638-.355,13.578-2.961,19.868-5.7A78.708,78.708,0,0,1,94.176,2.4c4.619-1.111,9.575-.182,14.739,2.763,5.07,2.884,10.324,7.641,16.062,14.543,4.895,5.886,9.3,12.333,12.833,17.512,1.763,2.583,3.285,4.813,4.627,6.632,5.13,6.957,10.313,14.131,15.324,21.07,2.62,3.626,5.329,7.376,8,11.052,18.712,25.805,39.911,55.052,65.066,78.7a235.1,235.1,0,0,0,22.983,19.04c22.1,16,41.441,22.637,59.122,20.292,19.939-2.692,35.778-16.976,48.641-30.593,4.943-5.218,9.788-10.842,14.922-16.8,7.85-9.111,15.966-18.532,24.778-26.8,9.441-8.849,18.4-15.133,27.374-19.21A62.977,62.977,0,0,1,461.9,95.081c12.288,1.265,24.953,5.323,37.626,12.067,13.879,7.384,27.91,17.906,42.895,32.164,13.4,12.753,25.626,26.69,35.817,38.641,2.4,2.835,4.684,5.553,6.4,7.6a462.685,462.685,0,0,1,29.125,38.226,266.139,266.139,0,0,1,23.178,41.372Z" transform="translate(20.153 2.083)" fill="#0e0e0e"/>
        <path id="パス_8079" data-name="パス 8079" d="M630.85,264.775c-10.116-26.307-25.837-52.573-49.476-82.665-21.851-27.808-45.161-54.557-70.882-71.827a190.973,190.973,0,0,1,18.606,14.3c19.837,17.173,36.893,37.767,52.368,57.464a419.532,419.532,0,0,1,27.868,39.528,260.946,260.946,0,0,1,21.624,43.163ZM308.575,193.222a55.781,55.781,0,0,1-9.83-.888,71.738,71.738,0,0,1-15.34-4.679c-8.566-3.639-17.575-9.1-27.541-16.685-37.928-28.874-67.345-68.3-95.788-106.431-5.556-7.446-11.3-15.145-16.971-22.574-1.479-1.939-3.2-4.421-5.188-7.3-5.224-7.545-11.725-16.936-19.121-24.129C110.039,2.03,102.269-1.223,95.035.595A77.384,77.384,0,0,0,82.213,5.412C75.879,8.242,69.9,10.914,62.1,11.152q-1.161.036-2.321.034c-11.529,0-23.14-2.527-34.394-4.974-1.87-.406-3.8-.829-5.685-1.226l.024-.118c1.888.4,3.821.82,5.685,1.227,12,2.613,24.409,5.314,36.688,4.94,7.775-.237,13.748-2.9,20.071-5.729A77.883,77.883,0,0,1,95.007.476a18.187,18.187,0,0,1,12.255,1.511,43.461,43.461,0,0,1,11.606,8.465c7.4,7.2,13.909,16.6,19.136,24.147,1.988,2.873,3.707,5.354,5.185,7.291,5.67,7.429,11.416,15.128,16.971,22.575,28.445,38.122,57.857,77.543,95.77,106.407,14.119,10.75,35.581,24.711,58.844,21.854,19.991-2.454,35.429-16.936,47.892-30.792,4.895-5.437,9.694-11.341,14.775-17.592,11.057-13.6,22.49-27.664,35.931-38.041a76.762,76.762,0,0,1,21.772-12.158,60.727,60.727,0,0,1,25.666-3.086c11.742,1.081,23.815,4.788,35.885,11.014q2.05,1.059,4.119,2.224C488.1,97.148,474.8,92.452,460.8,91.169c-37.2-3.425-61.675,26.683-83.269,53.244-5.083,6.251-9.883,12.156-14.779,17.6-12.479,13.864-27.936,28.367-47.965,30.825a50.882,50.882,0,0,1-6.216.388Z" transform="translate(21.007 0)" fill="#0e0e0e"/>
      </g>
    </g>
  </g>
</svg>
