<svg xmlns="http://www.w3.org/2000/svg" xmlns:xlink="http://www.w3.org/1999/xlink" width="1280" height="800" viewBox="0 0 1280 800">
  <defs>
    <clipPath id="clip-path">
      <path id="パス_4273" data-name="パス 4273" d="M0,0H1280V800H0Z" fill="#f4f4f4"/>
    </clipPath>
  </defs>
  <g id="マスクグループ_36" data-name="マスクグループ 36" clip-path="url(#clip-path)">
    <g id="レイヤー_2" data-name="レイヤー 2" transform="translate(0 176.128)">
      <g id="_饑1" data-name="ﾑ饑1" transform="translate(-289 -56.99)" opacity="0.188">
        <g id="グループ_245" data-name="グループ 245" transform="translate(81.949 146.91)" opacity="0.4">
          <path id="パス_4327" data-name="パス 4327" d="M379.469,332.457c50.777,14.513,99.539,15.017,147.4,1.709,56.55-15.722,106.214-48.867,154.283-80.92,52.935-35.311,107.667-71.823,171.391-84.69,106.348-21.482,203.133,46.927,288.524,107.285,12.385,8.753,24.085,17.019,35.752,24.988,59.346,40.512,109.892,70.6,159.077,94.686,59.493,29.135,116.5,49.119,174.262,61.067,43.854,9.081,89,15.34,132.663,21.411,33.678,4.668,68.5,9.5,102.5,15.588l.071-.42c-34.005-6.087-68.85-10.915-102.515-15.588-43.661-6.054-88.813-12.309-132.663-21.411-132.948-27.519-243.033-94.144-333.185-155.69-11.667-7.977-23.363-16.23-35.748-24.983-85.462-60.4-182.327-128.884-288.835-107.352-28.627,5.781-57.9,16.793-89.48,33.72-28.166,15.08-55.563,33.359-82.058,51.033-48.023,32.032-97.679,65.16-154.166,80.865-51.218,14.24-100.475,11.755-147.52-1.679-110.408-31.541-208.792-123.561-292.8-202.13-9.857-9.236-19.169-17.926-28.43-26.478l-.285.311c9.261,8.547,18.573,17.255,28.43,26.474,59.346,55.5,126.6,118.414,200.476,161.475C318.436,310.273,349.31,323.833,379.469,332.457Z" transform="translate(-57.716 -103.467)" fill="#0e0e0e"/>
          <path id="パス_4328" data-name="パス 4328" d="M377.1,324a317.94,317.94,0,0,0,57.906,11.045,277.637,277.637,0,0,0,95.651-7.557c55.664-14.345,104.955-44.345,152.579-73.359,11.516-7.011,23.426-14.274,35.21-21.163,40.748-23.862,85.593-47.146,137.369-55.836,24.769-4.2,50.7-3.778,77.066,1.184,35.067,6.612,72.049,21.171,116.386,45.815,30.206,16.793,59.32,35.794,86.281,53.837l11.209,7.532c11.3,7.6,21.969,14.782,32.658,21.768,23.9,15.638,45.441,29.161,65.857,41.339,39.144,23.359,74.652,42.041,108.548,57.121a729.374,729.374,0,0,0,90.383,33.22c22.914,6.717,45.983,12.347,68.556,16.738,41.361,8.039,83.884,13.992,125.009,19.731,35.84,5.038,72.9,10.206,109.09,16.755l.076-.42c-36.2-6.553-73.262-11.755-109.106-16.759-41.121-5.752-83.64-11.7-124.988-19.731-22.561-4.391-45.613-10.017-68.519-16.726A728.958,728.958,0,0,1,1354,405.328c-33.884-15.072-69.375-33.745-108.506-57.1-20.412-12.175-41.948-25.693-65.84-41.331-10.689-6.982-21.36-14.16-32.654-21.763l-11.209-7.532c-26.969-18.052-56.092-37.066-86.315-53.858-44.375-24.664-81.4-39.236-116.512-45.857a218.954,218.954,0,0,0-77.213-1.184c-51.839,8.72-96.726,32.024-137.512,55.907-11.784,6.9-23.695,14.152-35.214,21.163-47.62,29-96.86,58.984-152.465,73.313a277.227,277.227,0,0,1-95.509,7.557c-116.349-10.886-219.49-89.841-307.03-162.994-11.448-9.6-22.716-19.194-33.615-28.476C82.7,133.21,71.644,123.8,60.679,114.629l-.269.319c10.966,9.169,22.015,18.581,33.72,28.548,10.915,9.282,22.171,18.892,33.615,28.48,41.562,34.732,91.18,74.417,144.027,105.425C308.392,298.878,343.263,314.328,377.1,324Z" transform="translate(-56.585 -98.78)" fill="#0e0e0e"/>
          <path id="パス_4329" data-name="パス 4329" d="M373.7,315.376a347.27,347.27,0,0,0,65.492,12.33,297.922,297.922,0,0,0,95.24-6.893C589.075,307.857,637.8,281,684.916,255.028c12.259-6.759,24.933-13.745,37.465-20.344,40.542-21.381,85.164-42.116,136.7-49.01,24.807-3.359,49.744-2.326,76.239,3.14,43.56,8.976,84.8,29.1,115.866,45.634,25.68,13.653,52.427,29.429,86.734,51.155q7.473,4.752,14.841,9.475c10.114,6.469,19.664,12.595,29.27,18.577,24.908,15.609,45.9,28.292,66.071,39.925,40.722,23.51,75.261,41.025,108.67,55.147a677.64,677.64,0,0,0,90.261,30.714c23.065,6.1,46.054,11.251,68.33,15.307,38.2,6.931,77.385,12.452,115.295,17.792,38.674,5.458,78.666,11.079,117.725,18.229l.076-.42c-39.068-7.137-79.065-12.779-117.742-18.229-37.905-5.336-77.1-10.857-115.282-17.792-22.25-4.051-45.24-9.2-68.292-15.3a676,676,0,0,1-90.214-30.693c-33.393-14.114-67.91-31.629-108.624-55.122-20.151-11.625-41.142-24.3-66.071-39.912-9.6-6-19.152-12.108-29.265-18.573q-7.368-4.715-14.845-9.479c-34.312-21.73-61.071-37.511-86.76-51.172-31.067-16.541-72.356-36.688-115.945-45.685-26.545-5.458-51.528-6.5-76.382-3.144-51.6,6.9-96.26,27.653-136.861,49.056-12.532,6.6-25.189,13.59-37.473,20.344-47.062,25.957-95.736,52.8-150.341,65.764a297.453,297.453,0,0,1-95.106,6.881c-114.816-10-219.124-82.4-307.891-149.476-9.782-7.448-19.475-14.912-28.854-22.133-13.6-10.47-26.449-20.365-39.156-29.916l-.252.336c12.712,9.551,25.554,19.442,39.152,29.912,9.379,7.221,19.072,14.694,28.854,22.137C202.729,232.273,284.476,289.86,373.7,315.376Z" transform="translate(-55.457 -94.103)" fill="#0e0e0e"/>
          <path id="パス_4330" data-name="パス 4330" d="M368.1,306.4a385.436,385.436,0,0,0,75.315,13.938,322.142,322.142,0,0,0,94.829-6.213c53.426-11.57,101.437-35.265,147.868-58.22,13.165-6.5,26.784-13.228,40.227-19.522,38.371-18,84.539-37.091,136.021-42.167,24.492-2.46,49.161-.789,75.416,5.1,40.722,9.148,79.48,27.259,115.286,45.475,27.322,13.879,55.836,29.736,87.179,48.468,6.3,3.778,12.594,7.62,18.7,11.335,8.854,5.378,17.213,10.453,25.659,15.487,25.823,15.458,46.889,27.708,66.31,38.5,41.734,23.262,76.3,40.16,108.788,53.17a638.568,638.568,0,0,0,90.156,28.2c23.64,5.579,45.916,10.118,68.1,13.875,33.963,5.735,68.779,10.642,102.436,15.391,42.536,6,86.516,12.2,129.493,20.151l.076-.42c-42.985-7.951-86.97-14.156-129.51-20.151-33.665-4.748-68.477-9.656-102.436-15.386-22.175-3.778-44.442-8.3-68.069-13.854a637.4,637.4,0,0,1-90.1-28.182c-32.473-13.014-67.028-29.891-108.733-53.145-19.412-10.806-40.479-23.04-66.3-38.493-8.438-5.038-16.793-10.109-25.655-15.483-6.1-3.707-12.414-7.557-18.707-11.335-31.348-18.741-59.875-34.6-87.2-48.489-35.827-18.224-74.606-36.348-115.383-45.508-26.3-5.9-51.012-7.557-75.567-5.109-51.554,5.08-97.763,24.182-136.168,42.2-13.434,6.3-27.061,13.014-40.231,19.53-46.411,22.922-94.4,46.625-147.776,58.187a321.507,321.507,0,0,1-94.707,6.2c-114.258-9.2-219.254-74.988-308.7-135.937-9.71-6.612-19.312-13.262-28.64-19.694-13.9-9.6-27.02-18.669-40.046-27.385l-.235.348c13.014,8.715,26.15,17.783,40.042,27.381,9.307,6.432,18.934,13.082,28.64,19.7,44.9,30.592,93.619,62.389,145.639,87.713C310.617,286.9,339.8,298.306,368.1,306.4Z" transform="translate(-54.322 -89.421)" fill="#0e0e0e"/>
          <path id="パス_4331" data-name="パス 4331" d="M360.169,297.013a432.014,432.014,0,0,0,87.448,15.953,351.515,351.515,0,0,0,94.417-5.537c51.995-10.181,99.077-30.773,144.64-50.689,14.274-6.243,29.047-12.7,43.607-18.665,38.1-15.663,83.964-32.108,135.358-35.319,24.169-1.57,48.569.739,74.593,7.061,39.5,9.6,78.338,27.649,114.736,45.307,29.9,14.484,59.383,29.887,87.625,45.785,7.7,4.374,15.416,8.816,22.872,13.1,7.162,4.123,14.568,8.4,21.738,12.456,19.626,11.209,42.88,24.383,66.537,37.083,29.148,15.676,67.868,35.664,108.909,51.2,27.385,10.328,56.839,18.732,90.047,25.689,24.056,4.992,46.255,9.064,67.868,12.448,28.027,4.366,56.7,8.4,84.43,12.267,48.094,6.738,97.818,13.707,146.433,22.8l.08-.42c-48.619-9.089-98.355-16.058-146.454-22.8-27.708-3.883-56.4-7.9-84.421-12.267-21.608-3.384-43.8-7.456-67.851-12.443-33.166-6.952-62.62-15.349-89.98-25.672-41.02-15.533-79.723-35.5-108.863-51.172-23.657-12.662-46.9-25.852-66.524-37.062-7.171-4.068-14.576-8.333-21.738-12.456-7.46-4.286-15.16-8.728-22.876-13.1-28.25-15.9-57.738-31.31-87.65-45.8-36.415-17.67-75.282-35.727-114.82-45.34-26.062-6.335-50.5-8.648-74.728-7.074-51.436,3.216-97.356,19.673-135.488,35.349-14.568,5.97-29.337,12.427-43.619,18.674-45.525,19.9-92.6,40.487-144.552,50.659a351.066,351.066,0,0,1-94.308,5.529c-112.868-8.312-214.821-65.017-309.574-122.381-8.816-5.327-17.561-10.7-26.029-15.89C97,165.072,82.8,156.37,68.7,148.07l-.214.361c14.1,8.3,28.3,17,43.321,26.209,8.472,5.193,17.213,10.563,26.029,15.894,45.71,27.666,95.08,56.365,146.487,78.846A604.892,604.892,0,0,0,360.169,297.013Z" transform="translate(-53.194 -84.74)" fill="#0e0e0e"/>
          <path id="パス_4332" data-name="パス 4332" d="M348.382,286.964c35.945,10.273,70.143,16.423,103.431,18.653a387.819,387.819,0,0,0,94-4.857c50.282-8.791,96.21-26.3,140.639-43.241,15.655-5.966,31.843-12.137,47.779-17.742,37.784-13.338,83.338-27.15,134.686-28.472,23.846-.684,47.977,2.267,73.766,9.022,38.036,9.966,75.693,27.36,112.117,44.182l2.074.957c36.222,16.7,63.393,29.988,88.069,43.1,9.459,5.038,18.892,10.168,28,15.143,5.546,3.031,11.285,6.159,16.864,9.173,22.389,12.175,44.341,24.068,66.751,35.659,31.642,16.4,69.341,35.076,109.031,49.224,27.024,9.6,55.6,16.961,89.933,23.178,24.874,4.446,47.02,8.052,67.641,11.02,18.938,2.7,38.271,5.353,56.965,7.914,56.747,7.779,115.429,15.823,172.818,26.667l.08-.42c-57.4-10.848-116.088-18.892-172.843-26.671-18.694-2.565-38.023-5.214-56.957-7.914-20.642-2.968-42.763-6.57-67.629-11.02-34.312-6.213-62.868-13.569-89.866-23.157-39.664-14.139-77.352-32.8-108.981-49.2-22.414-11.6-44.366-23.485-66.751-35.659-5.584-3.01-11.335-6.142-16.868-9.173-9.114-4.975-18.539-10.118-28-15.143-24.694-13.115-51.86-26.411-88.095-43.111l-2.07-.957c-36.44-16.831-74.123-34.232-112.184-44.207-25.831-6.763-50-9.719-73.888-9.034-51.411,1.322-97,15.147-134.816,28.5-15.953,5.6-32.133,11.755-47.792,17.746-44.4,16.923-90.3,34.425-140.543,43.2a387.207,387.207,0,0,1-93.9,4.853c-111.248-7.427-214.355-57.83-310.426-108.8-7.939-4.2-15.865-8.464-23.51-12.595-16.129-8.652-31.365-16.826-46.512-24.555l-.189.374c15.143,7.729,30.374,15.9,46.5,24.555,7.662,4.11,15.588,8.363,23.51,12.595,43.413,23.014,94.174,49.324,147.3,69.946C309.07,274.672,328.978,281.418,348.382,286.964Z" transform="translate(-52.053 -80.056)" fill="#0e0e0e"/>
          <path id="パス_4333" data-name="パス 4333" d="M330.441,275.809c44.312,12.666,85.685,20.046,125.6,22.452a436.9,436.9,0,0,0,93.594-4.2c48.233-7.49,92.692-21.965,135.7-35.945,17.322-5.634,35.235-11.457,52.834-16.621,37.414-11.037,82.6-22.25,134.014-21.625,23.51.2,47.377,3.778,72.943,10.978,32.981,9.274,65.937,23.871,97.818,37.981,5.189,2.3,10.558,4.673,15.836,6.99l1.436.625c30.29,13.249,58.9,25.764,87.083,39.79,10.731,5.336,21.411,10.848,31.73,16.176q6.717,3.476,13.384,6.893l6.541,3.384c19.757,10.214,40.189,20.777,60.454,30.857,33.938,16.927,70.651,34.37,109.153,47.246,26.327,8.77,54.87,15.336,89.816,20.668,19.92,2.989,43.51,6.465,67.414,9.589l9.186,1.192c72.058,9.328,146.567,18.976,219.519,32.914l.08-.42c-72.964-13.938-147.482-23.585-219.544-32.918l-9.185-1.188c-23.9-3.123-47.486-6.6-67.406-9.589-34.92-5.328-63.443-11.889-89.749-20.647-38.48-12.872-75.177-30.307-109.1-47.225-20.252-10.076-40.68-20.642-60.454-30.857l-6.545-3.384q-6.654-3.413-13.384-6.893c-10.323-5.328-20.991-10.84-31.73-16.18-28.195-14.026-56.81-26.545-87.1-39.8l-1.436-.626c-5.277-2.313-10.642-4.689-15.835-6.99-31.877-14.114-64.82-28.711-97.856-38-25.609-7.2-49.5-10.794-73.048-11-51.47-.613-96.693,10.6-134.14,21.642-17.6,5.181-35.529,11-52.867,16.629-42.989,13.976-87.444,28.43-135.656,35.945a438.725,438.725,0,0,1-93.5,4.2c-109.388-6.591-209.657-48.842-311.274-95.3-7.074-3.27-14.148-6.545-21.033-9.71C106.51,184.9,90.246,177.4,74.058,170.376l-.168.382c16.184,7.024,32.444,14.53,49.656,22.473,6.864,3.17,13.959,6.444,21.045,9.685,46.453,21.243,96.138,43.455,148.141,61.092Q311.948,270.532,330.441,275.809Z" transform="translate(-50.926 -75.375)" fill="#0e0e0e"/>
          <path id="パス_4334" data-name="パス 4334" d="M301.339,262.58c57.389,16.4,109.4,25.672,158.88,28.317a499.379,499.379,0,0,0,93.2-3.506c45.664-6.155,88.162-17.662,129.233-28.787,19.517-5.286,39.694-10.752,59.471-15.407,34.845-8.254,81.445-17.393,133.347-14.778,23.182,1.083,46.772,5.315,72.121,12.939,28.443,8.564,57.045,20.857,84.7,32.746,9.295,3.992,18.892,8.123,28.384,12.061,6.625,2.741,13.325,5.487,19.807,8.149,23.98,9.832,46.629,19.123,69.161,29.58,12.057,5.6,24.039,11.44,35.626,17.087l9.7,4.723q8.967,4.4,17.939,8.816c16.117,7.926,32.784,16.125,49.274,24.009,40,19.177,73.888,34.215,109.275,45.273,26.029,8.094,53.7,13.69,89.707,18.149q11.7,1.423,23.51,2.876c14.253,1.751,28.968,3.564,43.661,5.29,62.654,7.288,145.148,17.7,227.625,33.623l.08-.42c-82.49-15.928-164.989-26.339-227.655-33.632-14.694-1.725-29.421-3.535-43.661-5.285q-11.806-1.448-23.51-2.876c-35.979-4.454-63.624-10.046-89.635-18.136-35.357-11.05-69.232-26.079-109.216-45.252-16.486-7.88-33.166-16.079-49.27-24.005q-8.972-4.417-17.939-8.816l-9.731-4.736c-11.587-5.651-23.573-11.495-35.634-17.1-22.54-10.462-45.193-19.731-69.178-29.589-6.482-2.657-13.182-5.407-19.8-8.149-9.479-3.934-19.089-8.065-28.384-12.057-27.67-11.889-56.281-24.186-84.749-32.746-25.378-7.632-49-11.872-72.209-12.956-51.944-2.615-98.611,6.528-133.464,14.79-19.782,4.656-39.963,10.122-59.484,15.407-41.071,11.125-83.544,22.624-129.182,28.779a498.568,498.568,0,0,1-93.1,3.5c-115.819-6.184-224.67-48.086-312.127-81.755q-9.349-3.6-18.548-7.175c-18.308-7.108-35.6-13.82-52.838-20.013l-.139.395c17.213,6.192,34.522,12.9,52.826,20.009q9.2,3.556,18.531,7.179c51.68,19.887,98.548,37.544,149,52.213C298.409,261.74,299.878,262.16,301.339,262.58Z" transform="translate(-49.793 -70.694)" fill="#0e0e0e"/>
          <path id="パス_4335" data-name="パス 4335" d="M241.969,242.874C311.68,262.8,386.5,279.9,464.423,283.542a583.563,583.563,0,0,0,92.78-2.83c42.435-4.819,82.31-13.506,120.87-21.91,23.363-5.088,45.424-9.9,67.985-13.9,51.033-9.144,91.94-11.591,132.663-7.935,22.834,1.961,46.155,6.835,71.294,14.9,24.32,7.813,48.9,18.182,72.666,28.212,13.014,5.5,26.516,11.184,39.883,16.419,9.887,3.867,19.883,7.657,29.547,11.335,19.807,7.511,40.3,15.281,59.866,23.728,13.434,5.8,26.789,11.931,39.69,17.859l5.919,2.72c9.286,4.3,18.736,8.728,27.872,13.014,12.951,6.062,26.339,12.33,39.564,18.4,34.358,15.81,71.1,32.175,109.4,43.3,32.389,9.358,63.468,13.157,89.593,15.642,20.634,1.9,41.94,4.123,62.553,6.272l4.416.458c79.682,8.207,155.9,19.362,226.542,33.166l.084-.42c-70.66-13.787-146.89-24.941-226.58-33.166l-4.417-.462c-20.6-2.149-41.911-4.37-62.553-6.272-25.853-2.456-56.558-6.2-88.582-15.357l-.928-.269c-38.262-11.117-75-27.473-109.342-43.275-13.22-6.066-26.608-12.334-39.555-18.4-9.139-4.278-18.585-8.7-27.876-13.014l-5.919-2.72c-12.905-5.928-26.251-12.061-39.7-17.863-19.606-8.464-40.093-16.234-59.908-23.745-9.656-3.665-19.656-7.456-29.538-11.335-13.354-5.231-26.831-10.915-39.883-16.419-23.778-10.029-48.363-20.4-72.7-28.22-25.189-8.077-48.523-12.956-71.369-14.92-40.764-3.657-81.718-1.209-132.789,7.939-22.569,4.005-44.639,8.816-68.011,13.9-38.552,8.4-78.418,17.082-120.828,21.9a584.021,584.021,0,0,1-92.7,2.83c-112.306-5.248-218.184-38.481-311.6-67.8l-1.377-.42q-7.977-2.519-15.84-5c-19.471-6.15-37.859-11.961-56.222-17.213l-.113.42c18.354,5.26,36.742,11.071,56.209,17.213q7.872,2.49,15.84,4.992l1.377.42C181.352,224.729,211.163,234.07,241.969,242.874Z" transform="translate(-48.664 -66.009)" fill="#0e0e0e"/>
          <path id="パス_4336" data-name="パス 4336" d="M81.986,204.244c19.614,4.228,39.207,9.03,59.967,14.127l12.754,3.119,12.8,3.123c90.681,22.158,193.431,47.272,301.09,51.57a706.9,706.9,0,0,0,92.36-2.154c38.313-3.526,74.728-9.6,109.917-15.466,27.213-4.538,52.9-8.816,79.09-11.952,49.539-6.012,91.5-6.356,132.012-1.087,22.477,2.834,45.529,8.35,70.471,16.86,20.571,7.028,41.419,15.76,61.591,24.207,16.44,6.885,33.443,14.005,50.4,20.256,11.91,4.383,23.955,8.564,35.6,12.595,17.926,6.226,36.465,12.658,54.257,19.757,14.929,5.953,29.727,12.355,44.039,18.548l1.822.789c12.175,5.327,24.58,10.848,36.562,16.188,10.185,4.534,20.714,9.236,31.1,13.791,36.428,16.058,72.209,31.3,109.518,41.327,31.667,8.451,63.006,11.377,89.484,13.124,24.148,1.528,48.346,3.636,66.726,5.306a2170.476,2170.476,0,0,1,225.442,32.666l.08-.42a2172.281,2172.281,0,0,0-225.505-32.674c-18.384-1.679-42.582-3.778-66.751-5.3-26.449-1.746-57.767-4.673-89.4-13.115-37.271-10.013-73.048-25.252-109.459-41.306-10.382-4.559-20.911-9.236-31.092-13.791-11.986-5.34-24.379-10.861-36.566-16.188l-1.822-.789c-14.316-6.192-29.114-12.595-44.052-18.552-17.8-7.1-36.344-13.539-54.274-19.761-11.646-4.043-23.69-8.224-35.6-12.595-16.944-6.255-33.942-13.371-50.378-20.252-20.181-8.451-41.046-17.187-61.621-24.215-24.971-8.522-48.048-14.043-70.529-16.881-40.55-5.273-82.532-4.929-132.117,1.083-26.18,3.132-51.89,7.418-79.111,11.956C635.6,264.014,599.206,270.072,560.91,273.6a703.037,703.037,0,0,1-92.3,2.149c-107.616-4.295-210.358-29.387-301.01-51.558l-12.825-3.132-12.721-3.111c-20.764-5.088-40.374-9.9-59.979-14.123Z" transform="translate(-47.527 -61.33)" fill="#0e0e0e"/>
          <path id="パス_4337" data-name="パス 4337" d="M84.682,215.408c21.024,3.073,42.02,6.759,64.232,10.659l9.148,1.6c9.731,1.7,19.757,3.48,29.454,5.2C278.063,248.9,371.691,265.48,472.8,268.83a879.68,879.68,0,0,0,91.94-1.478c32.939-2.322,64.623-6.066,95.261-9.685,32.372-3.825,62.943-7.439,93.9-9.349,48.628-3.09,90.362-1.259,131.344,5.76,22.112,3.694,44.9,9.853,69.665,18.808,17.116,6.2,34.526,13.51,51.365,20.571,19.547,8.2,39.757,16.688,60.076,23.711,13.291,4.584,26.747,8.816,39.761,12.909,16.683,5.252,33.934,10.676,50.546,16.768,15.21,5.579,29.878,11.495,46.1,18.09,14.765,6.071,29.765,12.427,44.27,18.577,7.733,3.283,15.735,6.671,23.615,9.987,38.476,16.218,73.279,30.378,109.64,39.35,30.911,7.557,61.222,9.58,89.371,10.613,19.866.676,41,1.906,66.5,3.879,68.43,5.2,141.823,15.726,224.384,32.183l.08-.42c-82.578-16.461-155.988-26.99-224.431-32.192-25.512-1.973-46.646-3.2-66.516-3.879-28.128-1.033-58.413-3.035-89.287-10.6-36.331-8.967-71.121-23.119-109.573-39.329-7.88-3.317-15.882-6.717-23.615-9.987-14.5-6.15-29.509-12.511-44.274-18.577-16.23-6.6-30.9-12.515-46.121-18.1-16.616-6.092-33.875-11.52-50.563-16.772-13.014-4.093-26.449-8.325-39.753-12.905-20.3-7.024-40.5-15.5-60.034-23.7-16.843-7.07-34.261-14.383-51.386-20.571-24.769-8.98-47.591-15.143-69.723-18.846-41.012-7.024-82.776-8.854-131.437-5.764-30.966,1.914-61.545,5.525-93.918,9.354-30.647,3.619-62.318,7.364-95.244,9.681a878.852,878.852,0,0,1-91.9,1.478c-101.08-3.359-194.695-19.925-285.229-35.957-9.7-1.717-19.731-3.493-29.454-5.193l-9.148-1.6c-22.229-3.9-43.241-7.59-64.257-10.663Z" transform="translate(-46.395 -56.65)" fill="#0e0e0e"/>
          <path id="パス_4338" data-name="パス 4338" d="M87.382,226.565c22.779,1.788,45.492,4.228,69.539,6.809l4.547.483c18.623,2,37.129,4.081,56.722,6.3,82.62,9.312,168.057,18.942,258.847,21.323,32.683.869,62.624.6,91.52-.8,25.718-1.259,50.823-3.09,75.1-4.87,39.463-2.893,76.751-5.626,114.191-5.785,47.565-.273,89.085,3.732,130.673,12.595,21.709,4.547,44.219,11.335,68.821,20.781,13.955,5.361,28.178,11.4,41.931,17.213,22.368,9.5,45.5,19.312,68.964,26.894,14.274,4.618,28.787,8.686,42.8,12.637,15.815,4.458,32.167,9.068,47.952,14.358,16.306,5.458,32.477,11.558,46.356,16.843,17.049,6.566,34.35,13.543,51.083,20.29q8.505,3.426,17.028,6.851c33.5,13.485,71.466,28.762,109.757,37.364,28.6,6.39,56.369,7.859,89.258,8.1,20.151.092,41.826.894,66.273,2.448,65.13,4.06,136.084,14.135,223.3,31.709l.084-.42c-87.238-17.578-158.208-27.658-223.343-31.717-24.454-1.553-46.138-2.355-66.293-2.448-32.863-.243-60.605-1.713-89.169-8.09-38.258-8.61-76.21-23.883-109.694-37.364q-8.518-3.413-17.024-6.851c-16.738-6.746-34.039-13.724-51.092-20.29-13.883-5.29-30.063-11.39-46.373-16.852-15.794-5.294-32.154-9.9-47.973-14.362-14.013-3.95-28.5-8.035-42.788-12.632-23.443-7.557-46.566-17.385-68.926-26.868-13.758-5.84-27.981-11.877-41.944-17.238-24.626-9.446-47.158-16.247-68.884-20.8-41.617-8.883-83.166-12.9-130.765-12.62-37.469.16-74.757,2.893-114.232,5.785-24.278,1.78-49.379,3.619-75.093,4.87-28.9,1.4-58.829,1.679-91.5.8-90.773-2.38-176.2-12.007-258.814-21.318-19.593-2.208-38.1-4.295-56.722-6.3l-4.534-.453c-24.051-2.582-46.768-5.017-69.551-6.809Z" transform="translate(-45.261 -51.967)" fill="#0e0e0e"/>
          <path id="パス_4339" data-name="パス 4339" d="M90.083,237.719c25.063.311,50.319,1.331,74.728,2.322,36.314,1.469,72.981,3.434,111.793,5.516,65.823,3.531,133.884,7.183,204.6,8.552,33.451.655,63.254.613,91.122-.126,15.668-.42,31.234-.945,46.285-1.461,49.66-1.679,96.558-3.291,143.158-.806a652.731,652.731,0,0,1,130.009,19.459,521.014,521.014,0,0,1,68.01,22.742c11.041,4.484,22.309,9.362,33.2,14.077,24.933,10.794,50.718,21.956,77.142,29.883,15.055,4.5,30.353,8.317,45.147,12,15.177,3.778,30.869,7.7,46.05,12.3,16.453,5,32.792,10.689,46.6,15.6,19.135,6.877,38.535,14.312,57.3,21.5l11.037,4.223.588.227c35.395,13.568,71.995,27.6,109.291,35.172,31.188,6.3,62.368,6.184,89.149,5.592,20.458-.508,42.057-.172,66.042,1.02,79.69,3.867,157.054,17.956,222.222,31.226l.084-.42c-65.185-13.27-142.57-27.364-222.285-31.234-23.992-1.192-45.6-1.528-66.071-1.02-26.759.592-57.91.7-89.056-5.584-37.263-7.557-73.846-21.591-109.224-35.156l-.588-.223-11.037-4.228c-18.762-7.187-38.166-14.618-57.305-21.5-13.82-4.916-30.168-10.609-46.629-15.609-15.189-4.618-30.89-8.522-46.071-12.309-14.79-3.686-30.08-7.5-45.131-12-26.4-7.918-52.171-19.077-77.091-29.866-10.915-4.719-22.166-9.6-33.216-14.077a520.5,520.5,0,0,0-68.053-22.763A652.922,652.922,0,0,0,761.8,251.287c-46.625-2.49-93.54-.886-143.213.806-15.051.516-30.613,1.045-46.281,1.461-27.859.739-57.658.781-91.1.126-70.714-1.369-138.771-5.038-204.586-8.552-38.816-2.1-75.483-4.047-111.8-5.516-24.429-.991-49.69-2.011-74.753-2.322Z" transform="translate(-44.134 -47.281)" fill="#0e0e0e"/>
          <path id="パス_4340" data-name="パス 4340" d="M92.778,250.047c25.609-1.335,51.3-2.045,75.416-2.653,92.087-2.326,189.242-1.092,292.1.21l25.13.315c32.326.42,61.487.735,90.706.554l9.286-.025c62.83-.155,122.167-.3,180.325,6.142A711.791,711.791,0,0,1,895.072,280.9,621.4,621.4,0,0,1,962.243,305.6c8.359,3.577,16.885,7.368,25.135,11.037,27.259,12.12,55.45,24.656,84.66,32.746,15.655,4.328,31.6,7.783,47.02,11.125,14.694,3.186,29.908,6.482,44.639,10.5,17.284,4.71,34.119,10.147,46.856,14.358,20.991,7.007,42.23,14.731,62.775,22.2l9,3.275c34.6,12.595,70.374,25.651,106.785,32.255,30.626,5.508,60.777,4.538,89.035,3.073,20.647-1.117,42.175-1.259,65.815-.42,75.815,2.632,151.093,16.335,221.144,30.752l.084-.42c-70.068-14.421-145.366-28.128-221.211-30.76-23.657-.84-45.2-.709-65.853.42-28.233,1.461-58.355,2.431-88.938-3.073-36.373-6.6-72.133-19.631-106.714-32.238l-9-3.27c-20.546-7.469-41.8-15.193-62.788-22.2-12.741-4.2-29.58-9.656-46.877-14.362-14.74-4.022-29.95-7.317-44.66-10.5-15.407-3.359-31.339-6.793-46.986-11.117-29.186-8.086-57.352-20.617-84.6-32.746-8.249-3.665-16.793-7.46-25.143-11.037A621.169,621.169,0,0,0,895.2,280.471a712.614,712.614,0,0,0-129.409-26.323c-58.174-6.444-117.549-6.3-180.371-6.142l-9.286.025c-29.219.181-58.355-.143-90.681-.554l-25.13-.315c-102.855-1.3-200.014-2.519-292.11-.21-24.123.609-49.82,1.318-75.429,2.653Z" transform="translate(-42.996 -43.769)" fill="#0e0e0e"/>
          <path id="パス_4341" data-name="パス 4341" d="M95.488,266.143c27.057-3.123,53.649-5.609,76.092-7.628C274.226,249.279,381.233,244.9,489.635,245.5c26.029.147,52.536.592,78.183,1.024l12.112.2c61.037,1.222,126.273,3.825,189.758,14.5a780.626,780.626,0,0,1,128.666,33.166c20.231,6.948,41.931,15.672,66.331,26.671,5.878,2.649,11.881,5.4,17.683,8.069,29.358,13.493,59.719,27.439,91.567,35.55,16.138,4.1,32.607,7.137,48.535,10.076,14.337,2.645,29.165,5.382,43.556,8.862,13.8,3.359,28.77,7.506,47.1,13.111,22.67,7,45.592,14.9,67.759,22.532l6.57,2.267c33.9,11.726,68.947,23.85,104.581,29.538,30.126,4.773,59.249,2.989,88.922.563a617.823,617.823,0,0,1,65.584-1.835c76.365,1.579,153.653,16.453,220.06,30.269l.088-.42c-66.449-13.82-143.737-28.7-220.14-30.277a618.664,618.664,0,0,0-65.626,1.835c-29.643,2.427-58.745,4.2-88.825-.558-35.592-5.68-70.626-17.8-104.51-29.517l-6.57-2.271c-22.166-7.636-45.088-15.533-67.767-22.532-18.346-5.609-33.321-9.778-47.129-13.119-14.4-3.484-29.236-6.222-43.581-8.867-15.919-2.939-32.38-5.974-48.51-10.076-31.805-8.1-62.133-22.04-91.5-35.521-5.8-2.666-11.8-5.424-17.683-8.077-24.429-11-46.146-19.731-66.386-26.679a781.5,781.5,0,0,0-128.737-33.166c-63.514-10.68-128.767-13.283-189.821-14.5l-12.112-.2c-25.647-.42-52.167-.877-78.187-1.024-108.418-.6-215.438,3.778-318.1,13.014-22.418,2.019-49.014,4.5-76.075,7.62Z" transform="translate(-41.877 -44.029)" fill="#0e0e0e"/>
          <path id="パス_4342" data-name="パス 4342" d="M98.18,282.759c23-4.072,48.111-8.195,76.764-12.595,115.337-17.721,219.641-26.411,318.886-26.558,27.229-.034,56.633.588,89.879,1.906,74.308,3.149,134.632,10.424,189.913,22.88,41.142,9.236,83,22.313,128,40,19.761,7.716,40.584,16.814,65.529,28.632q5.382,2.552,10.785,5.134c31.256,14.925,63.573,30.353,97.91,38.317,16.663,3.854,33.695,6.457,50.168,8.971,13.938,2.133,28.355,4.337,42.376,7.275,14.387,3.069,29.879,6.952,47.351,11.868,22.288,6.322,44.446,13.464,69.01,21.465l7.59,2.481c33.283,10.915,67.7,22.175,102.654,26.994,29.681,4.064,57.78,1.52,88.808-1.948a539.534,539.534,0,0,1,65.357-3.266c73.657.487,145.614,14.37,218.981,29.807l.088-.42c-73.388-15.428-145.37-29.316-219.065-29.807a540.367,540.367,0,0,0-65.408,3.266c-31,3.468-59.073,6.008-88.708,1.952-34.912-4.811-69.312-16.083-102.578-26.978l-7.59-2.481c-24.568-8-46.722-15.143-69.026-21.47-17.481-4.92-32.981-8.816-47.376-11.872-14.035-2.939-28.455-5.151-42.4-7.284-16.465-2.519-33.489-5.118-50.135-8.967-34.295-7.951-66.592-23.371-97.818-38.283q-5.4-2.582-10.785-5.139c-24.958-11.822-45.785-20.92-65.555-28.64-45.021-17.7-86.9-30.789-128.045-40.021-55.307-12.464-115.677-19.731-189.989-22.893-33.254-1.318-62.658-1.94-89.9-1.906-99.266.147-203.612,8.816-318.949,26.566-28.657,4.4-53.77,8.522-76.776,12.595Z" transform="translate(-40.749 -44.806)" fill="#0e0e0e"/>
          <path id="パス_4343" data-name="パス 4343" d="M100.9,299.4c25.546-6.066,51.6-11.973,77.44-17.569,122.65-26.545,224.242-39.287,319.713-40.1,28.409-.239,58.51.63,89.467,2.578,69.392,4.521,131.563,14.74,190.064,31.264l2.72.772c38.926,11.108,78.607,25.8,124.61,46.083,18.854,8.275,38.808,17.708,64.7,30.592l4.429,2.2c32.952,16.419,67.02,33.392,103.72,41.079,16.961,3.539,34.341,5.642,51.151,7.678,13.757,1.679,27.989,3.384,41.839,5.877,14.668,2.683,30.227,6.159,47.6,10.626,23.275,6.024,46.033,12.918,69.236,20.042l9.412,2.909c32.746,10.13,66.6,20.6,100.949,24.593,29.232,3.359,57.465-.025,88.7-4.463a478.392,478.392,0,0,1,65.126-4.689c71.369-.542,140.9,12.956,217.885,29.312l.088-.42c-77.028-16.373-146.6-29.862-217.995-29.32a478.532,478.532,0,0,0-65.181,4.694c-31.205,4.433-59.408,7.834-88.582,4.463-34.312-3.984-68.149-14.454-100.878-24.58q-4.711-1.461-9.412-2.905c-23.208-7.137-45.966-14.022-69.27-20.05-17.376-4.471-32.956-7.947-47.633-10.63-13.854-2.519-28.1-4.223-41.864-5.877-16.793-2.036-34.173-4.135-51.113-7.674-36.65-7.67-70.693-24.639-103.62-41.041l-4.429-2.208c-25.9-12.884-45.861-22.322-64.723-30.6C857.97,301.284,817.5,286.38,777.676,275.167,719.14,258.634,656.944,248.4,587.523,243.89c-30.97-1.952-61.084-2.821-89.5-2.582-52.305.445-105.672,4.4-163.15,12.108-48.187,6.457-99.43,15.617-156.647,28-25.819,5.621-51.877,11.5-77.423,17.578Z" transform="translate(-39.627 -45.61)" fill="#0e0e0e"/>
          <path id="パス_4344" data-name="パス 4344" d="M103.6,316.046c22.893-6.793,50.076-14.769,78.116-22.544,85.832-23.988,199.834-51.764,320.544-53.64a879.078,879.078,0,0,1,89.056,3.258,813.242,813.242,0,0,1,190.215,39.643c38.262,12.977,77.326,29.543,126.659,53.7,21.721,10.617,43.468,21.9,63.88,32.557,32.187,16.793,68.67,35.836,107.6,43.111,17.213,3.212,34.887,4.794,51.982,6.323,13.627,1.217,27.708,2.481,41.457,4.559,14.908,2.275,30.559,5.34,47.859,9.375,24.068,5.638,48.472,12.595,69.459,18.627q5.521,1.591,11.058,3.212c32.259,9.4,65.618,19.123,99.426,22.313,31.167,2.939,61.671-2.33,88.582-6.973a430.707,430.707,0,0,1,64.887-6.121c74.87-1.642,150.295,14.551,216.819,28.837l.093-.42c-66.562-14.274-142-30.487-216.92-28.846a431.49,431.49,0,0,0-64.963,6.125c-26.889,4.618-57.364,9.9-88.472,6.973-33.77-3.191-67.108-12.909-99.35-22.3q-5.533-1.612-11.058-3.212c-20.991-6.058-45.4-12.989-69.484-18.632-17.3-4.039-32.96-7.108-47.88-9.383-13.749-2.1-27.847-3.359-41.482-4.563-17.087-1.528-34.753-3.107-51.94-6.3-38.871-7.263-75.324-26.289-107.474-43.073-20.412-10.651-42.162-21.94-63.888-32.561-49.35-24.169-88.431-40.722-126.71-53.737a812.7,812.7,0,0,0-190.316-39.669,881.027,881.027,0,0,0-89.1-3.258C381.5,241.31,267.464,269.094,181.607,293.09c-28.044,7.767-55.231,15.764-78.12,22.553Z" transform="translate(-38.5 -46.418)" fill="#0e0e0e"/>
          <path id="パス_4345" data-name="パス 4345" d="M106.306,332.693c25.781-9.135,52.439-18.581,78.791-27.519C278.679,273.436,390.049,240.631,506.468,238c92.881-2.1,186.756,15.382,279.011,51.957,57.771,22.9,112.889,53.216,166.193,82.528,7.485,4.114,15.227,8.371,22.855,12.54,34.933,19.1,69.409,36.755,107.054,42.947,17.418,2.863,35.353,3.909,52.7,4.916,13.535.789,27.532,1.6,41.188,3.279,40.483,4.962,80.383,15.239,117.784,25.336q6.259,1.679,12.536,3.413c31.831,8.711,64.744,17.712,98.07,20.151,30.756,2.238,60.1-3.724,88.477-9.492,95.261-19.362,189.384,1.062,280.409,20.81l.092-.42c-45.529-9.874-92.6-20.088-139.623-25.223-52.213-5.7-98.321-4.253-140.962,4.412-28.35,5.76-57.662,11.717-88.359,9.484-33.287-2.427-66.18-11.423-97.99-20.126q-6.3-1.721-12.536-3.413c-37.418-10.1-77.339-20.386-117.847-25.353-13.669-1.679-27.67-2.49-41.214-3.279-17.334-1.008-35.265-2.049-52.649-4.912-37.578-6.175-72.02-23.816-106.919-42.9-7.628-4.169-15.37-8.426-22.855-12.544C898.562,342.8,843.436,312.5,785.631,289.569c-92.31-36.6-186.24-54.089-279.179-51.986-51.361,1.159-104.736,8.132-163.188,21.31-46.852,10.567-97.159,25.143-158.306,45.886-26.339,8.938-53.01,18.384-78.8,27.536Z" transform="translate(-37.376 -47.229)" fill="#0e0e0e"/>
        </g>
        <path id="パス_4346" data-name="パス 4346" d="M1778.35,486.918c-9.274-15.6-19.051-36.638-30.378-61-46.52-100.089-116.836-251.349-278.42-306.795-223.448-76.671-332.173,51.092-411.56,144.363-18.027,21.184-35.055,41.193-51.176,55.869-17.859,16.26-33.027,24.572-47.742,26.167-48.451,5.26-84.715-59.434-113.851-111.424-9.555-17.04-18.577-33.14-26.868-44.581l-.995-1.373c-17.4-24.014-39.043-53.9-64.753-76.407-30.126-26.415-59.417-37.276-89.547-33.2-65.37,8.816-109.338,80.328-141.441,132.532l-4.857,7.88c-4.156,6.717-8.3,13.686-12.317,20.416C491.431,261.194,478,283.73,461.46,303.218c-10.332,12.175-23.883,25.319-40.454,25.319a32.6,32.6,0,0,1-9.236-1.356c-21.973-6.448-38.09-29.807-51.037-48.59q-1.48-2.141-2.893-4.2c-12.809-18.413-24.908-37.746-36.608-56.44-9.022-14.421-18.354-29.329-27.947-43.712l-2.716-4.081c-15.29-22.985-36.23-54.467-61.293-77.666-29.857-27.641-58.145-37.116-86.483-28.967-31.327,9.034-54.593,37.91-73.221,64.963-24.6,35.739-44.383,75.345-63.523,113.649q-2.834,5.68-5.676,11.335L0,253.3q2.842-5.668,5.676-11.335c19.14-38.317,38.93-77.935,63.552-113.7C87.893,101.151,111.21,72.209,142.7,63.149c15.147-4.358,30.689-3.577,46.18,2.317,13.3,5.059,26.994,14.056,40.693,26.738,25.1,23.216,46.058,54.719,61.365,77.721q1.385,2.1,2.716,4.081c9.589,14.391,18.921,29.3,27.931,43.72,11.7,18.69,23.8,38.019,36.6,56.424q1.417,2.034,2.893,4.2c12.914,18.72,28.967,42.02,50.8,48.426,20.6,6.045,37.133-9.559,49.245-23.829,16.511-19.463,29.95-42,42.943-63.812,4.013-6.717,8.165-13.694,12.322-20.42q2.38-3.862,4.853-7.884C553.379,158.553,597.41,86.961,662.977,78.1c30.252-4.089,59.652,6.805,89.879,33.3,25.722,22.548,47.4,52.477,64.816,76.5l.995,1.369c8.308,11.461,17.334,27.569,26.894,44.622C874.637,285.775,910.821,350.338,959,345.145c14.622-1.587,29.719-9.866,47.507-26.062,16.1-14.66,33.119-34.656,51.138-55.836,19.383-22.784,41.36-48.6,66.2-72.494,28.506-27.406,56.474-48.12,85.5-63.321a275.428,275.428,0,0,1,112.667-31.541,329.588,329.588,0,0,1,68.959,3.216,446.213,446.213,0,0,1,78.691,19.631,358.7,358.7,0,0,1,105.324,57.486c27.649,21.721,53.7,48.556,77.435,79.766,43.695,57.448,72.629,119.732,95.912,169.775,11.335,24.349,21.1,45.378,30.357,60.962Z" transform="translate(0 25.351)" fill="#0e0e0e"/>
        <path id="パス_4347" data-name="パス 4347" d="M1773.067,487.353c-10.155-15.315-20.962-36.5-33.472-61.025-32.926-64.6-78.04-153.028-155-219.636-36.885-31.927-78.032-56.159-122.285-72.02-47.217-16.881-92.41-25.7-134.342-26.209-1.213,0-2.435-.021-3.636-.021-130.182,0-205.954,85.672-266.963,154.644-17.7,20.013-34.425,38.917-50.336,52.943-17.658,15.558-32.654,23.669-47.192,25.517a52.435,52.435,0,0,1-6.591.42c-44.287,0-78.384-56.99-106.038-103.212-9.874-16.5-19.2-32.082-27.775-42.981l-3.707-4.715c-18.837-24.009-42.28-53.892-70.059-74.56-27.145-20.193-53.6-28.128-80.886-24.27-51.125,7.284-88.7,50.836-115.731,87.96-8.85,12.175-16.751,24.161-24.391,35.769-2.254,3.43-4.387,6.671-6.511,9.866-4.228,6.394-8.443,13.014-12.519,19.421-12.939,20.319-26.318,41.327-42.6,59.371-12.091,13.392-28.548,27.947-48.8,21.574-21.537-6.86-37.469-30.143-50.261-48.842-.957-1.4-1.9-2.771-2.817-4.106-7.137-10.332-14.488-21.558-23.862-36.4-4.16-6.583-8.35-13.308-12.406-19.807-8.946-14.354-18.2-29.19-27.708-43.523l-2.385-3.6c-30.865-46.6-82.528-124.648-146.475-107.839a86.5,86.5,0,0,0-25.915,11.914c-19.2,12.716-34.757,32.171-47.439,49.539C49.818,157.993,29.3,196.688,9.453,234.106q-2.746,5.172-5.5,10.336l-.369-.2q2.746-5.164,5.483-10.336c19.866-37.431,40.395-76.138,65.567-110.635,12.7-17.385,28.287-36.873,47.54-49.627A87.4,87.4,0,0,1,148.2,61.678c15.017-3.946,30.42-2.855,45.76,3.254,13.182,5.239,26.742,14.349,40.3,27.078,24.849,23.317,45.655,54.74,60.844,77.666l2.385,3.594c9.517,14.337,18.77,29.182,27.708,43.535,4.11,6.507,8.308,13.233,12.452,19.82,9.37,14.832,16.73,26.054,23.858,36.386.919,1.331,1.856,2.7,2.817,4.106,12.754,18.644,28.627,41.852,50.055,48.67,20,6.3,36.352-8.153,48.359-21.453C479,286.319,492.37,265.324,505.3,245.017c4.076-6.406,8.291-13.014,12.519-19.429,2.124-3.191,4.257-6.432,6.516-9.862,7.641-11.612,15.533-23.619,24.4-35.785,18.023-24.769,34.085-42.729,50.559-56.566,21.44-18.019,42.851-28.342,65.454-31.562a94.879,94.879,0,0,1,43.082,3.938c12.624,4.118,25.445,10.987,38.115,20.412,27.821,20.7,51.285,50.6,70.139,74.635l3.7,4.719c8.6,10.915,17.926,26.507,27.8,43.019,28.968,48.384,64.975,108.6,112.217,102.6,14.45-1.835,29.387-9.912,46.969-25.412,15.894-14.009,32.607-32.905,50.3-52.9,30.391-34.358,64.833-73.3,108.418-103.636,49.417-34.4,101.428-51.151,158.876-51.151,1.209,0,2.414,0,3.623.021,41.982.512,87.2,9.337,134.459,26.234,44.308,15.852,85.5,40.122,122.423,72.108,77.016,66.659,122.167,155.148,155.106,219.758,12.507,24.517,23.3,45.693,33.447,60.987Z" transform="translate(1.505 24.924)" fill="#0e0e0e"/>
        <path id="パス_4348" data-name="パス 4348" d="M1767.8,487.8c-11.142-14.987-23.111-36.331-36.965-61.042-33.531-59.8-79.455-141.7-154.241-204.808-37.062-31.281-77.952-55.416-121.529-71.718-45.739-17.032-89.917-26.831-131.307-29.127-130.1-7.2-206.1,75.328-267.155,141.643-34.711,37.708-64.682,70.244-95.962,74.812a53.341,53.341,0,0,1-7.779.571c-18.073,0-35.974-9.27-54.488-28.157-18.367-18.732-34.706-44.219-49.119-66.7-10.193-15.9-19.824-30.924-28.7-41.235q-3.111-3.619-6.369-7.46c-18.254-21.411-40.966-48.1-67.309-66.554-26.57-18.611-53.6-26.029-80.328-22.078-50.156,7.523-88.3,48.888-115.924,84.1-8.892,11.335-16.793,22.519-24.433,33.346-2.3,3.249-4.463,6.322-6.616,9.341-4.559,6.381-9.085,13.014-13.464,19.4-12.649,18.472-25.731,37.612-41.47,53.917-5.37,5.563-12.595,12.494-21.067,16.793-9.123,4.652-17.905,5.432-26.843,2.385-21.117-7.2-36.805-30.332-49.413-48.921q-1.448-2.141-2.842-4.2c-8.967-13.111-17.364-26.264-23.632-36.256-4.127-6.553-8.283-13.249-12.3-19.731-8.871-14.274-18.052-29.051-27.477-43.329l-2.036-3.09c-30.592-46.4-81.8-124.115-145.194-109.069a85.882,85.882,0,0,0-25.718,10.961c-19.089,11.8-34.845,30.357-47.754,46.957-25.722,33.233-47.02,71.029-67.591,107.583L7.55,235.414l-.365-.21,5.227-9.278c20.571-36.566,41.873-74.379,67.616-107.633,12.926-16.629,28.72-35.227,47.859-47.057a86.348,86.348,0,0,1,25.84-11.016c63.686-15.113,114.988,62.742,145.639,109.258l2.036,3.09c9.438,14.274,18.611,29.051,27.486,43.338,4.022,6.474,8.178,13.17,12.3,19.731,6.3,9.987,14.652,23.136,23.623,36.247q1.4,2.034,2.846,4.2c12.578,18.5,28.224,41.591,49.207,48.728,19.257,6.562,34.8-5.961,47.473-19.081,15.718-16.281,28.787-35.387,41.424-53.863,4.379-6.4,8.909-13.014,13.468-19.408,2.154-3.014,4.324-6.087,6.616-9.337,7.645-10.827,15.533-22.028,24.446-33.363,27.674-35.265,65.911-76.7,116.189-84.241a97.906,97.906,0,0,1,42.721,3.195c12.569,3.778,25.328,10.139,37.914,18.959,26.386,18.472,49.119,45.172,67.385,66.621q3.262,3.829,6.369,7.46c8.892,10.336,18.531,25.365,28.737,41.281,28.808,44.921,64.652,100.866,110.975,94.1,31.129-4.542,61.058-37.049,95.719-74.686,30.227-32.809,64.45-70,107.473-98.154,49.77-32.561,102.108-46.827,160-43.619,41.436,2.292,85.643,12.1,131.433,29.152,43.623,16.323,84.551,40.479,121.651,71.789,74.845,63.162,120.79,145.1,154.338,204.926,13.854,24.7,25.81,46.029,36.944,61Z" transform="translate(3.017 24.481)" fill="#0e0e0e"/>
        <path id="パス_4349" data-name="パス 4349" d="M1762.513,488.258c-12.246-14.622-25.546-36.151-40.949-61.079-34.005-55.042-80.572-130.421-152.982-189.968-37.242-30.647-77.876-54.656-120.765-71.411-44.148-17.124-87.322-27.91-128.292-32.045-127.969-12.922-203.347,65.613-263.923,128.716C1021.6,297.9,992.209,328.5,961.42,333.588c-20.319,3.359-40.374-4.618-61.293-24.349-18.174-17.141-34.463-40.752-48.837-61.583-10.529-15.256-20.47-29.664-29.643-39.354-2.913-3.086-5.877-6.3-9.009-9.656-18.569-20.013-39.614-42.7-64.581-59.089-26.369-17.313-53.212-24.005-79.765-19.891-48.753,7.683-86.063,44.858-116.109,80.21-8.674,10.2-16.373,20.319-23.825,30.1-2.561,3.359-4.979,6.541-7.376,9.656-4.752,6.142-9.458,12.519-14.009,18.682-12.473,16.9-25.374,34.375-40.722,49.157-10.029,9.656-21.831,18.871-35.685,18.892a32.857,32.857,0,0,1-11.335-2.1c-20.689-7.557-36.159-30.588-48.594-49.081q-1.442-2.147-2.825-4.2c-8.816-12.972-17.133-26.117-23.4-36.1-4.085-6.524-8.212-13.191-12.2-19.643-8.816-14.249-17.91-28.942-27.263-43.149l-1.679-2.561C272.943,123.293,222.2,45.908,159.344,59.182a84.579,84.579,0,0,0-25.521,10.013C114.7,80.228,98.8,97.827,85.734,113.587c-26.3,31.986-48.363,68.9-69.69,104.615q-2.448,4.106-4.9,8.2l-.357-.218q2.452-4.093,4.9-8.2C37.026,182.273,59.1,145.358,85.435,113.339c13.073-15.789,29.022-33.426,48.187-44.5a86.061,86.061,0,0,1,25.643-10.076C222.389,45.437,273.233,122.974,303.619,169.3l1.679,2.561c9.358,14.228,18.451,28.925,27.246,43.141,3.992,6.448,8.115,13.115,12.2,19.639,6.268,10,14.589,23.14,23.392,36.1q1.385,2.049,2.825,4.2c12.4,18.443,27.83,41.394,48.388,48.921,18.644,6.826,34.005-4.618,46.6-16.7,15.336-14.757,28.229-32.217,40.693-49.119,4.551-6.167,9.236-12.544,14.014-18.69,2.4-3.1,4.815-6.276,7.372-9.635,7.452-9.79,15.16-19.912,23.841-30.122,12.863-15.134,30.311-34.551,51.172-50.5,21.726-16.6,43.048-26.369,65.189-29.857a101.34,101.34,0,0,1,42.351,2.452,132.736,132.736,0,0,1,37.721,17.5c25.009,16.419,46.075,39.123,64.652,59.157,3.136,3.359,6.1,6.57,9.009,9.656,9.194,9.715,19.144,24.135,29.681,39.4,14.362,20.815,30.647,44.4,48.779,61.516,20.819,19.639,40.752,27.565,60.941,24.232,30.647-5.063,59.988-35.617,93.947-70.991,30.047-31.3,64.1-66.776,106.634-92.78,49.119-30.025,100.685-41.826,157.646-36.075,41.016,4.144,84.216,14.933,128.4,32.074,42.935,16.772,83.6,40.819,120.882,71.478,72.461,59.589,119.052,135.005,153.07,190.069,15.395,24.916,28.686,46.436,40.916,61.033Z" transform="translate(4.527 24.037)" fill="#0e0e0e"/>
        <path id="パス_4350" data-name="パス 4350" d="M1757.237,488.714c-13.51-14.215-28.363-35.978-45.558-61.18-34.324-50.3-81.331-119.191-151.1-175.064-37.431-29.975-77.8-53.9-120.009-71.1-42.989-17.368-83.964-28.808-125.278-34.967-125.975-18.791-200.786,55.869-260.9,115.832-33.229,33.166-61.932,61.793-92.188,67.372a56.806,56.806,0,0,1-10.311.953c-16.453,0-32.905-7.3-50-22.12-17.972-15.575-34.215-37.334-48.539-56.529-10.865-14.551-21.125-28.3-30.6-37.33-3.741-3.585-7.582-7.368-11.65-11.373-17.914-17.632-38.2-37.649-61.852-52.116-26.167-16.016-52.822-21.973-79.22-17.7-47.465,7.846-85.429,42.989-116.29,76.336-8.468,9.144-15.987,18.254-23.262,27.066-2.809,3.4-5.458,6.616-8.082,9.727-4.941,5.877-9.815,11.944-14.53,17.825-12.309,15.357-25.038,31.239-40.034,44.539-9.7,8.594-21.029,16.759-34.077,16.759a32.746,32.746,0,0,1-12.057-2.355c-20.26-7.977-35.517-30.844-47.771-49.232q-1.436-2.154-2.813-4.2c-8.581-12.746-16.524-25.34-23.166-35.978-4.047-6.486-8.136-13.124-12.091-19.538-8.732-14.169-17.75-28.791-27.024-42.964L307.6,169.5C277.558,123.455,227.277,46.389,164.866,57.737a85.937,85.937,0,0,0-25.323,9.06c-19.064,10.181-35.16,26.868-48.388,41.831C64.207,139.362,41.339,175.4,19.223,210.269l-4.5,7.087-.353-.223q2.267-3.526,4.5-7.091c22.12-34.874,45-70.949,71.961-101.693,13.254-15,29.387-31.713,48.506-41.923a85.963,85.963,0,0,1,25.445-9.106c62.683-11.4,113.065,65.819,143.158,111.949l1.222,1.877c9.286,14.177,18.3,28.808,27.024,42.96,3.955,6.419,8.044,13.052,12.091,19.538,6.637,10.638,14.58,23.229,23.157,35.966l2.813,4.2c12.225,18.342,27.439,41.172,47.578,49.077,18.027,7.078,33.22-3.27,45.7-14.328,14.971-13.275,27.708-29.144,39.983-44.5,4.715-5.877,9.593-11.969,14.534-17.83,2.62-3.111,5.273-6.322,8.081-9.727,7.28-8.816,14.8-17.926,23.279-27.082,30.92-33.4,68.951-68.6,116.542-76.466,26.5-4.286,53.25,1.679,79.505,17.758,23.674,14.492,44,34.509,61.927,52.175,4.068,4,7.905,7.783,11.65,11.369,9.5,9.055,19.773,22.817,30.647,37.364,14.316,19.182,30.538,40.916,48.477,56.466,20.571,17.826,40.181,24.719,59.963,21.071,30.135-5.558,58.775-34.152,91.974-67.259,60.177-60.034,135.072-134.762,261.257-115.954,41.344,6.163,82.352,17.611,125.375,34.992,42.238,17.213,82.65,41.163,120.11,71.163,30.983,24.815,59.958,54,88.582,89.228,24.668,30.357,44.82,59.883,62.595,85.933,17.183,25.189,32.028,46.936,45.517,61.126Z" transform="translate(6.033 23.593)" fill="#0e0e0e"/>
        <path id="パス_4351" data-name="パス 4351" d="M1751.963,489.185c-14.975-13.757-31.663-35.831-50.983-61.394-36.365-48.115-81.621-107.99-148.4-160.047a535.869,535.869,0,0,0-119.228-70.8,632.065,632.065,0,0,0-122.264-37.884c-124.153-24.836-198.431,46.037-258.113,102.986-32.368,30.882-60.324,57.553-89.967,63.6-19.5,3.98-38.909-1.931-59.329-18.052-17.771-14.043-33.951-33.963-48.225-51.541-11.2-13.8-21.793-26.831-31.583-35.168-4.576-3.921-9.3-8.149-14.307-12.628-17.238-15.437-36.776-32.931-59.115-45.6-26.029-14.765-52.477-19.983-78.661-15.508C626.1,154.96,588.8,186.593,555.3,219.612c-8.27,8.149-15.617,16.306-22.721,24.19-3.052,3.388-5.932,6.587-8.774,9.656-5.113,5.525-10.147,11.268-15.013,16.818-12.149,13.854-24.715,28.2-39.362,40.067-9.736,7.872-20.269,14.744-32.234,14.744a33.237,33.237,0,0,1-13.014-2.733c-19.828-8.329-34.845-31.067-46.944-49.375-.953-1.44-1.885-2.855-2.8-4.232-8.4-12.595-16.3-25.189-22.93-35.84-4.009-6.453-8.065-13.052-11.982-19.438-8.644-14.085-17.586-28.653-26.789-42.775l-.81-1.259c-29.786-45.869-79.648-122.641-141.55-113.128a86.343,86.343,0,0,0-25.122,8.111c-19.257,9.442-35.428,25.147-48.7,39.266-27.347,29.068-50.773,63.85-73.4,97.486l-4.836,7.183-.348-.235,4.836-7.183c22.67-33.648,46.075-68.43,73.435-97.536,13.3-14.148,29.509-29.887,48.829-39.358a86.256,86.256,0,0,1,25.244-8.149c14.547-2.233,29.421.181,44.211,7.175,12.712,6.012,25.773,15.617,38.821,28.548,23.93,23.724,44.152,54.862,58.913,77.6l.81,1.259c9.207,14.127,18.145,28.695,26.793,42.779,3.921,6.385,7.977,12.989,11.982,19.438,6.625,10.663,14.53,23.262,22.922,35.827q1.381,2.074,2.809,4.236c12.04,18.228,27.045,40.924,46.755,49.215,17.372,7.3,31.805-1.432,44.82-11.952,14.622-11.839,27.171-26.163,39.312-40.013,4.866-5.558,9.9-11.3,15.017-16.831,2.842-3.069,5.722-6.268,8.774-9.656,7.108-7.893,14.458-16.05,22.733-24.207,14.622-14.408,32.213-30.962,51.81-44.5,22.049-15.21,43.279-24.4,64.908-28.1,26.264-4.488,52.826.747,78.926,15.558,22.372,12.7,41.931,30.2,59.194,45.651,5,4.479,9.727,8.707,14.3,12.624,9.82,8.363,20.416,21.411,31.633,35.223,14.274,17.561,30.428,37.465,48.161,51.478,20.319,16.054,39.61,21.936,58.984,17.985,29.526-6.024,57.44-32.658,89.761-63.5,59.753-57.011,134.119-127.969,258.482-103.091a631.664,631.664,0,0,1,122.348,37.91A535.845,535.845,0,0,1,1552.827,267.4c66.822,52.091,112.091,111.991,148.481,160.123,19.312,25.546,35.983,47.612,50.932,61.34Z" transform="translate(7.542 23.13)" fill="#0e0e0e"/>
        <path id="パス_4352" data-name="パス 4352" d="M1746.69,489.679c-16.7-13.245-35.6-35.76-57.515-61.827-36.209-43.115-81.268-96.772-144.623-144.808-38.17-28.942-78.031-52.658-118.485-70.492a739.189,739.189,0,0,0-119.233-40.819c-122.486-31.113-196.278,36.1-255.573,90.148-31.415,28.619-58.544,53.317-87.49,59.816-19.093,4.274-38.174-.647-58.355-15.038-17.565-12.536-33.678-30.647-47.893-46.625-11.558-12.989-22.473-25.26-32.586-32.863-5.42-4.1-11.045-8.648-17-13.464-16.537-13.367-35.265-28.514-56.335-39.5-25.827-13.48-52.108-17.964-78.107-13.321-45.958,8.2-82.843,38.38-116.684,68.586-8.065,7.2-15.239,14.446-22.179,21.453-3.3,3.325-6.406,6.465-9.463,9.45-5.273,5.143-10.445,10.5-15.449,15.676-12,12.418-24.417,25.265-38.741,35.735-9.328,6.8-19.358,12.7-30.529,12.708a33.409,33.409,0,0,1-13.829-3.086c-19.4-8.711-34.211-31.335-46.117-49.518q-1.423-2.175-2.8-4.261c-8.2-12.4-16.079-25-22.7-35.685-3.971-6.415-7.977-12.985-11.872-19.341-8.556-14-17.418-28.518-26.545-42.591l-.378-.579C301.567,146.763,281.5,115.7,257.822,91.88c-28.128-28.258-54.916-40.353-81.94-36.978a86.883,86.883,0,0,0-24.925,7.137c-19.291,8.61-35.6,23.384-49.026,36.7-27.943,27.742-52.15,61.6-75.567,94.346l-4.471,6.255-.34-.248,4.471-6.251c23.422-32.746,47.637-66.634,75.609-94.4C115.067,85.1,131.439,70.293,150.78,61.653a87.872,87.872,0,0,1,25.046-7.187c14.429-1.805,29.177.945,43.825,8.165,12.595,6.209,25.538,15.953,38.46,28.934,23.72,23.858,43.8,54.942,58.456,77.65l.378.579c9.131,14.077,17.993,28.577,26.566,42.6,3.867,6.36,7.9,12.914,11.872,19.333,6.616,10.693,14.488,23.292,22.67,35.685q1.373,2.1,2.8,4.265c11.877,18.132,26.654,40.7,45.937,49.362,16.755,7.527,31.02-.155,43.938-9.58,14.295-10.449,26.7-23.279,38.686-35.685,5.008-5.181,10.181-10.533,15.458-15.684,3.056-2.981,6.167-6.121,9.459-9.446,6.944-7.011,14.123-14.274,22.2-21.465,33.888-30.248,70.828-60.454,116.89-68.691,26.092-4.656,52.477-.16,78.376,13.363,21.1,11.008,39.853,26.171,56.407,39.547,5.953,4.811,11.579,9.358,16.99,13.434,10.147,7.628,21.075,19.912,32.649,32.918,14.2,15.953,30.294,34.056,47.821,46.566,20.059,14.316,39.043,19.215,58,14.971,28.858-6.44,55.949-31.121,87.335-59.711,29.656-27.024,63.275-57.649,104.43-77.28,47.36-22.59,96.928-26.831,151.529-12.964a740.212,740.212,0,0,1,119.317,40.827c40.483,17.851,80.378,41.583,118.573,70.529,63.392,48.065,108.469,101.743,144.69,144.875,21.877,26.029,40.769,48.548,57.431,61.768Z" transform="translate(9.049 22.644)" fill="#0e0e0e"/>
        <path id="パス_4353" data-name="パス 4353" d="M1741.415,490.178c-18.77-12.683-39.392-34.719-65.492-62.616-35.647-38.09-80.013-85.5-139.342-129.22-38.493-28.363-78.086-51.978-117.73-70.185-44.921-20.626-83.964-33.678-116.235-43.724-120.987-37.658-194.351,26.087-253.3,77.3-30.37,26.386-56.6,49.173-84.757,56.042-18.7,4.559-37.49.6-57.423-12.116-17.385-11.083-33.443-27.427-47.607-41.847-11.864-12.078-23.09-23.485-33.464-30.315-6.4-4.2-13.077-9.035-20.151-14.148-15.693-11.335-33.48-24.215-53.107-33.556C727.2,173.6,701.1,169.84,675.257,174.663c-47.045,8.757-85.609,39.656-116.592,64.484l-.286.227c-7.851,6.3-14.853,12.666-21.625,18.833-3.543,3.22-6.885,6.268-10.168,9.127-5.4,4.715-10.7,9.626-15.815,14.379-11.877,11.029-24.156,22.431-38.2,31.549-12.045,7.813-26.327,15.458-43.468,7.233-18.963-9.093-33.556-31.579-45.282-49.648-.949-1.461-1.881-2.9-2.8-4.295-7.977-12.175-15.533-24.278-22.46-35.559-3.934-6.377-7.914-12.914-11.755-19.236-8.5-13.959-17.284-28.392-26.335-42.4-14.534-22.62-34.425-53.6-57.935-77.536C234.729,63.487,208.167,50.943,181.391,53.5A88.006,88.006,0,0,0,156.664,59.7c-19.337,7.775-35.794,21.621-49.341,34.14-28.577,26.411-53.6,59.362-77.809,91.226l-4.034,5.311-.332-.256,4.034-5.311c24.215-31.877,49.261-64.841,77.855-91.277,13.577-12.544,30.067-26.423,49.471-34.224a88.041,88.041,0,0,1,24.845-6.234c14.3-1.348,28.913,1.713,43.409,9.148,12.477,6.4,25.29,16.251,38.078,29.282,23.51,23.967,43.443,54.967,57.985,77.6,9.055,14.026,17.842,28.464,26.344,42.4,3.846,6.318,7.825,12.855,11.755,19.236,6.948,11.276,14.475,23.384,22.456,35.546q1.373,2.1,2.8,4.3c11.7,18.023,26.255,40.454,45.109,49.5,16.948,8.128,31.113.542,43.057-7.208,14-9.1,26.268-20.491,38.132-31.486,5.122-4.752,10.416-9.656,15.827-14.387,3.275-2.855,6.616-5.877,10.155-9.118,6.78-6.171,13.787-12.553,21.646-18.85l.285-.227c31.025-24.857,69.631-55.794,116.777-64.572,25.928-4.824,52.108-1.071,77.813,11.167,19.66,9.358,37.465,22.25,53.17,33.585,7.07,5.113,13.745,9.937,20.13,14.139,10.432,6.851,21.654,18.275,33.535,30.37,29.488,30.042,62.885,64.047,104.64,53.858,28.056-6.839,54.249-29.6,84.577-55.945,29.58-25.7,63.111-54.832,103.88-72.381,46.852-20.151,95.857-21.8,149.821-5.008,32.292,10.05,71.369,23.09,116.29,43.749,39.652,18.216,79.287,41.847,117.8,70.227,59.362,43.745,103.741,91.168,139.4,129.27,26.092,27.88,46.7,49.9,65.429,62.553Z" transform="translate(10.558 22.158)" fill="#0e0e0e"/>
        <path id="パス_4354" data-name="パス 4354" d="M1736.139,490.7c-21.331-12.04-45.311-34.971-75.676-64.005-34.5-32.985-77.436-74.039-131.9-113.023-39.408-28.208-77.667-51.062-116.966-69.879-42.5-20.349-79.963-34.278-110.064-45.475l-3.161-1.175c-119.648-44.5-192.638,15.9-251.295,64.442-28.01,23.182-54.471,45.08-81.743,52.28-18.3,4.832-36.755,1.814-56.424-9.236-17.166-9.656-33.145-24.215-47.242-37.078-12.229-11.159-23.779-21.7-34.509-27.708-7.288-4.089-14.92-8.984-23-14.165-14.916-9.559-31.822-20.395-50.168-28.279-25.4-10.915-51.31-13.921-77-8.938-43.892,8.51-81.084,35.105-110.966,56.482l-6.1,4.358c-7.615,5.416-14.433,10.953-21.033,16.31-3.778,3.086-7.393,6-10.915,8.7-5.512,4.24-10.915,8.665-16.1,12.943-12.317,10.13-23.93,19.7-37.721,27.511-7.905,4.475-16.793,8.837-26.633,8.837a34.517,34.517,0,0,1-15.953-4c-18.506-9.479-32.88-31.839-44.425-49.778-.949-1.474-1.877-2.939-2.792-4.333-7.758-11.927-15.269-24.072-22.25-35.42-3.883-6.335-7.809-12.838-11.621-19.114-8.426-13.9-17.141-28.275-26.121-42.259C295.545,123.615,247.333,48.178,186.9,52.12a89.186,89.186,0,0,0-24.53,5.256c-19.408,6.94-35.991,19.857-49.656,31.579-29.232,25.072-55.093,57.116-80.127,88.1l-3.514,4.366-.327-.264,3.526-4.366c25.03-31,50.916-63.061,80.185-88.162,13.69-11.755,30.315-24.694,49.79-31.658A89.66,89.66,0,0,1,186.891,51.7c60.685-3.955,108.972,71.621,137.831,116.772,8.984,13.988,17.7,28.363,26.129,42.267,3.808,6.3,7.746,12.779,11.637,19.114,6.956,11.335,14.467,23.485,22.221,35.407.919,1.415,1.847,2.863,2.8,4.333,11.52,17.914,25.857,40.206,44.282,49.631,16.3,8.338,30.319,1.881,42.179-4.832,13.736-7.792,25.357-17.351,37.662-27.469,5.206-4.282,10.592-8.711,16.108-12.951,3.505-2.7,7.095-5.609,10.915-8.694,6.6-5.357,13.434-10.915,21.054-16.327q3.01-2.141,6.1-4.358c29.916-21.411,67.15-48.019,111.13-56.55,25.777-5,51.768-1.986,77.247,8.963,18.375,7.9,35.3,18.745,50.227,28.313,8.073,5.176,15.705,10.076,22.981,14.152,10.773,6.045,22.339,16.6,34.589,27.775,29.274,26.713,62.456,56.986,103.275,46.209,27.183-7.175,53.607-29.043,81.583-52.2,29.534-24.446,63.015-52.154,103.439-67.637,46.377-17.763,94.879-16.738,148.267,3.123l3.161,1.175c30.109,11.2,67.591,25.135,110.1,45.492,39.32,18.825,77.6,41.7,117.029,69.917,54.492,39,97.444,80.064,131.953,113.061,30.34,29.014,54.3,51.927,75.568,63.943Z" transform="translate(12.069 21.644)" fill="#0e0e0e"/>
        <path id="パス_4355" data-name="パス 4355" d="M1730.871,491.235c-24.614-11.31-53.094-35.638-89.152-66.44-32.427-27.708-72.788-62.188-121.16-95.782-39.883-27.708-77.889-50.454-116.21-69.576-33.119-16.524-62.414-29.056-88.263-40.118-7.7-3.3-14.979-6.411-21.948-9.45-118.431-51.747-188.1,3.123-249.574,51.537-26.831,21.129-52.171,41.083-78.447,48.56-17.893,5.092-36.016,2.993-55.416-6.415-16.948-8.22-32.15-20.5-46.856-32.381-12.594-10.185-24.509-19.8-35.592-24.979-8.207-3.837-16.839-8.673-25.97-13.8-14.093-7.9-30.063-16.852-47.116-23.38-25.189-9.656-50.895-11.91-76.449-6.751-40.617,8.2-74.665,29.887-104.707,49.022-4.362,2.779-8.485,5.4-12.557,7.943-7.355,4.584-13.98,9.312-20.386,13.888-4.085,2.918-7.939,5.672-11.7,8.178-5.575,3.72-11.016,7.611-16.272,11.377-12.246,8.774-23.812,17.057-37.364,23.6-12.393,5.97-25.827,11.066-41.675,2.448-18.086-9.857-32.234-32.057-43.6-49.9l-2.8-4.379c-7.893-12.242-15.5-24.627-22-35.265-3.85-6.3-7.75-12.758-11.52-19.005-8.354-13.854-16.994-28.153-25.9-42.087-28-44.052-74.614-117.373-133.414-117.373-.8,0-1.6,0-2.41.042a91,91,0,0,0-24.349,4.3c-19.492,6.1-36.2,18.094-49.958,29.018C88.2,107.8,61.455,138.941,35.59,169.063l-2.939,3.422-.319-.277,2.939-3.417c25.882-30.139,52.637-61.3,82.557-85.043,13.8-10.949,30.55-22.968,50.109-29.089a91.323,91.323,0,0,1,24.446-4.324c60.206-2.053,107.78,72.792,136.193,117.511,8.909,13.942,17.553,28.254,25.907,42.1,3.778,6.247,7.674,12.708,11.524,19.005,6.5,10.647,14.1,23.031,21.99,35.265l2.8,4.379c11.335,17.8,25.458,39.95,43.451,49.753,15.655,8.535,28.967,3.468,41.3-2.456,13.514-6.524,25.067-14.8,37.3-23.56,5.26-3.778,10.7-7.666,16.281-11.385,3.778-2.519,7.611-5.256,11.692-8.17,6.411-4.58,13.04-9.316,20.407-13.9,4.072-2.519,8.191-5.164,12.553-7.943,30.072-19.152,64.157-40.857,104.854-49.077,25.63-5.176,51.428-2.9,76.68,6.767,17.082,6.541,33.065,15.5,47.167,23.409,9.131,5.118,17.75,9.954,25.949,13.783,11.125,5.2,23.052,14.836,35.685,25.034C893.17,294.311,926.1,320.911,966,309.559c26.2-7.456,51.507-27.385,78.3-48.489,29.538-23.254,63.015-49.606,103.137-63.04,45.945-15.386,93.989-11.637,146.869,11.469,6.965,3.044,14.24,6.155,21.944,9.45,25.853,11.062,55.156,23.6,88.288,40.13,38.338,19.127,76.365,41.9,116.26,69.6,48.388,33.606,88.758,68.1,121.193,95.807,36.033,30.785,64.492,55.1,89.056,66.382Z" transform="translate(13.575 21.118)" fill="#0e0e0e"/>
        <path id="パス_4356" data-name="パス 4356" d="M1725.6,491.786c-29.035-10.449-63.9-37.1-108.044-70.832-30.315-23.166-64.673-49.413-105.005-76.583-40.512-27.288-78.279-49.937-115.45-69.27-24.933-12.964-47.939-23.93-68.237-33.585-13.934-6.637-27.1-12.905-38.955-18.892-117.356-59.4-186.849-7.343-248.163,38.585-25.546,19.123-49.686,37.2-74.85,44.883-39.169,11.956-71.919-11.1-100.811-31.444-12.993-9.152-25.269-17.792-36.717-22.082-9.181-3.447-18.854-8.111-29.1-13.052-13.854-6.679-28.174-13.59-43.9-18.867a143.116,143.116,0,0,0-75.9-4.559c-37.221,7.817-69.388,26.029-97.767,42.12-6.881,3.9-13.38,7.582-19.694,10.97-7.061,3.778-13.464,7.741-19.656,11.566-4.4,2.712-8.543,5.273-12.595,7.557-5.584,3.157-11.029,6.478-16.293,9.689-12.225,7.46-23.77,14.509-37.154,19.807-10.277,4.051-24.349,9.6-40.79.059-17.632-10.244-31.57-32.3-42.759-50.013l-2.8-4.429c-7.607-11.91-14.925-23.888-21.763-35.139-3.808-6.255-7.666-12.679-11.4-18.892-8.275-13.778-16.839-28.019-25.689-41.919C304.146,123.249,257.445,49.4,198.838,49.4h-.924a98.531,98.531,0,0,0-24.14,3.359c-19.731,5.286-37.234,16.914-50.294,26.449-30.58,22.364-58.225,52.616-84.959,81.844l-2.288,2.519-.306-.285,2.284-2.519c26.747-29.257,54.4-59.509,85.034-81.89,13.09-9.563,30.647-21.222,50.433-26.524A98.956,98.956,0,0,1,197.923,49c13.753-.185,27.758,3.715,41.638,11.579,11.99,6.793,24.286,16.793,36.554,29.715,23.048,24.282,42.3,54.728,56.356,76.957,8.841,13.9,17.41,28.128,25.693,41.936,3.736,6.209,7.595,12.628,11.4,18.892,6.839,11.247,14.152,23.224,21.759,35.13q1.381,2.175,2.8,4.433c11.163,17.679,25.059,39.681,42.616,49.87,16.264,9.438,30.227,3.934,40.428-.084,13.346-5.286,24.878-12.322,37.087-19.773,5.269-3.216,10.714-6.537,16.306-9.7,4.03-2.275,8.174-4.836,12.565-7.557,6.2-3.829,12.595-7.783,19.677-11.579,6.3-3.388,12.809-7.07,19.689-10.966,28.4-16.092,60.6-34.333,97.889-42.167a143.487,143.487,0,0,1,76.113,4.572c15.76,5.286,30.093,12.2,43.959,18.892,10.231,4.937,19.9,9.6,29.064,13.014,11.495,4.312,23.791,12.968,36.81,22.133,28.812,20.29,61.47,43.287,100.446,31.386,25.1-7.662,49.2-25.714,74.728-44.828,31.02-23.229,63.1-47.263,102.952-58.674,45.559-13.04,93.2-6.478,145.631,20.063,11.851,6,25.013,12.263,38.947,18.892,20.3,9.656,43.313,20.626,68.254,33.585,37.183,19.337,74.959,42,115.488,69.291,40.344,27.166,74.707,53.43,105.026,76.6,44.115,33.711,78.96,60.34,107.931,70.769Z" transform="translate(15.084 20.571)" fill="#0e0e0e"/>
        <path id="パス_4357" data-name="パス 4357" d="M1720.33,492.362c-35.4-9.408-80.147-40.235-136.8-79.262-23.451-16.155-50.025-34.463-78.98-53.346-41.516-27.082-79.031-49.639-114.69-68.959-17.586-9.53-33.741-17.909-49.362-26.008-20.831-10.8-38.821-20.151-54.82-29.412-116.386-67.524-185.807-18.052-247.059,25.567-24.169,17.213-47,33.485-70.949,41.293a78.468,78.468,0,0,1-24.547,3.955c-27.859,0-52.477-14.8-74.765-28.2-13.4-8.061-26.062-15.668-37.889-19.03-10.223-2.905-20.991-7.284-32.431-11.919-12.846-5.214-26.134-10.6-40.5-14.736a152.2,152.2,0,0,0-75.345-2.368c-33.7,7.355-63.67,22.464-90.11,35.789-9.656,4.874-18.8,9.475-27.548,13.434-6.717,3.035-12.876,6.243-18.825,9.345-4.74,2.477-9.236,4.811-13.56,6.83-5.529,2.569-10.915,5.286-16.121,7.909-12.267,6.188-23.854,12.032-37.141,16.113-10.2,3.111-24.177,7.372-39.883-2.334-17.213-10.63-30.332-31.608-41.915-50.122-.953-1.52-1.889-3.018-2.813-4.484-7.309-11.553-14.354-23.145-21.528-35-3.778-6.209-7.582-12.595-11.272-18.757-8.216-13.728-16.713-27.922-25.479-41.776-16.453-26.163-34.308-53.6-55.781-76.365-26.163-27.779-51.285-41.667-76.785-42.431a95.3,95.3,0,0,0-23.93,2.4c-19.841,4.416-37.469,15.088-50.613,23.892-31.293,20.97-59.879,50.3-87.507,78.67l-1.562,1.6-.3-.294,1.562-1.6c27.645-28.371,56.226-57.717,87.582-78.708,13.17-8.816,30.844-19.522,50.752-23.955a95.928,95.928,0,0,1,24.043-2.41c13.573.42,27.385,4.7,41.05,12.741,11.835,6.969,23.963,17,36.046,29.807,21.482,22.792,39.35,50.252,55.811,76.407,8.77,13.854,17.267,28.052,25.487,41.785,3.69,6.167,7.511,12.544,11.268,18.757,7.175,11.847,14.219,23.443,21.528,34.988q1.385,2.2,2.813,4.488c11.558,18.472,24.656,39.408,41.776,49.984,15.563,9.61,28.863,5.554,39.551,2.292,13.258-4.072,24.828-9.9,37.078-16.083,5.21-2.628,10.6-5.344,16.134-7.918,4.328-2.011,8.816-4.349,13.543-6.818,5.953-3.107,12.108-6.318,18.841-9.358,8.741-3.946,17.872-8.547,27.536-13.434,26.449-13.338,56.461-28.459,90.211-35.827A152.624,152.624,0,0,1,757.7,231.86c14.383,4.135,27.679,9.534,40.538,14.752,11.406,4.618,22.183,9.005,32.385,11.9,11.881,3.359,24.564,11,37.989,19.072,28.548,17.171,60.92,36.629,98.968,24.211,23.875-7.792,46.68-24.035,70.823-41.235,61.352-43.712,130.891-93.25,247.516-25.609,15.987,9.278,33.976,18.606,54.8,29.387,15.626,8.1,31.78,16.478,49.371,26.029,35.685,19.312,73.191,41.89,114.72,68.976,28.967,18.892,55.538,37.2,78.989,53.355,56.621,39,101.344,69.807,136.672,79.2Z" transform="translate(16.593 20.004)" fill="#0e0e0e"/>
        <path id="パス_4358" data-name="パス 4358" d="M1715.06,492.969c-45.609-8.048-104.8-45.634-186.731-97.654q-15.361-9.761-31.784-20.151c-44.245-27.926-80.446-49.744-113.935-68.657-10.76-6.079-21.033-11.784-30.966-17.3-27.141-15.076-50.58-28.1-70.2-41.037-115.509-76.189-184.989-29.081-246.291,12.481-22.691,15.386-44.123,29.916-66.693,37.763a84.5,84.5,0,0,1-27.985,4.769c-25.706,0-48.775-11.516-69.774-22-13.825-6.9-26.868-13.434-39.119-15.806-11.335-2.212-23.338-6.184-36.033-10.386-11.755-3.888-23.883-7.909-36.814-11a163.689,163.689,0,0,0-74.791-.176c-30.042,6.814-57.515,19.148-81.713,30.03-12.729,5.718-24.769,11.121-36.146,15.311-6.335,2.326-12.175,4.828-17.842,7.246-5.143,2.2-10,4.27-14.694,5.982-5.374,1.965-10.617,4.051-15.684,6.071-12.4,4.941-24.106,9.605-37.389,12.473l-.134.029c-10.634,2.271-23.862,5.1-38.863-4.752-16.763-11.012-29.673-31.843-41.062-50.223l-2.83-4.551c-7.5-11.956-14.828-24.123-21.293-34.845-3.715-6.163-7.49-12.494-11.138-18.619-8.153-13.673-16.579-27.817-25.277-41.633-15.5-24.769-33.833-53.128-55.223-76.067-25.768-27.632-50.538-41.852-75.714-43.46A98.657,98.657,0,0,0,185.2,48.247c-19.983,3.543-37.716,13.262-50.928,21.335-32.036,19.564-61.554,47.981-90.1,75.467l-.768.739-.294-.3.768-.739c28.548-27.5,58.1-55.932,90.173-75.525,13.249-8.09,31.025-17.834,51.075-21.386a99.115,99.115,0,0,1,23.846-1.457c13.388.84,27,5.458,40.454,13.64,11.675,7.112,23.636,17.187,35.538,29.954,21.411,22.964,39.761,51.34,55.273,76.13,8.7,13.82,17.129,27.964,25.277,41.642,3.652,6.125,7.422,12.456,11.138,18.619,6.465,10.731,13.8,22.893,21.293,34.845l2.83,4.555c11.364,18.342,24.249,39.127,40.937,50.089,14.853,9.761,27.989,6.952,38.544,4.694l.134-.029c13.25-2.859,24.941-7.519,37.322-12.448,5.071-2.023,10.315-4.11,15.7-6.079,4.681-1.709,9.534-3.778,14.694-5.974,5.659-2.422,11.516-4.924,17.863-7.254,11.377-4.2,23.392-9.584,36.1-15.3,24.24-10.89,51.709-23.233,81.793-30.055a163.886,163.886,0,0,1,74.984.181c12.943,3.094,25.1,7.137,36.847,11.012,12.683,4.2,24.66,8.165,35.978,10.374,12.292,2.393,25.374,8.925,39.228,15.84,28.271,14.114,60.315,30.109,97.431,17.213,22.515-7.825,43.926-22.343,66.6-37.712,31.323-21.234,63.712-43.2,103.191-50.609,21.411-4.018,42.62-3.359,64.9,1.969,24.866,5.966,51.331,18.132,78.661,36.155,19.605,12.935,43.036,25.949,70.168,41.025,9.937,5.516,20.21,11.226,30.974,17.3,33.493,18.917,69.69,40.722,113.947,68.665q16.432,10.374,31.789,20.151c81.865,52,141.059,89.564,186.576,97.6Z" transform="translate(18.101 19.4)" fill="#0e0e0e"/>
        <path id="パス_4359" data-name="パス 4359" d="M1709.8,493.617c-51.608-4.719-120.207-41.331-221.244-102.986l-12.124-7.4c-33.027-20.151-67.171-41.012-101.046-60.953l-12.334-7.25c-33.753-19.82-62.9-36.944-85.815-54.014-114.686-85.45-184.384-40.412-245.875-.672-21.1,13.64-41.037,26.52-62.1,34.295-36.323,13.409-68.094.768-96.138-10.386-14.274-5.68-27.758-11.045-40.42-12.4-12.594-1.348-25.9-4.79-40-8.434-10.5-2.716-21.377-5.525-32.771-7.691a177.383,177.383,0,0,0-74.241,2.015c-26.26,6.18-50.865,16.083-72.57,24.824-16.062,6.465-31.234,12.574-45.492,16.637-5.877,1.679-11.377,3.514-16.692,5.29-5.6,1.872-10.915,3.64-15.991,5s-10.076,2.817-14.9,4.228c-12.649,3.7-24.593,7.2-38,8.837l-.647.08c-10.315,1.259-23.149,2.8-37.452-7.191-16.318-11.4-29.009-32.078-40.21-50.319q-1.44-2.347-2.842-4.618c-7.04-11.335-13.963-22.88-20.659-34.047l-.42-.672c-3.669-6.117-7.4-12.406-11.008-18.472-8.082-13.623-16.44-27.708-25.067-41.486-15.277-24.547-33.359-52.666-54.681-75.781-25.361-27.49-49.774-42.041-74.627-44.5a102.053,102.053,0,0,0-23.543.5c-20.151,2.645-37.968,11.423-51.247,18.77-32.779,18.136-63.229,45.592-92.675,72.142l-.281-.315c29.463-26.562,59.933-54.035,92.75-72.209,13.312-7.364,31.184-16.163,51.4-18.816a102.434,102.434,0,0,1,23.64-.5c13.2,1.3,26.617,6.184,39.883,14.526,11.507,7.271,23.3,17.393,35.017,30.105,21.36,23.145,39.463,51.285,54.744,75.844,8.631,13.778,16.99,27.868,25.072,41.495,3.61,6.079,7.338,12.368,11.008,18.472l.42.672c6.717,11.163,13.615,22.7,20.655,34.039.936,1.511,1.885,3.056,2.842,4.618,11.18,18.208,23.846,38.842,40.1,50.189,14.169,9.9,26.915,8.359,37.158,7.137l.647-.08c13.367-1.637,25.3-5.13,37.931-8.816,4.819-1.411,9.8-2.872,14.9-4.228s10.37-3.119,15.953-4.992c5.315-1.776,10.815-3.615,16.709-5.294,14.232-4.055,29.387-10.16,45.445-16.625,21.721-8.745,46.34-18.657,72.629-24.845a177.864,177.864,0,0,1,74.417-2.015c11.406,2.17,22.28,4.979,32.8,7.7,14.081,3.64,27.381,7.078,39.933,8.422,12.721,1.364,26.23,6.742,40.534,12.431C901.238,294.993,932.93,307.6,969.1,294.25c21.016-7.758,40.928-20.63,62.016-34.253,31.591-20.416,64.257-41.524,103.632-46.982,21.31-2.939,42.435-1.075,64.6,5.739,24.685,7.595,50.97,21.7,78.12,41.927,22.9,17.061,52.057,34.177,85.777,53.993l12.339,7.25c33.863,19.941,68.01,40.79,101.05,60.953l12.124,7.4c101,61.621,169.544,98.212,221.072,102.927Z" transform="translate(19.604 18.753)" fill="#0e0e0e"/>
        <path id="パス_4360" data-name="パス 4360" d="M1704.513,494.3c-51.638-.546-122.793-28.548-223.986-88.162-38.787-22.847-77.9-46.86-112.415-68.044-40.529-24.878-71.075-44.047-95.135-64.194-113.892-95.37-180.967-53.93-245.816-13.883-19.4,11.977-37.725,23.3-57.125,30.882a101.981,101.981,0,0,1-37.649,7.061c-20.433,0-39.329-5.617-56.764-10.8-14.752-4.387-28.686-8.531-41.81-8.816-13.976-.294-28.774-3.073-44.446-6.012-9.1-1.709-18.514-3.476-28.237-4.845-23.758-3.359-48.548-1.931-73.691,4.2-22.364,5.458-42.889,12.926-62.733,20.151-19.639,7.137-38.2,13.9-55.525,17.435-5.365,1.092-10.432,2.322-15.332,3.51-6.142,1.486-11.944,2.893-17.506,3.829-4.643.781-9.194,1.633-13.594,2.46-13.073,2.448-25.424,4.761-39.11,5.126l-1.15.029c-9.992.256-22.431.579-36.05-9.534-15.869-11.78-28.346-32.3-39.35-50.378q-1.457-2.385-2.867-4.7c-6.524-10.6-12.96-21.411-19.186-31.826l-1.641-2.75c-3.619-6.062-7.3-12.3-10.869-18.333-8.014-13.577-16.306-27.616-24.87-41.361-24.53-39.6-70.164-113.3-127.7-121a106.4,106.4,0,0,0-23.35-.453C176.3,45.62,158.385,53.462,145.048,60.1c-33.527,16.684-64.513,42.821-94.459,68.074l-.273-.319C80.3,102.569,111.307,76.422,144.88,59.722c13.371-6.654,31.331-14.513,51.717-16.251a106.432,106.432,0,0,1,23.438.453c24.635,3.291,48.775,18.224,73.792,45.643,21.281,23.321,39.131,51.218,54.19,75.567,8.564,13.745,16.856,27.788,24.874,41.365,3.564,6.033,7.25,12.271,10.869,18.333l1.641,2.75c6.222,10.432,12.662,21.218,19.186,31.822q1.411,2.313,2.863,4.7c10.987,18.052,23.438,38.548,39.245,50.282,13.5,10.025,25.344,9.723,35.789,9.45l1.146-.029c13.657-.365,25.987-2.674,39.043-5.122,4.4-.84,8.959-1.679,13.606-2.46,5.546-.932,11.335-2.334,17.473-3.825,4.908-1.188,9.975-2.414,15.349-3.51,17.309-3.531,35.844-10.277,55.466-17.418,19.853-7.229,40.391-14.694,62.78-20.151,25.189-6.15,50.038-7.557,73.846-4.2,9.736,1.369,19.152,3.136,28.258,4.849,15.651,2.939,30.433,5.71,44.375,6,13.178.277,27.141,4.429,41.923,8.816,27.62,8.212,58.93,17.519,94.136,3.749,19.37-7.557,37.679-18.892,57.062-30.852,31.957-19.731,65-40.147,104.338-43.661,21.251-1.906,42.309,1.222,64.362,9.563,24.87,9.408,50.261,25.118,77.62,48.031,24.039,20.126,54.576,39.287,95.089,64.157,34.509,21.184,73.624,45.193,112.406,68.04,101.126,59.568,172.235,87.566,223.763,88.111Z" transform="translate(21.125 18.069)" fill="#0e0e0e"/>
        <path id="パス_4361" data-name="パス 4361" d="M1687.58,495.426c-25.437,0-54.5-5.143-86.6-15.34-38.594-12.263-81.8-31.906-128.435-58.393-34.845-19.794-71.369-41.952-111.672-67.742-38.833-24.857-69.358-45.781-92.121-67.116-113.1-106-180.765-65.911-246.2-27.124-16.793,9.954-34.165,20.248-51.751,27.515-34.337,14.19-65.282,8.082-92.583,2.691-15.269-3.014-29.694-5.877-43.308-5-15.584.995-32.091-.978-49.564-3.065-7.464-.89-15.181-1.814-23.044-2.519-23.363-2.12-47.968.034-73.137,6.4-18.392,4.652-35.638,10.4-52.314,15.953-23.409,7.809-45.517,15.181-66.147,17.742-4.752.588-9.3,1.28-13.7,1.952-6.776,1.033-13.174,2.007-19.312,2.439-3.938.281-7.821.6-11.574.915-13.749,1.138-26.734,2.208-40.945,1.192l-1.62-.113c-10.181-.726-21.717-1.549-34.677-11.776-15.42-12.175-27.679-32.523-38.493-50.479q-1.461-2.431-2.884-4.786c-6.016-9.874-11.965-19.9-17.721-29.593l-2.876-4.845c-3.573-6.012-7.212-12.2-10.731-18.182C368.221,192.628,360,178.64,351.5,164.929c-24.114-39.156-68.993-112.037-126.05-121.747a110.782,110.782,0,0,0-23.153-1.4c-16,.621-32,4.832-51.885,13.644-34.27,15.193-67.217,41.142-96.281,64.01l-.26-.327c29.085-22.9,62.053-48.854,96.373-64.064C170.18,46.225,186.23,41.985,202.3,41.359a110.992,110.992,0,0,1,23.237,1.411c24.312,4.131,48.09,19.4,72.692,46.663,20.218,22.4,37.737,49.421,53.665,75.278,8.5,13.715,16.726,27.708,24.681,41.239,3.518,5.987,7.137,12.175,10.726,18.182l2.876,4.845c5.752,9.694,11.7,19.731,17.716,29.589q1.427,2.355,2.888,4.786c10.793,17.926,23.031,38.25,38.392,50.378,12.859,10.147,24.349,10.961,34.425,11.684l1.621.118c14.181,1.016,27.15-.059,40.878-1.2,3.778-.311,7.641-.634,11.583-.911,6.1-.42,12.49-1.406,19.257-2.439,4.4-.672,8.95-1.364,13.707-1.952,20.571-2.557,42.679-9.925,66.067-17.725,16.684-5.563,33.938-11.335,52.347-15.974,25.189-6.381,49.866-8.535,73.275-6.411,7.872.714,15.588,1.637,23.056,2.519,17.452,2.1,33.942,4.055,49.488,3.06,13.669-.869,28.128,1.986,43.413,5,27.242,5.378,58.12,11.474,92.36-2.67,17.557-7.254,34.912-17.54,51.7-27.486,32.439-19.223,65.987-39.106,105.341-40.748,21.243-.886,42.242,3.51,64.211,13.434,24.723,11.18,49.958,29,77.146,54.484,22.742,21.31,53.25,42.225,92.062,67.07,40.277,25.785,76.793,47.939,111.634,67.729,92.406,52.477,168.612,77.146,226.483,73.3l.03.42Q1693.554,495.426,1687.58,495.426Z" transform="translate(22.617 17.321)" fill="#0e0e0e"/>
        <path id="パス_4362" data-name="パス 4362" d="M1663.955,497.87c-21.91,0-45.487-2.981-70.441-8.921-40.613-9.656-84.006-27.045-128.972-51.638-36.331-19.866-73.64-42.553-110.9-67.431-42.9-28.644-69.543-49.593-89.1-70.042-50.349-52.654-96.319-78.351-140.53-78.569h-.583c-39.1,0-73.048,19.421-105.9,38.2C1002.62,268,987.2,276.815,971.6,283.612c-33.309,14.5-63.741,11.516-90.61,8.862-15.831-1.553-30.789-3.023-44.95-.94-17.49,2.574-36.016,1.57-55.626.512-5.5-.3-11.18-.6-16.9-.84-22.909-.919-47.33,1.973-72.587,8.594-14.769,3.871-28.879,8.783-42.528,13.531-24.408,8.5-47.6,16.566-69.392,16.566q-3.413,0-6.772-.273c-6.2-.508-12.082.134-17.775.76-5.365.584-10.437,1.138-15.349.688-7.284-.668-14.375-.84-21.23-1.016-10.5-.264-20.4-.512-31.092-2.355l-2.066-.353c-9.845-1.679-20.991-3.585-33.329-13.921-14.967-12.553-27.007-32.746-37.628-50.55Q412.3,260.4,410.861,258c-5.487-9.1-10.915-18.329-16.2-27.255q-2.078-3.526-4.156-7.045c-3.522-5.953-7.112-12.091-10.584-18.023-7.888-13.485-16.05-27.427-24.484-41.109C331.7,125.882,287.577,53.841,230.985,42.107a104.794,104.794,0,0,0-22.96-2.364c-16.621.235-33.7,3.862-52.209,11.087-35,13.682-68.51,38.262-98.086,59.95l-.248-.336c29.593-21.709,63.124-46.31,98.2-60,18.556-7.246,35.685-10.882,52.351-11.117A105.105,105.105,0,0,1,231.074,41.7c23.984,4.975,47.4,20.571,71.592,47.687,20.126,22.561,37.414,49.371,53.1,74.98,8.438,13.686,16.6,27.632,24.488,41.121,3.472,5.932,7.061,12.066,10.584,18.023l4.16,7.04c5.264,8.925,10.71,18.153,16.2,27.25l2.914,4.87c10.6,17.784,22.624,37.939,37.536,50.45,12.238,10.26,23.338,12.154,33.132,13.825.7.118,1.385.235,2.066.357,10.659,1.835,20.571,2.1,31.033,2.347,6.86.172,13.955.348,21.255,1.016,4.87.449,9.92-.1,15.269-.689a93.032,93.032,0,0,1,17.855-.756c23.657,1.94,49.077-6.906,75.987-16.272,13.657-4.752,27.775-9.656,42.561-13.543,25.3-6.629,49.761-9.522,72.708-8.606,5.718.231,11.406.537,16.9.84,19.593,1.058,38.094,2.057,55.546-.508,14.207-2.1,29.19-.617,45.051.94,26.818,2.632,57.209,5.617,90.408-8.85,15.58-6.788,30.983-15.6,45.882-24.119,32.893-18.808,66.9-38.258,106.109-38.258H1124c21.264.1,42.242,5.789,64.14,17.376,24.593,13.014,49.681,33.073,76.692,61.319,19.538,20.428,46.18,41.361,89.031,69.984,37.25,24.874,74.551,47.553,110.866,67.419,108.981,59.614,184.791,64.7,229.2,58.493l.059.42A217.141,217.141,0,0,1,1663.955,497.87Z" transform="translate(24.134 16.515)" fill="#0e0e0e"/>
        <path id="パス_4363" data-name="パス 4363" d="M1635.995,502.033a314.585,314.585,0,0,1-49.958-4.131c-42.209-6.8-85.782-21.9-129.505-44.887a1041.588,1041.588,0,0,1-110.139-67.129c-40.3-28.082-66.856-50.588-86.063-72.969-50.03-58.216-95.878-87.566-140.148-89.782-39.517-1.961-74.438,17.448-108.2,36.222-12.867,7.137-26.176,14.555-39.61,20.714-32.2,14.769-62.087,14.778-88.451,14.786-16.47,0-32.024,0-46.793,3.392-21.44,4.912-45.143,6.528-72.452,4.95-23.375-1.356-48.43,4.383-72.024,10.785-12.246,3.321-24.127,7.242-35.617,11.033-24.627,8.128-48.12,15.882-70.261,15.882a84.334,84.334,0,0,1-13.014-.974,117.489,117.489,0,0,0-18.892-.97,120.7,120.7,0,0,1-14.391-.525l-3.644-.441c-16.469-1.986-32.028-3.862-48.506-8.4l-2.473-.676c-9.517-2.594-20.307-5.533-32.02-15.978C439.32,300,427.5,279.987,417.073,262.325l-2.939-4.983c-4.954-8.291-9.883-16.7-14.652-24.824q-2.737-4.677-5.458-9.333c-3.472-5.877-7.015-11.977-10.437-17.859-7.83-13.434-15.924-27.339-24.295-41-34.631-56.848-73.477-111.1-122.8-123.229a122.212,122.212,0,0,0-22.758-3.308c-16.083-.873-32.771,1.835-52.519,8.527C128.091,57.542,97.663,77.387,61.323,102.2l-.239-.344c36.369-24.815,66.822-44.694,100-55.932,19.8-6.717,36.524-9.425,52.679-8.547a122.375,122.375,0,0,1,22.834,3.321c23.657,5.814,46.722,21.768,70.492,48.7,20.051,22.742,37.112,49.341,52.561,74.7,8.4,13.657,16.469,27.561,24.3,41,3.426,5.877,6.965,11.961,10.437,17.859l5.458,9.328c4.765,8.128,9.694,16.532,14.647,24.824l2.939,4.983c10.411,17.632,22.217,37.62,36.675,50.513,11.642,10.378,22.381,13.3,31.852,15.886l2.477.68c16.448,4.542,31.986,6.415,48.443,8.4l3.644.441a116.615,116.615,0,0,0,14.341.525,117.279,117.279,0,0,1,18.938.978c25.781,4.013,53.611-5.172,83.078-14.9,11.495-3.778,23.38-7.716,35.638-11.041,23.627-6.411,48.724-12.175,72.154-10.8,27.288,1.579,50.937-.038,72.339-4.937,14.815-3.392,30.391-3.4,46.885-3.4,26.323,0,56.159,0,88.275-14.748,13.434-6.155,26.721-13.548,39.585-20.7,16.923-9.408,34.425-19.14,52.259-26.058,20-7.754,38.367-11.1,56.163-10.214,21.335,1.058,42.322,8.044,64.165,21.356,24.484,14.916,49.421,37.364,76.247,68.573,19.2,22.351,45.727,44.832,86.008,72.9a1039.808,1039.808,0,0,0,110.139,67.1c80.97,42.574,163.309,58.09,231.9,43.686l.088.42A256.181,256.181,0,0,1,1635.995,502.033Z" transform="translate(25.646 15.627)" fill="#0e0e0e"/>
        <path id="パス_4364" data-name="パス 4364" d="M1605.6,508.13q-13.434,0-27.057-1.176c-43.569-3.778-87.322-16.6-130.035-38.149a797.527,797.527,0,0,1-109.38-66.827c-38.014-27.645-64.408-51.759-83.065-75.891-50.328-65.105-94.753-97.352-139.8-101.483-39.816-3.648-74.077,15.05-110.349,34.845-10.655,5.814-21.671,11.826-32.746,17.171-31.016,14.941-58.968,17.687-86,20.344-17.213,1.679-33.451,3.283-48.913,8.073-22.922,7.091-46.936,8.61-72.36,10.214-21.931,1.385-45.315,5.63-71.487,12.981-6.52,1.83-12.981,3.711-19.228,5.529-30.319,8.816-59.194,17.213-86.613,17.213a121.4,121.4,0,0,1-13.224-.7q-3.249-.353-6.4-.676c-9.551-1-18.569-1.94-27.041-3.778-18.921-4.093-34.761-7.75-51.961-14.328l-2.834-1.075c-9.2-3.472-19.627-7.406-30.76-17.96-14.051-13.317-25.651-33.166-35.886-50.668q-1.511-2.574-2.985-5.092c-4.4-7.443-8.791-14.983-13.04-22.276Q401,228.548,397.58,222.67c-3.413-5.831-6.9-11.847-10.269-17.666-7.771-13.4-15.806-27.288-24.123-40.907C329.183,107.967,290.941,54.1,242.02,40.146a129.057,129.057,0,0,0-22.561-4.261c-16.243-1.65-33.036.243-52.838,5.966-33.745,9.74-66.021,29.228-101.7,51.814l-.227-.357c35.706-22.6,68.011-42.1,101.806-51.86,19.857-5.735,36.7-7.636,53-5.982a129.485,129.485,0,0,1,22.632,4.278c23.346,6.658,46.046,22.922,69.392,49.719,20.025,22.985,37.536,50.517,52.02,74.417,8.321,13.64,16.373,27.507,24.127,40.915,3.359,5.819,6.856,11.835,10.273,17.666q3.422,5.844,6.851,11.755c4.249,7.288,8.64,14.828,13.04,22.25q1.478,2.519,2.985,5.1c10.223,17.481,21.805,37.3,35.81,50.571,11.075,10.5,21.461,14.417,30.622,17.872.957.361,1.906.718,2.838,1.079,17.171,6.566,32.993,10.218,51.9,14.312,8.451,1.826,17.46,2.767,26.994,3.778,2.1.223,4.24.445,6.406.68,31.234,3.4,64.48-6.276,99.673-16.52,6.247-1.818,12.708-3.7,19.232-5.533,26.2-7.355,49.614-11.6,71.575-12.993,25.395-1.6,49.387-3.119,72.259-10.2,15.5-4.8,31.772-6.4,49-8.09,26.994-2.653,54.912-5.395,85.861-20.307,11.075-5.336,22.087-11.335,32.746-17.158,17.439-9.517,35.475-19.358,53.665-26.108,20.37-7.557,38.989-10.432,56.927-8.787,21.457,1.965,42.49,10.265,64.3,25.37,24.379,16.923,49.148,41.868,75.769,76.294,18.631,24.1,45,48.191,82.981,75.811A796.918,796.918,0,0,0,1448.7,468.423c99.262,50.093,182.373,43.355,234.611,28.879l.113.42A290.731,290.731,0,0,1,1605.6,508.13Z" transform="translate(27.163 14.651)" fill="#0e0e0e"/>
        <path id="パス_4365" data-name="パス 4365" d="M1575.213,516.127c-40.773,0-86.609-8.22-134.7-31.486a642.165,642.165,0,0,1-108.624-66.52c-35.928-27.288-62.112-53.061-80.047-78.817-49.9-71.638-94.262-107.767-139.627-113.662-40.227-5.231-75.567,13.921-112.986,34.2-8.241,4.467-16.763,9.085-25.294,13.4-29.7,15-56.856,20.311-83.124,25.445-18.09,3.535-35.172,6.872-51.474,13.207-24.068,9.358-49.925,12.9-72.272,15.487-20.907,2.422-44.11,7.385-70.949,15.172l-8.216,2.4c-40.823,11.935-76.075,22.25-111.05,15.785l-2.7-.5c-10.936-2.011-21.264-3.913-30.886-6.9-16.234-5.038-33.741-10.915-51.776-19.807-1.033-.512-2.1-1.016-3.136-1.532-8.9-4.316-18.976-9.211-29.564-19.883-13.581-13.7-24.962-33.363-35-50.71q-1.528-2.641-3.027-5.218c-3.829-6.541-7.662-13.17-11.369-19.576q-4.156-7.187-8.291-14.3c-3.359-5.764-6.788-11.717-10.109-17.473-7.712-13.371-15.689-27.2-23.93-40.819C333.642,108.6,296.039,55.142,247.512,39.331a135.971,135.971,0,0,0-22.368-5.214c-16.4-2.443-33.292-1.364-53.157,3.4-34.425,8.254-67.234,26.507-103.5,47.75l-.21-.365c36.3-21.272,69.148-39.53,103.615-47.8,19.92-4.778,36.864-5.877,53.317-3.409a136.441,136.441,0,0,1,22.435,5.231c23.023,7.494,45.366,24.1,68.292,50.735,19.941,23.17,37.213,50.479,51.478,74.14,8.258,13.619,16.234,27.452,23.93,40.827,3.317,5.756,6.746,11.7,10.109,17.473q4.139,7.108,8.287,14.3c3.711,6.406,7.557,13.014,11.373,19.576q1.5,2.578,3.023,5.218c10.029,17.326,21.411,36.944,34.941,50.622,10.537,10.626,20.571,15.5,29.45,19.8l3.136,1.532c18.01,8.858,35.5,14.744,51.713,19.782,9.6,2.985,19.92,4.883,30.84,6.889l2.7.5c34.874,6.436,70.084-3.858,110.857-15.777l8.216-2.4c26.847-7.8,50.076-12.762,71-15.185,22.322-2.582,48.149-6.121,72.171-15.462,16.335-6.348,33.438-9.689,51.545-13.228,26.234-5.13,53.367-10.428,83.011-25.407,8.527-4.312,17.045-8.93,25.281-13.392,73.829-40.009,143.578-77.8,253.151,79.606,17.909,25.718,44.081,51.47,79.959,78.724A641.71,641.71,0,0,0,1440.7,484.292c95.265,46.054,181.639,33.073,237.328,14.072l.134.42A320.985,320.985,0,0,1,1575.213,516.127Z" transform="translate(28.665 13.614)" fill="#0e0e0e"/>
        <path id="パス_4366" data-name="パス 4366" d="M1547.259,525.769A271.3,271.3,0,0,1,1432.506,500.6a534.622,534.622,0,0,1-107.864-66.214c-34.488-27.343-59.677-54.081-77.028-81.747-49.4-78.729-93.762-118.888-139.606-126.386-40.773-6.671-77.389,13.3-116.155,34.425-5.6,3.052-11.381,6.209-17.141,9.257-28.128,14.891-54.257,22.515-79.522,29.883-19.228,5.609-37.364,10.915-54.744,19.009-25.475,11.889-51.961,17.339-72.209,20.756-19.841,3.359-41.562,8.711-70.387,17.368C667.177,366.163,637.756,375,608.961,375a121.18,121.18,0,0,1-30.575-3.749c-12.876-3.338-23.535-6.217-33.741-10.349-20.382-8.241-36.293-16.041-51.591-25.286-1.1-.672-2.225-1.339-3.359-2.015-8.606-5.139-18.363-10.966-28.443-21.78-13.111-14.068-24.27-33.543-34.114-50.727-1.037-1.805-2.061-3.6-3.081-5.361-3.237-5.592-6.486-11.255-9.631-16.73-3.212-5.592-6.537-11.377-9.794-17.007-3.3-5.7-6.679-11.583-9.946-17.276-7.657-13.342-15.571-27.137-23.774-40.722C338.119,109.322,301.138,56.278,253,38.574a144.367,144.367,0,0,0-22.171-6.163c-16.558-3.258-33.548-2.989-53.476.84C142.3,40,108.932,57.013,72.068,76.942l-.2-.369c36.915-19.946,70.29-36.994,105.425-43.745,19.983-3.841,37.028-4.11,53.636-.84a144.114,144.114,0,0,1,22.25,6.188c22.691,8.346,44.677,25.273,67.192,51.738,19.857,23.359,36.889,50.445,50.932,73.863,8.2,13.6,16.121,27.4,23.779,40.743,3.266,5.693,6.642,11.579,9.945,17.276,3.258,5.63,6.579,11.415,9.794,17.007,3.144,5.458,6.394,11.138,9.631,16.73l3.081,5.365c9.832,17.162,20.991,36.612,34.056,50.647,10.042,10.772,19.769,16.579,28.355,21.7q1.679,1.012,3.359,2.019c15.277,9.236,31.172,17.019,51.529,25.256,10.185,4.118,20.831,6.994,33.69,10.328,38.451,9.967,77.692-1.818,119.228-14.274,28.854-8.665,50.575-14.026,70.433-17.38,20.2-3.413,46.65-8.854,72.079-20.722,17.389-8.119,35.567-13.434,54.807-19.035,25.244-7.364,51.344-14.979,79.442-29.849,5.76-3.048,11.545-6.2,17.137-9.236,38.829-21.176,75.509-41.176,116.424-34.484,21.923,3.585,43.178,14.522,64.988,33.434,24.295,21.066,48.8,51.533,74.908,93.145,17.33,27.624,42.494,54.329,76.932,81.638a534.1,534.1,0,0,0,107.78,66.164c91.659,42.364,181.126,22.985,240.035-.735l.155.39c-36.91,14.862-73.682,23.417-109.3,25.433Q1555.387,525.769,1547.259,525.769Z" transform="translate(30.175 12.482)" fill="#0e0e0e"/>
        <path id="パス_4367" data-name="パス 4367" d="M1521.658,536.786a238.6,238.6,0,0,1-97.167-20.151,455.288,455.288,0,0,1-107.1-65.911c-32.641-27.053-57.54-55.542-74.005-84.669-25.785-45.6-50.122-79.073-74.392-102.331-21.8-20.869-43.182-33.073-65.387-37.318-41.486-7.926-79.585,13.3-119.917,35.764q-4.085,2.275-8.195,4.555c-26.138,14.471-50.8,24.005-74.618,33.229-20.831,8.061-40.5,15.672-59.329,25.9-20.894,11.356-44.5,19.87-72.1,26.029-22.3,4.971-44.82,11.8-69.837,19.564-42.737,13.266-81.243,23.2-119.648,10.411-13.014-4.324-23.737-8.241-33.888-13.3a362.792,362.792,0,0,1-51.4-30.764q-1.713-1.234-3.464-2.477c-8.757-6.243-17.817-12.7-27.444-23.695-12.662-14.425-23.577-33.707-33.233-50.718q-1.579-2.788-3.136-5.521-3.942-6.889-7.838-13.732c-3.724-6.541-7.557-13.3-11.335-19.866-3.241-5.621-6.562-11.432-9.769-17.053-7.6-13.317-15.466-27.087-23.615-40.68-30.647-51.348-68.4-106.5-116.29-126.168a152.556,152.556,0,0,0-21.969-7.137c-16.482-4.03-34.077-4.593-53.8-1.717C147.1,34.242,111.753,50.749,75.67,68.659l-.189-.374c36.1-17.93,71.5-34.45,107.238-39.664,19.773-2.884,37.423-2.322,53.955,1.725a152.91,152.91,0,0,1,22.032,7.137c22.406,9.2,44.026,26.449,66.1,52.754,19.769,23.552,36.566,50.412,50.378,73.586,8.153,13.594,16.016,27.368,23.619,40.689,3.207,5.617,6.524,11.427,9.765,17.053,3.778,6.562,7.636,13.325,11.36,19.866q3.9,6.839,7.834,13.728,1.562,2.733,3.14,5.525c10.109,17.821,20.571,36.256,33.166,50.659,9.593,10.957,18.632,17.4,27.372,23.632q1.751,1.259,3.463,2.477a361.037,361.037,0,0,0,51.344,30.731c10.13,5.038,20.852,8.95,33.837,13.27,38.3,12.754,76.739,2.83,119.409-10.411,25.021-7.767,47.553-14.6,69.866-19.572,27.582-6.15,51.13-14.652,71.99-25.987,18.85-10.244,38.535-17.859,59.379-25.924,23.82-9.236,48.451-18.749,74.564-33.2l8.195-4.555c40.4-22.511,78.565-43.766,120.2-35.81,22.284,4.257,43.741,16.5,65.6,37.427,24.3,23.271,48.661,56.768,74.467,102.415,16.44,29.081,41.31,57.515,73.888,84.551a455.873,455.873,0,0,0,107.007,65.848c70.949,31.281,152.625,26.029,242.751-15.533l.176.382C1616.054,524.876,1567.263,536.782,1521.658,536.786Z" transform="translate(31.69 11.26)" fill="#0e0e0e"/>
        <path id="パス_4368" data-name="パス 4368" d="M1499.081,548.933c-29.282,0-56.919-5.4-82.587-16.163a395.882,395.882,0,0,1-106.348-65.605c-31.344-27.166-55.227-56.638-70.983-87.591-24.081-47.3-46.995-82.624-70.055-107.986-20.911-23-41.5-37.263-62.973-43.615-45.118-13.354-88.208,11.566-129.883,35.664-23.09,13.35-45.24,23.976-66.663,34.249-23.51,11.285-45.76,21.94-66.965,35.122A279.366,279.366,0,0,1,770.612,364.3c-16.826,4.673-33.388,10.076-50.924,15.806-6,1.956-12.2,3.98-18.359,5.953C676.98,393.865,651.649,401,626.04,401a117.367,117.367,0,0,1-44.572-8.4c-9.685-3.93-22.309-9.328-34.039-16.247a371.428,371.428,0,0,1-51.218-36.243c-1.125-.945-2.259-1.885-3.4-2.838-8.543-7.112-17.376-14.467-26.612-25.714-12.149-14.79-22.393-33.04-32.3-50.685q-1.625-2.888-3.22-5.731-3-5.3-5.978-10.575c-4.257-7.557-8.661-15.336-12.981-22.88-3.182-5.55-6.444-11.289-9.593-16.835-7.557-13.291-15.357-27.036-23.455-40.622-30-50.63-67.112-105.286-114.631-126.919a161.244,161.244,0,0,0-21.776-8.073c-16.621-4.87-34.32-6.272-54.115-4.282C151.826,28.619,115.9,43.854,79.235,60.525l-.176-.382c36.7-16.671,72.662-31.936,109.048-35.6,19.849-2,37.6-.592,54.278,4.295a161.7,161.7,0,0,1,21.831,8.094c22.1,10.076,43.355,27.645,65,53.766,19.794,23.883,37.032,51.722,49.853,73.3,8.1,13.59,15.907,27.334,23.459,40.626,3.149,5.55,6.406,11.285,9.589,16.839,4.324,7.557,8.728,15.34,12.985,22.88l5.978,10.575q1.6,2.834,3.22,5.731c9.9,17.632,20.151,35.865,32.259,50.626,9.211,11.213,18.052,18.556,26.558,25.655,1.142.953,2.28,1.9,3.4,2.842a371.24,371.24,0,0,0,51.159,36.2c11.7,6.906,24.307,12.292,34.005,16.217,40.4,16.373,81.226,5.76,119.577-6.537,6.163-1.977,12.359-4,18.354-5.957,17.54-5.726,34.106-11.134,50.945-15.806a279.142,279.142,0,0,0,71.869-31.264c21.234-13.195,43.468-23.854,67-35.143,21.411-10.269,43.565-20.89,66.634-34.232,21.05-12.175,42.821-24.769,64.791-32.326,24.19-8.346,44.975-9.412,65.42-3.359,21.524,6.373,42.179,20.68,63.145,43.737,23.09,25.386,46.021,60.739,70.11,108.074,15.735,30.911,39.58,60.336,70.886,87.469a394.934,394.934,0,0,0,106.235,65.534c69.484,29.144,149.779,19.215,245.468-30.349l.193.374c-41.037,21.255-78.237,34.883-113.725,41.663A263.7,263.7,0,0,1,1499.081,548.933Z" transform="translate(33.193 9.94)" fill="#0e0e0e"/>
        <path id="パス_4369" data-name="パス 4369" d="M1478.344,562h-3.166a187.364,187.364,0,0,1-66.688-12.981,348.086,348.086,0,0,1-105.589-65.3c-30.1-27.288-52.964-57.742-67.964-90.517-23.774-51.936-46.625-90.681-69.858-118.389-21.071-25.156-42.024-40.685-64.06-47.486-41.982-12.956-82.6,8.375-123.964,33.338-17.385,10.5-34.425,20.151-50.9,29.509-29.01,16.465-56.407,32.015-82.41,50.093-23.367,16.155-47.565,28.455-71.923,36.566-11.066,3.686-22.351,7.712-33.262,11.608-11.562,4.123-23.51,8.4-35.47,12.347-25.021,8.283-43.875,12.464-61.142,13.552-21.436,1.356-40.722-2.217-58.917-10.915a253.889,253.889,0,0,1-34.186-19.194,390.428,390.428,0,0,1-51.025-41.722l-3.065-2.939c-8.4-8.048-17.108-16.373-26.058-27.989-11.65-15.113-21.671-33.166-31.36-50.6L434.012,255,430,247.834c-4.824-8.627-9.811-17.544-14.715-26.146-3.115-5.458-6.3-11.121-9.4-16.587-7.5-13.275-15.256-27-23.308-40.588C353.151,114.655,316.707,60.5,269.549,36.887a173.921,173.921,0,0,0-21.579-9.026c-16.755-5.722-34.564-7.977-54.434-6.839-36.944,2.1-73.468,16.087-110.723,31.486l-.16-.386C119.946,36.7,156.487,22.685,193.511,20.594c19.929-1.125,37.784,1.121,54.576,6.864a174.085,174.085,0,0,1,21.629,9.047c21.793,10.915,42.7,28.837,63.909,54.774,19.7,24.089,36.692,51.684,49.291,73.048,8.052,13.59,15.81,27.318,23.313,40.6,3.09,5.458,6.3,11.121,9.4,16.587,4.9,8.6,9.891,17.519,14.719,26.146q2,3.577,4.009,7.171,1.658,2.96,3.325,5.978c9.685,17.427,19.694,35.445,31.327,50.55,8.93,11.591,17.632,19.9,26.029,27.943l3.065,2.939a390.326,390.326,0,0,0,50.974,41.68,253.936,253.936,0,0,0,34.127,19.16c37.964,18.128,75.328,12.045,119.749-2.662,11.948-3.955,23.9-8.22,35.458-12.343,10.915-3.9,22.2-7.926,33.271-11.612,24.324-8.1,48.485-20.382,71.818-36.524,26.029-18.09,53.426-33.644,82.44-50.114,16.478-9.349,33.514-19.018,50.89-29.5,23.178-13.984,42.607-24.622,62.1-31.067,22.624-7.485,42.969-8.241,62.2-2.3,22.116,6.822,43.136,22.4,64.257,47.616,23.258,27.767,46.13,66.524,69.921,118.494,14.979,32.746,37.809,63.136,67.864,90.383,30.328,27.5,65.811,49.442,105.463,65.223,89.493,35.609,184.5-8.715,248.184-45.156l.206.365c-42.868,24.53-80.79,40.819-115.937,49.8C1519.3,559.179,1498.206,562,1478.344,562Z" transform="translate(34.702 8.531)" fill="#0e0e0e"/>
        <path id="パス_4370" data-name="パス 4370" d="M1459.9,575.779a167.893,167.893,0,0,1-59.417-10.437c-39.975-15.042-75.248-36.91-104.833-65-28.883-27.418-50.735-58.854-64.942-93.439-23.283-56.675-45.949-98.888-69.3-129.073-21.184-27.381-42.477-44.215-65.11-51.457-37.742-12.082-74.656,3.778-118.473,31.36-46.6,29.324-91.865,58.258-132.99,89.841-24.517,18.753-48.7,32.826-71.831,41.835-6.406,2.49-12.914,5.08-19.207,7.586-15.953,6.356-32.486,12.93-48.976,18.564-24.081,8.228-43.46,12.313-60.987,12.851a112.762,112.762,0,0,1-59.266-14.1,259.937,259.937,0,0,1-34.333-22.141,407.15,407.15,0,0,1-50.84-47.2l-2.225-2.418c-8.443-9.165-17.171-18.644-26.029-30.894-11.138-15.437-20.92-33.229-30.378-50.437l-3.472-6.3-1.944-3.51c-5.4-9.807-11.029-19.958-16.528-29.673-3.048-5.374-6.175-10.94-9.2-16.318-7.456-13.266-15.164-26.982-23.174-40.575-28.812-49.081-64.564-102.713-111.4-128.385a183.213,183.213,0,0,0-21.381-9.979c-16.881-6.6-34.786-9.656-54.753-9.4-37.557.5-76.184,13.829-112.511,27.435l-.147-.395c36.377-13.619,75.047-26.957,112.667-27.46,20.017-.264,37.981,2.817,54.916,9.433a183.318,183.318,0,0,1,21.411,10c46.906,25.722,82.7,79.413,111.558,128.54,8.01,13.6,15.722,27.318,23.178,40.584,3.023,5.378,6.15,10.94,9.2,16.318,5.516,9.731,11.125,19.866,16.553,29.669l1.944,3.51q1.725,3.149,3.472,6.3c9.45,17.213,19.228,34.975,30.349,50.378,8.816,12.229,17.544,21.7,25.978,30.857l2.221,2.414a408.177,408.177,0,0,0,50.8,47.15,259.808,259.808,0,0,0,34.278,22.1c41.667,22.851,82.259,14.089,119.917,1.222,16.482-5.634,32.989-12.208,48.955-18.56,6.3-2.519,12.8-5.1,19.207-7.59,23.09-8.992,47.242-23.044,71.73-41.772,41.142-31.6,86.4-60.538,133.024-89.866,43.913-27.62,80.924-43.535,118.808-31.4,22.712,7.267,44.081,24.148,65.311,51.6,23.371,30.227,46.058,72.469,69.35,129.17,14.186,34.53,36,65.912,64.845,93.3,29.547,28.044,64.77,49.883,104.69,64.908,86.609,32.586,184.674-18.615,250.9-59.963l.223.357c-28.548,17.817-71.839,43.212-118.154,57.935-23.367,7.431-45.76,11.591-66.6,12.355Q1463.433,575.779,1459.9,575.779Z" transform="translate(36.217 6.994)" fill="#0e0e0e"/>
        <path id="パス_4371" data-name="パス 4371" d="M1442.978,590.118a150.423,150.423,0,0,1-50.487-8.346c-40.416-14.333-75.433-36.1-104.077-64.694a261.83,261.83,0,0,1-61.927-96.34c-22.6-61.47-44.975-107.251-68.393-139.959-21.251-29.685-42.872-47.859-66.1-55.525-39.849-13.174-79.673,7.62-113.351,29.694C937.387,281.971,893.99,314.7,845.975,355.028c-25.609,21.449-49.757,37.292-71.743,47.1l-8.254,3.694c-19.391,8.686-39.463,17.67-59.375,24.656-23.4,8.3-42.658,12.175-60.559,12.175h-.3c-21.356-.046-40.857-5.71-59.614-17.309a267.28,267.28,0,0,1-34.48-25.088C534.638,385.561,518.064,368.349,501,347.58l-.315-.382c-8.816-10.747-17.951-21.86-27.028-35.307-10.592-15.7-20.109-33.2-29.316-50.118q-1.856-3.417-3.7-6.788c-5.953-10.877-12.112-22.124-18.258-33.036-2.981-5.286-6.041-10.76-9-16.05-7.414-13.258-15.076-26.965-23.04-40.567-28.2-48.292-63.283-101.382-109.778-129.149a192.751,192.751,0,0,0-21.184-10.915c-16.9-7.431-34.912-11.335-55.076-11.965-38.38-1.05-77.524,10.97-114.329,23.359l-.134-.42c36.839-12.376,76.021-24.408,114.476-23.371,20.218.642,38.283,4.547,55.231,12a192.838,192.838,0,0,1,21.23,10.953C327.357,63.64,362.483,116.789,390.7,165.1c7.977,13.6,15.63,27.313,23.04,40.571,2.939,5.294,6.016,10.764,9,16.05,6.146,10.915,12.3,22.162,18.262,33.04q1.839,3.359,3.7,6.788c9.2,16.914,18.715,34.4,29.295,50.084,9.064,13.434,18.182,24.534,27,35.265l.315.382c17.057,20.747,33.586,37.964,50.6,52.628a266.936,266.936,0,0,0,34.425,25.046c43.2,26.709,84.946,17.565,120.068,5.1,19.912-6.982,39.958-15.953,59.341-24.648q4.127-1.843,8.254-3.69c21.948-9.79,46.054-25.609,71.646-47.041,48.04-40.332,91.449-73.078,132.713-100.11,22.368-14.652,40.521-23.867,57.121-29.005,20.453-6.327,38.972-6.566,56.617-.735,23.317,7.708,45.009,25.92,66.31,55.676,23.438,32.746,45.827,78.556,68.43,140.06a261.426,261.426,0,0,0,61.823,96.21c28.6,28.548,63.56,50.286,103.918,64.593,82.939,29.387,179.107-24.509,253.621-74.765l.235.348c-32.276,21.768-75.126,48.955-120.375,66.1-23.77,9.005-46.4,14.509-67.272,16.373Q1450.782,590.122,1442.978,590.118Z" transform="translate(37.721 5.38)" fill="#0e0e0e"/>
        <path id="パス_4372" data-name="パス 4372" d="M1427.308,604.935a134.974,134.974,0,0,1-42.822-6.654c-40.617-13.51-75.378-35.172-103.317-64.383-26.511-27.565-46.327-60.97-58.9-99.291-21.755-66.331-43.724-115.715-67.171-151.025-21.281-32.049-43.212-51.57-67.053-59.677-30.97-10.529-64.476-1.805-108.641,28.3-44.442,30.294-87.263,69.27-128.67,106.965l-3.686,3.359c-27.061,24.58-50.5,41.709-71.65,52.368-20.684,10.416-44.123,22.225-67.079,30.546-23.115,8.447-42.4,12.087-60.7,11.461-21.356-.735-40.962-7.435-59.942-20.483a281.654,281.654,0,0,1-34.627-28.035c-16.889-16.088-33.4-35.109-50.462-58.153-8.006-10.81-17.309-23.56-26.449-38.069-9.988-15.844-19.194-32.952-28.1-49.5q-2.045-3.808-4.081-7.557c-5.772-10.672-11.906-21.961-18.031-32.922-2.909-5.189-5.877-10.563-8.787-15.76-7.368-13.254-14.987-26.957-22.914-40.575C366.6,118.319,332.161,65.712,286.078,35.989A199.938,199.938,0,0,0,265.087,24.1,147.337,147.337,0,0,0,209.7,9.578C170.775,6.916,130.98,17.66,93.558,28.89l-.118-.4C130.9,17.248,170.737,6.5,209.73,9.179c20.3,1.444,38.468,6.209,55.55,14.568a200.024,200.024,0,0,1,21.033,11.906c46.151,29.757,80.63,82.415,108.271,129.993,7.926,13.619,15.533,27.326,22.914,40.58,2.893,5.2,5.877,10.571,8.787,15.764,6.138,10.949,12.271,22.25,18.027,32.9q2.036,3.778,4.081,7.557c8.9,16.537,18.1,33.636,28.086,49.471,9.139,14.5,18.438,27.238,26.449,38.044,17.053,23.023,33.548,42.028,50.416,58.1a281.221,281.221,0,0,0,34.576,27.993c34.761,23.892,71.848,26.663,120.261,8.972,22.93-8.312,46.361-20.113,67.032-30.529,21.117-10.638,44.526-27.746,71.558-52.3l3.686-3.359c41.419-37.7,84.245-76.692,128.716-107,20.89-14.24,38.308-23.191,54.824-28.174,19.5-5.877,37.225-5.945,54.186-.176,23.93,8.14,45.937,27.708,67.268,59.845,23.468,35.34,45.458,84.778,67.221,151.135,12.552,38.258,32.326,71.608,58.8,99.128,27.893,29.165,62.6,50.8,103.149,64.278,79.887,26.579,174.409-30.365,256.333-89.572l.248.34c-35.722,25.815-78.22,54.828-122.587,74.266-24.169,10.592-47.02,17.439-67.948,20.353a169.063,169.063,0,0,1-23.363,1.679Z" transform="translate(39.231 3.682)" fill="#0e0e0e"/>
        <path id="パス_4373" data-name="パス 4373" d="M1412.734,620.168a121.745,121.745,0,0,1-36.26-5.273c-40.815-12.683-75.324-34.24-102.562-64.085-25.4-27.742-44.2-62.133-55.874-102.209-20.453-70.2-42.565-124.783-65.655-162.247-21.276-34.484-43.506-55.387-67.96-63.913-30.156-10.5-63.279-1.889-104.237,27.133-37.066,26.264-73.695,62.67-109.115,97.876-7.557,7.506-15.357,15.269-22.926,22.67-28.514,27.9-51.251,46.214-71.562,57.633-20.176,11.335-43.615,24.165-66.524,32.746-22.448,8.443-42.259,11.956-60.58,10.739-21.365-1.419-41.075-9.152-60.257-23.644a295.235,295.235,0,0,1-34.773-30.987c-16.843-17.544-33.292-38.355-50.277-63.628-9.6-14.274-17.964-27.519-25.563-40.449-9.236-15.726-18-32.175-26.449-48.082q-2.443-4.6-4.874-9.152c-5.6-10.5-11.637-21.7-17.792-32.746q-4.249-7.62-8.556-15.437c-7.334-13.262-14.916-26.973-22.809-40.617C371.164,119.866,337.445,67.91,291.588,35.9A207.114,207.114,0,0,0,270.8,23.056,149.525,149.525,0,0,0,215.084,5.97c-39.45-4.312-79.9,5.164-117.944,15.239l-.1-.42C135.117,10.714,175.609,1.234,215.131,5.55A149.824,149.824,0,0,1,271,22.687,207.466,207.466,0,0,1,291.827,35.55c45.924,32.061,79.677,84.081,106.634,130.74,7.893,13.648,15.474,27.36,22.809,40.626q4.312,7.8,8.556,15.437c6.155,11.054,12.175,22.276,17.8,32.746q2.431,4.547,4.878,9.152c8.464,15.9,17.213,32.351,26.449,48.065,7.6,12.922,15.953,26.146,25.55,40.428,16.973,25.252,33.4,46.046,50.235,63.573a294.409,294.409,0,0,0,34.723,30.941c35.533,26.868,72.675,30.81,120.433,12.846,22.88-8.569,46.306-21.381,66.466-32.716,20.277-11.4,42.989-29.694,71.474-57.57,7.557-7.41,15.374-15.172,22.926-22.67,35.433-35.223,72.07-71.642,109.153-97.923,41.079-29.11,74.308-37.746,104.619-27.187,11.826,4.123,23.388,11.335,34.371,21.486,11.591,10.7,22.968,25.034,33.808,42.6,23.136,37.494,45.244,92.117,65.71,162.348,11.658,40.017,30.428,74.35,55.781,102.045,27.188,29.807,61.629,51.306,102.373,63.964,37.234,11.57,81.172,4.379,134.342-21.977,43.518-21.574,85.668-52.356,124.732-82.4l.256.332c-39.081,30.063-81.252,60.874-124.8,82.448-24.559,12.175-47.645,20.37-68.619,24.349A159.444,159.444,0,0,1,1412.734,620.168Z" transform="translate(40.74 1.883)" fill="#0e0e0e"/>
        <path id="パス_4374" data-name="パス 4374" d="M1399.088,635.738a110.016,110.016,0,0,1-30.617-4.148c-40.911-11.8-75.093-33.166-101.6-63.544-24.408-27.96-42.255-63.393-53.057-105.374-38.665-150.228-84.333-230.014-139.615-243.914-28.354-7.137-60,2.968-96.722,30.869-32.565,24.74-65.269,60.231-96.9,94.56-36.18,39.266-70.353,76.352-102.818,96.529-35.067,21.8-64.467,37.486-93.981,43.212-16.474,3.2-31.659,2.989-46.415-.638-16.239-3.992-31.486-11.982-46.6-24.421C532.1,410.589,494.4,338.913,457.94,269.593c-8.526-16.213-16.583-31.533-24.929-46.6q-4.127-7.448-8.312-15.088C387.15,139.609,344.6,62.2,276.5,22.081,221.292-10.451,161.85-.484,100.725,13.621l-.1-.42C127.706,6.963,159.189.275,190.142,0c33-.29,61.293,6.822,86.583,21.717C344.9,61.9,387.49,139.357,425.06,207.7q4.2,7.632,8.317,15.088c8.346,15.076,16.4,30.395,24.933,46.6,36.44,69.27,74.123,140.929,132.721,189.149,62.494,51.419,123.884,20.739,186.508-18.187,32.418-20.151,66.571-57.213,102.73-96.457,31.642-34.341,64.362-69.849,96.953-94.61,17.607-13.375,33.586-22.452,48.821-27.758,17.212-5.982,32.985-7.024,48.258-3.182,55.446,13.938,101.214,93.821,139.921,244.213,22.569,87.687,75.949,145.992,154.367,168.612,36.688,10.584,80.79,1.234,134.82-28.59,44.854-24.769,87.322-58.334,126.953-90.6l.264.323c-39.656,32.28-82.129,65.865-127.012,90.643-24.954,13.77-48.279,23.308-69.3,28.35A150.411,150.411,0,0,1,1399.088,635.738Z" transform="translate(42.249 0)" fill="#0e0e0e"/>
      </g>
    </g>
  </g>
</svg>
