<svg id="グループ_241" data-name="グループ 241" xmlns="http://www.w3.org/2000/svg" xmlns:xlink="http://www.w3.org/1999/xlink" width="1280" height="800" viewBox="0 0 1280 800">
  <defs>
    <clipPath id="clip-path">
      <path id="パス_2" data-name="パス 2" d="M0,0H1280V800H0Z" fill="#f4f4f4"/>
    </clipPath>
  </defs>
  <g id="マスクグループ_37" data-name="マスクグループ 37" clip-path="url(#clip-path)">
    <g id="レイヤー_2" data-name="レイヤー 2" transform="translate(-0.002 228.813)">
      <g id="_饑1" data-name="ﾑ饑1" transform="translate(-351 -48.424)" opacity="0.123">
        <path id="パス_4375" data-name="パス 4375" d="M808.947,412.644a71.479,71.479,0,0,1-9.769-.665,77.971,77.971,0,0,1-27.3-9.379C756.134,393.819,741,379.393,725.6,358.5c-22.013-29.88-42.525-63.792-62.361-96.588-50.883-84.122-103.5-171.1-189.38-206.447C419.79,33.221,370.429,44.684,322.955,90.507c-40.441,39.037-72.647,96.038-102.166,151.079l-1.043-.756c29.573-55.139,61.842-112.251,102.424-151.424a200.3,200.3,0,0,1,32.6-25.876A137.2,137.2,0,0,1,390.8,47.37a117.363,117.363,0,0,1,39.745-3.956A141.632,141.632,0,0,1,474.276,54.12a234.759,234.759,0,0,1,58.863,35.373c16.792,13.577,32.9,29.789,49.207,49.557,30.268,36.666,56.517,80.063,81.894,122.03,19.821,32.758,40.317,66.652,62.29,96.479,32.967,44.745,65.664,60.9,102.9,50.845,44.694-12.07,84.54-45.375,123.076-77.581,6.909-5.775,13.436-11.231,20.035-16.6l8.063-6.552c45.526-37.107,92.6-75.479,142.9-102.537,27.2-14.63,52.748-24.616,78.115-30.528a225.558,225.558,0,0,1,84.162-4.032c39.657,5.612,79.239,17.727,117.517,29.442,21.792,6.67,44.324,13.567,66.554,19.151,78.9,19.856,157.638,30.742,245.006,41.935l-.136,1.424c-87.4-11.2-166.175-22.089-245.129-41.958-22.258-5.6-44.8-12.5-66.607-19.176-38.239-11.7-77.78-23.807-117.354-29.406-116.252-16.447-211.86,61.484-304.32,136.844q-4.032,3.288-8.063,6.552c-6.594,5.37-13.118,10.82-20.023,16.593-18.974,15.86-38.594,32.254-59.1,46.226-23.235,15.825-44.306,26.158-64.412,31.589A79.553,79.553,0,0,1,808.947,412.644Z" transform="translate(90.127 17.682)"/>
        <path id="パス_4376" data-name="パス 4376" d="M809.706,394.13a77.378,77.378,0,0,1-11.228-.814,84.75,84.75,0,0,1-28.746-9.966c-14.809-8.184-29.293-21.088-44.284-39.448-22.678-27.771-43.984-59.11-64.591-89.416-14.111-20.766-28.726-42.237-43.747-62.562C580.772,142.754,534.548,89.095,467.249,63.932c-29.162-11-57.777-12.629-85.049-4.838-76.7,21.938-132.387,114.461-173.047,182.02l-.965-.786c23.843-39.614,47.532-77.888,75.192-110.663,32.725-38.78,64.956-62.3,98.54-71.9a126.858,126.858,0,0,1,40.874-4.788,146.858,146.858,0,0,1,44.818,9.641c29.563,11.054,56.9,28.152,83.57,52.269,21.711,19.635,42.945,43.827,66.823,76.137,15.041,20.343,29.648,41.829,43.777,62.6,20.592,30.283,41.885,61.6,64.52,89.323,14.89,18.236,29.26,31.044,43.933,39.153,19.357,10.732,39.035,13.355,60.158,8,31.77-7.978,60.98-25.811,82.9-40.458,13.242-8.887,26.07-18.322,38.475-27.446,7.469-5.491,14.522-10.679,21.618-15.724q4.856-3.467,9.729-6.957c12.97-9.281,26.38-18.879,39.781-28.159,34.96-24.364,65.75-42.693,96.885-57.674,43.742-20.967,79.977-32.486,114.04-36.253a236.4,236.4,0,0,1,49.986-.393c39.733,3.908,79.349,13.884,117.661,23.53,4.941,1.245,10.047,2.52,15.071,3.78,14.91,3.714,32.539,7.993,50.26,11.561,35.136,7.086,73.262,13.146,119.989,19.068,41.3,5.219,83.565,9.8,124.442,14.232l.32.033-.111,1.366-.318-.033c-40.882-4.432-83.154-9.016-124.462-14.235-46.75-5.927-84.9-11.987-120.06-19.078-17.742-3.578-35.389-7.862-50.309-11.569-5.025-1.26-10.132-2.537-15.071-3.78-38.276-9.638-77.863-19.6-117.515-23.5a235.56,235.56,0,0,0-49.772.388c-33.945,3.757-70.074,15.245-113.7,36.157-31.077,14.953-61.816,33.262-96.736,57.593-13.393,9.276-26.8,18.871-39.765,28.149L974,307.655c-7.088,5.04-14.139,10.223-21.6,15.711-12.415,9.132-25.256,18.574-38.518,27.466-21.98,14.7-51.306,32.594-83.235,40.61a85.285,85.285,0,0,1-20.937,2.689Z" transform="translate(85.387 21.672)"/>
        <path id="パス_4377" data-name="パス 4377" d="M810.432,375.606a84.13,84.13,0,0,1-11.067-.726,90.586,90.586,0,0,1-28.958-9.149c-14.849-7.464-29.605-19.38-45.1-36.434-23.3-25.629-45.375-54.355-66.723-82.146-14.7-19.133-29.905-38.919-45.473-57.656-37.364-44.976-84.689-94.073-152.472-117.1-29.23-9.928-57.956-11.112-85.377-3.528C299.43,89.89,242.923,173.47,197.519,240.628l-.887-.811C242.142,172.507,298.788,88.728,375,67.6a137.226,137.226,0,0,1,41.119-4.934,155.518,155.518,0,0,1,44.835,8.469c29.666,10.079,57.276,25.68,84.414,47.7,22.215,18.024,44,40.194,68.539,69.764,15.58,18.755,30.792,38.553,45.5,57.7,21.33,27.758,43.386,56.462,66.655,82.056,15.409,16.946,30.059,28.781,44.787,36.182a86.574,86.574,0,0,0,60.494,7.272c30.563-7.1,59.294-22.3,83.366-36.23,12.521-7.307,24.571-14.932,36.228-22.306,8.063-5.1,15.676-9.913,23.276-14.529q7.615-4.626,15.23-9.276c10.815-6.6,22-13.421,33.105-20.06A741.955,741.955,0,0,1,1117.8,221.3c36.137-15.006,74.731-30.114,114.295-35.62a252.569,252.569,0,0,1,49.741-2.17c39.876,2.182,79.594,10,118,17.563q6.962,1.368,13.927,2.731c14.786,2.88,32.287,6.184,49.983,8.85,42.411,6.41,84.238,10.543,119.558,13.741,23.258,2.089,47.045,4.165,70.051,6.171,17.971,1.57,36.555,3.193,54.884,4.818l-.086,1.308c-18.327-1.628-36.911-3.248-54.884-4.815-23.006-2.016-46.793-4.085-70.051-6.174-35.336-3.2-77.18-7.335-119.614-13.748-17.717-2.669-35.23-5.975-50.026-8.857q-6.967-1.356-13.93-2.731c-38.377-7.559-78.059-15.371-117.868-17.546a251.647,251.647,0,0,0-49.555,2.162c-39.448,5.488-77.971,20.572-114.047,35.55a741.054,741.054,0,0,0-95.121,48.046c-11.1,6.637-22.286,13.458-33.1,20.055q-7.62,4.644-15.23,9.276c-7.592,4.611-15.2,9.424-23.26,14.522-11.662,7.376-23.722,15.006-36.263,22.326-24.14,13.97-52.954,29.212-83.643,36.341A91.96,91.96,0,0,1,810.432,375.606Z" transform="translate(80.647 25.672)"/>
        <path id="パス_4378" data-name="パス 4378" d="M811.121,357.069a93.159,93.159,0,0,1-10.87-.633,97.424,97.424,0,0,1-29.17-8.315c-14.88-6.751-29.908-17.682-45.939-33.42-23.883-23.434-46.662-49.512-68.693-74.715-15.336-17.548-31.2-35.693-47.36-52.889-38.422-40.9-86.894-85.51-155.075-106.231-29.2-8.875-58.037-9.616-85.7-2.2C293.45,98.782,237.426,172.419,188,237.388l-2.119,2.772-.806-.829,2.119-2.787c23.7-31.15,50.565-66.458,80.327-95.754,34.154-33.62,67.055-54.34,100.569-63.354a149.378,149.378,0,0,1,41.371-5.108,164.653,164.653,0,0,1,44.853,7.307c29.767,9.046,57.656,23.14,85.258,43.089,22.678,16.379,45,36.538,70.266,63.434,16.18,17.21,32.045,35.363,47.388,52.916,22.016,25.2,44.78,51.236,68.635,74.655,15.938,15.648,30.868,26.511,45.637,33.211a94.889,94.889,0,0,0,60.834,6.552c29.633-6.418,57.8-19.171,83.83-32,11.289-5.561,22.1-11.286,32.559-16.822,9.16-4.846,17.81-9.424,26.363-13.685,6.62-3.3,13.327-6.655,19.813-9.905,8.943-4.48,18.193-9.112,27.345-13.647,26.07-12.917,54.068-24.442,93.614-38.553,6.3-2.21,12.791-4.556,19.078-6.821,31.067-11.2,63.19-22.789,95.474-28.164a275.166,275.166,0,0,1,49.5-3.949c40.121.426,80.032,6.068,118.634,11.521q6.249.884,12.5,1.764c14.668,2.051,32.042,4.382,49.709,6.136,39.387,3.966,78.818,6.252,119.107,8.426,39.461,2.1,81.552,4.7,125.107,7.713l-.063,1.26c-43.55-3.024-85.639-5.612-125.094-7.713-40.3-2.185-79.743-4.473-119.17-8.416-17.682-1.764-35.068-4.09-49.744-6.141q-6.249-.874-12.5-1.764c-38.569-5.45-78.452-11.087-118.513-11.511a274.183,274.183,0,0,0-49.333,3.936c-32.2,5.36-64.283,16.931-95.31,28.119-6.3,2.268-12.793,4.614-19.08,6.826-39.508,14.083-67.473,25.6-93.508,38.493-9.15,4.536-18.395,9.167-27.34,13.645-6.489,3.251-13.2,6.612-19.816,9.908-8.542,4.253-17.188,8.819-26.34,13.675-10.465,5.544-21.285,11.264-32.586,16.832-26.083,12.851-54.317,25.632-84.051,32.072a100.981,100.981,0,0,1-21.383,2.343Z" transform="translate(75.906 29.656)"/>
        <path id="パス_4379" data-name="パス 4379" d="M811.984,338.543a105.618,105.618,0,0,1-40.229-8.008c-14.988-6.128-30.286-16.074-46.766-30.412-24.389-21.214-47.786-44.561-70.417-67.138-16.049-16.016-32.647-32.574-49.494-48.277C567.911,150.032,516.4,107.853,447.4,89.355c-29.18-7.827-58.125-8.121-86.032-.882-73.887,19.224-131.167,86-181.7,144.918q-2.726,3.183-5.423,6.32l-.723-.844q2.694-3.132,5.423-6.317c24.344-28.378,51.934-60.544,81.965-87.166C295.28,114.911,328.068,95.911,361.148,87.3a163.831,163.831,0,0,1,41.622-5.292,175.6,175.6,0,0,1,44.853,6.166c29.875,8.013,58.042,20.6,86.108,38.475,23.147,14.746,46.02,32.891,71.976,57.109,16.863,15.716,33.466,32.282,49.525,48.3,22.615,22.565,46,45.9,70.361,67.088,16.4,14.265,31.6,24.158,46.493,30.238a104.911,104.911,0,0,0,61.166,5.813c30.79-6.126,60.458-18.12,84.3-27.758,9.139-3.7,17.926-7.428,26.423-11.034,11.148-4.735,21.671-9.2,31.916-13.141,11.788-4.536,23.649-9.124,35.119-13.567l10.865-4.206c24.165-9.351,48.676-16.439,77.056-24.646q7.307-2.109,14.917-4.324c12.818-3.739,25.722-8.063,39.382-12.634,24.727-8.28,50.3-16.843,75.429-21.721a303.383,303.383,0,0,1,49.25-5.725c40.5-1.376,80.753,2.049,119.677,5.362q5.324.454,10.654.9c14.534,1.222,31.775,2.583,49.426,3.422,33.753,1.633,67.088,2.2,102.381,2.8l16.318.282c37.2.617,77.008,2.016,125.281,4.435l-.043,1.192c-48.265-2.409-88.063-3.82-125.253-4.435q-8.174-.149-16.318-.282c-35.3-.6-68.64-1.172-102.406-2.807-17.666-.839-34.917-2.2-49.462-3.422l-10.654-.9c-38.9-3.309-79.123-6.733-119.573-5.36a302.941,302.941,0,0,0-49.112,5.71c-25.07,4.868-50.611,13.421-75.312,21.691-13.668,4.579-26.579,8.9-39.415,12.645q-7.627,2.222-14.92,4.327c-28.361,8.2-52.853,15.283-76.981,24.619l-10.863,4.208c-11.473,4.44-23.336,9.034-35.121,13.564-10.225,3.931-20.748,8.4-31.888,13.131-8.5,3.608-17.291,7.34-26.438,11.039-23.873,9.654-53.587,21.671-84.46,27.809a109.851,109.851,0,0,1-21.442,2.167Z" transform="translate(71.168 33.636)"/>
        <path id="パス_4380" data-name="パス 4380" d="M812.568,320.036a117.146,117.146,0,0,1-40.141-7.106c-15.225-5.521-30.346-14.227-47.595-27.4-24.752-18.9-48.633-39.471-71.719-59.355-16.9-14.552-34.37-29.6-52.047-43.875-38.135-30.845-90.815-68.32-160.284-84.467-29.56-6.872-57.8-6.73-86.355.438-72.886,18.367-131.27,78.561-182.783,131.676q-4.558,4.7-9.039,9.306l-.643-.849q4.483-4.6,9.036-9.3c51.6-53.2,110.089-113.5,183.224-131.936A180.632,180.632,0,0,1,396.1,91.7a188.509,188.509,0,0,1,44.871,5.02,332.6,332.6,0,0,1,86.962,33.864c23.628,13.1,47.04,29.23,73.685,50.785,17.689,14.287,35.167,29.341,52.07,43.9,23.079,19.876,46.947,40.428,71.677,59.319,17.17,13.1,32.214,21.776,47.348,27.265a116.887,116.887,0,0,0,61.5,5.083c25.9-4.7,50.286-12.5,73.869-20.05,3.593-1.149,7.307-2.338,10.9-3.472,5.574-1.764,11.024-3.528,16.3-5.214,14.615-4.707,28.411-9.152,41.464-12.627l7.683-2.046c12.73-3.384,24.755-6.582,37.127-9.946,15.756-4.284,31.956-7.461,49.109-10.835,13.02-2.555,26.486-5.2,41.219-8.567,17.815-4.09,36.822-10.281,55.2-16.271,19.725-6.426,40.121-13.07,59.869-17.455a348.078,348.078,0,0,1,49.008-7.5c41.9-3.2,83.467-2.036,123.663-.91l5.864.161c14.4.4,31.5.8,49.152.708,25.587-.1,51.967-.728,77.477-1.336,13.328-.318,27.111-.648,40.791-.9,36.137-.728,76-.36,125.452,1.157l-.025,1.129c-49.437-1.512-89.288-1.882-125.41-1.157-13.68.252-27.466.585-40.788.9-25.516.61-51.909,1.24-77.495,1.338-17.656.086-34.774-.31-49.177-.708l-5.851-.164c-40.176-1.124-81.721-2.285-123.577.91a345.194,345.194,0,0,0-48.885,7.486c-19.708,4.374-40.083,11.014-59.788,17.435-18.395,5.992-37.422,12.191-55.278,16.288-14.746,3.384-28.222,6.027-41.245,8.583-17.135,3.361-33.322,6.536-49.048,10.813-12.375,3.364-24.4,6.552-37.132,9.948l-7.683,2.044c-13.032,3.47-26.821,7.912-41.421,12.614-5.271,1.7-10.724,3.455-16.3,5.216-3.588,1.134-7.308,2.323-10.891,3.472-23.613,7.56-48.028,15.371-73.977,20.076a122.036,122.036,0,0,1-21.814,1.988Z" transform="translate(66.428 37.606)"/>
        <path id="パス_4381" data-name="パス 4381" d="M813.066,301.555a131.548,131.548,0,0,1-39.975-6.219c-15.225-4.836-30.611-12.6-48.411-24.392-24.871-16.492-48.973-34.169-72.284-51.263-17.984-13.191-36.583-26.829-55.341-39.781-39.078-27.023-92.906-59.808-162.889-73.579a197.845,197.845,0,0,0-86.682,1.764C275.67,125.6,216.335,179.47,164,227c-4.284,3.9-8.731,7.927-13.028,11.8l-.564-.847c4.3-3.875,8.734-7.9,13.025-11.8,52.413-47.6,111.833-101.549,183.867-119.117a201.013,201.013,0,0,1,42.137-5.644,205.309,205.309,0,0,1,44.881,3.878,367.972,367.972,0,0,1,87.819,29.248c24.122,11.45,48.078,25.579,75.388,44.467,18.768,12.957,37.372,26.6,55.363,39.8,23.3,17.087,47.4,34.756,72.249,51.238,17.73,11.76,33.048,19.478,48.2,24.291a131.781,131.781,0,0,0,61.829,4.349c20.627-3.382,40.418-8.315,59.559-13.068,8.925-2.22,17.354-4.319,25.67-6.211,19.272-4.392,39.2-8.933,57.183-11.508,5.5-.789,11.012-1.56,16.344-2.306,8.945-1.26,18.2-2.545,27.292-3.906,11.619-1.736,23.4-2.724,35.88-3.78,16.379-1.373,33.312-2.794,52.8-6.065,21.6-3.626,44.828-11.228,67.279-18.584,15.875-5.2,32.3-10.583,48.048-14.514a397.581,397.581,0,0,1,48.764-9.278c43.238-5.256,86.06-6.511,127.473-7.726l1.26-.035c13.431-.4,31.122-.983,48.872-2.016,18.614-1.053,37.745-2.361,56.245-3.629,20.081-1.373,40.846-2.792,61.595-3.938,36.086-2.054,74.839-2.709,125.624-2.122v1.071c-50.775-.587-89.5.068-125.568,2.119-20.746,1.147-41.507,2.565-61.585,3.938-18.506,1.26-37.639,2.575-56.255,3.629-17.76,1.028-35.459,1.613-48.885,2.016l-1.26.038c-41.4,1.212-84.2,2.467-127.4,7.718a397.415,397.415,0,0,0-48.665,9.26c-15.719,3.933-32.125,9.306-47.993,14.5-22.49,7.363-45.747,14.978-67.408,18.611-19.519,3.276-36.469,4.7-52.864,6.075-12.463,1.046-24.233,2.033-35.827,3.765-9.1,1.363-18.352,2.656-27.3,3.908-5.332.756-10.835,1.512-16.341,2.306-17.949,2.568-37.863,7.106-57.12,11.5-8.315,1.892-16.734,3.986-25.652,6.206-19.151,4.768-38.967,9.694-59.624,13.08a137.248,137.248,0,0,1-22.238,1.844Z" transform="translate(61.687 41.562)"/>
        <path id="パス_4382" data-name="パス 4382" d="M813.432,283.1a149.931,149.931,0,0,1-39.667-5.3c-15.215-4.16-30.863-10.959-49.242-21.388-24.5-13.9-48.346-28.537-71.41-42.688-19.541-11.992-39.748-24.392-60.07-36.17-39.982-23.225-94.927-51.329-165.5-62.7a220.333,220.333,0,0,0-87,3.079c-70.664,16.666-130.724,64.435-183.713,106.589-6.032,4.788-11.732,9.323-17.5,13.859l-.484-.837c5.76-4.536,11.46-9.071,17.493-13.859,27.076-21.534,55.076-43.8,85.526-63.071,34.64-21.923,66.861-36.2,98.505-43.664a222.565,222.565,0,0,1,87.289-3.092c70.7,11.39,125.724,39.536,165.764,62.784,20.332,11.783,40.544,24.19,60.09,36.18,23.056,14.149,46.9,28.781,71.384,42.676,18.319,10.4,33.909,17.168,49.061,21.313a151.15,151.15,0,0,0,62.157,3.616c15.195-2.228,30.039-5.067,44.4-7.811,14.474-2.772,28.146-5.385,41.295-7.224,23.938-3.346,41.391-4.941,56.605-5.168,6.552-.1,13.081-.141,19.4-.181,7.56-.05,15.384-.1,23.074-.252,9.132-.179,18.332.2,28.073.6,17.994.738,36.6,1.512,58.964-.879,24.6-2.621,51.17-11.548,76.87-20.184,12.829-4.309,26.093-8.766,38.735-12.289a465.581,465.581,0,0,1,48.522-11.055c41.877-7.008,82.713-10.835,127.929-14.774,13.267-1.157,30.78-2.739,48.595-4.722,12.612-1.388,25.539-2.885,38.05-4.337,25.813-2.994,52.506-6.09,79.375-8.567,35.782-3.351,74.567-5.017,125.792-5.4v1.008c-51.2.383-89.978,2.049-125.74,5.4-26.854,2.469-53.541,5.564-79.352,8.567-12.5,1.449-25.43,2.948-38.05,4.337-17.82,1.983-35.341,3.566-48.61,4.725-45.2,3.936-86.022,7.764-127.871,14.766a467.306,467.306,0,0,0-48.441,11.037c-12.627,3.528-25.881,7.97-38.7,12.277-25.74,8.648-52.354,17.591-77.034,20.219-22.4,2.389-41.877,1.587-59.062.882-9.727-.4-18.916-.776-28.028-.6-7.693.149-15.517.2-23.082.252-6.3.043-12.836.086-19.385.184-15.182.227-32.612,1.819-56.515,5.161-13.131,1.837-26.793,4.45-41.257,7.217-14.363,2.747-29.23,5.589-44.43,7.811a157.567,157.567,0,0,1-22.814,1.678Z" transform="translate(56.949 45.5)"/>
        <path id="パス_4383" data-name="パス 4383" d="M1096.881,268.37c-20.411,0-37.921-3.1-53.6-5.876-7.907-1.4-15.371-2.724-22.812-3.613-6.65-.8-13.411-1.706-19.947-2.588-6.932-.935-14.111-1.9-21.348-2.772-16.283-1.93-34.048-2.3-55.907-1.167-17.959.932-37.117,3.75-57.4,6.733-9.323,1.373-18.982,2.792-28.7,4.049a177.278,177.278,0,0,1-62.729-2.9c-15.164-3.495-31.075-9.336-50.069-18.395C701.4,230.9,678.922,219.631,657.188,208.73,635,197.6,612.053,186.092,589.03,175.171c-60.67-28.824-112.508-44.8-168.108-51.775a248.478,248.478,0,0,0-87.317,4.4c-69.323,15.812-129.88,57.679-183.3,94.627-7.8,5.392-15.164,10.488-22.6,15.542l-.411-.821c7.434-5.04,14.8-10.145,22.593-15.537,27.386-18.942,55.7-38.526,86.105-55.529,34.522-19.309,66.408-32.138,97.457-39.214a249.347,249.347,0,0,1,87.567-4.422c55.688,6.985,107.6,22.981,168.325,51.858,23.031,10.926,45.979,22.426,68.174,33.567,21.731,10.9,44.2,22.174,67.164,33.108,18.944,9.026,34.806,14.852,49.918,18.332a176.586,176.586,0,0,0,62.492,2.883c9.711-1.26,19.36-2.674,28.691-4.047,20.3-2.986,39.471-5.8,57.452-6.741,21.9-1.139,39.705-.756,56.028,1.172,7.252.862,14.424,1.827,21.358,2.772,6.536.879,13.292,1.792,19.937,2.585,7.454.892,14.933,2.217,22.852,3.618,17.918,3.172,38.228,6.771,62.522,5.662,27.055-1.237,56.361-11.478,84.7-21.381,10.81-3.78,21.02-7.348,31.178-10.47,18.269-5.619,33.609-9.694,48.28-12.831,44.45-9.5,87.186-15.968,127.13-21.784,19.448-2.835,34.35-5.128,48.315-7.439,7.431-1.217,15.026-2.48,22.369-3.7,30.694-5.105,62.434-10.382,94.609-14.522,35.56-4.642,74.408-7.307,125.961-8.678l.02.95c-51.531,1.358-90.356,4.032-125.893,8.673-32.163,4.138-63.9,9.409-94.592,14.517-7.343,1.222-14.935,2.485-22.366,3.7-13.973,2.311-28.877,4.6-48.33,7.439-39.942,5.813-82.65,12.284-127.083,21.776-14.65,3.132-29.973,7.2-48.219,12.813-10.145,3.12-20.348,6.685-31.153,10.462-28.388,9.921-57.742,20.179-84.9,21.419Q1101.324,268.375,1096.881,268.37Z" transform="translate(52.208 49.406)"/>
        <path id="パス_4384" data-name="パス 4384" d="M1105.529,275.85h-1.6c-25.821-.383-46.554-7.1-64.848-13.028-6.594-2.137-12.826-4.158-19.04-5.823-5.773-1.547-11.637-3.22-17.309-4.836-7.388-2.107-15.026-4.284-22.809-6.3-16.689-4.306-34.774-6.758-55.308-7.494-22.706-.814-47.5,2.046-73.75,5.075-4.17.481-8.484.98-12.765,1.459a212.455,212.455,0,0,1-63-2.157c-19.561-3.681-37.475-10.155-50.9-15.371-17.692-6.892-35.159-13.831-52.052-20.539-29.689-11.82-57.759-22.966-87.141-33.97-61.822-23.23-114.471-35.842-170.711-40.9a284.9,284.9,0,0,0-87.635,5.725c-67.753,14.915-128.448,51.087-182.015,83-9.863,5.876-19.181,11.43-28.575,16.883l-.343-.8c9.394-5.455,18.707-11.007,28.57-16.883,27.534-16.409,56.008-33.378,86.221-48.194,34.255-16.8,65.657-28.222,96.006-34.892a285.24,285.24,0,0,1,87.834-5.738c56.3,5.06,109.005,17.687,170.887,40.937,29.386,11.007,57.452,22.152,87.156,33.952,16.883,6.71,34.358,13.647,52.047,20.539,13.393,5.219,31.266,11.679,50.772,15.351a212.019,212.019,0,0,0,62.8,2.147c4.284-.479,8.593-.975,12.763-1.456,26.277-3.024,51.1-5.9,73.851-5.08,20.574.738,38.712,3.2,55.449,7.517,7.789,2.016,15.434,4.188,22.825,6.3,5.67,1.615,11.531,3.276,17.3,4.833,6.231,1.671,12.471,3.692,19.075,5.833,18.246,5.912,38.929,12.614,64.651,12.995.527,0,1.061.013,1.59.013,28.7,0,59.68-11.359,89.666-22.353,8.635-3.167,16.792-6.158,24.9-8.885,18.71-6.3,33.975-10.941,48.038-14.615,46.231-12.047,89.8-21.318,126.329-28.8,19.128-3.918,33.945-7.056,48.041-10.152l8.819-1.93c34.862-7.635,70.911-15.53,107.718-21.623,45.39-7.6,91.25-10.384,126.133-11.959l.03.889c-34.862,1.585-80.7,4.357-126.052,11.962-36.789,6.09-72.823,13.983-107.685,21.615l-8.819,1.933c-14.1,3.1-28.918,6.234-48.048,10.155-36.517,7.476-80.078,16.744-126.294,28.789-14.048,3.659-29.3,8.3-48,14.59-8.1,2.724-16.25,5.712-24.881,8.877C1165.385,264.463,1134.333,275.85,1105.529,275.85Z" transform="translate(47.467 53.287)"/>
        <path id="パス_4385" data-name="パス 4385" d="M1109.179,283.818q-3.729,0-7.28-.267c-26.95-2.016-47.758-12.06-66.118-20.915-5.6-2.7-10.883-5.251-16.162-7.507-5-2.137-10.079-4.4-14.985-6.582-7.736-3.445-15.736-7.008-23.956-10.331A214.424,214.424,0,0,0,925.97,224.4c-27.282-3.369-58.964-.365-86.934,2.288a264.254,264.254,0,0,1-63.27-1.419c-19.188-2.817-36.913-7.842-51.719-12.385-41.769-12.813-91.427-27.859-143.051-42.305-62.809-17.639-116.262-26.9-173.316-29.986a332.267,332.267,0,0,0-87.942,7.056c-65.768,13.975-123.567,43.293-179.455,71.644-12.37,6.277-24.057,12.2-35.827,17.966l-.277-.756c11.768-5.76,23.45-11.687,35.819-17.961,27.466-13.937,55.877-28.348,85.674-41.043,33.743-14.363,64.467-24.4,93.929-30.659a333.141,333.141,0,0,1,88.111-7.056c57.1,3.1,110.6,12.347,173.45,30.019,51.631,14.449,101.3,29.5,143.066,42.31,14.784,4.536,32.481,9.553,51.629,12.365a263.666,263.666,0,0,0,63.122,1.414c27.993-2.656,59.72-5.665,87.07-2.285a215.062,215.062,0,0,1,54.867,13.859c8.23,3.324,16.235,6.889,23.976,10.331,4.909,2.185,9.984,4.445,14.975,6.579,5.292,2.268,10.583,4.815,16.19,7.519,18.309,8.819,39.057,18.846,65.891,20.857,30.946,2.318,64.46-10.639,96.87-23.182,6.783-2.623,13.191-5.1,19.566-7.436,14.091-5.158,30.79-11.138,47.8-16.379,39.952-12.309,81.015-24.024,125.53-35.809,18.37-4.863,33.544-8.953,47.761-12.866,35.3-9.666,75.3-20.62,116.111-28.885,45.246-9.248,91.263-13,126.3-15.235l.041.827c-35.026,2.235-81.008,5.987-126.216,15.227-40.791,8.257-80.786,19.211-116.071,28.872-14.217,3.913-29.4,8-47.766,12.869-44.508,11.783-85.563,23.495-125.508,35.8-16.994,5.236-33.683,11.211-47.766,16.379-6.373,2.331-12.776,4.808-19.556,7.431-15.915,6.156-32.372,12.519-48.8,17.079C1134.788,281.706,1121.274,283.818,1109.179,283.818Z" transform="translate(42.728 57.13)"/>
        <path id="パス_4386" data-name="パス 4386" d="M1111.923,297.121a90.012,90.012,0,0,1-12.045-.781c-27.869-3.754-48.544-17.263-66.788-29.18-4.8-3.14-9.341-6.106-13.882-8.819-4.3-2.573-8.661-5.264-12.881-7.864-8.011-4.939-16.293-10.044-24.883-14.822A191.017,191.017,0,0,0,927.331,215.5c-25.143-5.307-53.105-4.621-87.36-1.958a347.652,347.652,0,0,1-63.543-.68c-18.68-1.988-36.286-5.687-52.549-9.389-52.161-11.871-101.428-21.494-146.906-30.122-62.638-11.949-118.535-18.017-175.919-19.093a399.417,399.417,0,0,0-88.265,8.371c-63.147,12.939-119.944,37.1-174.876,60.476-15.573,6.622-30.278,12.879-45.082,18.863l-.217-.728c14.8-5.982,29.5-12.236,45.072-18.858,54.96-23.374,111.79-47.547,175-60.5a400.011,400.011,0,0,1,88.391-8.383c57.414,1.076,113.344,7.146,176.015,19.1,45.473,8.608,94.761,18.241,146.921,30.117,16.238,3.7,33.834,7.391,52.483,9.379a347.2,347.2,0,0,0,63.439.675c34.3-2.666,62.313-3.351,87.521,1.97a191.186,191.186,0,0,1,54.28,20.207c8.6,4.788,16.883,9.9,24.908,14.837,4.218,2.6,8.58,5.292,12.874,7.859,4.551,2.724,9.094,5.692,13.9,8.835,18.188,11.881,38.805,25.349,66.539,29.086,32.551,4.384,69.316-10.659,101.753-23.938,5.183-2.122,10.079-4.125,14.965-6.048,16.127-6.38,31.893-12.571,47.562-18.143,49.953-17.8,88.423-30.994,124.732-42.817,16.966-5.523,32.506-10.621,47.481-15.583,36.5-12.035,75.5-24.591,115.678-34.214,45.133-10.893,91.293-15.623,126.468-18.516l.045.756c-35.147,2.9-81.29,7.607-126.385,18.5-40.154,9.618-79.14,22.169-115.64,34.212-14.985,4.964-30.517,10.062-47.484,15.585-36.3,11.815-74.768,25.019-124.732,42.812-15.656,5.579-31.422,11.765-47.542,18.143-4.881,1.933-9.777,3.936-14.958,6.048C1173.357,284.051,1141.438,297.121,1111.923,297.121Z" transform="translate(37.985 55.907)"/>
        <path id="パス_4387" data-name="パス 4387" d="M1114.085,311.674a84.89,84.89,0,0,1-16.22-1.512c-28.635-5.544-49.033-22.646-67.027-37.719-4.158-3.485-8.086-6.776-12.022-9.855-3.649-2.857-7.358-5.826-10.944-8.7-8.225-6.582-16.732-13.388-25.647-19.768A178.036,178.036,0,0,0,928.7,207.666c-28.29-8.444-60.252-7.874-87.786-6.2a504.059,504.059,0,0,1-63.822.06c-18.659-1.26-36.6-3.845-53.378-6.4-47.932-7.285-92.624-11.914-139.939-16.817l-10.835-1.121c-62.7-6.577-119.44-9.177-178.52-8.187a498.635,498.635,0,0,0-88.577,9.694c-59.375,11.725-114.032,30.835-166.891,49.316C119,234.988,100.151,241.578,81.2,247.734l-.164-.683c18.944-6.153,37.8-12.743,57.747-19.72,52.874-18.485,107.551-37.6,166.964-49.333a498.957,498.957,0,0,1,88.67-9.7c59.11-.99,115.857,1.61,178.583,8.187l10.823,1.124c47.322,4.9,92.022,9.535,139.966,16.822,16.764,2.548,34.693,5.14,53.332,6.388a503.394,503.394,0,0,0,63.752-.058c27.577-1.676,59.6-2.245,87.967,6.224a178.827,178.827,0,0,1,53.69,26.551c8.928,6.39,17.44,13.2,25.672,19.788,3.583,2.87,7.292,5.838,10.939,8.693,3.943,3.084,7.875,6.378,12.037,9.865,17.941,15.031,38.276,32.067,66.776,37.6,34.018,6.6,72.3-10.009,106.085-24.659,3.78-1.64,7.348-3.188,10.926-4.71q4.626-1.97,9.235-3.941c12.5-5.337,25.425-10.858,38.087-15.986,10.737-4.347,21.507-8.734,31.924-12.977,31.563-12.851,61.378-25,92.012-36.853q15.119-5.851,30.349-11.763l16.865-6.524c41.968-16.21,77.626-29.137,115.242-39.544,45.042-12.541,91.336-18.236,126.631-21.794l.053.706c-35.278,3.558-81.539,9.245-126.543,21.779-37.593,10.4-73.239,23.321-115.192,39.524l-16.853,6.536q-15.235,5.9-30.339,11.75c-30.631,11.843-60.443,23.994-92,36.85-10.417,4.241-21.189,8.628-31.924,12.977-12.66,5.125-25.581,10.644-38.08,15.981q-4.606,1.968-9.235,3.941c-3.576,1.512-7.144,3.069-10.921,4.707C1175.674,297.876,1143.859,311.674,1114.085,311.674Z" transform="translate(33.236 53.618)"/>
        <path id="パス_4388" data-name="パス 4388" d="M1115.513,326.368a79.818,79.818,0,0,1-19.655-2.346c-29.3-7.416-49.3-28.167-66.949-46.476-3.621-3.757-7.043-7.308-10.475-10.674-3.057-3-6.164-6.1-9.17-9.1-8.381-8.366-17.049-17.019-26.247-25.138-17-15-33.814-25.42-52.939-32.8-23.036-8.885-50.243-12.1-88.217-10.447-24.367,1.066-45.337,1.328-64.1.8-17.856-.5-35.164-1.882-51.909-3.215l-2.306-.184c-44.576-3.548-88.194-4.417-130.378-5.259-7.935-.159-16.142-.323-24.246-.5-60.342-1.383-119.586-.5-181.118,2.724A660,660,0,0,0,298.92,194.76C245.572,204.9,195.3,219.005,146.687,232.643c-26.657,7.476-51.838,14.539-77.107,20.864l-.118-.632c25.254-6.325,50.429-13.385,77.084-20.864,48.633-13.64,98.906-27.743,152.273-37.888a660.029,660.029,0,0,1,88.95-11.027c61.544-3.218,120.8-4.107,181.153-2.724,8.1.179,16.311.343,24.246.5,42.19.842,85.815,1.711,130.406,5.259l2.306.184c16.732,1.333,34.033,2.711,51.878,3.215,18.753.529,39.71.27,64.067-.8,38.049-1.663,65.312,1.567,88.411,10.48,19.183,7.4,36.054,17.853,53.1,32.9,9.213,8.132,17.891,16.79,26.274,25.163,3,3,6.111,6.1,9.167,9.1,3.437,3.374,6.859,6.927,10.485,10.687,17.6,18.256,37.545,38.947,66.7,46.325,35.343,8.945,74.99-9.3,109.97-25.387q3.714-1.708,7.33-3.364c7.537-3.437,15.137-6.96,22.484-10.369,8.063-3.742,16.422-7.612,24.6-11.339,19.32-8.777,38.521-17.735,57.089-26.4,21.635-10.094,44.006-20.534,66.052-30.437l1.724-.774c14.756-6.632,30.016-13.489,45.2-20.242,35.444-15.714,73.884-32.025,114.806-44.871,44.989-14.184,91.4-20.857,126.816-25.067l.058.645c-35.391,4.218-81.779,10.876-126.71,25.055-40.9,12.851-79.324,29.144-114.753,44.853-15.182,6.751-30.44,13.607-45.2,20.239l-1.724.774c-22.041,9.9-44.412,20.34-66.045,30.435-18.571,8.666-37.772,17.624-57.092,26.4-8.179,3.717-16.525,7.587-24.6,11.339-7.35,3.409-14.95,6.932-22.487,10.372q-3.614,1.648-7.328,3.361c-16.818,7.736-35.877,16.5-54.706,22.006C1138.287,324.453,1126.389,326.368,1115.513,326.368Z" transform="translate(28.489 51.325)"/>
        <path id="パス_4389" data-name="パス 4389" d="M1116.553,341.171a75.819,75.819,0,0,1-22.714-3.311c-29.875-9.323-49.4-33.8-66.632-55.4-3.165-3.971-6.156-7.721-9.162-11.319-2.52-3-5.062-6.1-7.529-9.092-8.492-10.293-17.271-20.935-26.71-30.928-16.757-17.727-33.388-30.16-52.352-39.128C908.148,180.97,879.979,176.3,842.8,177.3q-7.869.212-15.651.438c-17.016.484-33.088.942-48.731,1.094-13.781.136-27.345-.048-40.463-.227-4.788-.063-9.752-.131-14.58-.181-43.684-.441-86.544,2.137-127.992,4.631-9.981.6-20.3,1.222-30.49,1.792-53,2.931-109.655,7.136-183.711,13.632-27.791,2.439-56.966,6.476-89.2,12.347-41.9,7.663-82.429,16.57-121.617,25.2-38.916,8.552-75.673,16.631-112.384,23.268l-.078-.58C94.611,252.08,131.365,244,170.286,235.446c39.193-8.615,79.72-17.523,121.632-25.2,32.254-5.869,61.431-9.908,89.235-12.347,74.06-6.5,130.724-10.7,183.726-13.635,10.188-.569,20.506-1.192,30.49-1.792,41.454-2.495,84.321-5.075,128.022-4.631,4.828.05,9.787.116,14.582.181,13.1.176,26.677.36,40.451.227,15.641-.151,31.71-.61,48.723-1.1q7.779-.219,15.653-.436c37.248-1.008,65.48,3.681,88.852,14.733,19.017,8.993,35.7,21.461,52.5,39.239,9.457,10,18.241,20.663,26.738,30.954,2.469,2.994,5.022,6.085,7.529,9.092,3.009,3.6,6,7.353,9.17,11.339,17.183,21.545,36.658,45.964,66.392,55.232,36.6,11.41,79.244-9.412,113.513-26.141l4.085-1.993c12.153-5.917,24.329-12.08,36.107-18.039q5.377-2.726,10.745-5.433c23.056-11.632,45.878-23.7,67.95-35.378,17.81-9.422,36.225-19.151,54.393-28.474,14.95-7.66,30.865-15.8,46.645-23.729,33.08-16.58,72.538-35.509,114.367-50.2,44.909-15.84,91.442-23.475,126.964-28.353l.058.582c-35.515,4.863-82.016,12.491-126.886,28.318-41.8,14.683-81.247,33.6-114.315,50.177-15.777,7.927-31.692,16.069-46.64,23.729-18.165,9.306-36.58,19.047-54.388,28.474-22.074,11.677-44.9,23.749-67.96,35.383q-5.365,2.706-10.745,5.433c-11.775,5.959-23.953,12.125-36.109,18.044l-4.087,1.993c-17.188,8.391-36.671,17.891-56.17,23.749C1138.773,339.266,1127.184,341.171,1116.553,341.171Z" transform="translate(23.748 49.04)"/>
        <path id="パス_4390" data-name="パス 4390" d="M1117.282,356.08a72.751,72.751,0,0,1-25.45-4.369c-30.392-11.243-49.374-39.518-66.12-64.465-2.772-4.135-5.4-8.041-8.038-11.821-2.016-2.875-4.052-5.828-6.03-8.686-8.547-12.347-17.387-25.12-27.043-37.112-16.472-20.464-32.922-34.91-51.765-45.46-23.734-13.292-52.042-19.3-89.089-18.937-19.12.192-37.949,1.051-56.157,1.882l-8.512.388c-7.827.383-15.658.718-23.235,1.041-11.264.481-21.9.935-32.639,1.542-43.694,2.464-86.667,8.333-128.227,14.01-11.17,1.527-22.724,3.1-34.116,4.594-22.532,2.931-44.833,5.937-68.444,9.122-37.82,5.1-76.925,10.379-117.86,15.421-26.327,3.243-54.766,7.587-89.5,13.668-11.266,1.981-22.593,3.986-33.547,5.927-71.382,12.645-138.8,24.591-205.134,32.234l-.043-.524c66.317-7.643,133.732-19.587,205.114-32.231,10.954-1.94,22.28-3.946,33.546-5.929,34.743-6.08,63.187-10.425,89.522-13.668,40.932-5.04,80.037-10.331,117.855-15.421,23.611-3.185,45.914-6.191,68.446-9.122,11.392-1.489,22.943-3.067,34.113-4.594,41.577-5.677,84.548-11.548,128.259-14.013,10.737-.607,21.381-1.061,32.647-1.542,7.575-.325,15.406-.658,23.233-1.043l8.512-.386c18.211-.832,37.042-1.693,56.169-1.885,17.387-.176,32.609,1.056,46.531,3.76a141.209,141.209,0,0,1,42.759,15.23c18.9,10.583,35.388,25.062,51.909,45.576,9.664,12,18.511,24.785,27.063,37.142,1.978,2.855,4.032,5.8,6.03,8.683,2.641,3.78,5.264,7.69,8.041,11.828,16.709,24.886,35.646,53.093,65.9,64.286,37.8,13.985,81.587-8.7,116.776-26.935l1.124-.58c14.844-7.691,29.633-15.862,43.931-23.767l2.684-1.482c24.853-13.859,49.421-28.409,73.181-42.477,15.835-9.376,32.208-19.073,48.368-28.383,13.889-8.006,30.074-17.311,46.365-26.458,32.528-18.206,71.5-39.04,113.932-55.529,44.853-17.49,91.5-26.09,127.125-31.631l.061.524c-35.605,5.544-82.225,14.134-127.042,31.609-42.409,16.48-81.363,37.293-113.879,55.5-16.286,9.132-32.468,18.438-46.365,26.443-16.155,9.308-32.528,19-48.363,28.378-23.762,14.071-48.33,28.62-73.191,42.484l-2.681,1.482c-14.3,7.9-29.091,16.079-43.943,23.772l-1.124.582C1181.338,339.044,1148.462,356.08,1117.282,356.08Z" transform="translate(19.002 46.742)"/>
        <path id="パス_4391" data-name="パス 4391" d="M1117.654,371.049a69.707,69.707,0,0,1-27.824-5.5c-30.84-13.136-49.2-45.228-65.41-73.549-2.457-4.284-4.788-8.351-7.116-12.3q-2.323-3.931-4.659-7.9c-8.568-14.534-17.41-29.565-27.242-43.684-16.157-23.2-32.42-39.66-51.183-51.8-23.737-15.353-53.022-22.93-89.529-23.182-22.9-.149-45.687,1.434-64.956,3.009-21.214,1.8-38.977,3.44-56.711,5.574-44.127,5.307-87.637,14.421-129.713,23.233-11.954,2.5-24.314,5.093-36.49,7.559l-12.214,2.464c-56.522,11.407-114.97,23.2-176.68,32.992-21.872,3.47-43.961,7.219-65.322,10.835-8.028,1.363-16.331,2.772-24.483,4.145-86.6,14.615-166.205,23.729-243.353,27.867l-.018-.466c77.132-4.138,156.733-13.252,243.312-27.864,8.152-1.371,16.454-2.772,24.483-4.143,21.361-3.629,43.449-7.378,65.324-10.835,61.706-9.79,120.148-21.582,176.668-32.99l12.211-2.464c12.176-2.459,24.536-5.04,36.487-7.559,42.081-8.819,85.6-17.929,129.743-23.24,17.74-2.132,35.507-3.78,56.726-5.574,19.277-1.575,42.081-3.165,64.986-3.009,36.578.252,65.926,7.849,89.721,23.24,18.808,12.168,35.111,28.663,51.3,51.908,9.842,14.131,18.7,29.17,27.262,43.711q2.333,3.966,4.656,7.895c2.341,3.951,4.662,8.011,7.119,12.3,16.17,28.262,34.494,60.292,65.211,73.367,38.833,16.7,84.709-8.5,118.205-26.9,16.127-8.852,31.815-18.221,46.38-27.025,26.239-15.966,52.115-32.98,77.142-49.434,14.277-9.389,29.041-19.1,43.613-28.434,14.668-9.4,30.4-19.443,46.085-29.162,30.177-18.677,70.351-42.474,113.491-60.859,44.81-19.151,91.566-28.711,127.292-34.907l.058.461c-35.7,6.2-82.439,15.774-127.207,34.892-43.117,18.372-83.273,42.159-113.443,60.831-15.676,9.716-31.41,19.755-46.078,29.157-14.572,9.339-29.333,19.045-43.611,28.431-25.027,16.457-50.9,33.473-77.152,49.444-14.57,8.819-30.273,18.176-46.4,27.03C1182.517,352.826,1149.341,371.049,1117.654,371.049Z" transform="translate(14.253 44.456)"/>
        <path id="パス_4392" data-name="パス 4392" d="M1117.707,386.07a67.085,67.085,0,0,1-29.872-6.68c-31.276-15.134-49-51.112-64.639-82.855-2.157-4.372-4.191-8.5-6.244-12.549q-1.844-3.631-3.694-7.295c-8.429-16.666-17.135-33.9-27.035-50.064-15.764-25.947-31.843-44.42-50.6-58.143-23.807-17.528-53.236-26.5-89.973-27.431-19.322-.416-40.053.774-65.246,3.744-20.683,2.485-39.506,5.292-57.55,8.567-44.808,8.139-89.1,20.494-131.936,32.443-12.5,3.485-25.415,7.088-38.128,10.523C486.492,214.236,426.329,230.08,361.3,242.7c-26.793,5.2-58.46,11.206-90.107,16.316-40.62,6.572-81.582,11.17-125.236,14.056-38.755,2.56-78.919,3.712-122.791,3.528v-.408c92.568.418,171.348-5.168,247.969-17.566,31.649-5.11,63.306-11.115,90.1-16.313,65.012-12.617,125.17-28.474,191.459-46.365,12.71-3.435,25.629-7.04,38.122-10.523,42.837-11.952,87.146-24.309,131.966-32.45,18.049-3.276,36.88-6.08,57.568-8.567,25.2-2.971,45.952-4.16,65.289-3.744,36.8.932,66.292,9.923,90.152,27.491,18.8,13.746,34.91,32.254,50.7,58.246,9.9,16.177,18.621,33.418,27.05,50.092l3.694,7.307c2.056,4.047,4.092,8.179,6.247,12.554,15.61,31.687,33.3,67.6,64.47,82.681,36.79,17.921,78.719-3.157,118.515-26.282,13.678-7.948,28.341-17.1,46.146-28.8,27.093-17.891,53.766-37.193,79.559-55.867,13.224-9.575,26.9-19.473,40.4-29.013,14.449-10.213,30-21.141,45.8-31.876,44.243-30.034,79.11-50.444,113.052-66.186,44.77-20.794,91.628-31.332,127.453-38.188l.056.4c-35.8,6.854-82.65,17.387-127.377,38.165-33.927,15.734-68.791,36.137-113.007,66.158-15.8,10.734-31.349,21.671-45.8,31.873-13.5,9.538-27.174,19.438-40.4,29.011-25.8,18.677-52.473,37.989-79.571,55.875-17.81,11.7-32.478,20.857-46.161,28.809-18.216,10.583-37.689,21.444-57.911,27.753A104.74,104.74,0,0,1,1117.707,386.07Z" transform="translate(9.503 42.172)"/>
        <path id="パス_4393" data-name="パス 4393" d="M1117.564,401.119a65.17,65.17,0,0,1-31.725-7.879c-14.083-7.63-26.546-20.524-38.1-39.413-10.1-16.515-17.941-34.827-25.523-52.536-1.938-4.536-3.78-8.8-5.622-13.007l-1.829-4.185c-8.567-19.617-17.437-39.9-27.718-58.964-15.434-28.678-31.329-49.164-50.021-64.475-24.107-19.811-53.685-30.172-90.422-31.679-19.494-.756-40.93.7-65.536,4.478-18.984,2.938-38.085,6.718-58.392,11.558-45.894,11.148-91.4,26.834-135.408,42-12.632,4.352-25.69,8.852-38.523,13.161-57.482,19.3-124.623,41.227-194.067,57.288-33.574,7.648-63.144,13.418-90.406,17.639-39.866,6.179-81.391,9.6-126.916,10.45-37.437.7-77.4-.307-125.767-3.175l.015-.345c73.579,4.362,161.118,6.909,252.631-7.275,27.254-4.218,56.82-9.986,90.386-17.639,69.431-16.049,136.575-37.976,194.042-57.271,12.831-4.309,25.891-8.819,38.521-13.161,44.014-15.164,89.527-30.843,135.428-42,20.312-4.843,39.418-8.623,58.41-11.561,24.624-3.78,46.078-5.244,65.586-4.483,36.789,1.512,66.425,11.894,90.583,31.75,18.727,15.326,34.648,35.835,50.114,64.561,10.3,19.065,19.163,39.357,27.741,58.982l1.829,4.185c1.852,4.206,3.684,8.484,5.622,13.012,15,35.026,32,74.728,63.482,91.79,37.546,20.411,81.023-2.548,118.825-25.664,14.418-8.865,29.437-18.866,45.914-30.573,27.645-19.687,54.816-41.194,81.093-61.988,12.461-9.863,25.347-20.06,38.075-29.9,14.28-11.037,29.678-22.87,45.523-34.59,43.717-32.327,78.45-54.38,112.614-71.513A412.113,412.113,0,0,1,1590.7,113.7c19.138-5.975,39.773-11.211,64.931-16.475l.053.343c-35.9,7.509-82.844,19.007-127.546,41.441-34.149,17.135-68.87,39.173-112.573,71.488-15.842,11.72-31.246,23.55-45.518,34.587-12.725,9.827-25.609,20.035-38.07,29.9-26.279,20.8-53.456,42.31-81.108,61.988-16.48,11.712-31.5,21.716-45.929,30.586-17.077,10.442-37.041,22.129-57.9,28.625A99.178,99.178,0,0,1,1117.564,401.119Z" transform="translate(4.752 39.879)"/>
        <path id="パス_4394" data-name="パス 4394" d="M1117.329,416.182q-1.618,0-3.2-.071a63.958,63.958,0,0,1-30.278-9.024c-14.29-8.567-26.756-22.9-38.1-43.807-9.921-18.271-17.777-39.35-24.709-57.956-1.651-4.43-3.21-8.615-4.788-12.753l-1.29-3.384c-19.193-50.319-39.04-102.353-76.532-136.356s-87.315-43.767-156.706-30.707c-67.348,12.687-133.236,39.6-196.947,65.639-13.143,5.37-26.733,10.923-40.065,16.24-44.384,17.694-92.284,36.25-141.816,52.1-52.818,16.9-100.425,28.363-145.54,35.053-39.561,5.866-81.642,8.106-128.6,6.846C82.015,296.743,35.4,292.071,0,288.135l.023-.285c95.25,10.583,175.451,15.157,257.295,3.024,100.977-14.973,197.3-51.256,287.306-87.138,13.335-5.317,26.924-10.868,40.065-16.238,63.721-26.037,129.612-52.962,196.99-65.654,31.085-5.854,57.719-7.056,81.433-3.692a150.578,150.578,0,0,1,39.385,11,134.037,134.037,0,0,1,36.074,23.462c16.8,15.237,31.611,35.64,45.279,62.378,12.1,23.649,21.87,49.29,31.327,74.083l1.29,3.384c1.58,4.138,3.14,8.315,4.788,12.755,14.4,38.644,30.742,82.446,62.7,101.615,36.621,21.955,78.9.937,119.14-25.047,44.835-28.95,86.992-65.208,127.755-100.272,11.878-10.218,24.163-20.781,36.3-30.979,51.211-43.034,101.784-84.145,157.416-114.148a399.391,399.391,0,0,1,62.7-26.892,654.638,654.638,0,0,1,65.072-17.848l.048.28c-35.991,8.169-83.038,20.635-127.71,44.724-55.613,29.986-106.176,71.092-157.376,114.118-12.136,10.2-24.417,20.761-36.286,30.976-40.773,35.068-82.935,71.334-127.783,100.289-17.057,11.014-37.273,23.135-57.88,29.527A95.068,95.068,0,0,1,1117.329,416.182Z" transform="translate(0 37.588)"/>
        <path id="パス_4395" data-name="パス 4395" d="M1559.794,350.944c-25.478-24.074-43.064-50.694-53.763-81.391-9.361-26.846-12.188-52.46-14.922-77.233-3.145-28.474-6.113-55.373-19.524-76.822-14.817-23.7-41.116-38.936-82.764-47.947-86.715-18.758-201.869,25.886-342.266,132.692-5.259,4-10.47,8-15.983,12.224-45.8,35.1-97.711,74.892-151.149,96.552-27.338,11.087-53.168,16.631-77.732,16.631-30.671,0-59.385-8.643-86.682-25.954-54.071-34.3-95.066-90.565-134.71-144.978l-2.968-4.075c-5.99-8.217-11.881-16.586-18.118-25.45C528.493,81.562,496.72,36.444,454.939,12.035c-48.1-28.1-88.1,5.022-113.178,37.75-40.919,53.4-69.043,120.3-96.242,185-4.395,10.45-8.938,21.257-13.418,31.72l-1.1-.638c4.48-10.46,9.021-21.265,13.413-31.712,27.234-64.785,55.4-131.775,96.431-185.318,25.365-33.1,65.858-66.571,114.645-38.07,18.805,10.984,37.392,27.31,56.794,49.91,17.135,19.944,32.758,42.147,47.877,63.621,6.232,8.852,12.12,17.215,18.1,25.423l2.971,4.077c39.561,54.31,80.488,110.472,134.36,144.638,109.749,69.625,223.166-17.306,314.3-87.158,5.516-4.228,10.727-8.222,15.988-12.226,57.732-43.918,112.085-77.775,161.546-100.632,32.6-15.064,63.59-25.581,92.11-31.261,32.536-6.478,62.651-6.8,89.51-1.008,41.975,9.071,68.517,24.493,83.532,48.509,13.595,21.746,16.583,48.819,19.748,77.485,5.385,48.774,11.488,104.069,68.24,157.683Z" transform="translate(94.743 0)"/>
        <path id="パス_4396" data-name="パス 4396" d="M1563.673,351.3c-24.488-23.649-41.595-49.938-52.307-80.367-9.371-26.625-12.574-52.14-15.673-76.814-3.628-28.907-7.055-56.21-20.758-77.782C1459.8,92.509,1433.408,77.5,1391.888,69.1c-60.789-12.33-136.827,7.383-226,58.589-35.136,20.174-71.356,44.586-110.726,74.635-4.908,3.744-9.986,7.648-14.9,11.422-33.423,25.675-67.988,52.221-104.681,73.506-37.273,21.62-70.638,33.957-102,37.719a160.834,160.834,0,0,1-52.506-2.107A165.813,165.813,0,0,1,728.253,301.3c-27.262-16.858-53.211-40.368-81.665-73.992-18.37-21.708-35.726-45.1-52.513-67.725l-6.577-8.86c-5.173-6.95-10.256-13.947-15.638-21.353-26.942-37.084-54.8-75.429-89.106-100.793A176.218,176.218,0,0,0,460.97,14.717c-48.739-25.959-89.434,7.7-114.985,40.5-41.97,53.813-71.4,121.012-99.871,185.989-4.611,10.525-9.381,21.419-14.083,31.959l-1.058-.64c4.7-10.54,9.467-21.419,14.078-31.951,28.5-65.062,57.974-132.339,100.037-186.288,17.029-21.862,34.862-36.79,53-44.4,21.051-8.819,42.371-7.62,63.369,3.568A177.272,177.272,0,0,1,483.381,27.4C517.85,52.88,545.77,91.315,572.77,128.472c5.38,7.4,10.46,14.4,15.623,21.343q3.276,4.415,6.579,8.86c16.774,22.605,34.118,45.982,52.46,67.66,28.368,33.514,54.224,56.948,81.375,73.738,60.1,37.162,125.634,32.692,206.241-14.061,36.631-21.247,71.162-47.771,104.555-73.423,4.914-3.78,9.994-7.678,14.9-11.425,39.41-30.079,75.671-54.519,110.853-74.718C1205.91,103.161,1244.141,86.19,1278.99,76c41.829-12.226,79.878-15.008,113.1-8.27,41.829,8.462,68.469,23.644,83.8,47.781,13.882,21.849,17.329,49.321,20.983,78.407,6.1,48.572,13.01,103.626,67.559,156.313Z" transform="translate(94.732 1.667)"/>
        <path id="パス_4397" data-name="パス 4397" d="M1567.549,351.692c-23.495-23.215-40.121-49.157-50.83-79.3-9.371-26.388-12.937-51.783-16.379-76.351-4.122-29.364-8.018-57.1-22.021-78.818-15.472-23.986-41.96-38.78-83.363-46.554-59.743-11.294-134.511,8.819-222.227,59.77-34.353,19.95-69.99,44.158-108.952,73.99-4.548,3.48-9.245,7.1-13.791,10.6-33.219,25.574-67.569,52.019-104.069,73.224C909.3,309.52,876.438,321.706,845.439,325.5a160.7,160.7,0,0,1-51.772-1.842,165.256,165.256,0,0,1-52.178-20.728,277.541,277.541,0,0,1-44.1-33.421,454.876,454.876,0,0,1-39.292-41.2c-17.548-20.617-34.29-42.814-50.477-64.278-3.276-4.339-6.657-8.819-9.974-13.2-4.3-5.66-8.711-11.564-12.977-17.271-28.764-38.5-58.51-78.306-95.353-103.21A179.582,179.582,0,0,0,467,17.422C417.635-6.434,376.234,27.778,350.2,60.677c-43.008,54.237-73.75,121.728-103.5,187.014-4.823,10.583-9.827,21.547-14.733,32.166l-1.008-.64c4.919-10.614,9.908-21.565,14.733-32.156C275.438,181.71,306.23,114.13,349.347,59.767c17.387-21.955,35.5-37.135,53.876-45.12,21.328-9.268,42.935-8.751,64.218,1.532A180.5,180.5,0,0,1,489.9,29.2c37,25.014,66.818,64.908,95.66,103.489,4.266,5.707,8.676,11.606,12.97,17.263,3.319,4.377,6.7,8.865,9.976,13.2,16.177,21.451,32.906,43.631,50.429,64.22,28.978,34.038,55.381,57.671,83.091,74.37,59.647,35.945,124.27,31.276,203.383-14.691,36.429-21.167,70.752-47.589,103.943-73.143,4.536-3.5,9.243-7.119,13.791-10.6,39-29.883,74.678-54.108,109.068-74.078,39.919-23.182,77.459-40.176,111.578-50.492a291.221,291.221,0,0,1,56.6-11.518,196.353,196.353,0,0,1,54.743,2.114c41.718,7.834,68.441,22.792,84.1,47.075,14.177,21.98,18.092,49.875,22.237,79.407,6.783,48.333,14.474,103.114,66.821,154.841Z" transform="translate(94.724 3.306)"/>
        <path id="パス_4398" data-name="パス 4398" d="M1571.425,352.1a209.56,209.56,0,0,1-49.331-78.185c-9.361-26.126-13.275-51.387-17.057-75.817-4.624-29.855-8.991-58.054-23.308-79.937-15.814-24.173-42.416-38.758-83.716-45.9-59.513-10.407-130.973,9.535-218.452,60.957-33.552,19.705-68.61,43.694-107.173,73.327-4.175,3.205-8.482,6.529-12.647,9.744-33.027,25.48-67.176,51.843-103.479,72.974-35.963,20.932-68.333,32.969-98.961,36.789a160.637,160.637,0,0,1-51.044-1.577,164.6,164.6,0,0,1-51.518-19.907,273.456,273.456,0,0,1-45.022-33.562,451.893,451.893,0,0,1-40.065-41.686c-16.817-19.655-33-40.786-48.633-61.232-4.319-5.644-8.787-11.48-13.166-17.15-3.369-4.357-6.824-8.86-10.165-13.217C567.041,97.763,535.349,56.445,495.9,32.142a183.032,183.032,0,0,0-22.852-12c-49.983-21.756-92.09,13.012-118.613,46.012-44.077,54.68-76.147,122.5-107.158,188.085-5.04,10.644-10.236,21.648-15.371,32.324l-.975-.635c5.128-10.671,10.331-21.671,15.371-32.314,31.047-65.659,63.149-133.551,107.325-188.35,17.719-22.049,36.142-37.472,54.753-45.841,21.61-9.719,43.5-9.885,65.065-.5a184.478,184.478,0,0,1,22.986,12.073c39.622,24.425,71.379,65.833,102.091,105.876,3.341,4.357,6.8,8.86,10.165,13.214,4.379,5.672,8.85,11.508,13.169,17.155,15.638,20.426,31.805,41.547,48.6,61.171,29.6,34.575,56.55,58.407,84.807,75,59.161,34.743,122.877,29.875,200.523-15.318,36.243-21.1,70.361-47.428,103.361-72.894,4.165-3.215,8.472-6.552,12.645-9.744,38.6-29.666,73.7-53.672,107.287-73.408,39.294-23.1,76.144-40.1,109.527-50.543a290.45,290.45,0,0,1,55.645-11.936,194.613,194.613,0,0,1,53.952,1.4c41.6,7.2,68.436,21.943,84.439,46.4,14.479,22.132,18.869,50.48,23.518,80.493,7.441,48.051,15.875,102.512,66.019,153.254Z" transform="translate(94.716 4.923)"/>
        <path id="パス_4399" data-name="パス 4399" d="M1575.308,352.531c-48.217-50.011-57.4-104.321-65.5-152.241-5.133-30.377-9.981-59.065-24.621-81.139-16.172-24.377-42.9-38.778-84.11-45.291C1342.645,64.495,1272.42,84.822,1186.392,136c-32.743,19.463-67.219,43.235-105.4,72.679q-5.685,4.384-11.475,8.867c-32.838,25.4-66.793,51.674-102.918,72.742-35.318,20.6-67.2,32.491-97.454,36.359a160.328,160.328,0,0,1-50.313-1.31,164.047,164.047,0,0,1-50.853-19.1,269.231,269.231,0,0,1-45.954-33.7,450.158,450.158,0,0,1-40.857-42.177c-16.162-18.778-31.823-38.964-46.97-58.483-5.314-6.846-10.81-13.93-16.2-20.789q-3.6-4.566-7.224-9.195C578.234,100.445,544.579,57.568,502.45,33.967A185.88,185.88,0,0,0,479.064,22.88c-40.612-15.8-81.138.61-120.423,48.764C313.493,126.777,280.1,194.936,247.8,260.852c-5.234,10.679-10.644,21.721-15.976,32.438l-.932-.627c5.329-10.714,10.74-21.756,15.971-32.433,32.327-65.982,65.752-134.209,110.993-189.443,18.07-22.144,36.789-37.813,55.638-46.569C435.39,14.048,457.565,13.2,479.4,21.7a187.047,187.047,0,0,1,23.515,11.14c18.944,10.611,37.969,26.206,58.16,47.66,17.845,18.964,34.443,40.116,50.495,60.567q3.629,4.621,7.224,9.195c5.395,6.861,10.891,13.945,16.208,20.794,15.137,19.509,30.79,39.68,46.929,58.435,30.238,35.129,57.737,59.163,86.526,75.638,58.649,33.559,121.456,28.489,197.661-15.951,36.066-21.033,69.993-47.28,102.809-72.664l11.478-8.867c38.208-29.462,72.71-53.269,105.5-72.753,39.216-23.334,74.373-39.881,107.476-50.593a287.548,287.548,0,0,1,54.68-12.347,193.591,193.591,0,0,1,53.156.683c41.509,6.552,68.459,21.093,84.818,45.758,14.8,22.311,19.667,51.153,24.828,81.668,8.064,47.723,17.205,101.8,65.153,151.545Z" transform="translate(94.701 6.522)"/>
        <path id="パス_4400" data-name="パス 4400" d="M1579.187,353c-45.994-48.95-55.842-102.809-64.528-150.348-11.68-63.9-20.915-114.373-110.512-127.135-57.351-8.333-126.342,12.38-210.91,63.326-31.929,19.2-65.81,42.756-103.625,72.014q-5.1,3.944-10.273,7.96c-32.662,25.327-66.435,51.533-102.391,72.541-34.685,20.267-66.073,32.02-95.955,35.933a160.183,160.183,0,0,1-49.588-1.043,163.2,163.2,0,0,1-50.175-18.3c-15.794-8.8-31.135-19.871-46.894-33.834A449.315,449.315,0,0,1,692.7,231.442c-15.567-18-30.762-37.331-45.453-56.028-6.254-7.96-12.72-16.19-19.078-24.135l-4.18-5.216C589.534,103.049,553.914,58.571,509.015,35.81a189.459,189.459,0,0,0-23.923-10.157C444,11.513,402.88,28.85,362.863,77.175c-46.231,55.59-80.957,124.1-114.541,190.358-5.423,10.7-11.032,21.764-16.558,32.506l-.895-.622c5.526-10.742,11.133-21.807,16.555-32.506,33.615-66.319,68.373-134.894,114.69-190.582,18.42-22.245,37.437-38.158,56.525-47.3,22.174-10.624,44.639-12.151,66.748-4.536A190.25,190.25,0,0,1,509.431,34.7c20.181,10.233,40.405,25.911,61.824,47.927,18.931,19.458,36.5,41.4,53.5,62.61l4.18,5.216c6.36,7.95,12.828,16.182,19.085,24.145,14.683,18.685,29.865,38.007,45.42,55.986,30.9,35.7,58.936,59.934,88.244,76.27,58.1,32.39,120,27.121,194.8-16.578,35.9-20.978,69.648-47.154,102.282-72.47q5.178-4.014,10.273-7.958c37.835-29.285,71.762-52.866,103.719-72.095,38.591-23.248,73.075-39.813,105.425-50.649a287.828,287.828,0,0,1,53.735-12.776,192.18,192.18,0,0,1,52.362-.033c41.423,5.9,68.507,20.247,85.236,45.153,15.119,22.515,20.489,51.861,26.166,82.933,8.656,47.35,18.463,101.017,64.213,149.706Z" transform="translate(94.69 8.093)"/>
        <path id="パス_4401" data-name="パス 4401" d="M1583.069,353.464c-43.782-47.877-54.25-101.234-63.5-148.32-12.783-65.178-22.88-116.668-112.369-127.985-56.258-7.308-124.013,13.789-207.145,64.508-31.09,18.944-64.4,42.29-101.844,71.377q-4.483,3.477-9.031,7.018c-32.506,25.276-66.1,51.4-101.9,72.377-34.06,19.939-64.959,31.558-94.461,35.53a160.021,160.021,0,0,1-48.862-.776,162.225,162.225,0,0,1-49.489-17.515c-16.1-8.739-31.75-19.849-47.834-33.965a451.528,451.528,0,0,1-42.4-43.18c-15.038-17.291-29.792-35.852-44.059-53.8-7.151-9-14.549-18.307-21.832-27.26l-1.056-1.3c-36.384-44.6-74-90.714-121.708-112.505a192.476,192.476,0,0,0-24.458-9.233c-41.552-12.491-83.283,5.77-124.036,54.28-47.325,56.059-83.391,124.943-118.271,191.557-5.607,10.709-11.4,21.781-17.117,32.541l-.852-.615c5.71-10.755,11.506-21.827,17.112-32.534C282.864,207,318.961,138.054,366.366,81.909c18.773-22.348,38.09-38.508,57.417-48.036C446.257,22.787,469,20.589,491.367,27.322A193.62,193.62,0,0,1,515.941,36.6c21.444,9.8,42.885,25.531,65.543,48.1,20.028,19.947,38.581,42.691,56.522,64.684l1.058,1.3c7.287,8.961,14.686,18.269,21.842,27.27,14.26,17.939,29,36.49,44.026,53.763C736.5,268,765.086,292.444,794.891,308.621c57.538,31.246,118.528,25.768,191.938-17.21,35.749-20.93,69.326-47.048,101.8-72.319l9.031-7.018c37.47-29.107,70.807-52.475,101.937-71.437,37.971-23.167,71.785-39.75,103.371-50.694a287.037,287.037,0,0,1,52.781-13.191A191.05,191.05,0,0,1,1407.315,76c41.353,5.234,68.587,19.4,85.7,44.583,15.464,22.752,21.33,52.649,27.539,84.3,9.2,46.924,19.635,100.108,63.192,147.728Z" transform="translate(94.679 9.644)"/>
        <path id="パス_4402" data-name="パス 4402" d="M1586.942,353.962c-41.577-46.743-52.617-99.548-62.358-146.15-13.917-66.524-24.908-119.1-114.312-128.965-55.154-6.3-121.675,15.19-203.375,65.694-30.659,18.924-62.457,41.4-100.068,70.724q-3.85,3-7.749,6.048c-32.344,25.231-65.793,51.324-101.458,72.249-33.443,19.617-63.855,31.1-92.982,35.114a159.464,159.464,0,0,1-48.129-.5,161.511,161.511,0,0,1-48.8-16.747c-16.4-8.668-32.352-19.821-48.774-34.093a447.931,447.931,0,0,1-43.185-43.666c-14.555-16.654-28.908-34.522-42.787-51.793-8.011-9.968-16.293-20.277-24.465-30.165C612.949,108.84,572.652,60.25,522.13,39.575a195.193,195.193,0,0,0-24.992-8.315C455.137,20.4,412.8,39.575,371.3,88.3c-48.436,56.542-85.84,125.815-122.015,192.8-5.78,10.7-11.758,21.766-17.639,32.526l-.814-.6c5.886-10.757,11.863-21.822,17.639-32.521,36.2-67.04,73.637-136.361,122.146-192.994,19.131-22.454,38.75-38.863,58.314-48.779,22.769-11.536,45.788-14.416,68.421-8.567a196.42,196.42,0,0,1,25.1,8.346c22.371,9.155,44.651,24.541,68.119,47.04,21.532,20.645,42.1,45.445,58.626,65.372,8.177,9.9,16.462,20.207,24.475,30.18,13.872,17.266,28.222,35.119,42.759,51.755,32.254,36.888,61.386,61.524,91.679,77.538,56.162,29.686,118.009,23.85,189.078-17.84,35.61-20.892,69.043-46.965,101.355-72.178l7.746-6.048c37.641-29.338,69.464-51.83,100.156-70.764,37.359-23.094,70.5-39.692,101.322-50.742a285.577,285.577,0,0,1,51.823-13.607,190.015,190.015,0,0,1,50.772-1.467c41.3,4.556,68.693,18.556,86.216,44.057,15.819,23.019,22.195,53.493,28.943,85.762,9.711,46.44,20.718,99.08,62.091,145.6Z" transform="translate(94.674 11.162)"/>
        <path id="パス_4403" data-name="パス 4403" d="M1590.826,354.516c-39.372-45.591-50.936-97.769-61.139-143.8-15.079-68.035-26.99-121.776-116.348-130.149-54.786-5.37-118.21,15.875-199.6,66.881-39.128,24.47-74.839,51.709-98.294,70.071q-3.2,2.495-6.421,5.022c-32.208,25.2-65.516,51.261-101.058,72.158-32.833,19.3-62.759,30.659-91.49,34.721A155.892,155.892,0,0,1,820.96,313.2c-16.7-8.59-32.962-19.783-49.719-34.217a447.967,447.967,0,0,1-43.953-44.17c-14.111-16.069-28.1-33.3-41.617-49.958-8.832-10.883-17.964-22.137-26.995-32.894C616.69,102.125,577.935,59.422,528.7,41.488a198.313,198.313,0,0,0-25.526-7.381c-42.442-9.243-85.387,10.876-127.645,59.8-49.545,57.044-88.32,126.715-125.818,194.09-5.944,10.679-12.1,21.723-18.143,32.465l-.776-.592c6.048-10.74,12.2-21.781,18.143-32.46,37.525-67.423,76.328-137.144,125.944-194.279,42.484-49.185,85.707-69.4,128.466-60.09a198.663,198.663,0,0,1,25.634,7.413c23.119,8.416,46.05,23.263,70.1,45.385,21.318,19.6,40.667,42.1,60.262,65.357,9.036,10.765,18.173,22.023,27.007,32.909,13.514,16.654,27.489,33.872,41.59,49.928,32.954,37.5,62.633,62.343,93.4,78.17,55.547,28.577,116.459,22.535,186.215-18.47,35.494-20.867,68.774-46.909,100.957-72.092l6.421-5.022c23.475-18.372,59.216-45.632,98.372-70.127,36.752-23.026,69.225-39.642,99.281-50.792a285.459,285.459,0,0,1,50.868-14.03,188.773,188.773,0,0,1,49.978-2.182c41.242,3.878,68.822,17.722,86.768,43.585,16.192,23.329,23.087,54.428,30.386,87.38,10.173,45.9,21.7,97.921,60.9,143.3Z" transform="translate(94.657 12.646)"/>
        <path id="パス_4404" data-name="パス 4404" d="M1594.7,355.075c-37.188-44.4-49.217-95.822-59.831-141.186C1519.237,147.07,1505.736,89.364,1416.4,82.306c-53.819-4.251-116.043,17.387-195.828,68.066-37.946,24.059-73.259,51.153-96.51,69.421l-5.04,3.956c-32.085,25.2-65.264,51.236-100.7,72.118-32.231,18.987-61.675,30.22-90.016,34.338A155.223,155.223,0,0,1,834.211,315c-31.324-15.678-61.635-40.786-95.388-79.014-13.71-15.54-27.348-32.186-40.536-48.285-9.623-11.745-19.571-23.893-29.437-35.467C627.9,104.354,586.865,60.005,535.264,43.43a200.778,200.778,0,0,0-26.06-6.456c-42.865-7.638-86.43,13.408-129.444,62.555-50.676,57.558-90.822,127.647-129.648,195.428-6.093,10.641-12.4,21.645-18.6,32.355l-.738-.58c6.2-10.707,12.506-21.708,18.6-32.35,38.848-67.826,79.019-137.961,129.771-195.594,43.235-49.389,87.042-70.53,130.2-62.837a201.038,201.038,0,0,1,26.163,6.481c51.81,16.646,92.939,61.091,133.979,109.071,9.873,11.591,19.826,23.729,29.452,35.479,13.181,16.092,26.814,32.733,40.514,48.257,33.67,38.138,63.9,63.18,95.119,78.805,54.91,27.481,114.884,21.232,183.35-19.1,35.391-20.852,68.539-46.869,100.609-72.05l5.04-3.959c23.276-18.289,58.611-45.39,96.59-69.472,36.069-22.915,67.869-39.526,97.215-50.785a286.2,286.2,0,0,1,49.913-14.441,189.072,189.072,0,0,1,49.187-2.963c41.224,3.256,69,17.014,87.4,43.293,16.58,23.686,24.009,55.436,31.873,89.051,10.583,45.244,22.585,96.525,59.612,140.738Z" transform="translate(94.65 14.113)"/>
        <path id="パス_4405" data-name="パス 4405" d="M1598.589,355.671c-15.646-19.292-28.131-41.688-38.17-68.466-8.834-23.555-14.632-47.169-20.239-70-16.812-68.474-31.334-127.609-120.715-133.12-69.2-4.271-142.753,37.477-192.056,69.25-36.318,23.354-69.709,49.018-94.746,68.766l-3.6,2.84c-31.982,25.2-65.052,51.248-100.413,72.13-31.636,18.68-60.6,29.789-88.542,33.967a154.527,154.527,0,0,1-92.662-14.2c-31.765-15.459-62.618-40.763-97.1-79.642-13.355-15.048-26.66-31.163-39.539-46.745-10.382-12.566-21.119-25.569-31.793-37.9C639.151,106.623,595.724,60.528,541.81,45.4a202.852,202.852,0,0,0-26.594-5.531C471.94,33.825,427.777,55.8,383.973,105.19,332.15,163.274,290.62,233.8,250.459,302.008c-6.232,10.583-12.677,21.529-19.022,32.191l-.7-.564c6.345-10.659,12.788-21.6,19.022-32.188C289.943,233.2,331.5,162.629,383.38,104.476c44-49.608,88.4-71.674,131.938-65.586a203.29,203.29,0,0,1,26.693,5.544c24.606,6.9,48.837,20.663,74.083,42.061,22.678,19.226,43.928,42.764,63.522,65.337,10.682,12.347,21.419,25.347,31.81,37.916,12.874,15.578,26.186,31.684,39.516,46.723,34.406,38.785,65.175,64.029,96.84,79.438,54.247,26.4,113.284,19.944,180.488-19.733,35.313-20.852,68.36-46.889,100.319-72.067l3.606-2.84c25.047-19.763,58.46-45.443,94.806-68.817,35.464-22.855,66.594-39.486,95.159-50.825a286.943,286.943,0,0,1,48.958-14.867,188.114,188.114,0,0,1,48.381-3.681c41.222,2.54,69.212,16.182,88.088,42.925,16.989,24.072,24.959,56.537,33.4,90.91,10.941,44.561,23.344,95.063,58.208,138.064Z" transform="translate(94.635 15.546)"/>
        <path id="パス_4406" data-name="パス 4406" d="M1602.482,356.3c-14.683-18.732-26.609-40.569-36.462-66.753-8.676-23.059-14.643-46.307-20.411-68.791-18.029-70.263-33.6-130.943-123.071-134.869-2.291-.1-4.6-.151-6.9-.151-65.652,0-134.612,40-181.385,70.588-35.071,22.88-68.106,48.421-92.967,68.114l-2.117,1.676C1107.278,251.33,1074.3,277.405,1039,298.3c-31.049,18.375-59.531,29.369-87.075,33.607a158.381,158.381,0,0,1-45.238.59,156.554,156.554,0,0,1-45.987-13.8c-32.186-15.222-63.585-40.728-98.815-80.267-13-14.615-26.027-30.238-38.621-45.342-11.128-13.342-22.628-27.139-34.086-40.2C648.749,106.971,604.574,61,548.367,47.418a204.312,204.312,0,0,0-27.128-4.6c-43.669-4.475-88.431,18.428-133.047,68.073C335.2,169.513,292.282,240.5,250.77,309.145c-6.358,10.515-12.932,21.386-19.4,31.982l-.663-.549c6.471-10.583,13.043-21.464,19.4-31.977,41.534-68.686,84.48-139.707,137.525-198.4,20.595-22.93,41.426-40.348,61.917-51.8,23.981-13.4,48.129-18.959,71.757-16.538a205.359,205.359,0,0,1,27.214,4.621c25.367,6.111,50.24,19.332,76.076,40.38,23.749,19.355,45.357,42.837,65.15,65.329,11.468,13.07,22.968,26.871,34.091,40.219,12.6,15.119,25.607,30.742,38.6,45.319,35.152,39.453,66.471,64.9,98.558,80.073,53.562,25.332,111.661,18.672,177.625-20.365,35.252-20.864,68.209-46.924,100.083-72.128l2.117-1.673c24.873-19.7,57.926-45.256,93.022-68.159,34.887-22.812,65.344-39.453,93.118-50.878a285.9,285.9,0,0,1,48-15.278,187.623,187.623,0,0,1,47.6-4.4c21.744.952,39.65,5.153,54.741,12.851a92.742,92.742,0,0,1,34.106,29.782c17.417,24.505,25.954,57.739,34.97,92.921,11.238,43.795,23.976,93.433,56.7,135.176Z" transform="translate(94.622 16.946)"/>
        <path id="パス_4407" data-name="パス 4407" d="M1606.349,356.961c-13.726-18.143-25.082-39.39-34.718-64.936-8.494-22.52-14.595-45.357-20.494-67.448-19.284-72.2-35.938-134.559-125.55-136.852-65.4-1.673-132.959,37.394-184.515,71.621-33.577,22.24-64.938,46.584-91.187,67.463l-.552.441c-31.83,25.266-64.742,51.4-100.007,72.319-30.47,18.075-58.473,28.953-85.609,33.262a157.967,157.967,0,0,1-44.518.867,154.981,154.981,0,0,1-45.271-13.088c-32.594-14.973-64.538-40.678-100.541-80.887-12.692-14.189-25.438-29.366-37.765-44.042-11.843-14.086-24.064-28.65-36.286-42.4C660.105,109.33,613.355,61.436,554.915,49.466a203.958,203.958,0,0,0-27.663-3.676C483.2,42.869,437.839,66.7,392.414,116.625c-54.176,59.183-98.5,130.646-141.362,199.754-6.466,10.422-13.154,21.2-19.735,31.71l-.627-.532c6.582-10.508,13.269-21.285,19.735-31.707,42.9-69.142,87.252-140.639,141.471-199.883,20.975-23.051,42.111-40.738,62.822-52.561,24.294-13.872,48.718-20.1,72.591-18.518a204.109,204.109,0,0,1,27.753,3.689c26.083,5.34,51.614,18.007,78.049,38.725,24.838,19.466,47.7,43.946,66.776,65.327,12.236,13.756,24.475,28.325,36.308,42.416,12.322,14.673,25.065,29.845,37.75,44.021,35.915,40.136,67.783,65.783,100.289,80.708,52.853,24.279,110.018,17.409,174.76-21,35.22-20.9,68.113-47.007,99.921-72.259l.554-.438c26.262-20.889,57.639-45.246,91.24-67.5,34.786-23.094,63.724-39.277,91.067-50.928,34.585-14.736,65.284-21.545,93.849-20.814,90.172,2.311,106.9,64.954,126.274,137.487,11.47,42.943,24.468,91.613,55.053,132.057Z" transform="translate(94.616 18.312)"/>
        <path id="パス_4408" data-name="パス 4408" d="M1610.234,357.666c-12.776-17.543-23.55-38.153-32.937-63-8.285-21.923-14.484-44.316-20.479-65.962-20.587-74.317-38.352-138.48-128.166-139.1h-1.058c-63.522,0-129.348,38.873-179.684,72.823-32.138,21.6-61.965,44.871-89.4,66.8-29.8,23.757-63.578,50.684-98.83,71.649-29.9,17.777-57.422,28.542-84.15,32.911a157.417,157.417,0,0,1-43.795,1.144,153.538,153.538,0,0,1-44.551-12.39c-18.2-8.114-36.018-19.488-54.469-34.774-15.172-12.569-30.8-27.862-47.776-46.75-12.4-13.809-24.893-28.567-36.973-42.837-12.536-14.8-25.478-30.1-38.458-44.5C669.677,109.631,622.105,61.8,561.47,51.531a205.305,205.305,0,0,0-28.194-2.754c-44.407-1.381-90.379,23.381-136.633,73.6-55.363,59.758-101.123,131.717-145.379,201.3-6.552,10.314-13.342,20.98-20.018,31.384l-.592-.5c6.675-10.4,13.456-21.068,20.015-31.382,44.276-69.62,90.059-141.614,145.47-201.423,21.363-23.182,42.8-41.136,63.729-53.335,24.609-14.348,49.313-21.24,73.425-20.491a205.807,205.807,0,0,1,28.285,2.759c26.816,4.536,53,16.661,80.035,37.042,25.821,19.471,49.069,43.951,68.4,65.327,12.99,14.406,25.942,29.711,38.465,44.515,12.075,14.27,24.561,29.023,36.956,42.822,36.7,40.821,69.109,66.68,102,81.34,52.123,23.235,108.353,16.162,171.9-21.628,35.21-20.94,68.965-47.849,98.75-71.591,27.466-21.923,57.3-45.213,89.454-66.846,34.212-23.072,62.492-39.269,89.016-50.976,33.884-14.96,64.016-22.142,92.1-21.948,21.8.149,39.9,3.951,55.333,11.629,13.924,6.924,25.45,16.933,35.277,30.6,18.344,25.549,28.018,60.476,38.261,97.459,12.2,44.044,24.81,89.588,53.274,128.675Z" transform="translate(94.602 19.636)"/>
        <path id="パス_4409" data-name="パス 4409" d="M231.183,362.118l-.557-.5c6.751-10.281,13.607-20.811,20.244-30.994C296.542,260.5,343.766,188,400.392,127.6,446.265,78.39,493,52.628,539.28,51.023A166.92,166.92,0,0,1,568.1,52.852c27.547,3.737,54.375,15.308,82.021,35.373,26.927,19.544,51.571,45.178,70.031,65.327,13.723,15.043,27.38,31.054,40.564,46.541,11.843,13.9,24.092,28.27,36.22,41.716,23.593,26.141,60.012,63.081,103.719,81.975,51.369,22.2,106.659,14.922,169.033-22.26,35.184-20.98,69.472-48.431,97.013-70.487,27.378-21.965,56.948-45.188,87.677-66.191,33.657-23.064,61.3-39.279,86.977-51.029,33.184-15.187,62.744-22.736,90.348-23.082,21.847-.282,40.065,3.336,55.688,11.034,14.083,6.937,25.833,17.117,35.92,31.122,18.846,26.171,29.111,62.043,39.98,100.02,12.287,42.935,24.989,87.33,51.354,125.006l-.544.517c-26.443-37.8-39.168-82.262-51.475-125.263-21.734-75.95-40.537-141.635-128.673-141.635-.756,0-1.494,0-2.253.013-62.262.779-127.287,39.954-176.96,74-30.712,20.99-60.269,44.2-87.635,66.158-27.567,22.071-61.877,49.54-97.1,70.54-29.331,17.488-56.381,28.144-82.693,32.581a156.952,156.952,0,0,1-43.074,1.421,151.857,151.857,0,0,1-43.83-11.7c-18.5-8-36.628-19.4-55.421-34.867-15.331-12.614-31.206-28.081-48.537-47.282-12.135-13.453-24.387-27.829-36.233-41.731-13.191-15.479-26.834-31.5-40.549-46.506-43.424-47.4-91.85-92.372-151.653-100.486A166.759,166.759,0,0,0,539.3,51.849c-46.113,1.6-92.689,27.29-138.437,76.351-56.578,60.352-103.784,132.828-149.426,202.917C244.795,341.309,237.934,351.842,231.183,362.118Z" transform="translate(94.59 20.896)"/>
        <path id="パス_4410" data-name="パス 4410" d="M231.121,369.186l-.522-.474c6.8-10.135,13.723-20.514,20.411-30.548,47.086-70.638,95.774-143.683,153.637-204.691,22.159-23.49,44.208-41.96,65.538-54.892,25.249-15.313,50.517-23.53,75.091-24.427a208.538,208.538,0,0,1,29.343.9c62.016,6.41,111.465,51.382,155.662,99.029,14.446,15.623,28.766,32.312,42.615,48.454,11.629,13.554,23.651,27.567,35.53,40.685,26.143,28.852,61.754,64.316,105.437,82.61,50.6,21.189,104.948,13.7,166.17-22.893,32.506-19.428,62.386-42.918,95.3-69.383,26.672-21.477,55.27-44.233,85.911-65.531,20.836-14.514,52.312-35.6,84.918-51.074,32.491-15.416,61.471-23.336,88.6-24.216,21.923-.706,40.272,2.709,56.119,10.452,14.26,6.965,26.236,17.346,36.618,31.75,19.38,26.866,30.238,63.752,41.756,102.809,12.287,41.7,24.992,84.812,49.27,121.012l-.524.476c-24.347-36.3-37.069-79.483-49.374-121.239-11.485-38.979-22.336-75.8-41.635-102.557-21.592-29.933-50.9-43.255-92.213-41.915-60.319,1.935-121.4,39.083-173.183,75.164-30.634,21.285-59.216,44.034-85.858,65.516-32.932,26.481-62.837,49.983-95.37,69.434-38.76,23.167-74.791,34.7-108.857,34.7a148.162,148.162,0,0,1-57.835-11.768c-18.8-7.872-37.241-19.307-56.379-34.955-15.474-12.655-31.6-28.3-49.291-47.821-11.888-13.126-23.916-27.144-35.547-40.7-13.844-16.127-28.162-32.823-42.6-48.434-44.11-47.549-93.453-92.432-155.269-98.823a208.154,208.154,0,0,0-29.263-.9C499.609,56.6,453.735,82.48,405.1,134.051c-57.818,60.965-106.488,133.982-153.556,204.6C244.841,348.68,237.927,359.059,231.121,369.186Z" transform="translate(94.579 22.144)"/>
        <path id="パス_4411" data-name="パス 4411" d="M231.059,376.344l-.489-.454c6.839-9.968,13.791-20.159,20.514-30.029,48.522-71.185,98.694-144.792,157.814-206.427,22.89-23.986,44.624-42.2,66.443-55.688,25.576-15.8,51.127-24.679,75.943-26.388a210,210,0,0,1,29.875-.028c29,2.1,57.125,12.569,85.987,32,28.756,19.405,54.27,45.107,73.284,65.367,15.154,16.187,30.135,33.539,44.624,50.316,11.425,13.232,23.238,26.912,34.89,39.725C846.654,274.1,882.975,310.1,927.1,327.983c49.8,20.184,103.217,12.488,163.3-23.525,32.41-19.428,62.756-43.381,93.571-68.287,27.827-22.527,55.184-44.442,84.115-64.881,22.243-15.762,51.765-35.817,82.87-51.125,31.8-15.648,60.2-23.938,86.849-25.347,22-1.162,40.514,2.069,56.6,9.88,14.451,7.015,26.677,17.639,37.372,32.46,19.95,27.65,31.43,65.624,43.593,105.833,12.191,40.317,24.8,82,47.012,116.653l-.5.436c-22.273-34.741-34.895-76.482-47.1-116.847-12.138-40.141-23.6-78.054-43.477-105.6-22.293-30.9-51.989-44.263-93.47-42.076-58.7,3.1-118.586,40.345-169.428,76.368-28.9,20.428-56.263,42.333-84.079,64.855-30.835,24.909-61.2,48.885-93.642,68.328-60.246,36.109-113.823,43.817-163.789,23.565-19.1-7.741-37.853-19.2-57.336-35.026-15.827-12.851-31.73-28.222-50.046-48.366-11.657-12.821-23.472-26.5-34.9-39.738-14.484-16.775-29.459-34.118-44.6-50.3-44.823-47.741-95.091-92.548-158.9-97.157a208.909,208.909,0,0,0-29.8.028c-46,3.157-92.45,29.941-142.008,81.867-59.08,61.6-109.237,135.179-157.741,206.341C244.853,356.185,237.9,366.385,231.059,376.344Z" transform="translate(94.567 23.301)"/>
        <path id="パス_4412" data-name="パス 4412" d="M231,383.554l-.454-.431c6.851-9.777,13.814-19.773,20.549-29.439,49.978-71.755,101.657-145.951,162.06-208.234C463.744,93.038,510.89,65.3,557.293,60.638a211.221,211.221,0,0,1,30.4-.958c29.721,1.273,58.5,11.191,87.97,30.321,23.132,15.013,46.234,35.169,74.909,65.354,15.852,16.732,31.478,34.716,46.589,52.108,11.233,12.932,22.85,26.3,34.287,38.831,27.292,29.885,64.331,66.428,108.882,83.88,48.983,19.191,101.464,11.289,160.438-24.158,32.319-19.43,63.094-43.845,91.845-67.176,24.911-20.259,53.143-43.223,82.33-64.223,21.905-15.8,50.888-35.89,80.824-51.178,31.1-15.875,58.939-24.543,85.1-26.476,22.1-1.635,40.8,1.416,57.157,9.323,14.663,7.091,27.156,17.987,38.188,33.3,20.552,28.537,32.657,67.685,45.475,109.129,11.989,38.773,24.387,78.871,44.561,111.88l-.476.4c-20.222-33.093-32.634-73.229-44.636-112.044-12.8-41.386-24.888-80.478-45.372-108.922-23.046-32-53.189-45.47-94.862-42.389-56.9,4.206-113.244,39.76-165.648,77.555-29.175,20.988-57.4,43.946-82.3,64.2-28.769,23.349-59.561,47.773-91.913,67.222-27.67,16.631-53.294,26.98-78.336,31.634a155.689,155.689,0,0,1-40.912,2.268,146.657,146.657,0,0,1-41.645-9.7c-44.659-17.5-81.761-54.1-109.1-84.029-11.443-12.534-23.064-25.909-34.3-38.843-15.106-17.387-30.727-35.366-46.569-52.087-45.538-47.935-96.741-92.682-162.506-95.5a210.548,210.548,0,0,0-30.331.955c-46.272,4.649-93.307,32.334-143.8,84.644C353.184,208.2,301.52,282.378,251.555,354.11,244.809,363.791,237.847,373.79,231,383.554Z" transform="translate(94.559 24.406)"/>
        <path id="パス_4413" data-name="パス 4413" d="M230.934,390.821l-.421-.408c6.836-9.555,13.783-19.322,20.5-28.769C302.477,289.292,355.688,214.486,417.4,151.523c51.533-52.8,99.254-81.441,145.883-87.557a211.722,211.722,0,0,1,30.933-1.887c30.44.438,59.861,9.8,89.958,28.63,23.81,14.9,47.416,35.058,76.537,65.367,16.54,17.258,32.8,35.86,48.517,53.846,11.055,12.65,22.487,25.733,33.723,37.994,27.884,30.419,65.654,67.514,110.6,84.513,48.149,18.211,99.692,10.1,157.573-24.79,32.254-19.44,62.2-43.3,90.119-66.07l3.611-2.951c24.6-20.113,50.046-40.912,76.938-60.617,22.93-16.835,50.205-36.086,78.775-51.231,30.412-16.127,57.677-25.153,83.348-27.607,22.232-2.127,41.136.756,57.795,8.8,14.9,7.2,27.683,18.412,39.078,34.292,21.2,29.55,33.927,69.966,47.406,112.747,11.674,37.042,23.744,75.343,41.9,106.627l-.456.358c-18.193-31.347-30.276-69.688-41.96-106.765-13.469-42.734-26.189-83.1-47.325-112.551-23.86-33.262-54.5-46.869-96.406-42.865-55.232,5.292-110.442,40.965-161.876,78.742-26.882,19.7-52.317,40.489-76.915,60.6l-3.611,2.951c-27.935,22.784-57.908,46.655-90.182,66.113-27.131,16.356-52.281,26.607-76.887,31.337a154.848,154.848,0,0,1-40.194,2.548,144.728,144.728,0,0,1-40.912-9.051c-19.7-7.451-39.08-18.957-59.261-35.179-16.061-12.912-32.44-28.633-51.548-49.477-11.241-12.267-22.678-25.352-33.733-38-15.716-17.984-31.967-36.578-48.5-53.826C716.279,110.7,662.087,63.7,594.208,62.721a211.479,211.479,0,0,0-30.865,1.885c-46.516,6.1-94.136,34.69-145.583,87.4C356.084,214.937,302.885,289.73,251.428,362.062,244.718,371.506,237.771,381.276,230.934,390.821Z" transform="translate(94.544 25.455)"/>
        <path id="パス_4414" data-name="パス 4414" d="M230.873,398.134l-.388-.383c6.8-9.308,13.693-18.818,20.368-28.013,52.972-72.977,107.748-148.441,170.8-212.1C445.875,133.1,468.5,114.107,490.811,99.59,517.388,82.3,543.79,71.449,569.288,67.336a213.42,213.42,0,0,1,31.463-2.817c31.148-.4,61.232,8.411,91.928,26.939,24.148,14.572,48.985,35.348,78.165,65.387,17.215,17.76,34.088,36.956,50.4,55.519,10.888,12.39,22.149,25.2,33.2,37.218,30.266,32.891,67.274,68.736,112.332,85.16,47.295,17.241,97.9,8.925,154.718-25.423,32.15-19.443,62.492-43.729,88.393-64.966l7.811-6.413c22.779-18.742,46.332-38.117,70.946-56.5,47.083-35.232,102.015-73.377,158.326-80.02,22.389-2.641,41.534.073,58.528,8.3,15.164,7.34,28.265,18.939,40.05,35.459,9.827,13.773,18.9,31.332,27.741,53.672,7.887,19.937,14.895,41.842,21.671,63.026,11.228,35.094,22.84,71.382,39,100.813l-.428.32c-16.2-29.482-27.817-65.8-39.057-100.927-13.516-42.245-27.494-85.926-49.328-116.535-24.4-34.212-56.5-48.454-98.132-43.543-56.192,6.63-111.079,44.735-158.1,79.929-24.6,18.372-48.164,37.747-70.946,56.485q-3.926,3.228-7.811,6.413c-25.922,21.25-56.273,45.548-88.446,65.012-26.6,16.082-51.276,26.236-75.444,31.044a154.3,154.3,0,0,1-39.473,2.832A142.671,142.671,0,0,1,966.61,335.3c-19.992-7.287-39.692-18.813-60.224-35.235-16.157-12.924-32.775-28.827-52.3-50.046C843.035,238,831.772,225.191,820.881,212.8c-16.311-18.559-33.179-37.75-50.4-55.5-44.77-46.083-99.952-93.067-169.751-92.175a212.926,212.926,0,0,0-31.4,2.812C522.606,75.463,474.4,104.955,421.967,158.1,358.941,221.721,304.18,297.167,251.221,370.127,244.568,379.329,237.664,388.836,230.873,398.134Z" transform="translate(94.532 26.457)"/>
        <path id="パス_4415" data-name="パス 4415" d="M230.814,405.478l-.358-.36c6.718-9.034,13.544-18.256,20.159-27.176,54.509-73.632,110.872-149.771,175.3-214.148,24.694-24.762,47.61-44.011,70.051-58.853a262.813,262.813,0,0,1,38.576-21.3,189.626,189.626,0,0,1,40.751-12.9A214.525,214.525,0,0,1,607.3,67c31.866-1.245,62.58,7.013,93.9,25.246,24.8,14.436,50.145,35.217,79.8,65.4,17.891,18.249,35.361,38.027,52.261,57.152,10.732,12.146,21.829,24.694,32.7,36.487,30.916,33.481,68.64,69.855,114.045,85.783,46.423,16.283,96.091,7.759,151.842-26.058,30.523-18.516,59.692-41.635,86.667-63.86q6.01-4.964,12.118-10.026c20.915-17.316,42.532-35.222,64.868-52.231,23.434-17.878,48.688-36.472,74.678-51.339,29.039-16.613,55.157-26.383,79.851-29.865a116.783,116.783,0,0,1,32.342-.323,90.034,90.034,0,0,1,27.038,8.159c15.459,7.527,28.907,19.577,41.116,36.835,22.636,32,37.293,77.286,51.463,121.08,10.644,32.891,21.65,66.9,35.85,94.345l-.406.282c-14.222-27.481-25.236-61.517-35.888-94.433-14.159-43.752-28.8-89-51.384-120.924-25.357-35.847-58.09-50.4-100.073-44.475-54.383,7.683-106.07,44.289-154.339,81.128-22.328,17.016-43.946,34.907-64.84,52.221q-6.108,5.057-12.118,10.024c-26.99,22.237-56.175,45.357-86.723,63.9-26.073,15.814-50.276,25.876-74,30.762a153.766,153.766,0,0,1-38.755,3.117,140.8,140.8,0,0,1-39.445-7.784c-45.5-15.958-83.275-52.382-114.232-85.906-10.881-11.788-21.978-24.349-32.712-36.495-16.9-19.12-34.37-38.894-52.244-57.132-45.493-46.33-101.665-93.312-173.364-90.512A213.638,213.638,0,0,0,575.386,71.3c-46.909,8.93-95.7,39.324-149.154,92.926-64.412,64.349-120.77,140.463-175.269,214.09C244.361,387.232,237.532,396.455,230.814,405.478Z" transform="translate(94.52 27.429)"/>
        <path id="パス_4416" data-name="パス 4416" d="M230.753,412.85l-.328-.335c6.609-8.724,13.33-17.639,19.826-26.239,56.084-74.322,114.075-151.175,179.916-216.3,25.2-24.992,48.4-44.505,70.958-59.652a281.057,281.057,0,0,1,39-22.119A202.789,202.789,0,0,1,581.3,74.175a218.571,218.571,0,0,1,32.511-4.664c32.571-2.094,63.933,5.609,95.879,23.55,25.45,14.29,51.316,35.079,81.423,65.422,18.541,18.72,36.613,39.057,54.088,58.737,10.583,11.914,21.529,24.236,32.241,35.8,31.586,34.091,70.039,71.016,115.766,86.43,45.534,15.338,94.262,6.607,148.977-26.69,30.409-18.508,58.8-41.1,84.941-62.744,5.455-4.536,11.072-9.215,16.5-13.751,18.987-15.852,38.622-32.254,58.712-47.852,21.643-16.853,46.886-36.117,72.622-51.44,28.371-16.883,53.924-27.01,78.115-30.944a112.172,112.172,0,0,1,32.791-.92,88.053,88.053,0,0,1,27.565,8.242c15.781,7.728,29.615,20.3,42.288,38.422,23.434,33.514,38.75,80.536,53.557,125.991,10.359,31.813,20.143,61.862,32.407,87.138l-.38.252c-12.282-25.3-22.084-55.368-32.44-87.2-14.794-45.428-30.089-92.4-53.486-125.86-26.4-37.762-59.848-52.664-102.25-45.589-52.377,8.512-101.1,43.79-150.552,82.305-20.07,15.6-39.7,32-58.687,47.841-5.433,4.536-11.052,9.225-16.505,13.751-26.161,21.671-54.562,44.271-84.994,62.792-25.551,15.55-49.283,25.521-72.551,30.49-26.645,5.685-52.468,4.42-76.749-3.757-45.813-15.434-84.319-52.412-115.94-86.533-10.717-11.569-21.671-23.891-32.254-35.809-17.473-19.667-35.53-40-54.071-58.712-46.229-46.589-103.409-93.576-177-88.849a218.167,218.167,0,0,0-32.461,4.664c-47.706,10.44-95.665,40.844-150.938,95.685-65.808,65.1-123.792,141.934-179.86,216.244C244.081,395.231,237.353,404.136,230.753,412.85Z" transform="translate(94.508 28.372)"/>
        <path id="パス_4417" data-name="パス 4417" d="M230.692,420.253l-.295-.307c6.463-8.381,13.035-16.931,19.4-25.2C307.479,319.712,367.136,242.1,434.415,176.192c25.7-25.244,49.207-45.019,71.858-60.456,28.01-19.093,54.517-31.551,81.033-38.09a219.846,219.846,0,0,1,33.055-5.6c33.279-2.948,65.281,4.2,97.848,21.854,26.083,14.136,52.473,34.932,83.054,65.442,19.193,19.178,37.848,40.065,55.887,60.279,10.445,11.7,21.245,23.8,31.805,35.157,33.894,36.459,71.6,72.241,117.49,87.053,44.621,14.4,92.412,5.465,146.11-27.323,30.361-18.543,59.1-41.577,83.217-61.653,6.942-5.8,14.088-11.815,21-17.639,17.011-14.335,34.6-29.159,52.412-43.308,23.321-18.546,46.267-36.439,70.573-51.49,27.683-17.135,52.664-27.632,76.363-32.075a107.746,107.746,0,0,1,33.342-1.451,86.416,86.416,0,0,1,28.195,8.462c16.172,8.063,30.437,21.3,43.611,40.428,24.314,35.308,40.249,84.162,55.661,131.4,9.394,28.8,18.269,56.006,28.615,78.893l-.35.217c-10.359-22.913-19.239-50.132-28.638-78.946-15.4-47.206-31.322-96.023-55.6-131.283-27.559-40.017-61.829-55.479-104.752-47.259-50.573,9.475-96.4,43.417-146.788,83.49-17.818,14.144-35.406,28.965-52.412,43.3-6.909,5.823-14.056,11.843-21,17.639-24.122,20.091-52.879,43.132-83.263,61.685-24.694,15.076-48.613,25.244-71.107,30.218a153.617,153.617,0,0,1-33.166,3.724,136.446,136.446,0,0,1-42.127-6.582c-20.887-6.741-41.532-18.3-63.122-35.353-21.242-16.78-40.3-36.5-54.532-51.805-10.563-11.364-21.363-23.462-31.81-35.164-18.029-20.2-36.676-41.1-55.875-60.252-46.97-46.869-105.157-93.876-180.624-87.186a219.153,219.153,0,0,0-33.01,5.594c-47.789,11.775-96.315,43.059-152.7,98.435-67.257,65.894-126.9,143.484-184.583,218.52C243.73,403.332,237.158,411.882,230.692,420.253Z" transform="translate(94.496 29.285)"/>
        <path id="パス_4418" data-name="パス 4418" d="M230.634,427.681l-.267-.282c6.282-8,12.667-16.16,18.843-24.049,59.334-75.809,120.7-154.2,189.453-220.931,26.254-25.506,50.041-45.546,72.755-61.252,28.373-19.622,55.162-32.717,81.894-40.033A221.24,221.24,0,0,1,626.892,74.6c33.982-3.8,66.634,2.792,99.826,20.159,26.71,13.977,53.625,34.774,84.684,65.465,19.839,19.622,39.057,41.058,57.666,61.786,10.311,11.5,20.975,23.382,31.39,34.549,34.63,37.125,73.04,73.443,119.213,87.69,43.691,13.479,90.545,4.334,143.24-27.97,30.22-18.521,58.155-41,81.494-60.549,8.469-7.1,17.157-14.5,25.559-21.671,15-12.773,30.49-25.982,46.083-38.629,19.539-15.875,43.858-35.646,68.524-51.541,27-17.4,51.4-28.26,74.617-33.209A103.77,103.77,0,0,1,1493.2,108.7a85.169,85.169,0,0,1,28.915,8.787c16.613,8.5,31.365,22.512,45.1,42.852,11.3,16.739,21.935,37.931,32.506,64.792,9.323,23.686,17.414,48.592,25.236,72.677,8.217,25.312,15.978,49.217,24.443,69.424l-.323.181c-8.464-20.222-16.23-44.137-24.442-69.459-15.215-46.869-32.458-99.974-57.7-137.356-28.86-42.721-64.084-58.914-107.7-49.479-52.609,11.216-100.632,50.245-143,84.681-15.58,12.645-31.085,25.851-46.078,38.624-8.4,7.159-17.089,14.56-25.561,21.67-23.349,19.556-51.3,42.046-81.534,60.579-24.19,14.824-47.625,24.9-69.663,29.956-25.68,5.889-50.523,5.229-73.831-1.963-46.246-14.267-84.7-50.623-119.364-87.786-10.417-11.17-21.081-23.056-31.395-34.554C850.222,201.6,831,180.169,811.168,160.554c-47.723-47.146-106.929-94.176-184.242-85.526a220.558,220.558,0,0,0-33.536,6.521c-62.872,17.2-118.286,65.994-154.5,101.2C370.149,249.466,308.8,327.846,249.475,403.645,243.3,411.529,236.913,419.688,230.634,427.681Z" transform="translate(94.484 30.172)"/>
        <path id="パス_4419" data-name="パス 4419" d="M230.582,435.146l-.234-.252c6.048-7.577,12.2-15.3,18.143-22.772C309.515,335.507,372.617,256.284,442.912,188.7c27.189-26.173,50.593-45.9,73.652-62.068,28.746-20.159,55.814-33.887,82.751-41.97A219.624,219.624,0,0,1,633.429,77.2c34.655-4.735,67.952,1.285,101.8,18.395,27.287,13.814,54.716,34.655,86.307,65.558,20.479,20.053,40.272,42.013,59.415,63.248,10.19,11.3,20.726,22.993,30.994,33.98,35.381,37.8,74.521,74.675,120.934,88.323,42.747,12.566,88.663,3.215,140.375-28.593,30.238-18.6,58.513-41.537,79.768-59.443,10.034-8.459,20.27-17.289,30.167-25.828,12.947-11.168,26.335-22.714,39.692-33.809l.726-.6c21.184-17.611,43.089-35.819,66.148-51.253,26.158-17.505,49.862-28.65,72.473-34.073,44.6-10.8,81.055,6.423,111.462,52.647,26.325,40.017,44.1,95.449,59.765,144.356,6.8,21.207,13.214,41.237,19.791,58.354l-.292.154c-6.582-17.135-13-37.165-19.8-58.377-15.666-48.885-33.423-104.286-59.72-144.26-30.323-46.1-66.677-63.273-111.14-52.508-50.5,12.113-97.253,50.976-138.5,85.266l-.723.6c-13.355,11.087-26.743,22.638-39.69,33.806-9.9,8.537-20.136,17.369-30.17,25.828-21.265,17.913-49.55,40.864-79.806,59.468-23.686,14.575-46.65,24.568-68.217,29.7-25.2,5.995-49.557,5.634-72.387-1.078-21.477-6.315-42.759-17.891-65.059-35.381-21.167-16.606-40.194-36.124-56.013-53.03-10.283-10.986-20.819-22.678-31.009-33.982-19.151-21.235-38.931-43.195-59.4-63.248-45.717-44.729-108.4-94.7-187.858-83.835a219.2,219.2,0,0,0-34.071,7.451C537.22,103.68,483.227,150.393,443.117,189,372.836,256.568,309.74,335.784,248.724,412.39,242.773,419.848,236.629,427.587,230.582,435.146Z" transform="translate(94.476 31.022)"/>
        <path id="パス_4420" data-name="パス 4420" d="M230.515,442.606l-.207-.227q8.661-10.666,17.319-21.361c62.761-77.47,127.66-157.572,199.54-226.054,41.073-39.168,96.189-86.7,158.157-106.788a219.821,219.821,0,0,1,34.645-8.389,165.781,165.781,0,0,1,54.277.348,185.965,185.965,0,0,1,49.492,16.379c27.945,13.64,55.892,34.469,87.942,65.548,21.111,20.474,41.464,42.953,61.146,64.692,10.079,11.123,20.484,22.626,30.636,33.438,33.675,35.872,73.7,75.287,122.658,88.95,41.779,11.669,86.758,2.109,137.507-29.23,30.067-18.566,57.5-40.93,78.042-58.342,11.644-9.873,23.434-20.184,34.827-30.157,10.868-9.507,22.107-19.34,33.262-28.822l3.586-3.054c20.1-17.135,40.889-34.827,62.809-49.953,24.848-17.15,47.469-28.305,69.154-34.106a95.844,95.844,0,0,1,35.968-3.059,83.517,83.517,0,0,1,30.891,10.031,112.4,112.4,0,0,1,26.37,20.748,187.188,187.188,0,0,1,22.427,29.084c12.251,19.277,23.787,43.381,35.265,73.685,10.009,26.43,18.674,54.141,26.32,78.588,5.09,16.283,9.9,31.664,14.592,45.1l-.252.123c-4.694-13.436-9.5-28.819-14.595-45.1-31.213-99.821-73.96-236.529-176.892-208.869-48.467,12.965-92.8,50.709-131.9,84.009l-3.588,3.054c-11.145,9.482-22.384,19.314-33.249,28.822-11.4,9.973-23.182,20.287-34.832,30.162-20.549,17.415-47.993,39.788-78.074,58.364-23.213,14.333-45.677,24.241-66.776,29.452-24.73,6.108-48.595,6.048-70.936-.2-21.774-6.08-43.371-17.651-66.02-35.373-21.154-16.545-40.569-36.412-56.754-53.672-10.155-10.815-20.569-22.318-30.641-33.443-19.677-21.736-40.028-44.21-61.131-64.676-46.408-44.994-110.117-95-191.492-82.2a219.527,219.527,0,0,0-34.6,8.378c-61.92,20.07-116.993,67.579-158.056,106.725-71.866,68.469-136.756,148.564-199.513,226.029Z" transform="translate(94.46 31.878)"/>
        <path id="パス_4421" data-name="パス 4421" d="M230.456,450.1l-.179-.2q8.164-9.9,16.326-19.808c64.551-78.367,131.3-159.407,204.814-228.828,21.774-20.559,54.912-50.649,91.14-74.514S612.8,88.382,646.508,82.412a167.034,167.034,0,0,1,75.469,3.676c22.162,6.229,43.981,16.9,66.7,32.619,42.031,29.079,79.627,70.422,115.985,110.4,9.961,10.954,20.259,22.28,30.291,32.932,34.406,36.538,75.23,76.6,124.381,89.6,40.8,10.78,84.838,1.008,134.64-29.86,41.277-25.589,79.155-59.276,115.783-91.853,8.784-7.811,17.866-15.875,26.834-23.709q3.077-2.684,6.181-5.4c19.057-16.661,38.765-33.889,59.591-48.739,23.6-16.825,45.183-28,65.982-34.154a91.945,91.945,0,0,1,37.47-3.566,83.617,83.617,0,0,1,32.322,11.208,120.843,120.843,0,0,1,27.668,23.107,209.127,209.127,0,0,1,23.525,32.135c28.832,47.577,47.743,110.736,62.94,161.486,3.057,10.2,5.942,19.841,8.7,28.613l-.232.1c-2.752-8.774-5.639-18.412-8.7-28.618-15.192-50.732-34.1-113.869-62.908-161.415-34.058-56.207-73.546-76.741-120.725-62.771-46.458,13.756-86.634,48.885-125.487,82.844q-3.1,2.714-6.181,5.4c-8.966,7.811-18.047,15.9-26.829,23.707-36.638,32.584-74.524,66.272-115.819,91.878-22.736,14.1-44.714,23.923-65.324,29.212-24.256,6.221-47.625,6.451-69.484.675-22.066-5.833-43.984-17.387-67-35.356-21.051-16.424-40.065-35.807-57.495-54.307-10.031-10.654-20.332-21.98-30.293-32.934C830.458,147.89,753.891,63.69,646.546,82.707,571.52,95.994,505.884,150.214,451.574,201.5,378.068,270.908,311.325,351.933,246.78,430.3Z" transform="translate(94.447 32.701)"/>
      </g>
    </g>
  </g>
  <g id="グループ_240" data-name="グループ 240">
    <text id="Price" transform="translate(476 331)" fill="#707070" font-size="70" font-family="Didot" letter-spacing="0.5em"><tspan x="0" y="0">Price</tspan></text>
    <text id="料金について" transform="translate(571 378)" fill="#707070" font-size="15" font-family="YuMin-Demibold, YuMincho" font-weight="300" letter-spacing="0.3em"><tspan x="0" y="0">料金について</tspan></text>
    <text id="WishDesignでは明朗会計を目指しております_なんかわからないけど見積もりが高い_ということがないように料金表を作らせていただきました_" data-name="WishDesignでは明朗会計を目指しております。
「なんかわからないけど見積もりが高い」
ということがないように料金表を作らせていただきました。" transform="translate(640 463)" fill="#707070" font-size="15" font-family="YuMin-Demibold, YuMincho" font-weight="300" letter-spacing="0.3em"><tspan x="-215.805" y="0">WishDesignでは明朗会計を目指しております。</tspan><tspan x="-183" y="35">「なんかわからないけど見積もりが高い」</tspan><tspan x="-261" y="70">ということがないように料金表を作らせていただきました。</tspan></text>
  </g>
  <g id="コンポーネント_7_10" data-name="コンポーネント 7 – 10" transform="translate(50 31)">
    <text id="Wish_Design" data-name="Wish Design" transform="translate(0 38)" fill="#707070" font-size="20" font-family="Didot" letter-spacing="0.1em"><tspan x="0" y="0">Wish Design</tspan></text>
    <g id="コンポーネント_10_1" data-name="コンポーネント 10 – 1" transform="translate(1013.624)">
      <g id="グループ_159" data-name="グループ 159" transform="translate(-58 -1551)">
        <path id="パス_3" data-name="パス 3" d="M16.951,0H135.312c9.362,0,16.951,11.193,16.951,25s-7.589,25-16.951,25H16.951C7.589,50,0,38.807,0,25S7.589,0,16.951,0Z" transform="translate(58 1551)" fill="#fff"/>
        <rect id="長方形_44" data-name="長方形 44" width="153" height="46" rx="23" transform="translate(72.376 1565)" fill="#b9b9b9"/>
        <rect id="長方形_495" data-name="長方形 495" width="157" height="50" rx="25" transform="translate(64.376 1558)" fill="#f4f4f4"/>
      </g>
      <g id="グループ_72" data-name="グループ 72" transform="translate(-1095.624 -9.892)">
        <line id="線_286" data-name="線 286" x2="20.445" transform="translate(1207.5 32.5)" fill="none" stroke="#707070" stroke-width="1"/>
        <line id="線_287" data-name="線 287" x2="20.445" transform="translate(1207.5 41.019)" fill="none" stroke="#707070" stroke-width="1"/>
        <line id="線_288" data-name="線 288" x2="20.445" transform="translate(1207.5 49.537)" fill="none" stroke="#707070" stroke-width="1"/>
      </g>
      <text id="Menu" transform="translate(36.376 38)" fill="#707070" font-size="20" font-family="Didot"><tspan x="0" y="0">Menu</tspan></text>
    </g>
  </g>
</svg>
