<svg xmlns="http://www.w3.org/2000/svg" xmlns:xlink="http://www.w3.org/1999/xlink" width="375" height="667" viewBox="0 0 375 667">
  <defs>
    <clipPath id="clip-path">
      <rect id="長方形_505" data-name="長方形 505" width="375" height="667" fill="#f4f4f4" opacity="0.099"/>
    </clipPath>
  </defs>
  <g id="マスクグループ_48" data-name="マスクグループ 48" clip-path="url(#clip-path)">
    <g id="レイヤー_2" data-name="レイヤー 2" transform="translate(0 267.913)">
      <g id="_饑1" data-name="ﾑ饑1" transform="translate(-345 -154.377)" opacity="0.195">
        <g id="グループ_386" data-name="グループ 386" transform="translate(48.023 86.093)" opacity="0.4">
          <path id="パス_8080" data-name="パス 8080" d="M205.461,164.5c29.756,8.5,58.331,8.8,86.38,1,33.139-9.213,62.243-28.637,90.412-47.42C413.273,97.392,445.346,76,482.69,68.455c62.322-12.589,119.039,27.5,169.079,62.87,7.258,5.129,14.114,9.974,20.951,14.643,34.777,23.741,64.4,41.371,93.222,55.487,34.863,17.074,68.268,28.784,102.12,35.786,25.7,5.321,52.156,8.99,77.742,12.547,19.736,2.736,40.143,5.565,60.068,9.135l.042-.246c-19.928-3.567-40.347-6.4-60.075-9.135-25.586-3.548-52.045-7.213-77.742-12.547-77.909-16.127-142.42-55.17-195.251-91.236-6.837-4.674-13.691-9.511-20.949-14.641-50.082-35.4-106.846-75.528-169.261-62.91C465.86,71.6,448.707,78.05,430.2,87.97c-16.505,8.837-32.561,19.549-48.087,29.906-28.142,18.771-57.241,38.185-90.343,47.388-30.014,8.345-58.88,6.889-86.449-.984C140.62,145.8,82.965,91.871,33.737,45.829,27.96,40.417,22.5,35.324,17.076,30.313l-.167.182C22.336,35.5,27.793,40.606,33.57,46.009c34.777,32.526,74.192,69.392,117.482,94.626C169.694,151.5,187.787,159.45,205.461,164.5Z" transform="translate(-16.909 -30.313)" fill="#0e0e0e"/>
          <path id="パス_8081" data-name="パス 8081" d="M203.285,156.277a186.315,186.315,0,0,0,33.933,6.473,162.7,162.7,0,0,0,56.053-4.428c32.62-8.406,61.5-25.987,89.413-42.989,6.748-4.109,13.728-8.365,20.634-12.4C427.2,88.947,453.477,75.3,483.818,70.21a128,128,0,0,1,45.162.694c20.55,3.875,42.222,12.407,68.2,26.848,17.7,9.841,34.763,20.976,50.562,31.549l6.569,4.414c6.62,4.455,12.874,8.662,19.138,12.756,14,9.164,26.629,17.089,38.593,24.225a600.838,600.838,0,0,0,63.611,33.473,427.422,427.422,0,0,0,52.966,19.468c13.428,3.936,26.946,7.235,40.175,9.809,24.238,4.711,49.157,8.2,73.257,11.563,21,2.952,42.721,5.981,63.928,9.819l.044-.246c-21.212-3.84-42.933-6.889-63.938-9.821-24.1-3.37-49.014-6.859-73.245-11.563-13.221-2.573-26.73-5.87-40.153-9.8a427.187,427.187,0,0,1-52.933-19.46,600.343,600.343,0,0,1-63.586-33.459c-11.962-7.135-24.582-15.056-38.583-24.221-6.264-4.091-12.517-8.3-19.135-12.754l-6.569-4.414c-15.8-10.579-32.871-21.721-50.582-31.562-26-14.454-47.7-22.993-68.278-26.873a128.31,128.31,0,0,0-45.248-.694c-30.378,5.11-56.683,18.766-80.584,32.762-6.906,4.042-13.885,8.293-20.636,12.4-27.906,16.993-56.762,34.566-89.347,42.962a162.458,162.458,0,0,1-55.969,4.428C169.059,156.137,108.617,109.868,57.317,67c-6.709-5.624-13.312-11.248-19.7-16.687-6.859-5.84-13.337-11.356-19.763-16.729l-.157.187c6.426,5.373,12.9,10.889,19.76,16.729,6.4,5.439,12.992,11.071,19.7,16.69,24.356,20.353,53.433,43.609,84.4,61.78C163.019,141.555,183.454,150.609,203.285,156.277Z" transform="translate(-15.457 -24.295)" fill="#0e0e0e"/>
          <path id="パス_8082" data-name="パス 8082" d="M200.505,147.959a203.506,203.506,0,0,0,38.379,7.226,174.585,174.585,0,0,0,55.812-4.04c32.019-7.592,60.57-23.332,88.183-38.551,7.184-3.961,14.611-8.055,21.955-11.922,23.758-12.53,49.907-24.681,80.106-28.72a130.922,130.922,0,0,1,44.677,1.84c25.527,5.26,49.693,17.054,67.9,26.742,15.049,8,30.723,17.246,50.828,29.977q4.379,2.785,8.7,5.553c5.927,3.791,11.523,7.381,17.152,10.886,14.6,9.147,26.9,16.579,38.719,23.4,23.864,13.777,44.1,24.041,63.682,32.317a397.108,397.108,0,0,0,52.894,18c13.516,3.575,26.988,6.593,40.042,8.97,22.388,4.062,45.349,7.3,67.564,10.426,22.663,3.2,46.1,6.492,68.989,10.682l.044-.246c-22.895-4.182-46.333-7.489-69-10.682-22.213-3.127-45.184-6.362-67.557-10.426-13.039-2.374-26.511-5.39-40.02-8.965a396.147,396.147,0,0,1-52.867-17.986c-19.568-8.271-39.8-18.535-63.655-32.3-11.809-6.812-24.11-14.242-38.718-23.389-5.627-3.516-11.223-7.1-17.15-10.884q-4.318-2.763-8.7-5.555c-20.107-12.734-35.788-21.982-50.842-29.987-18.205-9.693-42.4-21.5-67.946-26.772A131.534,131.534,0,0,0,484.913,71.7c-30.238,4.045-56.41,16.205-80.2,28.747-7.344,3.867-14.761,7.964-21.96,11.922-27.579,15.211-56.1,30.942-88.1,38.539a174.311,174.311,0,0,1-55.733,4.032c-67.284-5.863-128.41-48.286-180.428-87.6-5.732-4.364-11.413-8.739-16.909-12.97-7.969-6.136-15.5-11.934-22.946-17.531l-.148.2c7.449,5.6,14.975,11.393,22.944,17.529,5.5,4.232,11.177,8.611,16.909,12.973C100.312,99.259,148.216,133.006,200.505,147.959Z" transform="translate(-14.008 -18.289)" fill="#0e0e0e"/>
          <path id="パス_8083" data-name="パス 8083" d="M196.428,139.429a225.87,225.87,0,0,0,44.136,8.168,188.778,188.778,0,0,0,55.571-3.641c31.308-6.78,59.443-20.666,86.653-34.118,7.715-3.811,15.7-7.752,23.574-11.44,22.486-10.549,49.541-21.736,79.71-24.71a136.671,136.671,0,0,1,44.195,2.992c23.864,5.361,46.576,15.974,67.559,26.649,16.011,8.133,32.721,17.426,51.088,28.4,3.69,2.214,7.381,4.465,10.96,6.643,5.189,3.151,10.087,6.126,15.037,9.076,15.133,9.058,27.478,16.237,38.859,22.56,24.457,13.632,44.714,23.534,63.751,31.158a374.211,374.211,0,0,0,52.833,16.528c13.853,3.27,26.907,5.929,39.909,8.131,19.9,3.361,40.305,6.237,60.029,9.019,24.927,3.516,50.7,7.152,75.885,11.809l.044-.246c-25.19-4.66-50.965-8.3-75.895-11.809-19.728-2.782-40.128-5.658-60.029-9.017-12.995-2.214-26.044-4.861-39.89-8.119a373.521,373.521,0,0,1-52.8-16.515c-19.03-7.627-39.279-17.517-63.719-31.144-11.376-6.333-23.721-13.5-38.851-22.558-4.945-2.952-9.841-5.924-15.034-9.073-3.575-2.172-7.275-4.428-10.963-6.643-18.37-10.982-35.087-20.277-51.1-28.415-21-10.68-43.72-21.3-67.616-26.668a137.263,137.263,0,0,0-44.283-2.994c-30.211,2.977-57.29,14.171-79.8,24.73-7.873,3.69-15.858,7.627-23.576,11.445-27.2,13.433-55.317,27.323-86.6,34.1a188.408,188.408,0,0,1-55.5,3.636c-66.957-5.39-128.486-43.944-180.9-79.661-5.69-3.875-11.317-7.772-16.783-11.541-8.143-5.626-15.834-10.94-23.468-16.048l-.138.2C26.9,45.425,34.6,50.739,42.743,56.363c5.454,3.769,11.1,7.666,16.783,11.543,26.309,17.927,54.862,36.561,85.347,51.4A317.3,317.3,0,0,0,196.428,139.429Z" transform="translate(-12.551 -12.279)" fill="#0e0e0e"/>
          <path id="パス_8084" data-name="パス 8084" d="M190.994,130.662a253.164,253.164,0,0,0,51.246,9.349,205.994,205.994,0,0,0,55.33-3.245c30.469-5.966,58.06-18.033,84.761-29.7,8.365-3.658,17.022-7.442,25.554-10.938,22.329-9.179,49.2-18.816,79.321-20.7a143.492,143.492,0,0,1,43.713,4.138c23.146,5.626,45.907,16.2,67.237,26.55,17.521,8.488,34.8,17.514,51.349,26.831,4.514,2.564,9.034,5.166,13.4,7.678,4.2,2.416,8.537,4.92,12.739,7.3,11.5,6.569,25.128,14.289,38.992,21.731,17.081,9.186,39.771,20.9,63.822,30a353.971,353.971,0,0,0,52.769,15.054c14.1,2.925,27.106,5.312,39.771,7.294,16.424,2.559,33.227,4.92,49.477,7.189,28.184,3.949,57.322,8.033,85.812,13.359l.047-.246c-28.491-5.326-57.637-9.41-85.824-13.359-16.237-2.276-33.05-4.63-49.472-7.189-12.663-1.983-25.67-4.369-39.762-7.292a353.789,353.789,0,0,1-52.729-15.044c-24.039-9.1-46.719-20.806-63.8-29.987-13.863-7.42-27.485-15.15-38.984-21.719-4.2-2.384-8.542-4.883-12.739-7.3-4.372-2.512-8.884-5.115-13.406-7.678-16.555-9.319-33.835-18.348-51.364-26.838-21.34-10.355-44.116-20.936-67.286-26.57a143.669,143.669,0,0,0-43.791-4.145c-30.142,1.884-57.052,11.528-79.4,20.715-8.537,3.5-17.192,7.282-25.561,10.943-26.678,11.664-54.267,23.726-84.709,29.687a205.73,205.73,0,0,1-55.266,3.24c-66.142-4.871-125.888-38.1-181.415-71.717-5.166-3.122-10.291-6.269-15.253-9.312-8.807-5.4-17.128-10.5-25.392-15.361l-.125.212c8.264,4.864,16.582,9.961,25.387,15.359,4.965,3.043,10.087,6.19,15.253,9.314,26.787,16.213,55.718,33.031,85.843,46.2A354.473,354.473,0,0,0,190.994,130.662Z" transform="translate(-11.102 -6.268)" fill="#0e0e0e"/>
          <path id="パス_8085" data-name="パス 8085" d="M183.29,121.5A290.416,290.416,0,0,0,243.9,132.435a227.269,227.269,0,0,0,55.086-2.846c29.466-5.152,56.38-15.411,82.416-25.34,9.174-3.5,18.661-7.112,28-10.4,22.142-7.816,48.837-15.91,78.928-16.685a151.586,151.586,0,0,1,43.228,5.287c22.289,5.84,44.357,16.033,65.7,25.891l1.215.561c21.227,9.784,37.149,17.573,51.61,25.256,5.543,2.952,11.071,5.959,16.407,8.874,3.25,1.776,6.613,3.609,9.883,5.376,13.12,7.135,25.985,14.1,39.117,20.9,18.542,9.612,40.635,20.555,63.894,28.846,15.836,5.624,32.583,9.939,52.7,13.583,14.577,2.605,27.554,4.719,39.639,6.458,11.1,1.582,22.427,3.137,33.382,4.637,33.254,4.559,67.643,9.272,101.274,15.627l.047-.246c-33.638-6.357-68.029-11.071-101.289-15.63-10.955-1.5-22.282-3.056-33.377-4.637-12.1-1.739-25.06-3.85-39.631-6.458-20.107-3.641-36.841-7.951-52.663-13.57-23.244-8.286-45.329-19.224-63.864-28.831-13.135-6.8-26-13.762-39.117-20.9-3.272-1.764-6.643-3.6-9.885-5.376-5.341-2.915-10.864-5.929-16.407-8.874-14.471-7.686-30.391-15.477-51.625-25.264l-1.213-.561c-21.354-9.863-43.437-20.06-65.741-25.906a151.906,151.906,0,0,0-43.3-5.294c-30.127.775-56.843,8.876-79,16.7-9.349,3.284-18.83,6.889-28.007,10.4-26.016,9.917-52.919,20.174-82.36,25.318a226.906,226.906,0,0,1-55.03,2.844C178.726,127.825,118.3,98.288,62.005,68.418c-4.652-2.46-9.3-4.96-13.777-7.381-9.452-5.07-18.38-9.86-27.256-14.39l-.111.219c8.874,4.529,17.8,9.317,27.252,14.39,4.49,2.409,9.135,4.9,13.777,7.381,25.441,13.487,55.187,28.9,86.318,40.989C160.253,114.3,171.919,118.254,183.29,121.5Z" transform="translate(-9.638 -0.254)" fill="#0e0e0e"/>
          <path id="パス_8086" data-name="パス 8086" d="M171.99,111.7c25.967,7.422,50.212,11.747,73.6,13.157a256.025,256.025,0,0,0,54.848-2.46c28.265-4.389,54.319-12.872,79.521-21.064,10.151-3.3,20.648-6.714,30.961-9.74,21.925-6.468,48.4-13.039,78.534-12.672A161.266,161.266,0,0,1,532.2,85.354c19.327,5.435,38.64,13.989,57.323,22.257,3.041,1.346,6.187,2.738,9.28,4.1l.841.367c17.75,7.764,34.516,15.1,51.032,23.318,6.288,3.127,12.547,6.357,18.594,9.479q3.936,2.037,7.843,4.04l3.833,1.983c11.578,5.986,23.551,12.175,35.427,18.082,19.888,9.919,41.4,20.142,63.965,27.687,15.428,5.139,32.155,8.987,52.633,12.112,11.674,1.752,25.5,3.789,39.506,5.619l5.383.7c42.227,5.467,85.89,11.12,128.641,19.288l.047-.246c-42.758-8.168-86.427-13.821-128.656-19.29l-5.383-.7c-14.008-1.83-27.827-3.867-39.5-5.619-20.464-3.122-37.178-6.967-52.594-12.1-22.55-7.543-44.055-17.76-63.933-27.675-11.868-5.9-23.839-12.1-35.427-18.082l-3.835-1.983q-3.9-2-7.843-4.04c-6.05-3.122-12.3-6.352-18.594-9.482-16.523-8.219-33.291-15.556-51.044-23.323l-.841-.367c-3.092-1.356-6.237-2.748-9.28-4.1-18.68-8.271-37.985-16.825-57.345-22.267a161.731,161.731,0,0,0-42.807-6.443c-30.162-.359-56.663,6.21-78.608,12.682-10.315,3.036-20.82,6.443-30.981,9.745-25.192,8.19-51.243,16.66-79.5,21.064a257.1,257.1,0,0,1-54.793,2.46C181.484,120.761,122.724,96,63.175,68.777c-4.145-1.917-8.291-3.835-12.326-5.69-10.087-4.66-19.618-9.058-29.1-13.172l-.1.224c9.484,4.116,19.012,8.515,29.1,13.169,4.022,1.857,8.18,3.776,12.333,5.676,27.222,12.449,56.338,25.465,86.813,35.8Q161.153,108.608,171.99,111.7Z" transform="translate(-8.19 5.757)" fill="#0e0e0e"/>
          <path id="パス_8087" data-name="パス 8087" d="M154.145,100.68c33.631,9.612,64.11,15.044,93.106,16.594a292.644,292.644,0,0,0,54.616-2.054c26.759-3.607,51.664-10.35,75.732-16.87,11.437-3.1,23.261-6.3,34.851-9.029,20.42-4.837,47.728-10.193,78.143-8.66a173.656,173.656,0,0,1,42.264,7.582c16.668,5.019,33.429,12.222,49.637,19.189,5.447,2.34,11.071,4.76,16.633,7.068,3.882,1.607,7.809,3.215,11.607,4.775,14.053,5.762,27.325,11.206,40.529,17.335,7.066,3.282,14.087,6.7,20.877,10.013l5.685,2.768q5.255,2.576,10.512,5.166c9.445,4.645,19.212,9.45,28.875,14.07,23.438,11.238,43.3,20.051,64.036,26.531,15.253,4.743,31.471,8.023,52.569,10.635q6.859.834,13.777,1.685c8.352,1.026,16.975,2.089,25.586,3.1,36.716,4.271,85.059,10.372,133.392,19.7l.047-.246c-48.34-9.334-96.686-15.435-133.409-19.709-8.611-1.011-17.241-2.072-25.586-3.1q-6.918-.849-13.777-1.685c-21.084-2.61-37.284-5.887-52.528-10.628-20.72-6.475-40.571-15.283-64-26.518-9.661-4.618-19.435-9.423-28.873-14.067q-5.258-2.588-10.512-5.166l-5.7-2.775c-6.79-3.311-13.814-6.736-20.882-10.018-13.209-6.131-26.484-11.563-40.539-17.339-3.8-1.557-7.725-3.169-11.6-4.775-5.555-2.305-11.187-4.726-16.633-7.066C566.357,100.225,549.591,93.019,532.908,88a173.868,173.868,0,0,0-42.315-7.592c-30.44-1.533-57.787,3.826-78.212,8.667-11.592,2.728-23.419,5.932-34.858,9.029-24.068,6.52-48.958,13.258-75.7,16.865a292.169,292.169,0,0,1-54.557,2.052C179.391,113.4,115.6,88.844,64.353,69.114q-5.479-2.108-10.869-4.2c-10.729-4.165-20.862-8.1-30.964-11.728l-.081.231c10.087,3.629,20.23,7.56,30.957,11.725q5.393,2.084,10.859,4.207C94.539,81,122,91.346,151.569,99.942Z" transform="translate(-6.735 11.768)" fill="#0e0e0e"/>
          <path id="パス_8088" data-name="パス 8088" d="M118.566,85.862c40.851,11.676,84.695,21.7,130.361,23.832a341.982,341.982,0,0,0,54.37-1.658c24.868-2.824,48.235-7.914,70.831-12.84,13.691-2.982,26.619-5.8,39.84-8.143,29.906-5.358,53.878-6.793,77.742-4.65a188.643,188.643,0,0,1,41.779,8.731c14.252,4.578,28.656,10.655,42.583,16.532,7.627,3.223,15.539,6.554,23.372,9.622,5.794,2.266,11.651,4.487,17.315,6.643,11.607,4.4,23.618,8.955,35.082,13.905,7.873,3.4,15.7,6.992,23.259,10.466l3.469,1.594c5.442,2.522,10.98,5.115,16.333,7.627,7.59,3.552,15.435,7.226,23.185,10.781,20.134,9.265,41.668,18.855,64.108,25.374,18.98,5.484,37.193,7.71,52.5,9.167,12.092,1.114,24.577,2.416,36.657,3.676l2.588.268c46.694,4.81,91.359,11.346,132.757,19.436l.049-.246c-41.408-8.079-86.08-14.616-132.779-19.436l-2.588-.271c-12.075-1.26-24.56-2.561-36.657-3.676-15.15-1.439-33.144-3.636-51.91-9l-.544-.157c-22.422-6.515-43.949-16.1-64.076-25.36-7.747-3.555-15.593-7.228-23.18-10.781-5.356-2.507-10.891-5.1-16.336-7.627l-3.469-1.594c-7.563-3.474-15.384-7.068-23.264-10.468-11.489-4.96-23.495-9.514-35.107-13.915-5.658-2.148-11.519-4.369-17.31-6.643-7.826-3.065-15.723-6.4-23.372-9.622-13.935-5.877-28.341-11.957-42.6-16.537a189.032,189.032,0,0,0-41.823-8.744c-23.888-2.143-47.888-.709-77.816,4.652-13.226,2.347-26.159,5.166-39.855,8.148-22.592,4.92-45.954,10.011-70.807,12.832a342.244,342.244,0,0,1-54.326,1.658c-65.813-3.075-127.859-22.55-182.6-39.73l-.807-.246q-4.674-1.476-9.282-2.928c-11.41-3.6-22.186-7.009-32.947-10.087l-.066.246c10.756,3.083,21.532,6.488,32.939,10.087q4.613,1.459,9.282,2.925l.807.246C83.043,75.229,100.513,80.7,118.566,85.862Z" transform="translate(-5.286 17.783)" fill="#0e0e0e"/>
          <path id="パス_8089" data-name="パス 8089" d="M24.019,59.959c11.494,2.477,22.976,5.292,35.141,8.279l7.474,1.828,7.5,1.83c53.14,12.985,113.353,27.7,176.442,30.221a414.252,414.252,0,0,0,54.124-1.262c22.452-2.067,43.791-5.624,64.413-9.063,15.947-2.659,31-5.166,46.348-7,29.03-3.523,53.617-3.725,77.361-.637a207.566,207.566,0,0,1,41.3,9.88c12.055,4.118,24.272,9.236,36.093,14.185,9.634,4.035,19.6,8.207,29.535,11.87,6.98,2.568,14.038,5.019,20.862,7.381,10.505,3.648,21.369,7.417,31.8,11.578,8.748,3.489,17.421,7.24,25.807,10.869l1.068.463c7.135,3.122,14.4,6.357,21.426,9.487,5.969,2.657,12.139,5.412,18.223,8.082,21.347,9.41,42.315,18.343,64.179,24.218,18.557,4.952,36.923,6.667,52.439,7.691,14.151.9,28.332,2.131,39.1,3.11a1271.907,1271.907,0,0,1,132.112,19.143l.047-.246a1272.985,1272.985,0,0,0-132.149-19.148c-10.773-.984-24.954-2.214-39.117-3.107-15.5-1.023-33.852-2.738-52.39-7.686-21.842-5.868-42.807-14.8-64.145-24.206-6.084-2.672-12.254-5.412-18.22-8.082-7.024-3.129-14.286-6.365-21.428-9.487l-1.068-.463c-8.389-3.629-17.061-7.381-25.815-10.872-10.431-4.16-21.3-7.934-31.805-11.58-6.825-2.369-13.883-4.82-20.86-7.381-9.929-3.666-19.891-7.836-29.522-11.868-11.826-4.952-24.053-10.072-36.111-14.19A207.836,207.836,0,0,0,492.851,83.9c-23.763-3.09-48.365-2.888-77.422.635-15.342,1.835-30.408,4.347-46.36,7.007-20.624,3.444-41.951,6.994-64.393,9.063a411.986,411.986,0,0,1-54.09,1.26C187.521,99.347,127.313,84.642,74.19,71.65l-7.516-1.835L59.22,67.992c-12.168-2.982-23.66-5.8-35.149-8.276Z" transform="translate(-3.826 23.791)" fill="#0e0e0e"/>
          <path id="パス_8090" data-name="パス 8090" d="M24.809,63.235c12.321,1.8,24.624,3.961,37.641,6.246l5.361.94c5.7,1,11.578,2.039,17.261,3.046C138.133,82.862,193,92.577,252.254,94.541a515.5,515.5,0,0,0,53.878-.866C325.435,92.314,344,90.12,361.956,88c18.971-2.241,36.886-4.359,55.025-5.479,28.5-1.811,52.953-.738,76.97,3.375a231.891,231.891,0,0,1,40.824,11.022c10.03,3.636,20.233,7.917,30.1,12.055,11.455,4.807,23.3,9.779,35.205,13.9,7.789,2.687,15.674,5.166,23.3,7.565,9.777,3.078,19.886,6.256,29.621,9.826,8.913,3.27,17.509,6.736,27.018,10.6,8.653,3.557,17.443,7.282,25.943,10.886,4.532,1.924,9.221,3.909,13.839,5.853,22.548,9.5,42.943,17.8,64.25,23.059,18.114,4.428,35.877,5.614,52.372,6.219,11.642.4,24.024,1.117,38.969,2.273,40.1,3.046,83.11,9.216,131.492,18.86l.047-.246c-48.392-9.646-91.411-15.817-131.519-18.865-14.951-1.156-27.335-1.877-38.979-2.273-16.483-.605-34.231-1.779-52.323-6.212-21.291-5.255-41.678-13.548-64.211-23.047-4.618-1.944-9.307-3.936-13.839-5.853-8.5-3.6-17.293-7.331-25.945-10.886-9.511-3.867-18.109-7.334-27.028-10.606-9.737-3.57-19.851-6.751-29.63-9.828-7.627-2.4-15.5-4.879-23.3-7.563-11.9-4.116-23.736-9.085-35.181-13.89-9.87-4.143-20.078-8.429-30.113-12.055A231.354,231.354,0,0,0,494.01,85.642c-24.034-4.116-48.508-5.189-77.024-3.378-18.146,1.122-36.066,3.238-55.037,5.481-17.959,2.121-36.519,4.315-55.814,5.673a515.023,515.023,0,0,1-53.854.866C193.047,92.317,138.187,82.609,85.133,73.213,79.45,72.207,73.57,71.166,67.872,70.17l-5.361-.94c-13.027-2.288-25.34-4.448-37.656-6.249Z" transform="translate(-2.372 29.8)" fill="#0e0e0e"/>
          <path id="パス_8091" data-name="パス 8091" d="M25.6,66.5c13.349,1.048,26.659,2.477,40.751,3.99l2.664.283c10.913,1.171,21.758,2.391,33.24,3.69,48.417,5.457,98.484,11.1,151.688,12.5,19.153.509,36.7.354,53.632-.467,15.071-.738,29.783-1.811,44.01-2.854,23.126-1.7,44.977-3.3,66.917-3.39,27.874-.16,52.205,2.187,76.576,7.381a261.868,261.868,0,0,1,40.33,12.178c8.178,3.142,16.513,6.679,24.572,10.087,13.108,5.565,26.664,11.317,40.414,15.76,8.365,2.706,16.87,5.09,25.082,7.405,9.268,2.613,18.85,5.314,28.1,8.414,9.555,3.2,19.032,6.773,27.165,9.87,9.991,3.848,20.129,7.937,29.936,11.89q4.984,2.008,9.979,4.015c19.63,7.9,41.88,16.855,64.319,21.9,16.761,3.744,33.033,4.605,52.306,4.748,11.809.054,24.511.524,38.837,1.434,38.167,2.379,79.747,8.284,130.858,18.582l.049-.246c-51.123-10.3-92.712-16.208-130.882-18.587-14.331-.91-27.037-1.38-38.849-1.434-19.258-.143-35.515-1-52.254-4.741-22.42-5.046-44.66-14-64.282-21.9q-4.992-2-9.976-4.015c-9.809-3.954-19.947-8.042-29.94-11.89-8.136-3.1-17.617-6.674-27.175-9.875-9.255-3.1-18.843-5.8-28.113-8.416-8.212-2.315-16.7-4.709-25.074-7.4-13.738-4.428-27.288-10.188-40.391-15.745-8.062-3.422-16.4-6.96-24.58-10.1a263.069,263.069,0,0,0-40.367-12.19c-24.388-5.206-48.736-7.558-76.63-7.4-21.957.093-43.809,1.7-66.942,3.39-14.227,1.043-28.937,2.121-44.005,2.854-16.933.822-34.475.984-53.62.467C200.749,85.293,150.686,79.652,102.275,74.2,90.793,72.9,79.948,71.678,69.035,70.5l-2.657-.266c-14.094-1.513-27.407-2.94-40.758-3.99Z" transform="translate(-0.917 35.812)" fill="#0e0e0e"/>
          <path id="パス_8092" data-name="パス 8092" d="M26.4,69.77c14.687.182,29.488.78,43.791,1.36,21.281.861,42.768,2.012,65.512,3.233,38.573,2.069,78.458,4.209,119.9,5.011,19.6.384,37.068.359,53.4-.074,9.181-.246,18.3-.554,27.124-.856,29.1-.984,56.584-1.929,83.893-.472a382.507,382.507,0,0,1,76.187,11.4A305.317,305.317,0,0,1,536.057,102.7c6.47,2.627,13.073,5.486,19.458,8.249,14.611,6.325,29.722,12.867,45.206,17.512,8.822,2.64,17.787,4.874,26.457,7.034,8.894,2.214,18.09,4.51,26.986,7.211,9.641,2.928,19.217,6.264,27.308,9.142,11.214,4.03,22.582,8.387,33.577,12.6l6.468,2.475.344.133c20.742,7.951,42.19,16.173,64.046,20.611,18.277,3.69,36.549,3.624,52.242,3.277,11.989-.3,24.646-.1,38.7.6,46.7,2.266,92.036,10.522,130.225,18.3l.049-.246c-38.2-7.777-83.548-16.036-130.262-18.3-14.06-.7-26.725-.9-38.718-.6-15.681.347-33.936.408-52.188-3.272-21.837-4.428-43.275-12.653-64.007-20.6l-.344-.13-6.468-2.477c-10.995-4.212-22.366-8.566-33.582-12.6-8.1-2.881-17.679-6.217-27.325-9.147-8.9-2.706-18.1-4.994-27-7.213-8.667-2.16-17.627-4.394-26.447-7.031-15.47-4.64-30.573-11.179-45.176-17.5-6.4-2.765-12.99-5.624-19.465-8.249a305.014,305.014,0,0,0-39.88-13.339,382.62,382.62,0,0,0-76.232-11.41c-27.323-1.459-54.815-.519-83.924.472-8.82.3-17.94.613-27.121.856-16.326.433-33.788.458-53.386.074-41.439-.8-81.322-2.952-119.89-5.011-22.747-1.23-44.234-2.372-65.517-3.233C55.877,70.3,41.074,69.7,26.387,69.519Z" transform="translate(0.53 41.83)" fill="#0e0e0e"/>
          <path id="パス_8093" data-name="パス 8093" d="M27.181,74.543c15.007-.782,30.061-1.2,44.195-1.555,53.964-1.363,110.9-.64,171.173.123l14.727.185c18.943.246,36.032.431,53.155.325l5.442-.015c36.819-.091,71.592-.177,105.673,3.6a417.119,417.119,0,0,1,75.791,15.416A364.147,364.147,0,0,1,536.7,107.1c4.9,2.1,9.895,4.318,14.729,6.468,15.974,7.1,32.494,14.449,49.612,19.189,9.174,2.536,18.515,4.561,27.554,6.52,8.611,1.867,17.526,3.8,26.159,6.15,10.129,2.76,19.994,5.946,27.458,8.414,12.3,4.106,24.747,8.633,36.787,13.01l5.272,1.919c20.277,7.381,41.24,15.032,62.578,18.9,17.947,3.228,35.616,2.659,52.176,1.8,12.1-.654,24.715-.738,38.568-.246,44.429,1.543,88.542,9.573,129.593,18.021l.049-.246c-41.06-8.451-85.187-16.483-129.632-18.026-13.863-.492-26.486-.416-38.591.246-16.545.856-34.2,1.424-52.119-1.8-21.315-3.865-42.271-11.5-62.536-18.892l-5.275-1.917c-12.04-4.377-24.494-8.9-36.795-13.012-7.467-2.46-17.334-5.658-27.47-8.416-8.638-2.357-17.551-4.288-26.172-6.15-9.029-1.968-18.365-3.981-27.534-6.515-17.1-4.738-33.609-12.082-49.575-19.189-4.834-2.148-9.841-4.372-14.734-6.468A364.02,364.02,0,0,0,497.41,92.372a417.6,417.6,0,0,0-75.835-15.425c-34.091-3.776-68.885-3.69-105.7-3.6l-5.442.015c-17.123.106-34.2-.084-53.14-.325l-14.727-.185c-60.275-.763-117.211-1.476-171.18-.123-14.136.357-29.2.772-44.2,1.555Z" transform="translate(1.992 46.338)" fill="#0e0e0e"/>
          <path id="パス_8094" data-name="パス 8094" d="M27.989,84.157c15.856-1.83,31.439-3.287,44.591-4.47,60.152-5.412,122.86-7.976,186.384-7.627,15.253.086,30.787.347,45.816.6l7.1.118c35.769.716,74,2.241,111.2,8.5a457.458,457.458,0,0,1,75.4,19.436c11.856,4.072,24.572,9.184,38.871,15.63,3.444,1.552,6.962,3.166,10.362,4.728,17.2,7.907,35,16.08,53.659,20.833,9.457,2.4,19.108,4.182,28.442,5.9,8.4,1.55,17.091,3.154,25.524,5.193,8.089,1.968,16.86,4.4,27.6,7.683,13.285,4.1,26.718,8.729,39.708,13.2l3.85,1.328c19.864,6.871,40.4,13.976,61.286,17.31,17.654,2.8,34.721,1.752,52.109.33a362.065,362.065,0,0,1,38.433-1.075c44.751.925,90.043,9.641,128.958,17.738l.052-.246c-38.94-8.1-84.232-16.818-129.005-17.743a362.527,362.527,0,0,0-38.458,1.075c-17.372,1.422-34.425,2.46-52.053-.327-20.858-3.329-41.388-10.431-61.244-17.3l-3.85-1.331c-12.99-4.475-26.422-9.1-39.712-13.2-10.751-3.287-19.526-5.73-27.618-7.688-8.441-2.042-17.133-3.646-25.539-5.2-9.329-1.722-18.975-3.5-28.427-5.9-18.638-4.746-36.411-12.916-53.617-20.816-3.4-1.562-6.916-3.179-10.362-4.733-14.316-6.448-27.042-11.563-38.9-15.635a457.969,457.969,0,0,0-75.442-19.436c-37.22-6.259-75.459-7.784-111.238-8.5l-7.1-.118c-15.029-.246-30.57-.514-45.819-.6-63.534-.349-126.25,2.214-186.409,7.627-13.137,1.183-28.723,2.64-44.581,4.465Z" transform="translate(3.428 46.004)" fill="#0e0e0e"/>
          <path id="パス_8095" data-name="パス 8095" d="M28.779,94.436c13.479-2.386,28.194-4.8,44.985-7.381,67.589-10.384,128.712-15.477,186.871-15.563,15.957-.02,33.188.344,52.67,1.117,43.545,1.845,78.9,6.109,111.292,13.408A507.863,507.863,0,0,1,499.6,109.461c11.58,4.522,23.783,9.853,38.4,16.779q3.154,1.5,6.32,3.009c18.316,8.746,37.255,17.787,57.377,22.454,9.765,2.258,19.746,3.784,29.4,5.257,8.168,1.25,16.616,2.541,24.833,4.263,8.431,1.8,17.509,4.074,27.749,6.955,13.061,3.705,26.046,7.89,40.441,12.579l4.448,1.454c19.5,6.4,39.676,12.995,60.157,15.819,17.394,2.381,33.86.891,52.043-1.142a316.164,316.164,0,0,1,38.3-1.914c43.164.285,85.332,8.421,128.326,17.467l.052-.246c-43.007-9.041-85.189-17.18-128.375-17.467a316.662,316.662,0,0,0-38.33,1.914c-18.166,2.032-34.617,3.521-51.984,1.144-20.459-2.819-40.618-9.425-60.112-15.809l-4.448-1.454c-14.4-4.689-27.379-8.874-40.45-12.581-10.244-2.883-19.327-5.166-27.763-6.957-8.224-1.722-16.675-3.019-24.848-4.268-9.649-1.476-19.625-3-29.38-5.255-20.1-4.66-39.023-13.7-57.322-22.435q-3.166-1.513-6.32-3.011c-14.626-6.928-26.831-12.259-38.416-16.783a508.1,508.1,0,0,0-75.036-23.453c-32.411-7.3-67.788-11.563-111.336-13.415-19.487-.773-36.718-1.137-52.68-1.117-58.171.086-119.319,5.166-186.908,15.568C56.948,89.4,42.231,91.809,28.749,94.2Z" transform="translate(4.877 45.007)" fill="#0e0e0e"/>
          <path id="パス_8096" data-name="パス 8096" d="M29.589,104.749c14.97-3.555,30.238-7.016,45.381-10.3,71.874-15.556,131.409-23.022,187.356-23.5,16.648-.14,34.288.369,52.429,1.511,40.665,2.65,77.1,8.638,111.38,18.321l1.594.453c22.811,6.51,46.065,15.12,73.023,27.006,11.049,4.849,22.742,10.377,37.916,17.927l2.6,1.292c19.31,9.622,39.274,19.568,60.781,24.073,9.939,2.074,20.124,3.306,29.975,4.5,8.062.984,16.4,1.983,24.518,3.444,8.6,1.572,17.713,3.609,27.9,6.227,13.639,3.53,26.976,7.57,40.573,11.745l5.516,1.7c19.189,5.936,39.031,12.075,59.158,14.412,17.13,1.968,33.675-.015,51.979-2.615a280.352,280.352,0,0,1,38.165-2.748c41.823-.317,82.569,7.592,127.684,17.177l.052-.246c-45.14-9.595-85.91-17.5-127.748-17.182a280.423,280.423,0,0,0-38.2,2.75c-18.287,2.6-34.814,4.591-51.91,2.615-20.107-2.335-39.936-8.47-59.116-14.4q-2.76-.856-5.516-1.7c-13.6-4.182-26.937-8.217-40.593-11.75-10.183-2.62-19.312-4.657-27.913-6.229-8.119-1.476-16.466-2.475-24.533-3.444-9.841-1.193-20.026-2.423-29.953-4.5-21.477-4.495-41.427-14.439-60.722-24.051l-2.6-1.294c-15.179-7.55-26.875-13.081-37.929-17.932-27.593-12.163-51.312-20.9-74.647-27.468-34.3-9.688-70.75-15.686-111.432-18.328-18.149-1.144-35.8-1.653-52.449-1.513A762.8,762.8,0,0,0,166.7,77.8c-28.238,3.784-58.267,9.152-91.8,16.407-15.13,3.294-30.4,6.738-45.371,10.3Z" transform="translate(6.318 43.975)" fill="#0e0e0e"/>
          <path id="パス_8097" data-name="パス 8097" d="M30.385,115.068c13.415-3.981,29.345-8.655,45.777-13.211C126.46,87.8,193.267,71.523,264,70.423a515.145,515.145,0,0,1,52.188,1.909A476.572,476.572,0,0,1,427.662,95.564c22.422,7.6,45.314,17.312,74.224,31.471,12.729,6.222,25.473,12.835,37.434,19.079,18.862,9.841,40.241,21,63.055,25.264,10.087,1.882,20.444,2.81,30.462,3.705,7.986.713,16.237,1.454,24.294,2.672,8.736,1.333,17.908,3.129,28.046,5.494,14.1,3.3,28.405,7.381,40.7,10.916q3.235.932,6.48,1.882c18.9,5.508,38.453,11.206,58.265,13.076,18.264,1.722,36.14-1.365,51.91-4.086a252.4,252.4,0,0,1,38.025-3.587c43.875-.962,88.075,8.527,127.059,16.9l.054-.246c-39.006-8.365-83.216-17.866-127.118-16.9a252.861,252.861,0,0,0-38.069,3.589c-15.757,2.706-33.616,5.8-51.846,4.086-19.79-1.87-39.326-7.565-58.22-13.069q-3.243-.945-6.48-1.882c-12.3-3.55-26.607-7.612-40.719-10.918-10.136-2.367-19.315-4.165-28.058-5.5-8.057-1.23-16.318-1.968-24.309-2.674-10.013-.9-20.365-1.821-30.437-3.69-22.779-4.256-44.141-15.406-62.981-25.242-11.961-6.242-24.708-12.857-37.439-19.081-28.92-14.163-51.821-23.864-74.254-31.49A476.253,476.253,0,0,0,316.215,72.081,516.3,516.3,0,0,0,264,70.172c-70.767,1.1-137.591,17.381-187.9,31.444-16.434,4.551-32.366,9.238-45.779,13.216Z" transform="translate(7.765 42.938)" fill="#0e0e0e"/>
          <path id="パス_8098" data-name="パス 8098" d="M31.186,125.39c15.108-5.353,30.73-10.889,46.173-16.127,54.84-18.6,120.1-37.823,188.328-39.363,54.429-1.23,109.442,9.014,163.5,30.447,33.855,13.42,66.155,31.185,97.392,48.362,4.387,2.411,8.923,4.906,13.393,7.349,20.471,11.194,40.674,21.539,62.735,25.168,10.207,1.678,20.717,2.29,30.88,2.881,7.932.463,16.134.94,24.137,1.921,23.724,2.908,47.105,8.93,69.023,14.847q3.668.984,7.346,2c18.653,5.1,37.941,10.38,57.47,11.809,18.023,1.311,35.218-2.182,51.849-5.562,55.824-11.346,110.982.622,164.324,12.2l.054-.246c-26.681-5.786-54.267-11.772-81.821-14.781-30.6-3.338-57.618-2.492-82.606,2.586-16.614,3.375-33.791,6.866-51.78,5.558-19.507-1.422-38.782-6.694-57.423-11.794q-3.69-1.009-7.346-2c-21.928-5.922-45.322-11.947-69.06-14.857-8.01-.984-16.215-1.459-24.152-1.921-10.158-.59-20.666-1.2-30.853-2.878-22.021-3.619-42.2-13.957-62.656-25.138-4.47-2.443-9.007-4.938-13.393-7.351-31.244-17.182-63.549-34.935-97.424-48.375-54.095-21.445-109.139-31.7-163.6-30.465-30.1.679-61.377,4.765-95.63,12.488-27.456,6.192-56.936,14.734-92.769,26.89C61.843,114.27,46.213,119.805,31.1,125.168Z" transform="translate(9.208 41.896)" fill="#0e0e0e"/>
        </g>
        <path id="パス_8099" data-name="パス 8099" d="M1042.137,267.648c-5.435-9.142-11.164-21.47-17.8-35.747C997.074,173.248,955.868,84.607,861.178,52.115,730.234,7.185,666.52,82.056,620,136.714c-10.564,12.414-20.543,24.139-29.99,32.74-10.466,9.528-19.354,14.4-27.977,15.334-28.393,3.083-49.644-34.829-66.718-65.3-5.6-9.986-10.886-19.421-15.745-26.125l-.583-.8c-10.2-14.072-22.88-31.589-37.946-44.775-17.654-15.48-34.819-21.844-52.476-19.458C350.255,33.5,324.489,75.4,305.676,106l-2.846,4.618c-2.436,3.936-4.866,8.02-7.218,11.964-7.627,12.793-15.5,26-25.19,37.42-6.055,7.135-14,14.837-23.706,14.837a19.1,19.1,0,0,1-5.412-.795c-12.877-3.779-22.321-17.467-29.909-28.474q-.867-1.255-1.7-2.46c-7.506-10.79-14.6-22.12-21.453-33.075-5.287-8.451-10.756-17.187-16.378-25.616l-1.592-2.391c-8.96-13.47-21.231-31.919-35.919-45.514-17.5-16.2-34.074-21.751-50.68-16.975C65.321,24.829,51.686,41.75,40.77,57.6,26.354,78.548,14.761,101.757,3.545,124.2q-1.661,3.329-3.326,6.643l-.219-.1q1.666-3.321,3.326-6.643C14.542,101.646,26.14,78.429,40.569,57.471c10.938-15.888,24.6-32.848,43.053-38.158a41.972,41.972,0,0,1,27.062,1.358c7.794,2.965,15.819,8.237,23.847,15.669,14.707,13.6,26.991,32.066,35.961,45.546q.812,1.23,1.592,2.391c5.619,8.434,11.088,17.172,16.368,25.62,6.854,10.953,13.944,22.28,21.445,33.065q.83,1.192,1.7,2.46c7.568,10.97,16.975,24.624,29.768,28.378,12.07,3.543,21.76-5.6,28.858-13.964,9.676-11.405,17.551-24.614,25.165-37.395,2.352-3.936,4.785-8.025,7.221-11.966q1.395-2.263,2.844-4.62c18.84-30.634,44.643-72.588,83.066-77.779,17.728-2.4,34.957,3.988,52.67,19.517,15.074,13.214,27.778,30.752,37.983,44.827l.583.8c4.869,6.716,10.158,16.156,15.76,26.149,17.039,30.4,38.244,68.238,66.477,65.2,8.569-.93,17.416-5.781,27.839-15.273,9.435-8.591,19.408-20.309,29.968-32.721,11.359-13.351,24.238-28.482,38.795-42.483,16.7-16.06,33.094-28.2,50.1-37.107A161.4,161.4,0,0,1,774.717,38.5a193.142,193.142,0,0,1,40.411,1.885,261.487,261.487,0,0,1,46.114,11.5,210.2,210.2,0,0,1,61.721,33.687,257.14,257.14,0,0,1,45.378,46.744c25.606,33.665,42.561,70.165,56.206,99.49,6.643,14.269,12.363,26.592,17.79,35.724Z" transform="translate(0 32.551)" fill="#0e0e0e"/>
        <path id="パス_8100" data-name="パス 8100" d="M1037.991,268.2c-5.951-8.975-12.284-21.389-19.615-35.761-19.3-37.855-45.733-89.676-90.83-128.71a225.661,225.661,0,0,0-71.66-42.2c-27.67-9.892-54.154-15.059-78.726-15.359-.711,0-1.427-.012-2.131-.012-76.288,0-120.692,50.205-156.444,90.624-10.372,11.728-20.174,22.806-29.5,31.025-10.348,9.117-19.135,13.871-27.655,14.953a30.733,30.733,0,0,1-3.862.246c-25.953,0-45.934-33.4-62.139-60.484-5.786-9.669-11.25-18.8-16.277-25.187l-2.172-2.763C465.942,80.5,452.2,62.986,435.926,50.875c-15.908-11.834-31.412-16.483-47.4-14.222-29.96,4.268-51.981,29.79-67.82,51.546-5.186,7.135-9.816,14.158-14.294,20.961-1.321,2.01-2.571,3.909-3.816,5.781-2.477,3.747-4.947,7.627-7.336,11.381-7.582,11.907-15.423,24.218-24.964,34.792-7.085,7.848-16.729,16.378-28.595,12.643-12.621-4.02-21.957-17.664-29.453-28.622-.561-.819-1.112-1.624-1.651-2.406-4.182-6.055-8.49-12.633-13.984-21.33-2.438-3.858-4.893-7.8-7.27-11.607-5.243-8.411-10.665-17.106-16.237-25.5l-1.4-2.108C153.621,54.87,123.346,9.133,85.872,18.983a50.687,50.687,0,0,0-15.187,6.982C59.433,33.417,50.318,44.818,42.885,55c-14.741,20.2-26.767,42.871-38.4,64.8q-1.609,3.031-3.223,6.057l-.216-.116q1.609-3.026,3.213-6.057C15.9,97.744,27.935,75.061,42.686,54.846c7.445-10.188,16.577-21.608,27.859-29.082A51.218,51.218,0,0,1,85.8,18.75a42.172,42.172,0,0,1,26.816,1.907c7.725,3.07,15.671,8.409,23.618,15.868,14.562,13.664,26.755,32.078,35.656,45.514l1.4,2.106c5.577,8.4,11,17.1,16.237,25.512,2.409,3.813,4.869,7.755,7.3,11.615,5.491,8.692,9.8,15.268,13.981,21.322.539.78,1.087,1.584,1.651,2.406,7.474,10.926,16.776,24.526,29.333,28.521,11.723,3.69,21.3-4.778,28.339-12.572,9.528-10.557,17.362-22.86,24.939-34.76,2.389-3.754,4.859-7.627,7.336-11.386,1.245-1.87,2.495-3.769,3.818-5.779,4.478-6.8,9.1-13.841,14.3-20.971,10.562-14.515,19.974-25.04,29.628-33.149,12.564-10.559,25.111-16.609,38.357-18.5a55.6,55.6,0,0,1,25.246,2.308,78.789,78.789,0,0,1,22.336,11.961c16.3,12.129,30.054,29.655,41.1,43.737l2.17,2.765c5.038,6.4,10.505,15.534,16.294,25.21,16.975,28.354,38.076,63.643,65.761,60.122,8.468-1.075,17.221-5.808,27.525-14.892,9.314-8.21,19.108-19.283,29.476-31C636.22,116.488,656.4,93.67,681.945,75.89c28.959-20.159,59.438-29.975,93.1-29.975.708,0,1.415,0,2.123.012,24.6.3,51.1,5.471,78.795,15.374a225.371,225.371,0,0,1,71.742,42.256C972.84,142.62,999.3,194.476,1018.6,232.339c7.329,14.368,13.656,26.777,19.6,35.739Z" transform="translate(1.932 32.002)" fill="#0e0e0e"/>
        <path id="パス_8101" data-name="パス 8101" d="M1033.848,268.774c-6.529-8.783-13.543-21.291-21.662-35.771-19.65-35.043-46.562-83.036-90.387-120.02a241.686,241.686,0,0,0-71.218-42.027c-26.8-9.981-52.692-15.723-76.947-17.069-76.241-4.222-120.776,44.143-156.557,83-20.341,22.1-37.9,41.164-56.235,43.841a31.259,31.259,0,0,1-4.559.335c-10.591,0-21.081-5.432-31.931-16.5-10.763-10.977-20.338-25.913-28.784-39.09-5.973-9.319-11.617-18.122-16.818-24.164q-1.823-2.121-3.732-4.372c-10.7-12.547-24.007-28.186-39.444-39C420,47.032,404.164,42.685,388.5,45c-29.392,4.409-51.743,28.649-67.933,49.285-5.211,6.643-9.841,13.2-14.318,19.541-1.346,1.9-2.615,3.705-3.877,5.474-2.672,3.739-5.324,7.627-7.89,11.366-7.413,10.825-15.079,22.041-24.3,31.6-3.147,3.26-7.381,7.322-12.345,9.841-5.346,2.726-10.493,3.184-15.73,1.4-12.375-4.217-21.568-17.775-28.956-28.669l-1.666-2.46c-5.255-7.683-10.175-15.391-13.848-21.246-2.418-3.84-4.854-7.764-7.211-11.563-5.2-8.365-10.579-17.025-16.1-25.392l-1.193-1.811C155.2,55.168,125.193,9.628,88.042,18.445a50.328,50.328,0,0,0-15.071,6.424c-11.186,6.913-20.42,17.79-27.985,27.517C29.913,71.861,17.432,94.01,5.377,115.431L2.319,120.87l-.214-.123,3.063-5.437C17.223,93.882,29.706,71.723,44.792,52.236c7.575-9.745,16.83-20.643,28.046-27.576A50.6,50.6,0,0,1,87.98,18.2C125.3,9.347,155.365,54.971,173.327,82.23l1.193,1.811c5.531,8.365,10.906,17.025,16.107,25.4,2.357,3.794,4.792,7.718,7.208,11.563,3.69,5.853,8.586,13.558,13.844,21.241q.819,1.192,1.668,2.46c7.371,10.842,16.54,24.373,28.836,28.555,11.285,3.845,20.4-3.493,27.82-11.182,9.211-9.541,16.87-20.737,24.275-31.564,2.566-3.752,5.22-7.627,7.892-11.373,1.262-1.766,2.534-3.567,3.877-5.471,4.48-6.345,9.1-12.909,14.326-19.551C336.59,73.45,359,49.17,388.461,44.749A57.374,57.374,0,0,1,413.5,46.621a78.334,78.334,0,0,1,22.218,11.11C451.176,68.557,464.5,84.2,475.2,96.772q1.912,2.244,3.732,4.372c5.211,6.057,10.859,14.864,16.84,24.191,16.882,26.324,37.887,59.109,65.033,55.145,18.242-2.662,35.781-21.711,56.092-43.767,17.713-19.226,37.769-41.019,62.981-57.519,29.166-19.081,59.837-27.441,93.76-25.561,24.282,1.343,50.188,7.093,77.021,17.084a242,242,0,0,1,71.289,42.069c43.86,37.014,70.785,85.029,90.444,120.089,8.119,14.473,15.125,26.974,21.65,35.744Z" transform="translate(3.873 31.434)" fill="#0e0e0e"/>
        <path id="パス_8102" data-name="パス 8102" d="M1029.7,269.35c-7.176-8.569-14.97-21.185-24-35.793-19.928-32.256-47.216-76.428-89.649-111.324a260.834,260.834,0,0,0-70.77-41.848C819.409,70.35,794.108,64.03,770.1,61.607c-74.992-7.572-119.164,38.45-154.662,75.429-19.928,20.762-37.149,38.694-55.192,41.676-11.907,1.968-23.66-2.706-35.919-14.269-10.65-10.045-20.2-23.881-28.619-36.089-6.17-8.94-12-17.384-17.371-23.062-1.707-1.808-3.444-3.69-5.28-5.658-10.881-11.728-23.214-25.023-37.845-34.627-15.452-10.146-31.183-14.067-46.744-11.656-28.57,4.5-50.434,26.287-68.041,47-5.083,5.978-9.595,11.907-13.962,17.64-1.5,1.968-2.918,3.833-4.323,5.658-2.785,3.6-5.543,7.336-8.21,10.948-7.309,9.9-14.869,20.144-23.864,28.806-5.877,5.658-12.793,11.059-20.912,11.071a19.254,19.254,0,0,1-6.643-1.23c-12.124-4.428-21.19-17.925-28.477-28.762q-.845-1.258-1.656-2.46c-5.166-7.6-10.04-15.3-13.713-21.158-2.394-3.823-4.812-7.73-7.152-11.511-5.166-8.35-10.5-16.961-15.977-25.286l-.984-1.5C156.788,55.476,127.05,10.127,90.218,17.906a49.565,49.565,0,0,0-14.955,5.868C64.056,30.239,54.737,40.552,47.081,49.788,31.668,68.532,18.74,90.165,6.242,111.093Q4.808,113.5,3.368,115.9l-.209-.128q1.437-2.4,2.874-4.8C18.538,90.039,31.471,68.407,46.906,49.643c7.661-9.253,17.007-19.588,28.238-26.078a50.433,50.433,0,0,1,15.027-5.9c36.991-7.809,66.787,37.629,84.594,64.774l.984,1.5c5.484,8.338,10.813,16.951,15.967,25.281,2.34,3.779,4.756,7.686,7.152,11.509,3.673,5.86,8.549,13.561,13.708,21.158q.812,1.2,1.656,2.46c7.267,10.808,16.309,24.257,28.356,28.669,10.926,4,19.928-2.706,27.308-9.789,8.987-8.648,16.542-18.88,23.847-28.784,2.667-3.614,5.412-7.351,8.212-10.953,1.4-1.816,2.822-3.678,4.32-5.646,4.367-5.737,8.884-11.669,13.971-17.652,7.538-8.869,17.763-20.247,29.987-29.591,12.732-9.728,25.227-15.452,38.2-17.5a59.387,59.387,0,0,1,24.818,1.437,77.785,77.785,0,0,1,22.1,10.257c14.655,9.622,27,22.927,37.887,34.667,1.838,1.968,3.572,3.85,5.28,5.658,5.388,5.693,11.218,14.144,17.394,23.091,8.416,12.2,17.959,26.021,28.585,36.049,12.2,11.509,23.881,16.154,35.712,14.2,17.959-2.967,35.154-20.872,55.054-41.6,17.608-18.343,37.562-39.132,62.489-54.37,28.784-17.6,59-24.511,92.383-21.14,24.036,2.428,49.351,8.751,75.245,18.8a261.323,261.323,0,0,1,70.839,41.887c42.463,34.92,69.766,79.115,89.7,111.383,9.022,14.6,16.811,27.212,23.977,35.766Z" transform="translate(5.813 30.863)" fill="#0e0e0e"/>
        <path id="パス_8103" data-name="パス 8103" d="M1025.553,269.927c-7.917-8.33-16.621-21.084-26.7-35.852-20.114-29.476-47.661-69.847-88.545-102.59a284.559,284.559,0,0,0-70.327-41.666c-25.192-10.178-49.2-16.882-73.415-20.491-73.823-11.012-117.664,32.74-152.891,67.879-19.472,19.436-36.293,36.212-54.023,39.481a33.29,33.29,0,0,1-6.042.558c-9.641,0-19.283-4.276-29.3-12.963-10.532-9.127-20.051-21.878-28.445-33.126-6.367-8.527-12.38-16.582-17.935-21.876-2.192-2.1-4.443-4.318-6.827-6.665-10.5-10.333-22.388-22.063-36.246-30.541C419.522,62.691,403.9,59.2,388.433,61.7c-27.815,4.6-50.062,25.192-68.147,44.734-4.962,5.358-9.368,10.7-13.632,15.861-1.646,1.993-3.2,3.877-4.736,5.7-2.9,3.444-5.752,7-8.515,10.446-7.213,9-14.673,18.306-23.46,26.1-5.683,5.036-12.323,9.821-19.969,9.821a19.19,19.19,0,0,1-7.066-1.38c-11.873-4.674-20.813-18.075-27.994-28.851q-.841-1.262-1.648-2.46c-5.029-7.469-9.683-14.85-13.575-21.084-2.372-3.8-4.768-7.691-7.085-11.45-5.117-8.3-10.4-16.872-15.836-25.178l-.718-1.1c-17.608-26.983-47.073-72.145-83.647-65.5a50.36,50.36,0,0,0-14.84,5.309c-11.172,5.966-20.6,15.745-28.356,24.513C33.415,65.2,20.014,86.323,7.054,106.755l-2.637,4.153-.207-.13q1.329-2.067,2.637-4.155C19.81,86.186,33.216,65.045,49.017,47.029c7.767-8.79,17.221-18.584,28.425-24.567a50.376,50.376,0,0,1,14.911-5.336c36.733-6.679,66.258,38.571,83.893,65.6l.716,1.1C182.4,92.137,187.686,100.711,192.8,109c2.318,3.762,4.714,7.649,7.085,11.45,3.89,6.234,8.544,13.612,13.57,21.076l1.648,2.46c7.164,10.749,16.08,24.127,27.881,28.76,10.564,4.148,19.467-1.916,26.782-8.4,8.773-7.779,16.237-17.079,23.431-26.078,2.763-3.444,5.622-7.014,8.517-10.448,1.535-1.823,3.09-3.705,4.736-5.7,4.266-5.166,8.675-10.505,13.642-15.871,18.119-19.571,40.406-40.2,68.295-44.81,15.531-2.512,31.205.984,46.591,10.407,13.873,8.493,25.783,20.223,36.29,30.575,2.384,2.345,4.633,4.561,6.827,6.662,5.567,5.307,11.588,13.371,17.959,21.9,8.389,11.241,17.9,23.977,28.408,33.09,12.055,10.446,23.547,14.486,35.139,12.348,17.659-3.257,34.443-20.014,53.9-39.415,35.264-35.181,79.154-78.972,153.1-67.95,24.228,3.612,48.259,10.321,73.471,20.506a284.772,284.772,0,0,1,70.386,41.7c18.156,14.542,35.136,31.645,51.91,52.289,14.456,17.79,26.265,35.092,36.681,50.358,10.07,14.761,18.769,27.5,26.673,35.82Z" transform="translate(7.747 30.293)" fill="#0e0e0e"/>
        <path id="パス_8104" data-name="パス 8104" d="M1021.41,270.527c-8.775-8.062-18.555-21-29.876-35.978-21.31-28.2-47.831-63.284-86.965-93.79A314.027,314.027,0,0,0,834.7,99.27a370.4,370.4,0,0,0-71.648-22.2C690.3,62.515,646.767,104.048,611.793,137.421c-18.968,18.1-35.35,33.727-52.722,37.272-11.428,2.332-22.8-1.132-34.767-10.579-10.414-8.229-19.9-19.9-28.26-30.2-6.566-8.087-12.771-15.723-18.508-20.609-2.682-2.3-5.452-4.775-8.384-7.4-10.1-9.046-21.551-19.3-34.642-26.723-15.253-8.652-30.752-11.711-46.1-9.088-26.772,4.576-48.631,23.113-68.265,42.463-4.847,4.775-9.152,9.555-13.315,14.176-1.789,1.985-3.476,3.86-5.142,5.658-3,3.238-5.946,6.6-8.8,9.856-7.12,8.119-14.483,16.528-23.067,23.48-5.705,4.613-11.878,8.64-18.889,8.64a19.478,19.478,0,0,1-7.627-1.6c-11.619-4.881-20.42-18.205-27.51-28.934-.558-.844-1.1-1.673-1.643-2.48-4.92-7.381-9.553-14.761-13.438-21-2.349-3.781-4.726-7.649-7.021-11.391-5.066-8.254-10.306-16.791-15.7-25.067l-.475-.738c-17.455-26.88-46.675-71.87-82.95-66.295a50.6,50.6,0,0,0-14.722,4.753C68.568,27.14,59.091,36.344,51.315,44.617,35.289,61.652,21.561,82.034,8.3,101.745l-2.834,4.209-.2-.138L8.1,101.608c13.285-19.718,27-40.1,43.034-57.158,7.8-8.291,17.293-17.514,28.614-23.064A50.547,50.547,0,0,1,94.538,16.61c8.525-1.309,17.241.106,25.908,4.2,7.449,3.523,15.1,9.152,22.749,16.729,14.023,13.9,25.874,32.15,34.524,45.472l.475.738c5.4,8.279,10.633,16.815,15.7,25.069,2.3,3.742,4.674,7.612,7.021,11.391,3.882,6.249,8.515,13.632,13.433,21q.809,1.215,1.646,2.482c7.056,10.682,15.849,23.982,27.4,28.841,10.18,4.278,18.638-.839,26.265-7,8.569-6.938,15.922-15.332,23.037-23.448,2.851-3.257,5.8-6.623,8.8-9.863,1.666-1.8,3.353-3.673,5.142-5.658,4.165-4.625,8.473-9.405,13.322-14.185,8.569-8.443,18.877-18.144,30.361-26.078,12.921-8.913,25.362-14.3,38.037-16.466,15.391-2.63,30.957.438,46.252,9.117,13.11,7.44,24.572,17.7,34.689,26.752,2.933,2.625,5.7,5.1,8.379,7.4,5.754,4.9,11.964,12.547,18.538,20.641,8.365,10.291,17.831,21.955,28.223,30.167,11.907,9.408,23.212,12.854,34.566,10.539,17.3-3.53,33.66-19.138,52.6-37.21,35.016-33.409,78.6-74.992,151.474-60.412a370.165,370.165,0,0,1,71.7,22.216,314.014,314.014,0,0,1,69.936,41.521c39.159,30.526,65.687,65.628,87.012,93.834,11.317,14.97,21.086,27.9,29.847,35.946Z" transform="translate(9.683 29.699)" fill="#0e0e0e"/>
        <path id="パス_8105" data-name="パス 8105" d="M1017.268,271.155c-9.784-7.762-20.865-20.956-33.7-36.231-21.219-25.266-47.624-56.71-84.751-84.859a347.574,347.574,0,0,0-69.434-41.309,433.174,433.174,0,0,0-69.872-23.92C687.728,66.6,644.485,105.992,609.737,137.662c-18.41,16.771-34.307,31.244-51.27,35.053-11.189,2.5-22.371-.379-34.2-8.812-10.293-7.346-19.736-17.959-28.066-27.323-6.773-7.612-13.169-14.8-19.1-19.258-3.176-2.4-6.473-5.068-9.964-7.89-9.691-7.833-20.666-16.71-33.013-23.148C419,78.384,403.6,75.757,388.36,78.478c-26.932,4.807-48.547,22.491-68.379,40.192-4.726,4.217-8.931,8.465-13,12.572-1.931,1.948-3.754,3.789-5.545,5.538-3.09,3.014-6.121,6.15-9.054,9.186-7.034,7.277-14.308,14.805-22.7,20.941-5.467,3.985-11.344,7.445-17.891,7.447a19.578,19.578,0,0,1-8.1-1.808c-11.366-5.1-20.048-18.363-27.025-29.018q-.834-1.274-1.638-2.5c-4.807-7.265-9.423-14.65-13.3-20.912-2.327-3.759-4.674-7.609-6.957-11.334-5.014-8.2-10.207-16.712-15.556-24.959l-.221-.34C170.406,70.2,158.649,52,144.771,38.04,128.288,21.48,112.589,14.392,96.753,16.37a50.914,50.914,0,0,0-14.606,4.182c-11.3,5.046-20.865,13.7-28.73,21.509C37.042,58.319,22.856,78.16,9.133,97.35l-2.62,3.666-.2-.145,2.62-3.663C22.66,78.018,36.85,58.159,53.242,41.887c7.873-7.821,17.467-16.5,28.8-21.561a51.494,51.494,0,0,1,14.677-4.212c8.456-1.058,17.1.554,25.682,4.785,7.381,3.639,14.965,9.349,22.538,16.956,13.9,13.981,25.665,32.2,34.256,45.5l.221.34c5.351,8.249,10.544,16.747,15.568,24.964,2.266,3.727,4.63,7.568,6.957,11.329,3.877,6.266,8.49,13.649,13.285,20.912q.8,1.23,1.638,2.5c6.96,10.626,15.62,23.849,26.919,28.927,9.819,4.411,18.178-.091,25.748-5.614,8.377-6.123,15.644-13.642,22.671-20.912,2.935-3.036,5.966-6.173,9.058-9.191,1.791-1.747,3.614-3.587,5.543-5.535,4.069-4.109,8.276-8.365,13.007-12.579,19.859-17.726,41.506-35.427,68.5-40.254,15.29-2.728,30.752-.093,45.929,7.831C446.6,92.525,457.6,101.412,467.3,109.25c3.489,2.819,6.785,5.484,9.956,7.873,5.946,4.47,12.35,11.669,19.133,19.29,8.32,9.349,17.753,19.957,28.024,27.288,11.755,8.389,22.88,11.26,33.99,8.773,16.911-3.774,32.787-18.237,51.179-34.991,17.379-15.836,37.08-33.783,61.2-45.287,27.753-13.238,56.8-15.723,88.8-7.6A433.774,433.774,0,0,1,829.5,108.524a348.33,348.33,0,0,1,69.486,41.331c37.149,28.167,63.564,59.623,84.79,84.9,12.82,15.253,23.891,28.45,33.655,36.2Z" transform="translate(11.618 29.075)" fill="#0e0e0e"/>
        <path id="パス_8106" data-name="パス 8106" d="M1013.123,271.787c-11-7.432-23.084-20.346-38.379-36.694-20.889-22.321-46.889-50.1-81.656-75.725A394.9,394.9,0,0,0,824.1,118.239a548.646,548.646,0,0,0-68.115-25.623c-70.9-22.068-113.892,15.288-148.436,45.3-17.8,15.462-33.166,28.816-49.669,32.841-10.96,2.672-21.969.349-33.65-7.1-10.188-6.495-19.6-16.072-27.9-24.523-6.952-7.078-13.531-13.762-19.61-17.765-3.749-2.46-7.663-5.294-11.809-8.291-9.2-6.643-19.62-14.19-31.121-19.664-15.007-7.147-30.3-9.349-45.447-6.522-27.569,5.132-50.168,23.239-68.324,37.789l-.167.133c-4.6,3.69-8.7,7.422-12.672,11.036-2.076,1.887-4.035,3.673-5.959,5.348-3.166,2.763-6.269,5.641-9.268,8.426-6.96,6.463-14.156,13.145-22.388,18.488-7.058,4.578-15.428,9.058-25.473,4.239-11.113-5.329-19.664-18.506-26.536-29.094-.556-.856-1.1-1.7-1.638-2.517-4.674-7.135-9.1-14.227-13.162-20.838-2.305-3.737-4.637-7.568-6.889-11.273-4.979-8.18-10.129-16.638-15.433-24.848-8.517-13.256-20.174-31.412-33.951-45.437-16.3-16.6-31.862-23.955-47.553-22.459a51.573,51.573,0,0,0-14.491,3.639C73.106,24.08,63.462,32.193,55.523,39.53,38.777,55.007,24.111,74.317,9.926,92.99L7.562,96.1l-.194-.15L9.732,92.84c14.19-18.68,28.868-38,45.624-53.489C63.312,32,72.976,23.866,84.347,19.295a51.593,51.593,0,0,1,14.559-3.653c8.382-.79,16.943,1,25.438,5.361,7.312,3.752,14.82,9.523,22.314,17.16,13.777,14.045,25.458,32.211,33.98,45.477,5.307,8.219,10.456,16.68,15.438,24.848,2.254,3.7,4.586,7.533,6.889,11.273,4.072,6.608,8.483,13.7,13.16,20.83q.8,1.23,1.638,2.519c6.854,10.562,15.386,23.706,26.435,29.006,9.932,4.763,18.232.317,25.232-4.224,8.2-5.331,15.393-12.008,22.346-18.451,3-2.785,6.1-5.658,9.275-8.431,1.919-1.673,3.877-3.444,5.951-5.344,3.973-3.616,8.079-7.356,12.685-11.046l.167-.133c18.181-14.567,40.8-32.7,68.433-37.84,15.194-2.827,30.536-.627,45.6,6.544,11.521,5.484,21.955,13.039,31.158,19.682,4.143,3,8.055,5.823,11.8,8.286,6.114,4.015,12.69,10.709,19.652,17.8,17.28,17.605,36.851,37.533,61.32,31.562,16.442-4.008,31.791-17.344,49.563-32.785,17.334-15.061,36.984-32.133,60.875-42.416,27.456-11.809,56.174-12.776,87.8-2.935A545.751,545.751,0,0,1,824.2,118.017a395.339,395.339,0,0,1,69.033,41.154c34.787,25.635,60.794,53.426,81.693,75.754,15.29,16.338,27.367,29.242,38.342,36.657Z" transform="translate(13.557 28.451)" fill="#0e0e0e"/>
        <path id="パス_8107" data-name="パス 8107" d="M1008.977,272.451c-12.5-7.056-26.553-20.493-44.347-37.508-20.215-19.33-45.378-43.388-77.3-66.233a453.482,453.482,0,0,0-68.543-40.95c-24.9-11.925-46.859-20.087-64.5-26.649l-1.853-.689c-70.115-26.078-112.888,9.317-147.262,37.764-16.414,13.585-31.921,26.418-47.9,30.637-10.724,2.832-21.539,1.063-33.065-5.412-10.06-5.658-19.423-14.19-27.685-21.728-7.167-6.539-13.935-12.714-20.223-16.237-4.271-2.4-8.744-5.265-13.479-8.3-8.741-5.6-18.648-11.952-29.4-16.572-14.887-6.4-30.068-8.158-45.122-5.238-25.721,4.987-47.516,20.572-65.028,33.1l-3.577,2.554c-4.463,3.174-8.458,6.419-12.326,9.558-2.214,1.808-4.332,3.516-6.4,5.1-3.23,2.485-6.4,5.078-9.435,7.585-7.218,5.936-14.023,11.546-22.1,16.122-4.633,2.623-9.841,5.179-15.607,5.179a20.228,20.228,0,0,1-9.349-2.342c-10.845-5.555-19.268-18.658-26.034-29.17-.556-.864-1.1-1.722-1.636-2.539-4.546-6.989-8.948-14.107-13.039-20.757-2.276-3.712-4.576-7.523-6.81-11.2-4.938-8.146-10.045-16.569-15.307-24.764-16.882-26.42-45.135-70.627-80.549-68.317a52.264,52.264,0,0,0-14.375,3.08c-11.373,4.067-21.091,11.637-29.1,18.506C40.5,51.716,25.343,70.494,10.673,88.653L8.614,91.211l-.192-.155L10.488,88.5c14.668-18.169,29.837-36.955,46.99-51.664C65.5,29.945,75.243,22.363,86.656,18.282A52.542,52.542,0,0,1,101.1,15.189c35.562-2.318,63.859,41.971,80.771,68.43,5.265,8.2,10.372,16.621,15.312,24.769,2.231,3.69,4.539,7.489,6.82,11.2,4.077,6.643,8.478,13.762,13.022,20.749.539.829,1.082,1.678,1.638,2.539,6.751,10.5,15.152,23.561,25.95,29.084,9.553,4.886,17.768,1.1,24.718-2.832,8.05-4.566,14.86-10.168,22.07-16.1,3.051-2.509,6.207-5.1,9.44-7.59,2.054-1.579,4.158-3.287,6.4-5.1,3.87-3.139,7.873-6.4,12.338-9.568q1.764-1.255,3.577-2.554c17.531-12.547,39.351-28.14,65.124-33.139,15.106-2.93,30.337-1.164,45.267,5.253,10.768,4.628,20.685,10.985,29.434,16.592,4.731,3.033,9.2,5.9,13.467,8.293,6.313,3.543,13.091,9.728,20.269,16.277,17.155,15.654,36.6,33.395,60.521,27.079,15.93-4.2,31.414-17.02,47.809-30.588,17.307-14.326,36.927-30.563,60.617-39.636,27.178-10.409,55.6-9.809,86.886,1.83l1.853.689c17.644,6.564,39.609,14.729,64.518,26.659a453.763,453.763,0,0,1,68.58,40.972c31.933,22.853,57.1,46.918,77.326,66.255,17.78,17,31.823,30.43,44.284,37.471Z" transform="translate(15.496 27.791)" fill="#0e0e0e"/>
        <path id="パス_8108" data-name="パス 8108" d="M1004.839,273.133c-14.424-6.628-31.114-20.885-52.245-38.935-19-16.237-42.655-36.443-71-56.129a546.138,546.138,0,0,0-68.1-40.773c-19.408-9.683-36.576-17.027-51.723-23.51-4.514-1.931-8.778-3.757-12.862-5.538-69.4-30.324-110.231,1.83-146.253,30.2-15.723,12.382-30.573,24.075-45.971,28.457-10.485,2.984-21.106,1.754-32.475-3.759-9.932-4.817-18.84-12.016-27.458-18.975-7.381-5.968-14.363-11.6-20.858-14.638-4.81-2.249-9.868-5.083-15.219-8.087-8.259-4.628-17.617-9.875-27.611-13.7a79.41,79.41,0,0,0-44.8-3.956c-23.8,4.807-43.755,17.514-61.36,28.728-2.556,1.629-4.972,3.166-7.358,4.655-4.31,2.687-8.192,5.457-11.947,8.138-2.394,1.71-4.652,3.324-6.857,4.792-3.267,2.18-6.456,4.46-9.536,6.667-7.176,5.142-13.954,10-21.9,13.829-7.262,3.5-15.135,6.485-24.422,1.434-10.6-5.777-18.889-18.786-25.552-29.239l-1.638-2.566c-4.625-7.174-9.081-14.431-12.891-20.666-2.256-3.69-4.542-7.477-6.751-11.137-4.9-8.119-9.959-16.5-15.179-24.663C166.469,57.947,139.152,14.98,104.694,14.98c-.47,0-.937,0-1.412.025a53.33,53.33,0,0,0-14.269,2.522c-11.423,3.575-21.214,10.6-29.276,17-17.524,13.9-33.2,32.152-48.355,49.8L9.659,86.34l-.187-.162,1.722-2C26.362,66.513,42.04,48.254,59.574,34.339c8.089-6.416,17.9-13.46,29.365-17.047a53.517,53.517,0,0,1,14.326-2.534c35.282-1.2,63.16,42.657,79.811,68.863,5.221,8.17,10.286,16.557,15.182,24.668,2.214,3.661,4.5,7.447,6.753,11.137,3.808,6.239,8.261,13.5,12.886,20.666l1.638,2.566c6.643,10.431,14.919,23.411,25.463,29.156,9.174,5,16.975,2.032,24.2-1.439,7.919-3.823,14.69-8.672,21.859-13.807,3.083-2.214,6.271-4.492,9.541-6.672,2.214-1.476,4.46-3.08,6.852-4.788,3.757-2.684,7.641-5.459,11.959-8.148,2.386-1.476,4.8-3.026,7.356-4.655,17.622-11.223,37.6-23.943,61.446-28.76a79.723,79.723,0,0,1,44.935,3.966c10.011,3.833,19.376,9.085,27.64,13.718,5.351,3,10.4,5.833,15.206,8.077,6.52,3.048,13.509,8.694,20.912,14.67,17.027,13.755,36.325,29.343,59.7,22.69C571.966,162.3,586.8,150.62,602.5,138.253c17.31-13.627,36.927-29.07,60.44-36.942,26.924-9.017,55.079-6.82,86.067,6.721,4.081,1.784,8.345,3.607,12.859,5.538,15.15,6.483,32.322,13.831,51.738,23.517a546.991,546.991,0,0,1,68.13,40.788c28.356,19.694,52.013,39.907,71.021,56.144,21.116,18.041,37.793,32.288,52.188,38.9Z" transform="translate(17.43 27.115)" fill="#0e0e0e"/>
        <path id="パス_8109" data-name="パス 8109" d="M1000.7,273.837c-17.015-6.123-37.447-21.738-63.315-41.508-17.765-13.575-37.9-28.956-61.534-44.879a693.467,693.467,0,0,0-67.655-40.593c-14.611-7.6-28.093-14.023-39.988-19.682-8.165-3.89-15.881-7.563-22.828-11.071-68.772-34.807-109.5-4.3-145.427,22.612-14.97,11.206-29.116,21.8-43.863,26.3-22.954,7.007-42.146-6.5-59.077-18.427-7.614-5.363-14.808-10.426-21.517-12.941-5.38-2.02-11.049-4.753-17.052-7.649-8.119-3.914-16.51-7.964-25.729-11.056a83.867,83.867,0,0,0-44.478-2.672c-21.812,4.581-40.662,15.253-57.293,24.683-4.032,2.286-7.841,4.443-11.541,6.428-4.138,2.214-7.89,4.537-11.519,6.778-2.576,1.589-5.007,3.09-7.381,4.428-3.272,1.85-6.463,3.8-9.548,5.678-7.164,4.372-13.93,8.5-21.773,11.607-6.023,2.374-14.269,5.624-23.9.034-10.333-6-18.5-18.926-25.057-29.308l-1.643-2.6c-4.458-6.98-8.746-14-12.754-20.592-2.231-3.666-4.492-7.43-6.679-11.071-4.849-8.074-9.868-16.419-15.054-24.565-16.385-25.911-43.752-69.185-78.1-69.185h-.541a57.741,57.741,0,0,0-14.146,1.968c-11.563,3.1-21.819,9.912-29.473,15.5C43.913,45.167,27.713,62.9,12.046,80.023L10.705,81.5l-.18-.167,1.338-1.476C27.538,62.711,43.746,44.983,61.7,31.868c7.671-5.6,17.959-12.436,29.554-15.543a57.989,57.989,0,0,1,14.208-1.968c8.06-.108,16.267,2.177,24.4,6.785,7.026,3.981,14.232,9.841,21.421,17.413,13.506,14.23,24.789,32.071,33.026,45.1,5.181,8.143,10.2,16.483,15.056,24.575,2.19,3.639,4.451,7.4,6.679,11.071,4.008,6.591,8.293,13.61,12.751,20.587q.809,1.274,1.643,2.6c6.542,10.36,14.685,23.254,24.973,29.225,9.531,5.531,17.713,2.305,23.692-.049,7.821-3.1,14.579-7.221,21.733-11.587,3.088-1.885,6.278-3.831,9.555-5.686,2.362-1.333,4.79-2.834,7.363-4.428,3.634-2.244,7.381-4.561,11.531-6.785,3.69-1.985,7.506-4.143,11.538-6.426,16.646-9.43,35.513-20.119,57.364-24.71a84.085,84.085,0,0,1,44.6,2.679c9.236,3.1,17.635,7.149,25.761,11.071,6,2.893,11.659,5.624,17.032,7.627,6.736,2.527,13.942,7.6,21.571,12.97,16.884,11.89,36.022,25.367,58.863,18.392,14.709-4.49,28.833-15.069,43.791-26.27,18.178-13.612,36.979-27.7,60.331-34.384,26.7-7.641,54.616-3.8,85.342,11.757,6.945,3.513,14.658,7.186,22.823,11.071,11.9,5.658,25.382,12.087,40,19.682a694.7,694.7,0,0,1,67.677,40.605c23.642,15.92,43.779,31.311,61.547,44.889,25.852,19.755,46.271,35.36,63.249,41.471Z" transform="translate(19.368 26.413)" fill="#0e0e0e"/>
        <path id="パス_8110" data-name="パス 8110" d="M996.555,274.57c-20.744-5.513-46.968-23.579-80.168-46.448-13.743-9.467-29.316-20.2-46.284-31.262-24.329-15.871-46.313-29.089-67.21-40.411-10.306-5.585-19.773-10.5-28.927-15.241-12.208-6.33-22.749-11.809-32.125-17.236-68.2-39.57-108.886-10.579-144.78,14.983-14.163,10.087-27.542,19.622-41.577,24.2A45.984,45.984,0,0,1,541.1,165.47c-16.326,0-30.752-8.672-43.814-16.528-7.855-4.724-15.273-9.181-22.2-11.152a193.617,193.617,0,0,1-19-6.984,236.237,236.237,0,0,0-23.731-8.635,89.189,89.189,0,0,0-44.153-1.388c-19.748,4.31-37.311,13.164-52.806,20.973-5.658,2.856-11.017,5.553-16.144,7.873-3.936,1.779-7.545,3.658-11.031,5.476-2.778,1.452-5.412,2.819-7.946,4-3.24,1.506-6.4,3.1-9.447,4.635-7.189,3.626-13.979,7.051-21.765,9.442-5.978,1.823-14.168,4.32-23.372-1.368-10.087-6.229-17.775-18.523-24.563-29.372-.558-.891-1.107-1.769-1.648-2.627-4.283-6.77-8.411-13.563-12.616-20.511-2.214-3.639-4.443-7.381-6.606-10.992-4.815-8.045-9.794-16.363-14.931-24.481-9.642-15.332-20.1-31.412-32.689-44.751-15.332-16.279-30.054-24.417-45-24.865a55.846,55.846,0,0,0-14.023,1.407c-11.627,2.588-21.957,8.842-29.66,14-18.338,12.289-35.09,29.478-51.28,46.1l-.915.935-.177-.172.915-.94c16.2-16.626,32.949-33.823,51.325-46.124,7.718-5.166,18.075-11.44,29.741-14.038a56.215,56.215,0,0,1,14.09-1.412c7.954.246,16.048,2.753,24.056,7.467a98.579,98.579,0,0,1,21.123,17.467c12.589,13.356,23.059,29.448,32.706,44.775,5.139,8.119,10.119,16.439,14.936,24.486,2.163,3.614,4.4,7.351,6.6,10.992,4.2,6.943,8.333,13.738,12.616,20.5q.812,1.292,1.648,2.63c6.773,10.825,14.449,23.094,24.481,29.291,9.12,5.631,16.914,3.255,23.177,1.343,7.769-2.386,14.55-5.8,21.728-9.425,3.053-1.54,6.21-3.132,9.454-4.64,2.536-1.178,5.166-2.549,7.937-4,3.489-1.821,7.1-3.7,11.041-5.484,5.122-2.313,10.473-5.009,16.136-7.873,15.5-7.816,33.087-16.678,52.865-21a89.44,89.44,0,0,1,44.283,1.392,236.289,236.289,0,0,1,23.756,8.645,193.637,193.637,0,0,0,18.978,6.975c6.962,1.968,14.395,6.446,22.262,11.177,16.729,10.062,35.7,21.465,58,14.188,13.991-4.566,27.355-14.085,41.5-24.164,35.953-25.616,76.7-54.646,145.048-15.007,9.368,5.437,19.91,10.9,32.113,17.221,9.157,4.748,18.624,9.656,28.932,15.253,20.912,11.317,42.891,24.548,67.227,40.421,16.975,11.071,32.546,21.8,46.288,31.267,33.181,22.855,59.389,40.908,80.092,46.412Z" transform="translate(21.305 25.685)" fill="#0e0e0e"/>
        <path id="パス_8111" data-name="パス 8111" d="M992.414,275.347c-26.728-4.716-61.416-26.742-109.427-57.227q-9-5.72-18.626-11.809c-25.928-16.365-47.142-29.151-66.767-40.234-6.305-3.562-12.326-6.906-18.146-10.141-15.905-8.835-29.64-16.466-41.137-24.048-67.69-44.648-108.406-17.042-144.33,7.314-13.3,9.017-25.857,17.531-39.083,22.129a49.515,49.515,0,0,1-16.4,2.795c-15.064,0-28.583-6.748-40.888-12.891-8.1-4.045-15.745-7.873-22.924-9.263-6.643-1.3-13.676-3.624-21.116-6.087-6.889-2.278-14-4.635-21.573-6.448a95.924,95.924,0,0,0-43.828-.1c-17.605,3.993-33.7,11.221-47.885,17.6-7.459,3.351-14.515,6.517-21.182,8.972-3.712,1.363-7.135,2.829-10.456,4.246-3.014,1.287-5.86,2.5-8.611,3.506-3.149,1.151-6.222,2.374-9.191,3.557-7.265,2.9-14.126,5.629-21.91,7.309l-.079.017c-6.232,1.331-13.984,2.989-22.774-2.785-9.824-6.453-17.389-18.661-24.063-29.431l-1.658-2.667c-4.394-7.007-8.689-14.136-12.478-20.42-2.177-3.612-4.389-7.322-6.527-10.911-4.778-8.013-9.715-16.3-14.813-24.4C177.456,69.415,166.715,52.8,154.18,39.353c-15.1-16.193-29.616-24.526-44.37-25.468a57.814,57.814,0,0,0-13.912.849c-11.711,2.076-22.1,7.772-29.845,12.5C47.28,38.7,29.982,55.355,13.253,71.461l-.45.433-.172-.177.45-.433C29.81,55.17,47.13,38.507,65.923,27.025,73.688,22.285,84.1,16.575,95.854,14.493a58.082,58.082,0,0,1,13.974-.854c7.846.492,15.822,3.2,23.706,7.993A101.081,101.081,0,0,1,154.36,39.186c12.547,13.457,23.3,30.086,32.391,44.613,5.1,8.1,10.038,16.387,14.813,24.4,2.14,3.589,4.35,7.3,6.527,10.911,3.789,6.288,8.084,13.415,12.478,20.42l1.658,2.669c6.66,10.749,14.21,22.929,23.989,29.353,8.7,5.72,16.4,4.074,22.587,2.75l.079-.017c7.764-1.675,14.616-4.406,21.871-7.294,2.972-1.186,6.045-2.409,9.2-3.562,2.743-1,5.587-2.214,8.611-3.5,3.316-1.42,6.748-2.886,10.468-4.251,6.667-2.46,13.708-5.617,21.158-8.967,14.205-6.382,30.3-13.615,47.932-17.613a96.039,96.039,0,0,1,43.941.106c7.585,1.813,14.707,4.182,21.593,6.453,7.432,2.46,14.451,4.785,21.084,6.079,7.2,1.4,14.869,5.23,22.988,9.282,16.567,8.271,35.346,17.644,57.1,10.087,13.194-4.586,25.741-13.093,39.026-22.1,18.355-12.444,37.336-25.313,60.471-29.658a89.433,89.433,0,0,1,38.035,1.154c14.572,3.5,30.081,10.626,46.1,21.187,11.489,7.58,25.219,15.206,41.12,24.041,5.823,3.233,11.843,6.579,18.151,10.141,19.627,11.086,40.839,23.864,66.774,40.239q9.629,6.079,18.629,11.809c47.974,30.472,82.662,52.486,109.336,57.192Z" transform="translate(23.241 24.91)" fill="#0e0e0e"/>
        <path id="パス_8112" data-name="パス 8112" d="M988.28,276.179c-30.243-2.765-70.443-24.221-129.652-60.351l-7.1-4.335c-19.354-11.809-39.363-24.034-59.214-35.72l-7.228-4.249c-19.78-11.615-36.861-21.65-50.289-31.653C667.584,89.8,626.74,116.19,590.705,139.478c-12.367,7.993-24.048,15.541-36.391,20.1-21.286,7.858-39.9.45-56.338-6.087-8.365-3.329-16.267-6.473-23.687-7.267-7.381-.79-15.177-2.807-23.438-4.943-6.15-1.592-12.527-3.238-19.2-4.507a103.949,103.949,0,0,0-43.506,1.181c-15.389,3.621-29.808,9.425-42.527,14.547-9.413,3.789-18.3,7.368-26.659,9.75-3.444.984-6.667,2.059-9.782,3.1-3.284,1.1-6.4,2.133-9.371,2.928s-5.9,1.651-8.729,2.477c-7.413,2.167-14.412,4.217-22.267,5.179l-.379.047c-6.045.738-13.566,1.638-21.947-4.214-9.563-6.682-17-18.8-23.564-29.488q-.844-1.375-1.666-2.706c-4.126-6.643-8.183-13.408-12.107-19.952l-.246-.394c-2.15-3.584-4.335-7.27-6.451-10.825-4.736-7.983-9.634-16.237-14.69-24.312-8.953-14.385-19.549-30.863-32.044-44.409C140.852,23.572,126.546,15.044,111.982,13.6a59.8,59.8,0,0,0-13.8.293c-11.809,1.55-22.25,6.694-30.032,11C48.944,35.523,31.1,51.613,13.845,67.171l-.165-.185C30.945,51.421,48.8,35.321,68.033,24.671c7.8-4.315,18.274-9.472,30.12-11.027a60.028,60.028,0,0,1,13.853-.293c7.737.76,15.6,3.624,23.372,8.512A104.425,104.425,0,0,1,155.9,39.506c12.517,13.563,23.126,30.054,32.081,44.446,5.058,8.074,9.956,16.331,14.692,24.317,2.116,3.562,4.3,7.248,6.451,10.825l.246.394c3.936,6.542,7.978,13.3,12.1,19.947.549.886,1.1,1.791,1.666,2.706,6.551,10.67,13.974,22.762,23.5,29.412,8.3,5.8,15.772,4.9,21.775,4.182l.379-.047c7.833-.959,14.825-3.006,22.228-5.166,2.824-.827,5.745-1.683,8.734-2.477s6.077-1.828,9.349-2.925c3.115-1.041,6.337-2.118,9.792-3.1,8.34-2.377,17.221-5.954,26.632-9.742,12.729-5.125,27.156-10.933,42.561-14.559a104.231,104.231,0,0,1,43.609-1.181c6.684,1.272,13.056,2.918,19.219,4.51,8.252,2.133,16.045,4.148,23.4,4.935,7.454.8,15.371,3.951,23.753,7.285,16.387,6.52,34.959,13.91,56.156,6.084,12.316-4.546,23.984-12.089,36.342-20.073,18.513-11.964,37.656-24.334,60.73-27.532a86.26,86.26,0,0,1,37.855,3.363c14.466,4.451,29.869,12.717,45.779,24.57,13.418,10,30.506,20.028,50.267,31.641l7.23,4.249c19.844,11.686,39.855,23.9,59.217,35.72l7.1,4.337c59.185,36.111,99.355,57.554,129.551,60.317Z" transform="translate(25.172 24.078)" fill="#0e0e0e"/>
        <path id="パス_8113" data-name="パス 8113" d="M984.123,277.057c-30.26-.32-71.958-16.729-131.259-51.664-22.73-13.388-45.651-27.461-65.877-39.875-23.751-14.579-41.651-25.812-55.75-37.619-66.742-55.888-106.049-31.6-144.052-8.136-11.369,7.019-22.107,13.652-33.476,18.1A59.763,59.763,0,0,1,531.647,162c-11.974,0-23.047-3.292-33.264-6.328-8.645-2.571-16.81-5-24.5-5.166-8.19-.172-16.862-1.8-26.046-3.523-5.334-1-10.849-2.037-16.547-2.839A114.277,114.277,0,0,0,388.1,146.6c-13.105,3.2-25.133,7.575-36.763,11.809-11.509,4.182-22.388,8.143-32.538,10.217-3.144.64-6.114,1.361-8.985,2.057-3.6.871-7,1.7-10.259,2.244-2.721.458-5.388.957-7.966,1.442-7.661,1.434-14.9,2.79-22.919,3l-.674.017c-5.855.15-13.145.34-21.126-5.587-9.3-6.9-16.611-18.926-23.059-29.522q-.854-1.4-1.68-2.755c-3.823-6.214-7.595-12.547-11.243-18.651l-.962-1.611c-2.121-3.553-4.281-7.208-6.369-10.744-4.7-7.956-9.555-16.183-14.574-24.238-14.375-23.207-41.117-66.4-74.832-70.91a62.352,62.352,0,0,0-13.684-.266c-11.9,1.016-22.4,5.612-30.216,9.5C50.608,32.384,32.449,47.7,14.9,62.5l-.16-.187C32.314,47.5,50.483,32.175,70.157,22.388c7.836-3.9,18.36-8.5,30.307-9.523a62.37,62.37,0,0,1,13.735.266c14.436,1.929,28.583,10.68,43.243,26.747,12.471,13.666,22.931,30.014,31.756,44.283,5.019,8.055,9.878,16.284,14.577,24.24,2.089,3.535,4.249,7.191,6.369,10.744l.962,1.611c3.646,6.114,7.42,12.434,11.243,18.648q.827,1.356,1.678,2.755c6.438,10.579,13.735,22.589,23,29.466,7.912,5.875,14.852,5.7,20.973,5.538l.672-.017c8-.214,15.229-1.567,22.88-3,2.581-.492,5.25-.984,7.974-1.442,3.25-.546,6.642-1.368,10.239-2.241,2.876-.7,5.845-1.415,8.994-2.057,10.143-2.069,21.005-6.023,32.5-10.207,11.634-4.236,23.669-8.611,36.79-11.809a114.5,114.5,0,0,1,43.275-2.46c5.705.8,11.223,1.838,16.56,2.842,9.172,1.722,17.834,3.346,26,3.518,7.723.162,15.905,2.6,24.568,5.166,16.186,4.812,34.534,10.266,55.165,2.2,11.351-4.428,22.08-11.071,33.439-18.08,18.727-11.563,38.094-23.527,61.143-25.586,12.454-1.117,24.794.716,37.717,5.6,14.574,5.513,29.453,14.719,45.486,28.147,14.087,11.794,31.982,23.022,55.723,37.6,20.223,12.414,43.144,26.484,65.872,39.872,59.261,34.908,100.932,51.315,131.128,51.635Z" transform="translate(27.124 23.2)" fill="#0e0e0e"/>
        <path id="パス_8114" data-name="パス 8114" d="M973.158,278.238c-14.906,0-31.938-3.014-50.751-8.99-22.617-7.186-47.937-18.7-75.265-34.219-20.42-11.6-41.823-24.585-65.441-39.7C758.944,180.766,741.056,168.5,727.717,156c-66.28-62.117-105.931-38.625-144.275-15.9-9.841,5.833-20.021,11.865-30.327,16.124-20.122,8.315-38.256,4.736-54.255,1.577-8.948-1.766-17.4-3.444-25.379-2.928-9.132.583-18.806-.573-29.045-1.8-4.374-.522-8.9-1.063-13.5-1.476a127.7,127.7,0,0,0-42.859,3.752c-10.778,2.726-20.885,6.1-30.656,9.349-13.718,4.576-26.673,8.9-38.763,10.4-2.785.344-5.449.75-8.028,1.144-3.971.605-7.72,1.176-11.317,1.429-2.308.165-4.583.352-6.783.536-8.057.667-15.667,1.294-23.994.7l-.95-.066c-5.966-.426-12.727-.908-20.321-6.9-9.036-7.135-16.22-19.059-22.557-29.581q-.856-1.424-1.69-2.8c-3.525-5.786-7.012-11.661-10.384-17.342l-1.685-2.839c-2.094-3.523-4.227-7.149-6.288-10.655C200,100.795,195.177,92.6,190.2,84.562c-14.131-22.946-40.431-65.655-73.867-71.346a64.92,64.92,0,0,0-13.568-.822c-9.373.364-18.752,2.832-30.406,8C52.274,29.294,32.967,44.5,15.935,57.9l-.153-.192C32.826,44.291,52.146,29.08,72.258,20.167,83.942,15,93.347,12.516,102.765,12.149a65.042,65.042,0,0,1,13.617.827c14.247,2.421,28.181,11.366,42.6,27.345,11.848,13.128,22.115,28.961,31.449,44.114,4.982,8.037,9.8,16.237,14.463,24.166,2.062,3.508,4.182,7.135,6.286,10.655l1.685,2.839c3.37,5.681,6.859,11.563,10.382,17.339q.836,1.38,1.693,2.8c6.325,10.505,13.5,22.415,22.5,29.522,7.536,5.946,14.269,6.424,20.174,6.847l.95.069c8.311.6,15.91-.034,23.955-.7,2.214-.182,4.478-.371,6.788-.534,3.572-.246,7.319-.824,11.285-1.429,2.578-.394,5.245-.8,8.033-1.144,12.055-1.5,25.01-5.816,38.716-10.387,9.777-3.26,19.888-6.643,30.676-9.361a127.886,127.886,0,0,1,42.94-3.757c4.613.418,9.135.959,13.511,1.476,10.227,1.23,19.891,2.377,29,1.793,8.01-.509,16.483,1.164,25.441,2.933,15.964,3.152,34.059,6.724,54.124-1.565,10.289-4.251,20.459-10.279,30.295-16.107,19.01-11.265,38.669-22.917,61.731-23.879,12.449-.519,24.754,2.057,37.629,7.873,14.488,6.551,29.276,16.995,45.208,31.928,13.327,12.488,31.205,24.745,53.95,39.3,23.6,15.11,45,28.093,65.419,39.69,54.151,30.752,98.809,45.208,132.722,42.955l.017.246Q976.659,278.238,973.158,278.238Z" transform="translate(29.04 22.24)" fill="#0e0e0e"/>
        <path id="パス_8115" data-name="パス 8115" d="M958.255,280.234a179.024,179.024,0,0,1-41.28-5.228c-23.8-5.658-49.228-15.849-75.58-30.26-21.291-11.642-43.154-24.936-64.988-39.516-25.138-16.786-40.753-29.062-52.215-41.046-29.505-30.856-56.444-45.915-82.352-46.042H641.5c-22.914,0-42.807,11.381-62.058,22.388-8.736,5-17.77,10.163-26.912,14.146-19.519,8.5-37.353,6.748-53.1,5.193-9.277-.91-18.043-1.771-26.341-.551-10.249,1.508-21.106.92-32.6.3-3.22-.175-6.551-.354-9.9-.492a145.349,145.349,0,0,0-42.537,5.036c-8.655,2.268-16.924,5.147-24.922,7.929-14.3,4.979-27.894,9.708-40.665,9.708q-2,0-3.968-.16a53.685,53.685,0,0,0-10.416.445,45.674,45.674,0,0,1-8.994.4c-4.268-.391-8.424-.492-12.441-.6a121.951,121.951,0,0,1-18.22-1.38l-1.21-.207c-5.769-.984-12.3-2.1-19.531-8.158-8.771-7.356-15.826-19.189-22.051-29.623q-.864-1.449-1.707-2.859c-3.215-5.334-6.4-10.741-9.5-15.972q-1.218-2.067-2.436-4.128c-2.064-3.489-4.168-7.085-6.2-10.562-4.623-7.9-9.405-16.072-14.348-24.09-13.9-22.671-39.764-64.888-72.927-71.764a61.411,61.411,0,0,0-13.455-1.385c-9.74.138-19.748,2.263-30.595,6.5C53.953,26.28,34.318,40.685,16.986,53.394l-.145-.2C34.183,40.476,53.832,26.059,74.385,18.039c10.874-4.246,20.912-6.377,30.679-6.515a61.593,61.593,0,0,1,13.5,1.385c14.055,2.915,27.778,12.055,41.954,27.945,11.794,13.221,21.925,28.932,31.119,43.939,4.945,8.02,9.728,16.193,14.35,24.1,2.035,3.476,4.138,7.071,6.2,10.562l2.438,4.126c3.085,5.23,6.276,10.638,9.494,15.969l1.707,2.854c6.214,10.421,13.258,22.233,22,29.564,7.171,6.013,13.676,7.122,19.416,8.1.408.069.812.138,1.21.209a120.861,120.861,0,0,0,18.186,1.375c4.02.1,8.178.2,12.456.6a45.256,45.256,0,0,0,8.948-.4,54.518,54.518,0,0,1,10.463-.443c13.863,1.137,28.76-4.047,44.529-9.536,8-2.785,16.277-5.658,24.941-7.937a145.758,145.758,0,0,1,42.608-5.043c3.351.135,6.684.315,9.9.492,11.482.62,22.324,1.206,32.551-.3,8.325-1.23,17.106-.362,26.4.551,15.716,1.543,33.525,3.292,52.98-5.186,9.13-3.978,18.156-9.14,26.887-14.134,19.276-11.022,39.206-22.42,62.181-22.42h.342c12.461.062,24.755,3.393,37.587,10.183,14.412,7.627,29.114,19.381,44.943,35.934,11.45,11.971,27.062,24.238,52.173,41.011,21.829,14.577,43.688,27.867,64.969,39.508,63.864,34.935,108.29,37.916,134.312,34.278l.034.246A127.249,127.249,0,0,1,958.255,280.234Z" transform="translate(30.988 21.205)" fill="#0e0e0e"/>
        <path id="パス_8116" data-name="パス 8116" d="M940.814,283.293a184.352,184.352,0,0,1-29.276-2.421c-24.735-3.983-50.269-12.832-75.892-26.3A610.394,610.394,0,0,1,771.1,215.229c-23.618-16.456-39.179-29.645-50.434-42.761-29.318-34.115-56.186-51.315-82.129-52.614-23.158-1.149-43.622,10.225-63.406,21.227-7.54,4.182-15.339,8.529-23.212,12.139-18.87,8.655-36.384,8.66-51.834,8.665-9.651,0-18.766,0-27.421,1.988-12.564,2.878-26.454,3.826-42.458,2.9-13.7-.795-28.381,2.568-42.207,6.32-7.176,1.946-14.139,4.244-20.872,6.465-14.432,4.763-28.2,9.307-41.174,9.307a49.421,49.421,0,0,1-7.627-.571,68.847,68.847,0,0,0-11.071-.568,70.734,70.734,0,0,1-8.434-.308l-2.135-.258c-9.651-1.164-18.769-2.263-28.425-4.92l-1.449-.4c-5.577-1.52-11.9-3.243-18.764-9.363-8.5-7.58-15.43-19.31-21.541-29.66l-1.722-2.92c-2.9-4.859-5.791-9.784-8.586-14.547q-1.6-2.741-3.2-5.469c-2.035-3.444-4.111-7.019-6.116-10.466C202.3,101.546,197.556,93.4,192.651,85.4c-20.294-33.313-43.058-65.109-71.963-72.214a71.618,71.618,0,0,0-13.337-1.939c-9.425-.512-19.2,1.075-30.777,5C57.163,22.815,39.331,34.444,18.036,48.984l-.14-.2C39.208,34.24,57.055,22.591,76.5,16.005c11.6-3.936,21.4-5.523,30.87-5.009a71.714,71.714,0,0,1,13.381,1.946C134.61,16.35,148.126,25.7,162.056,41.483c11.75,13.327,21.748,28.915,30.8,43.774,4.92,8,9.651,16.151,14.24,24.029,2.007,3.444,4.081,7.009,6.116,10.466l3.2,5.467c2.792,4.763,5.681,9.688,8.584,14.547l1.722,2.92c6.1,10.333,13.019,22.046,21.492,29.6,6.822,6.082,13.115,7.8,18.665,9.309l1.452.4c9.639,2.662,18.744,3.759,28.388,4.92l2.135.258a68.335,68.335,0,0,0,8.4.308,68.733,68.733,0,0,1,11.1.573c15.108,2.352,31.417-3.031,48.685-8.729,6.736-2.214,13.7-4.522,20.885-6.47,13.846-3.757,28.553-7.135,42.283-6.328,15.991.925,29.849-.022,42.392-2.893,8.682-1.988,17.809-1.99,27.475-2,15.425,0,32.91,0,51.73-8.643,7.873-3.607,15.659-7.939,23.2-12.131,9.917-5.513,20.174-11.216,30.625-15.27,11.72-4.544,22.484-6.5,32.912-5.986,12.5.62,24.8,4.714,37.6,12.515,14.348,8.741,28.961,21.9,44.682,40.185,11.253,13.1,26.8,26.272,50.4,42.719a609.339,609.339,0,0,0,64.543,39.321c47.45,24.949,95.7,34.042,135.9,25.6l.052.246A150.125,150.125,0,0,1,940.814,283.293Z" transform="translate(32.929 20.064)" fill="#0e0e0e"/>
        <path id="パス_8117" data-name="パス 8117" d="M921.943,287.546q-7.873,0-15.856-.689c-25.532-2.214-51.172-9.725-76.2-22.356a467.361,467.361,0,0,1-64.1-39.161c-22.277-16.2-37.744-30.332-48.677-44.473-29.493-38.153-55.526-57.049-81.924-59.47-23.333-2.138-43.41,8.82-64.666,20.42-6.244,3.407-12.7,6.93-19.19,10.062-18.176,8.756-34.556,10.365-50.4,11.922-10.087.984-19.6,1.924-28.664,4.731-13.433,4.155-27.5,5.046-42.4,5.986-12.852.812-26.555,3.3-41.892,7.607-3.821,1.073-7.607,2.175-11.268,3.24-17.767,5.166-34.689,10.087-50.756,10.087a71.137,71.137,0,0,1-7.75-.408q-1.9-.207-3.752-.4a148.465,148.465,0,0,1-15.846-2.214c-11.088-2.4-20.37-4.542-30.45-8.4l-1.661-.63c-5.39-2.035-11.5-4.34-18.026-10.525-8.234-7.8-15.032-19.436-21.03-29.692q-.886-1.508-1.749-2.984c-2.578-4.362-5.152-8.78-7.641-13.054q-2.015-3.444-4.018-6.889c-2-3.417-4.042-6.943-6.018-10.352-4.554-7.855-9.263-15.991-14.136-23.972C173.946,53.046,151.536,21.481,122.868,13.3a75.63,75.63,0,0,0-13.221-2.5c-9.519-.967-19.359.143-30.964,3.5-19.775,5.708-38.689,17.128-59.6,30.364l-.133-.209c20.924-13.243,39.855-24.673,59.66-30.391,11.637-3.361,21.507-4.475,31.057-3.506a75.879,75.879,0,0,1,13.263,2.507C136.615,16.967,149.918,26.5,163.6,42.2c11.735,13.47,22,29.6,30.484,43.609,4.876,7.993,9.595,16.119,14.139,23.977,1.968,3.41,4.018,6.935,6.02,10.352q2.005,3.425,4.015,6.889c2.49,4.271,5.063,8.689,7.641,13.039q.866,1.476,1.749,2.987c5.991,10.244,12.778,21.856,20.985,29.635,6.49,6.15,12.577,8.448,17.945,10.473.561.212,1.117.421,1.663.632,10.062,3.848,19.335,5.988,30.413,8.387a151.7,151.7,0,0,0,15.819,2.214c1.23.13,2.485.261,3.754.4,18.3,2,37.786-3.678,58.41-9.681,3.661-1.065,7.447-2.167,11.27-3.243,15.354-4.31,29.075-6.8,41.944-7.614,14.882-.94,28.942-1.828,42.345-5.976,9.085-2.812,18.619-3.749,28.713-4.741,15.819-1.555,32.179-3.161,50.316-11.9,6.49-3.127,12.943-6.643,19.189-10.055,10.22-5.577,20.789-11.344,31.449-15.3,11.937-4.428,22.848-6.114,33.36-5.149,12.574,1.151,24.9,6.015,37.68,14.867,14.286,9.917,28.8,24.535,44.4,44.709,10.918,14.124,26.371,28.241,48.628,44.426A467.007,467.007,0,0,0,830,264.278c58.169,29.355,106.873,25.406,137.485,16.924l.066.246A170.373,170.373,0,0,1,921.943,287.546Z" transform="translate(34.877 18.812)" fill="#0e0e0e"/>
        <path id="パス_8118" data-name="パス 8118" d="M903.088,292.957a179.612,179.612,0,0,1-78.938-18.451A376.317,376.317,0,0,1,760.5,235.524c-21.054-15.991-36.4-31.094-46.908-46.188-29.239-41.981-55.239-63.153-81.823-66.607-23.574-3.065-44.283,8.158-66.211,20.041-4.829,2.618-9.824,5.324-14.823,7.85-17.4,8.793-33.318,11.9-48.712,14.911-10.6,2.071-20.612,4.027-30.164,7.74-14.1,5.484-29.257,7.56-42.352,9.076-12.252,1.42-25.849,4.327-41.577,8.891l-4.815,1.4c-23.923,6.994-44.581,13.039-65.077,9.25l-1.584-.29a157.655,157.655,0,0,1-18.1-4.045,203.05,203.05,0,0,1-30.342-11.607c-.605-.3-1.23-.6-1.838-.9-5.213-2.529-11.12-5.4-17.325-11.651-7.959-8.028-14.628-19.551-20.513-29.717q-.9-1.547-1.774-3.058c-2.244-3.833-4.49-7.718-6.662-11.472q-2.436-4.212-4.859-8.379c-1.968-3.378-3.978-6.866-5.924-10.239-4.519-7.836-9.194-15.942-14.023-23.92-19.578-32.475-41.614-63.8-70.051-73.068a79.68,79.68,0,0,0-13.108-3.056c-9.61-1.432-19.509-.8-31.151,2-20.174,4.837-39.4,15.534-60.654,27.982L20,40.256C41.273,27.79,60.524,17.091,80.722,12.244c11.674-2.8,21.6-3.444,31.244-2a79.956,79.956,0,0,1,13.147,3.065c13.492,4.391,26.585,14.122,40.02,29.731C176.82,56.621,186.941,72.624,195.3,86.49c4.839,7.981,9.514,16.087,14.023,23.925,1.944,3.373,3.954,6.859,5.924,10.239q2.426,4.165,4.856,8.379c2.175,3.754,4.428,7.627,6.665,11.472q.878,1.511,1.771,3.058c5.877,10.153,12.547,21.65,20.476,29.665,6.175,6.227,12.055,9.083,17.258,11.6l1.838.9a204.613,204.613,0,0,0,30.3,11.592,157.077,157.077,0,0,0,18.073,4.037l1.584.293c20.437,3.771,41.07-2.261,64.964-9.245l4.815-1.4c15.733-4.569,29.345-7.479,41.609-8.9,13.081-1.513,28.216-3.587,42.293-9.061,9.573-3.72,19.6-5.678,30.206-7.752,15.374-3.006,31.274-6.111,48.645-14.889,5-2.527,9.988-5.233,14.815-7.848,43.265-23.446,84.139-45.59,148.35,46.65,10.5,15.071,25.832,30.162,46.857,46.134A376.054,376.054,0,0,0,824.261,274.3c55.827,26.988,106.443,19.381,139.077,8.247l.079.246A188.1,188.1,0,0,1,903.088,292.957Z" transform="translate(36.806 17.481)" fill="#0e0e0e"/>
        <path id="パス_8119" data-name="パス 8119" d="M885.653,299.4a158.985,158.985,0,0,1-67.247-14.749,313.3,313.3,0,0,1-63.21-38.8c-20.211-16.023-34.972-31.692-45.14-47.9-28.949-46.136-54.946-69.67-81.811-74.064-23.893-3.909-45.351,7.791-68.069,20.174-3.279,1.789-6.67,3.639-10.045,5.425-16.483,8.726-31.8,13.194-46.6,17.512-11.268,3.287-21.9,6.4-32.081,11.14-14.928,6.967-30.45,10.161-42.315,12.163-11.627,1.968-24.356,5.1-41.248,10.178-17.974,5.4-35.215,10.579-52.09,10.579a71.012,71.012,0,0,1-17.917-2.2,157.616,157.616,0,0,1-19.773-6.064,205.216,205.216,0,0,1-30.233-14.818c-.647-.394-1.3-.785-1.968-1.181-5.043-3.011-10.761-6.426-16.668-12.763-7.683-8.244-14.222-19.657-19.992-29.727-.608-1.058-1.208-2.108-1.806-3.142-1.9-3.277-3.8-6.6-5.644-9.8-1.882-3.277-3.831-6.667-5.74-9.966-1.936-3.341-3.914-6.788-5.828-10.124-4.487-7.818-9.125-15.9-13.932-23.864-19.217-32.044-40.888-63.129-69.1-73.5a84.6,84.6,0,0,0-12.992-3.612c-9.7-1.909-19.659-1.752-31.338.492-20.543,3.954-40.1,13.925-61.7,25.6l-.116-.216c21.632-11.688,41.191-21.679,61.78-25.635,11.71-2.251,21.7-2.409,31.431-.492a84.452,84.452,0,0,1,13.039,3.626c13.3,4.891,26.181,14.81,39.375,30.319,11.637,13.688,21.618,29.562,29.847,43.285,4.807,7.971,9.447,16.058,13.935,23.876,1.914,3.336,3.892,6.785,5.828,10.124,1.909,3.3,3.855,6.689,5.74,9.966,1.843,3.2,3.747,6.527,5.644,9.8l1.806,3.144c5.762,10.057,12.3,21.455,19.957,29.68,5.885,6.313,11.585,9.715,16.616,12.719l1.968,1.183a205.075,205.075,0,0,0,30.2,14.8,157.866,157.866,0,0,0,19.743,6.052c22.533,5.84,45.528-1.065,69.869-8.365,16.909-5.078,29.638-8.219,41.275-10.185,11.838-2,27.338-5.189,42.239-12.143,10.19-4.758,20.843-7.873,32.118-11.155,14.793-4.315,30.088-8.778,46.554-17.492,3.375-1.786,6.766-3.636,10.043-5.412,22.754-12.409,44.249-24.13,68.226-20.208,12.847,2.1,25.3,8.51,38.084,19.593,14.237,12.345,28.595,30.2,43.9,54.584,10.156,16.188,24.9,31.837,45.083,47.841a312.988,312.988,0,0,0,63.161,38.773c53.713,24.826,106.142,13.469,140.664-.431l.091.229c-21.63,8.709-43.179,13.723-64.049,14.9Q890.416,299.4,885.653,299.4Z" transform="translate(38.744 16.027)" fill="#0e0e0e"/>
        <path id="パス_8120" data-name="パス 8120" d="M869.593,306.706A139.825,139.825,0,0,1,812.652,294.9a266.8,266.8,0,0,1-62.765-38.625c-19.128-15.853-33.719-32.548-43.368-49.617-15.11-26.725-29.372-46.338-43.595-59.967-12.773-12.23-25.306-19.381-38.317-21.869-24.312-4.645-46.638,7.791-70.273,20.958q-2.394,1.333-4.8,2.669c-15.317,8.48-29.768,14.067-43.727,19.472-12.208,4.724-23.736,9.184-34.767,15.179-12.244,6.655-26.078,11.644-42.251,15.253-13.068,2.913-26.265,6.916-40.925,11.464-25.045,7.774-47.61,13.6-70.115,6.1a149.814,149.814,0,0,1-19.859-7.791A212.6,212.6,0,0,1,267.764,190.1q-1-.723-2.03-1.452c-5.132-3.658-10.441-7.442-16.082-13.885-7.42-8.453-13.816-19.753-19.475-29.722q-.925-1.634-1.838-3.235-2.31-4.037-4.593-8.047c-2.182-3.833-4.428-7.794-6.643-11.642-1.9-3.294-3.845-6.7-5.725-9.993-4.455-7.8-9.063-15.873-13.839-23.839-17.959-30.091-40.084-62.408-68.147-73.936a89.4,89.4,0,0,0-12.874-4.182C106.86,7.8,96.549,7.473,84.994,9.158,64.082,12.209,43.37,21.882,22.224,32.377l-.111-.219C43.271,21.651,64.011,11.97,84.957,8.915c11.588-1.69,21.93-1.36,31.618,1.011a89.607,89.607,0,0,1,12.911,4.182c13.13,5.393,25.8,15.5,38.736,30.915,11.585,13.8,21.428,29.542,29.522,43.122,4.778,7.966,9.386,16.038,13.841,23.844,1.88,3.292,3.823,6.7,5.722,9.993,2.214,3.845,4.475,7.809,6.657,11.642q2.286,4.008,4.591,8.045.915,1.6,1.84,3.238c5.924,10.444,12.055,21.246,19.436,29.687,5.622,6.421,10.918,10.2,16.04,13.848q1.026.738,2.03,1.452A211.567,211.567,0,0,0,297.99,207.9a150.674,150.674,0,0,0,19.829,7.777c22.444,7.474,44.97,1.658,69.975-6.1,14.663-4.551,27.867-8.554,40.943-11.469,16.163-3.6,29.963-8.586,42.187-15.229,11.046-6,22.582-10.466,34.8-15.192,13.959-5.412,28.393-10.987,43.7-19.458l4.8-2.669c23.677-13.192,46.04-25.647,70.44-20.985,13.059,2.495,25.633,9.671,38.443,21.933,14.242,13.637,28.516,33.267,43.639,60.016,9.634,17.042,24.208,33.7,43.3,49.548a267.151,267.151,0,0,0,62.708,38.588c41.577,18.331,89.44,15.253,142.256-9.1l.1.224C924.91,299.727,896.318,306.7,869.593,306.706Z" transform="translate(40.69 14.458)" fill="#0e0e0e"/>
        <path id="パス_8121" data-name="パス 8121" d="M855.314,314.746a124.092,124.092,0,0,1-48.4-9.472A231.992,231.992,0,0,1,744.6,266.829c-18.368-15.92-32.364-33.19-41.6-51.329-14.112-27.719-27.539-48.419-41.053-63.281-12.254-13.477-24.321-21.837-36.9-25.559-26.44-7.826-51.691,6.778-76.113,20.9-13.531,7.823-26.511,14.05-39.065,20.07-13.777,6.613-26.816,12.857-39.242,20.582a163.712,163.712,0,0,1-42.2,18.338c-9.86,2.738-19.566,5.9-29.842,9.263-3.513,1.146-7.147,2.332-10.758,3.489-14.269,4.574-29.114,8.753-44.121,8.756a68.779,68.779,0,0,1-26.12-4.92,152.553,152.553,0,0,1-19.947-9.521,217.666,217.666,0,0,1-30.014-21.239c-.659-.554-1.324-1.1-1.993-1.663a107.1,107.1,0,0,1-15.6-15.069c-7.12-8.667-13.123-19.362-18.929-29.7q-.952-1.693-1.887-3.358-1.759-3.107-3.5-6.2c-2.495-4.428-5.075-8.987-7.607-13.408-1.865-3.252-3.776-6.615-5.622-9.865-4.428-7.789-9-15.844-13.745-23.8-17.583-29.67-39.329-61.7-67.175-74.376A94.492,94.492,0,0,0,118.8,10.2,81.874,81.874,0,0,0,87.09,7.692C65.8,9.835,44.752,18.763,23.265,28.532l-.1-.224c21.509-9.769,42.581-18.715,63.9-20.86a82.085,82.085,0,0,1,31.808,2.517,94.755,94.755,0,0,1,12.793,4.743c12.948,5.9,25.406,16.2,38.091,31.508,11.6,14,21.7,30.31,29.215,42.957,4.746,7.964,9.322,16.018,13.748,23.807,1.845,3.252,3.754,6.613,5.619,9.868,2.534,4.428,5.115,8.99,7.609,13.408l3.5,6.2q.937,1.661,1.887,3.358c5.8,10.333,11.809,21.017,18.9,29.667a107.642,107.642,0,0,0,15.563,15.034c.669.558,1.336,1.112,1.993,1.666a217.549,217.549,0,0,0,29.98,21.214,151.424,151.424,0,0,0,19.927,9.5c23.677,9.595,47.6,3.375,70.074-3.831,3.612-1.159,7.243-2.342,10.756-3.491,10.279-3.356,19.987-6.524,29.854-9.263a163.582,163.582,0,0,0,42.116-18.321c12.444-7.732,25.473-13.979,39.265-20.594,12.547-6.018,25.529-12.242,39.048-20.06,12.335-7.135,25.094-14.515,37.968-18.943,14.176-4.891,26.356-5.516,38.337-1.968,12.613,3.735,24.718,12.119,37,25.63,13.531,14.877,26.969,35.594,41.085,63.333,9.221,18.114,23.195,35.358,41.54,51.258a231.438,231.438,0,0,0,62.255,38.4c40.719,17.079,87.772,11.26,143.847-17.785l.113.219c-24.048,12.456-45.848,20.442-66.644,24.415A154.528,154.528,0,0,1,855.314,314.746Z" transform="translate(42.619 12.763)" fill="#0e0e0e"/>
        <path id="パス_8122" data-name="パス 8122" d="M842.108,323.389h-1.855a109.8,109.8,0,0,1-39.08-7.607A203.981,203.981,0,0,1,739.3,277.514c-17.637-15.991-31.038-33.837-39.828-53.044-13.932-30.435-27.323-53.14-40.938-69.377-12.348-14.741-24.627-23.842-37.54-27.827-24.6-7.592-48.4,4.908-72.645,19.536-10.188,6.15-20.174,11.809-29.827,17.293-17,9.649-33.055,18.761-48.294,29.355a167.628,167.628,0,0,1-42.148,21.428c-6.485,2.16-13.1,4.519-19.492,6.8-6.775,2.416-13.777,4.92-20.786,7.235-14.663,4.854-25.711,7.3-35.83,7.941a68.075,68.075,0,0,1-34.526-6.4,148.786,148.786,0,0,1-20.033-11.248,228.8,228.8,0,0,1-29.9-24.449l-1.8-1.722a140.742,140.742,0,0,1-15.27-16.4c-6.827-8.857-12.7-19.436-18.378-29.655l-1.948-3.5-2.352-4.2c-2.827-5.056-5.749-10.281-8.623-15.322-1.826-3.2-3.69-6.517-5.508-9.72-4.4-7.779-8.94-15.824-13.659-23.785-17.243-29.217-38.6-60.954-66.236-74.79a101.921,101.921,0,0,0-12.645-5.289,82.433,82.433,0,0,0-31.9-4.008C67.544,7.6,46.14,15.794,24.308,24.818l-.093-.226C46.069,15.553,67.482,7.341,89.179,6.116a82.737,82.737,0,0,1,31.982,4.022,102.017,102.017,0,0,1,12.675,5.3c12.771,6.4,25.02,16.9,37.451,32.1,11.546,14.117,21.5,30.287,28.885,42.807,4.719,7.964,9.265,16.008,13.661,23.79,1.811,3.2,3.69,6.517,5.508,9.72,2.874,5.041,5.8,10.266,8.625,15.322q1.171,2.1,2.349,4.2.972,1.734,1.948,3.5c5.676,10.212,11.541,20.771,18.358,29.623a140.031,140.031,0,0,0,15.253,16.375l1.8,1.722a228.74,228.74,0,0,0,29.872,24.425,148.811,148.811,0,0,0,20,11.228c22.247,10.623,44.143,7.058,70.174-1.56,7-2.318,14.006-4.817,20.779-7.233,6.4-2.283,13.009-4.645,19.5-6.8a167.169,167.169,0,0,0,42.086-21.4c15.253-10.6,31.308-19.716,48.311-29.367,9.656-5.479,19.64-11.145,29.822-17.29,13.583-8.195,24.968-14.429,36.394-18.205,13.258-4.387,25.18-4.829,36.45-1.351,12.96,4,25.279,13.125,37.656,27.9,13.629,16.272,27.033,38.984,40.974,69.439,8.778,19.189,22.157,37,39.769,52.965a203.6,203.6,0,0,0,61.8,38.222c52.444,20.867,108.12-5.107,145.439-26.462l.121.214c-25.121,14.375-47.344,23.92-67.941,29.183A150.745,150.745,0,0,1,842.108,323.389Z" transform="translate(44.557 10.954)" fill="#0e0e0e"/>
        <path id="パス_8123" data-name="パス 8123" d="M830.241,332.534a98.388,98.388,0,0,1-34.819-6.116,181.247,181.247,0,0,1-61.433-38.089c-16.926-16.068-29.732-34.489-38.057-54.756-13.644-33.213-26.927-57.95-40.608-75.639-12.414-16.045-24.892-25.911-38.155-30.155-22.117-7.08-43.75,2.214-69.427,18.378-27.308,17.184-53.834,34.14-77.934,52.648-14.368,10.99-28.538,19.236-42.094,24.516-3.754,1.459-7.568,2.977-11.255,4.446-9.349,3.725-19.037,7.577-28.7,10.879-14.112,4.822-25.468,7.216-35.739,7.531a66.081,66.081,0,0,1-34.731-8.261A152.327,152.327,0,0,1,297.17,224.94a238.592,238.592,0,0,1-29.793-27.657l-1.3-1.417a190.585,190.585,0,0,1-15.253-18.1c-6.527-9.046-12.259-19.472-17.8-29.557l-2.035-3.69-1.139-2.057c-3.166-5.747-6.463-11.7-9.686-17.389-1.786-3.149-3.619-6.411-5.39-9.563-4.369-7.774-8.886-15.812-13.58-23.778C184.3,62.966,163.353,31.537,135.907,16.493a107.366,107.366,0,0,0-12.53-5.848A83.664,83.664,0,0,0,91.291,5.134c-22.009.3-44.645,8.1-65.933,16.077l-.086-.231C46.589,13,69.25,5.183,91.3,4.888a83.8,83.8,0,0,1,32.182,5.528,107.422,107.422,0,0,1,12.547,5.86C163.512,31.35,184.49,62.813,201.4,91.6c4.694,7.969,9.213,16.008,13.583,23.783,1.771,3.152,3.6,6.411,5.39,9.563,3.233,5.7,6.52,11.642,9.7,17.386l1.139,2.057q1.011,1.845,2.035,3.69c5.538,10.087,11.268,20.5,17.785,29.522a188.442,188.442,0,0,0,15.224,18.082l1.3,1.415a239.2,239.2,0,0,0,29.768,27.63,152.249,152.249,0,0,0,20.087,12.953c24.417,13.391,48.2,8.256,70.273.716,9.659-3.3,19.332-7.154,28.688-10.877,3.69-1.476,7.5-2.987,11.255-4.448,13.531-5.27,27.685-13.5,42.035-24.479,24.11-18.515,50.631-35.476,77.954-52.663,25.734-16.186,47.423-25.512,69.623-18.4,13.31,4.259,25.832,14.151,38.273,30.238,13.7,17.713,26.991,42.468,40.64,75.7,8.313,20.235,21.1,38.625,38,54.673a181.084,181.084,0,0,0,61.35,38.037c50.754,19.1,108.221-10.908,147.031-35.139l.13.209c-16.729,10.441-42.1,25.323-69.24,33.951a147.5,147.5,0,0,1-39.028,7.24Q832.313,332.534,830.241,332.534Z" transform="translate(46.502 8.981)" fill="#0e0e0e"/>
        <path id="パス_8124" data-name="パス 8124" d="M819.276,342.063a88.148,88.148,0,0,1-29.586-4.891c-23.684-8.4-44.2-21.158-60.991-37.912a153.435,153.435,0,0,1-36.29-56.456c-13.246-36.022-26.356-62.851-40.079-82.018-12.454-17.4-25.124-28.046-38.738-32.538-23.352-7.72-46.689,4.465-66.425,17.4-24.174,15.836-49.6,35.018-77.742,58.649-15.007,12.569-29.158,21.854-42.042,27.6l-4.837,2.165c-11.364,5.09-23.126,10.355-34.794,14.449-13.713,4.866-25,7.135-35.488,7.135h-.177A64.978,64.978,0,0,1,317.151,245.5a156.633,156.633,0,0,1-20.206-14.7,250.029,250.029,0,0,1-29.682-30.868l-.185-.224c-5.166-6.3-10.52-12.81-15.839-20.69-6.207-9.2-11.784-19.453-17.18-29.37q-1.087-2-2.167-3.978c-3.489-6.374-7.1-12.965-10.7-19.359-1.747-3.1-3.54-6.305-5.272-9.405-4.345-7.769-8.835-15.8-13.5-23.773-16.525-28.3-37.085-59.411-64.332-75.683a112.955,112.955,0,0,0-12.414-6.4A85.3,85.3,0,0,0,93.4,4.043c-22.491-.615-45.43,6.428-67,13.689l-.079-.246c21.588-7.253,44.549-14.3,67.084-13.7a85.632,85.632,0,0,1,32.366,7.034,113.008,113.008,0,0,1,12.441,6.419C165.507,33.54,186.091,64.686,202.629,93c4.674,7.971,9.159,16.006,13.5,23.775,1.722,3.1,3.525,6.308,5.272,9.405,3.6,6.4,7.211,12.987,10.7,19.362q1.078,1.968,2.167,3.978c5.393,9.912,10.968,20.161,17.167,29.35,5.312,7.873,10.655,14.377,15.824,20.666l.185.224A248.517,248.517,0,0,0,297.1,230.6a156.428,156.428,0,0,0,20.174,14.678c25.313,15.652,49.779,10.293,70.361,2.987,11.669-4.091,23.416-9.349,34.775-14.444l4.837-2.163c12.862-5.737,26.988-15.007,41.986-27.566,28.152-23.635,53.59-42.825,77.772-58.666,13.108-8.586,23.746-13.986,33.473-17,11.986-3.707,22.838-3.848,33.178-.431,13.664,4.517,26.376,15.189,38.859,32.627,13.735,19.189,26.855,46.035,40.1,82.077a153.2,153.2,0,0,0,36.229,56.38c16.759,16.729,37.247,29.468,60.9,37.852,48.6,17.221,104.959-14.363,148.625-43.814l.138.2c-18.914,12.756-44.025,28.688-70.541,38.736-13.93,5.277-27.193,8.5-39.422,9.595Q823.849,342.066,819.276,342.063Z" transform="translate(48.434 6.908)" fill="#0e0e0e"/>
        <path id="パス_8125" data-name="パス 8125" d="M809.039,351.932a79.1,79.1,0,0,1-25.094-3.9c-23.8-7.917-44.173-20.611-60.545-37.729a150.875,150.875,0,0,1-34.517-58.186c-12.749-38.871-25.623-67.81-39.363-88.5-12.471-18.781-25.323-30.221-39.294-34.972-18.149-6.17-37.784-1.058-63.665,16.582-26.044,17.753-51.138,40.593-75.4,62.683L469,209.875c-15.858,14.4-29.594,24.442-41.988,30.688-12.121,6.1-25.857,13.024-39.309,17.9-13.546,4.95-24.848,7.083-35.572,6.716-12.515-.431-24-4.357-35.127-12a165.05,165.05,0,0,1-20.292-16.429,261.4,261.4,0,0,1-29.572-34.079c-4.692-6.335-10.143-13.807-15.5-22.309-5.853-9.285-11.248-19.31-16.466-29.006q-1.2-2.231-2.391-4.428c-3.383-6.254-6.977-12.869-10.566-19.293-1.7-3.041-3.444-6.19-5.149-9.236-4.318-7.767-8.783-15.8-13.428-23.778-16.188-27.852-36.371-58.68-63.377-76.1a117.168,117.168,0,0,0-12.3-6.965A86.341,86.341,0,0,0,95.5,3.044C72.694,1.485,49.374,7.78,27.444,14.361l-.069-.234C49.327,7.539,72.672,1.241,95.522,2.811a86.651,86.651,0,0,1,32.553,8.537A117.22,117.22,0,0,1,140.4,18.325c27.045,17.438,47.25,48.3,63.448,76.177,4.645,7.981,9.1,16.013,13.428,23.78,1.7,3.046,3.444,6.195,5.149,9.238,3.6,6.416,7.191,13.039,10.564,19.278q1.193,2.214,2.391,4.428c5.216,9.691,10.608,19.711,16.459,28.991,5.356,8.5,10.805,15.962,15.5,22.294a261.453,261.453,0,0,0,29.544,34.047,164.8,164.8,0,0,0,20.262,16.4c20.37,14,42.1,15.625,70.475,5.257,13.438-4.871,27.168-11.787,39.282-17.891,12.375-6.234,26.093-16.259,41.934-30.649l2.16-1.968c24.272-22.095,49.369-44.943,75.43-62.7,12.242-8.345,22.449-13.59,32.128-16.51,11.428-3.444,21.815-3.484,31.754-.1,14.023,4.77,26.919,16.237,39.42,35.07,13.752,20.71,26.639,49.681,39.393,88.567a150.547,150.547,0,0,0,34.46,58.09c16.346,17.091,36.684,29.768,60.447,37.668C830.842,363.367,886.233,330,934.241,295.3l.145.2c-20.934,15.128-45.838,32.13-71.838,43.521-14.163,6.207-27.554,10.22-39.818,11.927a99.075,99.075,0,0,1-13.691.984Z" transform="translate(50.372 4.728)" fill="#0e0e0e"/>
        <path id="パス_8126" data-name="パス 8126" d="M799.445,362.114a71.344,71.344,0,0,1-21.249-3.09c-23.918-7.432-44.141-20.065-60.1-37.555-14.884-16.257-25.9-36.411-32.743-59.9-11.986-41.137-24.944-73.124-38.475-95.079-12.468-20.208-25.495-32.457-39.826-37.454-17.672-6.15-37.082-1.107-61.084,15.9-21.721,15.391-43.186,36.726-63.943,57.357-4.428,4.4-9,8.948-13.435,13.285-16.71,16.35-30.034,27.082-41.936,33.773-11.824,6.643-25.559,14.161-38.984,19.189-13.155,4.947-24.764,7.007-35.5,6.293-12.52-.832-24.071-5.363-35.311-13.856a173.012,173.012,0,0,1-20.378-18.159,274.124,274.124,0,0,1-29.463-37.287c-5.626-8.365-10.527-16.127-14.98-23.7-5.412-9.216-10.549-18.855-15.5-28.177q-1.432-2.694-2.856-5.363c-3.284-6.15-6.82-12.717-10.426-19.189q-2.49-4.465-5.014-9.046c-4.3-7.772-8.741-15.807-13.366-23.8-15.8-27.325-35.562-57.773-62.435-76.529a121.37,121.37,0,0,0-12.18-7.528A87.624,87.624,0,0,0,97.607,2.185C74.488-.341,50.787,5.211,28.49,11.116l-.062-.246c22.316-5.9,46.045-11.46,69.205-8.93a87.8,87.8,0,0,1,32.74,10.043,121.578,121.578,0,0,1,12.205,7.538c26.912,18.788,46.692,49.273,62.489,76.615,4.625,8,9.068,16.033,13.366,23.807q2.527,4.571,5.014,9.046c3.607,6.478,7.135,13.054,10.429,19.189q1.424,2.664,2.859,5.363c4.96,9.319,10.087,18.958,15.5,28.167,4.453,7.572,9.349,15.322,14.973,23.692a273.807,273.807,0,0,0,29.439,37.255,172.523,172.523,0,0,0,20.348,18.132c20.823,15.745,42.588,18.055,70.576,7.528,13.408-5.021,27.136-12.53,38.95-19.172,11.883-6.682,25.192-17.4,41.885-33.737,4.428-4.342,9.009-8.891,13.435-13.285,20.764-20.641,42.234-41.983,63.965-57.384,24.073-17.059,43.545-22.12,61.308-15.932A58.223,58.223,0,0,1,627.254,141.4c6.793,6.271,13.46,14.67,19.812,24.966,13.558,21.972,26.513,53.982,38.507,95.138,6.832,23.451,17.831,43.57,32.689,59.8,15.932,17.467,36.116,30.066,59.992,37.483,21.819,6.78,47.568,2.566,78.726-12.879,25.5-12.643,50.2-30.681,73.095-48.289l.15.194c-22.9,17.617-47.615,35.673-73.137,48.316-14.392,7.135-27.921,11.937-40.212,14.269A93.436,93.436,0,0,1,799.445,362.114Z" transform="translate(52.31 2.418)" fill="#0e0e0e"/>
        <path id="パス_8127" data-name="パス 8127" d="M790.4,372.552a64.473,64.473,0,0,1-17.942-2.431c-23.975-6.916-44.005-19.436-59.537-37.237-14.3-16.385-24.762-37.149-31.092-61.751C659.167,183.1,632.4,136.342,600.009,128.2c-16.616-4.182-35.159,1.739-56.68,18.09-19.084,14.5-38.249,35.3-56.784,55.413-21.2,23.01-41.228,44.743-60.253,56.567-20.55,12.773-37.779,21.967-55.074,25.323a62.165,62.165,0,0,1-27.2-.374c-9.516-2.34-18.451-7.021-27.308-14.311-34.381-28.292-56.474-70.3-77.84-110.918-5-9.5-9.718-18.479-14.609-27.308q-2.418-4.364-4.871-8.842c-22-40.022-46.94-85.386-86.845-108.9C100.192-6.123,65.358-.282,29.537,7.984l-.057-.246C45.349,4.082,63.8.163,81.937,0c19.337-.17,35.919,4,50.739,12.727,39.954,23.544,64.91,68.937,86.926,108.986q2.46,4.473,4.874,8.842c4.891,8.835,9.612,17.812,14.611,27.308,21.354,40.593,43.437,82.586,77.776,110.844,36.622,30.132,72.6,12.153,109.3-10.658,19-11.809,39.011-33.527,60.2-56.525,18.543-20.124,37.717-40.933,56.816-55.443,10.318-7.838,19.681-13.157,28.61-16.267,10.087-3.506,19.33-4.116,28.28-1.865,32.492,8.168,59.313,54.98,82,143.112,13.226,51.386,44.507,85.553,90.461,98.809,21.5,6.2,47.344.723,79.007-16.754,26.285-14.515,51.172-34.184,74.4-53.091l.155.189c-23.239,18.916-48.129,38.6-74.431,53.118-14.623,8.069-28.292,13.659-40.608,16.614A88.143,88.143,0,0,1,790.4,372.552Z" transform="translate(54.247 0)" fill="#0e0e0e"/>
      </g>
    </g>
  </g>
</svg>
