<svg xmlns="http://www.w3.org/2000/svg" xmlns:xlink="http://www.w3.org/1999/xlink" width="375" height="667" viewBox="0 0 375 667">
  <defs>
    <clipPath id="clip-path">
      <rect id="長方形_507" data-name="長方形 507" width="375" height="667" fill="#f4f4f4" stroke="#707070" stroke-width="1"/>
    </clipPath>
  </defs>
  <g id="マスクグループ_49" data-name="マスクグループ 49" clip-path="url(#clip-path)">
    <g id="レイヤー_2" data-name="レイヤー 2" transform="translate(-0.001 283.347)">
      <g id="_饑1" data-name="ﾑ饑1" transform="translate(-249.552 -133.501)" opacity="0.191">
        <path id="パス_8128" data-name="パス 8128" d="M349.712,191.584a34.62,34.62,0,0,1-4.731-.322,37.76,37.76,0,0,1-13.219-4.542c-7.626-4.253-14.956-11.239-22.412-21.355-10.66-14.47-20.594-30.893-30.2-46.775-24.641-40.738-50.121-82.857-91.711-99.976C161.254,7.841,137.35,13.392,114.36,35.583c-19.584,18.9-35.181,46.509-49.476,73.163l-.505-.366c14.321-26.7,29.948-54.36,49.6-73.33a97,97,0,0,1,15.787-12.531,66.442,66.442,0,0,1,17.45-7.826,56.836,56.836,0,0,1,19.247-1.916,68.589,68.589,0,0,1,21.177,5.185,113.687,113.687,0,0,1,28.506,17.13,167.488,167.488,0,0,1,23.83,24c14.658,17.756,27.37,38.772,39.659,59.1,9.6,15.864,19.524,32.278,30.165,46.722,15.965,21.669,31.8,29.493,49.831,24.623,21.644-5.845,40.94-21.974,59.6-37.57,3.346-2.8,6.507-5.439,9.7-8.04l3.9-3.173c22.047-17.97,44.844-36.552,69.2-49.656,13.171-7.085,25.544-11.921,37.829-14.784a109.231,109.231,0,0,1,40.757-1.952c19.2,2.718,38.373,8.585,56.91,14.258,10.553,3.23,21.465,6.57,32.23,9.274,38.208,9.616,76.34,14.887,118.649,20.308l-.066.689c-42.327-5.424-80.474-10.7-118.709-20.319-10.779-2.713-21.7-6.054-32.256-9.286-18.518-5.668-37.666-11.529-56.831-14.241-56.3-7.965-102.6,29.775-147.373,66.27q-1.952,1.592-3.9,3.173c-3.193,2.6-6.353,5.24-9.7,8.036-9.189,7.68-18.69,15.62-28.622,22.386-11.252,7.663-21.456,12.668-31.193,15.3A38.526,38.526,0,0,1,349.712,191.584Z" transform="translate(85.684 16.81)"/>
        <path id="パス_8129" data-name="パス 8129" d="M352.29,180.758a37.474,37.474,0,0,1-5.438-.394,41.042,41.042,0,0,1-13.921-4.826c-7.172-3.963-14.186-10.213-21.445-19.1-10.983-13.449-21.3-28.625-31.279-43.3-6.834-10.056-13.911-20.454-21.185-30.3-17.6-23.811-39.982-49.8-72.574-61.983-14.122-5.328-27.98-6.116-41.187-2.343-37.145,10.624-64.111,55.43-83.8,88.147l-.467-.381C72.539,87.091,84.011,68.556,97.406,52.684c15.848-18.78,31.456-30.169,47.72-34.819a61.434,61.434,0,0,1,19.794-2.319,71.119,71.119,0,0,1,21.7,4.669c14.316,5.353,27.554,13.633,40.471,25.312,10.514,9.508,20.8,21.224,32.361,36.871,7.284,9.851,14.358,20.257,21.2,30.317,9.972,14.665,20.284,29.83,31.245,43.257,7.211,8.831,14.17,15.034,21.276,18.961a38.21,38.21,0,0,0,29.133,3.873c15.385-3.863,29.531-12.5,40.147-19.593,6.413-4.3,12.625-8.873,18.632-13.291,3.617-2.659,7.032-5.172,10.469-7.615q2.351-1.679,4.711-3.369c6.281-4.494,12.775-9.142,19.265-13.637,16.93-11.8,31.841-20.675,46.919-27.93,21.183-10.154,38.73-15.732,55.226-17.556a114.485,114.485,0,0,1,24.207-.19c19.241,1.893,38.427,6.724,56.98,11.395,2.393.6,4.865,1.22,7.3,1.83,7.22,1.8,15.758,3.871,24.34,5.6,17.016,3.431,35.478,6.366,58.107,9.234,20,2.527,40.468,4.746,60.264,6.892l.155.016-.054.661-.154-.016c-19.8-2.146-40.269-4.366-60.273-6.893-22.64-2.87-41.115-5.8-58.141-9.239-8.592-1.733-17.138-3.807-24.363-5.6-2.433-.61-4.907-1.229-7.3-1.83C620.209,83,601.039,78.177,581.836,76.289a114.077,114.077,0,0,0-24.1.188C541.295,78.3,523.8,83.86,502.669,93.987c-15.05,7.241-29.936,16.108-46.847,27.891-6.486,4.492-12.979,9.139-19.257,13.632l-4.713,3.37c-3.433,2.441-6.847,4.951-10.461,7.608-6.012,4.422-12.231,8.995-18.653,13.3-10.645,7.117-24.846,15.784-40.308,19.666a41.3,41.3,0,0,1-10.139,1.3Z" transform="translate(81.177 20.603)"/>
        <path id="パス_8130" data-name="パス 8130" d="M354.853,169.921a40.741,40.741,0,0,1-5.359-.351,43.868,43.868,0,0,1-14.023-4.431c-7.191-3.614-14.337-9.385-21.843-17.644-11.285-12.411-21.974-26.323-32.312-39.781-7.12-9.266-14.482-18.847-22.021-27.921C241.2,58.011,218.281,34.235,185.456,23.083,171.3,18.275,157.389,17.7,144.11,21.375c-36.721,10.182-64.085,50.658-86.074,83.18l-.43-.393c22.039-32.6,49.471-73.168,86.376-83.4A66.454,66.454,0,0,1,163.9,18.372a75.313,75.313,0,0,1,21.712,4.1c14.366,4.881,27.737,12.436,40.879,23.1,10.758,8.729,21.307,19.465,33.192,33.785,7.545,9.083,14.912,18.67,22.036,27.944,10.33,13.443,21.011,27.343,32.279,39.737,7.462,8.206,14.557,13.938,21.689,17.522a41.925,41.925,0,0,0,29.3,3.522c14.8-3.439,28.714-10.8,40.372-17.545,6.064-3.539,11.9-7.231,17.544-10.8,3.9-2.469,7.591-4.8,11.272-7.036q3.688-2.24,7.375-4.492c5.237-3.2,10.653-6.5,16.032-9.715a359.311,359.311,0,0,1,46.127-23.3c17.5-7.267,36.19-14.584,55.349-17.25a122.313,122.313,0,0,1,24.088-1.051c19.311,1.057,38.545,4.843,57.146,8.505l6.745,1.323c7.161,1.395,15.635,2.995,24.205,4.286,20.539,3.1,40.794,5.106,57.9,6.654,11.263,1.012,22.783,2.017,33.924,2.988,8.7.76,17.7,1.546,26.579,2.333l-.041.633c-8.875-.788-17.875-1.573-26.579-2.332-11.141-.976-22.661-1.978-33.924-2.99-17.112-1.55-37.376-3.552-57.925-6.658-8.58-1.292-17.061-2.893-24.226-4.289q-3.374-.657-6.746-1.323c-18.585-3.661-37.8-7.444-57.08-8.5a121.865,121.865,0,0,0-24,1.047c-19.1,2.658-37.759,9.962-55.23,17.216a358.874,358.874,0,0,0-46.064,23.267c-5.377,3.214-10.792,6.518-16.028,9.712q-3.69,2.249-7.375,4.492c-3.677,2.233-7.362,4.564-11.264,7.032-5.647,3.572-11.488,7.267-17.561,10.812-11.69,6.765-25.644,14.147-40.506,17.6A44.533,44.533,0,0,1,354.853,169.921Z" transform="translate(76.671 24.406)"/>
        <path id="パス_8131" data-name="パス 8131" d="M357.4,159.086a45.114,45.114,0,0,1-5.264-.306,47.179,47.179,0,0,1-14.126-4.027c-7.206-3.269-14.483-8.563-22.247-16.185-11.566-11.349-22.6-23.977-33.266-36.183-7.427-8.5-15.107-17.285-22.935-25.612-18.607-19.806-42.08-41.41-75.1-51.445a74.483,74.483,0,0,0-41.5-1.065C106.7,34,79.574,69.665,55.637,101.127l-1.026,1.342-.39-.4,1.026-1.35c11.478-15.085,24.487-32.184,38.9-46.371,16.54-16.281,32.473-26.315,48.7-30.68a72.34,72.34,0,0,1,20.035-2.474A79.737,79.737,0,0,1,184.6,24.733,138.475,138.475,0,0,1,225.893,45.6c10.983,7.932,21.794,17.694,34.028,30.719,7.835,8.335,15.518,17.125,22.949,25.626,10.662,12.2,21.686,24.812,33.238,36.153,7.718,7.578,14.948,12.839,22.1,16.083a45.952,45.952,0,0,0,29.46,3.173c14.35-3.108,27.992-9.284,40.6-15.5,5.467-2.693,10.7-5.466,15.767-8.147,4.436-2.347,8.625-4.564,12.767-6.627,3.206-1.6,6.454-3.223,9.6-4.8,4.331-2.17,8.81-4.413,13.242-6.609,12.625-6.255,26.184-11.837,45.335-18.67,3.051-1.07,6.194-2.206,9.239-3.3,15.045-5.425,30.6-11.036,46.235-13.639a133.256,133.256,0,0,1,23.97-1.912c19.429.206,38.757,2.938,57.451,5.579l6.051.854c7.1.993,15.517,2.122,24.073,2.971,19.074,1.921,38.169,3.028,57.68,4.081,19.11,1.018,39.493,2.275,60.586,3.735l-.031.61c-21.09-1.464-41.472-2.718-60.58-3.735-19.517-1.058-38.617-2.166-57.711-4.076-8.563-.854-16.983-1.981-24.09-2.974q-3.026-.423-6.053-.854C623.114,81.7,603.8,78.974,584.4,78.769a132.78,132.78,0,0,0-23.891,1.906c-15.594,2.6-31.13,8.2-46.156,13.617-3.051,1.1-6.2,2.234-9.24,3.306-19.133,6.82-32.675,12.4-45.283,18.641-4.431,2.2-8.908,4.439-13.24,6.608-3.142,1.574-6.391,3.2-9.6,4.8-4.137,2.06-8.323,4.271-12.756,6.622-5.068,2.685-10.308,5.455-15.781,8.151-12.631,6.223-26.3,12.413-40.7,15.532a48.9,48.9,0,0,1-10.355,1.135Z" transform="translate(72.163 28.194)"/>
        <path id="パス_8132" data-name="パス 8132" d="M360.026,148.258a51.148,51.148,0,0,1-19.482-3.878c-7.258-2.968-14.667-7.784-22.647-14.728-11.811-10.274-23.141-21.579-34.1-32.513-7.772-7.756-15.81-15.775-23.969-23.379-18-16.792-42.944-37.219-76.358-46.177a80.739,80.739,0,0,0-41.663-.427c-35.781,9.31-63.521,41.648-87.994,70.18q-1.32,1.541-2.626,3.06l-.35-.409q1.3-1.517,2.626-3.059c11.789-13.743,25.15-29.32,39.693-42.212C109.8,39.959,125.679,30.758,141.7,26.589a79.339,79.339,0,0,1,20.157-2.563,85.04,85.04,0,0,1,21.721,2.986,148.174,148.174,0,0,1,41.7,18.632c11.21,7.141,22.286,15.928,34.856,27.656,8.166,7.611,16.207,15.633,23.983,23.392,10.952,10.928,22.277,22.227,34.074,32.489,7.94,6.908,15.3,11.7,22.515,14.643a50.805,50.805,0,0,0,29.621,2.815c14.911-2.967,29.278-8.775,40.822-13.443,4.426-1.79,8.681-3.6,12.8-5.344,5.4-2.293,10.494-4.458,15.456-6.364,5.708-2.2,11.452-4.419,17.007-6.57l5.262-2.037c11.7-4.528,23.572-7.961,37.316-11.936q3.539-1.021,7.224-2.094c6.208-1.811,12.457-3.9,19.072-6.118,11.975-4.01,24.358-8.156,36.528-10.519a146.924,146.924,0,0,1,23.85-2.772c19.615-.666,39.106.992,57.956,2.6l5.159.437c7.039.592,15.388,1.251,23.936,1.657,16.346.791,32.489,1.067,49.58,1.358l7.9.137c18.015.3,37.293.976,60.67,2.148l-.021.577c-23.373-1.167-42.646-1.85-60.656-2.148q-3.959-.072-7.9-.137c-17.094-.292-33.24-.567-49.592-1.359-8.555-.406-16.909-1.065-23.953-1.657l-5.159-.438c-18.836-1.6-38.317-3.261-57.906-2.6a146.707,146.707,0,0,0-23.783,2.765c-12.141,2.358-24.509,6.5-36.472,10.5-6.619,2.217-12.872,4.311-19.088,6.123q-3.694,1.076-7.225,2.1c-13.734,3.972-25.6,7.4-37.28,11.922l-5.261,2.038c-5.556,2.15-11.3,4.375-17.008,6.569-4.952,1.9-10.048,4.067-15.443,6.359-4.116,1.747-8.374,3.555-12.8,5.346-11.561,4.675-25.951,10.494-40.9,13.467a53.2,53.2,0,0,1-10.383,1.049Z" transform="translate(67.659 31.977)"/>
        <path id="パス_8133" data-name="パス 8133" d="M362.519,137.444A56.731,56.731,0,0,1,343.08,134c-7.373-2.674-14.7-6.89-23.049-13.269-11.987-9.152-23.551-19.114-34.732-28.744-8.183-7.047-16.645-14.333-25.2-21.248C241.627,55.8,216.116,37.656,182.474,29.837a86.976,86.976,0,0,0-41.819.212c-35.3,8.895-63.571,38.045-88.517,63.767q-2.207,2.275-4.377,4.507l-.311-.411q2.171-2.227,4.376-4.505c24.986-25.765,53.313-54.965,88.73-63.893a87.476,87.476,0,0,1,20.281-2.646,91.29,91.29,0,0,1,21.73,2.431A161.07,161.07,0,0,1,224.68,45.7c11.443,6.345,22.78,14.155,35.683,24.594,8.566,6.919,17.03,14.209,25.216,21.257,11.177,9.626,22.735,19.578,34.711,28.727,8.315,6.345,15.6,10.546,22.929,13.2A56.605,56.605,0,0,0,373,135.94c12.541-2.275,24.352-6.055,35.773-9.71,1.74-.556,3.539-1.132,5.276-1.682,2.7-.854,5.339-1.708,7.892-2.525,7.078-2.279,13.759-4.432,20.08-6.115l3.721-.991c6.165-1.639,11.988-3.187,17.98-4.816,7.63-2.074,15.476-3.613,23.782-5.247,6.305-1.237,12.826-2.516,19.961-4.149,8.627-1.981,17.832-4.979,26.733-7.879,9.552-3.112,19.429-6.33,28.993-8.453a168.567,168.567,0,0,1,23.733-3.634c20.291-1.55,40.42-.986,59.887-.441l2.84.078c6.975.193,15.253.386,23.8.343,12.391-.048,25.166-.353,37.52-.647,6.454-.154,13.129-.314,19.754-.437,17.5-.353,36.8-.174,60.753.56l-.012.547c-23.941-.732-43.239-.912-60.732-.56-6.625.122-13.3.283-19.753.437-12.357.3-25.138.6-37.529.648-8.55.041-16.84-.15-23.815-.343l-2.833-.079c-19.456-.544-39.575-1.107-59.845.441a167.167,167.167,0,0,0-23.673,3.625c-9.544,2.118-19.411,5.334-28.954,8.443-8.908,2.9-18.122,5.9-26.769,7.888-7.141,1.639-13.667,2.919-19.974,4.156-8.3,1.628-16.137,3.165-23.753,5.236-5.993,1.629-11.816,3.173-17.982,4.818l-3.721.99c-6.311,1.68-12.989,3.832-20.059,6.109-2.553.822-5.194,1.673-7.894,2.526-1.738.549-3.539,1.125-5.274,1.682-11.435,3.661-23.259,7.444-35.825,9.722a59.1,59.1,0,0,1-10.564.963Z" transform="translate(63.153 35.752)"/>
        <path id="パス_8134" data-name="パス 8134" d="M364.972,126.649a63.7,63.7,0,0,1-19.359-3.012c-7.373-2.342-14.824-6.1-23.444-11.812-12.044-7.987-23.716-16.547-35-24.825-8.709-6.388-17.716-12.992-26.8-19.265C241.44,54.649,215.373,38.772,181.482,32.1a95.811,95.811,0,0,0-41.978.854c-34.778,8.482-63.512,34.569-88.858,57.586-2.074,1.887-4.228,3.839-6.309,5.716l-.273-.41c2.082-1.877,4.229-3.828,6.308-5.715,25.382-23.051,54.157-49.177,89.041-57.685a97.344,97.344,0,0,1,20.406-2.733,99.425,99.425,0,0,1,21.734,1.878,178.2,178.2,0,0,1,42.528,14.164,257.93,257.93,0,0,1,36.508,21.534c9.089,6.275,18.1,12.881,26.811,19.272,11.284,8.275,22.952,16.831,34.988,24.813,8.586,5.7,16,9.433,23.344,11.764a63.818,63.818,0,0,0,29.942,2.106c9.989-1.638,19.573-4.027,28.843-6.328,4.322-1.075,8.4-2.092,12.431-3.008,9.333-2.127,18.984-4.326,27.692-5.573,2.663-.382,5.333-.755,7.915-1.117,4.332-.61,8.813-1.232,13.217-1.891,5.627-.841,11.334-1.319,17.376-1.83,7.932-.665,16.132-1.353,25.568-2.937,10.462-1.756,21.709-5.438,32.582-9,7.688-2.517,15.643-5.125,23.268-7.029a192.538,192.538,0,0,1,23.615-4.493c20.939-2.545,41.676-3.153,61.732-3.741l.61-.017c6.5-.192,15.072-.476,23.667-.976,9.014-.51,18.279-1.143,27.238-1.757,9.724-.665,19.781-1.352,29.828-1.907,17.476-.995,36.242-1.312,60.836-1.027v.519c-24.589-.284-43.343.033-60.809,1.026-10.047.555-20.1,1.242-29.824,1.907-8.962.61-18.227,1.247-27.243,1.757-8.6.5-17.172.781-23.673.976l-.61.018c-20.047.587-40.776,1.195-61.7,3.738a192.458,192.458,0,0,0-23.567,4.485c-7.612,1.9-15.557,4.507-23.241,7.021-10.891,3.566-22.154,7.253-32.644,9.013-9.452,1.586-17.661,2.276-25.6,2.942-6.036.506-11.735.985-17.35,1.823-4.408.66-8.887,1.286-13.221,1.893-2.582.366-5.247.732-7.914,1.117-8.692,1.243-18.336,3.441-27.661,5.567-4.027.916-8.1,1.93-12.422,3.006-9.274,2.309-18.87,4.694-28.874,6.334a66.468,66.468,0,0,1-10.769.893Z" transform="translate(58.646 39.513)"/>
        <path id="パス_8135" data-name="パス 8135" d="M367.359,115.874a72.607,72.607,0,0,1-19.21-2.569C340.781,111.29,333.2,108,324.3,102.947c-11.862-6.732-23.412-13.82-34.582-20.673-9.463-5.807-19.249-11.812-29.09-17.516C241.269,53.511,214.661,39.9,180.484,34.4a106.7,106.7,0,0,0-42.13,1.491c-34.22,8.071-63.306,31.2-88.967,51.618-2.921,2.319-5.682,4.515-8.474,6.712l-.234-.405c2.79-2.2,5.55-4.393,8.471-6.712C62.262,76.671,75.822,65.886,90.568,56.556c16.775-10.616,32.379-17.532,47.7-21.145a107.781,107.781,0,0,1,42.272-1.5c34.236,5.516,60.885,19.146,80.275,30.4,9.846,5.706,19.634,11.715,29.1,17.521,11.166,6.852,22.712,13.938,34.569,20.667,8.871,5.035,16.421,8.314,23.759,10.321a73.2,73.2,0,0,0,30.1,1.751c7.358-1.079,14.547-2.454,21.5-3.783,7.009-1.342,13.631-2.608,20-3.5a222.5,222.5,0,0,1,27.412-2.5c3.173-.048,6.334-.068,9.4-.088,3.661-.024,7.45-.049,11.174-.122,4.422-.087,8.878.1,13.6.292,8.714.358,17.726.732,28.555-.426,11.911-1.269,24.78-5.593,37.226-9.774,6.213-2.087,12.636-4.245,18.758-5.951a225.474,225.474,0,0,1,23.5-5.353c20.28-3.394,40.056-5.247,61.952-7.155,6.425-.56,14.906-1.326,23.533-2.287,6.108-.672,12.368-1.4,18.426-2.1,12.5-1.45,25.427-2.949,38.439-4.149,17.328-1.623,36.11-2.43,60.918-2.615v.488c-24.8.185-43.574.992-60.892,2.614-13,1.2-25.928,2.694-38.428,4.149-6.054.7-12.315,1.428-18.426,2.1-8.63.96-17.114,1.727-23.54,2.288-21.889,1.906-41.658,3.76-61.924,7.151A226.3,226.3,0,0,0,566.057,89.2c-6.115,1.708-12.534,3.86-18.74,5.945-12.465,4.188-25.354,8.519-37.305,9.792a186.182,186.182,0,0,1-28.6.427c-4.71-.193-9.161-.376-13.573-.29-3.726.072-7.515.1-11.178.122-3.051.021-6.216.041-9.388.089a222.247,222.247,0,0,0-27.368,2.5c-6.359.89-12.975,2.155-19.98,3.495-6.956,1.33-14.155,2.707-21.516,3.783a76.308,76.308,0,0,1-11.048.813Z" transform="translate(54.141 43.257)"/>
        <path id="パス_8136" data-name="パス 8136" d="M506.836,106.92c-9.884,0-18.364-1.5-25.958-2.846-3.829-.678-7.444-1.319-11.047-1.75-3.22-.386-6.494-.826-9.66-1.253-3.357-.453-6.834-.921-10.338-1.342a158.046,158.046,0,0,0-27.074-.565c-8.7.452-17.975,1.816-27.8,3.261-4.515.665-9.192,1.352-13.9,1.961a85.851,85.851,0,0,1-30.378-1.4,117.369,117.369,0,0,1-24.247-8.908c-11.122-5.3-22.007-10.758-32.531-16.037-10.746-5.39-21.858-10.963-33.007-16.252-29.381-13.959-54.484-21.694-81.41-25.073A120.331,120.331,0,0,0,137.2,38.846c-33.571,7.657-62.9,27.932-88.767,45.825C44.66,87.283,41.093,89.75,37.492,92.2l-.2-.4c3.6-2.441,7.165-4.913,10.941-7.524C61.5,75.1,75.208,65.619,89.932,57.385c16.718-9.351,32.159-15.563,47.2-18.99a120.751,120.751,0,0,1,42.406-2.142c26.968,3.383,52.106,11.129,81.515,25.113,11.153,5.291,22.266,10.86,33.015,16.255,10.524,5.278,21.406,10.738,32.525,16.033a117.147,117.147,0,0,0,24.174,8.878,85.516,85.516,0,0,0,30.263,1.4c4.7-.61,9.375-1.295,13.894-1.96,9.829-1.446,19.114-2.807,27.822-3.264a158.715,158.715,0,0,1,27.133.567c3.512.417,6.985.885,10.343,1.342,3.165.426,6.437.868,9.655,1.252,3.61.432,7.231,1.074,11.067,1.752,8.677,1.536,18.513,3.279,30.278,2.742,13.1-.6,27.294-5.558,41.017-10.354,5.235-1.83,10.18-3.558,15.1-5.07,8.847-2.721,16.276-4.694,23.381-6.214,21.526-4.6,42.222-7.733,61.566-10.549,9.418-1.373,16.635-2.483,23.4-3.6,3.6-.589,7.276-1.2,10.832-1.793,14.864-2.472,30.235-5.028,45.817-7.032,17.221-2.248,36.034-3.539,61-4.2l.01.46c-24.955.658-43.757,1.952-60.966,4.2-15.576,2-30.943,4.557-45.808,7.03-3.556.592-7.233,1.2-10.831,1.794-6.766,1.119-13.984,2.229-23.4,3.6-19.343,2.815-40.025,5.949-61.542,10.546-7.095,1.517-14.515,3.488-23.351,6.205-4.913,1.511-9.854,3.237-15.086,5.067-13.748,4.8-27.963,9.772-41.115,10.372Q508.988,106.922,506.836,106.92Z" transform="translate(49.634 46.97)"/>
        <path id="パス_8137" data-name="パス 8137" d="M513.236,108.732h-.775c-12.5-.185-22.545-3.439-31.4-6.309-3.193-1.035-6.211-2.013-9.22-2.82-2.8-.749-5.635-1.56-8.382-2.342-3.578-1.02-7.277-2.074-11.046-3.051a124.143,124.143,0,0,0-26.784-3.629c-11-.394-23,.991-35.715,2.458-2.02.233-4.109.475-6.182.707A102.885,102.885,0,0,1,353.22,92.7a140.206,140.206,0,0,1-24.65-7.444c-8.568-3.337-17.027-6.7-25.207-9.947-14.377-5.724-27.971-11.122-42.2-16.451-29.938-11.25-55.435-17.357-82.67-19.805a137.966,137.966,0,0,0-42.439,2.772c-32.811,7.223-62.2,24.74-88.145,40.2-4.776,2.846-9.289,5.535-13.838,8.176l-.166-.386c4.549-2.642,9.059-5.33,13.836-8.176C61.075,73.692,74.865,65.474,89.5,58.3c16.588-8.136,31.8-13.667,46.493-16.9a138.134,138.134,0,0,1,42.535-2.779c27.266,2.45,52.788,8.565,82.756,19.825,14.231,5.33,27.822,10.727,42.207,16.442,8.176,3.25,16.639,6.609,25.2,9.947a139.216,139.216,0,0,0,24.587,7.434,102.674,102.674,0,0,0,30.414,1.04c2.074-.232,4.161-.472,6.181-.705,12.725-1.464,24.745-2.855,35.764-2.46a124.5,124.5,0,0,1,26.852,3.64c3.772.976,7.474,2.028,11.053,3.051,2.746.782,5.584,1.586,8.377,2.34,3.018.809,6.039,1.788,9.237,2.825,8.836,2.863,18.852,6.109,31.309,6.293.255,0,.514.006.77.006,13.9,0,28.9-5.5,43.422-10.825,4.182-1.534,8.132-2.982,12.058-4.3,9.061-3.051,16.453-5.3,23.263-7.078,22.388-5.834,43.49-10.324,61.178-13.945,9.263-1.9,16.438-3.417,23.265-4.917l4.271-.935c16.883-3.7,34.34-7.521,52.165-10.471,21.981-3.68,44.19-5.029,61.082-5.791l.015.431c-16.883.768-39.079,2.11-61.043,5.793-17.816,2.949-35.266,6.771-52.149,10.468l-4.271.936c-6.828,1.5-14,3.019-23.268,4.918-17.684,3.621-38.779,8.109-61.16,13.942-6.8,1.772-14.188,4.017-23.243,7.065-3.922,1.319-7.87,2.766-12.049,4.3C542.222,103.218,527.185,108.732,513.236,108.732Z" transform="translate(45.126 50.66)"/>
        <path id="パス_8138" data-name="パス 8138" d="M517.214,110.8q-1.806,0-3.525-.129c-13.051-.976-23.128-5.84-32.019-10.128-2.71-1.308-5.27-2.543-7.827-3.635-2.421-1.035-4.881-2.129-7.257-3.187-3.746-1.668-7.621-3.394-11.6-5a103.838,103.838,0,0,0-26.493-6.693c-13.212-1.632-28.555-.177-42.1,1.108a127.971,127.971,0,0,1-30.64-.687,168.9,168.9,0,0,1-25.046-6c-20.227-6.205-44.275-13.491-69.275-20.487-30.417-8.542-56.3-13.025-83.932-14.521a160.907,160.907,0,0,0-42.588,3.417C103.06,51.62,75.07,65.818,48,79.548c-5.99,3.04-11.65,5.91-17.35,8.7l-.134-.366c5.7-2.79,11.356-5.66,17.346-8.7,13.3-6.749,27.06-13.728,41.49-19.876a247.153,247.153,0,0,1,45.487-14.847,161.33,161.33,0,0,1,42.67-3.417c27.653,1.5,53.558,5.979,84,14.537,25,7,49.055,14.285,69.283,20.49a168.71,168.71,0,0,0,25,5.988,127.687,127.687,0,0,0,30.568.685c13.556-1.286,28.921-2.743,42.166-1.107a104.148,104.148,0,0,1,26.57,6.712c3.985,1.61,7.862,3.336,11.611,5,2.377,1.058,4.835,2.153,7.252,3.186,2.563,1.1,5.125,2.332,7.84,3.641,8.867,4.271,18.914,9.126,31.909,10.1,14.986,1.123,31.216-5.152,46.911-11.227,3.285-1.27,6.388-2.471,9.475-3.6,6.824-2.5,14.911-5.394,23.148-7.932,19.348-5.961,39.233-11.634,60.791-17.341,8.9-2.355,16.244-4.336,23.129-6.231,17.092-4.681,36.466-9.986,56.229-13.988,21.911-4.478,44.2-6.3,61.163-7.378l.02.4c-16.962,1.082-39.23,2.9-61.123,7.374-19.754,4-39.122,9.3-56.21,13.982-6.885,1.9-14.236,3.876-23.132,6.232-21.554,5.706-41.436,11.378-60.78,17.338-8.23,2.536-16.312,5.429-23.132,7.932-3.086,1.129-6.187,2.328-9.471,3.6-7.707,2.981-15.677,6.062-23.631,8.271A75.306,75.306,0,0,1,517.214,110.8Z" transform="translate(40.621 54.313)"/>
        <path id="パス_8139" data-name="パス 8139" d="M520.755,117.811a43.593,43.593,0,0,1-5.833-.378c-13.5-1.818-23.509-8.36-32.343-14.131-2.326-1.52-4.524-2.957-6.723-4.271-2.081-1.246-4.194-2.549-6.238-3.808-3.879-2.392-7.89-4.864-12.05-7.178a92.5,92.5,0,0,0-26.206-9.762c-12.176-2.57-25.717-2.238-42.306-.948a168.36,168.36,0,0,1-30.772-.329,217.816,217.816,0,0,1-25.448-4.547c-25.26-5.749-49.119-10.409-71.142-14.587A494.044,494.044,0,0,0,176.5,48.625a193.427,193.427,0,0,0-42.744,4.054c-30.58,6.266-58.085,17.966-84.687,29.287C41.529,85.172,34.407,88.2,27.238,91.1l-.1-.353c7.167-2.9,14.287-5.926,21.827-9.133C75.576,70.3,103.1,58.59,133.706,52.319a193.714,193.714,0,0,1,42.805-4.06A494.232,494.232,0,0,1,261.75,57.51c22.021,4.168,45.89,8.834,71.15,14.585a217.871,217.871,0,0,0,25.416,4.542,168.142,168.142,0,0,0,30.722.327c16.612-1.291,30.176-1.623,42.384.954A92.585,92.585,0,0,1,457.708,87.7c4.166,2.319,8.176,4.792,12.062,7.185,2.043,1.259,4.155,2.563,6.234,3.806,2.2,1.319,4.4,2.757,6.734,4.278,8.808,5.754,18.792,12.276,32.223,14.086,15.764,2.123,33.568-5.162,49.276-11.593,2.51-1.027,4.881-2,7.247-2.929,7.81-3.09,15.445-6.088,23.033-8.786,24.191-8.618,42.821-15.009,60.4-20.735,8.216-2.675,15.742-5.143,22.994-7.546,17.677-5.828,36.565-11.909,56.019-16.569,21.856-5.275,44.211-7.566,61.245-8.967l.022.366c-17.02,1.4-39.366,3.684-61.2,8.959C714.551,53.917,695.671,60,678,65.827c-7.257,2.4-14.779,4.873-22.995,7.547C637.42,79.1,618.792,85.491,594.6,94.107c-7.582,2.7-15.217,5.7-23.023,8.786-2.364.936-4.735,1.906-7.244,2.929C550.505,111.482,535.048,117.811,520.755,117.811Z" transform="translate(36.112 53.15)"/>
        <path id="パス_8140" data-name="パス 8140" d="M524.017,125.926a41.112,41.112,0,0,1-7.855-.732c-13.867-2.685-23.745-10.967-32.459-18.266-2.013-1.688-3.916-3.281-5.822-4.773-1.767-1.384-3.563-2.821-5.3-4.211-3.983-3.187-8.1-6.483-12.42-9.573a86.217,86.217,0,0,0-25.919-12.813c-13.7-4.089-29.178-3.813-42.512-3a244.1,244.1,0,0,1-30.907.029c-9.036-.61-17.725-1.862-25.849-3.1-23.212-3.528-44.855-5.769-67.768-8.144l-5.247-.543a697.79,697.79,0,0,0-86.452-3.965,241.476,241.476,0,0,0-42.9,4.694c-28.753,5.678-55.223,14.933-80.82,23.882C42.126,88.79,33,91.981,23.82,94.962l-.079-.331c9.174-2.98,18.3-6.171,27.965-9.55,25.605-8.952,52.084-18.209,80.856-23.891a241.63,241.63,0,0,1,42.94-4.7,698.241,698.241,0,0,1,86.483,3.965l5.241.544c22.917,2.375,44.563,4.618,67.782,8.147,8.119,1.234,16.8,2.489,25.827,3.093a243.778,243.778,0,0,0,30.873-.028c13.355-.811,28.861-1.087,42.6,3.014a86.6,86.6,0,0,1,26,12.858c4.323,3.095,8.446,6.394,12.432,9.583,1.735,1.39,3.531,2.827,5.3,4.21,1.91,1.494,3.813,3.089,5.829,4.777,8.688,7.279,18.536,15.529,32.337,18.208,16.474,3.2,35.012-4.847,51.374-11.942,1.83-.794,3.558-1.544,5.291-2.281q2.24-.954,4.472-1.909c6.053-2.585,12.313-5.258,18.445-7.741,5.2-2.1,10.415-4.229,15.46-6.284C626.531,88.482,640.97,82.6,655.8,76.859q7.322-2.833,14.7-5.7L678.669,68c20.324-7.85,37.592-14.11,55.808-19.15C756.29,42.78,778.709,40.022,795.8,38.3l.026.342c-17.084,1.723-39.487,4.477-61.281,10.547-18.205,5.036-35.467,11.294-55.784,19.14L670.6,71.493q-7.378,2.855-14.692,5.69c-14.834,5.735-29.271,11.62-44.555,17.845-5.045,2.054-10.261,4.178-15.46,6.284-6.131,2.482-12.388,5.154-18.441,7.739l-4.472,1.909c-1.732.732-3.46,1.486-5.289,2.279C553.843,119.244,538.436,125.926,524.017,125.926Z" transform="translate(31.597 50.974)"/>
        <path id="パス_8141" data-name="パス 8141" d="M526.922,134.111a38.651,38.651,0,0,1-9.518-1.136c-14.187-3.591-23.875-13.64-32.422-22.507-1.754-1.819-3.411-3.539-5.073-5.169-1.48-1.453-2.985-2.956-4.441-4.409-4.059-4.051-8.256-8.242-12.71-12.174a83,83,0,0,0-25.637-15.883c-11.156-4.3-24.331-5.857-42.721-5.059-11.8.516-21.955.643-31.043.386-8.647-.244-17.029-.912-25.138-1.557l-1.117-.089c-21.587-1.718-42.71-2.139-63.139-2.547-3.843-.077-7.817-.156-11.742-.244-29.222-.67-57.912-.244-87.71,1.319a319.619,319.619,0,0,0-43.044,5.335c-25.835,4.912-50.179,11.742-73.722,18.346-12.909,3.621-25.1,7.041-37.341,10.1l-.057-.306c12.23-3.063,24.421-6.482,37.33-10.1,23.551-6.605,47.9-13.435,73.742-18.348a319.632,319.632,0,0,1,43.076-5.34c29.8-1.558,58.5-1.989,87.727-1.319,3.924.087,7.9.166,11.742.244,20.431.408,41.558.829,63.152,2.547l1.117.089c8.1.646,16.481,1.313,25.123,1.557,9.081.256,19.23.131,31.026-.386,18.426-.805,31.628.759,42.815,5.075A83.205,83.205,0,0,1,462.91,88.467c4.461,3.938,8.664,8.131,12.724,12.186,1.455,1.452,2.959,2.954,4.439,4.406,1.664,1.634,3.322,3.355,5.078,5.175,8.522,8.841,18.182,18.861,32.3,22.434,17.116,4.332,36.316-4.5,53.255-12.294q1.8-.827,3.55-1.629c3.65-1.664,7.33-3.37,10.889-5.021,3.9-1.812,7.953-3.686,11.914-5.491,9.356-4.25,18.654-8.588,27.647-12.785,10.477-4.888,21.311-9.944,31.987-14.74l.835-.375c7.146-3.212,14.536-6.532,21.888-9.8,17.164-7.61,35.78-15.509,55.6-21.73,21.787-6.869,44.265-10.1,61.413-12.139l.028.312c-17.139,2.043-39.6,5.267-61.362,12.133-19.806,6.223-38.414,14.114-55.572,21.721-7.352,3.269-14.741,6.59-21.888,9.8L656.8,81c-10.674,4.794-21.508,9.85-31.984,14.739-8.993,4.2-18.292,8.535-27.648,12.786-3.961,1.8-8,3.674-11.912,5.491-3.56,1.651-7.24,3.357-10.89,5.023q-1.75.8-3.549,1.628c-8.144,3.746-17.374,7.993-26.492,10.657A62.47,62.47,0,0,1,526.922,134.111Z" transform="translate(27.084 48.794)"/>
        <path id="パス_8142" data-name="パス 8142" d="M529.637,142.346a36.717,36.717,0,0,1-11-1.6c-14.468-4.515-23.925-16.368-32.268-26.829-1.533-1.923-2.981-3.739-4.437-5.482-1.22-1.455-2.452-2.953-3.646-4.4-4.112-4.985-8.364-10.138-12.935-14.978C457.237,80.466,449.183,74.446,440,70.1c-11.286-5.338-24.928-7.6-42.932-7.114q-3.811.1-7.579.212c-8.241.234-16.023.456-23.6.53-6.674.066-13.242-.023-19.6-.11-2.319-.03-4.723-.063-7.061-.088-21.155-.214-41.911,1.035-61.983,2.243-4.834.29-9.831.592-14.765.868-25.665,1.419-53.1,3.456-88.966,6.6-13.458,1.181-27.587,3.136-43.2,5.979-20.293,3.711-39.918,8.025-58.9,12.2C52.58,95.569,34.779,99.481,17,102.7l-.038-.281C34.74,99.2,52.539,95.289,71.388,91.146c18.98-4.172,38.606-8.486,58.9-12.2,15.62-2.842,29.749-4.8,43.214-5.979,35.865-3.147,63.306-5.184,88.973-6.6,4.934-.276,9.931-.577,14.765-.868,20.075-1.208,40.834-2.458,62-2.243,2.338.024,4.74.056,7.062.088,6.345.085,12.919.174,19.589.11,7.574-.073,15.356-.3,23.6-.531l7.58-.211c18.038-.488,31.71,1.783,43.028,7.135,9.209,4.355,17.288,10.393,25.423,19,4.58,4.845,8.834,10.006,12.948,14.99,1.2,1.45,2.432,2.947,3.646,4.4,1.457,1.744,2.907,3.561,4.441,5.491,8.321,10.433,17.753,22.259,32.152,26.747,17.723,5.525,38.375-4.558,54.971-12.659l1.978-.965c5.885-2.865,11.782-5.85,17.485-8.736q2.6-1.32,5.2-2.631C609.51,109.851,620.562,104,631.25,98.351c8.625-4.563,17.543-9.274,26.341-13.789,7.24-3.71,14.947-7.652,22.589-11.491,16.02-8.029,35.128-17.2,55.385-24.31,21.748-7.671,44.283-11.368,61.485-13.731l.028.282c-17.2,2.355-39.718,6.049-61.447,13.714-20.244,7.111-39.345,16.274-55.359,24.3-7.64,3.839-15.347,7.782-22.586,11.491-8.8,4.507-17.715,9.224-26.339,13.789-10.69,5.655-21.743,11.5-32.911,17.135q-2.6,1.311-5.2,2.631c-5.7,2.886-11.6,5.872-17.487,8.738l-1.979.965c-8.324,4.064-17.759,8.664-27.2,11.5A59.248,59.248,0,0,1,529.637,142.346Z" transform="translate(22.577 46.622)"/>
        <path id="パス_8143" data-name="パス 8143" d="M532.2,150.638a35.232,35.232,0,0,1-12.325-2.116c-14.718-5.445-23.91-19.138-32.02-31.218-1.342-2-2.615-3.894-3.893-5.724-.976-1.392-1.962-2.823-2.92-4.206-4.139-5.979-8.42-12.165-13.1-17.972-7.977-9.91-15.943-16.906-25.068-22.015-11.494-6.437-25.2-9.346-43.143-9.17-9.259.093-18.377.509-27.2.912l-4.122.188c-3.79.185-7.583.348-11.252.5-5.455.233-10.608.453-15.806.747-21.16,1.193-41.97,4.035-62.1,6.785-5.41.74-11,1.5-16.521,2.225-10.912,1.419-21.711,2.875-33.145,4.417-18.315,2.471-37.253,5.026-57.076,7.468-12.749,1.57-26.522,3.674-43.343,6.619-5.456.959-10.941,1.93-16.246,2.87-34.568,6.123-67.218,11.909-99.341,15.61l-.021-.254C45.689,102.6,78.336,96.82,112.9,90.7c5.3-.94,10.79-1.911,16.246-2.871,16.825-2.945,30.6-5.048,43.353-6.619,19.822-2.441,38.76-5,57.074-7.468,11.434-1.542,22.235-3,33.146-4.417,5.517-.721,11.111-1.485,16.52-2.225,20.135-2.749,40.944-5.593,62.112-6.786,5.2-.294,10.354-.514,15.81-.747,3.668-.157,7.461-.318,11.251-.505l4.122-.187c8.819-.4,17.938-.82,27.2-.913a111.673,111.673,0,0,1,22.534,1.821,68.384,68.384,0,0,1,20.707,7.375c9.152,5.125,17.138,12.137,25.138,22.071,4.68,5.813,8.964,12,13.106,17.987.958,1.383,1.952,2.807,2.92,4.205,1.279,1.83,2.549,3.724,3.894,5.728,8.092,12.051,17.262,25.711,31.915,31.132,18.3,6.773,39.51-4.215,56.551-13.044l.544-.281c7.189-3.724,14.351-7.682,21.274-11.51l1.3-.718c12.036-6.712,23.933-13.757,35.439-20.57,7.668-4.541,15.6-9.236,23.423-13.745,6.726-3.877,14.564-8.383,22.453-12.813,15.753-8.817,34.625-18.906,55.174-26.891,21.721-8.47,44.311-12.635,61.563-15.318l.029.254c-17.242,2.685-39.819,6.845-61.523,15.307-20.537,7.981-39.4,18.06-55.148,26.879-7.887,4.422-15.723,8.929-22.453,12.806-7.823,4.508-15.753,9.2-23.421,13.743-11.507,6.814-23.4,13.86-35.444,20.574l-1.3.718c-6.926,3.828-14.088,7.787-21.281,11.512l-.544.282C563.225,142.387,547.3,150.638,532.2,150.638Z" transform="translate(18.065 44.438)"/>
        <path id="パス_8144" data-name="パス 8144" d="M534.6,158.953a33.758,33.758,0,0,1-13.474-2.661c-14.935-6.361-23.827-21.9-31.676-35.618-1.19-2.074-2.319-4.044-3.446-5.955q-1.125-1.9-2.256-3.824c-4.149-7.039-8.431-14.318-13.192-21.155-7.824-11.235-15.7-19.206-24.786-25.084-11.495-7.435-25.677-11.1-43.357-11.227-11.091-.072-22.125.694-31.456,1.457-10.274.873-18.875,1.666-27.464,2.7-21.37,2.57-42.44,6.984-62.816,11.251C274.886,70.05,268.9,71.3,263,72.5l-5.915,1.193c-27.372,5.524-55.677,11.236-85.561,15.977-10.592,1.68-21.289,3.5-31.633,5.247-3.888.66-7.909,1.342-11.856,2.007a1037.405,1037.405,0,0,1-117.849,13.5l-.009-.226A1037.234,1037.234,0,0,0,128.01,96.7c3.948-.664,7.968-1.342,11.856-2.006,10.344-1.757,21.041-3.573,31.635-5.247,29.882-4.741,58.184-10.452,85.555-15.976l5.913-1.193c5.9-1.191,11.882-2.441,17.67-3.661,20.379-4.271,41.454-8.682,62.831-11.255,8.591-1.032,17.195-1.83,27.471-2.7,9.335-.763,20.379-1.533,31.471-1.457,17.714.122,31.926,3.8,43.449,11.255,9.108,5.893,17,13.881,24.844,25.138,4.766,6.843,9.054,14.126,13.2,21.168q1.13,1.921,2.255,3.823c1.134,1.913,2.258,3.879,3.447,5.959,7.831,13.687,16.7,29.2,31.58,35.53,18.806,8.089,41.022-4.115,57.243-13.025,7.81-4.287,15.407-8.824,22.461-13.087,12.707-7.732,25.238-15.971,37.358-23.939,6.914-4.547,14.064-9.247,21.121-13.77,7.1-4.554,14.724-9.416,22.318-14.122,14.614-9.045,34.069-20.569,54.96-29.472,21.7-9.274,44.343-13.9,61.644-16.9l.028.223c-17.289,3-39.923,7.639-61.6,16.9-20.88,8.9-40.327,20.417-54.937,29.459-7.591,4.705-15.211,9.567-22.314,14.12-7.057,4.522-14.205,9.223-21.119,13.768-12.12,7.97-24.65,16.21-37.363,23.944-7.056,4.271-14.66,8.8-22.468,13.09C566.01,150.128,549.944,158.953,534.6,158.953Z" transform="translate(13.55 42.264)"/>
        <path id="パス_8145" data-name="パス 8145" d="M536.84,167.293a32.487,32.487,0,0,1-14.466-3.235c-15.146-7.329-23.73-24.752-31.3-40.124-1.045-2.117-2.029-4.118-3.024-6.077q-.893-1.758-1.789-3.533c-4.082-8.071-8.3-16.416-13.092-24.245-7.634-12.565-15.421-21.511-24.506-28.157-11.529-8.488-25.781-12.834-43.571-13.284a225.625,225.625,0,0,0-31.6,1.813c-10.016,1.2-19.132,2.563-27.87,4.149-21.7,3.942-43.149,9.925-63.893,15.711-6.051,1.688-12.308,3.433-18.464,5.1-32.1,8.67-61.24,16.343-92.729,22.453-12.975,2.519-28.311,5.427-43.636,7.9-19.671,3.182-39.508,5.41-60.648,6.807-18.768,1.24-38.218,1.8-59.464,1.708v-.2c44.828.2,82.979-2.5,120.084-8.507,15.327-2.475,30.657-5.383,43.632-7.9,31.483-6.11,60.616-13.789,92.718-22.453,6.155-1.663,12.411-3.409,18.462-5.1,20.745-5.788,42.2-11.772,63.907-15.715,8.741-1.586,17.86-2.945,27.879-4.149a225.869,225.869,0,0,1,31.617-1.813c17.822.452,32.1,4.805,43.658,13.313,9.1,6.657,16.906,15.62,24.553,28.207,4.8,7.834,9.018,16.183,13.1,24.258l1.789,3.539c1,1.96,1.982,3.961,3.025,6.079,7.56,15.345,16.128,32.736,31.221,40.04,17.816,8.679,38.122-1.529,57.393-12.728,6.624-3.849,13.725-8.281,22.347-13.945,13.12-8.664,26.037-18.011,38.528-27.055,6.4-4.637,13.027-9.43,19.566-14.05,7-4.946,14.529-10.238,22.181-15.437C703.875,66.124,720.76,56.24,737.2,48.617c21.681-10.07,44.373-15.173,61.722-18.493l.027.194c-17.339,3.319-40.025,8.42-61.685,18.482-16.43,7.619-33.314,17.5-54.726,32.038-7.651,5.2-15.182,10.494-22.18,15.435-6.538,4.619-13.16,9.413-19.564,14.049-12.492,9.045-25.411,18.4-38.534,27.059-8.625,5.667-15.728,10.1-22.354,13.951-8.821,5.125-18.252,10.385-28.044,13.44A50.723,50.723,0,0,1,536.84,167.293Z" transform="translate(9.034 40.093)"/>
        <path id="パス_8146" data-name="パス 8146" d="M538.987,175.65a31.56,31.56,0,0,1-15.363-3.816c-6.82-3.7-12.856-9.939-18.451-19.086-4.891-8-8.688-16.866-12.36-25.442-.938-2.2-1.83-4.264-2.722-6.3l-.886-2.027c-4.149-9.5-8.444-19.324-13.423-28.555C468.307,76.538,460.61,66.617,451.558,59.2c-11.674-9.594-26-14.612-43.789-15.341a166.717,166.717,0,0,0-31.737,2.168c-9.194,1.423-18.443,3.253-28.278,5.6-22.225,5.4-44.262,12.995-65.574,20.337-6.117,2.107-12.441,4.287-18.656,6.374-27.837,9.345-60.351,19.965-93.981,27.743-16.259,3.7-30.579,6.5-43.781,8.542a453.522,453.522,0,0,1-61.462,5.06c-18.13.339-37.483-.149-60.905-1.538l.007-.167c35.632,2.112,78.025,3.346,122.342-3.523,13.2-2.043,27.516-4.836,43.771-8.542,33.624-7.772,66.139-18.391,93.969-27.735,6.214-2.087,12.538-4.271,18.654-6.374,21.315-7.344,43.355-14.936,65.584-20.337,9.837-2.345,19.089-4.176,28.286-5.6A166.585,166.585,0,0,1,407.77,43.7c17.816.732,32.168,5.76,43.867,15.376,9.069,7.422,16.779,17.354,24.269,31.265,4.986,9.233,9.28,19.06,13.434,28.563l.886,2.027c.9,2.037,1.784,4.109,2.722,6.3,7.263,16.962,15.5,36.189,30.743,44.451,18.182,9.884,39.237-1.234,57.544-12.429,6.982-4.293,14.255-9.136,22.235-14.806,13.388-9.534,26.546-19.949,39.271-30.019,6.034-4.776,12.275-9.715,18.438-14.48,6.915-5.345,14.372-11.075,22.046-16.751,21.171-15.655,37.991-26.335,54.536-34.632a199.572,199.572,0,0,1,30.354-12.1c9.268-2.893,19.261-5.429,31.444-7.978l.026.166c-17.387,3.636-40.119,9.2-61.767,20.069-16.537,8.3-33.352,18.97-54.516,34.619-7.672,5.676-15.131,11.4-22.043,16.75-6.162,4.759-12.4,9.7-18.436,14.479-12.726,10.073-25.887,20.49-39.278,30.019C595.563,150.258,588.29,155.1,581.3,159.4c-8.27,5.057-17.938,10.716-28.04,13.862A48.03,48.03,0,0,1,538.987,175.65Z" transform="translate(4.518 37.913)"/>
        <path id="パス_8147" data-name="パス 8147" d="M541.09,184.013q-.783,0-1.551-.034a30.973,30.973,0,0,1-14.663-4.37c-6.92-4.149-12.957-11.089-18.453-21.215-4.8-8.848-8.609-19.056-11.966-28.066-.8-2.145-1.555-4.172-2.319-6.176l-.625-1.639c-9.295-24.368-18.906-49.567-37.062-66.033s-42.284-21.2-75.888-14.87c-32.614,6.144-64.522,19.179-95.376,31.787-6.365,2.6-12.946,5.29-19.4,7.865-21.494,8.569-44.69,17.555-68.677,25.229-25.578,8.183-48.633,13.735-70.481,16.975a356.615,356.615,0,0,1-62.278,3.315C39.717,126.172,17.141,123.909,0,122l.011-.138c46.127,5.125,84.966,7.34,124.6,1.464,48.9-7.251,95.548-24.822,139.134-42.2,6.458-2.575,13.039-5.263,19.4-7.863,30.858-12.609,62.768-25.648,95.4-31.794,15.053-2.835,27.952-3.417,39.436-1.788a72.921,72.921,0,0,1,19.073,5.328,64.911,64.911,0,0,1,17.47,11.362c8.136,7.379,15.308,17.26,21.927,30.208,5.857,11.452,10.591,23.87,15.171,35.876l.625,1.639c.765,2,1.52,4.027,2.319,6.177,6.975,18.714,14.887,39.926,30.364,49.209,17.734,10.632,38.211.454,57.7-12.13,21.712-14.02,42.128-31.578,61.868-48.559,5.752-4.948,11.7-10.064,17.578-15,24.8-20.84,49.291-40.749,76.232-55.279a193.413,193.413,0,0,1,30.364-13.023,317.025,317.025,0,0,1,31.512-8.643l.023.135c-17.429,3.956-40.213,9.993-61.846,21.659-26.932,14.521-51.418,34.428-76.213,55.264-5.877,4.938-11.824,10.054-17.572,15-19.745,16.983-40.163,34.545-61.882,48.567-8.26,5.334-18.05,11.2-28.03,14.3A46.038,46.038,0,0,1,541.09,184.013Z" transform="translate(0 35.735)"/>
        <path id="パス_8148" data-name="パス 8148" d="M711.172,169.952c-12.338-11.659-20.855-24.55-26.036-39.415-4.533-13-5.9-25.405-7.227-37.4-1.523-13.789-2.96-26.816-9.455-37.2-7.175-11.478-19.911-18.856-40.08-23.219-41.993-9.084-97.759,12.536-165.749,64.259-2.547,1.938-5.07,3.872-7.74,5.92-22.18,17-47.319,36.268-73.2,46.757-13.239,5.369-25.748,8.054-37.643,8.054-14.853,0-28.758-4.186-41.978-12.569-26.185-16.612-46.038-43.858-65.236-70.209l-1.437-1.973c-2.9-3.979-5.754-8.032-8.774-12.325-14.876-21.129-30.263-42.978-50.5-54.8C152.829-7.778,133.461,8.26,121.314,24.109,101.5,49.967,87.879,82.365,74.707,113.7c-2.128,5.061-4.328,10.294-6.5,15.361l-.533-.309c2.17-5.065,4.369-10.3,6.5-15.357C87.36,82.019,101,49.578,120.87,23.648,133.153,7.621,152.763-8.591,176.389,5.212c9.107,5.319,18.108,13.225,27.5,24.17,8.3,9.659,15.864,20.41,23.185,30.81,3.018,4.287,5.87,8.337,8.767,12.311l1.439,1.974c19.158,26.3,38.978,53.5,65.067,70.044,53.148,33.718,108.073-8.381,152.206-42.208,2.671-2.048,5.195-3.982,7.743-5.921,27.958-21.268,54.279-37.664,78.232-48.733,15.787-7.295,30.8-12.388,44.606-15.139,15.756-3.137,30.34-3.295,43.347-.488,20.327,4.393,33.181,11.861,40.452,23.492,6.583,10.531,8.031,23.642,9.563,37.524,2.608,23.62,5.563,50.4,33.046,76.361Z" transform="translate(90.072 0)"/>
        <path id="パス_8149" data-name="パス 8149" d="M713.056,169.349a98.727,98.727,0,0,1-25.331-38.92c-4.538-12.893-6.089-25.25-7.59-37.2-1.757-14-3.417-27.221-10.053-37.668-7.331-11.54-20.11-18.809-40.217-22.875C600.428,26.716,563.6,36.262,520.422,61.06A493.605,493.605,0,0,0,466.8,97.2c-2.377,1.813-4.836,3.7-7.216,5.532-16.186,12.433-32.924,25.289-50.694,35.6-18.05,10.47-34.208,16.445-49.395,18.266a77.888,77.888,0,0,1-25.427-1.02,80.3,80.3,0,0,1-25.583-10.444c-13.2-8.164-25.769-19.549-39.548-35.832-8.9-10.513-17.3-21.843-25.431-32.8l-3.185-4.291c-2.505-3.366-4.967-6.754-7.573-10.341C219.7,43.914,206.21,25.345,189.6,13.061A85.337,85.337,0,0,0,179.049,6.35c-23.6-12.571-43.31,3.727-55.684,19.615C103.04,52.025,88.786,84.567,75,116.033c-2.233,5.1-4.543,10.372-6.82,15.477l-.513-.31c2.276-5.1,4.585-10.372,6.818-15.473,13.8-31.508,28.075-64.088,48.445-90.214C131.177,14.926,139.813,7.7,148.6,4.012,158.792-.259,169.117.321,179.286,5.74A85.845,85.845,0,0,1,189.9,12.49c16.692,12.341,30.213,30.954,43.288,48.948,2.605,3.585,5.065,6.971,7.566,10.336q1.586,2.138,3.186,4.291c8.123,10.947,16.523,22.268,25.405,32.766,13.738,16.23,26.259,27.578,39.408,35.709,29.1,18,60.841,15.832,99.876-6.809,17.739-10.289,34.462-23.134,50.633-35.557,2.38-1.83,4.84-3.718,7.218-5.533a494.117,494.117,0,0,1,53.683-36.184c19.637-11.277,38.151-19.5,55.027-24.428,20.257-5.921,38.683-7.268,54.77-4,20.257,4.1,33.157,11.45,40.582,23.139,6.723,10.581,8.392,23.885,10.161,37.97,2.953,23.522,6.3,50.183,32.717,75.7Z" transform="translate(90.061 1.585)"/>
        <path id="パス_8150" data-name="パス 8150" d="M714.937,168.772a100.054,100.054,0,0,1-24.615-38.4c-4.538-12.779-6.265-25.077-7.932-36.974-2-14.22-3.883-27.653-10.664-38.169-7.493-11.616-20.32-18.78-40.371-22.545-28.932-5.469-65.14,4.271-107.618,28.945a500.281,500.281,0,0,0-52.762,35.831c-2.2,1.685-4.477,3.438-6.679,5.131-16.087,12.385-32.722,25.191-50.4,35.46-17.732,10.3-33.647,16.2-48.659,18.041a77.819,77.819,0,0,1-25.072-.892A80.03,80.03,0,0,1,314.9,145.157a134.408,134.408,0,0,1-21.355-16.185,220.285,220.285,0,0,1-19.028-19.952c-8.5-9.984-16.606-20.734-24.445-31.128-1.586-2.1-3.224-4.271-4.83-6.393-2.081-2.741-4.219-5.6-6.284-8.364-13.93-18.643-28.335-37.921-46.177-49.981a86.968,86.968,0,0,0-10.808-6.26c-23.907-11.552-43.956,5.015-56.565,20.947C104.58,54.107,89.693,86.791,75.285,118.408c-2.336,5.125-4.759,10.435-7.135,15.577l-.488-.31c2.382-5.14,4.8-10.443,7.135-15.572C89.2,86.454,104.117,53.728,125,27.4c8.42-10.632,17.193-17.983,26.091-21.85a35.85,35.85,0,0,1,31.1.742A87.411,87.411,0,0,1,193.062,12.6c17.917,12.114,32.358,31.433,46.326,50.117,2.066,2.764,4.2,5.621,6.281,8.36,1.607,2.12,3.246,4.293,4.831,6.394,7.834,10.388,15.936,21.129,24.421,31.1,14.033,16.484,26.819,27.929,40.239,36.015,28.885,17.407,60.181,15.146,98.492-7.114,17.642-10.25,34.263-23.046,50.337-35.421,2.2-1.695,4.476-3.447,6.679-5.132a499.2,499.2,0,0,1,52.819-35.874C542.817,49.817,561,41.587,577.52,36.591a141.028,141.028,0,0,1,27.411-5.578,95.089,95.089,0,0,1,26.511,1.024c20.2,3.794,33.144,11.037,40.728,22.8,6.865,10.645,8.762,24.153,10.769,38.455,3.285,23.406,7.009,49.935,32.359,74.985Z" transform="translate(90.054 3.143)"/>
        <path id="パス_8151" data-name="パス 8151" d="M716.817,168.217a101.485,101.485,0,0,1-23.889-37.863c-4.533-12.652-6.428-24.885-8.26-36.716-2.239-14.458-4.354-28.114-11.288-38.711-7.658-11.706-20.541-18.769-40.541-22.23-28.821-5.04-63.427,4.618-105.79,29.52a506.375,506.375,0,0,0-51.9,35.51c-2.022,1.552-4.108,3.162-6.125,4.719-15.994,12.339-32.531,25.106-50.112,35.339C401.5,147.922,385.82,153.752,370.987,155.6a77.791,77.791,0,0,1-24.719-.764,79.711,79.711,0,0,1-24.949-9.64,132.423,132.423,0,0,1-21.8-16.253,218.84,218.84,0,0,1-19.4-20.187c-8.144-9.518-15.98-19.751-23.551-29.653-2.092-2.733-4.255-5.56-6.376-8.305-1.632-2.11-3.3-4.291-4.923-6.4-14.841-19.351-30.189-39.36-49.291-51.13a88.639,88.639,0,0,0-11.067-5.813c-24.206-10.536-44.6,6.3-57.441,22.282C106.121,56.218,90.59,89.06,75.572,120.822c-2.441,5.154-4.957,10.483-7.444,15.654l-.472-.308c2.483-5.168,5-10.494,7.444-15.649,15.035-31.8,30.581-64.675,51.974-91.212,8.581-10.677,17.5-18.147,26.515-22.2A37.516,37.516,0,0,1,185.1,6.864,89.34,89.34,0,0,1,196.23,12.71c19.188,11.828,34.567,31.881,49.44,51.273,1.618,2.11,3.295,4.291,4.923,6.4,2.121,2.747,4.286,5.573,6.377,8.308,7.573,9.892,15.4,20.12,23.537,29.624,14.335,16.743,27.385,28.285,41.07,36.322,28.65,16.825,59.506,14.468,97.107-7.418,17.551-10.217,34.074-22.968,50.055-35.3,2.017-1.557,4.1-3.173,6.123-4.719a507.432,507.432,0,0,1,51.956-35.549c19.029-11.185,36.875-19.42,53.041-24.476a140.656,140.656,0,0,1,26.947-5.78,94.246,94.246,0,0,1,26.127.677c20.148,3.486,33.142,10.626,40.892,22.47,7.012,10.718,9.137,24.446,11.389,38.981,3.6,23.27,7.688,49.643,31.971,74.216Z" transform="translate(90.046 4.68)"/>
        <path id="パス_8152" data-name="パス 8152" d="M718.705,167.679c-23.35-24.219-27.8-50.52-31.718-73.726-2.486-14.71-4.833-28.6-11.923-39.293-7.832-11.805-20.775-18.779-40.732-21.933-28.3-4.536-62.308,5.308-103.968,30.092a514.446,514.446,0,0,0-51.042,35.2q-2.753,2.123-5.557,4.294c-15.9,12.3-32.346,25.024-49.84,35.227-17.1,9.975-32.541,15.734-47.194,17.607a77.644,77.644,0,0,1-24.365-.635,79.444,79.444,0,0,1-24.627-9.247,130.381,130.381,0,0,1-22.254-16.319A218,218,0,0,1,285.7,108.518c-7.827-9.094-15.411-18.869-22.746-28.321-2.574-3.315-5.235-6.746-7.846-10.067q-1.743-2.211-3.5-4.453c-15.757-20.076-32.056-40.84-52.457-52.269a90.016,90.016,0,0,0-11.325-5.369c-19.667-7.65-39.293.3-58.317,23.615-21.864,26.7-38.036,59.707-53.675,91.628C73.3,128.453,70.679,133.8,68.1,138.99l-.451-.3c2.581-5.189,5.2-10.536,7.734-15.706,15.655-31.953,31.842-64.993,53.751-91.742,8.751-10.724,17.816-18.312,26.944-22.552,10.6-4.925,21.34-5.335,31.916-1.22a90.582,90.582,0,0,1,11.388,5.395c9.174,5.139,18.387,12.691,28.165,23.08,8.642,9.184,16.68,19.427,24.453,29.331q1.757,2.238,3.5,4.453c2.613,3.323,5.274,6.753,7.849,10.07,7.33,9.447,14.911,19.216,22.727,28.3,14.643,17.012,27.96,28.651,41.9,36.629,28.4,16.252,58.818,13.8,95.721-7.724,17.466-10.186,33.9-22.9,49.787-35.189l5.558-4.294a514.673,514.673,0,0,1,51.089-35.232c18.991-11.3,36.017-19.313,52.047-24.5a139.251,139.251,0,0,1,26.48-5.979,93.751,93.751,0,0,1,25.742.331c20.1,3.173,33.153,10.215,41.075,22.159C682.639,65.1,685,79.063,687.5,93.841c3.9,23.111,8.332,49.3,31.552,73.389Z" transform="translate(90.031 6.2)"/>
        <path id="パス_8153" data-name="パス 8153" d="M720.589,167.172c-22.274-23.705-27.043-49.787-31.249-72.809-5.656-30.945-10.128-55.387-53.518-61.568-27.774-4.035-61.184,6-102.138,30.667A522.641,522.641,0,0,0,483.5,98.336q-2.467,1.91-4.975,3.855c-15.817,12.265-32.173,24.956-49.585,35.129-16.8,9.815-32,15.506-46.468,17.4a77.571,77.571,0,0,1-24.014-.505,79.032,79.032,0,0,1-24.3-8.862,128.593,128.593,0,0,1-22.709-16.385,217.6,217.6,0,0,1-20.163-20.664c-7.539-8.716-14.9-18.078-22.011-27.133-3.029-3.855-6.16-7.84-9.239-11.688l-2.024-2.526c-16.686-20.83-33.936-42.369-55.679-53.392A91.75,91.75,0,0,0,190.75,8.648C170.852,1.8,150.937,10.2,131.558,33.6,109.17,60.519,92.353,93.7,76.089,125.784c-2.626,5.181-5.342,10.54-8.018,15.742l-.433-.3c2.676-5.2,5.391-10.56,8.017-15.742C91.933,93.366,108.766,60.157,131.2,33.189c8.92-10.773,18.13-18.479,27.373-22.906,10.738-5.145,21.617-5.884,32.324-2.2a92.134,92.134,0,0,1,11.644,4.943c9.773,4.956,19.567,12.548,29.94,23.21,9.168,9.423,17.677,20.047,25.907,30.32l2.024,2.526c3.08,3.85,6.212,7.837,9.242,11.693,7.111,9.048,14.463,18.405,22,27.112,14.962,17.288,28.541,29.024,42.734,36.935,28.138,15.685,58.115,13.134,94.335-8.028,17.385-10.159,33.729-22.835,49.532-35.1l4.975-3.854A523.754,523.754,0,0,1,533.45,62.936c18.689-11.258,35.388-19.28,51.054-24.528a139.386,139.386,0,0,1,26.022-6.187,93.067,93.067,0,0,1,25.357-.016c20.06,2.857,33.176,9.8,41.277,21.866,7.322,10.9,9.922,25.115,12.671,40.162,4.192,22.93,8.941,48.92,31.1,72.5Z" transform="translate(90.021 7.694)"/>
        <path id="パス_8154" data-name="パス 8154" d="M722.474,166.674c-21.2-23.185-26.271-49.025-30.751-71.827-6.19-31.564-11.08-56.5-54.417-61.979-27.244-3.539-60.056,6.677-100.314,31.239a533.7,533.7,0,0,0-49.32,34.566q-2.171,1.684-4.373,3.4c-15.742,12.241-32.01,24.894-49.349,35.05-16.494,9.656-31.458,15.283-45.745,17.206a77.494,77.494,0,0,1-23.662-.376,78.561,78.561,0,0,1-23.966-8.482,126.7,126.7,0,0,1-23.165-16.448,218.658,218.658,0,0,1-20.532-20.911c-7.283-8.374-14.427-17.362-21.337-26.054-3.463-4.359-7.046-8.865-10.573-13.2l-.511-.627c-17.62-21.6-35.838-43.93-58.94-54.483a93.21,93.21,0,0,0-11.844-4.471c-20.122-6.049-40.332,2.794-60.067,26.286-22.918,27.148-40.384,60.506-57.275,92.766-2.715,5.186-5.523,10.548-8.289,15.759l-.412-.3c2.765-5.208,5.572-10.57,8.287-15.755C92.822,95.744,110.3,62.357,133.26,35.168c9.091-10.823,18.446-18.648,27.805-23.262,10.884-5.369,21.9-6.433,32.729-3.173a93.763,93.763,0,0,1,11.9,4.492c10.385,4.744,20.768,12.364,31.741,23.3,9.7,9.66,18.684,20.674,27.372,31.325l.512.628c3.529,4.339,7.112,8.847,10.577,13.206,6.906,8.687,14.045,17.671,21.321,26.036,15.286,17.572,29.13,29.409,43.564,37.243,27.864,15.131,57.4,12.479,92.95-8.335,17.312-10.136,33.572-22.784,49.3-35.022l4.373-3.4A533.714,533.714,0,0,1,536.77,63.608c18.388-11.219,34.763-19.25,50.06-24.55a139.006,139.006,0,0,1,25.56-6.388,92.521,92.521,0,0,1,24.972-.366c20.026,2.535,33.215,9.4,41.5,21.59,7.489,11.018,10.33,25.5,13.336,40.826,4.457,22.724,9.508,48.479,30.6,71.54Z" transform="translate(90.01 9.168)"/>
        <path id="パス_8155" data-name="パス 8155" d="M724.351,166.207c-20.135-22.636-25.481-48.208-30.2-70.776-6.74-32.215-12.062-57.678-55.358-62.454-26.709-3.051-58.924,7.356-98.489,31.814a538.189,538.189,0,0,0-48.46,34.25q-1.865,1.451-3.752,2.929c-15.664,12.219-31.862,24.855-49.133,34.988-16.2,9.5-30.923,15.062-45.028,17a77.224,77.224,0,0,1-23.307-.244,78.215,78.215,0,0,1-23.633-8.11,125.016,125.016,0,0,1-23.62-16.51,216.924,216.924,0,0,1-20.913-21.146c-7.048-8.065-14-16.718-20.72-25.082-3.879-4.827-7.89-9.82-11.848-14.608-17.216-20.759-36.73-44.29-61.2-54.3a94.528,94.528,0,0,0-12.1-4.027c-20.34-5.261-40.844,4.027-60.941,27.621C112.194,64.935,94.08,98.482,76.562,130.92c-2.8,5.181-5.694,10.541-8.542,15.751l-.394-.293c2.851-5.209,5.745-10.568,8.542-15.749C93.7,98.164,111.828,64.594,135.32,37.169c9.264-10.874,18.765-18.82,28.24-23.622C174.586,7.96,185.733,6.565,196.694,9.4a95.121,95.121,0,0,1,12.156,4.042c10.834,4.433,21.623,11.884,32.988,22.78,10.427,10,20.387,22.008,28.391,31.658,3.96,4.792,7.972,9.785,11.853,14.615,6.718,8.361,13.667,17.007,20.707,25.063,15.62,17.864,29.727,29.794,44.4,37.549,27.2,14.376,57.148,11.55,91.565-8.64,17.245-10.117,33.436-22.744,49.083-34.954l3.751-2.929c18.229-14.208,33.639-25.1,48.5-34.269,18.092-11.184,34.141-19.222,49.068-24.573a138.3,138.3,0,0,1,25.1-6.59,92.019,92.019,0,0,1,24.587-.71c20,2.206,33.266,8.986,41.752,21.335,7.661,11.147,10.748,25.905,14.016,41.532,4.7,22.49,10.033,47.981,30.069,70.508Z" transform="translate(90.006 10.611)"/>
        <path id="パス_8156" data-name="パス 8156" d="M726.24,165.784c-19.067-22.079-24.667-47.347-29.608-69.638-7.3-32.948-13.07-58.972-56.344-63.027-26.531-2.6-57.246,7.688-96.661,32.389a564.85,564.85,0,0,0-47.6,33.934q-1.549,1.208-3.109,2.432c-15.6,12.2-31.727,24.824-48.939,34.944-15.9,9.347-30.392,14.847-44.306,16.814a75.494,75.494,0,0,1-46.256-7.857,123.215,123.215,0,0,1-24.077-16.57,216.939,216.939,0,0,1-21.285-21.39c-6.834-7.782-13.606-16.125-20.154-24.193-4.277-5.27-8.7-10.72-13.073-15.93-20.332-24.132-39.1-44.812-62.945-53.5a96.037,96.037,0,0,0-12.361-3.574c-20.553-4.476-41.35,5.267-61.815,28.957-23.993,27.625-42.771,61.364-60.93,93.992-2.879,5.172-5.857,10.52-8.786,15.722L67.614,149c2.929-5.2,5.906-10.548,8.786-15.72,18.172-32.651,36.964-66.415,60.991-94.084C157.965,15.382,178.9,5.59,199.6,10.1a96.206,96.206,0,0,1,12.414,3.59c11.2,4.076,22.3,11.266,33.948,21.978,10.324,9.494,19.694,20.388,29.183,31.65,4.376,5.213,8.8,10.665,13.079,15.937,6.544,8.065,13.312,16.4,20.141,24.179C324.327,125.6,338.7,137.626,353.6,145.29c26.9,13.839,56.4,10.913,90.179-8.945,17.189-10.105,33.305-22.717,48.891-34.912L495.778,99a566.824,566.824,0,0,1,47.639-33.96c17.8-11.151,33.524-19.2,48.079-24.6a138.241,138.241,0,0,1,24.634-6.795,91.417,91.417,0,0,1,24.2-1.057C660.3,34.471,673.66,41.175,682.351,53.7c7.841,11.3,11.18,26.358,14.715,42.316,4.926,22.227,10.51,47.42,29.49,69.4Z" transform="translate(89.99 12.022)"/>
        <path id="パス_8157" data-name="パス 8157" d="M728.121,165.37c-18.009-21.5-23.835-46.4-28.974-68.372-7.572-32.358-14.11-60.3-57.374-63.722-26.063-2.059-56.2,8.42-94.834,32.962C528.563,77.889,511.462,91.009,500.2,99.856l-2.441,1.916c-15.538,12.2-31.605,24.812-48.767,34.924-15.609,9.195-29.868,14.635-43.592,16.629a75.171,75.171,0,0,1-45.565-7.364c-15.169-7.593-29.848-19.751-46.194-38.264C307,100.171,300.4,92.11,294.013,84.314c-4.66-5.688-9.478-11.571-14.255-17.175-19.832-23.185-39.7-44.662-64.692-52.689a97.231,97.231,0,0,0-12.62-3.126c-20.758-3.7-41.856,6.493-62.686,30.293-24.541,27.874-43.983,61.816-62.785,94.64-2.951,5.153-6,10.482-9.008,15.668l-.358-.281c3-5.185,6.056-10.513,9.008-15.666,18.813-32.846,38.267-66.81,62.844-94.721C160.4,17.34,181.614,7.1,202.514,10.827a97.357,97.357,0,0,1,12.67,3.139c25.09,8.061,45.008,29.584,64.882,52.82,4.781,5.613,9.6,11.491,14.263,17.182,6.383,7.793,12.985,15.851,19.62,23.37,16.305,18.469,30.943,30.6,46.063,38.163,26.591,13.308,55.635,10.282,88.791-9.251,17.139-10.1,33.192-22.7,48.722-34.891l2.441-1.917c11.272-8.857,28.384-21.981,46.776-33.643C564.208,54.7,579.608,46.656,593.82,41.2a138.594,138.594,0,0,1,24.171-6.993,91.562,91.562,0,0,1,23.82-1.435c19.964,1.577,33.414,8.239,42.324,20.966,8.029,11.471,11.627,26.846,15.435,43.125,5.125,21.91,10.937,46.744,28.868,68.155Z" transform="translate(89.983 13.417)"/>
        <path id="パス_8158" data-name="パス 8158" d="M730.01,164.99a116.735,116.735,0,0,1-18.485-33.156c-4.278-11.407-7.086-22.842-9.8-33.9-8.142-33.16-15.174-61.8-58.459-64.466C609.751,31.4,574.133,51.616,550.257,67c-17.588,11.31-33.758,23.738-45.883,33.3l-1.745,1.375c-15.488,12.2-31.5,24.818-48.627,34.931-15.321,9.046-29.347,14.426-42.878,16.449a74.833,74.833,0,0,1-44.873-6.879c-15.383-7.486-30.324-19.74-47.023-38.568-6.467-7.288-12.911-15.091-19.147-22.637-5.028-6.086-10.227-12.382-15.4-18.354-19.3-22.237-40.333-44.56-66.442-51.884a98.235,98.235,0,0,0-12.879-2.679c-20.957-2.929-42.344,7.712-63.557,31.631C116.71,71.818,96.6,105.973,77.15,139c-3.018,5.125-6.139,10.426-9.212,15.589l-.339-.273c3.073-5.162,6.193-10.461,9.212-15.588,19.46-33.05,39.583-67.225,64.709-95.387,21.31-24.024,42.807-34.71,63.894-31.761a98.447,98.447,0,0,1,12.926,2.685c11.916,3.342,23.65,10.006,35.876,20.369,10.983,9.311,21.273,20.709,30.762,31.641,5.173,5.979,10.372,12.275,15.4,18.362,6.234,7.544,12.681,15.344,19.136,22.626,16.662,18.783,31.563,31.007,46.9,38.469,26.27,12.785,54.86,9.659,87.405-9.556,17.1-10.1,33.1-22.707,48.582-34.9l1.746-1.375c12.13-9.571,28.31-22.007,45.912-33.326,17.174-11.068,32.25-19.122,46.083-24.613a138.961,138.961,0,0,1,23.709-7.2,91.1,91.1,0,0,1,23.429-1.783c19.963,1.23,33.517,7.837,42.659,20.787,8.227,11.657,12.087,27.379,16.175,44.025,5.3,21.579,11.3,46.036,28.188,66.86Z" transform="translate(89.969 14.779)"/>
        <path id="パス_8159" data-name="パス 8159" d="M731.9,164.641c-7.111-9.072-12.886-19.647-17.657-32.326-4.2-11.167-7.091-22.425-9.884-33.314-8.731-34.026-16.271-63.412-59.6-65.313-1.109-.049-2.227-.073-3.341-.073-31.793,0-65.189,19.371-87.839,34.184C536.6,78.878,520.6,91.247,508.558,100.784l-1.025.811c-15.445,12.213-31.416,24.84-48.51,34.957-15.036,8.9-28.829,14.222-42.168,16.275a76.7,76.7,0,0,1-21.908.286,75.815,75.815,0,0,1-22.27-6.682c-15.587-7.372-30.793-19.723-47.853-38.871-6.3-7.078-12.6-14.643-18.7-21.958-5.389-6.461-10.958-13.142-16.507-19.466-19.578-22.237-40.971-44.5-68.191-51.077a98.941,98.941,0,0,0-13.138-2.229c-21.147-2.167-42.825,8.924-64.431,32.966-25.66,28.391-46.446,62.768-66.549,96.01-3.079,5.092-6.262,10.357-9.4,15.488l-.321-.266c3.134-5.125,6.316-10.394,9.4-15.485C97.1,108.28,117.9,73.886,143.585,45.463c9.973-11.1,20.061-19.539,29.985-25.083,11.613-6.487,23.307-9.181,34.75-8.009A99.451,99.451,0,0,1,221.5,14.61c12.285,2.959,24.33,9.362,36.841,19.555,11.5,9.373,21.965,20.745,31.55,31.637,5.553,6.33,11.123,13.013,16.509,19.477,6.1,7.322,12.4,14.887,18.693,21.947,17.023,19.106,32.19,31.427,47.729,38.777,25.938,12.267,54.074,9.042,86.019-9.862,17.072-10.1,33.032-22.724,48.467-34.929l1.025-.81c12.045-9.541,28.052-21.916,45.048-33.007,16.895-11.047,31.644-19.106,45.094-24.639a138.45,138.45,0,0,1,23.245-7.4,90.861,90.861,0,0,1,23.051-2.131c10.53.461,19.2,2.5,26.509,6.223A44.912,44.912,0,0,1,687.8,53.871c8.435,11.867,12.569,27.962,16.935,45,5.442,21.208,11.611,45.247,27.456,65.462Z" transform="translate(89.957 16.111)"/>
        <path id="パス_8160" data-name="パス 8160" d="M733.777,164.325c-6.647-8.786-12.147-19.075-16.813-31.447-4.114-10.906-7.068-21.965-9.925-32.663-9.339-34.966-17.4-65.163-60.8-66.273-31.671-.81-64.388,18.109-89.355,34.684-16.26,10.77-31.448,22.559-44.16,32.671l-.267.214c-15.414,12.236-31.353,24.894-48.43,35.022-14.756,8.753-28.317,14.021-41.458,16.108a76.5,76.5,0,0,1-21.559.42,75.052,75.052,0,0,1-21.924-6.338c-15.784-7.251-31.254-19.7-48.689-39.171-6.147-6.871-12.319-14.221-18.288-21.328-5.735-6.821-11.654-13.875-17.572-20.532C275.539,44.4,252.9,21.21,224.6,15.414a98.769,98.769,0,0,0-13.4-1.78c-21.333-1.414-43.3,10.128-65.3,34.3C119.667,76.6,98.2,111.2,77.446,144.672c-3.131,5.047-6.37,10.266-9.557,15.356l-.3-.257c3.187-5.089,6.426-10.308,9.557-15.355,20.773-33.483,42.253-68.107,68.51-96.8,10.158-11.163,20.393-19.728,30.423-25.454,11.765-6.718,23.593-9.734,35.154-8.968a98.843,98.843,0,0,1,13.44,1.786c12.631,2.586,25,8.72,37.8,18.753,12.028,9.427,23.1,21.282,32.337,31.636,5.926,6.662,11.853,13.717,17.583,20.541,5.967,7.106,12.138,14.453,18.281,21.318,17.393,19.437,32.826,31.857,48.567,39.084,25.6,11.757,53.279,8.431,84.631-10.167,17.056-10.12,32.985-22.764,48.389-34.993l.268-.212c12.718-10.116,27.913-21.911,44.185-32.689,16.846-11.184,30.86-19.021,44.1-24.663,16.748-7.136,31.615-10.433,45.448-10.08,43.668,1.119,51.769,31.455,61.151,66.581,5.555,20.8,11.849,44.366,26.661,63.951Z" transform="translate(89.951 17.409)"/>
        <path id="パス_8161" data-name="パス 8161" d="M735.665,164.048c-6.187-8.5-11.4-18.476-15.95-30.507C715.7,122.925,712.7,112.08,709.8,101.6c-9.97-35.99-18.573-67.062-62.067-67.363h-.513c-30.762,0-62.639,18.825-87.016,35.266-15.563,10.461-30.008,21.73-43.294,32.347-14.432,11.5-30.789,24.545-47.861,34.7-14.477,8.609-27.808,13.822-40.751,15.938a76.233,76.233,0,0,1-21.208.554,74.354,74.354,0,0,1-21.575-6,114.338,114.338,0,0,1-26.378-16.84A220.968,220.968,0,0,1,336,107.558c-6.006-6.687-12.055-13.834-17.905-20.745-6.071-7.167-12.338-14.577-18.624-21.55-19.289-21.33-42.327-44.494-71.69-49.466a99.422,99.422,0,0,0-13.654-1.334c-21.505-.669-43.768,11.323-66.167,35.642-26.811,28.939-48.971,63.786-70.4,97.486-3.173,4.995-6.461,10.16-9.694,15.2l-.287-.244c3.233-5.039,6.516-10.2,9.693-15.2,21.442-33.715,43.613-68.58,70.447-97.543,10.346-11.227,20.729-19.921,30.862-25.828,11.917-6.948,23.881-10.286,35.558-9.923a99.665,99.665,0,0,1,13.7,1.336c12.986,2.2,25.665,8.068,38.759,17.938,12.5,9.429,23.763,21.284,33.126,31.636,6.29,6.976,12.563,14.388,18.628,21.557,5.848,6.91,11.894,14.055,17.9,20.737,17.772,19.769,33.467,32.291,49.394,39.391,25.242,11.252,52.472,7.827,83.245-10.474,17.051-10.141,33.4-23.172,47.822-34.669,13.3-10.616,27.748-21.9,43.32-32.372,16.568-11.173,30.263-19.017,43.108-24.686,16.409-7.245,31-10.723,44.6-10.629,10.558.072,19.323,1.913,26.8,5.632A45.954,45.954,0,0,1,691.61,54.268c8.884,12.372,13.568,29.287,18.529,47.2,5.906,21.329,12.015,43.385,25.8,62.314Z" transform="translate(89.937 18.668)"/>
        <path id="パス_8162" data-name="パス 8162" d="M67.836,165.617l-.27-.244c3.269-4.979,6.59-10.078,9.8-15.009,22.118-33.957,44.987-69.068,72.409-98.319,22.215-23.828,44.845-36.3,67.259-37.082A80.835,80.835,0,0,1,231,15.848c13.34,1.81,26.332,7.413,39.72,17.13,13.04,9.464,24.974,21.878,33.914,31.636,6.646,7.285,13.26,15.039,19.644,22.539,5.735,6.731,11.667,13.69,17.54,20.2,11.425,12.659,29.062,30.549,50.228,39.7,24.877,10.753,51.652,7.226,81.858-10.78,17.039-10.16,33.643-23.454,46.981-34.135C534.14,91.5,548.46,80.255,563.342,70.084c16.3-11.169,29.686-19.022,42.12-24.712,16.07-7.355,30.385-11.011,43.753-11.178,10.58-.137,19.4,1.616,26.968,5.344a46.508,46.508,0,0,1,17.4,15.072c9.127,12.674,14.1,30.046,19.361,48.437,5.95,20.792,12.1,42.291,24.869,60.537l-.264.25c-12.806-18.3-18.968-39.837-24.928-60.661-10.525-36.78-19.631-68.59-62.312-68.59-.366,0-.724,0-1.091.006-30.152.377-61.641,19.349-85.7,35.835-14.873,10.165-29.187,21.4-42.439,32.038-13.35,10.688-29.965,23.991-47.022,34.161-14.2,8.469-27.3,13.629-40.046,15.778a76.008,76.008,0,0,1-20.86.688,73.54,73.54,0,0,1-21.226-5.667,112.575,112.575,0,0,1-26.839-16.885,222.414,222.414,0,0,1-23.505-22.9c-5.877-6.515-11.81-13.477-17.546-20.209-6.388-7.5-12.995-15.254-19.637-22.521-21.029-22.952-44.48-44.733-73.441-48.662a80.756,80.756,0,0,0-13.911-.883c-22.331.775-44.887,13.216-67.041,36.975-27.4,29.227-50.26,64.325-72.363,98.267C74.428,155.54,71.105,160.641,67.836,165.617Z" transform="translate(89.926 19.866)"/>
        <path id="パス_8163" data-name="パス 8163" d="M67.811,168.458l-.253-.229c3.295-4.908,6.646-9.934,9.884-14.793,22.8-34.208,46.38-69.582,74.4-99.126,10.731-11.375,21.409-20.32,31.738-26.583,12.227-7.416,24.464-11.395,36.364-11.829a100.99,100.99,0,0,1,14.21.436c30.032,3.1,53.979,24.883,75.383,47.957,7,7.566,13.931,15.648,20.637,23.465,5.632,6.564,11.454,13.35,17.206,19.7,12.66,13.972,29.905,31.146,51.06,40.006,24.5,10.261,50.823,6.635,80.471-11.086,15.742-9.408,30.212-20.784,46.149-33.6,12.917-10.4,26.766-21.421,41.6-31.735C576.758,64.013,592,53.8,607.791,46.308c15.734-7.466,29.769-11.3,42.906-11.727,10.616-.342,19.5,1.312,27.177,5.062a47.164,47.164,0,0,1,17.733,15.376c9.385,13.011,14.643,30.873,20.221,49.787,5.95,20.192,12.1,41.072,23.86,58.6l-.254.231c-11.79-17.581-17.952-38.491-23.91-58.713-5.562-18.877-10.817-36.707-20.163-49.665-10.457-14.5-24.65-20.947-44.656-20.3-29.211.937-58.791,18.927-83.867,36.4C552,81.67,538.162,92.687,525.26,103.09c-15.948,12.824-30.43,24.205-46.185,33.625-18.77,11.219-36.219,16.8-52.716,16.8a71.751,71.751,0,0,1-28.008-5.7,110.792,110.792,0,0,1-27.3-16.928,224.072,224.072,0,0,1-23.87-23.158c-5.757-6.356-11.582-13.145-17.215-19.71-6.7-7.81-13.638-15.9-20.629-23.455-21.361-23.027-45.257-44.762-75.192-47.857a100.8,100.8,0,0,0-14.171-.434c-22.14.8-44.355,13.336-67.906,38.311-28,29.523-51.569,64.884-74.363,99.079C74.455,158.527,71.107,163.554,67.811,168.458Z" transform="translate(89.916 21.052)"/>
        <path id="パス_8164" data-name="パス 8164" d="M67.787,171.384l-.237-.22c3.312-4.827,6.679-9.762,9.934-14.542,23.5-34.473,47.795-70.119,76.425-99.967,11.085-11.616,21.61-20.436,32.176-26.968,12.386-7.651,24.759-11.951,36.777-12.779A101.7,101.7,0,0,1,237.33,16.9c14.043,1.016,27.664,6.087,41.641,15.5,13.926,9.4,26.281,21.844,35.489,31.655,7.339,7.839,14.593,16.242,21.61,24.367,5.533,6.408,11.253,13.033,16.9,19.238C365.9,121.871,383.49,139.3,404.86,147.964c24.116,9.774,49.985,6.048,79.083-11.393,15.7-9.408,30.391-21.008,45.314-33.07,13.476-10.909,26.724-21.522,40.734-31.42,10.771-7.633,25.068-17.345,40.131-24.758,15.4-7.578,29.155-11.593,42.058-12.275,10.654-.563,19.62,1,27.411,4.785a48.032,48.032,0,0,1,18.1,15.72c9.661,13.39,15.221,31.78,21.111,51.252,5.9,19.524,12.008,39.712,22.767,56.492l-.244.211c-10.786-16.824-16.9-37.038-22.809-56.586-5.878-19.439-11.429-37.8-21.055-51.141-10.8-14.962-25.177-21.435-45.265-20.376-28.428,1.5-57.428,19.538-82.049,36.983-14,9.893-27.246,20.5-40.717,31.408-14.933,12.062-29.637,23.673-45.348,33.089C454.9,154.372,428.958,158.1,404.761,148.3c-9.249-3.749-18.331-9.3-27.766-16.962a221.641,221.641,0,0,1-24.236-23.422c-5.645-6.209-11.367-12.835-16.9-19.244-7.014-8.123-14.266-16.523-21.6-24.357-21.706-23.119-46.05-44.818-76.948-47.05a101.168,101.168,0,0,0-14.43.013c-22.275,1.529-44.771,14.5-68.77,39.646-28.611,29.83-52.9,65.463-76.39,99.925C74.467,161.622,71.1,166.561,67.787,171.384Z" transform="translate(89.905 22.153)"/>
        <path id="パス_8165" data-name="パス 8165" d="M67.763,174.36l-.22-.209c3.318-4.735,6.69-9.576,9.951-14.257,24.2-34.749,49.23-70.68,78.481-100.842,24.5-25.382,47.329-38.815,69.8-41.072a102.289,102.289,0,0,1,14.724-.464c14.393.616,28.328,5.419,42.6,14.684,11.2,7.27,22.39,17.031,36.276,31.649,7.677,8.1,15.244,16.812,22.562,25.234,5.44,6.262,11.065,12.737,16.6,18.8,13.217,14.473,31.154,32.169,52.728,40.621,23.721,9.294,49.136,5.467,77.7-11.7,15.651-9.41,30.555-21.233,44.478-32.531,12.064-9.811,25.736-20.931,39.87-31.1,10.608-7.65,24.644-17.38,39.141-24.784C627.518,40.707,641,36.509,653.668,35.573c10.7-.792,19.758.686,27.68,4.515,7.1,3.434,13.151,8.71,18.493,16.128,9.953,13.82,15.815,32.778,22.022,52.848,5.806,18.776,11.81,38.195,21.579,54.18l-.231.192c-9.793-16.026-15.8-35.463-21.616-54.26-6.2-20.042-12.053-38.973-21.972-52.748-11.161-15.5-25.758-22.02-45.939-20.528-27.556,2.037-54.841,19.255-80.219,37.558-14.128,10.164-27.8,21.282-39.857,31.092-13.932,11.307-28.844,23.135-44.511,32.553-13.4,8.054-25.809,13.066-37.936,15.319a75.4,75.4,0,0,1-19.812,1.1,71.021,71.021,0,0,1-20.168-4.7c-21.627-8.472-39.594-26.2-52.832-40.693-5.541-6.07-11.169-12.547-16.61-18.811-7.316-8.42-14.88-17.127-22.552-25.224-22.053-23.213-46.849-44.883-78.7-46.249a101.963,101.963,0,0,0-14.689.462c-22.408,2.251-45.186,15.659-69.636,40.99-29.233,30.141-54.252,66.064-78.449,100.8C74.449,164.79,71.078,169.632,67.763,174.36Z" transform="translate(89.896 23.203)"/>
        <path id="パス_8166" data-name="パス 8166" d="M67.737,177.39l-.2-.2c3.311-4.627,6.675-9.357,9.928-13.932C102.383,128.223,128.152,92,158.038,61.505c24.956-25.57,48.066-39.439,70.647-42.4a102.531,102.531,0,0,1,14.98-.914c14.741.212,28.989,4.747,43.564,13.865,11.53,7.214,22.962,16.978,37.065,31.655,8.01,8.358,15.882,17.366,23.5,26.076,5.353,6.126,10.89,12.462,16.331,18.4,13.5,14.731,31.794,32.695,53.562,40.927,23.317,8.819,48.278,4.892,76.308-12.005,15.62-9.414,30.121-20.968,43.642-32l1.749-1.429c11.915-9.74,24.236-19.812,37.259-29.355,11.1-8.153,24.313-17.476,38.148-24.81,14.728-7.81,27.931-12.181,40.363-13.369,10.767-1.03,19.921.366,27.988,4.261,7.215,3.485,13.406,8.917,18.924,16.607,10.266,14.31,16.43,33.882,22.957,54.6,5.654,17.938,11.5,36.486,20.292,51.636l-.221.173c-8.81-15.18-14.662-33.748-20.32-51.7-6.522-20.695-12.682-40.241-22.918-54.505-11.555-16.108-26.391-22.7-46.687-20.758-26.747,2.563-53.484,19.838-78.392,38.133-13.018,9.538-25.336,19.607-37.248,29.347l-1.749,1.429c-13.528,11.034-28.043,22.593-43.673,32.016-13.139,7.921-25.318,12.885-37.234,15.175a74.989,74.989,0,0,1-19.465,1.234,70.088,70.088,0,0,1-19.812-4.383c-9.539-3.608-18.925-9.18-28.7-17.036a226.92,226.92,0,0,1-24.963-23.96c-5.444-5.94-10.983-12.277-16.336-18.4-7.611-8.709-15.48-17.714-23.486-26.066C302.775,41.734,276.532,18.976,243.66,18.5a102.413,102.413,0,0,0-14.947.913c-22.526,2.954-45.587,16.8-70.5,42.327-29.868,30.474-55.63,66.694-80.55,101.723C74.412,168.037,71.048,172.768,67.737,177.39Z" transform="translate(89.882 24.2)"/>
        <path id="パス_8167" data-name="パス 8167" d="M67.713,180.465l-.188-.185c3.295-4.508,6.631-9.113,9.864-13.566C103.041,131.373,129.568,94.828,160.1,64c11.729-11.887,22.684-21.083,33.491-28.113,12.87-8.374,25.656-13.628,38-15.62A103.352,103.352,0,0,1,246.834,18.9c15.084-.2,29.653,4.073,44.518,13.046,11.694,7.057,23.722,17.118,37.853,31.665,8.337,8.6,16.508,17.9,24.406,26.886,5.273,6,10.726,12.2,16.077,18.024,14.657,15.928,32.579,33.287,54.4,41.241,22.9,8.349,47.41,4.322,74.925-12.311,15.57-9.416,30.263-21.177,42.806-31.461l3.783-3.106c11.031-9.076,22.437-18.459,34.357-27.361,22.8-17.062,49.4-35.535,76.673-38.751,10.842-1.279,20.114.035,28.343,4.017,7.344,3.555,13.688,9.172,19.4,17.172,4.759,6.67,9.152,15.173,13.434,25.992,3.819,9.655,7.213,20.263,10.494,30.522,5.438,16.995,11.061,34.568,18.889,48.821l-.207.155c-7.843-14.277-13.471-31.866-18.914-48.876-6.546-20.458-13.315-41.612-23.888-56.434-11.818-16.568-27.364-23.465-47.523-21.086-27.212,3.211-53.792,21.664-76.564,38.707-11.915,8.9-23.324,18.28-34.357,27.354q-1.9,1.563-3.783,3.106c-12.553,10.291-27.251,22.058-42.832,31.483-12.881,7.788-24.832,12.706-36.535,15.034a74.725,74.725,0,0,1-19.116,1.372,69.091,69.091,0,0,1-19.459-4.075c-9.682-3.529-19.222-9.111-29.165-17.063a229.316,229.316,0,0,1-25.326-24.236c-5.353-5.821-10.808-12.026-16.082-18.027-7.9-8.987-16.067-18.281-24.406-26.878-21.681-22.316-48.4-45.07-82.205-44.638a103.114,103.114,0,0,0-15.206,1.362c-22.629,3.646-45.973,17.928-71.366,43.664C129.732,95.033,103.213,131.569,77.567,166.9,74.345,171.358,71,175.962,67.713,180.465Z" transform="translate(89.871 25.152)"/>
        <path id="パス_8168" data-name="パス 8168" d="M67.69,183.568l-.173-.174c3.253-4.375,6.559-8.841,9.762-13.161,26.4-35.658,53.692-72.53,84.894-103.706,11.959-11.992,23.056-21.313,33.924-28.5a127.272,127.272,0,0,1,18.681-10.314,91.83,91.83,0,0,1,19.734-6.248,103.889,103.889,0,0,1,15.5-1.813c15.432-.6,30.306,3.4,45.475,12.226,12.01,6.991,24.284,17.055,38.643,31.672,8.664,8.837,17.124,18.415,25.309,27.677,5.2,5.882,10.571,11.959,15.838,17.67,14.972,16.214,33.24,33.829,55.229,41.542,22.481,7.885,46.534,3.757,73.533-12.619,14.781-8.967,28.907-20.163,41.97-30.926q2.91-2.4,5.868-4.855c10.128-8.386,20.6-17.057,31.414-25.294,11.349-8.658,23.578-17.662,36.164-24.862,14.062-8.045,26.711-12.776,38.669-14.463a56.554,56.554,0,0,1,15.662-.156,43.6,43.6,0,0,1,13.094,3.951c7.486,3.645,14,9.48,19.911,17.838,10.962,15.5,18.06,37.427,24.922,58.636,5.154,15.928,10.485,32.4,17.361,45.689l-.2.137c-6.887-13.308-12.221-29.791-17.379-45.731-6.857-21.188-13.947-43.1-24.884-58.56-12.28-17.36-28.131-24.406-48.462-21.538-26.336,3.721-51.366,21.448-74.742,39.288-10.813,8.241-21.282,16.9-31.4,25.289q-2.958,2.449-5.868,4.854c-13.07,10.769-27.2,21.965-42,30.945-12.626,7.658-24.347,12.531-35.835,14.9a74.465,74.465,0,0,1-18.768,1.509,68.186,68.186,0,0,1-19.1-3.769c-22.033-7.728-40.328-25.367-55.319-41.6-5.269-5.708-10.643-11.792-15.842-17.673-8.183-9.259-16.645-18.835-25.3-27.667C311.945,41.32,284.742,18.568,250.02,19.923a103.457,103.457,0,0,0-15.465,1.81c-22.717,4.325-46.344,19.044-72.231,45C131.132,97.9,103.839,134.757,77.447,170.412,74.25,174.732,70.943,179.2,67.69,183.568Z" transform="translate(89.86 26.076)"/>
        <path id="パス_8169" data-name="パス 8169" d="M67.666,186.7l-.159-.162c3.2-4.225,6.455-8.542,9.6-12.707,27.16-35.992,55.243-73.209,87.128-104.75,12.2-12.1,23.437-21.553,34.363-28.888a136.1,136.1,0,0,1,18.886-10.712,98.2,98.2,0,0,1,19.942-6.792,105.848,105.848,0,0,1,15.744-2.259c15.773-1.014,30.961,2.716,46.432,11.4,12.325,6.92,24.851,16.988,39.431,31.682,8.979,9.065,17.731,18.914,26.193,28.445,5.125,5.769,10.426,11.737,15.613,17.337,15.3,16.509,33.918,34.391,56.062,41.856,22.05,7.428,45.648,3.2,72.145-12.925,14.726-8.963,28.473-19.9,41.134-30.385,2.642-2.2,5.362-4.463,7.993-6.659,9.195-7.677,18.7-15.62,28.433-23.173,10.481-8.161,22.706-17.49,35.168-24.911,13.739-8.176,26.114-13.08,37.829-14.985a54.321,54.321,0,0,1,15.879-.445,42.641,42.641,0,0,1,13.349,3.992c7.643,3.743,14.342,9.831,20.479,18.607,11.349,16.23,18.765,39,25.936,61.014,5.017,15.406,9.755,29.958,15.694,42.2l-.184.122c-5.948-12.253-10.695-26.813-15.71-42.229-7.164-22-14.571-44.746-25.9-60.951-12.786-18.287-28.983-25.5-49.516-22.077-25.365,4.122-48.958,21.206-72.908,39.858C577,85.757,567.5,93.7,558.3,101.371c-2.631,2.2-5.352,4.467-7.993,6.659-12.669,10.494-26.423,21.439-41.16,30.408-12.374,7.53-23.866,12.359-35.134,14.765a69.523,69.523,0,0,1-37.167-1.819C414.661,143.91,396.014,126,380.7,109.478c-5.19-5.6-10.494-11.569-15.62-17.341C356.62,82.613,347.876,72.764,338.9,63.7c-22.387-22.562-50.078-45.316-85.714-43.027a105.651,105.651,0,0,0-15.72,2.259c-23.1,5.056-46.328,19.78-73.095,46.338C132.5,100.8,104.42,138.009,77.267,173.995,74.12,178.166,70.862,182.478,67.666,186.7Z" transform="translate(89.848 26.973)"/>
        <path id="パス_8170" data-name="パス 8170" d="M67.642,189.857l-.143-.149c3.13-4.059,6.313-8.2,9.4-12.2,27.932-36.338,56.822-73.922,89.4-105.84,12.447-12.225,23.83-21.8,34.8-29.277,13.565-9.246,26.4-15.279,39.242-18.446a106.465,106.465,0,0,1,16.008-2.713c16.116-1.428,31.614,2.034,47.385,10.583,12.631,6.846,25.411,16.917,40.22,31.692,9.295,9.288,18.329,19.4,27.065,29.192,5.058,5.666,10.288,11.524,15.4,17.025,16.414,17.656,34.674,34.984,56.9,42.157,21.609,6.975,44.753,2.647,70.757-13.232,14.7-8.98,28.622-20.135,40.3-29.857,3.362-2.807,6.823-5.722,10.17-8.542,8.238-6.942,16.756-14.121,25.382-20.973C601.218,70.3,612.33,61.63,624.1,54.341c13.406-8.3,25.5-13.382,36.981-15.533a52.179,52.179,0,0,1,16.147-.7,41.849,41.849,0,0,1,13.654,4.1c7.832,3.9,14.74,10.314,21.119,19.578,11.775,17.1,19.492,40.757,26.955,63.633,4.549,13.948,8.847,27.122,13.858,38.206l-.17.1c-5.017-11.1-9.317-24.277-13.868-38.231-7.457-22.861-15.168-46.5-26.924-63.577C698.5,42.538,681.909,35.05,661.123,39.03c-24.491,4.588-46.683,21.025-71.085,40.432-8.629,6.849-17.146,14.027-25.382,20.969-3.346,2.82-6.807,5.735-10.171,8.542-11.682,9.729-25.608,20.888-40.322,29.872-11.959,7.3-23.542,12.225-34.435,14.634a74.392,74.392,0,0,1-16.061,1.8,66.076,66.076,0,0,1-20.4-3.187c-10.115-3.264-20.113-8.864-30.568-17.121-10.287-8.126-19.517-17.676-26.408-25.088-5.115-5.5-10.346-11.362-15.4-17.029-8.731-9.783-17.761-19.9-27.058-29.178-22.746-22.7-50.925-45.462-87.471-42.222a106.129,106.129,0,0,0-15.986,2.709c-23.143,5.7-46.643,20.852-73.949,47.669-32.57,31.91-61.455,69.485-89.388,105.823C73.956,181.663,70.773,185.8,67.642,189.857Z" transform="translate(89.837 27.841)"/>
        <path id="パス_8171" data-name="パス 8171" d="M67.62,193.041l-.129-.137c3.042-3.874,6.134-7.826,9.125-11.646,28.734-36.712,58.451-74.674,91.747-106.991C181.076,61.916,192.6,52.211,203.6,44.6c13.74-9.5,26.713-15.844,39.659-19.387a107.141,107.141,0,0,1,16.262-3.163c16.457-1.84,32.269,1.352,48.343,9.762,12.935,6.769,25.969,16.84,41.01,31.7,9.607,9.5,18.914,19.883,27.926,29.921,4.993,5.567,10.158,11.323,15.2,16.731,16.77,17.978,35.371,35.566,57.731,42.466,21.158,6.527,43.848,2.1,69.367-13.545,14.635-8.969,28.163-19.855,39.465-29.322,4.1-3.439,8.309-7.023,12.377-10.494C578.2,93.091,585.7,86.695,593.253,80.57c9.462-7.688,21.239-17.262,33.184-24.96,13.075-8.426,24.894-13.685,36.135-16.082a50.253,50.253,0,0,1,16.474-.963,41.245,41.245,0,0,1,14,4.255c8.045,4.115,15.189,10.9,21.843,20.752,5.472,8.106,10.622,18.369,15.742,31.377,4.515,11.471,8.433,23.532,12.221,35.2,3.979,12.258,7.738,23.835,11.837,33.62l-.156.088c-4.1-9.793-7.86-21.374-11.837-33.637C735.33,107.519,726.98,81.8,714.754,63.7,700.778,43.01,683.72,35.168,662.6,39.737c-25.477,5.431-48.733,24.332-69.251,41.009-7.545,6.123-15.053,12.519-22.314,18.7-4.068,3.467-8.276,7.051-12.379,10.494-11.307,9.471-24.841,20.362-39.485,29.337-11.715,7.179-23.063,12.059-33.736,14.507a68.184,68.184,0,0,1-35.754-.951c-22.4-6.909-41.017-24.515-57.8-42.512-5.045-5.41-10.209-11.166-15.2-16.734-9-10.037-18.314-20.414-27.918-29.913-23.111-22.831-51.783-45.607-89.223-41.418a106.809,106.809,0,0,0-16.241,3.158c-30.447,8.328-57.282,31.959-74.818,49.01-33.29,32.307-63,70.264-91.73,106.971C73.753,185.219,70.661,189.17,67.62,193.041Z" transform="translate(89.825 28.684)"/>
        <path id="パス_8172" data-name="パス 8172" d="M67.6,196.259l-.113-.122c2.929-3.669,5.91-7.411,8.786-11.028,29.553-37.1,60.111-75.468,94.153-108.2,13.167-12.675,24.5-22.226,35.668-30.058,13.921-9.762,27.029-16.41,40.074-20.325a106.358,106.358,0,0,1,16.52-3.613c16.783-2.293,32.907.622,49.3,8.908,13.214,6.69,26.5,16.783,41.8,31.748,9.917,9.711,19.5,20.346,28.773,30.629,4.935,5.474,10.037,11.135,15.009,16.455,17.134,18.3,36.089,36.163,58.565,42.772,20.7,6.086,42.937,1.557,67.979-13.847,14.643-9.007,28.336-20.115,38.629-28.786,4.859-4.1,9.816-8.372,14.609-12.508,6.27-5.408,12.753-11,19.222-16.372l.351-.292c10.259-8.529,20.867-17.346,32.034-24.82,12.668-8.477,24.147-13.875,35.1-16.5,21.6-5.229,39.253,3.11,53.978,25.5,12.748,19.379,21.355,46.223,28.943,69.907,3.295,10.27,6.4,19.97,9.584,28.259l-.141.074c-3.187-8.3-6.3-18-9.589-28.27-7.586-23.673-16.186-50.5-28.921-69.861-14.685-22.324-32.29-30.641-53.822-25.428-24.457,5.866-47.1,24.686-67.072,41.292l-.35.292c-6.468,5.369-12.951,10.963-19.221,16.371-4.793,4.134-9.751,8.411-14.61,12.508-10.3,8.675-24,19.789-38.647,28.8-11.471,7.058-22.591,11.9-33.035,14.383a67.525,67.525,0,0,1-35.055-.522c-10.4-3.058-20.707-8.664-31.506-17.134-10.25-8.042-19.465-17.494-27.126-25.681-4.98-5.32-10.082-10.983-15.017-16.457-9.274-10.283-18.853-20.918-28.766-30.629C331.536,42.039,301.182,17.839,262.7,23.1a106.151,106.151,0,0,0-16.5,3.608c-30.108,9.03-56.255,31.652-75.679,50.346-34.035,32.723-64.591,71.085-94.139,108.183C73.5,188.851,70.527,192.6,67.6,196.259Z" transform="translate(89.817 29.493)"/>
        <path id="パス_8173" data-name="パス 8173" d="M67.573,199.473l-.1-.11q4.194-5.165,8.387-10.344c30.394-37.516,61.822-76.308,96.632-109.471,19.891-18.968,46.582-41.987,76.591-51.714a106.452,106.452,0,0,1,16.778-4.062,80.283,80.283,0,0,1,26.285.168,90.057,90.057,0,0,1,23.968,7.932c13.533,6.605,27.067,16.692,42.588,31.743,10.223,9.915,20.08,20.8,29.611,31.328,4.881,5.386,9.92,10.957,14.836,16.193,16.308,17.372,35.692,36.46,59.4,43.076,20.232,5.651,42.014,1.021,66.591-14.155,14.56-8.991,27.846-19.821,37.793-28.253,5.639-4.781,11.349-9.774,16.865-14.6,5.263-4.6,10.705-9.366,16.108-13.958l1.736-1.479c9.735-8.3,19.8-16.866,30.417-24.191,12.033-8.305,22.988-13.707,33.489-16.516a46.415,46.415,0,0,1,17.418-1.481,40.445,40.445,0,0,1,14.959,4.858,54.432,54.432,0,0,1,12.77,10.048,90.651,90.651,0,0,1,10.861,14.084c5.933,9.335,11.519,21.008,17.078,35.683,4.847,12.8,9.044,26.219,12.746,38.058,2.465,7.885,4.795,15.334,7.067,21.843l-.122.06c-2.273-6.507-4.6-13.956-7.068-21.843C736.14,94.025,715.439,27.821,665.592,41.216c-23.471,6.278-44.938,24.557-63.873,40.683l-1.738,1.479c-5.4,4.592-10.84,9.353-16.1,13.958-5.521,4.83-11.227,9.824-16.868,14.607-9.951,8.433-23.241,19.268-37.809,28.264-11.241,6.941-22.12,11.739-32.337,14.263a66.794,66.794,0,0,1-34.352-.1c-10.544-2.945-21-8.548-31.971-17.13C420.3,129.23,410.9,119.609,403.057,111.25c-4.918-5.237-9.961-10.808-14.839-16.2-9.529-10.526-19.384-21.41-29.6-31.321-22.474-21.789-53.326-46-92.734-39.808a106.31,106.31,0,0,0-16.758,4.057c-29.986,9.72-56.656,32.727-76.542,51.684-34.8,33.157-66.227,71.945-96.618,109.459Z" transform="translate(89.802 30.306)"/>
        <path id="パス_8174" data-name="パス 8174" d="M67.551,202.717l-.087-.1q3.954-4.792,7.906-9.593c31.26-37.951,63.584-77.2,99.186-110.815,10.544-9.956,26.592-24.528,44.136-36.085s34.014-18.58,50.34-21.471a80.89,80.89,0,0,1,36.547,1.78c10.732,3.017,21.3,8.184,32.3,15.8,20.354,14.082,38.561,34.1,56.168,53.465,4.824,5.3,9.811,10.79,14.669,15.948,16.662,17.694,36.431,37.1,60.234,43.388,19.758,5.22,41.084.488,65.2-14.46,19.99-12.392,38.333-28.706,56.071-44.482,4.254-3.783,8.652-7.688,12.995-11.482q1.49-1.3,2.993-2.615c9.229-8.068,18.773-16.412,28.858-23.6,11.429-8.148,21.881-13.557,31.953-16.54a44.527,44.527,0,0,1,18.146-1.727,40.492,40.492,0,0,1,15.652,5.428,58.516,58.516,0,0,1,13.4,11.19,101.263,101.263,0,0,1,11.393,15.562c13.962,23.04,23.121,53.626,30.48,78.2,1.48,4.941,2.877,9.608,4.211,13.856l-.112.048c-1.333-4.249-2.731-8.917-4.211-13.859-7.357-24.568-16.513-55.143-30.464-78.169-16.493-27.22-35.616-37.164-58.464-30.4-22.5,6.662-41.954,23.673-60.77,40.119l-2.993,2.615c-4.342,3.783-8.74,7.7-12.992,11.48-17.743,15.779-36.09,32.093-56.088,44.494-11.011,6.826-21.654,11.585-31.634,14.147-11.746,3.013-23.063,3.124-33.649.327-10.686-2.825-21.3-8.42-32.446-17.122-10.194-7.954-19.4-17.34-27.843-26.3-4.858-5.159-9.846-10.645-14.67-15.949-35.855-39.435-72.935-80.21-124.919-71-36.333,6.435-68.119,32.691-94.419,57.528-35.6,33.613-67.918,72.851-99.176,110.8Z" transform="translate(89.79 31.089)"/>
      </g>
    </g>
  </g>
</svg>
