<svg xmlns="http://www.w3.org/2000/svg" xmlns:xlink="http://www.w3.org/1999/xlink" width="1280" height="800" viewBox="0 0 1280 800">
  <defs>
    <clipPath id="clip-path">
      <path id="パス_2" data-name="パス 2" d="M0,0H1280V800H0Z" fill="#f4f4f4"/>
    </clipPath>
  </defs>
  <g id="マスクグループ_38" data-name="マスクグループ 38" clip-path="url(#clip-path)">
    <g id="レイヤー_2" data-name="レイヤー 2" transform="translate(0 135.441)">
      <g id="_饑1" data-name="ﾑ饑1" transform="translate(-233 -43.626)" opacity="0.182">
        <path id="パス_4422" data-name="パス 4422" d="M91.883,714.314l1.809.028c.114-6.787.212-13.694.3-20.4.623-44.183,1.266-89.874,7.493-134.163q.2-1.442.413-2.964c1.747-12.578,3.922-28.23,8.806-42.472,5.726-16.712,13.753-27.321,24.546-32.437,10.446-4.953,22.593-4.085,37.129,2.651,12.4,5.749,23.9,14.539,33.137,21.6l.24.183c22.722,17.371,44.015,37.292,64.595,56.556,10.885,10.183,22.143,20.714,33.47,30.747,19.042,16.849,39.7,34.3,61.752,47.759a171.409,171.409,0,0,0,34.9,16.7c12.506,4.134,24.44,5.821,35.473,5a69.7,69.7,0,0,0,27.993-8.144c9.358-5.023,18.182-12.42,26.225-21.991,31.481-37.465,47.268-89.04,61.2-134.545l1.5-4.883c9.39-30.615,17.978-62.011,26.285-92.381,9.441-34.512,19.2-70.2,30.184-104.9,11.549-36.5,30.881-97.589,61.494-142.271,35.077-51.211,76.666-71.054,127.14-60.7,60.871,12.5,115.978,58.874,156.215,92.732,41.395,34.832,81.26,72.767,119.81,109.452,21.159,20.135,43.041,40.958,64.92,61.026q3.979,3.651,8.077,7.418c44.86,41.222,100.69,92.525,161.406,127.238a365.909,365.909,0,0,0,46.477,22.6,258.763,258.763,0,0,0,47.983,14.058,198.909,198.909,0,0,0,49.017,3.082,181.06,181.06,0,0,0,49.536-10.335,207.136,207.136,0,0,0,45.03-23.034,280.111,280.111,0,0,0,39.206-32.191c20.841-20.342,41.16-45.335,63.938-78.65,46.606-68.165,83.684-143.736,119.541-216.818q5.387-10.984,10.78-21.944l-1.623-.8q-5.4,10.955-10.782,21.944c-35.824,73.015-72.873,148.539-119.4,216.585-33.848,49.51-81.187,109.395-147.294,133.2-57.939,20.859-120.583,11.289-191.5-29.261-60.541-34.623-116.286-85.838-161.078-127l-8.079-7.418c-21.869-20.058-43.741-40.873-64.894-61-38.571-36.705-78.457-74.658-119.887-109.526-23.975-20.169-47.6-39.63-73.054-56.192-29.783-19.353-57.249-31.439-83.97-36.922a117.636,117.636,0,0,0-40.511-1.55,104.66,104.66,0,0,0-34.672,11.511c-19.484,10.469-37.571,27.791-53.812,51.482-13.237,19.327-25.321,42.79-36.969,71.736-9.873,24.546-17.642,48.542-24.753,71.01-10.989,34.729-20.758,70.434-30.2,104.966-8.3,30.354-16.89,61.737-26.269,92.326l-1.5,4.883c-13.877,45.34-29.61,96.732-60.853,133.91-15.208,18.1-33.028,28.024-52.967,29.5-42.829,3.168-88.174-31.3-130.8-69.013-11.309-10.007-22.556-20.528-33.432-30.7-20.624-19.3-41.945-39.248-64.739-56.673l-.24-.183c-9.3-7.116-20.9-15.973-33.478-21.807a61.63,61.63,0,0,0-19.378-5.733,35.723,35.723,0,0,0-19.3,3.1c-11.25,5.333-19.585,16.278-25.479,33.483-4.938,14.4-7.126,30.155-8.883,42.811-.142,1.01-.279,2-.413,2.961-6.245,44.4-6.888,90.148-7.514,134.388C92.1,700.609,92,707.526,91.883,714.314Z" transform="translate(38.66 37.401)"/>
        <path id="パス_4423" data-name="パス 4423" d="M87.508,713.225l1.734.083c.318-6.7.623-13.529.92-20.13C92.2,647.564,94.319,600.4,102.37,554.917q.357-2.008.726-4.134c4.392-25.254,11.038-63.416,35.806-75.811,22.657-11.34,49.7,7.968,67.587,20.743l1.194.853c22.306,15.908,43.227,34.336,63.46,52.154,10.668,9.4,21.7,19.12,32.814,28.349,26.153,21.644,56.688,45.686,88.151,57.073,17.57,6.361,33.943,8.118,48.66,5.217,16.994-3.359,32.388-13,45.751-28.68,13.844-16.19,25.946-36.369,37-61.693,9.715-22.27,17.337-45.379,24.706-67.726l1.891-5.736c9.638-29.215,18.557-59.145,27.181-88.086,5.069-17.009,10.309-34.594,15.634-51.831,5.873-19.009,11.239-35.589,16.4-50.694C630.582,223.4,662.7,130.438,726.242,97.978c21.657-11.095,45.686-14.157,71.416-9.1,24.029,4.687,48.058,14.518,73.465,30.055,29.024,17.74,54.735,39.961,78.2,61.331,24.184,22.027,47.025,45.676,69.093,68.548,11.232,11.627,22.611,23.6,33.612,35.158,22.456,23.6,45.676,48,69.429,71.545,18.371,18.327,39.95,39.643,63.548,60.678,45.053,40.167,86.285,69.222,126.045,88.825,23.921,11.795,47.446,20.107,69.92,24.706,24.8,5.075,49.063,5.788,72.134,2.121a188.674,188.674,0,0,0,29.786-7.258,214.5,214.5,0,0,0,45.568-21.618,284.418,284.418,0,0,0,40.077-30.556c21.564-19.513,42.632-43.5,66.315-75.493,14.1-19.068,27.667-39.113,41.467-61.285,34.39-54.9,63.4-114.449,91.448-172.033l1.638-3.359-1.55-.76-1.641,3.359c-28.031,57.543-57.016,117.045-91.357,171.876-13.779,22.133-27.318,42.141-41.392,61.168-35.139,47.461-84.05,104.793-151.11,127.052a187.036,187.036,0,0,1-29.512,7.193c-78.477,12.477-165.706-25.218-266.672-115.237-23.564-21.006-45.123-42.3-63.481-60.613-23.737-23.525-46.947-47.919-69.393-71.511-11.007-11.565-22.386-23.525-33.623-35.165-22.1-22.892-44.958-46.562-69.173-68.628-23.512-21.427-49.314-43.71-78.462-61.528C846.455,101.8,822.224,91.9,798,87.172c-26.12-5.134-50.526-2.018-72.54,9.258-14.939,7.632-29.173,19.216-42.3,34.426C671.812,144,660.893,160.335,650.7,179.4c-19.1,35.687-32.92,75.71-43.015,104.93-5.168,15.125-10.539,31.724-16.417,50.748-5.33,17.244-10.57,34.834-15.64,51.846-8.622,28.938-17.539,58.846-27.166,88.04q-.946,2.842-1.894,5.736c-14.356,43.537-30.628,92.882-61.373,128.835-24.737,29.029-55,36.54-92.5,22.962-31.2-11.294-61.6-35.23-87.637-56.776-11.087-9.221-22.109-18.929-32.77-28.318-20.267-17.846-41.222-36.3-63.6-52.265l-1.194-.85c-9.066-6.475-20.35-14.531-32.434-19.637-14.412-6.072-26.494-6.485-36.935-1.258-25.551,12.787-32.3,51.469-36.739,77.066q-.372,2.132-.726,4.134C92.593,600.19,90.476,647.414,88.43,693.087,88.133,699.7,87.825,706.526,87.508,713.225Z" transform="translate(36.819 35.668)"/>
        <path id="パス_4424" data-name="パス 4424" d="M84.787,712.271c.5-6.483.987-13.084,1.457-19.469,3.493-47.175,7.105-95.954,17-142.757.354-1.674.716-3.416,1.088-5.211,2.685-12.953,6.023-29.075,11.8-43.408,6.718-16.678,15.371-27.613,26.414-33.426,21.587-11.369,47.7,5.943,64.987,17.386l2.067,1.367c21.585,14.244,41.857,30.946,61.463,47.1,10.725,8.836,21.815,17.973,33.01,26.613,21.324,16.466,53.546,41.341,86.332,52.161,17.19,5.669,33.2,6.992,47.6,3.932,16.629-3.535,31.721-13.027,44.849-28.21,13.611-15.632,25.665-35.036,36.84-59.321,9.836-21.368,17.707-43.544,25.321-64.992q1.171-3.3,2.325-6.568c9.849-27.776,19.063-56.192,27.975-83.673,5.467-16.87,11.126-34.313,16.862-51.4,4.878-14.536,10.73-31.708,17.13-48.875,22.081-59.236,55.453-148.751,117.87-180,21.365-10.756,44.971-13.818,70.157-9.1C821.061,88.8,845.372,98.537,869.6,113.35c30.31,18.521,55.926,42.4,74.855,61.127,19.51,19.311,37.535,40.214,54.962,60.432q4.286,4.969,8.583,9.94c7.945,9.178,16.02,18.6,23.841,27.708,23.143,26.98,47.071,54.874,72.152,81.942,17.384,18.763,38.3,40.855,61.6,62.437,42.718,39.578,85.053,69.884,125.83,90.071,23.959,11.859,47.64,20.314,70.382,25.125,24.923,5.273,49.337,6.3,72.563,3.059a195.908,195.908,0,0,0,29.993-6.6,222.089,222.089,0,0,0,46.1-20.2,289.313,289.313,0,0,0,40.948-28.915c22.322-18.7,44.149-41.687,68.693-72.346,14.4-18.009,28.582-37.493,43.369-59.572,36.364-54.29,65.886-113.772,95.414-175.025l-1.5-.723c-29.5,61.2-58.993,120.624-95.3,174.826-14.761,22.037-28.92,41.485-43.286,59.455C1582.463,451.5,1532,506.271,1463.883,527a193.23,193.23,0,0,1-68.085,8.01c-87.358-5.155-171.119-65.595-229.07-119.291-23.254-21.544-44.149-43.606-61.515-62.347-25.063-27.044-48.975-54.929-72.108-81.906-7.816-9.113-15.9-18.533-23.846-27.714q-4.3-4.969-8.581-9.94c-17.453-20.239-35.5-41.17-55.058-60.52-18.993-18.794-44.7-42.754-75.154-61.362-24.4-14.914-48.9-24.711-72.819-29.124-25.551-4.785-49.508-1.672-71.2,9.25-63,31.545-96.509,121.438-118.683,180.911-6.408,17.19-12.265,34.364-17.149,48.924-5.739,17.094-11.395,34.543-16.867,51.417-8.906,27.471-18.118,55.877-27.959,83.629q-1.163,3.263-2.325,6.568c-14.815,41.741-31.61,89.053-61.851,123.781-24.308,28.112-53.967,35.894-90.67,23.789-32.517-10.723-64.595-35.5-85.838-51.9-11.175-8.63-22.254-17.756-32.969-26.585-19.637-16.18-39.948-32.91-61.605-47.2l-2.067-1.364c-17.616-11.671-44.229-29.3-66.685-17.472-11.4,6-20.3,17.216-27.179,34.274-5.837,14.469-9.193,30.664-11.885,43.684-.369,1.79-.731,3.532-1.085,5.2-9.919,46.911-13.534,95.747-17.032,142.979-.473,6.382-.961,12.981-1.457,19.464Z" transform="translate(34.979 33.925)"/>
        <path id="パス_4425" data-name="パス 4425" d="M80.34,711.247c.638-6.139,1.274-12.387,1.889-18.428,4.979-48.867,10.126-99.4,21.9-147.632.486-1.979.977-4.041,1.483-6.167,6.439-26.99,15.249-63.954,40.589-77.942,9.069-5.01,19.676-5.374,32.426-1.121,10.96,3.659,21.541,10.108,30.042,15.288l2.868,1.744c21.035,12.717,40.824,27.851,59.967,42.488,10.622,8.121,21.606,16.521,32.706,24.435,22.44,16,53.174,37.917,84.474,47.182,16.795,4.969,32.439,5.863,46.508,2.654,16.278-3.71,31.075-13.02,44.007-27.667,13.412-15.2,25.445-33.943,36.79-57.321,9.986-20.58,18.143-41.922,26.029-62.561l2.584-6.718c10.02-26.282,19.482-53.138,28.636-79.11,5.912-16.795,12.028-34.134,18.218-51.117,5.522-15.149,11.506-31.331,17.859-47.053l.483-1.194c22.848-56.541,57.378-141.987,118.337-171.878,21.073-10.418,44.255-13.48,68.894-9.105,23.729,4.119,47.632,13.459,71.054,27.763,23.706,14.469,46.428,33.848,71.509,60.926,16.944,18.3,32.054,38.157,46.666,57.36,3.7,4.865,7.529,9.893,11.335,14.833,5.266,6.832,10.632,13.836,15.823,20.608,23.182,30.246,47.151,61.522,73.121,91.983,15,17.6,35.338,40.8,59.654,64.194a598.661,598.661,0,0,0,59.329,50.335A449.053,449.053,0,0,0,1271.8,509c36.914,18.345,72.775,28.587,107.041,30.61a205.053,205.053,0,0,0,66.995-7,231.131,231.131,0,0,0,46.645-18.787,295.273,295.273,0,0,0,41.816-27.28c23.117-17.887,45.7-39.873,71.067-69.186,15-17.366,29.809-36.289,45.276-57.856,39.738-55.414,70.075-116.666,97.742-174.664l-1.434-.682c-27.646,57.923-57.936,119.112-97.6,174.405-15.438,21.528-30.217,40.416-45.185,57.745-37.514,43.343-89.461,95.561-158.753,114.759a202.686,202.686,0,0,1-29.972,5.886c-110.627,13.33-215.487-69.726-268.165-120.422-24.267-23.344-44.57-46.508-59.549-64.078-25.944-30.44-49.9-61.7-73.067-91.931-5.191-6.772-10.56-13.777-15.828-20.611-3.8-4.935-7.627-9.963-11.327-14.826-14.634-19.234-29.768-39.121-46.766-57.476-25.166-27.194-48-46.635-71.832-61.192-23.585-14.407-47.673-23.82-71.6-27.972-24.98-4.434-48.49-1.333-69.873,9.245C713,94.772,699.089,105.412,686.1,119.316c-11.392,12.2-22.047,26.727-32.571,44.4-19.138,32.145-33.589,67.928-45.216,96.68l-.481,1.194c-6.364,15.743-12.356,31.943-17.88,47.1-6.2,16.994-12.309,34.349-18.226,51.136-9.147,25.962-18.6,52.81-28.62,79.064q-1.292,3.343-2.584,6.718c-15.342,40.139-32.729,85.637-62.528,119.4-23.949,27.13-53.022,35.158-88.882,24.546-31.044-9.191-61.652-31.005-84-46.952-11.079-7.9-22.053-16.291-32.664-24.4-19.174-14.663-39.015-29.825-60.112-42.586l-2.852-1.721c-8.57-5.224-19.236-11.725-30.367-15.441-13.193-4.392-24.215-4-33.7,1.238-25.944,14.327-34.855,51.676-41.364,78.963-.517,2.124-1,4.183-1.481,6.162-11.8,48.343-16.952,98.925-21.936,147.847-.615,6.038-1.251,12.286-1.889,18.425Z" transform="translate(33.134 32.182)"/>
        <path id="パス_4426" data-name="パス 4426" d="M75.883,710.2q1.108-8.526,2.2-17.04c6.5-50.676,13.229-103.075,26.92-152.854.62-2.253,1.24-4.568,1.9-7.02,7.289-27.148,17.273-64.336,42.937-79.162,19.619-11.335,42.963,1.617,60.011,11.074q1.865,1.033,3.617,1.992c20.5,11.211,39.829,24.8,58.525,37.948,10.5,7.387,21.363,15.025,32.349,22.184l.775.517c23.352,15.226,52.417,34.173,82.384,41.857,16.3,4.183,31.5,4.584,45.183,1.191,15.8-3.92,30.23-13.04,42.868-27.109,13.177-14.671,25.169-32.685,36.635-55.068,10.1-19.719,18.508-40.16,26.634-59.928l3.023-7.343c10.136-24.737,19.8-49.981,29.143-74.392,6.408-16.745,13.035-34.059,19.732-50.991,5.767-14.575,11.95-30.075,18.59-45.234l1.057-2.413C635.3,191.449,669.45,113.445,729.1,84.682c20.771-10.015,43.526-13.079,67.636-9.1,23.838,3.925,47.35,12.88,69.829,26.61,23.479,14.332,45.777,34.194,68.168,60.719,15.115,17.906,28.024,37.354,40.509,56.161,3.876,5.857,7.906,11.916,11.945,17.854q4.7,6.912,9.42,13.877c22.639,33.382,46.046,67.9,72.475,101.677,20.324,25.967,38.661,46.924,57.709,65.951,39.17,39.162,82.534,71.168,125.4,92.556,24.029,11.986,48.012,20.722,71.313,25.967,25.166,5.661,49.867,7.32,73.421,4.93a213.253,213.253,0,0,0,30.4-5.268,241.349,241.349,0,0,0,47.182-17.373A302.805,302.805,0,0,0,1517.2,493.6c23.618-16.844,47.642-38.444,73.442-66.031,15.637-16.758,31.068-35.124,47.177-56.143,38.416-50.125,67.788-105.917,100.07-174.276l-1.369-.646c-32.24,68.271-61.566,123.991-99.9,174-16.081,20.98-31.483,39.307-47.084,56.029-35.6,38.072-91.208,90.753-162.572,108.612a211.654,211.654,0,0,1-30.2,5.232c-119.508,12.144-227.869-81.986-268.912-123.016-19-18.983-37.3-39.9-57.582-65.814-26.4-33.734-49.792-68.233-72.416-101.594q-4.723-6.976-9.42-13.878c-4.036-5.943-8.054-11.986-11.937-17.828-12.508-18.846-25.443-38.33-40.614-56.3-22.489-26.662-44.906-46.63-68.535-61.047-22.649-13.831-46.327-22.856-70.377-26.82-24.414-4.02-47.472-.92-68.532,9.234-26.631,12.841-50.57,36.48-73.183,72.268C635.98,186.093,621,220.3,608.964,247.794l-1.059,2.416c-6.648,15.18-12.839,30.693-18.6,45.281-6.7,16.942-13.327,34.261-19.737,51.006-9.34,24.406-19,49.642-29.127,74.361q-1.506,3.643-3.023,7.341c-15.792,38.413-33.693,81.95-63,114.562-23.425,26.068-51.732,34.4-86.557,25.463-29.714-7.627-58.675-26.5-81.934-41.661l-.775-.517c-10.966-7.147-21.815-14.777-32.3-22.156-18.73-13.177-38.1-26.786-58.67-38.038-1.155-.633-2.356-1.292-3.6-1.987-8.315-4.615-18.665-10.356-29.339-13.436-12.611-3.617-23.133-2.842-32.163,2.364-26.207,15.167-36.287,52.7-43.645,80.1-.656,2.449-1.292,4.762-1.9,7.012-13.72,49.88-20.451,102.336-26.962,153.063Q75.488,701.5,74.385,710Z" transform="translate(31.297 30.451)"/>
        <path id="パス_4427" data-name="パス 4427" d="M71.436,709.161q1.186-7.645,2.356-15.3c8.077-52.606,16.43-107,32.091-158.432.76-2.493,1.519-5.054,2.325-7.751,8.576-28.861,19.249-64.778,45.278-80.482,18.7-11.286,41.191-.083,57.618,8.1,1.5.747,2.915,1.452,4.287,2.119,19.97,9.7,38.855,21.792,57.135,33.475,10.364,6.625,21.081,13.477,31.933,19.862l2.584,1.517c22.737,13.392,51.025,30.062,79.914,36.134,15.914,3.343,30.153,3.191,43.529-.465,15.213-4.16,29.145-13.061,41.408-26.453,12.952-14.149,24.879-31.424,36.457-52.815,10.208-18.862,18.862-38.392,27.207-57.288q1.775-4.01,3.529-7.968c10.188-23.125,19.978-46.689,29.455-69.478,6.976-16.774,14.172-34.106,21.445-51.061,6.645-15.479,12.684-29.429,19.319-43.408l1.775-3.739c25.6-54,60.657-127.954,118.981-155.466,20.489-9.663,42.821-12.728,66.375-9.105a185.477,185.477,0,0,1,68.628,25.474c23.391,14.273,44.6,34.07,64.827,60.52,13.627,17.828,24.667,37.144,35.344,55.841,3.749,6.563,7.625,13.35,11.568,20q2.23,3.752,4.462,7.524c21.572,36.385,43.88,74.012,70.385,110.984,18.6,25.939,36.834,48.087,55.755,67.7,37.873,39.31,81.159,71.746,125.182,93.791a324.416,324.416,0,0,0,71.775,26.386,239.908,239.908,0,0,0,73.852,5.868,224.043,224.043,0,0,0,30.61-4.607,252.954,252.954,0,0,0,47.72-15.96,311.642,311.642,0,0,0,43.557-24.006c24.476-16.045,49.275-36.612,75.816-62.876a706.657,706.657,0,0,0,49.092-54.43c19.637-24.016,38.036-51.2,56.226-83.1,18.319-32.127,34.295-65.4,46.167-90.794l-1.292-.61c-27.605,58.975-59.052,120.812-102.245,173.6a702.177,702.177,0,0,1-48.978,54.319c-36.563,36.173-93.59,86.169-166.4,102.46a221.97,221.97,0,0,1-30.413,4.576,217.047,217.047,0,0,1-30.657.315c-78.78-4.651-165.969-50.125-239-125.928-18.862-19.572-37.067-41.669-55.621-67.55-26.468-36.92-48.761-74.519-70.318-110.88l-4.462-7.521c-3.933-6.635-7.808-13.423-11.552-19.975-10.7-18.738-21.763-38.111-35.45-56-20.342-26.595-41.676-46.508-65.222-60.874a187.023,187.023,0,0,0-69.157-25.667c-23.846-3.666-46.456-.561-67.207,9.227-26.047,12.286-49.73,34.674-72.4,68.447-19.378,28.856-34.84,61.494-47.283,87.7l-1.773,3.739c-6.645,14.009-12.692,27.972-19.342,43.464-7.276,16.952-14.482,34.3-21.445,51.076-9.467,22.781-19.254,46.34-29.432,69.449q-1.76,3.953-3.532,7.968c-17.014,38.473-34.61,78.255-63.409,109.71-22.758,24.859-50.1,33.519-83.578,26.484-28.659-6.025-56.843-22.626-79.48-35.966l-2.584-1.517c-10.826-6.372-21.533-13.216-31.886-19.833-18.293-11.7-37.222-23.8-57.282-33.566-1.367-.664-2.778-1.369-4.274-2.114-16.72-8.328-39.617-19.735-59-8.041-11.785,7.108-21.525,18.921-29.781,36.108-7.09,14.766-11.885,30.933-16.133,45.2-.8,2.708-1.566,5.266-2.325,7.751-15.689,51.528-24.05,105.976-32.137,158.644Q71.185,701.3,70,708.946Z" transform="translate(29.453 28.708)"/>
        <path id="パス_4428" data-name="パス 4428" d="M66.981,708.125l2.346-13.2c9.707-54.657,19.745-111.175,37.431-164.365.9-2.7,1.8-5.467,2.747-8.4,9.444-29.091,21.187-65.295,47.617-81.906,17.828-11.216,39.467-1.71,55.267,5.23q2.585,1.136,4.909,2.137c19.474,8.268,37.953,18.844,55.825,29.078,10.206,5.845,20.761,11.885,31.45,17.477l4.318,2.263c22.1,11.6,49.609,26.034,77.441,30.564,15.3,2.491,29.011,1.827,41.9-2.026,14.637-4.374,28.088-13.048,39.979-25.786,12.715-13.619,24.572-30.155,36.25-50.554,10.3-17.993,19.169-36.63,27.745-54.65q2.067-4.33,4.1-8.6c10.152-21.445,19.988-43.245,29.5-64.336,7.609-16.875,15.477-34.326,23.409-51.355,6.333-13.6,12.88-27.646,20.05-41.6q1.235-2.4,2.5-4.865c26.246-51.115,62.179-121.115,119.216-147.41,20.208-9.3,42.116-12.376,65.111-9.105a176.559,176.559,0,0,1,67.419,24.329c23.171,14.131,43.286,33.863,61.494,60.318,12.322,17.906,21.675,37.279,30.718,56.014,3.431,7.108,6.976,14.456,10.65,21.647l.775,1.527c20.048,39.273,40.775,79.867,67.018,119.931,17.262,26.355,34.863,49.092,53.8,69.468,36.664,39.5,79.875,72.364,124.964,95.039a333.539,333.539,0,0,0,72.24,26.8,251.536,251.536,0,0,0,74.281,6.8,235.022,235.022,0,0,0,30.817-3.945,265.429,265.429,0,0,0,48.273-14.555,322.274,322.274,0,0,0,44.425-22.368c25.368-15.244,50.944-34.77,78.191-59.722a660.725,660.725,0,0,0,50.983-52.709c45.733-52.451,77.358-114.392,104.718-173.514l-1.24-.574c-27.318,59.034-58.871,120.864-104.506,173.188a658.1,658.1,0,0,1-50.877,52.606c-59.528,54.518-113.614,85.118-170.217,96.305a233.17,233.17,0,0,1-30.638,3.922c-105.356,6.754-208.77-61.8-270.4-128.212-18.887-20.327-36.431-42.992-53.66-69.284-26.2-40-46.914-80.573-66.943-119.8l-.775-1.527c-3.664-7.178-7.209-14.521-10.637-21.621-9.066-18.781-18.44-38.2-30.825-56.195-18.319-26.613-38.568-46.474-61.9-60.719A177.877,177.877,0,0,0,796.3,65.361c-23.254-3.31-45.425-.209-65.886,9.216-57.476,26.492-93.533,96.737-119.862,148.025l-2.5,4.863c-7.183,13.952-13.735,28.037-20.073,41.643-7.935,17.037-15.8,34.491-23.417,51.371-9.511,21.089-19.342,42.891-29.491,64.313q-2.039,4.263-4.1,8.6c-17.446,36.659-35.483,74.568-63.763,104.86-22.1,23.67-48.485,32.633-80.663,27.388-27.615-4.5-55.011-18.862-77.025-30.424q-2.188-1.15-4.32-2.263C294.54,487.37,284,481.321,273.8,475.495c-17.906-10.252-36.431-20.856-55.972-29.15-1.55-.661-3.181-1.375-4.909-2.129-16.079-7.064-38.1-16.735-56.543-5.137-26.838,16.88-38.677,53.347-48.19,82.647-.951,2.927-1.847,5.684-2.744,8.39-17.7,53.3-27.745,109.865-37.46,164.574q-1.17,6.6-2.349,13.2Z" transform="translate(27.616 26.961)"/>
        <path id="パス_4429" data-name="パス 4429" d="M62.528,707.079q1.077-5.364,2.152-10.728c11.394-56.843,23.177-115.606,42.955-170.672,1.034-2.873,2.067-5.806,3.152-8.909,10.307-29.357,23.135-65.886,49.973-83.456,17-11.126,37.79-3.268,52.968,2.47,1.93.729,3.752,1.418,5.5,2.044,18.988,6.813,37.082,15.919,54.582,24.727,10.025,5.046,20.394,10.263,30.894,15.038q2.951,1.341,6.01,2.749c21.463,9.842,48.172,22.091,74.961,25.151,14.707,1.679,27.9.537,40.307-3.493,14.071-4.565,27.05-13.012,38.571-25.1,28.207-29.6,46.859-66.163,64.9-101.519q2.067-4.036,4.093-8.01c10.317-20.13,20.329-40.614,30.011-60.427,8.1-16.578,16.477-33.718,24.921-50.423l.331-.651c6.527-12.919,13.278-26.256,20.448-39.121l3.219-5.785c26.866-48.3,63.641-114.449,119.472-139.545a116.652,116.652,0,0,1,63.848-9.108A167.977,167.977,0,0,1,862,85.491c22.854,13.932,41.878,33.589,58.158,60.117,11.126,18.12,18.9,37.628,26.419,56.494,3.007,7.55,6.118,15.355,9.41,23,15.642,36.281,35.111,81.438,60.742,124.412a455.116,455.116,0,0,0,51.851,71.222,436.266,436.266,0,0,0,57.706,53.73,415.39,415.39,0,0,0,67.036,42.55,343.394,343.394,0,0,0,72.705,27.225,264.351,264.351,0,0,0,74.715,7.736,247.78,247.78,0,0,0,31.024-3.284,279.937,279.937,0,0,0,48.8-13.136,335.272,335.272,0,0,0,45.294-20.735c26.3-14.412,52.65-32.917,80.565-56.569a618.817,618.817,0,0,0,52.887-51c21.523-23.184,41.141-49.831,59.975-81.456,15.182-25.5,29.7-53.771,47.066-91.673l-1.173-.54c-27.13,59.2-58.843,121.115-106.813,172.79a619.47,619.47,0,0,1-52.776,50.9c-60.011,50.846-116.939,80.332-174.038,90.151a246.119,246.119,0,0,1-30.863,3.266c-91.347,4.155-195.238-45.971-271.145-130.832a452.665,452.665,0,0,1-51.7-71.02c-25.579-42.891-45.038-88.014-60.667-124.262-3.284-7.62-6.392-15.42-9.4-22.959-7.54-18.916-15.335-38.478-26.515-56.693a205.272,205.272,0,0,0-24.334-32.372,161.794,161.794,0,0,0-34.256-28.163A169.27,169.27,0,0,0,795.96,61.02a117.94,117.94,0,0,0-64.546,9.211c-24.946,11.219-48.138,31.222-70.907,61.156-19.554,25.709-35.279,54-49.154,78.945q-1.628,2.935-3.217,5.783C600.952,229,594.2,242.363,587.663,255.282l-.331.654c-8.449,16.709-16.828,33.848-24.931,50.435-9.679,19.807-19.686,40.289-30,60.406q-2.041,3.982-4.1,8.01c-18,35.274-36.6,71.749-64.682,101.214-48.428,50.826-108.5,23.28-152.368,3.165-2.041-.935-4.046-1.858-6.015-2.752-10.477-4.764-20.833-9.976-30.848-15.017-17.534-8.824-35.656-17.947-54.727-24.789-1.736-.623-3.555-1.31-5.48-2.036-15.441-5.837-36.589-13.828-54.133-2.344-27.2,17.81-40.105,54.572-50.487,84.112-1.088,3.1-2.116,6.031-3.147,8.9C86.619,580.4,74.819,639.216,63.414,696.1q-1.072,5.364-2.152,10.73Z" transform="translate(25.776 25.219)"/>
        <path id="パス_4430" data-name="パス 4430" d="M58.082,706.051l1.754-7.888C72.98,639.023,86.573,577.87,108.52,520.815c1.155-3,2.3-6.054,3.522-9.284,11.172-29.662,25.078-66.574,52.363-85.141,16.2-11.022,35.338-5.015,50.72-.191,2.121.664,4.134,1.292,6.036,1.85,18.528,5.382,36.271,13.027,53.433,20.412,9.818,4.23,19.97,8.6,30.248,12.555,2.5.959,5.007,1.938,7.666,2.977,21.9,8.547,46.717,18.234,72.473,19.9l.651.041c29.739,1.754,54.368-7.839,75.278-29.318,27.683-28.422,46.751-63.148,65.189-96.719q2.364-4.3,4.7-8.547c10.159-18.4,20.084-37.113,29.682-55.205,8.865-16.712,18.032-33.992,27.267-50.8l.876-1.594c6.6-12.007,13.415-24.422,20.634-36.362q1.933-3.2,3.927-6.509C640.639,153.324,678.236,90.941,732.9,66.987a119.161,119.161,0,0,1,62.582-9.108,159.769,159.769,0,0,1,65.005,22.04c22.153,13.5,40.6,33.659,54.828,59.918,9.984,18.428,16.255,38.131,22.316,57.184,2.522,7.922,5.129,16.112,7.974,24.13,15.306,43.116,30.93,85.3,53.688,127.362a405.456,405.456,0,0,0,49.893,72.976,409.6,409.6,0,0,0,57.3,54.577,408.015,408.015,0,0,0,67.222,42.942c41.961,21.262,85.252,33.525,126.469,35.958q11.038.651,21.851.357a262.015,262.015,0,0,0,31.23-2.622c31.607-4.633,63.737-15,95.5-30.825,27.256-13.578,54.383-31.049,82.939-53.417a582.48,582.48,0,0,0,54.776-49.286c22.456-22.737,42.687-49.118,61.853-80.632,15.572-25.6,30.23-54,47.51-92.112l-1.108-.517c-26.977,59.461-58.869,121.5-109.121,172.39a582.412,582.412,0,0,1-54.673,49.185c-61.207,47.947-119.386,75.423-177.862,83.994a261.222,261.222,0,0,1-31.085,2.612c-93.107,2.545-199.827-49.823-271.891-133.414a403.943,403.943,0,0,1-49.743-72.759c-22.716-41.984-38.323-84.12-53.613-127.192-2.842-8-5.441-16.177-7.958-24.091-6.082-19.107-12.369-38.868-22.406-57.4a178.242,178.242,0,0,0-22.221-32.364,142.191,142.191,0,0,0-33.044-28.011,161.107,161.107,0,0,0-65.5-22.221,120.338,120.338,0,0,0-63.212,9.2c-24.432,10.7-47.4,29.574-70.207,57.683-19.637,24.207-35.8,51.027-50.066,74.692l-3.925,6.506c-7.235,11.96-14.058,24.388-20.67,36.405l-.876,1.594c-9.24,16.815-18.407,34.106-27.274,50.815-9.6,18.086-19.518,36.79-29.675,55.187q-2.341,4.24-4.7,8.55c-18.4,33.5-37.426,68.139-65,96.455-46.921,48.2-104.814,25.6-147.084,9.1-2.661-1.034-5.168-2.021-7.674-2.979-10.255-3.943-20.4-8.312-30.2-12.537-17.2-7.408-34.974-15.069-53.572-20.474-1.9-.553-3.9-1.178-6.012-1.842-7.651-2.4-16.324-5.121-25.256-5.865-10.426-.863-19.1,1.165-26.512,6.2-27.605,18.784-41.583,55.9-52.818,85.72-1.217,3.227-2.364,6.276-3.519,9.276-21.98,57.138-35.581,118.337-48.738,177.521l-1.752,7.888Z" transform="translate(23.93 23.459)"/>
        <path id="パス_4431" data-name="パス 4431" d="M53.616,705l1.129-4.651c14.965-61.582,30.442-125.262,54.644-184.428,1.261-3.082,2.511-6.2,3.837-9.5,12.046-30.008,27.039-67.354,54.8-86.973,15.43-10.906,33.773-6.387,48.513-2.754,2.3.566,4.467,1.1,6.532,1.55,18.086,3.964,35.519,10.157,52.376,16.146,9.581,3.405,19.487,6.925,29.5,10.041,3.02.938,6.069,1.915,9.3,2.948,21.2,6.78,45.239,14.469,69.971,14.79,28.747.38,52.629-9.387,73.012-29.858,27.13-27.246,46.573-60.1,65.37-91.866q2.721-4.6,5.426-9.134c9.87-16.583,19.572-33.421,28.956-49.7,9.759-16.937,19.854-34.452,30.01-51.456l1.328-2.225c6.695-11.206,13.616-22.8,20.913-33.91q2.263-3.455,4.6-7.023c29.6-45.27,66.444-101.607,120.009-124.435a122.225,122.225,0,0,1,61.316-9.11c23.644,2.478,45.11,9.508,63.8,20.9,21.706,13.234,39.044,33.331,51.495,59.742,8.873,18.807,13.694,38.757,18.345,58.029,1.992,8.242,4.051,16.766,6.4,25.109,11.764,41.723,25.063,86.154,46.635,130.316a366.918,366.918,0,0,0,47.937,74.728,386.283,386.283,0,0,0,56.892,55.425,401.329,401.329,0,0,0,67.408,43.335c43.178,21.962,88.107,34.677,131.016,37.206q9.175.543,18.205.46a278.066,278.066,0,0,0,31.44-1.964c32.005-3.891,64.594-13.239,96.907-27.781,28.241-12.717,56.146-29.158,85.309-50.265a553.207,553.207,0,0,0,56.691-47.57c23.386-22.285,44.232-48.386,63.731-79.8,15.722-25.321,30.959-54.735,47.952-92.554l-1.033-.47c-26.864,59.76-58.952,121.967-111.431,171.984A551.413,551.413,0,0,1,1516.3,477.75c-62.3,45.084-121.729,70.537-181.684,77.834a276.469,276.469,0,0,1-31.31,1.956c-96.218.889-203.23-52.5-272.636-136.015a365.965,365.965,0,0,1-47.787-74.5c-21.536-44.079-34.811-88.451-46.562-130.124-2.346-8.322-4.392-16.836-6.39-25.063C925.252,172.5,920.421,152.5,911.5,133.59a156.661,156.661,0,0,0-20.125-32.344A125.225,125.225,0,0,0,859.56,73.38C840.724,61.9,819.1,54.818,795.286,52.323a123.3,123.3,0,0,0-61.887,9.2C709.455,71.724,686.7,89.5,663.854,115.853c-19.73,22.753-36.328,48.133-50.97,70.537q-2.325,3.571-4.6,7.02c-7.309,11.136-14.237,22.737-20.929,33.953l-1.328,2.225c-10.162,17.012-20.257,34.53-30.021,51.471-9.382,16.278-19.081,33.114-28.938,49.691q-2.7,4.527-5.426,9.134c-18.766,31.708-38.17,64.5-65.2,91.642-45.42,45.614-98.874,28.52-141.824,14.787-3.235-1.034-6.286-2.01-9.3-2.951-10-3.1-19.9-6.625-29.455-10.025-16.89-6-34.364-12.208-52.513-16.187-2.052-.45-4.214-.982-6.5-1.55-14.965-3.684-33.589-8.268-49.448,2.933-12.5,8.831-23.456,21.807-33.5,39.669-8.741,15.531-15.624,32.682-21.7,47.813-1.325,3.3-2.584,6.416-3.834,9.5-24.236,59.246-39.72,122.967-54.7,184.593l-1.129,4.651Z" transform="translate(22.101 21.716)"/>
        <path id="パス_4432" data-name="パス 4432" d="M49.173,703.966l.258-.977c16.859-64.173,34.3-130.53,60.845-191.934,1.341-3.1,2.672-6.227,4.077-9.534,13.611-31.992,29.037-68.253,57.319-88.991,14.694-10.777,32.246-7.7,46.345-5.224,2.457.431,4.777.84,6.976,1.158,17.683,2.555,34.85,7.3,51.451,11.885,9.3,2.571,18.918,5.227,28.631,7.511,3.537.832,7.123,1.716,10.922,2.654,20.5,5.059,43.736,10.8,67.457,9.855,27.479-1.088,50.417-11.009,70.124-30.336,26.548-26.032,46.317-57.006,65.437-86.96,2.054-3.217,4.178-6.545,6.25-9.774,9.413-14.645,18.717-29.5,27.716-43.865,10.823-17.28,22.016-35.139,33.271-52.451l1.679-2.584c6.824-10.5,13.883-21.352,21.29-31.737q2.566-3.591,5.206-7.315c30.23-42.532,67.829-95.463,120.366-117.2a125.643,125.643,0,0,1,60.05-9.11c23.538,2.147,44.6,8.785,62.592,19.753,21.252,12.934,37.465,32.961,48.177,59.523,7.767,19.247,11.17,39.454,14.469,59,1.434,8.526,2.92,17.337,4.749,25.975,8.526,40.286,19.334,87.128,39.576,133.266a340.8,340.8,0,0,0,45.991,76.48c32.519,40.583,75.426,75.162,124.081,99.992,44.454,22.691,91.153,35.9,135.938,38.54q7.131.424,14.185.483a295.655,295.655,0,0,0,31.646-1.292c32.427-3.142,65.507-11.467,98.316-24.74,28.848-11.668,58.347-27.517,87.683-47.11a532.365,532.365,0,0,0,58.592-45.854c24.311-21.817,45.774-47.645,65.613-78.966,16.063-25.362,31.44-54.913,48.389-93l-.979-.434c-26.755,60.127-59.055,122.531-113.738,171.6a531.274,531.274,0,0,1-58.471,45.764c-62.406,41.676-124.82,65.791-185.516,71.674a295.477,295.477,0,0,1-31.522,1.292c-99.295-.871-206.6-55.293-273.364-138.62a339.849,339.849,0,0,1-45.834-76.24c-20.2-46.043-30.987-92.822-39.511-133.065-1.824-8.617-3.307-17.42-4.741-25.931-3.3-19.6-6.718-39.863-14.526-59.218-10.826-26.771-27.184-46.971-48.634-60.019-18.138-11.046-39.351-17.743-63.044-19.9A126.752,126.752,0,0,0,734.4,57.181c-52.818,21.856-90.528,74.93-120.825,117.562q-2.643,3.715-5.206,7.315c-7.423,10.4-14.487,21.264-21.316,31.781l-1.68,2.584c-11.26,17.311-22.456,35.183-33.282,52.466-9,14.361-18.3,29.215-27.708,43.854-2.067,3.23-4.2,6.558-6.253,9.777-19.089,29.9-38.824,60.825-65.284,86.771-43.924,43.074-95.3,30.4-136.576,20.208-3.8-.938-7.39-1.824-10.932-2.656-9.692-2.279-19.3-4.935-28.592-7.493-16.632-4.6-33.832-9.348-51.583-11.914-2.191-.315-4.5-.721-6.953-1.152-14.3-2.509-32.1-5.633-47.164,5.426-12.717,9.325-24.014,22.668-34.532,40.8-9.17,15.8-16.59,33.248-23.138,48.64-1.408,3.307-2.736,6.428-4.075,9.529C82.713,572.111,65.27,638.506,48.4,702.723l-.258.974Z" transform="translate(20.253 19.96)"/>
        <path id="パス_4433" data-name="パス 4433" d="M44.722,702.932c18.409-65.37,37.447-132.99,66.437-196.747,1.385-3.049,2.757-6.1,4.206-9.335,14.575-32.483,31.1-69.3,59.944-91.236,13.991-10.64,30.747-8.953,44.224-7.6,2.6.258,5.056.517,7.395.664,17.327,1.147,34.284,4.434,50.683,7.612,8.973,1.739,18.252,3.537,27.6,5,4.051.633,8.18,1.338,12.547,2.085,39.826,6.816,89.4,15.3,132.173-25.618,25.918-24.784,45.955-53.856,65.334-81.973,2.382-3.457,4.847-7.03,7.253-10.5,8.715-12.549,17.384-25.267,25.768-37.563,12.118-17.776,24.647-36.173,37.238-53.908l1.971-2.778c6.976-9.842,14.19-20.017,21.73-29.713q2.821-3.617,5.72-7.384c30.845-39.878,69.23-89.507,120.813-110.188a131.55,131.55,0,0,1,58.784-9.11c23.412,1.809,44.066,8.064,61.388,18.6,20.755,12.624,35.847,32.587,44.857,59.331,6.648,19.735,8.671,40.232,10.627,60.052.866,8.785,1.762,17.844,3.046,26.747,6.317,43.738,14.629,90.51,32.52,136.214A315.625,315.625,0,0,0,991,423.819c31.615,40.914,74.444,75.919,123.856,101.23a381.516,381.516,0,0,0,74.571,28.9,328.245,328.245,0,0,0,76.457,11.475,316.933,316.933,0,0,0,31.855-.646c62.527-4.54,126.368-26.628,189.781-65.656a507.969,507.969,0,0,0,60.491-44.141c25.238-21.337,47.317-46.89,67.494-78.123,16.4-25.378,31.912-55.071,48.833-93.442l-.912-.4c-26.685,60.512-59.2,123.135-116.066,171.2a507.239,507.239,0,0,1-60.373,44.053c-63.274,38.94-126.975,60.977-189.329,65.512a315.631,315.631,0,0,1-31.755.641c-102.333-2.718-209.932-58.153-274.121-141.222A314.629,314.629,0,0,1,947.9,345.22c-17.854-45.609-26.153-92.313-32.46-135.992-1.292-8.88-2.176-17.942-3.041-26.7-1.961-19.877-3.992-40.431-10.676-60.272-9.087-26.975-24.321-47.115-45.281-59.866-17.459-10.625-38.261-16.934-61.833-18.751a132.688,132.688,0,0,0-59.228,9.18c-51.836,20.781-90.313,70.537-121.231,110.5q-2.9,3.752-5.718,7.384c-7.555,9.72-14.774,19.9-21.758,29.755l-1.964,2.77c-12.6,17.756-25.13,36.142-37.25,53.921-8.382,12.3-17.053,25.011-25.763,37.558-2.406,3.467-4.87,7.043-7.255,10.5-19.35,28.073-39.356,57.1-65.2,81.815-42.421,40.565-91.724,32.134-131.318,25.357-4.372-.749-8.5-1.455-12.562-2.088-9.333-1.457-18.6-3.253-27.566-4.992-16.43-3.183-33.419-6.478-50.8-7.627-2.325-.155-4.77-.4-7.361-.661-13.645-1.375-30.626-3.082-44.929,7.8-29.044,22.1-45.622,59.037-60.246,91.629-1.449,3.232-2.819,6.284-4.206,9.333C81.23,569.591,62.19,637.242,43.763,702.656Z" transform="translate(18.413 18.201)"/>
        <path id="パス_4434" data-name="パス 4434" d="M40.273,701.907c18.882-63.018,40.281-134.445,71.767-200.584,1.382-2.9,2.744-5.788,4.183-8.847,15.583-33.072,33.246-70.537,62.719-93.771,13.314-10.5,28.633-10.17,42.149-9.878,2.723.059,5.3.114,7.751.075,17.03-.258,33.1,1.455,50.125,3.284,8.581.922,17.453,1.876,26.37,2.535,4.584.339,9.26.775,14.211,1.23,19.05,1.762,40.643,3.759,62.347.5,24.983-3.752,46.046-13.88,64.388-30.961C471.5,342,491.73,314.867,511.289,288.623c2.785-3.736,5.666-7.6,8.48-11.343,7.71-10.258,15.423-20.644,22.885-30.69,13.715-18.469,27.9-37.568,42.139-55.939l2.142-2.765c7.167-9.25,14.578-18.815,22.288-27.9q3.008-3.542,6.09-7.2c31.489-37.32,70.677-83.764,121.407-103.424a136.891,136.891,0,0,1,57.1-9.136l.416.023c23.254,1.45,43.516,7.328,60.184,17.466,20.239,12.307,34.214,32.2,41.537,59.143,5.506,20.262,6.175,41.067,6.821,61.187.289,9,.589,18.3,1.315,27.448,3.524,44.278,9.043,91.781,25.461,139.157a294.949,294.949,0,0,0,42.059,79.976c30.747,41.266,73.5,76.7,123.631,102.468a392.145,392.145,0,0,0,75.031,29.31,348.488,348.488,0,0,0,76.893,12.4c10.735.517,21.525.517,32.065.013a397.1,397.1,0,0,0,101.134-18.66,491.2,491.2,0,0,0,92.427-40.806,488.013,488.013,0,0,0,62.391-42.423c26.166-20.854,48.859-46.131,69.38-77.281,16.717-25.38,32.37-55.215,49.257-93.892l-.848-.369c-26.613,60.931-59.357,123.8-118.363,170.819a486.528,486.528,0,0,1-62.269,42.343c-64.042,36.261-129.029,56.228-193.151,59.349-10.511.5-21.27.493-31.979-.016-1.589-.07-3.183-.152-4.772-.258-103.814-6.124-209.385-62.114-270.093-143.581a294.068,294.068,0,0,1-41.927-79.725c-16.376-47.283-21.89-94.714-25.411-138.933-.724-9.123-1.034-18.415-1.313-27.4-.649-20.172-1.318-41.033-6.852-61.4-7.387-27.174-21.5-47.255-41.95-59.685-16.795-10.219-37.186-16.138-60.605-17.6l-.419-.026a137.832,137.832,0,0,0-57.487,9.2c-22.688,8.785-44.929,23.512-67.99,45.015-20.058,18.7-37.982,39.935-53.789,58.675q-3.085,3.656-6.087,7.2c-7.725,9.113-15.141,18.686-22.316,27.946l-2.142,2.762c-14.247,18.378-28.422,37.48-42.149,55.954-7.459,10.043-15.172,20.43-22.882,30.685-2.814,3.744-5.684,7.609-8.48,11.348-19.536,26.21-39.736,53.311-64.9,76.738-40.9,38.09-88.107,33.724-126.019,30.23-4.956-.457-9.635-.891-14.229-1.23-8.9-.656-17.766-1.61-26.339-2.532-16.3-1.752-33.145-3.563-50.231-3.292-2.439.041-5-.016-7.718-.072-12.994-.279-29.166-.628-42.743,10.077-29.641,23.37-47.353,60.949-62.977,94.1-1.442,3.057-2.8,5.943-4.183,8.844-31.522,66.2-52.929,137.664-71.829,200.713Z" transform="translate(16.57 16.428)"/>
        <path id="パス_4435" data-name="パス 4435" d="M35.824,700.878c23.559-74.335,45.619-141.023,77.1-204.421q1.953-3.935,3.938-7.966c16.65-33.762,35.522-72.031,65.711-96.693,12.661-10.353,27.256-11.268,40.126-12.074,2.827-.176,5.5-.344,8.059-.6,16.818-1.721,32.853-1.447,49.828-1.155,8.1.14,16.472.282,24.864.183,5.137-.059,10.384,0,15.939.057,18.3.194,39.033.416,59.724-3.894a127.969,127.969,0,0,0,61.494-31.093c24.437-22.128,44.746-47.283,64.385-71.6,3.284-4.069,6.682-8.268,10-12.343,6.271-7.692,12.578-15.477,18.676-23.009,15.746-19.438,32.026-39.532,48.366-58.776l2.225-2.62c7.387-8.7,15.027-17.707,22.939-26.241q3.085-3.328,6.24-6.751c33.848-36.69,72.224-78.25,122.213-96.931a143.108,143.108,0,0,1,56.244-9.113C817,36.91,836.842,42.4,852.875,52.152c19.737,11.994,32.587,31.817,38.24,58.957,4.33,20.818,3.669,41.95,3.026,62.388-.287,9.2-.586,18.714-.426,28.081.736,42.71,3.5,92.993,18.4,142.108a277.13,277.13,0,0,0,40.1,81.722c29.92,41.63,72.6,77.488,123.407,103.7a403.083,403.083,0,0,0,75.5,29.747,370.857,370.857,0,0,0,77.333,13.338c10.805.7,21.662.928,32.274.674a422.472,422.472,0,0,0,102.548-15.622,492.843,492.843,0,0,0,94.8-37.656,468.152,468.152,0,0,0,64.29-40.713c27.091-20.358,50.4-45.358,71.261-76.433,17.032-25.37,32.814-55.347,49.686-94.339l-.775-.336C1615.99,369.133,1583,432.255,1521.857,478.2a466.77,466.77,0,0,1-64.176,40.633c-64.711,33.641-130.982,51.534-196.972,53.185-10.594.258-21.422.026-32.2-.674-108.294-6.684-216.477-64.163-275.607-146.433a276.513,276.513,0,0,1-39.976-81.472c-14.872-49.012-17.629-99.217-18.363-141.87-.16-9.348.137-18.862.426-28.042.643-20.487,1.307-41.671-3.044-62.587A106.349,106.349,0,0,0,880.061,78.8a77.13,77.13,0,0,0-26.737-27.373C837.17,41.608,817.2,36.071,793.941,34.983a144.033,144.033,0,0,0-56.585,9.165C714.994,52.5,692.851,66.3,669.661,86.32c-20.215,17.453-38.617,37.39-54.848,54.978q-3.157,3.418-6.24,6.749c-7.924,8.55-15.57,17.57-22.965,26.269l-2.222,2.62c-16.348,19.247-32.631,39.351-48.379,58.791-6.1,7.532-12.4,15.317-18.676,23-3.318,4.069-6.718,8.268-10,12.348-19.619,24.288-39.9,49.423-64.292,71.506-39.356,35.636-82.547,35.176-120.663,34.767-5.56-.059-10.813-.116-15.957-.054-8.379.1-16.748-.047-24.84-.183-17-.292-33.072-.568-49.929,1.158-2.545.258-5.206.426-8.01.6-13,.814-27.729,1.739-40.612,12.263C151.7,415.91,132.78,454.263,116.091,488.1q-1.984,4.031-3.938,7.966C80.644,559.521,58.574,626.242,35,700.609Z" transform="translate(14.728 14.659)"/>
        <path id="パス_4436" data-name="パス 4436" d="M31.37,699.856C55.492,627.51,79.945,557.164,113.793,491.6q1.679-3.253,3.377-6.558c17.807-34.623,37.982-73.873,69.021-100.142,12.056-10.208,25.926-12.322,38.162-14.188,2.907-.442,5.651-.86,8.3-1.372,16.733-3.23,32.853-4.478,49.919-5.8,7.493-.581,15.244-1.181,22.978-1.961,5.728-.579,11.586-1.015,17.787-1.478,18.371-1.369,37.364-2.785,57.027-8.067a142.721,142.721,0,0,0,58.59-31.083c23.512-20.67,43.756-43.764,63.326-66.1,3.927-4.483,7.989-9.118,11.955-13.591q6.284-7.087,12.516-14.138c19.257-21.774,37.447-42.34,56.546-62.8l2.189-2.346c7.648-8.2,15.557-16.678,23.706-24.7q3-2.958,6.069-5.987c34.667-34.217,73.948-73,123.363-90.748a150.835,150.835,0,0,1,54.97-9.113c22.921.705,42.374,5.811,57.779,15.177,19.19,11.653,30.936,31.427,34.909,58.773,3.1,21.4,1.134,42.875-.775,63.649-.863,9.384-1.754,19.089-2.165,28.659-1.855,43.291-1.959,94.378,11.34,145.043A262.764,262.764,0,0,0,932.816,426.2a306.389,306.389,0,0,0,54.849,59.647A371.968,371.968,0,0,0,1056,531.135a414.05,414.05,0,0,0,75.963,30.163,395.622,395.622,0,0,0,77.772,14.273c10.867.891,21.8,1.338,32.483,1.333a449.789,449.789,0,0,0,103.958-12.586,495.2,495.2,0,0,0,97.168-34.506,452.15,452.15,0,0,0,66.191-38.989c28.016-19.856,51.934-44.581,73.144-75.581,17.34-25.352,33.264-55.474,50.125-94.791l-.713-.307c-26.494,61.822-59.732,125.21-122.988,170.046a451.548,451.548,0,0,1-66.075,38.925c-64.37,30.644-133.8,46.9-200.793,47.025-10.666,0-21.575-.442-32.421-1.331-111.206-8.785-219.678-67.3-276.348-149.043a262.039,262.039,0,0,1-38.023-83.218c-13.275-50.567-13.177-101.581-11.317-144.813.411-9.56,1.292-19.247,2.163-28.623,1.912-20.818,3.891-42.343.775-63.819-1.773-12.2-5.09-23-9.855-32.07a68.771,68.771,0,0,0-25.419-27.254c-15.534-9.439-35.1-14.583-58.158-15.291a151.258,151.258,0,0,0-55.273,9.152c-22.107,7.935-44.216,20.849-67.581,39.475-20.427,16.278-38.534,34.155-56.045,51.443q-3.062,3.023-6.069,5.984c-8.16,8.03-16.074,16.516-23.727,24.719l-2.188,2.349c-19.107,20.469-37.3,41.041-56.562,62.817q-6.237,7.051-12.513,14.138c-3.969,4.475-8.03,9.11-11.96,13.593-19.551,22.314-39.77,45.387-63.254,66.026-37.762,33.184-78.88,36.253-115.162,38.958-6.2.462-12.069.9-17.807,1.48-7.731.775-15.472,1.377-22.962,1.959-17.087,1.323-33.227,2.571-50,5.811-2.633.517-5.372.925-8.268,1.367-12.34,1.878-26.324,4.01-38.547,14.361C154.562,410.663,134.339,450,116.5,484.689q-1.7,3.3-3.374,6.555c-33.879,65.613-58.347,136-82.482,208.367Z" transform="translate(12.892 12.88)"/>
        <path id="パス_4437" data-name="パス 4437" d="M26.937,698.848c24.515-70.15,51.484-144.309,87.768-212.092l2.338-4.374c19.1-35.736,40.749-76.237,72.8-104.364,11.477-10.077,24.652-13.343,36.276-16.229,2.953-.734,5.744-1.426,8.457-2.212,16.831-4.858,33.217-7.751,50.567-10.808,6.7-1.181,13.632-2.4,20.536-3.741,6.392-1.238,12.919-2.307,19.843-3.439,34.481-5.64,73.563-12.035,109.811-42.891,22.407-19.076,42.34-39.994,61.618-60.223,4.785-5.02,9.73-10.209,14.562-15.208l3.346-3.462c23.047-23.856,44.849-46.41,67.711-68.63l1.969-1.915c7.968-7.751,16.211-15.761,24.657-23.311q2.685-2.4,5.408-4.845C650.2,89.2,690.537,53.05,739.585,36.167c18.26-6.284,36.325-9.351,53.7-9.113,22.719.313,41.754,5.036,56.585,14.035,18.663,11.325,29.292,31.039,31.6,58.595,1.837,21.983-1.429,43.829-4.589,64.956-1.429,9.56-2.907,19.435-3.891,29.2-2.842,28.248-4.064,51.443-3.827,72.994.3,27.388,2.951,51.9,8.108,74.987a251.005,251.005,0,0,0,36.173,85.208,295.012,295.012,0,0,0,54.435,60.489,366.847,366.847,0,0,0,68.517,45.679,425.711,425.711,0,0,0,76.441,30.587,423.853,423.853,0,0,0,78.211,15.206c10.934,1.08,21.934,1.749,32.7,1.99a480.011,480.011,0,0,0,105.371-9.547,498.4,498.4,0,0,0,99.53-31.359,438.373,438.373,0,0,0,68.088-37.274c28.938-19.35,53.484-43.793,75.031-74.726,17.642-25.321,33.7-55.593,50.541-95.246l-.651-.269c-26.453,62.29-59.944,125.957-125.313,169.661a437.837,437.837,0,0,1-67.979,37.207c-64.853,28.2-135.607,42.32-204.615,40.847-10.743-.24-21.727-.909-32.643-1.99-90.773-8.738-211.232-53.167-277.09-151.65a249.848,249.848,0,0,1-36.072-84.97c-11.627-52.076-8.687-103.915-4.268-147.756.982-9.738,2.46-19.611,3.876-29.155,3.168-21.169,6.439-43.056,4.594-65.111-1.034-12.4-3.617-22.872-7.85-32.008A61.343,61.343,0,0,0,850.2,40.5c-14.932-9.066-34.088-13.823-56.931-14.136-17.451-.24-35.6,2.842-53.936,9.152-49.164,16.921-89.557,53.13-125.2,85.071q-2.721,2.442-5.408,4.845c-8.457,7.563-16.7,15.58-24.678,23.332l-1.969,1.912c-22.879,22.221-44.674,44.78-67.749,68.651l-3.359,3.462c-4.834,5-9.782,10.193-14.565,15.213-19.265,20.215-39.188,41.118-61.566,60.171-36.085,30.721-75.067,37.1-109.457,42.723-6.922,1.132-13.461,2.2-19.864,3.444-6.9,1.336-13.823,2.558-20.523,3.739-17.368,3.062-33.775,5.956-50.642,10.826-2.7.775-5.485,1.47-8.433,2.2-11.7,2.907-24.962,6.2-36.568,16.384-32.15,28.21-53.831,68.773-72.958,104.561l-2.341,4.374c-16.423,30.682-32.075,64.688-47.846,103.961-14.5,36.1-27.776,73.354-39.963,108.229Z" transform="translate(11.045 11.087)"/>
        <path id="パス_4438" data-name="パス 4438" d="M22.474,697.851c25.838-70.837,54.314-145.86,93.1-215.932l.558-1.008c20.6-37.206,43.948-79.4,77.327-109.767,10.94-9.948,23.45-14.345,34.491-18.226,2.964-1.034,5.762-2.026,8.508-3.1,17.205-6.7,34.145-11.444,52.076-16.456,5.63-1.576,11.451-3.2,17.231-4.886,7.173-2.085,14.5-3.966,22.262-5.943,32.457-8.328,69.245-17.763,103.625-46.056,20.962-17.252,40.227-35.8,58.861-53.743,5.984-5.759,12.172-11.717,18.221-17.438,23.078-21.828,47.733-45,73.1-67.256l1.5-1.31c8.371-7.348,17.03-14.947,25.861-22.1l3.964-3.209c36.744-29.773,78.387-63.52,127.38-79.617,18.2-5.981,35.84-9.043,52.425-9.113,22.494-.09,41.126,4.248,55.376,12.893,18.391,11.154,27.646,30.264,28.287,58.419.517,22.572-4.033,44.808-8.428,66.313-1.984,9.71-4.038,19.748-5.594,29.672-6.565,41.919-12.816,96.956-2.775,150.916a249.838,249.838,0,0,0,12.294,43.777,235.112,235.112,0,0,0,21.931,43.167,284.9,284.9,0,0,0,54.022,61.331,361.457,361.457,0,0,0,68.7,46.071,437.894,437.894,0,0,0,76.909,31.005,455.132,455.132,0,0,0,78.64,16.141c10.991,1.269,22.063,2.16,32.907,2.648,71.191,3.137,143.356-8.87,208.692-34.721a426.705,426.705,0,0,0,69.987-35.555c29.863-18.836,55.021-43,76.911-73.865,17.939-25.3,34.134-55.709,50.965-95.7l-.579-.243c-26.414,62.77-60.158,126.724-127.639,169.279a425.945,425.945,0,0,1-69.881,35.506,509.7,509.7,0,0,1-208.436,34.674c-10.826-.488-21.882-1.377-32.86-2.646-93.016-10.539-214.839-56.6-277.832-154.252a240.152,240.152,0,0,1-34.116-86.732c-10.023-53.867-3.78-108.834,2.78-150.707,1.55-9.909,3.6-19.939,5.586-29.641,4.392-21.538,8.955-43.811,8.441-66.452-.284-12.451-2.2-22.9-5.863-31.946a54.8,54.8,0,0,0-22.737-27c-14.35-8.707-33.093-13.074-55.7-12.984-16.652.067-34.364,3.144-52.619,9.144-49.092,16.133-90.794,49.919-127.579,79.725l-3.961,3.212c-8.842,7.157-17.505,14.759-25.882,22.109l-1.5,1.313c-25.373,22.262-50.032,45.438-73.121,67.269-6.051,5.726-12.239,11.681-18.226,17.443-18.621,17.929-37.881,36.47-58.825,53.7-34.271,28.2-70.987,37.622-103.38,45.932-7.767,1.992-15.1,3.876-22.283,5.963-5.777,1.679-11.6,3.307-17.226,4.883-17.947,5.018-34.9,9.759-52.136,16.477-2.734,1.065-5.529,2.046-8.488,3.1-11.095,3.9-23.67,8.32-34.7,18.345-14.958,13.6-29.153,30.662-43.408,52.146-12.529,18.924-23.461,38.677-34.028,57.771l-.558,1.01c-38.814,70.116-67.3,145.165-93.145,216.027Z" transform="translate(9.208 9.283)"/>
        <path id="パス_4439" data-name="パス 4439" d="M18.032,696.87c25.951-68.38,57.1-147.394,98.442-219.769,20.262-35.509,45.487-79.673,80.622-112.816,10.454-9.862,21.841-15.131,32.853-20.226,2.917-1.349,5.684-2.625,8.4-3.979,18.061-8.966,36.033-15.926,55.063-23.293,4.072-1.576,8.284-3.206,12.451-4.842,8.175-3.206,16.518-6.155,25.349-9.278,15.521-5.488,31.569-11.162,47.867-18.7a238.77,238.77,0,0,0,48.924-29.729c18.924-15.014,36.871-30.835,54.223-46.133,7.8-6.875,15.867-13.986,23.771-20.787,20.35-17.531,47.283-40.467,75.118-62.411l.6-.478c8.911-7.025,18.13-14.288,27.484-21.109l1.217-.889c38.276-27.9,81.648-59.548,131.088-74.984,18.221-5.684,35.429-8.754,51.146-9.113,22.254-.517,40.483,3.449,54.174,11.751,17.867,10.826,26.037,29.881,24.98,58.251-.863,23.156-6.677,45.81-12.3,67.718-2.527,9.849-5.142,20.032-7.263,30.1-8.953,42.524-18.164,98.442-9.836,153.851a241.909,241.909,0,0,0,11.077,44.723A226.42,226.42,0,0,0,874.665,428.7a275.529,275.529,0,0,0,53.611,62.171,357.585,357.585,0,0,0,68.886,46.461,449.773,449.773,0,0,0,77.379,31.424,490.183,490.183,0,0,0,79.092,17.071c11.058,1.462,22.2,2.584,33.119,3.307,1.362.09,2.731.178,4.093.258,71.987,4.248,143.945-5.684,208.385-28.794a417,417,0,0,0,71.884-33.848c30.786-18.319,56.561-42.2,78.805-73,18.234-25.267,34.563-55.81,51.389-96.163l-.517-.212c-26.383,63.261-60.388,127.507-129.964,168.9a416.241,416.241,0,0,1-71.785,33.793c-65.587,23.512-138.979,33.377-212.255,28.507-10.906-.734-22.037-1.845-33.072-3.3C1030.386,569.232,926.25,510.58,875.124,428.416a231.257,231.257,0,0,1-32.173-88.476c-8.315-55.321.886-111.175,9.831-153.652,2.119-10.061,4.731-20.239,7.255-30.083,5.63-21.936,11.451-44.619,12.317-67.835,1.065-28.59-7.193-47.8-25.246-58.745C833.324,21.266,815,17.287,792.635,17.793c-15.761.359-33.028,3.434-51.3,9.139C691.818,42.393,648.4,74.058,610.08,102l-1.217.886c-9.364,6.829-18.585,14.1-27.5,21.125l-.6.475c-27.848,21.962-54.776,44.893-75.136,62.429-7.893,6.8-15.963,13.914-23.771,20.789-17.35,15.293-35.292,31.109-54.2,46.118-32.215,25.564-66.437,37.664-96.633,48.337-8.839,3.124-17.185,6.074-25.37,9.286-4.165,1.636-8.377,3.263-12.446,4.839-19.042,7.372-37.028,14.335-55.109,23.313-2.723,1.351-5.475,2.625-8.39,3.974-11.051,5.113-22.479,10.4-33,20.324-15.3,14.436-29.943,32.039-44.759,53.856-12.919,19.009-24.388,38.793-35.974,59.081-41.341,72.408-72.509,151.446-98.47,219.846Z" transform="translate(7.361 7.468)"/>
        <path id="パス_4440" data-name="パス 4440" d="M13.579,695.9c33.718-85.629,64.269-156.425,103.77-223.6,23.3-39.625,48.926-81.131,83.371-114.841,10.064-9.849,20.952-16.2,31.483-22.339,2.775-1.617,5.4-3.147,8.025-4.749,19.82-12.082,39.79-22.019,60.923-32.538l4.8-2.387c9.622-4.8,19.433-9.255,29.819-13.976,28.938-13.154,58.882-26.758,88.585-49.425,15.244-11.627,30.15-23.665,44.56-35.3,11.26-9.085,22.9-18.482,34.326-27.373,27.422-21.507,52.652-40.338,77.139-57.569,10.593-7.452,19.433-13.64,28.82-19.769,36.819-24.045,82.642-53.97,133.261-68.912,18.629-5.493,34.938-8.48,49.867-9.11,22.308-.946,39.638,2.524,52.968,10.606,17.342,10.5,24.432,29.5,21.673,58.089-2.292,23.729-9.369,46.834-16.213,69.178-3.054,9.971-6.214,20.28-8.893,30.489-7.715,29.38-12.692,53.913-15.658,77.2-3.687,28.938-4.09,54.965-1.232,79.58a235.209,235.209,0,0,0,9.868,45.663,218.758,218.758,0,0,0,20.412,44.759,267.39,267.39,0,0,0,53.2,63.013,353.215,353.215,0,0,0,69.07,46.849c46.291,24.288,100.713,41.519,157.383,49.849,11.123,1.651,22.337,2.987,33.331,3.966q8.842.775,17.668,1.292c69.5,4.1,137.819-4,198.595-23.657a408.539,408.539,0,0,0,73.777-32.124c31.711-17.795,58.1-41.387,80.676-72.131,18.531-25.231,34.995-55.931,51.812-96.633l-.442-.183c-26.355,63.76-60.626,128.308-132.29,168.517a408,408,0,0,1-73.689,32.088c-65.832,21.324-140.55,29.034-216.048,22.357-10.984-.979-22.187-2.312-33.3-3.964-126.089-18.531-230.5-78.152-279.307-159.481-16.244-27.055-26.411-57.412-30.23-90.231-6.586-56.758,5.56-113.508,16.88-156.606,2.677-10.193,5.834-20.5,8.886-30.465,6.852-22.365,13.937-45.493,16.231-69.271,1.217-12.588.589-23.009-1.917-31.855-3.315-11.686-10.035-20.67-19.983-26.69C832.111,16.076,814.7,12.583,792.3,13.534c-14.97.636-31.318,3.617-49.981,9.134C691.633,37.63,645.776,67.576,608.931,91.636c-9.395,6.136-18.244,12.325-28.835,19.779C555.6,128.652,530.366,147.487,502.939,169c-11.428,8.893-23.071,18.291-34.331,27.388-14.41,11.627-29.31,23.655-44.552,35.287C394.4,254.311,364.49,267.9,335.565,281.046c-10.389,4.723-20.205,9.183-29.835,13.981l-4.8,2.387c-21.146,10.526-41.118,20.466-60.959,32.556-2.623,1.6-5.242,3.129-8.01,4.746-10.555,6.155-21.469,12.518-31.576,22.412-34.486,33.752-60.135,75.289-83.456,114.94C97.795,504.623,79.468,540.38,60.865,581.41c-18.443,40.715-35.2,82.485-47.738,114.327Z" transform="translate(5.523 5.63)"/>
        <path id="パス_4441" data-name="パス 4441" d="M9.129,694.946c30.23-74.2,64.378-153.112,109.1-227.443,24.151-39.79,51.3-81.5,86.112-116.87,9.87-10.028,20.464-17.59,30.708-24.905,2.325-1.656,4.721-3.359,7.046-5.067,21.252-15.5,43.232-29.111,63.923-41.72,12.19-7.428,24.626-14.366,37.793-21.7,25.063-13.983,50.991-28.442,76.883-47.387,9.2-6.718,18.43-13.58,27.357-20.2,17.177-12.743,34.938-25.923,52.433-38.217,26.817-18.952,53.448-36.69,79.157-52.727,8.883-5.54,19.223-11.95,29.553-17.95C650.437,56.809,694.769,32.3,743.414,18.8c13.131-3.643,30.52-7.971,48.575-9.113,22.027-1.39,38.963,1.708,51.782,9.464,22.412,13.562,21.215,39.558,18.363,57.928-3.77,24.288-12.11,47.888-20.177,70.7-3.563,10.077-7.235,20.495-10.472,30.8-9.18,29.37-15.593,55.089-19.6,78.6-5.01,29.455-6.431,55.988-4.341,81.113a229.9,229.9,0,0,0,8.661,46.6,211.921,211.921,0,0,0,19.663,45.555c13.42,23.187,31.181,44.668,52.787,63.85,19.807,17.585,43.108,33.478,69.245,47.239,45.653,24.029,100.39,41.731,158.3,51.2,11.185,1.842,22.479,3.4,33.54,4.622q16.676,1.842,33.225,2.816c66.145,3.9,130.145-2.553,186.826-18.988a401.691,401.691,0,0,0,75.671-30.406c32.63-17.267,59.636-40.565,82.557-71.261,18.823-25.194,35.418-56.045,52.236-97.086l-.377-.155c-26.331,64.269-60.864,129.122-134.615,168.142a401.342,401.342,0,0,1-75.6,30.375c-66.073,19.159-142.108,24.745-219.88,16.159-11.064-1.225-22.342-2.78-33.522-4.62-61.85-10.118-212.947-46.164-280.051-162.1-15.976-27.59-25.489-58.538-28.272-91.983C803.1,280.1,818.191,222.442,831.875,178.715c3.224-10.3,6.906-20.714,10.467-30.788,8.074-22.83,16.42-46.438,20.2-70.772,1.966-12.684,1.979-23.091.036-31.824-2.607-11.7-8.862-20.624-18.6-26.512-12.89-7.8-29.9-10.916-52.017-9.521-18.084,1.14-35.491,5.462-48.65,9.111C694.615,31.917,650.256,56.44,608.993,80.4c-10.335,6-20.67,12.415-29.564,17.957-25.714,16.038-52.353,33.775-79.175,52.74-17.5,12.3-35.263,25.476-52.451,38.222-8.927,6.622-18.156,13.469-27.354,20.2-25.871,18.931-51.782,33.382-76.839,47.361-13.177,7.346-25.61,14.283-37.808,21.7-20.7,12.614-42.687,26.225-63.949,41.738-2.325,1.7-4.726,3.408-7.046,5.067-10.258,7.322-20.867,14.9-30.747,24.946-34.842,35.4-62.011,77.131-86.169,116.947-44.746,74.379-78.9,153.293-109.136,227.51Z" transform="translate(3.684 3.775)"/>
        <path id="パス_4442" data-name="パス 4442" d="M4.681,694.023c30.1-71.553,67.233-154.986,114.436-231.277,30.918-49.761,59.153-87.541,88.841-118.9,10.395-10.976,21.469-20.435,32.176-29.584q1.915-1.63,3.819-3.266c17.8-15.244,37.54-30.669,62.127-48.513,19.1-13.862,38.728-26.719,59.507-40.333,16.774-10.986,34.119-22.35,51.446-34.462,23.673-16.549,51.774-35.927,80.7-54.169,26.755-16.932,54.068-33.044,81.177-47.888,8.2-4.493,19.063-10.387,30.284-16.131,39.245-20.086,85.993-42.328,135.171-54.988,14.131-3.679,30.6-7.718,47.3-9.11,21.678-1.876,38.224.845,50.583,8.32,21.732,13.141,19,39.273,15.058,57.773-5.3,24.856-14.908,48.976-24.2,72.3-4.049,10.157-8.235,20.657-11.989,31.039-10.79,29.845-18.5,56.014-23.58,80-6.351,30-8.785,57.034-7.423,82.647a224.38,224.38,0,0,0,7.439,47.542,206.3,206.3,0,0,0,18.924,46.35c25.213,45.167,66.2,82.957,121.81,112.317a488.927,488.927,0,0,0,78.785,32.687,630.721,630.721,0,0,0,80.425,19.869c11.245,2.031,22.6,3.806,33.757,5.281a674,674,0,0,0,112.449,5.62c39.369-1.444,76.847-6.695,111.387-15.611a394.3,394.3,0,0,0,77.565-28.693c33.556-16.691,61.182-39.708,84.451-70.356,19.086-25.138,35.814-56.143,52.642-97.579l-.307-.124c-26.342,64.853-61.163,130.068-136.94,167.762a393.741,393.741,0,0,1-77.513,28.667c-52.192,13.472-111.276,18.474-173.16,14.823q-25.013-1.478-50.549-4.839c-11.146-1.473-22.5-3.248-33.739-5.279-78.407-14.115-219.151-54.288-280.79-164.708-15.761-28.207-24.605-59.747-26.318-93.745-3.144-59.393,14.906-118.048,30.982-162.52,3.752-10.376,7.937-20.874,11.984-31.029,9.3-23.337,18.921-47.469,24.223-72.346,3.964-18.6,6.7-44.878-15.211-58.135-12.423-7.511-29.034-10.25-50.784-8.366-16.694,1.4-33.186,5.447-47.33,9.123-49.211,12.661-95.98,34.92-135.24,55.016-11.227,5.746-22.086,11.627-30.292,16.133-27.114,14.849-54.433,30.964-81.2,47.9-28.938,18.247-57.032,37.628-80.71,54.177-17.311,12.113-34.664,23.471-51.435,34.46C344.64,235.487,325,248.347,305.883,262.214c-24.592,17.849-44.34,33.271-62.148,48.531q-1.9,1.633-3.816,3.263c-10.715,9.154-21.794,18.621-32.2,29.61C178,374.994,149.755,412.792,118.835,462.573,97.868,496.46,77.753,533.408,57.341,575.529c-16.3,33.618-33.127,71.23-52.955,118.368Z" transform="translate(1.846 1.89)"/>
        <path id="パス_4443" data-name="パス 4443" d="M.238,693.107c61.515-141.937,121-256.8,211.353-356.045,96.171-105.61,219.513-194.6,366.608-264.5,64.595-30.693,117.7-50.5,167.14-62.334l3.824-.922c13.454-3.245,30.2-7.286,46.6-8.6,19.247-1.55,33.961.938,44.981,7.594C861.562,20.874,857.96,45.7,852.5,65.915c-6.868,25.417-17.776,50.125-28.323,74.012-4.5,10.2-9.162,20.75-13.415,31.163-20.725,50.72-32.3,92.091-36.431,130.2a251.881,251.881,0,0,0,1.119,66.45A202.679,202.679,0,0,0,797.1,432.287c55.786,103.635,183.986,148.265,281.7,167.455,60.354,11.852,118.528,16.536,172.9,13.906,63.362-3.059,119.937-16.1,168.15-38.757,34.468-16.2,62.7-38.935,86.314-69.5,19.4-25.12,36.266-56.264,53.076-98.021l-.238-.1c-26.3,65.305-61.367,130.783-139.266,167.39-75.684,35.566-160.466,42.86-236.018,38.4a788.985,788.985,0,0,1-104.873-13.575c-97.667-19.179-225.789-63.778-281.529-167.323C750.48,345.147,780.01,246.986,810.99,171.2c4.253-10.407,8.911-20.954,13.412-31.153,10.552-23.9,21.463-48.616,28.336-74.051,2.232-8.253,5.067-20.531,3.933-31.806-1.181-11.715-6.485-20.5-15.792-26.117C829.81,1.39,815.041-1.106,795.743.444c-16.425,1.32-33.178,5.364-46.64,8.612l-3.824.92a678.981,678.981,0,0,0-85.2,26.825c-25.063,9.6-51.9,21.226-82,35.53-70.346,33.429-136.369,71.982-196.236,114.593C317.945,232.4,260.6,282.867,211.4,336.892c-43.8,48.1-83.2,103.408-120.479,169.077C53.939,571.135,22.905,640.155,0,693Z" transform="translate(0 0)"/>
        <path id="パス_4444" data-name="パス 4444" d="M18.3,479.307c4.974-8.206,10.053-16.627,14.963-24.768C96.819,349.149,162.535,240.167,261.881,167.7c88.394-64.476,194.678-78.449,291.6-38.33,81.756,33.837,156.557,100.581,222.365,198.385,12.4,18.433,24.014,37.775,35.238,56.479,7.826,13.038,15.916,26.517,24.21,39.581l1.853,2.927c10.436,16.536,23.425,37.093,42.873,43.56a40.026,40.026,0,0,0,10.32,1.951c17.787,1.052,35.816-8.785,48.446-15.676,21.913-11.955,43.188-25.936,63.763-39.457,9.924-6.524,20.187-13.268,30.378-19.688,76.563-48.247,168.641-100.543,271.07-122.6,55.179-11.885,151.291-20.944,175,51.864,10.777,33.1,3.729,70.132-4.589,102-10.594,40.622-26.7,80.263-42.268,118.6q-2.116,5.211-4.227,10.42l.24.1q2.108-5.2,4.224-10.418c15.573-38.341,31.672-77.989,42.281-118.629,8.325-31.9,15.384-68.987,4.584-102.142-23.771-73-120.032-63.936-175.3-52.035-45.167,9.725-91.207,25.895-140.764,49.433-39.424,18.727-80.854,41.981-130.391,73.191-10.19,6.423-20.456,13.177-30.38,19.691-20.57,13.518-41.839,27.5-63.744,39.449-15.048,8.209-37.785,20.613-58.561,13.694-19.358-6.439-32.321-26.962-42.736-43.454l-1.853-2.927c-8.291-13.058-16.381-26.538-24.2-39.573-11.227-18.709-22.838-38.054-35.245-56.492-30.39-45.162-63.013-84.1-96.962-115.738a470.1,470.1,0,0,0-59.016-46.989,386.447,386.447,0,0,0-66.5-35.744,296.754,296.754,0,0,0-75.47-20.262,285.052,285.052,0,0,0-75.413.359,297.767,297.767,0,0,0-72.932,19.9,329.237,329.237,0,0,0-68.041,38.38,514.239,514.239,0,0,0-68.814,60.747,740.014,740.014,0,0,0-59.207,70.78C96.819,348.647,64.4,402.411,33.046,454.4c-4.909,8.144-9.989,16.565-14.965,24.768Z" transform="translate(7.607 44.824)"/>
        <path id="パス_4445" data-name="パス 4445" d="M18.368,470.684c4.705-7.922,9.506-16.043,14.149-23.9C65.17,391.542,98.938,334.4,138.007,282.248c37.723-50.36,75.483-89.4,115.4-119.335,23.533-17.668,47.5-31.042,71.25-39.744A270.508,270.508,0,0,1,411.245,107c42.568-1.034,84.795,7.7,125.5,25.941,78.6,35.23,149.573,99.871,216.976,197.618,11.335,16.423,22.107,33.514,32.525,50.043,8.94,14.185,18.185,28.853,27.706,42.971l1.964,2.912c10.593,15.761,23.771,35.356,42.986,41.6,19.838,6.459,41.036-4.111,58.068-12.606,27.584-13.759,54.453-30.564,80.438-46.816,6.167-3.858,12.547-7.847,18.838-11.736,24.029-14.849,49.911-30.657,76.374-45.668,53.88-30.579,125.717-68.036,203.625-86.394,26.406-6.222,65.3-12.513,100.654-7.152,39.682,6.018,65.868,25.225,77.831,57.1,12.157,32.383,7.235,69.571.8,101.68-7.519,37.558-20.275,75-32.613,111.209-2.155,6.32-4.392,12.857-6.552,19.306l.292.1c2.17-6.459,4.393-12.986,6.55-19.306,12.34-36.217,25.1-73.669,32.623-111.247,6.436-32.15,11.369-69.393-.811-101.848-12-31.977-38.273-51.252-78.074-57.288-35.4-5.366-74.336.93-100.767,7.16-33.607,7.917-67.822,19.637-104.6,35.824-30.251,13.314-61.752,29.4-99.109,50.6-26.466,15.012-52.353,30.824-76.382,45.673-6.292,3.889-12.661,7.878-18.841,11.738-25.98,16.247-52.841,33.047-80.412,46.8C899.856,463.684,878.72,474.226,859,467.8c-19.107-6.2-32.259-25.765-42.829-41.477q-.992-1.475-1.961-2.912c-9.521-14.115-18.763-28.781-27.7-42.963-10.418-16.536-21.187-33.625-32.532-50.056-30.677-44.488-62.807-82.823-95.5-113.945a492.29,492.29,0,0,0-57.331-47.139,395.932,395.932,0,0,0-64.266-36.648c-40.754-18.252-83.025-26.99-125.639-25.967a270.824,270.824,0,0,0-86.686,16.19c-23.771,8.715-47.769,22.1-71.312,39.79a494.423,494.423,0,0,0-61.863,55.453,701.97,701.97,0,0,0-53.613,63.933c-39.08,52.169-72.85,109.309-105.509,164.566-4.651,7.855-9.444,15.978-14.149,23.9Z" transform="translate(7.617 44.858)"/>
        <path id="パス_4446" data-name="パス 4446" d="M18.432,462.2c4.436-7.63,8.961-15.451,13.337-23.014,31.571-54.557,64.21-110.971,101.951-162.626,37.134-50.789,72.472-88.389,111.209-118.293,23.727-18.345,47.242-31.566,69.894-39.273,25.75-8.767,53.34-12.769,84.34-12.237,40.679.7,81.34,10.756,120.849,29.9C594.153,172.617,663.362,237.01,731.59,333.512c10.131,14.3,19.9,29.07,29.339,43.353,10.2,15.433,20.753,31.388,31.68,46.617l2.046,2.842c10.756,14.986,24.143,33.661,43.128,39.684a42.023,42.023,0,0,0,10.351,1.9c15.619.922,31.341-6.242,45.518-12.7l1.5-.685c35.656-16.218,70.367-37.289,103.943-57.67l.473-.287q6.8-4.134,13.606-8.268c21.492-13.071,43.717-26.587,65.736-39.315,75.041-43.428,139.4-76.023,209.586-93.941,26.1-6.661,64.716-13.573,100.587-8.674,40.333,5.509,67.716,24.582,81.389,56.691,13.534,31.781,10.72,69.077,6.185,101.359-5.012,35.679-14.689,70.359-24.933,107.074-2.274,8.152-4.625,16.58-6.9,24.944l.341.093c2.274-8.364,4.628-16.795,6.9-24.941,10.247-36.728,19.926-71.418,24.941-107.118,4.542-32.331,7.356-69.679-6.2-101.543-13.722-32.233-41.2-51.376-81.665-56.9-35.915-4.909-74.6,2.013-100.721,8.681-34.124,8.71-69.338,21.67-107.653,39.615-37.591,17.606-74.271,38.3-102.023,54.363-22.024,12.73-44.25,26.246-65.742,39.317q-6.813,4.134-13.606,8.268l-.475.287c-33.566,20.373-68.276,41.439-103.9,57.649l-1.5.682c-17.26,7.868-36.821,16.795-55.616,10.79-18.862-5.987-32.22-24.6-42.945-39.553q-1.034-1.442-2.046-2.842c-10.924-15.224-21.471-31.176-31.672-46.6-9.446-14.286-19.213-29.06-29.347-43.364-31.491-44.539-62.251-81.221-94.05-112.136a521.515,521.515,0,0,0-55.652-47.283,407.215,407.215,0,0,0-62.026-37.548c-39.555-19.166-80.263-29.238-121-29.936-31.042-.517-58.67,3.478-84.461,12.257-22.686,7.72-46.25,20.954-69.995,39.33a479.072,479.072,0,0,0-59.7,55.109,705.957,705.957,0,0,0-51.567,63.241C95.7,328.024,63.049,384.441,31.473,439.005c-4.377,7.563-8.9,15.384-13.337,23.014Z" transform="translate(7.63 44.754)"/>
        <path id="パス_4447" data-name="パス 4447" d="M18.5,453.9c4.175-7.343,8.431-14.865,12.547-22.138C61.537,377.9,93.059,322.212,129.441,271.053c36-50.554,70.02-87.812,107.02-117.255C260.586,134.554,283,121.86,305,114.992c24.14-7.539,49.815-10.214,80.691-8.392l1.4.085c38.914,2.455,78.01,13.844,116.2,33.848,70.429,36.974,135.946,99.287,206.186,196.109,8.769,12.059,17.335,24.424,25.618,36.385,11.627,16.795,23.652,34.15,36.189,50.544l2.093,2.726c11.493,15.007,24.52,32.016,43.3,37.824a42.977,42.977,0,0,0,10.276,1.847c14.921.881,30.013-5.4,43.63-11.066q1.393-.581,2.762-1.147c38.5-15.926,75.405-36.982,109.552-57.36,11.588-6.917,23.375-14.061,34.775-20.97,15.588-9.449,31.706-19.221,47.542-28.533,73.589-43.356,140.6-80.919,215.547-101.488,25.8-7.08,64.173-14.593,100.483-10.172,40.968,4.987,69.558,23.918,84.973,56.272,14.932,31.326,14.231,68.659,11.573,101.047-2.842,34.543-10.366,68.824-18.345,105.119-2.036,9.263-4.134,18.838-6.157,28.4l.4.085c2.015-9.56,4.121-19.136,6.157-28.4,7.981-36.31,15.521-70.6,18.345-105.173,2.656-32.442,3.359-69.84-11.612-101.248-15.477-32.486-44.183-51.5-85.288-56.5-36.375-4.429-74.806,3.1-100.638,10.185-34.687,9.519-70.9,23.724-110.71,43.426-36.431,18.037-71.829,38.591-104.938,58.1-15.831,9.3-31.951,19.086-47.542,28.535-11.4,6.909-23.187,14.053-34.773,20.967-34.139,20.376-71.033,41.421-109.506,57.337l-2.762,1.147c-16.691,6.948-35.61,14.823-53.629,9.209-18.66-5.772-31.646-22.737-43.1-37.684l-2.093-2.726c-12.529-16.386-24.546-33.744-36.173-50.531-8.284-11.96-16.851-24.329-25.623-36.387-32.01-44.121-62.292-80.214-92.574-110.327a556.306,556.306,0,0,0-53.97-47.433A421.174,421.174,0,0,0,503.456,140.2c-38.24-20.037-77.384-31.445-116.355-33.9l-1.4-.085c-30.928-1.824-56.647.855-80.834,8.408-22.042,6.886-44.5,19.6-68.667,38.878-37.041,29.455-71.072,66.749-107.1,117.337C92.7,322,61.175,377.709,30.689,431.578c-4.108,7.26-8.353,14.782-12.539,22.117Z" transform="translate(7.636 44.458)"/>
        <path id="パス_4448" data-name="パス 4448" d="M18.571,445.823c3.914-7.051,7.9-14.27,11.764-21.252,29.391-53.166,59.781-108.144,94.825-158.8C160.025,215.466,192.7,178.518,228,149.559c24.029-19.789,45.991-32.331,67.178-38.338,23.337-6.62,47.96-7.968,79.839-4.372,37.144,4.188,74.671,16.908,111.542,37.811,84.929,48.25,151.926,129.745,200.8,195.349,7.235,9.661,14.35,19.521,21.246,29.057,13.237,18.3,26.926,37.232,41.341,54.828.615.749,1.235,1.511,1.863,2.279,11.73,14.366,25.027,30.649,43.754,36.292a44.165,44.165,0,0,0,10.247,1.809c14.317.845,28.851-4.651,41.976-9.637q1.886-.718,3.739-1.413c34.018-12.751,70.475-30.8,114.7-56.776,16.844-9.893,33.881-20.259,50.355-30.287,11.469-6.976,23.329-14.2,34.928-21.133l4.059-2.434c68.865-41.255,140.074-83.916,217.448-106.6,25.528-7.493,63.659-15.58,100.344-11.65,41.586,4.454,71.4,23.254,88.6,55.833,16.35,30.969,17.748,68.295,16.957,100.724-.827,33.964-6.431,68.413-12.363,104.883-1.6,9.818-3.248,19.955-4.808,30.135l.447.07c1.55-10.18,3.212-20.324,4.808-30.132,5.943-36.486,11.542-70.951,12.369-104.943.517-21.014-.215-37.7-2.287-52.508-2.633-18.815-7.446-34.661-14.727-48.441-17.28-32.734-47.208-51.6-88.952-56.068-36.757-3.938-74.953,4.17-100.509,11.666-77.428,22.7-148.663,65.37-217.554,106.646l-4.059,2.434c-11.6,6.937-23.461,14.154-34.93,21.133C999.873,375.8,982.838,386.169,966,396.059c-44.208,25.972-80.632,44-114.627,56.735q-1.853.693-3.741,1.413c-16.205,6.142-34.574,13.1-51.934,7.826-18.6-5.6-31.845-21.828-43.537-36.145L750.3,423.61c-14.412-17.585-28.1-36.506-41.341-54.807-6.9-9.537-14.027-19.4-21.252-29.062-33.2-44.565-62.155-79.064-91.112-108.534-36.69-37.359-72.6-65.8-109.829-86.936C449.838,123.341,412.251,110.6,375.047,106.4c-31.941-3.617-56.616-2.25-80.009,4.392-21.236,6.023-43.263,18.6-67.341,38.423-35.323,28.99-68.026,65.948-102.917,116.309C89.723,316.195,59.325,371.183,29.932,424.362c-3.86,6.976-7.85,14.211-11.764,21.249Z" transform="translate(7.644 43.946)"/>
        <path id="パス_4449" data-name="パス 4449" d="M18.637,437.934c3.659-6.762,7.39-13.679,11-20.368,28.292-52.474,57.551-106.733,91.244-156.885,33.729-50.11,65.065-86.709,98.644-115.177,24.138-20.544,45.051-32.584,65.824-37.855,28-7.123,54.929-4.222,77.581-.444,35.367,5.9,71.33,19.952,106.891,41.769,77.11,47.425,139.491,121.554,195.414,194.6,5.573,7.25,11.131,14.619,16.505,21.745,15.653,20.75,30.44,40.351,46.88,59.1l1.741,1.989c11.947,13.663,25.489,29.148,44.1,34.6a45.5,45.5,0,0,0,10.273,1.765c13.787.814,27.825-4.01,40.511-8.366q2.258-.775,4.473-1.527c36.8-12.42,76-30.8,119.844-56.177,21.1-12.211,42.284-25.2,62.77-37.765,8.371-5.131,17.027-10.441,25.481-15.572,5.93-3.617,11.958-7.289,17.789-10.852,66.377-40.56,135.034-82.492,209.669-105.746,53.115-16.536,148.743-33.057,192.435,42.268,17.926,30.907,21.358,69.9,22.342,100.408,1.093,33.848-2.682,69.01-6.679,106.222-1.057,9.852-2.15,20.035-3.162,30.3l.5.049c1.01-10.26,2.106-20.443,3.163-30.292,4-37.23,7.775-72.395,6.679-106.292-.68-21.112-2.372-37.93-5.323-52.924-3.659-18.6-9.247-34.209-17.086-47.722-19.12-32.966-50.293-51.676-92.649-55.611-37.085-3.447-75.048,5.232-100.364,13.118-33.5,10.438-68.729,25.548-107.664,46.2-34.692,18.4-68.987,39.335-102.132,59.585-5.829,3.56-11.857,7.235-17.787,10.852-8.454,5.134-17.11,10.444-25.481,15.575-20.487,12.562-41.666,25.551-62.76,37.757-43.816,25.365-82.989,43.728-119.753,56.135q-2.214.747-4.475,1.53c-15.79,5.426-33.685,11.57-50.479,6.594-18.469-5.41-31.959-20.836-43.862-34.447l-1.742-1.989c-16.43-18.732-31.209-38.325-46.857-59.07-5.377-7.126-10.935-14.5-16.508-21.748-23.432-30.6-54.8-70.4-89.644-106.733-35.948-37.486-70.589-66.266-105.907-87.986C434.453,126.684,398.427,112.621,363,106.7c-22.7-3.785-49.7-6.692-77.787.455-20.841,5.3-41.816,17.368-66.011,37.961-33.618,28.507-64.992,65.137-98.739,115.288C86.756,310.575,57.492,364.844,29.192,417.329c-3.617,6.689-7.335,13.606-11,20.368Z" transform="translate(7.656 43.243)"/>
        <path id="パス_4450" data-name="パス 4450" d="M18.7,430.185q5.116-9.707,10.247-19.492c27.2-51.763,55.311-105.3,87.644-154.952,33.01-50.6,62.14-85.8,94.453-114.139,14.986-13.206,37.982-31.45,64.452-37.4,26.378-5.925,51.792-1.827,75.322,3.486,33.589,7.576,67.977,22.962,102.243,45.733C525.626,201.75,586.73,275.675,643.1,347.261c3.731,4.721,7.493,9.506,11.11,14.136,17.658,22.5,34.333,43.759,53.055,63.664l1.532,1.633c12.188,12.983,26,27.7,44.529,32.974,16.474,4.746,33.3-.455,49.567-5.483q2.511-.775,4.982-1.53c39.491-11.929,80.374-30.109,124.985-55.58,24.747-14.126,49.389-29.38,73.219-44.131,5.914-3.661,12.03-7.446,18-11.128,9.648-5.943,19.443-12.061,28.915-17.97,64.731-40.385,131.667-82.144,204.517-106.152,52.647-17.353,148.11-35.181,195.921,40.351,19.474,30.763,25.047,69.654,27.729,100.1,3.013,34.227,1.049,70.656-1.033,109.224-.5,9.356-1.034,19.03-1.481,28.794l.548.026c.457-9.764.977-19.435,1.483-28.789,2.067-38.589,4.044-75.038,1.033-109.294-2.684-30.5-8.268-69.478-27.809-100.341-21-33.181-53.43-51.725-96.375-55.12-37.372-2.961-75.113,6.268-100.176,14.531-32.705,10.777-67.059,26.068-105.028,46.746-33.827,18.422-67.269,39.273-99.607,59.463-9.472,5.909-19.27,12.02-28.912,17.97-5.976,3.679-12.092,7.465-18.006,11.126-23.825,14.748-48.461,30-73.2,44.121-44.578,25.45-85.422,43.617-124.874,55.533-1.646.5-3.307,1.01-4.984,1.53-16.193,5-32.938,10.18-49.255,5.478-18.384-5.23-32.14-19.9-44.278-32.814l-1.532-1.633c-18.707-19.9-35.375-41.136-53.022-63.628-3.633-4.63-7.39-9.418-11.123-14.136-25.7-32.633-55.81-70.343-88.179-104.933-35.253-37.682-68.612-66.806-101.977-89.032-34.323-22.8-68.783-38.212-102.426-45.805-23.6-5.325-49.092-9.431-75.565-3.483-26.613,5.976-49.663,24.288-64.693,37.519a430.7,430.7,0,0,0-51.063,53.761,731.251,731.251,0,0,0-43.488,60.491c-32.349,49.671-60.46,103.222-87.67,155.006q-5.134,9.78-10.247,19.492Z" transform="translate(7.666 42.389)"/>
        <path id="パス_4451" data-name="パス 4451" d="M18.773,422.594q4.752-9.273,9.513-18.6c26.1-51.081,53.063-103.9,84.027-153.05,21.43-33.961,51.058-77.48,90.267-113.108,14.728-13.454,37.294-31.917,63.086-36.922,26.277-5.1,50.5.863,73.064,7.408,31.781,9.219,64.615,25.936,97.595,49.684,68,49.092,124.427,118.758,178.994,186.12q2.842,3.5,5.656,6.976,2.5,3.062,4.974,6.113c19.9,24.456,38.677,47.557,59.993,68.646l1.212,1.2c12.454,12.338,26.572,26.318,45.066,31.421,16.079,4.5,32.6-.052,48.575-4.454,1.734-.475,3.524-.969,5.266-1.437,41.8-11.208,84.363-29.2,130.13-54.988,27.99-15.761,55.613-33.047,82.325-49.756l11.872-7.421c12.792-8.01,25.763-16.278,38.3-24.262,63.618-40.565,129.4-82.505,201.088-107.408,52.167-18.12,147.441-37.225,199.411,38.439,16.456,23.957,26.667,54.732,33.111,99.783,5.02,35.114,4.932,73.532,4.837,114.2-.021,8.224-.041,16.73-.018,25.321h.6c-.021-8.578,0-17.081.018-25.308.1-40.695.186-79.133-4.842-114.291-3-20.947-6.762-38.527-11.508-53.743-5.651-18.112-12.751-33.253-21.7-46.288-22.923-33.375-56.616-51.743-100.14-54.6-37.633-2.48-75.121,7.289-99.948,15.921-32.186,11.183-65.972,26.763-103.292,47.637-33.253,18.6-66.129,39.563-97.925,59.833-12.539,8-25.507,16.265-38.3,24.259q-5.914,3.69-11.87,7.421c-26.709,16.7-54.324,33.979-82.3,49.743-45.733,25.768-88.246,43.736-129.993,54.931-1.741.465-3.535.961-5.268,1.437-15.9,4.392-32.339,8.909-48.257,4.457-18.345-5.064-32.4-18.988-44.808-31.264l-1.212-1.2c-21.293-21.066-40.069-44.152-59.944-68.6l-4.974-6.113-5.656-6.976c-26.853-33.147-54.619-67.424-84.169-99.545-33.439-36.351-64.494-64.7-94.949-86.7-33.036-23.786-65.933-40.529-97.778-49.771-22.634-6.565-46.94-12.547-73.346-7.421-11.11,2.157-22.205,6.762-33.9,14.076a207.2,207.2,0,0,0-29.476,23c-39.273,35.677-68.92,79.25-90.368,113.224C80.83,299.79,53.848,352.628,27.754,403.712q-4.764,9.333-9.513,18.6Z" transform="translate(7.675 41.399)"/>
        <path id="パス_4452" data-name="パス 4452" d="M722.019,459.11c12.291.726,24.753-2.294,36.9-5.237,1.749-.424,3.558-.863,5.317-1.276a466.418,466.418,0,0,0,68.855-22.254,616.229,616.229,0,0,0,66.424-32.14c30.956-17.231,61.236-36.377,90.52-54.9l6.646-4.2c15.552-9.842,31.282-20.089,46.5-30,62.887-40.966,127.915-83.324,198.861-109.219,51.676-18.862,146.736-39.191,202.9,36.527,17.539,23.642,29.77,55.249,38.5,99.476,7.235,36.643,9.085,76.1,11.229,121.779.295,6.26.6,12.735.92,19.236l.646-.031c-.323-6.5-.625-12.973-.92-19.234-2.147-45.71-4-85.185-11.24-121.874-4.134-20.988-8.935-38.7-14.655-54.146-6.609-17.851-14.446-32.762-23.957-45.586-56.414-76.054-151.8-55.67-203.638-36.749-31.858,11.627-65.279,27.577-102.176,48.759-32.881,18.877-65.385,40.049-96.817,60.525-15.211,9.909-30.941,20.154-46.49,30l-6.646,4.2c-29.274,18.513-59.548,37.653-90.489,54.874-47.159,26.254-91.355,44.025-135.111,54.329-1.762.416-3.573.855-5.323,1.292-15.678,3.8-31.889,7.728-47.49,3.5-18.378-4.909-32.786-18.141-45.5-29.817l-.731-.669c-24.2-22.22-46.25-48.487-65.7-71.659-7.751-9.276-15.681-18.887-23.357-28.181C527.672,267.916,477.7,207.4,419.98,162.169c-31.762-24.8-63.1-42.891-93.127-53.743-23.089-8.335-45.9-15.474-71.129-11.369-10.986,1.791-21.923,6.229-33.439,13.575-8.984,5.731-18.086,13.053-28.615,23.042-16.066,15.138-31.344,32.5-46.746,53.079-12.586,16.823-25.117,35.6-39.444,59.109-29.608,48.678-55.44,100.788-80.423,151.185q-4.408,8.888-8.785,17.727l.579.289q4.392-8.839,8.8-17.73c24.977-50.384,50.8-102.483,80.394-151.136,20.613-33.84,49.035-77.149,86.063-112.061,15.653-14.839,36.814-32.393,61.716-36.449,25.076-4.088,47.8,3.028,70.8,11.332,29.972,10.816,61.236,28.863,92.949,53.639,57.662,45.19,107.607,105.677,155.908,164.168,7.676,9.3,15.614,18.908,23.363,28.184,19.464,23.189,41.524,49.469,65.757,71.721l.731.669c12.766,11.728,27.236,25.016,45.767,29.972a53.533,53.533,0,0,0,10.927,1.736Z" transform="translate(7.688 40.335)"/>
        <path id="パス_4453" data-name="パス 4453" d="M701.259,458.07c11.989.708,24.177-1.847,36.059-4.341,1.705-.357,3.405-.713,5.1-1.059a441.4,441.4,0,0,0,71.571-21.339,581.9,581.9,0,0,0,68.858-32.46c33.729-18.557,66.426-39.462,98.047-59.685l2.09-1.336c18.035-11.544,36.232-23.647,53.833-35.351,62.429-41.516,126.985-84.448,197.489-111.413,51.159-19.567,145.984-41.082,206.387,34.623,18.9,23.691,32.845,55.2,43.883,99.158,9.8,39.036,13.872,82.609,18.59,133.065q.439,4.695.884,9.454l.693-.065q-.45-4.764-.886-9.454c-4.721-50.482-8.785-94.081-18.6-133.166-11.061-44.059-25.045-75.653-44.012-99.424-26.871-33.674-63.117-51.652-107.744-53.427a219.238,219.238,0,0,0-54.487,5.129,305.505,305.505,0,0,0-44.958,13.467c-31.659,12.108-64.853,28.478-101.5,50.048-32.649,19.221-64.92,40.695-96.137,61.437-17.6,11.7-35.793,23.8-53.823,35.344l-2.09,1.336c-31.61,20.21-64.3,41.108-98.008,59.654-48.138,26.489-95.318,44.568-140.227,53.727-1.692.344-3.392.7-5.1,1.059-15.547,3.261-31.623,6.633-47,2.6-18.5-4.775-33.331-17.373-46.418-28.489-24.724-21-46.4-45.418-66.5-68.623-13.407-15.562-27.078-32-40.307-47.9-41.968-50.464-85.368-102.648-133.667-143.785-30.938-26.269-59.879-45.144-88.479-57.7-10.751-4.723-21.327-9.214-32.455-12.247-13.066-3.563-24.99-4.563-36.457-3.062-24.58,3.222-45.374,21.022-60.742,36.173-34.705,34.026-60.92,75.289-81.989,111.165-28.223,48.177-52.9,99.561-76.767,149.255q-4.057,8.454-8.105,16.864l.625.3q4.049-8.41,8.108-16.864c23.859-49.681,48.531-101.052,76.738-149.2,21.04-35.837,47.226-77.051,81.89-111.023,15.3-15.074,35.974-32.773,60.349-35.977,26.037-3.413,49.609,6.937,68.543,15.244,28.538,12.531,57.422,31.372,88.306,57.6,48.257,41.1,91.634,93.256,133.582,143.7,13.221,15.9,26.895,32.339,40.307,47.908,20.107,23.226,41.811,47.66,66.55,68.68,13.162,11.183,28.057,23.835,46.712,28.649a57.575,57.575,0,0,0,11.268,1.757Z" transform="translate(7.692 39.202)"/>
        <path id="パス_4454" data-name="パス 4454" d="M680.651,457.105c11.754.692,23.729-1.431,35.4-3.506q2.274-.4,4.529-.8a418.11,418.11,0,0,0,74.281-20.412,555.657,555.657,0,0,0,71.292-32.814c36.338-19.776,71.811-42.7,103.111-62.933,20.314-13.146,40.764-27.016,60.543-40.431,62.179-42.175,126.476-85.782,196.739-113.88,50.642-20.247,145.208-42.917,209.881,32.706,20.324,23.771,35.979,55.182,49.265,98.85,12.958,42.586,20,94.148,26.8,144.012l.736-.1c-6.811-49.893-13.857-101.483-26.83-144.126-6.405-21.06-13.286-39.015-21.035-54.89-8.446-17.311-17.727-31.781-28.378-44.229-28.881-33.778-66.424-51.536-111.575-52.781a219.123,219.123,0,0,0-54.652,5.834,300.934,300.934,0,0,0-44.49,14.035c-31.553,12.617-64.633,29.455-101.132,51.459-32.527,19.613-64.67,41.413-95.752,62.5-19.774,13.412-40.222,27.28-60.528,40.423-31.287,20.221-66.749,43.149-103.062,62.9-50.642,27.571-98.184,44.958-145.345,53.128q-2.258.39-4.532.8c-15.534,2.757-31.6,5.609-46.865,1.749-18.743-4.651-34.217-16.795-46.65-26.525-25.4-19.9-47.33-43.263-67.251-65.551-18.929-21.283-37.982-44.291-56.386-66.54-35.63-43.048-72.473-87.562-112.18-124.378-29.682-27.442-57.1-47.614-83.823-61.67-9.3-4.891-19.831-10.433-31.057-14.335-12.723-4.421-24.381-6.031-35.641-4.909-24.151,2.38-44.441,20.34-59.427,35.721-14.57,14.893-28.447,32.034-42.415,52.42-11.095,16.2-22.011,34-35.4,57.729C72,284.227,48.49,334.874,25.753,383.855q-3.728,8.03-7.446,16.019l.672.313q3.726-8,7.449-16.019c22.737-48.965,46.25-99.6,73.049-147.245,20.166-35.752,45.167-76.777,77.7-109.984,14.9-15.291,35.059-33.145,58.97-35.5,25.127-2.475,46.991,9.025,66.279,19.172,26.665,14.027,54.032,34.163,83.665,61.559,39.671,36.783,76.5,81.275,112.11,124.306,18.42,22.257,37.465,45.268,56.407,66.561,19.942,22.314,41.9,45.71,67.346,65.628,12.49,9.785,28.031,21.962,46.927,26.662a62.958,62.958,0,0,0,11.767,1.783Z" transform="translate(7.702 38.012)"/>
        <path id="パス_4455" data-name="パス 4455" d="M660.276,456.186c11.606.685,23.466-1.034,35.039-2.731l3.447-.5a399.346,399.346,0,0,0,77-19.435,538.766,538.766,0,0,0,73.723-33.176c35.762-19.262,69.2-40.767,106.082-64.853,22.448-14.673,45-30.253,66.8-45.322,62.08-42.891,126.275-87.257,196.445-116.529,61.176-25.525,147.854-40.9,213.371,30.8,21.508,23.541,39.385,55.774,54.65,98.543,15.3,42.873,25.254,95.391,34.132,145.508l.775-.137c-8.886-50.151-18.841-102.708-34.165-145.637-15.3-42.87-33.233-75.188-54.812-98.809-30.928-33.848-69.762-51.376-115.433-52.1-30.84-.488-64.091,6.612-98.827,21.1-70.23,29.3-134.468,73.687-196.577,116.622-21.8,15.063-44.348,30.644-66.786,45.312-36.868,24.076-70.292,45.57-106.025,64.819-52.634,28.354-101.85,45.537-150.461,52.523l-3.449.5c-15.691,2.287-31.92,4.651-47.239.93-17.647-4.222-32.235-14.02-46.862-24.546-27.238-19.6-50.663-43.694-68.026-62.494-24.36-26.5-48.332-55.962-71.519-84.453-29.388-36.119-59.776-73.465-91.642-105.7-28.455-28.7-54.35-50.169-79.17-65.628l-.46-.287c-8.816-5.493-18.807-11.717-29.473-16.249-12.257-5.2-23.559-7.384-34.55-6.669-23.771,1.55-43.55,19.665-58.122,35.274-30.411,32.4-53.363,71.586-73.638,109.111-25.411,47.149-47.751,97.049-69.354,145.307q-3.411,7.625-6.819,15.226l.721.323q3.411-7.6,6.821-15.226C47.47,329.364,69.8,279.479,95.2,232.353c20.244-37.5,43.165-76.635,73.514-108.958,14.469-15.5,34.106-33.494,57.592-35.026,24.409-1.594,45.216,11.369,63.561,22.8l.46.287c24.766,15.43,50.616,36.86,79.025,65.52,31.837,32.2,62.215,69.535,91.592,105.638,23.192,28.5,47.175,57.975,71.55,84.49,17.389,18.825,40.85,42.955,68.145,62.6,14.691,10.575,29.354,20.412,47.138,24.675a70.387,70.387,0,0,0,12.5,1.809Z" transform="translate(7.712 36.799)"/>
        <path id="パス_4456" data-name="パス 4456" d="M640.262,455.357c11.627.687,23.533-.685,35.16-2.023l1.514-.176a380.167,380.167,0,0,0,79.717-18.446,525.727,525.727,0,0,0,76.157-33.571c37.7-20.107,73.1-43.059,109.056-66.773,24.476-16.154,49.009-33.406,72.733-50.092,62.1-43.663,126.3-88.815,196.478-119.316,60.494-26.29,147.221-42.617,216.862,28.892,23.021,23.639,42.661,55.771,60.037,98.23,18.066,44.146,30.6,96.744,41.459,147.017l.819-.178c-10.852-50.3-23.412-102.943-41.5-147.149-17.417-42.56-37.114-74.78-60.2-98.5-32.995-33.881-73.134-51.159-119.3-51.373-30.99-.142-64.127,7.361-98.5,22.3-70.256,30.533-134.5,75.7-196.626,119.4-23.719,16.678-48.247,33.928-72.713,50.076-35.943,23.7-71.325,46.642-108.989,66.731-54.74,29.2-105.63,46.188-155.575,51.934l-1.517.176c-16.141,1.858-32.832,3.78-48.467.14-18.12-4.16-33.8-13.831-47.079-22.569-22.068-14.523-43.924-33.413-68.8-59.427-29.737-31.264-58.135-67.2-85.577-101.948-23.347-29.564-47.469-60.107-72.18-87.458-27.646-30.489-51.311-52.611-74.514-69.6l-.775-.561C261.307,98.909,240.6,83.745,216.455,84.5c-23.448.731-42.679,19-56.815,34.827-29.768,33.158-51.464,73.175-69.465,108.082C66.192,274.017,45.044,323.148,24.58,370.661q-3.124,7.253-6.24,14.482l.775.333q3.116-7.235,6.237-14.469c20.448-47.5,41.6-96.618,65.561-143.2,17.975-34.86,39.64-74.821,69.331-107.906,14.025-15.707,33.088-33.827,56.215-34.548,23.869-.744,44.441,14.327,60.977,26.435l.775.563c23.156,16.947,46.792,39.015,74.387,69.48,24.7,27.331,48.833,57.861,72.142,87.386,27.466,34.77,55.864,70.721,85.629,102.008,24.91,26.076,46.818,45,68.943,59.564,13.338,8.785,29.093,18.492,47.35,22.683a80.686,80.686,0,0,0,13.6,1.889Z" transform="translate(7.717 35.541)"/>
        <path id="パス_4457" data-name="パス 4457" d="M620.859,454.635c10.594.623,21.7-.171,34.245-1.258a364.367,364.367,0,0,0,82.423-17.425,516.505,516.505,0,0,0,78.594-34c39.532-20.885,77.015-45.384,112.028-68.69,26.432-17.6,52.869-36.5,78.436-54.776,62.192-44.457,126.5-90.432,196.745-122.177,59.8-27.021,146.563-44.281,220.358,26.98,24.585,23.74,45.991,55.771,65.421,97.925,17.164,37.222,32.209,83.025,48.784,148.505l.863-.217c-16.59-65.538-31.654-111.387-48.834-148.66-19.484-42.253-40.945-74.372-65.61-98.184-35.085-33.879-76.529-50.9-123.184-50.609-31.14.2-64.16,8.09-98.153,23.453-70.325,31.781-134.669,77.772-196.884,122.262-25.559,18.272-51.991,37.168-78.41,54.763-34.995,23.293-72.465,47.779-111.95,68.643-56.957,30.1-109.519,46.89-160.688,51.324-18.624,1.612-34.08,2.584-49.283-.8-17.908-3.932-33.315-12.219-47.283-20.588-23.068-13.81-45.172-31.729-69.568-56.386-35.088-35.6-67.282-78.146-98.416-119.293-17.541-23.187-35.682-47.162-53.931-69.313-26.463-32.039-48.66-55.422-69.855-73.555l-.744-.638c-15.823-13.539-35.522-30.393-59.316-30.489-23.164-.088-41.834,18.329-55.51,34.382-27.618,32.277-47.387,70.584-65.266,107.051C63.305,268.939,43.353,317.286,24.052,364.04q-2.842,6.894-5.684,13.777l.819.339q2.842-6.878,5.684-13.777C44.162,317.638,64.106,269.3,86.624,223.265c17.857-36.431,37.594-74.671,65.145-106.868,13.555-15.908,32.039-34.155,54.833-34.072,23.471.085,43.028,16.823,58.74,30.266l.747.638c21.153,18.086,43.317,41.436,69.747,73.447,18.239,22.135,36.372,46.1,53.908,69.282C420.9,297.128,453.1,339.7,488.236,375.328c24.448,24.714,46.609,42.674,69.741,56.525,14.045,8.408,29.527,16.733,47.56,20.694a96.335,96.335,0,0,0,15.322,2.088Z" transform="translate(7.728 34.263)"/>
        <path id="パス_4458" data-name="パス 4458" d="M602.464,454.008a264.82,264.82,0,0,0,30.812-.4c52.451-3.1,106.8-19.719,166.179-50.828,41.289-21.629,81.012-47.8,115-70.61,28.339-19.037,56.629-39.571,83.986-59.427,62.344-45.255,126.81-92.039,197.158-125.076,59.068-27.732,145.852-45.893,223.846,25.078,26.189,23.83,49.35,55.761,70.808,97.615,19.725,38.48,38.08,87.546,56.11,150l.9-.258c-18.048-62.528-36.431-111.635-56.179-150.169a426.356,426.356,0,0,0-34.064-56.125,276.191,276.191,0,0,0-36.948-41.754c-37.191-33.848-79.945-50.6-127.075-49.8-31.295.517-64.2,8.785-97.8,24.569-70.426,33.072-134.93,79.883-197.311,125.161-27.352,19.856-55.634,40.385-83.957,59.411-33.972,22.807-73.666,48.952-114.914,70.558-59.262,31.044-113.5,47.637-165.8,50.722-18.539,1.093-33.9,1.186-48.575-1.92-18.825-3.943-35.282-12.017-47.516-18.6-23.771-12.919-46.766-30.359-70.336-53.329C426.364,339.29,391.062,289.883,356.922,242.1c-12.115-16.957-24.639-34.488-37.069-51.1-25.7-34.287-45.808-58.195-65.2-77.513l-.478-.475c-7.4-7.374-15.784-15.73-25.321-22.427-11.082-7.78-21.569-11.761-32.039-12.175-22.923-.9-41.012,17.663-54.21,33.938-25.546,31.372-43.472,68.046-61.091,106.007C60.446,263.826,41.724,311.344,23.6,357.3q-2.6,6.609-5.209,13.2l.871.344q2.6-6.6,5.209-13.2C42.579,311.7,61.306,264.2,82.364,218.747c17.59-37.907,35.491-74.524,60.959-105.829,13.061-16.1,30.938-34.478,53.448-33.589.295,0,.594.026.889.044,22.8,1.338,41.1,19.585,55.854,34.282l.478.478c19.36,19.288,39.441,43.165,65.119,77.423,12.423,16.6,24.946,34.132,37.057,51.081,34.163,47.821,69.488,97.269,109.976,136.853,23.621,23.032,46.694,40.527,70.537,53.484,12.291,6.627,28.827,14.728,47.769,18.707a121.149,121.149,0,0,0,18.014,2.328Z" transform="translate(7.737 32.976)"/>
        <path id="パス_4459" data-name="パス 4459" d="M586.143,453.636c7.671.452,16.019.517,25.3.225C664.951,452.153,721,435.723,782.777,403.63c42.989-22.332,83.435-49.149,117.975-72.532,30.215-20.461,60.329-42.632,89.451-64.078,62.528-46.046,127.2-93.657,197.659-127.975,58.326-28.422,145.116-47.451,227.337,23.174,27.445,23.572,53.081,56.311,76.2,97.305,22.879,40.581,43.63,90.138,63.434,151.5l.938-.3c-19.825-61.427-40.6-111.043-63.515-151.681a441.2,441.2,0,0,0-37.359-56.378,295.9,295.9,0,0,0-39.051-41.193c-39.31-33.762-83.381-50.234-130.977-48.957-31.455.845-64.235,9.475-97.434,25.644-70.537,34.364-135.24,82-197.812,128.068-29.114,21.445-59.22,43.6-89.419,64.052-34.514,23.37-74.93,50.167-117.875,72.472-61.649,32.023-117.562,48.42-170.912,50.125-19.241.615-34.457-.351-47.88-3.036-15.3-3.044-30.918-8.485-47.735-16.634-24.546-11.955-47.8-28.4-71.1-50.278-45.754-43.041-83.379-99.69-119.756-154.464-7.134-10.743-14.513-21.851-21.771-32.579-17.627-26.011-38.6-56.047-60.546-81.469l-.1-.116C228.982,98.6,210.43,77.115,186.993,75.368c-.238-.018-.478-.036-.716-.049-22.347-1.318-39.615,17.2-52.192,33.543-23.512,30.489-39.677,65.589-56.9,105C57.61,258.7,40.118,305.348,23.2,350.456q-2.4,6.384-4.788,12.756l.922.346q2.4-6.374,4.788-12.756c16.913-45.1,34.4-91.724,53.967-136.55,17.2-39.346,33.331-74.39,56.776-104.788,12.428-16.154,29.468-34.452,51.358-33.16.233.013.462.028.7.047,23.034,1.71,41.431,23.027,54.861,38.591l.1.116c21.905,25.383,42.862,55.381,60.46,81.389,7.258,10.723,14.635,21.828,21.766,32.569,36.421,54.8,74.059,111.5,119.913,154.632,23.363,21.947,46.7,38.447,71.346,50.446,16.9,8.185,32.589,13.653,47.973,16.712a165.25,165.25,0,0,0,22.8,2.832Z" transform="translate(7.747 31.662)"/>
        <path id="パス_4460" data-name="パス 4460" d="M572.836,453.673q8.309.488,16.776.444c49.175-.258,100.553-13.361,157.076-40.049,51.521-24.324,99.476-56.133,140.361-84.04,32.085-21.9,64.013-45.717,94.889-68.757,62.75-46.816,127.639-95.225,198.176-130.843,60.543-30.553,118.8-35.01,173.175-13.242,84.231,33.731,154.892,129.447,210.007,284.505l.974-.346c-15.379-43.258-32.2-82.423-50.014-116.423-16.567-31.62-34.4-59.551-53-83.017-17.146-21.631-35.361-39.994-54.143-54.58a222.283,222.283,0,0,0-53.44-31.1c-32.129-12.865-66.145-16.58-101.134-11.04-23.895,3.785-48.417,11.968-72.881,24.319-70.635,35.659-135.558,84.1-198.344,130.941-30.868,23.032-62.786,46.847-94.856,68.729-91.414,62.383-189.637,123.337-296.845,123.9-5.764.031-11.441-.121-16.986-.447C434.4,444.475,363.449,327.577,294.736,214.35c-21.549-35.483-41.893-69-64.137-98.987-11.922-16.069-29.938-40.351-53.415-43.012-10.056-1.142-20.1,2.052-29.856,9.485-9.265,7.061-16.851,16.831-21.761,23.564-23.254,31.925-38.9,70.2-52.709,103.969C54.816,253.49,38.593,299.171,22.9,343.346l-4.473,12.583.972.346,4.47-12.58c15.686-44.167,31.9-89.825,49.939-133.935C87.6,176.046,103.229,137.832,126.4,106.01c11.082-15.218,28.4-35.16,50.665-32.633,23.032,2.612,40.886,26.678,52.709,42.6,22.221,29.941,42.547,63.445,64.078,98.912C329.1,272.958,365.539,333,411.874,378.364c25.047,24.52,50.6,42.526,78.113,55.048a227.808,227.808,0,0,0,46.723,15.423A241.13,241.13,0,0,0,572.836,453.673Z" transform="translate(7.755 30.347)"/>
      </g>
    </g>
  </g>
</svg>
