<svg xmlns="http://www.w3.org/2000/svg" xmlns:xlink="http://www.w3.org/1999/xlink" width="1280" height="800" viewBox="0 0 1280 800">
  <defs>
    <clipPath id="clip-path">
      <rect id="長方形_1" data-name="長方形 1" width="1280" height="800" fill="#f4f4f4"/>
    </clipPath>
  </defs>
  <g id="マスクグループ_35" data-name="マスクグループ 35" clip-path="url(#clip-path)">
    <g id="レイヤー_2" data-name="レイヤー 2" transform="translate(0.002 131.236)">
      <g id="_饑1" data-name="ﾑ饑1" transform="translate(-202.778 -76.227)" opacity="0.255">
        <path id="パス_4278" data-name="パス 4278" d="M781.175,442.868a297.233,297.233,0,0,1-32.931-1.86,366.1,366.1,0,0,1-66.964-14.279,501.642,501.642,0,0,1-64.813-25.359C581.587,385,547.812,364.427,515.146,344.54c-43.972-26.771-89.428-54.452-138.227-72.32-58.22-21.31-107.27-9.642-149.967,35.672-11.5,12.2-22.253,26.6-32.658,40.52-21.163,28.325-43.047,57.615-73.958,73.407-18.445,9.421-38.668,11.01-61.827,4.853C37.98,421.213,17.807,410.427,0,400.91l.119-.222C37,420.4,78.81,442.747,120.218,421.592c30.862-15.766,52.728-45.031,73.873-73.335,10.408-13.929,21.171-28.337,32.676-40.541A167.332,167.332,0,0,1,259.924,280.1,118.658,118.658,0,0,1,334.8,262.178a165.623,165.623,0,0,1,42.2,9.789c48.825,17.873,94.286,45.561,138.274,72.338,32.658,19.888,66.428,40.445,101.3,56.819,100.211,47.045,189.861,54,266.5,20.673,79.273-34.476,137.241-101.131,193.3-165.591,5.9-6.78,12-13.793,17.979-20.609l4.416-5.029c22.492-25.643,47.986-54.707,76.738-77.026,33.029-25.653,65.176-38.384,98.318-38.93,30.4-.5,62.286,8.244,97.506,26.689,30.839,16.16,59.38,37,86.98,57.154,6.273,4.578,12.2,8.9,18.136,13.164l-.147.206c-5.938-4.263-11.863-8.589-18.136-13.169-53.841-39.312-114.795-83.812-181.859-83.812-.829,0-1.646,0-2.478.021-74.288,1.219-130.058,64.795-174.87,115.879q-2.221,2.535-4.416,5.031c-5.979,6.806-12.079,13.818-17.976,20.609C1020.482,320.865,962.5,387.54,883.169,422.03A249.784,249.784,0,0,1,816,440.619,267.473,267.473,0,0,1,781.175,442.868Z" transform="translate(0 36.31)" fill="#0e0e0e"/>
        <path id="パス_4279" data-name="パス 4279" d="M775.681,439.648c-50.108,0-103.717-12.365-160.364-37.032-37.07-16.15-73.105-36.957-107.955-57.077-41.6-24.017-84.616-48.851-130.172-66.312-59.393-22.765-106.2-14.738-147.308,25.264-10.882,10.562-20.681,22.4-31.058,34.94-21.271,25.712-43.279,52.3-75.244,66.979a89.553,89.553,0,0,1-37.926,8.128,119.925,119.925,0,0,1-25.591-2.926c-20.527-4.48-40.092-13.239-60-22.557l.106-.227c33.634,15.758,79.7,37.338,123.3,17.342,31.923-14.64,53.9-41.218,75.156-66.9,10.379-12.548,20.184-24.4,31.076-34.958a145.426,145.426,0,0,1,32.3-24.128,113.727,113.727,0,0,1,35.064-12.077c24.241-4.07,50.492-.515,80.205,10.887,45.577,17.466,88.6,42.308,130.205,66.33,34.845,20.117,70.874,40.917,107.94,57.061,99.42,43.315,189.469,48.64,267.642,15.825,76.856-32.325,134.139-92.483,189.536-150.685,7.968-8.37,16.206-17.023,24.29-25.362l4.055-4.186c23.09-23.842,49.258-50.866,78.572-71.449,33.662-23.631,66.3-35.125,99.784-35.138,67.92,0,130.318,42.589,185.373,80.164,7.077,4.828,13.762,9.39,20.457,13.865l-.142.211c-6.7-4.477-13.378-9.04-20.457-13.87-55.023-37.552-117.389-80.118-185.224-80.118-75.071.028-132.243,59.071-178.181,106.51l-4.057,4.186c-8.084,8.336-16.322,17-24.29,25.362-55.413,58.22-112.713,118.4-189.621,150.742Q832.624,439.656,775.681,439.648Z" transform="translate(0.022 41.632)" fill="#0e0e0e"/>
        <path id="パス_4280" data-name="パス 4280" d="M769.378,436.555q-11.191,0-22.539-.752c-42.321-2.818-86.96-13.558-132.671-31.926-39.9-16.029-78.866-37.354-116.552-57.981-38.583-21.124-78.479-42.949-120.151-59.648-60.73-24.334-105.34-19.751-144.652,14.857-10.286,8.986-19.617,19.025-29.5,29.651-21.359,22.979-43.446,46.741-76.49,60.24a106.346,106.346,0,0,1-40.757,7.757,143.21,143.21,0,0,1-24.455-2.208C39.461,392.712,18.27,384.558.139,377.224l.093-.232c40.716,16.487,84.02,31.13,126.5,13.777,32.992-13.476,55.06-37.217,76.4-60.176,9.882-10.634,19.218-20.679,29.512-29.669,20.094-17.683,41.561-27.364,65.647-29.6,23.273-2.159,49.2,2.648,79.265,14.684,41.687,16.7,81.589,38.544,120.176,59.66,37.681,20.609,76.645,41.947,116.526,57.963,98.547,39.592,188.982,43.279,268.785,10.977,74.332-30.21,130.769-84.239,185.35-136.488,10.178-9.743,20.7-19.816,31.027-29.414l3.524-3.279c23.713-22.062,50.588-47.066,80.5-65.915,34.319-21.621,67.469-31.882,101.34-31.359,67.672,1.092,130.594,41.187,186.11,76.56,7.932,5.054,15.423,9.828,22.928,14.493l-.134.214c-7.5-4.665-14.993-9.441-22.927-14.5-55.487-35.355-118.378-75.429-185.981-76.511-.8-.013-1.6-.018-2.4-.018-74.772,0-132.671,53.859-179.268,97.226L1099.6,248.9c-10.325,9.6-20.849,19.671-31.024,29.414-54.6,52.264-111.054,106.309-185.43,136.535a295.465,295.465,0,0,1-67.963,18.424,316,316,0,0,1-45.8,3.282Z" transform="translate(0.045 46.938)" fill="#0e0e0e"/>
        <path id="パス_4281" data-name="パス 4281" d="M762.279,433.569q-8.022,0-16.116-.361c-42.887-1.9-87.684-11.335-133.145-28.059-43.691-16.07-86.617-38.369-128.126-59.931-34.579-17.963-70.328-36.537-107.151-51.937-62.105-25.98-104.573-24.651-142,4.452-9.573,7.442-18.339,15.678-27.619,24.4-21.516,20.212-43.766,41.112-78.057,53.47-20.035,7.213-41.921,9.148-66.912,5.894-22.8-2.97-44.619-9.81-62.95-16.109l.08-.24c42.022,14.426,86.816,25.671,129.7,10.217,34.239-12.34,56.469-33.232,77.967-53.419,9.274-8.723,18.056-16.961,27.637-24.411,19.409-15.091,40.329-22.6,63.965-22.948,22.191-.332,47.8,5.709,78.286,18.463C414.659,308.454,450.42,327.03,485,344.994c41.5,21.56,84.42,43.856,128.1,59.918,97.566,35.883,188.382,37.944,269.932,6.129,71.668-28.118,127.091-76.338,180.69-122.969,12.541-10.912,25.5-22.193,38.238-32.789l2.767-2.319c24.37-20.3,51.994-43.307,82.537-60.433,35-19.63,68.7-28.654,103.009-27.593,30.094.963,61.977,9.063,97.465,24.762,31.194,13.8,60.683,31.318,89.2,48.261,8.849,5.255,17.208,10.222,25.571,15.052l-.124.219c-8.367-4.833-16.724-9.789-25.576-15.055-55.881-33.188-119.226-70.82-186.543-72.984-76.915-2.385-134.533,45.618-185.378,87.967l-2.767,2.319c-12.724,10.593-25.692,21.874-38.232,32.786-53.615,46.643-109.055,94.876-180.764,123.013C845.163,426.088,804.571,433.566,762.279,433.569Z" transform="translate(0.065 52.235)" fill="#0e0e0e"/>
        <path id="パス_4282" data-name="パス 4282" d="M754.247,430.714q-4.379,0-8.759-.1c-43.467-.966-88.428-9.107-133.629-24.19-49.062-16.371-95.433-39.348-144.544-63.672-28.963-14.346-58.913-29.182-89.3-42.437-64.7-28.221-103.772-29.883-139.345-5.953-8.944,6.02-17.2,12.623-25.939,19.6-21.6,17.26-43.941,35.1-79.417,46.252a163.659,163.659,0,0,1-49.245,7.123c-30.141,0-59.375-6.829-83.794-13.775l.07-.242c37.65,10.709,86.782,21.142,132.895,6.654,35.432-11.131,57.752-28.963,79.345-46.208,8.743-6.986,17-13.584,25.957-19.609a95.3,95.3,0,0,1,29.8-13.592,101.3,101.3,0,0,1,32.459-2.738c21.2,1.422,45.77,8.5,77.333,22.263,30.4,13.257,60.346,28.08,89.314,42.442,49.1,24.319,95.471,47.29,144.521,63.659,95.09,31.73,188.83,32.173,271.073,1.288,68.842-26.047,123.056-68.783,175.486-110.1,15.784-12.44,30.689-24.187,45.992-35.509l1.708-1.262c25.081-18.548,53.506-39.59,84.716-55.011,35.731-17.652,70.022-25.45,104.848-23.837,29.945,1.427,61.763,9.328,97.272,24.151,31.248,13.046,60.979,29.486,89.734,45.386,9.841,5.441,19.138,10.583,28.438,15.56l-.119.224c-9.3-4.98-18.6-10.122-28.443-15.565-56.214-31.084-119.929-66.315-186.9-69.5-78.016-3.607-137.187,40.167-189.392,78.8l-1.705,1.265c-15.3,11.317-30.208,23.067-45.986,35.5-52.445,41.334-106.677,84.08-175.553,110.142A365.44,365.44,0,0,1,754.247,430.714Z" transform="translate(0.087 57.524)" fill="#0e0e0e"/>
        <path id="パス_4283" data-name="パス 4283" d="M745.04,428.047h-.191c-44.07-.021-89.2-6.855-134.129-20.313-57.26-17.152-111.871-43.243-169.687-70.867-20.452-9.771-41.6-19.875-62.744-29.481C320.205,281,279.216,269.865,241.6,291.027c-8.308,4.673-16.029,9.725-24.216,15.07-21.681,14.169-44.1,28.853-80.836,38.758C98.826,355.034,54.269,354.024.333,341.764l.054-.245c53.9,12.247,98.408,13.259,136.1,3.091,36.7-9.9,59.1-24.556,80.764-38.727,8.177-5.348,15.9-10.4,24.216-15.078,37.712-21.214,78.76-10.07,136.919,16.351,21.145,9.6,42.295,19.71,62.747,29.481,57.808,27.619,112.409,53.707,169.651,70.844,93.835,28.106,187.967,26.874,272.219-3.568,65.8-23.992,118.592-61.546,169.638-97.862,18.672-13.285,36.308-25.833,54.39-37.611l.242-.157c27.114-17.657,55.152-35.914,87.089-49.639,36.514-15.694,71.475-22.265,106.876-20.094,29.762,1.873,61.477,9.575,96.953,23.543,31.256,12.306,61.181,27.678,90.118,42.547,10.931,5.613,21.253,10.918,31.581,16.029l-.111.224c-10.33-5.111-20.653-10.415-31.583-16.031-56.45-29-120.436-61.871-186.973-66.062-79.309-4.877-140.141,34.739-193.812,69.689l-.24.157c-18.079,11.773-35.713,24.319-54.382,37.611-51.061,36.323-103.862,73.891-169.7,97.893A404.574,404.574,0,0,1,745.04,428.047Z" transform="translate(0.106 62.783)" fill="#0e0e0e"/>
        <path id="パス_4284" data-name="パス 4284" d="M734.391,425.583a487.06,487.06,0,0,1-124.826-16.523c-32.06-8.5-66.892-20.751-106.487-37.436-35.4-14.918-71.616-32.081-106.623-48.689l-17.9-8.473c-56.912-26.9-96.989-43.279-134.041-26.766-7.61,3.4-14.733,6.989-22.271,10.794-21.779,10.99-44.309,22.35-82.436,31.014-22.294,5.062-45.082,6.956-66.632,6.956a434.61,434.61,0,0,1-72.76-6.474l.041-.258c35.623,6.126,88.7,11.018,139.294-.471,38.127-8.656,60.627-20.011,82.39-30.993,7.54-3.807,14.666-7.4,22.284-10.8,17.2-7.672,35.891-8.656,58.813-3.091,20.967,5.088,44.41,15.2,75.437,29.86q8.965,4.238,17.9,8.475c72.863,34.538,141.687,67.162,213.069,86.1,92.388,24.509,186.916,21.6,273.363-8.416,62.512-21.933,113.607-54.614,163.012-86.21,21.84-13.97,42.47-27.163,63.566-39.113,26.189-14.836,55.869-31.648,89.008-43.714,36.993-13.468,72.369-18.685,108.146-15.951,29.53,2.319,61.082,9.807,96.466,22.928,31.2,11.577,61.26,25.893,90.324,39.737,12.136,5.781,23.6,11.24,35.066,16.472l-.1.229c-11.469-5.232-22.927-10.693-35.071-16.474-56.574-26.949-120.7-57.491-186.7-62.646-80.831-6.183-145.247,30.313-197.009,59.635-21.088,11.945-41.715,25.138-63.553,39.106-49.423,31.609-100.526,64.295-163.069,86.236a451.8,451.8,0,0,1-138.871,24.844Q739.3,425.585,734.391,425.583Z" transform="translate(0.133 68.027)" fill="#0e0e0e"/>
        <path id="パス_4285" data-name="パス 4285" d="M722.179,423.392a505.648,505.648,0,0,1-113.7-12.96c-81.1-18.724-161.582-55.416-229.643-88.841l-7.486-3.681c-54.294-26.722-90.164-44.374-123.912-33.49-6.672,2.151-12.95,4.351-19.6,6.677-21.982,7.7-44.711,15.655-84.8,23.108a471.282,471.282,0,0,1-84.755,7.357A493.7,493.7,0,0,1,.479,318.245l.028-.258c46.886,5.557,98.818,4.088,142.493-4.034,40.069-7.45,62.788-15.405,84.755-23.1,6.649-2.318,12.93-4.526,19.6-6.68,33.84-10.92,69.746,6.752,124.095,33.49l7.486,3.684c68.038,33.417,148.516,70.1,229.533,88.807a507.137,507.137,0,0,0,274.507-13.264c58.9-19.865,107.966-47.949,155.418-75.112,25.362-14.516,49.318-28.227,73.716-40.069,29.662-14.4,58.929-28.108,90.852-37.681,37.377-11.209,73.11-15.057,109.243-11.763,29.237,2.718,60.56,10.016,95.762,22.309,31.081,10.853,61.188,24.115,90.3,36.944,13.5,5.946,26.246,11.562,39,16.912l-.1.232c-12.755-5.351-25.5-10.967-39-16.915-59.32-26.135-120.658-53.158-186-59.233-82.616-7.53-147.682,24.048-199.964,49.42-24.391,11.85-48.341,25.547-73.7,40.061-47.465,27.168-96.543,55.261-155.462,75.13a509.493,509.493,0,0,1-139.477,25.8Q732.888,423.392,722.179,423.392Z" transform="translate(0.152 73.234)" fill="#0e0e0e"/>
        <path id="パス_4286" data-name="パス 4286" d="M708.247,421.528a523.993,523.993,0,0,1-100.984-9.709c-36.427-7.154-74.824-18.144-114.122-32.665a1067.236,1067.236,0,0,1-114.035-50.4c-10.268-5.237-19.7-10.227-28.827-15.055-41.635-22.023-71.717-37.936-99.92-32.524l-6.183,1.19c-25.1,4.833-48.8,9.4-97.893,16.577-51.705,7.566-104.828,10.335-145.744,7.6l.018-.258c40.9,2.733,94-.036,145.69-7.6,49.08-7.182,72.783-11.745,97.877-16.577l6.183-1.188c13.076-2.512,27.307-.654,44.783,5.84,16.186,6.015,34.311,15.6,55.3,26.707,9.125,4.825,18.548,9.815,28.824,15.052,80.929,41.272,157.672,69.213,228.1,83.042a522.254,522.254,0,0,0,100.6,9.645,576.256,576.256,0,0,0,175.058-27.758c54.859-17.76,101.487-41.53,146.582-64.519,29.334-14.942,57.043-29.079,85.1-40.515,28.608-11.657,59.331-23.7,92.717-31.64,37.717-8.962,73.8-11.443,110.325-7.584,28.853,3.107,59.854,10.189,94.768,21.655,30.857,10.132,60.915,22.348,89.982,34.162,15.063,6.123,29.288,11.9,43.519,17.373l-.09.234c-14.233-5.469-28.461-11.253-43.524-17.373-59.1-24.022-120.22-48.864-184.682-55.8-78.255-8.269-140.639,13.826-202.919,39.206-28.051,11.433-55.755,25.555-85.084,40.507-45.1,22.992-91.739,46.767-146.618,64.535a582.531,582.531,0,0,1-140.077,26.722Q725.568,421.531,708.247,421.528Z" transform="translate(0.171 78.4)" fill="#0e0e0e"/>
        <path id="パス_4287" data-name="パス 4287" d="M692.881,420.121a543.664,543.664,0,0,1-86.756-6.834,706.09,706.09,0,0,1-113.509-28.438,775.043,775.043,0,0,1-113.231-48.867c-16.8-8.89-31.769-17.685-44.977-25.447-33.389-19.62-57.515-33.8-81.125-32.539-8.156.435-15.972.6-24.252.773-19.609.422-41.836.9-79.492,4.969l-10.82,1.172c-45.466,4.944-92.4,10.047-131.184,10.047q-3.511,0-6.927-.059v-.258c40.025.67,89.873-4.748,138.08-9.988l10.82-1.172c37.668-4.07,59.9-4.549,79.515-4.969,8.275-.178,16.09-.345,24.244-.773,23.682-1.262,47.839,12.93,81.266,32.573,13.2,7.759,28.17,16.554,44.966,25.442,72.333,38.271,150.7,65,226.661,77.284,86.79,14.035,182.506,6.1,276.8-22.961,50.474-15.555,94.232-35.36,136.55-54.513,33.747-15.276,65.635-29.708,97.684-40.376,27.379-9.114,59.527-19.357,94.6-25.581a373.721,373.721,0,0,1,111.387-3.424c63.373,7.728,124,30.4,182.647,52.329,16.9,6.319,32.869,12.288,48.838,17.883l-.082.237c-15.972-5.6-31.944-11.567-48.846-17.886-58.62-21.918-119.239-44.582-182.578-52.313-80.553-9.671-145.873,9.016-205.876,28.992-32.039,10.665-63.914,25.094-97.661,40.368-42.323,19.156-86.089,38.964-136.578,54.524A669.438,669.438,0,0,1,742.4,418.024Q717.447,420.121,692.881,420.121Z" transform="translate(0.193 83.499)" fill="#0e0e0e"/>
        <path id="パス_4288" data-name="パス 4288" d="M675.36,422.1a558.4,558.4,0,0,1-70.387-4.354A670.506,670.506,0,0,1,492.091,393.5,603.8,603.8,0,0,1,379.656,346.2c-22.345-12.257-40.857-24.612-57.19-35.512C296.5,293.356,275.988,279.666,256.2,277.8c-6.871-.649-13.46-1.646-20.439-2.7-19.95-3.022-42.56-6.44-82.977-3.565-22.776,1.62-46.757,4.439-69.947,7.164-29.7,3.488-57.759,6.786-82.15,7.558V286c24.378-.773,52.429-4.068,82.13-7.556,23.185-2.726,47.177-5.544,69.957-7.167,40.445-2.88,63.071.546,83.034,3.571,6.974,1.054,13.561,2.061,20.424,2.7,19.852,1.873,40.386,15.575,66.384,32.926,16.327,10.9,34.834,23.247,57.172,35.5,67.564,37.063,143.341,61.124,225.226,71.516a558.414,558.414,0,0,0,70.357,4.351c65.449,0,134.989-10.753,207.587-32.16,45.273-13.347,85.391-29.368,124.19-44.856,39.034-15.583,75.9-30.3,112.6-39.886,29.293-7.651,61.26-15.307,96.5-19.5a441.764,441.764,0,0,1,112.433.714c61.871,8.432,121.616,28.917,179.4,48.73,19.135,6.561,37.21,12.76,55.286,18.507l-.077.24c-18.077-5.747-36.153-11.948-55.291-18.51-57.767-19.808-117.5-40.291-179.348-48.717-83.467-11.2-148.928,3.135-208.834,18.777-36.684,9.581-73.543,24.3-112.577,39.878-38.8,15.493-78.927,31.511-124.211,44.863C810.393,411.327,740.824,422.093,675.36,422.1Z" transform="translate(0.218 85.61)" fill="#0e0e0e"/>
        <path id="パス_4289" data-name="パス 4289" d="M655.865,428.844q-26.735,0-52.038-2.319c-85.6-7.87-160.928-30-223.894-65.784-27.049-15.364-47.916-31.4-66.346-45.556-21.145-16.23-37.848-29.072-54.472-33.25-6.183-1.546-12.159-3.54-18.476-5.639-19.952-6.626-42.568-14.138-84.61-12.644-30.416,1.085-62.417,5.825-93.364,10.413-22.232,3.292-43.23,6.4-61.91,7.873l-.021-.258c18.672-1.468,39.672-4.578,61.894-7.873,30.952-4.588,62.961-9.331,93.39-10.413,42.091-1.5,64.728,6.02,84.7,12.657,6.312,2.1,12.27,4.075,18.458,5.631,16.675,4.191,33.394,17.036,54.565,33.3,18.417,14.146,39.289,30.179,66.315,45.538,62.935,35.762,138.23,57.883,223.791,65.75q25.725,2.365,52.6,2.367c68.587,0,143.207-11.572,226.485-35.035,39.116-11.018,74.612-23.476,108.937-35.522,45.389-15.931,88.258-30.978,130.4-39.075,26.045-5,60.768-11.049,98.408-13.4a537.244,537.244,0,0,1,113.471,4.83c59.825,8.991,118.121,27.266,174.5,44.94,21.944,6.878,42.671,13.375,63.391,19.321l-.07.242c-20.722-5.946-41.45-12.445-63.4-19.321-56.366-17.672-114.653-35.945-174.458-44.93-78.355-11.611-141.334-4.975-211.791,8.563-42.127,8.094-84.989,23.139-130.367,39.064-34.33,12.049-69.829,24.507-108.952,35.527C833.2,407.872,785.5,417.8,741.218,423.329A687.143,687.143,0,0,1,655.865,428.844Z" transform="translate(0.234 83.396)" fill="#0e0e0e"/>
        <path id="パス_4290" data-name="パス 4290" d="M635.714,436.4q-16.781,0-33.031-.925c-89.7-5.09-162.469-24.731-222.469-60.024-30.991-18.231-54.328-39-73.08-55.691-17.363-15.457-31.078-27.66-45.1-33.533-5.667-2.373-11.124-5.222-16.912-8.244-19.87-10.361-42.4-22.111-85.847-22.052-35.035.041-73.448,7.12-107.347,13.368-18.267,3.364-35.525,6.546-51.105,8.481L.8,277.518c15.573-1.935,32.828-5.114,51.092-8.478,33.9-6.234,72.34-13.316,107.391-13.352h.286c43.333,0,65.825,11.729,85.677,22.083,5.783,3.014,11.247,5.863,16.894,8.244,14.055,5.889,27.784,18.11,45.165,33.58,18.744,16.68,42.068,37.439,73.038,55.66,59.965,35.275,132.7,54.9,222.358,59.988,79.18,4.493,168.221-7.424,280.234-37.508,31.648-8.5,61.119-17.59,89.616-26.38,53.267-16.431,103.578-31.944,152.277-38.067,37.611-4.73,69.5-7.038,100.317-7.267a677.278,677.278,0,0,1,114.5,8.919c56.932,9.339,112.894,25.336,167.016,40.808,25.65,7.332,49.876,14.256,74.079,20.475l-.064.258c-24.216-6.221-48.431-13.138-74.082-20.478-54.119-15.47-110.078-31.467-166.987-40.8a682.763,682.763,0,0,0-109.79-8.926c-39.332,0-74.066,3.364-104.959,7.249-48.689,6.116-98.977,21.639-152.234,38.057-28.5,8.792-57.963,17.881-89.626,26.382-52.736,14.169-99.3,24.089-142.357,30.339C703.288,433.714,668.675,436.4,635.714,436.4Z" transform="translate(0.253 81.015)" fill="#0e0e0e"/>
        <path id="パス_4291" data-name="パス 4291" d="M614.047,444.629q-6.306,0-12.512-.134c-41.782-.891-78.072-4.748-110.949-11.791A392.131,392.131,0,0,1,434.471,416.4a323.554,323.554,0,0,1-53.983-26.163c-34.288-20.867-58.463-45.855-77.889-65.918-13.821-14.28-25.761-26.611-37.64-33.724-5.17-3.091-10.189-6.7-15.5-10.536-19.743-14.215-42.12-30.329-86.931-31.766-38.343-1.229-80.319,8.089-117.35,16.309C29.4,268.1,14.495,271.41.9,273.7l-.041-.258c13.592-2.288,28.489-5.6,44.266-9.1,37.042-8.213,79.033-17.533,117.417-16.3,20.006.641,37.374,4.307,53.1,11.209,13.733,6.028,24.473,13.772,33.974,20.609,5.307,3.823,10.323,7.432,15.485,10.523,11.909,7.131,23.858,19.475,37.689,33.765,19.416,20.06,43.578,45.026,77.84,65.879C456.18,436.012,542.895,443,601.548,444.25c93.854,2,190.7-19.174,281.378-42.357,22.32-5.706,43.707-11.541,64.4-17.185,66.119-18.033,123.221-33.613,180.053-37.117a945.1,945.1,0,0,1,102.229-1.108,900.08,900.08,0,0,1,115.537,12.981c52.579,9.336,104.732,22.912,155.168,36.037,30.872,8.038,60.024,15.627,89.134,22.268l-.057.258c-29.11-6.644-58.264-14.236-89.134-22.271-50.433-13.125-102.582-26.7-155.15-36.035-73.716-12.942-140.86-16.6-217.706-11.868-56.806,3.5-113.9,19.063-180,37.1-20.684,5.644-42.073,11.479-64.4,17.185-57.847,14.79-101.927,24.4-142.924,31.171C693.967,440.9,652.594,444.629,614.047,444.629Z" transform="translate(0.272 78.557)" fill="#0e0e0e"/>
        <path id="パス_4292" data-name="パス 4292" d="M587.7,453.652c-37.38,0-68.661-2.507-97.609-7.785a347.129,347.129,0,0,1-55.9-14.882,278.542,278.542,0,0,1-53.421-25.926c-37.024-23.3-61.508-52.635-81.179-76.2-11.569-13.862-21.56-25.831-31.7-33.858-4.714-3.73-9.31-7.986-14.169-12.523-19.579-18.2-41.78-38.82-87.934-41.785-40.981-2.633-85.772,9.016-125.293,19.293-14.061,3.653-27.328,7.1-39.526,9.678L.916,269.4c12.2-2.576,25.46-6.026,39.5-9.679,39.538-10.281,84.353-21.933,125.372-19.3C186.4,241.748,204.126,246.776,220,255.8c13.849,7.87,24.489,17.755,33.874,26.477,4.864,4.518,9.457,8.785,14.169,12.51,10.163,8.043,20.161,20.022,31.738,33.892,19.661,23.556,44.129,52.872,81.12,76.155,71.05,44.716,154.619,49.387,219.486,48.46,93.683-1.337,194.011-25.7,282.524-47.2,10.25-2.489,20.406-4.987,30.226-7.4,80.169-19.718,149.416-36.751,216.686-36.751h.088c35.174,0,69.239,1.667,104.135,5.07,36.9,3.607,75.025,9.166,116.573,17.02,45.492,8.687,91.022,19.5,135.051,29.966,38.977,9.274,75.792,18.007,112.456,25.365l-.052.258c-36.666-7.357-73.484-16.106-112.461-25.367-44.029-10.462-89.554-21.279-135.041-29.963-80.725-15.258-148.779-22.07-220.661-22.085h-.088c-67.237,0-136.468,17.026-216.627,36.741-9.82,2.416-19.975,4.915-30.226,7.4-51.458,12.5-97.774,23.533-143.49,31.97-52.391,9.668-97.893,14.656-139.093,15.243Q593.93,453.652,587.7,453.652Z" transform="translate(0.291 76.059)" fill="#0e0e0e"/>
        <path id="パス_4293" data-name="パス 4293" d="M558.99,463.757a469.5,469.5,0,0,1-69.388-4.737,311.016,311.016,0,0,1-55.7-13.445A243.49,243.49,0,0,1,381.041,419.9c-39.278-25.55-63.674-59.351-83.276-86.512-9.789-13.553-18.231-25.259-26.954-33.971-4.279-4.271-8.47-9.094-12.909-14.2-18.435-21.2-41.375-47.589-88.876-52.12C125.814,228.979,78.632,243.031,37,255.428c-12.757,3.8-24.811,7.388-35.96,10.207l-.062-.242c11.144-2.818,23.185-6.407,35.952-10.207,41.648-12.4,88.856-26.462,132.119-22.335,21.2,2.022,39.291,8.463,55.317,19.687,13.957,9.789,24.473,21.858,33.729,32.518,4.434,5.1,8.622,9.918,12.881,14.184,8.741,8.725,17.193,20.439,26.982,34,19.591,27.142,43.972,60.923,83.209,86.447,67.474,43.887,148.094,46.205,218.061,42.694,77.541-3.893,155.513-22.155,238.065-41.476,14.9-3.491,30.311-7.1,45.6-10.585,94.917-22.054,173.562-38.559,249.55-34,63.695,3.818,130.581,13.481,223.654,32.307,32.16,6.567,64.638,13.713,96.046,20.627,53.671,11.814,104.364,22.971,154.666,31.728l-.044.258c-50.3-8.759-101-19.916-154.676-31.73-31.406-6.912-63.888-14.06-96.043-20.624-93.06-18.824-159.936-28.484-223.608-32.3-75.952-4.552-154.581,11.948-249.477,34-15.294,3.488-30.7,7.095-45.6,10.585-82.562,19.321-160.547,37.583-238.109,41.476C587.2,463.244,573.586,463.757,558.99,463.757Z" transform="translate(0.311 73.546)" fill="#0e0e0e"/>
        <path id="パス_4294" data-name="パス 4294" d="M1615.473,482.872c-83.745-12.432-170.264-31.217-253.934-49.382l-20.589-4.444c-75.48-16.31-140.69-30.4-205.984-38.075a453.241,453.241,0,0,0-53.068-2.978c-66.073,0-134.106,12.582-198.952,26.825-27.539,5.943-55.023,12.461-81.6,18.764C731.1,450.238,664.756,465.97,598.085,471.731c-30.249,2.612-69.975,5.023-108.97.433a281.139,281.139,0,0,1-55.485-12,215.3,215.3,0,0,1-52.311-25.414c-41.125-27.634-65.14-65.977-84.435-96.785-8.012-12.79-15.578-24.872-23.144-34.116-3.864-4.719-7.661-9.982-11.685-15.552-18.226-25.246-40.909-56.636-89.783-62.773-45.188-5.667-94.49,10.84-137.985,25.411-11.755,3.939-22.858,7.656-33.181,10.683l-.07-.24c10.317-3.027,21.418-6.744,33.17-10.681,20.867-6.994,44.541-14.921,68.074-20.2,26.951-6.049,49.856-7.757,70.022-5.224,21.8,2.736,40.257,10.637,56.417,24.151,14.053,11.75,24.4,26.081,33.536,38.724,4.021,5.567,7.819,10.82,11.675,15.539,7.576,9.256,15.148,21.343,23.162,34.141,19.285,30.79,43.279,69.107,84.363,96.71C446.117,478,527.25,477.6,598.075,471.478c66.637-5.758,132.975-21.488,203.205-38.14,26.583-6.3,54.068-12.821,81.609-18.765,54.155-11.9,94.943-19.009,132.253-23.064,44.284-4.81,83.487-5.07,119.849-.788C1200.3,398.406,1265.5,412.492,1341,428.8q10.15,2.195,20.591,4.444c83.665,18.164,170.182,36.949,253.919,49.379Z" transform="translate(0.329 71.021)" fill="#0e0e0e"/>
        <path id="パス_4295" data-name="パス 4295" d="M1624.174,504.514c-79.455-9.833-165.972-25.447-257.149-46.409-30.6-6.986-59.182-14.055-86.816-20.892-49.31-12.2-95.886-23.718-142.718-31.844a478.386,478.386,0,0,0-82.307-6.816c-49.977,0-105.789,6.752-172.253,20.519-37.5,7.633-74.6,16.783-110.477,25.633-60.493,14.918-117.631,29.01-175.5,36.125-32.511,4-70.8,7.654-108.331,4.462a256.058,256.058,0,0,1-55.266-10.536,191.936,191.936,0,0,1-51.76-25.14c-42.63-29.576-66.049-72.5-84.865-106.994-6.914-12.675-13.445-24.643-20.06-34.324-3.462-5.07-6.886-10.663-10.511-16.585-17.987-29.391-40.373-65.969-90.641-73.749-46.983-7.272-100.469,12.59-143.428,28.551-10.938,4.063-21.269,7.9-30.914,11.106l-.077-.237c9.642-3.207,19.97-7.043,30.914-11.106,21.621-8.03,46.128-17.134,70.632-23.141,28.111-6.891,51.963-8.666,72.922-5.41,50.384,7.8,72.8,44.43,90.816,73.865,3.625,5.925,7.046,11.51,10.505,16.575,6.621,9.691,13.154,21.665,20.071,34.345,18.806,34.469,42.207,77.366,84.788,106.909,62.01,43.021,140.067,40.409,215.184,31.171,57.86-7.115,114.991-21.207,175.473-36.122,35.88-8.849,72.979-18,110.488-25.632,50.474-10.456,94.091-16.745,133.34-19.254,43.98-2.8,83.662-.984,121.313,5.549,46.834,8.128,93.413,19.651,142.717,31.849,27.639,6.835,56.216,13.911,86.815,20.89,91.169,20.959,177.678,36.581,257.126,46.4Z" transform="translate(0.348 68.486)" fill="#0e0e0e"/>
        <path id="パス_4296" data-name="パス 4296" d="M1632.872,526.16c-91.71-9.163-179.3-23.775-260.364-43.434-42.285-10.194-80.9-21.382-118.244-32.2-39.216-11.366-76.253-22.1-114.233-30.743-35.154-8-71.758-12.012-111.031-12.012-44.639,0-92.72,5.181-146.079,15.568-45.963,8.8-91.056,20.563-134.662,31.944-52.435,13.677-101.963,26.6-152.453,34.667-29.311,4.686-60.372,8.885-91.28,8.885q-8.215,0-16.4-.415c-20.184-1.051-38.189-4.019-55.042-9.071a172.911,172.911,0,0,1-51.213-24.854c-19.514-13.976-36.488-32.24-51.891-55.835-13.4-20.519-23.721-42.171-32.833-61.278-6.023-12.623-11.714-24.563-17.543-34.623-3.091-5.32-6.141-11.134-9.38-17.291-17.719-33.678-39.768-75.589-91.453-85.053C130.113,201.5,74.75,224.04,30.265,242.15c-10.256,4.176-19.942,8.117-29.018,11.482L1.16,253.4c9.073-3.364,18.757-7.306,29.01-11.479,22.312-9.083,47.6-19.378,73.01-26.127,29.2-7.759,53.939-9.6,75.635-5.626,51.809,9.488,73.891,51.458,91.633,85.182,3.238,6.154,6.3,11.969,9.375,17.283,5.835,10.07,11.528,22.005,17.554,34.641,18.2,38.163,40.85,85.656,84.644,117.018,62.754,44.94,143.233,36.681,213.749,25.411,50.477-8.068,100-20.988,152.427-34.664,43.611-11.376,88.706-23.139,134.68-31.944,49.155-9.57,93.122-14.617,134.409-15.428,43.75-.858,83.917,3.024,122.794,11.873,37.982,8.648,75.027,19.383,114.249,30.749,37.354,10.82,75.962,22.016,118.244,32.2,81.048,19.656,168.636,34.262,260.331,43.428Z" transform="translate(0.368 65.947)" fill="#0e0e0e"/>
        <path id="パス_4297" data-name="パス 4297" d="M1641.576,547.82c-47.849-3.681-90.832-8.372-131.4-14.339a1291.929,1291.929,0,0,1-132.178-26.122c-49.225-12.486-93.83-27.464-136.97-41.947-33.7-11.314-65.524-22-98.47-31.225-78.495-21.98-163.424-24.136-259.643-6.59-53.4,9.586-105.384,24.077-155.655,38.088-45.533,12.693-88.539,24.682-132.593,33.363-30.883,6.087-66.539,12.51-101.731,12.51-1.772,0-3.534-.015-5.3-.049-20.176-.381-38.106-2.865-54.812-7.592a156.66,156.66,0,0,1-50.665-24.558c-19.957-14.748-37.032-34.378-52.2-60.024-13.2-22.314-23.154-46.113-31.944-67.106-5.3-12.662-10.3-24.62-15.475-35.035-2.718-5.467-5.428-11.394-8.3-17.667-17.415-38.091-39.085-85.494-92.225-96.685-50.234-10.58-107.391,14.684-153.318,34.971-9.668,4.274-18.806,8.308-27.387,11.809l-.093-.232c8.591-3.493,17.726-7.515,27.389-11.8,22.961-10.147,48.988-21.639,75.262-29.154,30.236-8.643,55.82-10.562,78.209-5.835,23.667,4.985,43.215,17.577,59.722,38.5,14.285,18.092,24.058,39.469,32.681,58.329,2.867,6.273,5.575,12.2,8.293,17.662,5.181,10.42,10.183,22.384,15.48,35.035,17.5,41.852,39.286,93.936,84.054,127.016,65.691,48.545,157.479,30.455,212.314,19.648,44.052-8.682,87.047-20.668,132.573-33.358,50.278-14.017,102.272-28.507,155.681-38.1,48.308-8.81,92.622-12.6,135.463-11.593a524.22,524.22,0,0,1,63.29,5.273,488.8,488.8,0,0,1,61,12.917c32.954,9.225,64.785,19.913,98.483,31.228,43.135,14.483,87.738,29.458,136.952,41.945,77.351,19.718,161.09,32.57,263.538,40.445Z" transform="translate(0.384 63.397)" fill="#0e0e0e"/>
        <path id="パス_4298" data-name="パス 4298" d="M1650.274,569.473c-51.291-2.805-93.66-6.52-133.338-11.693-48.5-6.319-92.156-14.756-133.459-25.792-53.867-14.336-102.612-32.974-149.75-51.02-30.277-11.593-58.877-22.526-88.645-32.372-82.4-27.253-168.162-32.717-262.185-16.745-60.117,10.086-118.224,27.5-174.419,44.338-37.7,11.3-76.676,22.977-114.962,31.965-34.193,8.027-70.586,15.908-106.394,16.433-20.161.291-38.013-1.7-54.575-6.108a142.63,142.63,0,0,1-50.119-24.254c-20.31-15.48-37.413-36.442-52.3-64.084-12.958-24.084-22.5-50.028-30.914-72.92-4.694-12.76-9.125-24.811-13.754-35.569-2.373-5.516-4.748-11.441-7.26-17.711-17.075-42.635-38.325-95.693-92.947-108.653-51.742-12.275-110.621,15.74-157.932,38.253-9.156,4.356-17.8,8.47-25.952,12.09l-.1-.229c8.151-3.607,16.794-7.728,25.947-12.087C74.562,210.793,133.5,182.752,185.336,195.05c24.313,5.768,44.209,20.035,60.825,43.616,14.341,20.351,23.881,44.17,32.3,65.176,2.512,6.273,4.895,12.2,7.254,17.708,4.637,10.763,9.065,22.819,13.759,35.581,16.745,45.523,37.573,102.18,83.116,136.888,63.586,48.462,152.226,27.655,210.879,13.885,38.279-8.986,77.256-20.666,114.947-31.962,56.2-16.84,114.318-34.262,174.45-44.343a630.263,630.263,0,0,1,69.792-7.986,549.285,549.285,0,0,1,66.706.234,503.491,503.491,0,0,1,125.808,24.5c29.772,9.846,58.372,20.789,88.655,32.374,47.143,18.033,95.87,36.679,149.725,51.007,95.474,25.5,192.694,33.425,266.745,37.475Z" transform="translate(0.404 60.852)" fill="#0e0e0e"/>
        <path id="パス_4299" data-name="パス 4299" d="M1658.968,591.143c-54.57-1.8-96.29-4.6-135.272-9.045-49.511-5.644-93.583-13.973-134.731-25.465-57.237-15.936-109.122-38.212-159.3-59.751-26.761-11.487-54.433-23.368-82.047-33.858-85.934-32.652-172.526-41.445-264.728-26.884-66.333,10.353-130.028,30.939-191.623,50.85-32.4,10.472-65.908,21.3-98.892,30.3-30.316,8.272-68.046,18.566-105.766,20.393-20.135.976-37.905-.533-54.328-4.619a130.547,130.547,0,0,1-49.572-23.94c-20.588-16.178-37.66-38.436-52.185-68.043-12.672-25.828-21.773-53.921-29.8-78.708-4.186-12.919-8.141-25.122-12.306-36.236-2.061-5.456-4.1-11.268-6.27-17.42-15.82-44.812-37.483-106.183-93.624-120.957-53.2-14-113.746,16.82-162.4,41.584-8.694,4.423-16.9,8.6-24.669,12.322l-.108-.227c7.762-3.717,15.972-7.9,24.664-12.319,48.689-24.782,109.284-55.626,162.574-41.6,24.973,6.572,45.229,22.569,61.933,48.91,14.382,22.685,23.669,48.993,31.864,72.206,2.172,6.149,4.222,11.961,6.268,17.415,4.171,11.119,8.125,23.324,12.311,36.249,16.745,51.731,35.754,110.364,81.9,146.631,61.647,48.431,147.071,25.138,209.439,8.12,32.974-9,66.482-19.836,98.88-30.3,61.608-19.911,125.313-40.5,191.664-50.858a547.442,547.442,0,0,1,70.2-6.559,505.034,505.034,0,0,1,67.319,2.643,499.288,499.288,0,0,1,64.772,11.335A529.843,529.843,0,0,1,1147.7,462.8c27.619,10.5,55.294,22.374,82.057,33.863,50.17,21.536,102.048,43.794,159.272,59.74,91.21,25.47,183.647,31.635,269.952,34.5Z" transform="translate(0.427 58.302)" fill="#0e0e0e"/>
        <path id="パス_4300" data-name="パス 4300" d="M1667.668,612.792c-83.353-1.03-180.071-4.415-273.224-31.534-59.828-17.386-114.262-43.261-166.9-68.283-25.225-11.989-51.311-24.388-77.4-35.551-89.186-38.142-176.609-50.253-267.268-37.029-72.2,10.438-141.1,34.494-207.729,57.757-27.485,9.594-55.9,19.517-83.923,28.24l-.052.015c-36.354,11.317-80.517,25.066-122.9,25.066-30.55,0-60.176-7.141-85.29-27.485-20.756-16.809-37.707-40.265-51.824-71.72-12.332-27.467-20.97-57.638-28.6-84.26-3.8-13.285-7.4-25.833-11.222-37.429-1.7-5.191-3.4-10.66-5.206-16.451-15.418-49.48-36.542-117.258-94.369-133.93C137.15,164.456,74.977,198.111,25.019,225.155c-8.277,4.477-16.093,8.71-23.5,12.523l-.116-.224c7.409-3.8,15.222-8.032,23.5-12.51,24.764-13.4,52.834-28.6,81.527-38.459,33.155-11.407,61.1-13.538,85.409-6.512,25.7,7.409,46.37,25.246,63.161,54.55,14.426,25.174,23.443,54.065,31.382,79.556,1.8,5.789,3.509,11.258,5.2,16.446,3.831,11.593,7.422,24.151,11.227,37.439,15.859,55.387,33.832,118.182,80.329,155.856,59.854,48.483,145.453,21.833,207.955,2.375l.054-.015c28.013-8.723,56.433-18.643,83.915-28.237,66.644-23.268,135.556-47.326,207.772-57.77a485.93,485.93,0,0,1,69.87-5.124h.734a471.638,471.638,0,0,1,67.919,5.052,494.754,494.754,0,0,1,65.508,14.352,556.863,556.863,0,0,1,63.373,22.768c26.094,11.16,52.182,23.559,77.41,35.55,52.633,25.019,107.056,50.889,166.866,68.267,93.114,27.111,189.822,30.489,273.16,31.527Z" transform="translate(0.444 55.746)" fill="#0e0e0e"/>
        <path id="パス_4301" data-name="パス 4301" d="M1649.778,634.571c-36.615,0-74.785-.755-112.546-3.864-51.206-4.22-96.115-12.334-137.308-24.808-61.907-18.734-118.5-48.194-173.24-76.684-24.115-12.551-49.047-25.529-74.017-37.354-92.225-43.707-180.473-59.138-269.813-47.174C805.04,455.053,731.2,482.914,659.783,509.863c-22.827,8.612-46.432,17.518-69.71,25.671l-2.061.719c-37.207,13.038-82.694,28.974-125.738,28.976-28.451,0-55.822-6.956-79.03-26.336-20.944-17.484-37.794-42.2-51.523-75.576-12-29.185-19.818-60.132-27.374-90.056-3.411-13.5-6.628-26.246-10.086-38.186-1.435-4.977-2.878-10.183-4.4-15.7C274.871,265.267,254.347,191.16,195,172.674,139.055,155.107,75.3,191.642,24.067,221c-7.919,4.537-15.395,8.823-22.5,12.705l-.121-.219c7.1-3.885,14.578-8.169,22.495-12.7,25.328-14.514,54.034-30.962,83.487-41.628,34.072-12.34,62.742-14.537,87.642-6.721,59.508,18.512,80.051,92.7,95.059,146.865,1.525,5.513,2.968,10.717,4.4,15.694,3.457,11.943,6.677,24.695,10.086,38.191,14.957,59.225,31.91,126.351,78.809,165.5C441.629,587.27,526.2,557.637,587.953,536l2.048-.719c23.278-8.153,46.886-17.057,69.7-25.668C731.131,482.664,805,454.8,882.834,444.437a438.113,438.113,0,0,1,71-3.694,445.767,445.767,0,0,1,68.525,7.471A494.6,494.6,0,0,1,1088.6,465.59a589.534,589.534,0,0,1,64.2,26.052c24.973,11.837,49.91,24.816,74.025,37.354,54.722,28.487,111.312,57.942,173.2,76.666,91.118,27.6,186.491,29.236,276.367,28.551v.258Q1663.246,634.558,1649.778,634.571Z" transform="translate(0.459 53.188)" fill="#0e0e0e"/>
        <path id="パス_4302" data-name="パス 4302" d="M1617.637,657.218c-24.216,0-49.137-.559-73.644-2.205-51.968-3.491-97.3-11.5-138.583-24.473-63.63-20.011-122.137-53.048-178.714-85-23.283-13.151-47.362-26.748-71.5-39.271-77.8-40.365-151.595-60.256-224.159-60.256a397.415,397.415,0,0,0-48.189,2.933c-83.294,10.164-161.9,42.208-237.926,73.2-18.337,7.471-37.3,15.2-56,22.492l-3.7,1.443c-37.952,14.8-84.618,33.008-128.131,33.01-26.6,0-52.02-6.8-73.569-25.331-21.083-18.133-37.8-44.093-51.105-79.345-11.654-30.883-19.007-63.888-26.119-95.832-3.066-13.757-5.959-26.75-9.091-39.054-1.175-4.616-2.355-9.4-3.607-14.468-7.038-28.518-15.8-64.009-30.228-94.155-16.845-35.2-38.147-56.724-65.119-65.8C140.923,145.818,75.577,185.254,23.084,216.94,15.541,221.484,8.428,225.786,1.65,229.7l-.126-.216c6.775-3.923,13.888-8.215,21.418-12.76C48.829,201.1,78.171,183.394,108.4,171.9c35.01-13.313,64.429-15.611,89.943-7.028,14.339,4.825,27.348,13.4,38.673,25.5,9.98,10.663,18.68,23.886,26.593,40.425,14.442,30.169,23.206,65.676,30.246,94.2,1.249,5.065,2.432,9.849,3.607,14.465,3.133,12.309,6.028,25.3,9.091,39.062,14.04,63.02,29.95,134.448,77.145,175.04,56.675,48.753,140.353,16.111,201.453-7.728l3.7-1.44c18.7-7.288,37.66-15.016,56-22.492,37.975-15.48,77.243-31.488,116.675-44.59,44.255-14.7,83.933-24.066,121.3-28.626,88.24-10.766,177.379,7.986,272.5,57.347,24.138,12.528,48.217,26.125,71.5,39.276,56.564,31.944,115.055,64.972,178.667,84.976,89.629,28.183,183.389,28.178,279.572,25.573v.258C1663.927,656.693,1641.108,657.218,1617.637,657.218Z" transform="translate(0.483 50.635)" fill="#0e0e0e"/>
        <path id="パス_4303" data-name="パス 4303" d="M1673.052,652.775c-39.834-.258-82.276-.773-124.728-4.23-46.2-3.756-86.6-10.585-123.515-20.867-8.36-2.318-16.706-4.895-24.806-7.612-60.33-20.158-116.361-52.247-170.54-83.279-24.806-14.2-50.456-28.9-76.228-42.279-32.39-16.822-64.5-30.1-95.427-39.464-59.187-17.878-116.225-22.51-174.368-14.169-44.065,6.337-89.67,19.081-147.87,41.319-23.067,8.836-46.37,18.522-68.909,27.887-23.765,9.877-48.338,20.094-72.714,29.342-18.4,6.94-43.611,16.446-68.942,22.956-28.062,7.213-51.989,9.725-73.147,7.687A118.977,118.977,0,0,1,419.3,562.41a104.136,104.136,0,0,1-29.6-17.992c-47.03-40.608-63.973-111.072-78.92-173.245-3.31-13.769-6.44-26.774-9.789-39.118-1.365-5-2.738-10.191-4.191-15.686-5.863-22.155-12.5-47.293-21.838-71.155-18.4-47.5-42.607-75.851-74.015-86.684a95.857,95.857,0,0,0-34.415-5.062c-21.714.688-45.2,7.213-76.145,21.124-21.915,9.913-43.39,22.062-62.342,32.779-8.331,4.712-16.2,9.163-23.675,13.195l-.121-.222c7.471-4.029,15.341-8.481,23.672-13.192,18.95-10.719,40.43-22.871,62.355-32.789,30.991-13.932,54.5-20.457,76.248-21.147a96.1,96.1,0,0,1,34.5,5.075c31.483,10.864,55.742,39.263,74.146,86.831,9.338,23.878,15.972,49.011,21.846,71.184,1.453,5.495,2.834,10.686,4.191,15.686,3.364,12.347,6.492,25.354,9.789,39.124,14.942,62.136,31.869,132.56,78.83,173.116,17.2,14.844,37.483,23.211,62.01,25.581,48.4,4.663,102.483-15.735,141.975-30.628,24.373-9.251,48.946-19.463,72.709-29.339,22.539-9.367,45.855-19.05,68.914-27.889,58.221-22.245,103.846-34.994,147.929-41.334a390.157,390.157,0,0,1,88.686-2.535,422.576,422.576,0,0,1,85.785,16.711c30.947,9.367,63.069,22.652,95.471,39.479,25.777,13.4,51.427,28.08,76.235,42.285,54.176,31.027,110.194,63.115,170.5,83.258,8.1,2.723,16.438,5.284,24.793,7.61,79.893,22.276,159.663,24.545,248.176,25.1Z" transform="translate(1.349 48.532)" fill="#0e0e0e"/>
        <path id="パス_4304" data-name="パス 4304" d="M1661.03,649.437c-40.832-1.7-80.839-3.607-121.348-8.128-45.219-5.052-84.726-12.806-120.779-23.7-8.179-2.465-16.358-5.152-24.311-8.017-57.074-20.243-110.621-51.376-162.407-81.483-26.312-15.3-53.519-31.12-80.929-45.366-32.184-16.745-64.081-29.806-94.8-38.861-58.128-17.054-114.529-20.679-172.428-11.077-53.872,8.968-103.56,27.147-145.075,43.75-18.242,7.334-36.746,15.246-54.64,22.9-27.822,11.894-56.579,24.192-85.363,34.76-20.39,7.484-44.521,15.89-68.9,21.5-27.7,6.371-51.438,8.244-72.585,5.742a122.153,122.153,0,0,1-32.238-8.213,107.509,107.509,0,0,1-29.368-18.149c-46.816-40.574-64.774-110.06-80.617-171.367-3.555-13.759-6.914-26.756-10.505-39.124-1.517-5.194-3.045-10.585-4.663-16.294-6.157-21.737-13.138-46.37-22.487-69.78-18.919-47.349-43.106-75.663-73.935-86.558a91.113,91.113,0,0,0-34.3-5.106c-25.859,1.072-51.78,10.82-75.947,21.217-21,9.12-41.733,20.094-60.044,29.759-9.248,4.869-17.976,9.488-26.243,13.61L7,211.228c8.262-4.122,17-8.746,26.23-13.63C51.54,187.921,72.285,176.952,93.3,167.83c24.187-10.4,50.139-20.166,76.04-21.238a91.357,91.357,0,0,1,34.394,5.119c30.914,10.923,55.129,39.286,74.089,86.707,9.356,23.414,16.338,48.06,22.5,69.813,1.618,5.706,3.145,11.1,4.663,16.291,3.607,12.365,6.956,25.37,10.508,39.131,15.833,61.271,33.781,130.715,80.537,171.24,17.1,14.8,37.2,23.409,61.464,26.3,44.624,5.291,94.315-9.959,141.368-27.23C627.634,523.4,656.4,511.1,684.208,499.21c17.894-7.651,36.4-15.562,54.642-22.9,27.24-10.894,49.907-19.092,71.336-25.795a546,546,0,0,1,73.793-17.971,379.057,379.057,0,0,1,87.364-4.32,398.5,398.5,0,0,1,85.177,15.405c30.738,9.06,62.651,22.155,94.85,38.879,27.415,14.251,54.627,30.071,80.939,45.371,51.78,30.1,105.312,61.229,162.366,81.465,7.948,2.852,16.124,5.549,24.3,8.014,77.132,23.319,155.263,28.209,242.066,31.826Z" transform="translate(2.22 46.421)" fill="#0e0e0e"/>
        <path id="パス_4305" data-name="パス 4305" d="M1649.014,646.087c-41.893-3.326-79.682-6.523-117.971-12.028-44.258-6.36-82.869-15.039-118.046-26.534-7.643-2.489-15.434-5.245-23.814-8.424-53.774-20.393-104.8-50.492-154.15-79.6-27.853-16.41-56.659-33.389-85.749-48.534-31.975-16.637-63.664-29.51-94.183-38.258-57.115-16.258-112.883-18.873-170.488-7.986-51.541,9.789-100.845,28.837-142.28,46.182-14.735,6.214-29.726,12.834-44.224,19.239-30.581,13.509-62.2,27.477-94.157,38.845-16.974,6.038-42.583,14.684-68.865,20.024-27.333,5.554-50.889,6.8-72.013,3.815a125.853,125.853,0,0,1-31.923-8.759,111.388,111.388,0,0,1-29.126-18.311C355.412,485.19,336.449,416.66,319.7,356.2c-3.8-13.731-7.391-26.7-11.211-39.077-1.705-5.479-3.424-11.17-5.242-17.193-6.407-21.227-13.666-45.288-23.031-68.108-19.36-47.174-43.537-75.452-73.888-86.447a86.888,86.888,0,0,0-34.185-5.152c-25.486,1.288-50.376,10.82-75.754,21.3C76.36,169.79,57.307,179.193,38.88,188.286c-10.238,5.052-19.908,9.825-29.038,14.042l-.106-.229c9.127-4.215,18.806-8.986,29.033-14.037C57.2,178.974,76.26,169.568,96.3,161.291c25.4-10.487,50.312-20.011,75.836-21.312a87.094,87.094,0,0,1,34.283,5.152c16.745,6.062,31.926,17.7,45.134,34.6,10.722,13.718,20.176,30.723,28.9,51.986,9.369,22.832,16.631,46.886,23.041,68.128,1.816,6.026,3.534,11.714,5.242,17.2,3.82,12.365,7.409,25.349,11.211,39.082,16.724,60.428,35.679,128.917,82.235,169.422,17,14.774,36.924,23.61,60.92,27.021,46.8,6.615,99.807-9.261,140.76-23.829,31.944-11.366,63.561-25.331,94.139-38.838,14.5-6.4,29.489-13.027,44.227-19.239,41.447-17.353,90.767-36.408,142.331-46.2a368.646,368.646,0,0,1,86.043-6.105,376.069,376.069,0,0,1,84.566,14.1c30.535,8.759,62.239,21.639,94.229,38.279,29.1,15.137,57.9,32.127,85.762,48.555,49.338,29.11,100.358,59.189,154.109,79.574,8.377,3.176,16.165,5.925,23.806,8.419C1493.2,633.472,1576,640.041,1649.04,645.835Z" transform="translate(3.086 44.317)" fill="#0e0e0e"/>
        <path id="パス_4306" data-name="パス 4306" d="M1636.992,642.753h-.044c-75.406-9.016-153.377-18.337-229.858-45.288-7.3-2.561-14.941-5.448-23.322-8.828-50.538-20.351-99-49.42-145.868-77.529-29.4-17.634-59.8-35.867-90.592-51.9-31.766-16.547-63.244-29.216-93.562-37.655-56.141-15.49-111.276-17.1-168.546-4.895-49.008,10.5-96,29.566-139.484,48.614-11.974,5.291-24.18,10.879-35.986,16.281C677.12,496.46,643.4,511.9,608.958,523.767c-25.694,8.854-48.21,14.923-68.834,18.548-26.586,4.678-50.621,5.315-71.439,1.888a129.522,129.522,0,0,1-31.606-9.32,115.475,115.475,0,0,1-28.891-18.476c-46.427-40.546-66.4-108.143-84.02-167.783-4.042-13.682-7.86-26.6-11.9-38.969-1.909-5.765-3.828-11.75-5.858-18.087-6.639-20.717-14.169-44.2-23.541-66.444-19.816-47.009-43.969-75.249-73.834-86.329a82.915,82.915,0,0,0-34.069-5.186c-25.182,1.525-49.441,11.077-75.125,21.2l-.433.17c-18.883,7.44-36.98,15.735-54.483,23.754-11.412,5.232-22.193,10.173-32.341,14.475l-.1-.232c10.142-4.3,20.923-9.241,32.333-14.47,17.5-8.025,35.607-16.32,54.5-23.762l.433-.17c25.7-10.127,49.977-19.692,75.2-21.222a83.229,83.229,0,0,1,34.172,5.2c16.549,6.139,31.686,17.891,44.977,34.935,10.655,13.653,20.14,30.509,29,51.523,9.382,22.255,16.907,45.742,23.548,66.464,2.03,6.337,3.949,12.322,5.856,18.087,4.047,12.365,7.865,25.292,11.907,38.974,17.613,59.609,37.575,127.168,83.946,167.665,16.9,14.738,36.643,23.811,60.372,27.74,49.049,8.071,103.478-7.8,140.141-20.431,34.427-11.85,68.144-27.294,100.752-42.218,11.8-5.41,24.012-10.99,35.989-16.284,43.5-19.063,90.5-38.127,139.531-48.63A349.053,349.053,0,0,1,1053.8,421.3c30.334,8.445,61.827,21.124,93.614,37.673,30.813,16.042,61.211,34.278,90.615,51.912,46.857,28.106,95.317,57.167,145.832,77.513,8.385,3.377,16.011,6.263,23.311,8.823,76.452,26.944,154.411,36.262,229.8,45.276h.044Z" transform="translate(3.955 42.211)" fill="#0e0e0e"/>
        <path id="パス_4307" data-name="パス 4307" d="M1624.974,639.411l-7.038-1.141c-70.947-11.513-144.31-23.417-216.748-50.878-6.956-2.62-14.426-5.642-22.827-9.235-47.336-20.223-93.2-48.233-137.547-75.321-30.947-18.9-62.948-38.446-95.474-55.4-31.555-16.451-62.824-28.917-92.944-37.055-55.214-14.748-109.712-15.341-166.606-1.8-48.861,11.7-94.317,31.63-136.684,51.046-9.733,4.506-19.666,9.228-29.275,13.793-34.126,16.23-69.414,32.992-105.863,45.141-24.61,8.2-47.756,13.947-68.8,17.075-26.212,3.9-50.057,3.885-70.869-.033a133.93,133.93,0,0,1-31.29-9.877,119.976,119.976,0,0,1-28.654-18.651c-20.57-18.033-37.908-42.764-53-75.622-13.27-28.884-23.015-59.794-32.441-89.688-4.379-13.885-8.5-27-12.881-39.569-1.966-5.644-3.941-11.477-6.033-17.652-6.984-20.609-14.9-43.967-24.489-66.109-20.3-46.857-44.43-75.058-73.788-86.21a79.376,79.376,0,0,0-33.953-5.23c-22.907,1.61-44.825,9.905-68.025,18.687q-3.656,1.383-7.337,2.769c-17.518,6.564-34.42,13.736-50.775,20.671C38.8,174.557,26.678,179.7,15.307,184.091l-.093-.234c11.361-4.395,23.479-9.532,36.323-14.972,16.358-6.935,33.276-14.107,50.786-20.676q3.684-1.381,7.334-2.767c23.221-8.79,45.154-17.09,68.1-18.7a79.553,79.553,0,0,1,34.056,5.245c16.358,6.214,31.429,18.079,44.825,35.267,10.575,13.579,20.094,30.285,29.11,51.077,9.594,22.155,17.518,45.515,24.494,66.127,2.092,6.183,4.068,12.007,6.033,17.652,4.379,12.574,8.5,25.689,12.881,39.577,18.453,58.532,39.368,124.873,85.365,165.2,16.8,14.707,36.378,24.015,59.82,28.458,37.506,7.061,84.456,1.332,139.544-17.031,36.437-12.146,71.717-28.914,105.835-45.131,9.609-4.565,19.545-9.274,29.278-13.8,42.38-19.421,87.846-39.361,136.731-51.061a347.7,347.7,0,0,1,83.389-9.671,335.67,335.67,0,0,1,83.343,11.487c30.141,8.141,61.423,20.609,93,37.073,32.534,16.961,64.537,36.509,95.489,55.413,44.343,27.083,90.2,55.088,137.514,75.305,8.409,3.591,15.874,6.61,22.817,9.23,72.415,27.451,145.765,39.353,216.7,50.863l7.038,1.144Z" transform="translate(4.821 40.104)" fill="#0e0e0e"/>
        <path id="パス_4308" data-name="パス 4308" d="M1612.962,636.074l-14.684-3.048c-66.309-13.754-134.876-27.974-203-55.7-6.685-2.7-13.78-5.765-22.332-9.64-44.168-20-87.39-46.919-129.19-72.953-32.5-20.241-66.106-41.169-100.394-59.063-31.341-16.356-62.4-28.618-92.321-36.45-54.331-14.032-108.2-13.617-164.666,1.273-47.2,12.533-92.024,33.291-133.889,53.478-8.5,4.1-17.19,8.385-25.591,12.53-34.651,17.1-70.483,34.778-107.924,46.831a371.868,371.868,0,0,1-68.783,15.6c-25.828,3.125-49.48,2.468-70.295-1.958a138.681,138.681,0,0,1-30.975-10.431,125.032,125.032,0,0,1-28.42-18.806c-20.491-18.033-37.962-42.56-53.413-74.986-13.594-28.528-23.814-59.053-33.7-88.572-4.637-13.831-9.016-26.895-13.617-39.453-2.151-5.856-4.315-11.9-6.605-18.29-7.213-20.174-15.4-43.037-25.037-64.692-20.751-46.628-44.866-74.793-73.731-86.092a75.976,75.976,0,0,0-33.837-5.271c-21.013,1.633-40.96,8.983-62.085,16.765-4.269,1.571-8.682,3.2-13.089,4.768-15.781,5.621-31.171,11.629-46.035,17.44-14.625,5.711-28.44,11.108-41.329,15.627l-.082-.237c12.881-4.519,26.7-9.913,41.321-15.624,14.875-5.812,30.257-11.819,46.041-17.443,4.428-1.571,8.851-3.2,13.12-4.771,21.124-7.788,41.094-15.142,62.141-16.781a76.329,76.329,0,0,1,33.951,5.289c16.163,6.327,31.189,18.314,44.665,35.628,10.511,13.5,20.06,30.056,29.2,50.6,9.64,21.665,17.824,44.534,25.045,64.71,2.29,6.4,4.454,12.44,6.6,18.291,4.616,12.564,8.991,25.627,13.62,39.461,19.321,57.705,41.218,123.139,87.042,163.45,16.7,14.684,36.092,24.216,59.279,29.177,48.114,10.225,102.11-1.77,138.936-13.633,37.423-12.056,73.247-29.729,107.888-46.819,8.4-4.145,17.09-8.429,25.6-12.53,41.875-20.192,86.71-40.96,133.933-53.493a337.591,337.591,0,0,1,82.063-11.456,316.832,316.832,0,0,1,82.73,10.181c29.94,7.837,61.018,20.109,92.375,36.473,34.3,17.9,67.907,38.83,100.41,59.073,41.8,26.019,85.012,52.945,129.162,72.935,8.55,3.864,15.642,6.935,22.322,9.637,68.105,27.717,136.659,41.937,202.958,55.686q7.358,1.525,14.671,3.05Z" transform="translate(5.684 37.993)" fill="#0e0e0e"/>
        <path id="パス_4309" data-name="パス 4309" d="M1600.945,632.735c-7.6-1.96-15.395-3.947-22.928-5.871-61.495-15.678-125.084-31.89-188.621-59.6-6.322-2.741-13.259-5.925-21.835-10.047-41.032-19.676-81.583-45.466-120.8-70.408-34.054-21.657-69.264-44.052-105.348-62.9-31.125-16.26-61.977-28.322-91.71-35.849-53.488-13.339-106.716-11.912-162.726,4.361-44.7,13.087-85.816,33.062-131.091,55.9-6.971,3.516-14.1,7.175-20.988,10.714-35.455,18.2-72.116,37.011-110.9,49.075a338.231,338.231,0,0,1-68.739,14.117c-25.439,2.367-48.9,1.061-69.723-3.88-22.953-5.482-42.2-15.279-58.841-29.953-20.421-18.033-38.034-42.372-53.841-74.388-13.911-28.188-24.617-58.339-34.963-87.5-4.877-13.746-9.483-26.73-14.326-39.252-2.349-6.075-4.709-12.332-7.213-18.958-7.442-19.731-15.879-42.094-25.558-63.259-21.261-46.5-45.36-74.618-73.677-85.976a73.088,73.088,0,0,0-33.732-5.3c-19.517,1.7-37.9,8.352-57.368,15.392-5.722,2.061-11.636,4.209-17.6,6.221-13.489,4.552-26.758,9.31-39.59,13.911-17.036,6.111-33.132,11.879-48.047,16.575l-.075-.24c14.913-4.681,31-10.464,48.037-16.572,12.834-4.6,26.1-9.359,39.6-13.911,5.964-2.012,11.879-4.153,17.6-6.221,19.481-7.046,37.882-13.7,57.432-15.405a73.225,73.225,0,0,1,33.837,5.33c15.972,6.4,30.95,18.5,44.516,35.963,10.415,13.4,20,29.8,29.3,50.139,9.681,21.173,18.118,43.537,25.563,63.277,2.5,6.626,4.861,12.881,7.213,18.953,4.843,12.528,9.452,25.5,14.328,39.263,20.2,56.932,43.091,121.457,88.737,161.781,16.608,14.645,35.808,24.424,58.736,29.883,49.418,11.727,102.5.907,138.338-10.235C662.7,495.8,699.352,476.992,734.8,458.8c6.894-3.54,14.019-7.2,20.993-10.714,45.286-22.853,86.411-42.836,131.125-55.925,56.054-16.289,109.326-17.716,162.858-4.364,29.741,7.533,60.611,19.6,91.754,35.867,36.092,18.852,71.31,41.251,105.364,62.912,39.209,24.937,79.754,50.721,120.771,70.393,8.573,4.122,15.508,7.3,21.828,10.047,63.52,27.706,127.1,43.918,188.573,59.594,7.543,1.922,15.341,3.911,22.927,5.871Z" transform="translate(6.559 35.884)" fill="#0e0e0e"/>
        <path id="パス_4310" data-name="パス 4310" d="M1588.919,629.395c-10.5-3.267-21.338-6.572-31.823-9.769-56.51-17.229-114.944-35.035-173.631-62.435-7.728-3.581-15.457-7.471-21.343-10.451-37.928-19.254-75.772-43.869-112.371-67.67-35.607-23.159-72.428-47.107-110.338-66.928-30.914-16.165-61.552-28.023-91.079-35.247-52.687-12.672-105.279-10.235-160.784,7.45C842.136,398.922,800,421.169,759.259,442.685c-5.637,2.978-11.4,6.059-16.977,9.037-36.053,19.269-73.332,39.2-113.3,51.177-29.206,8.759-58.277,13.182-85.339,13.182a207.389,207.389,0,0,1-52.517-6.345c-22.67-5.99-41.733-16.023-58.29-30.656-20.351-18.056-38.127-42.207-54.294-73.834-14.251-27.866-25.429-57.659-36.236-86.473-5.114-13.633-9.944-26.508-15.006-38.967-2.556-6.291-5.124-12.765-7.844-19.62-8.027-20.23-16.327-41.151-26.045-61.827-21.786-46.393-45.871-74.473-73.623-85.867a70.16,70.16,0,0,0-33.608-5.353c-18.26,1.762-35.329,7.867-53.4,14.334-6.919,2.473-14.076,5.034-21.382,7.36-10.176,3.243-20.3,6.569-30.089,9.789-20.557,6.752-39.976,13.138-57.816,18.118l-.07-.242c17.837-4.985,37.251-11.363,57.806-18.113,9.789-3.218,19.916-6.543,30.092-9.789,7.29-2.319,14.447-4.895,21.364-7.357,18.09-6.471,35.174-12.582,53.462-14.346a70.368,70.368,0,0,1,33.729,5.371C247.7,123.68,271.83,151.8,293.653,198.241c9.72,20.681,18.033,41.607,26.05,61.84,2.718,6.852,5.286,13.326,7.844,19.617,5.062,12.463,9.892,25.339,15.006,38.972,21.073,56.18,44.959,119.854,90.461,160.207,16.518,14.622,35.551,24.636,58.187,30.617,39.5,10.374,88.415,7.947,137.722-6.834,39.93-11.976,77.209-31.9,113.249-51.159,5.575-2.981,11.335-6.062,16.977-9.037,40.757-21.521,82.9-43.774,128.335-58.357,55.552-17.7,108.2-20.138,160.92-7.455,29.548,7.229,60.209,19.094,91.136,35.267,37.923,19.836,74.746,43.779,110.359,66.941,36.594,23.8,74.432,48.408,112.348,67.657,5.876,2.983,13.612,6.868,21.335,10.449,58.661,27.379,117.085,45.193,173.587,62.422,10.485,3.2,21.328,6.5,31.825,9.769Z" transform="translate(7.422 33.775)" fill="#0e0e0e"/>
        <path id="パス_4311" data-name="パス 4311" d="M1576.894,626.054c-13.545-5-27.026-9.807-41.3-14.906-51.368-18.345-104.483-37.315-158.03-64.025-7.169-3.552-14.259-7.319-20.849-10.858-34.865-18.726-68.409-41.069-103.921-64.725-37.155-24.754-75.576-50.348-115.351-71.166-31.349-16.41-60.938-27.742-90.456-34.644-51.731-12.092-103.689-8.646-158.847,10.539-42.478,14.885-82.56,37.04-121.336,58.478l-4.171,2.3c-4.459,2.463-9.016,5-13.429,7.471-36.486,20.326-74.216,41.344-115.222,53.182a285.4,285.4,0,0,1-68.677,11.157c-24.638.9-47.707-1.7-68.574-7.728-22.394-6.5-41.28-16.768-57.739-31.39-20.31-18.082-38.227-42.068-54.771-73.324-14.586-27.565-26.243-57.015-37.519-85.5-5.335-13.483-10.377-26.215-15.647-38.58-2.777-6.518-5.564-13.21-8.517-20.295-8.244-19.764-16.745-40.188-26.493-60.382-22.361-46.278-46.424-74.324-73.574-85.736-11.278-4.74-22.546-6.556-33.49-5.4-17.18,1.824-33.129,7.5-50.013,13.5-7.924,2.818-16.119,5.734-24.563,8.269q-7.131,2.141-14.169,4.274c-26.423,7.973-51.383,15.508-74,21.047l-.059-.242c22.608-5.539,47.566-13.071,73.986-21.047l14.169-4.271c8.439-2.535,16.631-5.449,24.553-8.267,16.9-6.013,32.858-11.69,50.07-13.517,10.99-1.164,22.3.657,33.616,5.41,15.588,6.554,30.468,18.878,44.224,36.627,10.171,13.123,19.813,29.226,29.476,49.232,9.756,20.189,18.267,40.626,26.5,60.392,2.95,7.084,5.737,13.777,8.5,20.292,5.271,12.365,10.3,25.1,15.65,38.588,21.954,55.459,46.837,118.322,92.225,158.726,16.431,14.6,35.293,24.847,57.641,31.336,40.383,11.652,89.077,10.431,137.112-3.437,40.986-11.827,78.714-32.848,115.179-53.166,4.41-2.458,8.97-5,13.429-7.471l4.171-2.318c38.773-21.431,78.866-43.593,121.364-58.478,27.008-9.393,52.553-14.9,78.1-16.848a262.627,262.627,0,0,1,80.89,6.3c29.538,6.907,59.148,18.247,90.517,34.667,39.783,20.823,78.211,46.422,115.374,71.176,35.5,23.654,69.04,45.994,103.9,64.715,6.59,3.54,13.674,7.3,20.841,10.853,53.535,26.7,106.652,45.672,158,64.014,14.272,5.1,27.753,9.913,41.3,14.906Z" transform="translate(8.296 31.668)" fill="#0e0e0e"/>
        <path id="パス_4312" data-name="パス 4312" d="M1564.876,622.727c-16.709-7.2-33.521-14.117-51.322-21.441-46.077-18.96-93.722-38.565-141.893-64.215-6.987-3.694-14.169-7.752-20.351-11.263-31.841-18.084-62.736-39.2-95.446-61.554-38.7-26.454-78.719-53.8-120.39-75.635-31.127-16.312-60.513-27.449-89.835-34.041-51.007-11.472-102.337-7.015-156.9,13.625-39.786,15.16-77.3,36.9-113.589,57.929q-4.562,2.643-9.109,5.273-5.106,2.95-10.245,5.941C719,458.728,680.953,480.831,639.005,492.475a264.411,264.411,0,0,1-68.649,9.671c-24.216.188-47.1-3.055-68.01-9.637-22.108-7-40.814-17.518-57.19-32.106-20.277-18.12-38.359-41.957-55.276-72.868-14.942-27.276-27.075-56.417-38.822-84.574-5.544-13.3-10.781-25.851-16.23-38.091-3.011-6.749-6.031-13.653-9.228-20.985-8.421-19.287-17.129-39.234-26.908-58.919-22.935-46.2-47-74.208-73.515-85.618-11.3-4.861-22.528-6.7-33.376-5.438-16.25,1.875-31.228,7.213-47.081,12.842-8.772,3.12-17.842,6.345-27.307,9.016-34.585,9.743-62.858,17.34-88.449,22.739l-.052-.258c25.581-5.41,53.854-12.991,88.433-22.734,9.452-2.664,18.517-5.889,27.284-9.016,15.869-5.644,30.859-10.974,47.143-12.855,10.892-1.257,22.155.577,33.505,5.456,15.4,6.626,30.228,19.063,44.083,36.957,10.013,12.94,19.684,28.9,29.561,48.782,9.789,19.689,18.491,39.636,26.913,58.929,3.2,7.321,6.216,14.236,9.228,20.983,5.461,12.242,10.7,24.8,16.23,38.1,23.958,57.448,48.733,116.869,94.029,157.352,16.343,14.576,35.02,25.061,57.095,32.055,40.595,12.788,90.347,12.775,136.5-.036,41.916-11.636,79.948-33.732,116.727-55.1l10.245-5.941,9.12-5.263c36.292-21.031,73.821-42.779,113.628-57.947,26.619-10.068,51.734-16.163,76.769-18.636a249.127,249.127,0,0,1,80.27,5c29.345,6.6,58.751,17.739,89.907,34.064,41.687,21.84,81.707,49.191,120.411,75.643,32.717,22.35,63.6,43.462,95.43,61.541,6.183,3.511,13.36,7.566,20.352,11.26,48.161,25.643,95.8,45.247,141.872,64.2,17.8,7.324,34.613,14.243,51.322,21.441Z" transform="translate(9.162 29.551)" fill="#0e0e0e"/>
        <path id="パス_4313" data-name="パス 4313" d="M1552.854,619.377c-19.937-9.939-40.278-19.45-61.814-29.522-40.661-19.017-82.706-38.68-125.285-62.857-6.44-3.625-12.8-7.43-19.859-11.667-28.853-17.324-57.074-37.145-86.952-58.128-40.226-28.252-81.823-57.468-125.442-80.344-30.913-16.212-60.086-27.15-89.216-33.438-50.337-10.869-101.025-5.41-154.962,16.711-37.318,15.413-72.485,36.805-106.492,57.491-4.4,2.679-8.949,5.446-13.411,8.143q-3.663,2.215-7.347,4.452c-37,22.433-75.262,45.634-118.061,57.054a246,246,0,0,1-68.62,8.187,222.56,222.56,0,0,1-67.422-11.551c-21.822-7.507-40.347-18.244-56.634-32.825-20.256-18.172-38.516-41.878-55.82-72.472-15.279-27.011-27.923-55.838-40.149-83.724-5.729-13.064-11.142-25.406-16.773-37.478-3.259-6.989-6.523-14.13-9.977-21.694-8.594-18.806-17.482-38.258-27.281-57.448-15.042-29.443-39.023-70.328-73.466-85.5-11.314-4.982-22.505-6.824-33.26-5.482-15.439,1.93-29.566,6.974-44.526,12.314-9.49,3.388-19.3,6.891-29.662,9.619-34.551,9.1-63.571,15.7-88.719,20.163l-.044-.258c24.793-4.4,54.635-11.183,88.7-20.153,10.348-2.726,20.156-6.227,29.641-9.614,14.972-5.343,29.11-10.392,44.567-12.324,10.8-1.352,22.039.5,33.394,5.5,34.52,15.2,58.53,56.142,73.59,85.618,9.789,19.184,18.69,38.642,27.286,57.448,3.455,7.561,6.716,14.7,9.975,21.688,5.634,12.077,11.046,24.419,16.776,37.485,24.906,56.786,50.66,115.506,95.907,156.1,16.263,14.558,34.76,25.28,56.549,32.773,41.324,14.138,90.857,15.364,135.9,3.349,42.764-11.4,81.014-34.59,117.987-57.015q3.686-2.236,7.35-4.452c4.459-2.7,9.016-5.467,13.411-8.143,34-20.694,69.19-42.091,106.525-57.512,26.22-10.75,50.9-17.43,75.45-20.421a236.347,236.347,0,0,1,79.662,3.7c29.151,6.293,58.354,17.239,89.278,33.461,43.632,22.886,85.236,52.1,125.47,80.375,29.883,20.98,58.092,40.8,86.937,58.117,7.059,4.238,13.427,8.04,19.854,11.667,42.57,24.172,84.613,43.833,125.269,62.857,21.536,10.073,41.877,19.579,61.827,29.528Z" transform="translate(10.031 27.442)" fill="#0e0e0e"/>
        <path id="パス_4314" data-name="パス 4314" d="M1540.83,616.038c-23.185-13.267-47.231-25.9-72.7-39.283-35.141-18.463-71.477-37.555-108.285-59.825-6.322-3.8-12.541-7.746-19.125-11.925l-.24-.149c-25.906-16.438-51.427-34.891-78.446-54.426-41.733-30.182-84.9-61.389-130.512-85.339-30.674-16.109-59.653-26.848-88.593-32.835-50.4-10.423-99.021-4.122-153.022,19.8-35.056,15.647-68.064,36.751-99.985,57.159-5.619,3.591-11.428,7.306-17.121,10.907l-4.7,2.978c-37.1,23.5-75.48,47.808-119.084,58.944a229.937,229.937,0,0,1-68.592,6.7,225.256,225.256,0,0,1-66.848-13.468A171.782,171.782,0,0,1,457.5,441.73c-20.251-18.239-38.7-41.834-56.417-72.132-15.642-26.771-28.791-55.317-41.507-82.923-5.889-12.788-11.453-24.865-17.229-36.73-3.522-7.231-7.041-14.6-10.766-22.412-8.759-18.327-17.8-37.279-27.613-55.953-15.457-29.427-39.9-70.292-73.42-85.383-11.335-5.1-22.477-6.956-33.147-5.521-14.72,1.981-28.106,6.793-42.277,11.886-10.1,3.632-20.547,7.388-31.715,10.124-30.638,7.509-61.4,13.589-88.969,17.577L34.4,120c27.565-3.988,58.324-10.062,88.967-17.569,11.152-2.733,21.593-6.487,31.686-10.116,14.184-5.1,27.583-9.918,42.328-11.9,10.717-1.44,21.915.422,33.284,5.541,15.016,6.762,29.754,19.419,43.794,37.611,12.809,16.588,23.1,35.272,29.729,47.882,9.818,18.68,18.867,37.632,27.619,55.961,3.725,7.8,7.244,15.176,10.766,22.412,5.776,11.868,11.335,23.958,17.232,36.738,25.869,56.16,52.623,114.243,97.854,154.98a171.387,171.387,0,0,0,56,33.49c41.991,15.531,91.3,17.994,135.291,6.762,43.573-11.129,81.921-35.422,119.017-58.913l4.7-2.981c5.691-3.607,11.5-7.314,17.121-10.9,31.928-20.416,64.944-41.522,100.018-57.19,25.813-11.441,50.059-18.705,74.126-22.209a224.4,224.4,0,0,1,79.048,2.393c28.966,5.99,57.963,16.745,88.66,32.859,45.626,23.958,88.8,55.17,130.543,85.357,27.016,19.532,52.535,37.982,78.433,54.416l.24.152c6.582,4.178,12.8,8.123,19.12,11.92,36.8,22.268,73.136,41.357,108.275,59.82,25.468,13.38,49.521,26.019,72.7,39.286Z" transform="translate(10.901 25.333)" fill="#0e0e0e"/>
        <path id="パス_4315" data-name="パス 4315" d="M1528.811,612.694c-26.367-17.219-54.294-33.536-83.863-50.809s-60.093-35.1-91-55.024c-5.719-3.661-11.35-7.437-17.309-11.435l-1.561-1.046c-22.992-15.416-45.786-32.415-69.919-50.415-43.235-32.245-87.941-65.588-135.6-90.638-30.44-16-59.215-26.534-87.972-32.233-49.794-9.849-97.8-2.576-151.082,22.886-32.98,15.869-64,36.736-94,56.912-6.667,4.485-13.561,9.122-20.308,13.587l-2.254,1.492c-37.137,24.592-75.54,50.018-119.914,60.858a215.911,215.911,0,0,1-68.564,5.211,228.144,228.144,0,0,1-66.268-15.382A182.669,182.669,0,0,1,463.662,432.4c-20.266-18.324-38.928-41.836-57.048-71.874-16.021-26.56-29.687-54.854-42.905-82.215-6.018-12.456-11.7-24.216-17.592-35.826-3.795-7.484-7.584-15.088-11.593-23.139-8.888-17.84-18.079-36.287-27.9-54.452-17.26-31.918-41.2-70.454-73.363-85.27-11.335-5.217-22.443-7.09-33.029-5.564-14.086,2.03-26.812,6.652-40.285,11.546-10.629,3.864-21.616,7.849-33.51,10.547a818.614,818.614,0,0,1-89.263,14.993l-.028-.258A818.738,818.738,0,0,0,126.375,95.9c11.878-2.695,22.86-6.682,33.49-10.539C173.35,80.463,186.087,75.826,200.2,73.8c10.611-1.525,21.784.356,33.157,5.593,14.828,6.827,29.52,19.591,43.671,37.939,12.319,15.972,22.412,33.747,29.808,47.434,9.825,18.167,19.02,36.617,27.91,54.457,4.011,8.053,7.8,15.658,11.593,23.136,5.9,11.611,11.569,23.376,17.595,35.826,26.861,55.6,54.637,113.092,99.9,154.016a182.438,182.438,0,0,0,55.456,34.216c42.591,16.961,91.679,20.663,134.68,10.158,44.33-10.82,82.714-36.244,119.834-60.822l2.254-1.492c6.747-4.467,13.653-9.1,20.305-13.586,30.009-20.184,61.036-41.053,94.029-56.932,25.393-12.136,49.2-19.983,72.8-23.991a213.429,213.429,0,0,1,78.438,1.085c28.781,5.691,57.579,16.242,88.039,32.258,47.676,25.061,92.39,58.409,135.633,90.659,24.13,18,46.922,34.994,69.911,50.407l1.558,1.046c5.958,4,11.593,7.772,17.307,11.433,30.914,19.911,61.453,37.758,91,55.018s57.5,33.593,83.874,50.817Z" transform="translate(11.768 23.223)" fill="#0e0e0e"/>
        <path id="パス_4316" data-name="パス 4316" d="M1516.792,609.353c-29.435-21.838-61.376-42.4-95.19-64.164-23.9-15.385-48.619-31.292-73.561-48.4-5.181-3.529-10.284-7.149-15.686-10.979l-2.689-1.906c-20.117-14.251-40.164-29.705-61.387-46.064-44.7-34.461-90.937-70.091-140.7-96.28-30.2-15.9-58.775-26.233-87.354-31.643-49.232-9.274-96.623-1.03-149.14,25.975-31.071,16.08-60.263,36.754-88.492,56.747-7.558,5.353-15.377,10.889-23.02,16.183-18.216,12.623-37.053,25.666-57.01,36.9C699.984,458.433,679.2,466.9,659.031,471.6a203.408,203.408,0,0,1-68.538,3.72A231.467,231.467,0,0,1,524.8,458.033a195.176,195.176,0,0,1-54.977-34.979c-20.308-18.435-39.2-41.893-57.762-71.717-16.415-26.38-30.62-54.454-44.358-81.6-6.1-12.061-11.868-23.443-17.829-34.736-4.086-7.728-8.156-15.575-12.466-23.873-9.016-17.35-18.332-35.293-28.16-52.945-12.4-22.273-38.2-68.618-73.309-85.146-11.335-5.335-22.412-7.213-32.915-5.606-13.517,2.076-25.658,6.541-38.511,11.268-11.077,4.073-22.533,8.285-35.089,10.9-27.333,5.711-56.621,9.771-89.528,12.427l-.021-.258c32.9-2.648,62.175-6.7,89.5-12.4,12.538-2.615,23.984-6.824,35.053-10.894,12.865-4.73,25.017-9.2,38.56-11.281,10.562-1.62,21.686.27,33.062,5.629,14.635,6.891,29.283,19.764,43.537,38.263,11.791,15.3,21.33,31.627,29.883,46.986,9.828,17.657,19.148,35.6,28.16,52.952,4.31,8.3,8.383,16.137,12.468,23.87,5.961,11.289,11.727,22.67,17.829,34.742,27.884,55.106,56.719,112.087,102.064,153.244a194.76,194.76,0,0,0,54.91,34.935c43.763,18.7,91.378,23.515,134.072,13.558,45.051-10.508,83.387-37.06,120.46-62.739,7.641-5.294,15.457-10.82,23.018-16.183,28.237-20,57.435-40.677,88.521-56.765,24.96-12.834,48.341-21.266,71.477-25.761a202.981,202.981,0,0,1,77.825-.224c28.595,5.394,57.19,15.748,87.423,31.655,49.784,26.2,96.017,61.827,140.729,96.3,21.222,16.361,41.267,31.813,61.379,46.059l2.689,1.909c5.41,3.831,10.5,7.448,15.683,10.977,24.94,17.1,49.655,33.005,73.556,48.39,33.819,21.768,65.761,42.331,95.2,64.174Z" transform="translate(12.635 21.114)" fill="#0e0e0e"/>
        <path id="パス_4317" data-name="パス 4317" d="M1504.766,606.014c-32.315-27.147-68.378-52.507-106.561-79.345-18.244-12.832-37.112-26.1-56.075-39.93-4.7-3.406-9.331-6.878-14.233-10.562l-3.648-2.733c-17.26-12.927-34.546-26.722-52.836-41.326-46.144-36.839-93.856-74.94-145.809-102.311-29.96-15.786-58.331-25.936-86.728-31.027-48.709-8.733-95.484.515-147.2,29.059-29.3,16.281-56.811,36.805-83.4,56.654-8.313,6.2-16.91,12.623-25.305,18.705-15.835,11.479-35.551,25.761-55.956,37.524-22.232,12.806-42.828,21.2-62.968,25.679-21.655,4.812-44.7,5.562-68.51,2.228a235.068,235.068,0,0,1-65.114-19.2,209.452,209.452,0,0,1-54.428-35.7c-45.528-41.476-75.481-98.055-104.439-152.764-6.134-11.593-11.927-22.531-17.909-33.423-4.379-7.986-8.759-16.062-13.375-24.6-9.119-16.863-18.548-34.3-28.373-51.44-13.772-24.022-39.415-68.736-73.257-85.028-11.335-5.451-22.363-7.352-32.8-5.649-13.009,2.125-24.625,6.458-36.924,11.046-11.466,4.276-23.322,8.7-36.481,11.206-34.329,6.536-67.693,8.738-89.8,9.828v-.258c22.1-1.087,55.456-3.29,89.768-9.823,13.138-2.5,24.988-6.922,36.442-11.2,12.309-4.591,23.935-8.929,36.97-11.057,10.49-1.713,21.575.2,32.949,5.667,33.9,16.335,59.557,61.088,73.353,85.138,9.831,17.144,19.259,34.582,28.379,51.445,4.619,8.545,8.983,16.616,13.373,24.6,5.984,10.892,11.778,21.838,17.912,33.425,28.953,54.689,58.893,111.24,104.387,152.695A209.194,209.194,0,0,0,530.521,449.2c44.248,20.225,91.646,26.246,133.464,16.956C709.7,456,748.544,427.839,782.814,402.995c8.4-6.087,17-12.5,25.3-18.7,26.6-19.854,54.112-40.383,83.438-56.675,51.78-28.6,98.6-37.83,147.354-29.087,28.425,5.1,56.816,15.253,86.816,31.053,51.971,27.382,99.7,65.485,145.847,102.337,18.291,14.6,35.563,28.4,52.829,41.319l3.648,2.736c4.895,3.676,9.532,7.149,14.231,10.562,18.963,13.831,37.828,27.1,56.074,39.93,38.184,26.851,74.252,52.216,106.577,79.368Z" transform="translate(13.509 19.001)" fill="#0e0e0e"/>
        <path id="パス_4318" data-name="パス 4318" d="M1492.751,602.672c-34.937-33.157-75.2-63.849-117.832-96.347-12.623-9.614-25.653-19.553-38.691-29.667-4.258-3.285-8.46-6.616-12.9-10.145l-4.482-3.553c-14.444-11.425-28.93-23.443-44.266-36.148-47.547-39.415-96.713-80.174-150.94-108.777-29.3-15.457-58.275-25.7-86.107-30.427-48.222-8.192-94.379,2.022-145.26,32.147-27.688,16.487-53.627,36.9-78.714,56.641-8.939,7.033-18.18,14.308-27.2,21.155-18,13.653-35.744,26.856-54.9,38.15-21.9,12.9-42.3,21.235-62.4,25.48-21.573,4.555-44.613,4.8-68.484.734a239.346,239.346,0,0,1-64.537-21.109A225.932,225.932,0,0,1,482.154,404.4c-45.76-41.859-76.872-98.1-106.961-152.484-5.83-10.534-11.85-21.428-17.791-31.831-4.7-8.244-9.367-16.536-14.305-25.316-9.215-16.382-18.741-33.322-28.567-49.959l-.433-.737c-15.06-25.5-40.265-68.185-72.77-84.175-11.335-5.567-22.317-7.471-32.686-5.688-12.553,2.172-23.7,6.394-35.5,10.869s-24,9.1-37.712,11.461c-31.972,5.51-63.476,6.755-90.074,7.244v-.258c26.591-.489,58.081-1.734,90.036-7.241,13.695-2.362,25.882-6.981,37.668-11.451s22.966-8.7,35.551-10.879c10.42-1.8,21.469.118,32.838,5.711,32.573,16.021,57.8,58.736,72.874,84.273l.435.734c9.828,16.639,19.354,33.58,28.569,49.977,4.938,8.779,9.6,17.072,14.305,25.316,5.925,10.4,11.964,21.3,17.791,31.831C405.5,306.15,436.608,362.384,482.334,404.215A225.72,225.72,0,0,0,536.15,440.59c44.675,21.781,91.857,29.01,132.859,20.351,42.813-9.037,78.409-34.144,117.214-63.584,9.016-6.847,18.262-14.12,27.2-21.153,25.091-19.743,51.038-40.162,78.739-56.659,50.935-30.159,97.146-40.383,145.433-32.178,27.856,4.732,56.853,14.978,86.182,30.452,54.248,28.613,103.424,69.38,150.982,108.805,15.336,12.713,29.819,24.731,44.263,36.146q2.251,1.78,4.482,3.553c4.444,3.527,8.643,6.858,12.9,10.142,13.038,10.111,26.078,20.053,38.688,29.664,42.6,32.5,82.882,63.2,117.827,96.363Z" transform="translate(14.372 16.889)" fill="#0e0e0e"/>
        <path id="パス_4319" data-name="パス 4319" d="M1480.735,599.331c-37.246-39.881-81.761-76.4-128.891-115.05-7.028-5.768-14.3-11.729-21.518-17.685-3.836-3.145-7.618-6.322-11.623-9.684q-2.612-2.195-5.268-4.418c-11.641-9.733-23.322-19.813-35.687-30.481-46.628-40.239-99.477-85.844-156.08-115.735-29.064-15.351-57.826-25.385-85.486-29.824-47.774-7.667-93.315,3.529-143.32,35.234-26.189,16.691-50.683,37.027-74.37,56.693-9.447,7.847-19.218,15.972-28.75,23.533-36.259,28.817-72.389,55.387-115.681,64.061-21.511,4.3-44.544,4.047-68.458-.773a243.729,243.729,0,0,1-63.958-23.01,245.627,245.627,0,0,1-53.326-37.132C442.2,352.723,409.859,296.69,378.575,242.5c-5.7-9.874-11.593-20.094-17.4-29.883-5.016-8.473-9.98-16.966-15.235-25.957-9.3-15.923-18.927-32.39-28.757-48.545l-1.927-3.174c-14.97-24.661-40.025-65.949-71.227-81.619-11.309-5.683-22.268-7.61-32.567-5.732-12.141,2.218-23.358,6.546-34.208,10.732-12.082,4.66-24.576,9.48-38.8,11.678-31.831,4.918-63.331,4.987-90.35,4.665v-.258c27.008.319,58.478.258,90.3-4.66,14.2-2.195,26.684-7.01,38.753-11.667,10.861-4.189,22.09-8.519,34.262-10.742,10.356-1.888,21.382.046,32.717,5.755,13.777,6.925,27.395,19.11,41.625,37.251,12,15.294,21.815,31.467,29.7,44.464l1.927,3.171c9.833,16.157,19.455,32.624,28.762,48.55,5.253,8.991,10.217,17.482,15.233,25.957,5.8,9.789,11.7,20.011,17.4,29.883,31.284,54.171,63.63,110.186,109.7,152.507a245.325,245.325,0,0,0,53.269,37.1c31.864,16.531,80.671,34.072,132.251,23.752,43.235-8.651,79.345-35.213,115.573-64.009,9.532-7.574,19.3-15.686,28.747-23.53,23.7-19.671,48.194-40.012,74.393-56.711,23.595-14.96,45.675-25.138,67.495-31.122a176.11,176.11,0,0,1,76-4.15c27.688,4.444,56.477,14.488,85.564,29.85,25.321,13.373,51.948,30.914,81.406,53.656,25.985,20.055,50.75,41.434,74.723,62.113,12.365,10.668,24.043,20.746,35.682,30.478q2.659,2.223,5.271,4.418c4,3.349,7.785,6.538,11.621,9.684,7.213,5.953,14.491,11.917,21.518,17.683,47.143,38.663,91.659,75.182,128.915,115.073Z" transform="translate(15.239 14.779)" fill="#0e0e0e"/>
        <path id="パス_4320" data-name="パス 4320" d="M1468.715,595.991c-39.175-47.316-87.954-90.079-139.6-135.339l-4.7-4.122c-3.439-3-6.829-6.013-10.418-9.2q-2.965-2.635-5.982-5.307c-8.839-7.813-17.688-15.784-27.049-24.216-47.882-43.135-102.154-92.024-161.266-123.283-28.68-15.166-57.231-24.988-84.865-29.221-47.465-7.074-92.39,5.1-141.38,38.322-24.8,16.894-47.952,37.189-70.328,56.816-10.3,9.034-20.045,17.572-29.981,25.841-15.312,12.747-33.284,27.356-52.785,39.4-21.209,13.1-41.252,21.3-61.276,25.086a150.142,150.142,0,0,1-27.928,2.576c-40.383,0-77.711-15.331-103.88-29.747a272.54,272.54,0,0,1-52.775-37.851c-46.576-42.941-80.293-98.923-112.9-153.089-5.461-9.068-11.108-18.445-16.657-27.485-5.32-8.671-10.82-17.726-16.127-26.485-9.426-15.513-19.156-31.545-29-47.256q-1.613-2.576-3.38-5.41c-15.825-25.432-39.742-63.865-69.72-79.255-11.3-5.8-22.217-7.741-32.459-5.773-11.77,2.246-22.585,6.5-33.036,10.614-12.327,4.846-25.073,9.856-39.778,11.85C111.08,67.6,81.256,66.805,50.832,65.538V65.28c30.4,1.27,60.222,2.061,90.571-2.076,14.684-2,27.407-7.01,39.721-11.85,10.467-4.122,21.294-8.37,33.083-10.637,10.3-1.981,21.269-.028,32.616,5.8,13.246,6.8,26.454,18.623,40.378,36.14,11.763,14.8,21.562,30.55,29.44,43.207,1.177,1.893,2.306,3.7,3.38,5.41,9.859,15.714,19.579,31.746,28.992,47.251,5.312,8.759,10.8,17.811,16.127,26.483,5.549,9.04,11.2,18.419,16.655,27.487,32.6,54.137,66.307,110.117,112.855,153.022a271.785,271.785,0,0,0,52.726,37.815c32.083,17.675,80.965,36.73,131.64,27.152,43.632-8.244,80.215-36.354,113.947-64.434,9.931-8.269,19.669-16.8,29.976-25.839,22.394-19.63,45.554-39.93,70.367-56.835,23.077-15.647,44.722-26.4,66.168-32.864a169.267,169.267,0,0,1,75.388-5.5c27.662,4.227,56.242,14.068,84.945,29.247,59.148,31.274,113.432,80.174,161.325,123.319,9.369,8.439,18.216,16.41,27.049,24.216q3.017,2.671,5.982,5.307c3.589,3.189,6.979,6.2,10.415,9.2l4.7,4.122c51.649,45.275,100.436,88.039,139.626,135.368Z" transform="translate(16.106 12.666)" fill="#0e0e0e"/>
        <path id="パス_4321" data-name="パス 4321" d="M1456.7,592.642c-37.287-50.819-84.641-96.27-138.181-146.182-3.029-2.813-6.02-5.626-9.187-8.607q-3.323-3.127-6.716-6.306c-6.028-5.637-12.033-11.3-18.391-17.3-49.078-46.3-104.7-98.782-166.5-131.5-28.451-15.063-56.793-24.692-84.24-28.618-47.053-6.561-91.362,6.577-139.443,41.406-23.515,17.105-45.422,37.392-66.606,57.01-10.634,9.846-20.676,19.146-30.914,28.08-15.838,13.816-33.065,28.224-51.729,40.02-20.867,13.195-40.734,21.338-60.712,24.893-21.433,3.815-44.448,2.55-68.4-3.761-20.4-5.379-41.525-14.4-62.809-26.815A300.894,300.894,0,0,1,500.649,376.4c-47.72-44.17-83.245-100.943-117.6-155.856-4.709-7.527-9.578-15.31-14.357-22.858-6.239-9.774-12.649-19.965-18.847-29.821-8.908-14.169-18.12-28.814-27.395-43.137-1.52-2.349-3.151-4.915-4.879-7.633C301.9,92.446,278.211,55.2,249.4,40.169c-11.214-5.91-22.1-7.865-32.338-5.817-11.389,2.319-21.807,6.5-31.882,10.531-12.551,5.041-25.555,10.25-40.739,12.054-31.4,3.725-63,1.479-90.886-.515l.018-.258c27.874,1.981,59.465,4.227,90.839.515,15.148-1.8,28.126-6.994,40.674-12.02,10.086-4.042,20.516-8.218,31.926-10.544,10.3-2.061,21.24-.1,32.506,5.838C278.391,55.017,302.1,92.3,317.79,116.963c1.729,2.718,3.349,5.284,4.879,7.633,9.274,14.323,18.486,28.974,27.4,43.14,6.2,9.856,12.608,20.047,18.844,29.821,4.779,7.548,9.65,15.331,14.359,22.858,34.353,54.892,69.857,111.652,117.562,155.8A300.75,300.75,0,0,0,553,414.761c46.27,27.006,91.581,37.57,131.035,30.548,44.021-7.837,79.623-36.323,112.319-64.857,10.24-8.931,20.279-18.231,30.914-28.08,21.191-19.622,43.1-39.915,66.631-57.028,22.59-16.366,43.794-27.7,64.844-34.649a161.882,161.882,0,0,1,74.777-6.8c27.479,3.931,55.85,13.568,84.327,28.647,61.827,32.717,117.471,85.223,166.554,131.534,6.358,6,12.365,11.665,18.391,17.3q3.4,3.174,6.716,6.306c3.166,2.981,6.154,5.794,9.187,8.607,53.55,49.92,100.91,95.381,138.212,146.218Z" transform="translate(16.97 10.56)" fill="#0e0e0e"/>
        <path id="パス_4322" data-name="パス 4322" d="M1444.683,589.311c-36.967-56.932-87.552-108.78-132.068-152.909-2.592-2.558-5.152-5.106-7.849-7.8-2.46-2.452-5.005-4.99-7.558-7.517q-4.776-4.722-9.655-9.568c-50.206-49.791-107.108-106.229-171.8-140.517-28.221-14.962-56.355-24.4-83.621-28.005-46.692-6.08-90.383,8.058-137.5,44.495-22.322,17.306-43.068,37.614-63.12,57.262-10.866,10.639-21.124,20.686-31.6,30.259C769.6,402.729,733.535,432.929,689.1,440.348a134.225,134.225,0,0,1-22.121,1.8c-33.549,0-69.924-11.987-108.478-35.79a335.779,335.779,0,0,1-51.669-39.283c-48.655-45.208-85.922-102.447-121.962-157.834-4.07-6.252-8.28-12.718-12.409-19.02-6.44-9.74-13.015-19.836-19.383-29.625-9.117-13.988-18.548-28.451-27.979-42.573-1.906-2.852-4.006-6.09-6.232-9.516C303.324,84.565,279.84,48.38,252.1,33.586c-11.209-6.023-22.049-7.986-32.225-5.856C208.8,30.095,198.7,34.219,188.947,38.21c-12.736,5.209-25.908,10.593-41.5,12.167-30.081,3.035-59.766.062-88.451-2.816l-2.7-.27.026-.258,2.7.27c28.685,2.875,58.349,5.848,88.4,2.816,15.552-1.569,28.706-6.956,41.427-12.149,9.766-3.993,19.867-8.123,30.973-10.5,10.235-2.151,21.124-.17,32.395,5.881,27.8,14.826,51.3,51.043,66.856,75.009,2.226,3.426,4.325,6.662,6.229,9.514,9.439,14.122,18.865,28.6,27.982,42.573,6.366,9.771,12.95,19.872,19.38,29.625,4.122,6.3,8.341,12.767,12.412,19.02,36.032,55.353,73.291,112.59,121.91,157.77a335.582,335.582,0,0,0,51.631,39.255c47.143,29.11,91.02,40.525,130.427,33.946,44.371-7.406,80.4-37.578,110.688-65.276,10.464-9.57,20.727-19.617,31.594-30.254,20.068-19.643,40.819-39.956,63.151-57.283,22.1-17.087,42.872-29,63.52-36.434a154.965,154.965,0,0,1,74.164-8.11c27.307,3.632,55.459,13.066,83.709,28.041,64.723,34.324,121.64,90.78,171.859,140.584q4.877,4.838,9.653,9.568c2.556,2.527,5.1,5.065,7.561,7.517,2.7,2.7,5.258,5.245,7.849,7.8,21.995,21.8,47.694,47.725,71.55,74.654,24.473,27.621,44.278,53.233,60.552,78.294Z" transform="translate(17.837 8.441)" fill="#0e0e0e"/>
        <path id="パス_4323" data-name="パス 4323" d="M1432.667,585.961c-34.159-59.586-80.723-111.935-125.955-159.632q-3.107-3.264-6.268-6.613c-2.811-2.973-5.716-6.044-8.646-9.112l-.848-.886c-48.7-51.007-109.32-114.481-177.171-150.492-27.992-14.857-55.917-24.082-83-27.413-46.347-5.6-89.423,9.532-135.558,47.579-21.026,17.391-40.517,37.578-59.367,57.1-11.2,11.593-21.771,22.544-32.562,32.859-13.911,13.4-30.692,28.78-49.59,41.285-20.21,13.373-39.708,21.382-59.606,24.473-21.415,3.349-44.412,1.061-68.352-6.767-19.558-6.4-40.3-16.7-61.644-30.615a379.63,379.63,0,0,1-51.118-40c-49.949-46.6-89.281-104.766-127.317-161.008q-4.732-7-9.447-13.947c-6.476-9.5-13.084-19.287-19.476-28.757-9.462-14.019-19.251-28.523-29.007-42.658-2.264-3.285-4.83-7.164-7.543-11.271-15.4-23.288-38.668-58.478-65.4-73.051-11.2-6.141-22-8.117-32.114-5.9-10.82,2.411-20.6,6.5-30.063,10.454-12.881,5.382-26.2,10.943-42.169,12.273-29.01,2.414-57.831-1.319-85.708-4.931l-5.714-.737.033-.258,5.7.747c27.861,3.607,56.675,7.339,85.659,4.928,15.928-1.324,29.229-6.881,42.091-12.255,9.478-3.96,19.277-8.053,30.107-10.467,10.168-2.241,21.029-.258,32.281,5.925,26.792,14.6,50.077,49.822,65.488,73.134,2.715,4.1,5.279,7.986,7.543,11.263,9.756,14.138,19.542,28.639,29.01,42.663,6.391,9.467,13,19.259,19.476,28.755q4.714,6.956,9.442,13.95c38.031,56.239,77.356,114.4,127.284,160.975a379.18,379.18,0,0,0,51.085,39.976c47.3,30.836,90.973,43.4,129.819,37.354,42.8-6.672,77.711-35.522,109.06-65.691,10.789-10.3,21.361-21.261,32.555-32.851,18.857-19.527,38.353-39.716,59.39-57.118,21.588-17.806,41.932-30.308,62.2-38.217a148.364,148.364,0,0,1,73.564-9.439c27.111,3.336,55.067,12.569,83.088,27.441,30.233,16.047,61.443,38.693,95.412,69.239,29.6,26.614,57.345,55.668,81.823,81.3l.845.884c2.932,3.068,5.838,6.142,8.648,9.114q3.166,3.349,6.268,6.613c28.853,30.429,50.08,54.328,68.816,77.485,23.211,28.685,41.911,55.572,57.175,82.194Z" transform="translate(18.703 6.337)" fill="#0e0e0e"/>
        <path id="パス_4324" data-name="パス 4324" d="M1420.65,582.618c-32.65-64.73-78.9-120.418-119.841-166.356l-4.122-4.611c-3.349-3.751-6.8-7.628-10.3-11.52-52.435-58.169-109.107-117.876-174.579-152.666-27.76-14.756-55.474-23.775-82.374-26.812-46.038-5.119-88.5,10.979-133.619,50.667-20.06,17.675-38.6,38-56.533,57.649-11.209,12.286-21.8,23.891-32.6,34.739-12.649,12.765-29.6,29.064-48.534,41.9-19.888,13.476-39.2,21.423-59.04,24.3-21.423,3.091-44.41.319-68.329-8.275-19.421-6.979-39.394-17.613-61.054-32.508A435.99,435.99,0,0,1,519.152,348.4C467.3,299.837,425.381,240.06,384.861,182.252l-4.874-6.956c-6.3-8.944-12.7-18.115-18.9-26.985-10.031-14.362-20.406-29.213-30.707-43.658-2.6-3.65-5.626-8.146-8.823-12.9-15.248-22.67-38.289-56.932-64.068-71.3C246.3,14.193,235.538,12.207,225.5,14.51c-10.562,2.452-20.071,6.515-29.273,10.444-13,5.552-26.441,11.291-42.764,12.365-4.472.294-8.947.428-13.414.428-23.639,0-47.161-3.738-70.035-7.373q-4.142-.659-8.244-1.3l.039-.258q4.106.641,8.244,1.3c27.181,4.32,55.289,8.787,83.392,6.956,16.279-1.067,29.7-6.8,42.681-12.342,9.2-3.934,18.734-8,29.311-10.459,10.106-2.331,20.931-.322,32.186,5.979,25.831,14.383,48.892,48.689,64.146,71.379,3.2,4.756,6.219,9.248,8.818,12.9,10.3,14.447,20.679,29.3,30.71,43.663,6.183,8.867,12.6,18.033,18.9,26.982q2.434,3.47,4.874,6.956c40.525,57.8,82.436,117.564,134.257,166.109a435.725,435.725,0,0,0,50.536,40.7c48.07,33.047,90.337,46.37,129.213,40.741,43.021-6.229,77.052-35.463,107.425-66.124,10.8-10.843,21.382-22.446,32.593-34.731,17.935-19.656,36.483-39.984,56.554-57.667,21.068-18.53,40.978-31.614,60.869-40a142.592,142.592,0,0,1,72.94-10.727c26.931,3.04,54.678,12.069,82.47,26.841,30.313,16.108,61.265,38.946,94.626,69.813,29.412,27.217,56.726,57.066,80.022,82.908,3.506,3.89,6.955,7.77,10.3,11.52q2.061,2.319,4.122,4.611c26.938,30.226,47.937,55.747,66.085,80.316,22,29.78,39.6,57.94,53.795,86.094Z" transform="translate(19.571 4.226)" fill="#0e0e0e"/>
        <path id="パス_4325" data-name="パス 4325" d="M1408.633,579.279c-24.071-54.49-59.148-107.87-113.731-173.08-3.735-4.459-8.7-10.372-13.924-16.536-50.987-59.8-107.012-119.834-171.14-153.957-27.536-14.653-55.044-23.471-81.759-26.21-45.749-4.637-87.588,12.43-131.676,53.751-19.159,17.976-36.81,38.464-53.882,58.277-11.16,12.955-21.7,25.189-32.459,36.545-12.19,12.9-28.595,29.4-47.481,42.488-19.56,13.568-38.688,21.464-58.478,24.136a122.193,122.193,0,0,1-34.827-.541,159.565,159.565,0,0,1-33.49-9.274c-19.04-7.455-38.825-18.7-60.482-34.378a511.806,511.806,0,0,1-50.013-41.437C470.585,287.61,424.46,223.979,383.757,167.843c-5.809-8-11.7-16.155-17.4-24.043-10.9-15.094-22.173-30.7-33.33-45.829-2.921-3.96-6.234-8.813-10.073-14.426-16-23.43-37.9-55.513-62.778-69.658C249,7.512,238.28,5.5,228.3,7.9c-10.323,2.5-19.579,6.543-28.536,10.457-13.1,5.727-26.645,11.647-43.3,12.43-2.97.144-5.951.214-8.924.214-24.357,0-48.735-4.6-72.389-9.058-3.5-.659-7.113-1.342-10.642-1.991l.044-.258c3.532.649,7.146,1.332,10.645,1.991,26.534,5,53.983,10.178,81.264,8.839,16.613-.773,29.535-6.44,43.217-12.407,8.962-3.918,18.231-7.971,28.577-10.472,10.047-2.416,20.828-.4,32.06,6.01,11.028,6.273,22.456,16.621,34.937,31.635,10.647,12.8,20.223,26.828,27.915,38.093C327,89,330.31,93.854,333.228,97.811c11.16,15.132,22.433,30.738,33.333,45.832,5.7,7.888,11.593,16.044,17.4,24.04,40.7,56.131,86.815,119.749,141.532,171.194a511.4,511.4,0,0,0,49.992,41.417c48.076,34.8,90.144,49.24,128.6,44.139,43.372-5.856,77.825-36.926,105.8-66.547,10.753-11.35,21.292-23.584,32.459-36.537,17.075-19.818,34.729-40.311,53.9-58.3,20.537-19.249,40.015-32.918,59.545-41.785a136.989,136.989,0,0,1,72.33-12.033c26.73,2.751,54.279,11.58,81.844,26.248,30.19,16.062,60.709,38.948,93.3,69.962,29.149,27.74,55.742,58.056,77.91,84.051,5.23,6.167,10.189,12.079,13.927,16.539,25.262,30.179,45.984,57.376,63.352,83.15,20.823,30.9,37.315,60.333,50.417,89.992Z" transform="translate(20.438 2.112)" fill="#0e0e0e"/>
        <path id="パス_4326" data-name="パス 4326" d="M1396.62,575.937c-22.005-57.224-56.2-114.357-107.62-179.814-47.53-60.487-98.236-118.672-154.184-156.24a415.419,415.419,0,0,1,40.471,31.1c43.15,37.354,80.249,82.15,113.911,125,24.079,30.656,43.907,58.772,60.619,85.981,19.676,32.039,35.064,62.749,47.037,93.89ZM695.6,420.3a121.337,121.337,0,0,1-21.382-1.932,156.048,156.048,0,0,1-33.369-10.178c-18.633-7.916-38.23-19.787-59.908-36.293-82.5-62.806-146.489-148.57-208.36-231.509C360.5,124.187,348,107.44,335.67,91.28c-3.218-4.217-6.956-9.617-11.286-15.869C313.021,59,298.881,38.572,282.793,22.925,263.747,4.413,246.845-2.664,231.11,1.291c-10.122,2.543-19.156,6.577-27.892,10.48-13.777,6.154-26.792,11.966-43.753,12.484q-2.525.077-5.049.075c-25.079,0-50.335-5.5-74.813-10.82-4.068-.884-8.272-1.8-12.365-2.666l.052-.258c4.106.868,8.311,1.783,12.365,2.669,26.106,5.683,53.094,11.559,79.8,10.745,16.912-.515,29.9-6.317,43.658-12.461,8.746-3.908,17.791-7.947,27.933-10.505,8.408-2.112,17.376-1.007,26.658,3.287,7.986,3.7,16.487,9.892,25.246,18.414,16.1,15.663,30.254,36.1,41.625,52.525,4.325,6.25,8.063,11.647,11.278,15.859,12.334,16.16,24.831,32.907,36.916,49.106C434.645,223.147,498.623,308.9,581.09,371.681c30.713,23.384,77.4,53.751,128,47.537,43.485-5.338,77.065-36.839,104.176-66.979,10.647-11.827,21.086-24.669,32.14-38.266,24.051-29.584,48.921-60.176,78.157-82.748,15.828-12.221,31.318-20.867,47.36-26.447a132.1,132.1,0,0,1,55.83-6.713c25.542,2.352,51.8,10.415,78.057,23.958q4.459,2.3,8.96,4.838c-27.662-15.547-56.6-25.761-87.032-28.554-80.919-7.45-134.157,58.04-181.128,115.818-11.057,13.6-21.5,26.441-32.148,38.273-27.145,30.156-60.766,61.7-104.333,67.051a110.676,110.676,0,0,1-13.522.845Z" transform="translate(21.304 0)" fill="#0e0e0e"/>
      </g>
    </g>
  </g>
</svg>
