<svg xmlns="http://www.w3.org/2000/svg" xmlns:xlink="http://www.w3.org/1999/xlink" width="375" height="668" viewBox="0 0 375 668">
  <defs>
    <clipPath id="clip-path">
      <rect id="長方形_499" data-name="長方形 499" width="375" height="668" fill="#f4f4f4"/>
    </clipPath>
  </defs>
  <g id="マスクグループ_44" data-name="マスクグループ 44" opacity="0.189" clip-path="url(#clip-path)">
    <g id="レイヤー_2" data-name="レイヤー 2" transform="translate(-361 0.031)">
      <g id="_饑1" data-name="ﾑ饑1" transform="translate(-0.001 -0.002)">
        <path id="パス_7933" data-name="パス 7933" d="M508.1,247.093a193.327,193.327,0,0,1-21.419-1.21,238.122,238.122,0,0,1-43.556-9.288A326.291,326.291,0,0,1,400.972,220.1c-22.688-10.65-44.656-24.028-65.9-36.964-28.6-17.413-58.167-35.417-89.908-47.039-37.869-13.861-69.772-6.272-97.543,23.2-7.478,7.934-14.474,17.3-21.242,26.356-13.765,18.423-28,37.475-48.1,47.746-12,6.128-25.151,7.161-40.214,3.157C24.7,233.008,11.583,225.993,0,219.8l.077-.144c23.991,12.822,51.185,27.356,78.118,13.6,20.074-10.255,34.3-29.289,48.049-47.7,6.769-9.06,13.77-18.432,21.253-26.369a108.839,108.839,0,0,1,21.567-17.962,77.179,77.179,0,0,1,48.7-11.657,107.726,107.726,0,0,1,27.45,6.367c31.758,11.625,61.327,29.635,89.938,47.051,21.242,12.936,43.207,26.307,65.886,36.957,65.181,30.6,123.492,35.124,173.339,13.447,51.562-22.425,89.266-65.779,125.729-107.706,3.837-4.41,7.8-8.971,11.694-13.4l2.872-3.271c14.63-16.679,31.211-35.583,49.913-50.1,21.483-16.686,42.393-24.966,63.949-25.322,19.772-.327,40.513,5.362,63.422,17.359,20.059,10.511,38.623,24.067,56.575,37.175,4.08,2.978,7.934,5.791,11.8,8.562l-.1.134c-3.862-2.773-7.716-5.586-11.8-8.566-35.02-25.57-74.666-54.514-118.287-54.514-.54,0-1.071,0-1.612.013-48.319.793-84.594,42.145-113.741,75.372q-1.444,1.649-2.872,3.272c-3.889,4.427-7.857,8.988-11.692,13.4-36.474,41.94-74.19,85.308-125.787,107.741a162.47,162.47,0,0,1-43.691,12.091,173.96,173.96,0,0,1-22.649,1.463Z" transform="translate(0.001 64.585)" fill="#0e0e0e"/>
        <path id="パス_7934" data-name="パス 7934" d="M504.5,239c-32.592,0-67.461-8.043-104.306-24.087-24.112-10.5-47.55-24.038-70.218-37.125-27.058-15.622-55.037-31.774-84.668-43.132-38.631-14.807-69.077-9.586-95.814,16.433-7.078,6.87-13.452,14.568-20.2,22.726-13.835,16.724-28.15,34.015-48.941,43.566a58.249,58.249,0,0,1-24.668,5.286,78,78,0,0,1-16.645-1.9C25.692,217.846,12.966,212.149.02,206.088l.069-.147c21.877,10.25,51.838,24.286,80.2,11.28,20.764-9.522,35.059-26.81,48.884-43.515,6.751-8.162,13.128-15.87,20.213-22.738A94.591,94.591,0,0,1,170.4,135.274a73.973,73.973,0,0,1,22.807-7.855c15.767-2.647,32.842-.335,52.168,7.081,29.645,11.361,57.627,27.518,84.69,43.143,22.664,13.085,46.1,26.614,70.208,37.115,64.666,28.174,123.237,31.637,174.083,10.293,49.99-21.025,87.248-60.154,123.281-98.011,5.183-5.444,10.541-11.072,15.8-16.5l2.638-2.723c15.018-15.508,32.039-33.085,51.106-46.473,21.895-15.37,43.125-22.847,64.9-22.855,44.177,0,84.763,27.7,120.573,52.141,4.6,3.14,8.951,6.108,13.306,9.018l-.092.137c-4.357-2.912-8.7-5.88-13.306-9.021C916.769,66.343,876.2,38.657,832.083,38.657c-48.829.018-86.015,38.422-115.895,69.278l-2.639,2.723c-5.258,5.422-10.617,11.059-15.8,16.5-36.042,37.869-73.312,77.009-123.336,98.048A178.709,178.709,0,0,1,504.5,239Z" transform="translate(0.04 74.051)" fill="#0e0e0e"/>
        <path id="パス_7935" data-name="パス 7935" d="M500.38,231q-7.279,0-14.66-.489c-27.527-1.833-56.562-8.819-86.293-20.766-25.95-10.426-51.3-24.3-75.809-37.713-25.1-13.74-51.046-27.936-78.15-38.8-39.5-15.828-68.517-12.847-94.087,9.663A262.4,262.4,0,0,0,132.2,162.181c-13.892,14.946-28.259,30.4-49.752,39.182a69.172,69.172,0,0,1-26.51,5.045,93.15,93.15,0,0,1-15.906-1.436c-14.41-2.493-28.194-7.8-39.987-12.567l.06-.151c26.483,10.724,54.65,20.248,82.28,8.961,21.459-8.765,35.813-24.207,49.695-39.14a261.725,261.725,0,0,1,19.2-19.3c13.07-11.5,27.032-17.8,42.7-19.251,15.137-1.4,32,1.723,51.557,9.551,27.115,10.865,53.068,25.07,78.167,38.805,24.509,13.4,49.852,27.284,75.792,37.7,64.1,25.752,122.92,28.15,174.827,7.14,48.348-19.65,85.057-54.792,120.558-88.777,6.62-6.337,13.465-12.889,20.181-19.132l2.292-2.133c15.424-14.35,32.9-30.613,52.362-42.874,22.322-14.063,43.884-20.737,65.915-20.4,44.016.71,84.943,26.79,121.052,49.8,5.159,3.288,10.032,6.392,14.913,9.427l-.087.139c-4.879-3.035-9.752-6.141-14.913-9.429-36.091-23-77-49.062-120.968-49.765-.521-.008-1.042-.012-1.56-.012-48.634,0-86.293,35.032-116.6,63.239l-2.292,2.131c-6.716,6.243-13.561,12.795-20.179,19.132-35.513,33.995-72.233,69.147-120.61,88.807a192.181,192.181,0,0,1-44.206,11.984A205.535,205.535,0,0,1,500.38,231Z" transform="translate(0.08 83.489)" fill="#0e0e0e"/>
        <path id="パス_7936" data-name="パス 7936" d="M495.739,223.078q-5.218,0-10.483-.235c-27.9-1.235-57.032-7.373-86.6-18.251-28.418-10.452-56.339-24.956-83.338-38.981-22.492-11.684-45.744-23.765-69.695-33.782-40.4-16.9-68.018-16.034-92.361,2.9-6.227,4.841-11.929,10.2-17.964,15.87-13.995,13.147-28.467,26.741-50.771,34.779C71.5,190.065,57.26,191.324,41,189.207,26.172,187.275,11.983,182.827.06,178.73l.052-.156c27.332,9.383,56.468,16.7,84.36,6.645,22.27-8.026,36.729-21.615,50.712-34.745,6.032-5.674,11.744-11.032,17.976-15.878,12.624-9.816,26.232-14.7,41.605-14.926,14.434-.216,31.089,3.713,50.92,12.009,23.951,10.02,47.212,22.1,69.7,33.787,27,14.023,54.909,28.525,83.318,38.973,63.46,23.339,122.53,24.68,175.573,3.986,46.615-18.289,82.664-49.653,117.526-79.983,8.157-7.1,16.588-14.435,24.871-21.327l1.8-1.508c15.851-13.2,33.819-28.169,53.685-39.308,22.768-12.768,44.686-18.638,67-17.947,19.574.627,40.312,5.895,63.395,16.106,20.29,8.975,39.47,20.37,58.021,31.391,5.756,3.418,11.193,6.649,16.632,9.791l-.08.142c-5.442-3.143-10.878-6.367-16.635-9.792C924.146,74.4,882.945,49.925,839.16,48.517c-50.028-1.552-87.5,29.672-120.576,57.217l-1.8,1.508c-8.276,6.89-16.711,14.228-24.868,21.325-34.873,30.338-70.933,61.711-117.575,80.012A215.177,215.177,0,0,1,495.739,223.078Z" transform="translate(0.116 92.91)" fill="#0e0e0e"/>
        <path id="パス_7937" data-name="パス 7937" d="M490.49,215.254q-2.848,0-5.7-.064c-28.272-.628-57.517-5.923-86.917-15.734-31.912-10.648-62.073-25.593-94.016-41.414-18.839-9.331-38.319-18.981-58.085-27.6-42.086-18.356-67.5-19.437-90.635-3.872-5.818,3.916-11.188,8.21-16.872,12.746-14.052,11.227-28.581,22.833-51.655,30.084a106.45,106.45,0,0,1-32.031,4.633c-19.6,0-38.619-4.442-54.5-8.959l.045-.158c24.489,6.965,56.446,13.752,86.439,4.328,23.046-7.24,37.564-18.839,51.608-30.055,5.687-4.544,11.059-8.835,16.883-12.755a61.986,61.986,0,0,1,19.385-8.84,65.889,65.889,0,0,1,21.113-1.781c13.787.925,29.77,5.529,50.3,14.481,19.772,8.623,39.251,18.264,58.093,27.605,31.934,15.818,62.1,30.759,94,41.406,61.85,20.638,122.821,20.927,176.315.838C619.04,183.2,654.3,155.4,688.4,128.525c10.266-8.091,19.961-15.732,29.914-23.1l1.111-.821c16.314-12.064,34.8-25.751,55.1-35.781,23.241-11.481,45.544-16.553,68.2-15.5C862.206,54.251,882.9,59.39,906,69.031c20.325,8.485,39.663,19.179,58.366,29.521,6.4,3.539,12.448,6.883,18.5,10.121l-.077.146c-6.05-3.239-12.1-6.583-18.5-10.124-36.563-20.218-78.006-43.133-121.563-45.208-50.744-2.346-89.231,26.126-123.187,51.252l-1.109.823c-9.953,7.361-19.648,15-29.911,23.093-34.112,26.885-69.387,54.688-114.185,71.64A237.694,237.694,0,0,1,490.49,215.254Z" transform="translate(0.156 102.318)" fill="#0e0e0e"/>
        <path id="パス_7938" data-name="パス 7938" d="M484.48,207.586h-.124a304.794,304.794,0,0,1-87.242-13.212c-37.243-11.156-72.765-28.127-110.37-46.094-13.3-6.356-27.058-12.927-40.811-19.176-37.78-17.162-64.44-24.405-88.907-10.64-5.4,3.04-10.426,6.325-15.751,9.8-14.1,9.216-28.685,18.767-52.579,25.209-24.536,6.62-53.517,5.963-88.6-2.011l.035-.159c35.055,7.966,64.008,8.624,88.522,2.011,23.869-6.439,38.44-15.972,52.532-25.189,5.318-3.479,10.342-6.764,15.751-9.807,24.529-13.8,51.228-6.55,89.056,10.635,13.753,6.247,27.51,12.82,40.813,19.176,37.6,17.964,73.115,34.933,110.347,46.079,61.034,18.281,122.26,17.48,177.061-2.321,42.8-15.6,77.136-40.032,110.338-63.653,12.145-8.641,23.616-16.8,35.377-24.464l.158-.1c17.636-11.485,35.873-23.36,56.645-32.287,23.75-10.208,46.49-14.482,69.516-13.07,19.358,1.218,39.986,6.228,63.061,15.313,20.33,8,39.794,18,58.616,27.674,7.11,3.651,13.824,7.1,20.541,10.426l-.072.146c-6.719-3.324-13.433-6.774-20.543-10.427C931.133,82.583,889.514,61.2,846.237,58.476c-51.585-3.172-91.153,22.6-126.062,45.328l-.156.1c-11.759,7.657-23.229,15.818-35.372,24.464C651.435,152,617.092,176.431,574.268,192.043A263.149,263.149,0,0,1,484.48,207.586Z" transform="translate(0.189 111.672)" fill="#0e0e0e"/>
        <path id="パス_7939" data-name="パス 7939" d="M477.523,200.067a316.8,316.8,0,0,1-81.191-10.747c-20.853-5.529-43.509-13.5-69.263-24.35-23.026-9.7-46.582-20.866-69.351-31.669l-11.64-5.511c-37.017-17.495-63.085-28.15-87.185-17.409-4.95,2.208-9.583,4.546-14.486,7.021-14.166,7.148-28.82,14.537-53.619,20.173A196.855,196.855,0,0,1,47.448,142.1,282.686,282.686,0,0,1,.123,137.887l.027-.168c23.17,3.985,57.7,7.167,90.6-.307,24.8-5.63,39.434-13.016,53.589-20.159,4.9-2.477,9.539-4.814,14.494-7.024,11.19-4.99,23.344-5.63,38.254-2.011,13.638,3.309,28.886,9.886,49.067,19.422q5.831,2.756,11.64,5.513c47.393,22.465,92.158,43.685,138.587,56,60.092,15.942,121.577,14.048,177.8-5.474,40.66-14.266,73.894-35.523,106.029-56.074,14.206-9.087,27.624-17.667,41.345-25.441,17.034-9.65,36.339-20.585,57.894-28.433,24.062-8.76,47.071-12.153,70.342-10.375,19.207,1.508,39.73,6.379,62.745,14.913,20.3,7.53,39.846,16.841,58.75,25.846,7.894,3.76,15.35,7.311,22.808,10.714l-.067.149c-7.46-3.4-14.913-6.955-22.812-10.715-36.8-17.528-78.507-37.394-121.437-40.747-52.575-4.021-94.474,19.717-128.141,38.788-13.716,7.77-27.133,16.35-41.337,25.436-32.146,20.56-65.385,41.82-106.065,56.091a293.864,293.864,0,0,1-90.326,16.159Q480.718,200.069,477.523,200.067Z" transform="translate(0.238 120.998)" fill="#0e0e0e"/>
        <path id="パス_7940" data-name="パス 7940" d="M469.558,192.768a328.891,328.891,0,0,1-73.955-8.429c-52.748-12.179-105.1-36.044-149.368-57.785l-4.869-2.394c-35.315-17.381-58.646-28.862-80.6-21.783-4.34,1.4-8.423,2.83-12.746,4.343-14.3,5.007-29.082,10.183-55.156,15.03a306.537,306.537,0,0,1-55.127,4.786,321.108,321.108,0,0,1-37.6-2.158l.018-.168c30.5,3.614,64.274,2.659,92.682-2.624,26.062-4.846,40.839-10.02,55.127-15.023,4.325-1.508,8.41-2.944,12.751-4.345,22.011-7.1,45.365,4.392,80.715,21.783l4.869,2.4c44.254,21.736,96.6,45.6,149.3,57.763a329.86,329.86,0,0,0,178.549-8.628c38.308-12.921,70.224-31.188,101.089-48.855,16.5-9.442,32.078-18.36,47.947-26.062,19.293-9.363,38.329-18.282,59.093-24.509,24.311-7.291,47.554-9.794,71.056-7.651,19.016,1.768,39.39,6.515,62.287,14.511,20.216,7.059,39.8,15.685,58.737,24.03,8.778,3.867,17.071,7.52,25.365,11l-.064.151c-8.3-3.48-16.589-7.133-25.369-11-38.584-17-78.48-34.576-120.978-38.527-53.736-4.9-96.057,15.642-130.063,32.145-15.865,7.708-31.443,16.617-47.936,26.057-30.873,17.671-62.795,35.943-101.117,48.867a331.392,331.392,0,0,1-90.72,16.783Q476.523,192.768,469.558,192.768Z" transform="translate(0.272 130.26)" fill="#0e0e0e"/>
        <path id="パス_7941" data-name="パス 7941" d="M460.475,185.727a340.822,340.822,0,0,1-65.683-6.315,485.812,485.812,0,0,1-74.229-21.247,694.175,694.175,0,0,1-74.172-32.781c-6.679-3.406-12.815-6.652-18.75-9.792-27.081-14.325-46.647-24.675-64.991-21.154l-4.021.774c-16.324,3.143-31.743,6.111-63.673,10.782-33.631,4.921-68.183,6.723-94.8,4.943l.012-.168c26.6,1.778,61.141-.023,94.762-4.941,31.924-4.672,47.341-7.639,63.663-10.782l4.021-.772c8.505-1.634,17.761-.426,29.129,3.8,10.528,3.913,22.317,10.149,35.968,17.371,5.935,3.138,12.064,6.384,18.748,9.79,52.639,26.845,102.555,45.018,148.361,54.013a339.692,339.692,0,0,0,65.431,6.273,374.817,374.817,0,0,0,113.864-18.055c35.682-11.552,66.01-27.012,95.342-41.965,19.08-9.718,37.1-18.914,55.353-26.352,18.607-7.582,38.591-15.416,60.306-20.58a210.131,210.131,0,0,1,71.759-4.933c18.767,2.021,38.931,6.627,61.64,14.085,20.07,6.59,39.621,14.536,58.527,22.22,9.8,3.983,19.05,7.743,28.306,11.3l-.059.152c-9.258-3.557-18.512-7.319-28.309-11.3-38.443-15.625-78.2-31.783-120.124-36.3-50.9-5.379-91.476,8.993-131.985,25.5-18.246,7.436-36.265,16.622-55.342,26.347-29.336,14.955-59.67,30.419-95.365,41.975A378.9,378.9,0,0,1,483.055,185Q471.742,185.728,460.475,185.727Z" transform="translate(0.305 139.449)" fill="#0e0e0e"/>
        <path id="パス_7942" data-name="パス 7942" d="M450.455,179.058a353.619,353.619,0,0,1-56.429-4.445,459.268,459.268,0,0,1-73.83-18.5,504.115,504.115,0,0,1-73.649-31.784c-10.928-5.783-20.664-11.5-29.254-16.552C195.575,95.018,179.883,85.8,164.526,86.615c-5.3.283-10.389.392-15.774.5-12.755.275-27.212.585-51.7,3.232l-7.038.762c-29.573,3.215-60.1,6.535-85.327,6.535q-2.284,0-4.506-.039v-.168c26.034.436,58.457-3.088,89.812-6.5l7.038-.762c24.5-2.647,38.961-2.959,51.719-3.232,5.382-.116,10.466-.225,15.769-.5,15.4-.821,31.116,8.41,52.858,21.186,8.587,5.047,18.323,10.767,29.248,16.548,47.048,24.893,98.023,42.275,147.428,50.268,56.451,9.129,118.708,3.964,180.04-14.935,32.83-10.117,61.292-23,88.817-35.457,21.95-9.936,42.691-19.323,63.537-26.262,17.808-5.928,38.718-12.59,61.531-16.639a243.081,243.081,0,0,1,72.45-2.227c41.22,5.027,80.653,19.772,118.8,34.036,10.994,4.11,21.379,7.993,31.766,11.632l-.054.154c-10.389-3.639-20.777-7.523-31.771-11.634-38.128-14.256-77.557-29-118.755-34.026C808.017,72.8,765.53,84.958,726.5,97.951c-20.839,6.937-41.572,16.322-63.522,26.257-27.529,12.46-56,25.343-88.835,35.464a435.425,435.425,0,0,1-91.479,18.023Q466.434,179.058,450.455,179.058Z" transform="translate(0.345 148.518)" fill="#0e0e0e"/>
        <path id="パス_7943" data-name="パス 7943" d="M439.032,177.961a363.21,363.21,0,0,1-45.782-2.832,436.115,436.115,0,0,1-73.421-15.766A392.729,392.729,0,0,1,246.7,128.594c-14.534-7.973-26.575-16.009-37.2-23.1-16.89-11.272-30.231-20.176-43.1-21.387-4.469-.422-8.755-1.071-13.294-1.758-12.976-1.965-27.683-4.189-53.971-2.319-14.814,1.054-30.412,2.887-45.5,4.66C34.314,86.961,16.065,89.105.2,89.608V89.44c15.856-.5,34.1-2.646,53.42-4.915,15.08-1.773,30.685-3.606,45.5-4.662,26.307-1.873,41.024.355,54.008,2.322,4.536.685,8.82,1.34,13.284,1.754,12.912,1.218,26.268,10.131,43.179,21.416,10.62,7.088,22.657,15.121,37.187,23.09,43.946,24.107,93.234,39.757,146.494,46.516a363.2,363.2,0,0,0,45.762,2.83c42.57,0,87.8-6.994,135.021-20.918,29.447-8.681,55.541-19.1,80.777-29.176,25.389-10.136,49.368-19.71,73.239-25.943,19.053-4.977,39.846-9.956,62.765-12.683a287.337,287.337,0,0,1,73.13.464c40.243,5.484,79.1,18.809,116.685,31.7,12.446,4.268,24.2,8.3,35.96,12.037l-.05.156c-11.758-3.738-23.515-7.771-35.963-12.039C943.027,108.5,904.175,95.181,863.947,89.7c-54.289-7.285-96.868,2.039-135.832,12.213-23.861,6.232-47.835,15.8-73.224,25.938-25.24,10.077-51.337,20.5-80.791,29.181C526.862,170.957,481.612,177.959,439.032,177.961Z" transform="translate(0.388 152.273)" fill="#0e0e0e"/>
        <path id="パス_7944" data-name="パス 7944" d="M426.334,184.849q-17.389,0-33.847-1.508c-55.677-5.119-104.673-19.514-145.628-42.788-17.594-9.993-31.166-20.426-43.153-29.631-13.753-10.556-24.618-18.909-35.431-21.627-4.021-1.005-7.909-2.3-12.017-3.668-12.978-4.31-27.688-9.2-55.033-8.224-19.784.705-40.6,3.789-60.727,6.773C26.036,86.317,12.379,88.341.229,89.3l-.013-.168c12.145-.955,25.8-2.978,40.258-5.121,20.132-2.984,40.952-6.069,60.744-6.773,27.378-.975,42.1,3.916,55.092,8.232,4.105,1.364,7.981,2.651,12.006,3.663,10.846,2.726,21.721,11.081,35.491,21.657,11.979,9.2,25.555,19.63,43.133,29.62,40.935,23.261,89.909,37.649,145.561,42.766q16.733,1.538,34.216,1.54c44.611,0,93.147-7.527,147.314-22.788,25.442-7.167,48.53-15.27,70.856-23.1,29.522-10.362,57.406-20.149,84.819-25.416,16.94-3.254,39.526-7.187,64.008-8.713a349.441,349.441,0,0,1,73.805,3.142c38.912,5.848,76.83,17.735,113.5,29.231,14.273,4.474,27.755,8.7,41.231,12.567l-.045.157c-13.478-3.867-26.96-8.095-41.235-12.567-36.662-11.495-74.574-23.38-113.473-29.224-50.965-7.552-91.928-3.236-137.756,5.57-27.4,5.265-55.28,15.05-84.8,25.409-22.329,7.837-45.419,15.94-70.866,23.108-32.4,9.124-63.426,15.583-92.227,19.177A446.943,446.943,0,0,1,426.334,184.849Z" transform="translate(0.416 148.334)" fill="#0e0e0e"/>
        <path id="パス_7945" data-name="パス 7945" d="M413.2,192.447q-10.915,0-21.485-.6c-58.343-3.311-105.675-16.086-144.7-39.041-20.157-11.858-35.337-25.369-47.533-36.223-11.294-10.054-20.214-17.991-29.331-21.811-3.686-1.543-7.235-3.4-11-5.362-12.924-6.739-27.575-14.382-55.838-14.343-22.788.027-47.773,4.631-69.822,8.695C21.612,85.947,10.387,88.017.253,89.275l-.02-.168c10.129-1.258,21.352-3.326,33.232-5.514,22.051-4.055,47.053-8.661,69.851-8.685h.186c28.185,0,42.815,7.629,55.727,14.363,3.762,1.96,7.316,3.814,10.989,5.362,9.142,3.83,18.071,11.78,29.377,21.841,12.192,10.85,27.363,24.351,47.507,36.2,39,22.944,86.312,35.707,144.629,39.018,51.5,2.922,109.417-4.829,182.273-24.4,20.585-5.529,39.754-11.441,58.289-17.158,34.646-10.687,67.371-20.777,99.046-24.76a547.574,547.574,0,0,1,65.25-4.727,440.523,440.523,0,0,1,74.475,5.8C908.1,132.529,944.494,142.935,979.7,153c16.684,4.769,32.441,9.273,48.184,13.318l-.042.168c-15.751-4.047-31.5-8.546-48.185-13.319-35.2-10.062-71.6-20.467-108.614-26.538a444.091,444.091,0,0,0-71.411-5.806,537.156,537.156,0,0,0-68.269,4.715c-31.669,3.978-64.378,14.075-99.018,24.754-18.537,5.719-37.7,11.63-58.3,17.16-34.3,9.216-64.589,15.669-92.594,19.734A474.723,474.723,0,0,1,413.2,192.447Z" transform="translate(0.45 144.099)" fill="#0e0e0e"/>
        <path id="パス_7946" data-name="パス 7946" d="M399.091,200.575q-4.1,0-8.138-.087c-27.177-.58-50.781-3.088-72.165-7.669a255.06,255.06,0,0,1-36.5-10.607A210.449,210.449,0,0,1,247.176,165.2c-22.3-13.572-38.026-29.826-50.662-42.875-8.99-9.288-16.756-17.309-24.482-21.935-3.363-2.011-6.627-4.357-10.082-6.853-12.842-9.246-27.4-19.727-56.543-20.662-24.94-.8-52.242,5.261-76.329,10.608C18.815,85.757,9.122,87.908.278,89.4L.251,89.23c8.84-1.488,18.53-3.639,28.792-5.918,24.093-5.342,51.406-11.4,76.372-10.6,13.013.417,24.31,2.8,34.536,7.291,8.933,3.921,15.918,8.958,22.1,13.4,3.452,2.487,6.714,4.834,10.072,6.845,7.746,4.638,15.518,12.668,24.514,21.962,12.629,13.048,28.344,29.286,50.63,42.85,49.144,29.911,105.546,34.454,143.7,35.27,61.045,1.3,124.038-12.471,183.017-27.55,14.517-3.711,28.428-7.507,41.89-11.178,43.006-11.729,80.147-21.863,117.113-24.142a614.743,614.743,0,0,1,66.493-.721,585.448,585.448,0,0,1,75.149,8.443c34.2,6.072,68.122,14.9,100.927,23.44,20.08,5.228,39.041,10.164,57.976,14.484l-.037.168c-18.934-4.321-37.9-9.259-57.976-14.486-32.8-8.537-66.722-17.366-100.915-23.438-47.947-8.418-91.62-10.8-141.6-7.719-36.949,2.275-74.083,12.4-117.081,24.129-13.453,3.671-27.366,7.467-41.89,11.178-37.626,9.62-66.3,15.873-92.962,20.275C451.073,198.151,424.163,200.575,399.091,200.575Z" transform="translate(0.485 139.727)" fill="#0e0e0e"/>
        <path id="パス_7947" data-name="パス 7947" d="M381.935,209.263c-24.313,0-44.66-1.63-63.488-5.064a225.786,225.786,0,0,1-36.36-9.68,181.176,181.176,0,0,1-34.747-16.863c-24.082-15.156-40.007-34.236-52.8-49.566-7.525-9.016-14.023-16.8-20.62-22.022-3.066-2.426-6.056-5.194-9.216-8.145-12.735-11.835-27.175-25.25-57.195-27.178-26.655-1.712-55.789,5.865-81.494,12.549C16.867,85.669,8.237,87.912.3,89.588L.268,89.42c7.932-1.676,16.56-3.919,25.694-6.3,25.717-6.687,54.866-14.266,81.546-12.554,13.4.861,24.935,4.132,35.263,10,9.008,5.119,15.928,11.548,22.032,17.222,3.164,2.939,6.151,5.714,9.216,8.137,6.61,5.231,13.113,13.023,20.643,22.044,12.788,15.322,28.7,34.39,52.763,49.534C293.639,206.595,348,209.633,390.187,209.03c60.935-.87,126.191-16.719,183.763-30.7,6.667-1.619,13.272-3.244,19.66-4.814,52.145-12.825,97.185-23.9,140.94-23.9h.057c22.879,0,45.035,1.084,67.733,3.3,24,2.346,48.8,5.962,75.823,11.071,29.589,5.65,59.2,12.686,87.841,19.491,25.352,6.032,49.3,11.712,73.145,16.5l-.033.168c-23.849-4.786-47.8-10.476-73.148-16.5-28.638-6.8-58.249-13.84-87.835-19.489-52.507-9.925-96.771-14.355-143.525-14.365h-.057c-43.733,0-88.763,11.074-140.9,23.9-6.387,1.572-12.993,3.2-19.66,4.816-33.47,8.13-63.6,15.307-93.331,20.794-34.077,6.289-63.673,9.532-90.471,9.915Q385.985,209.263,381.935,209.263Z" transform="translate(0.518 135.285)" fill="#0e0e0e"/>
        <path id="パス_7948" data-name="パス 7948" d="M363.235,218.669a305.38,305.38,0,0,1-45.132-3.081,202.292,202.292,0,0,1-36.226-8.745,158.374,158.374,0,0,1-34.385-16.7c-25.548-16.619-41.416-38.6-54.165-56.27-6.367-8.815-11.858-16.429-17.532-22.1-2.783-2.778-5.509-5.915-8.4-9.234-11.991-13.79-26.912-30.953-57.808-33.9-28.107-2.681-58.8,6.459-85.873,14.522C15.419,85.637,7.579,87.971.327,89.8l-.04-.158c7.249-1.833,15.08-4.167,23.385-6.639C50.761,74.94,81.467,65.8,109.607,68.481c13.787,1.315,25.556,5.5,35.98,12.8,9.078,6.367,15.918,14.217,21.939,21.151,2.884,3.318,5.608,6.451,8.378,9.226,5.685,5.675,11.183,13.294,17.55,22.118,12.743,17.654,28.6,39.626,54.122,56.228,43.887,28.545,96.325,30.054,141.834,27.77,50.436-2.532,101.151-14.41,154.846-26.977,9.692-2.27,19.715-4.616,29.658-6.885,61.737-14.345,112.89-25.08,162.315-22.118,41.429,2.483,84.935,8.768,145.472,21.014,20.918,4.271,42.042,8.919,62.471,13.417,34.909,7.684,67.882,14.941,100.6,20.637l-.029.168c-32.719-5.7-65.7-12.954-100.606-20.638-20.427-4.5-41.555-9.145-62.47-13.415-60.529-12.244-104.028-18.527-145.442-21.01-49.4-2.961-100.544,7.771-162.268,22.118-9.948,2.269-19.971,4.615-29.658,6.885-53.7,12.567-104.425,24.445-154.874,26.977C381.583,218.336,372.729,218.669,363.235,218.669Z" transform="translate(0.554 130.816)" fill="#0e0e0e"/>
        <path id="パス_7949" data-name="パス 7949" d="M1050.387,233.952c-54.47-8.086-110.745-20.3-165.167-32.12l-13.391-2.89c-49.1-10.608-91.51-19.772-133.979-24.765a294.8,294.8,0,0,0-34.517-1.937c-42.976,0-87.227,8.184-129.4,17.448-17.912,3.866-35.789,8.1-53.078,12.205-45.687,10.833-88.84,21.066-132.2,24.812-19.675,1.7-45.514,3.267-70.878.282a182.865,182.865,0,0,1-36.089-7.8,140.033,140.033,0,0,1-34.025-16.53C220.9,184.679,205.283,159.74,192.733,139.7c-5.211-8.319-10.132-16.178-15.054-22.19-2.513-3.07-4.983-6.493-7.6-10.116-11.855-16.421-26.609-36.838-58.4-40.829-29.392-3.686-61.459,7.051-89.75,16.528C14.285,85.656,7.063,88.074.349,90.043L.3,89.887C7.015,87.918,14.235,85.5,21.879,82.94,35.451,78.391,50.85,73.235,66.157,69.8c17.53-3.934,32.428-5.045,45.544-3.4a68.793,68.793,0,0,1,36.7,15.709c9.14,7.642,15.873,16.964,21.813,25.188,2.616,3.621,5.085,7.038,7.594,10.107,4.928,6.02,9.853,13.882,15.065,22.207,12.544,20.027,28.15,44.95,54.873,62.9,42.058,28.264,94.829,28,140.9,24.023,43.343-3.745,86.491-13.976,132.171-24.807,17.291-4.1,35.168-8.339,53.081-12.205,35.224-7.738,61.754-12.364,86.022-15,28.8-3.128,54.3-3.3,77.954-.513,42.478,5,84.888,14.16,133.994,24.767q6.6,1.428,13.393,2.89c54.418,11.815,110.692,24.033,165.157,32.118Z" transform="translate(0.586 126.324)" fill="#0e0e0e"/>
        <path id="パス_7950" data-name="パス 7950" d="M1056.025,250.888c-51.681-6.4-107.954-16.552-167.258-30.186-19.906-4.544-38.494-9.142-56.468-13.589-32.073-7.932-62.367-15.427-92.828-20.712a311.159,311.159,0,0,0-53.535-4.434c-32.507,0-68.809,4.392-112.039,13.346-24.393,4.965-48.524,10.917-71.858,16.672-39.346,9.7-76.511,18.869-114.154,23.5-21.146,2.6-46.054,4.978-70.462,2.9a166.547,166.547,0,0,1-35.947-6.853,124.842,124.842,0,0,1-33.666-16.352c-27.728-19.238-42.961-47.158-55.2-69.593-4.5-8.244-8.745-16.029-13.048-22.326-2.252-3.3-4.479-6.935-6.836-10.788-11.7-19.117-26.26-42.909-58.956-47.969-30.56-4.73-65.348,8.189-93.291,18.571C13.364,85.718,6.645,88.213.372,90.3l-.05-.154c6.272-2.086,12.989-4.581,20.107-7.224,14.063-5.223,30-11.144,45.942-15.052,18.284-4.482,33.8-5.637,47.431-3.519,32.771,5.072,47.354,28.9,59.07,48.044,2.358,3.854,4.583,7.487,6.833,10.781,4.306,6.3,8.556,14.092,13.055,22.339,12.232,22.42,27.453,50.322,55.149,69.537,40.333,27.983,91.1,26.283,139.963,20.275C425.5,230.7,462.665,221.533,502,211.832c23.338-5.756,47.468-11.707,71.865-16.672,32.83-6.8,61.2-10.891,86.729-12.523,28.606-1.821,54.417-.64,78.906,3.609,30.462,5.287,60.759,12.781,92.828,20.715,17.978,4.445,36.565,9.048,56.468,13.587,59.3,13.633,115.568,23.794,167.243,30.183Z" transform="translate(0.62 121.816)" fill="#0e0e0e"/>
        <path id="パス_7951" data-name="パス 7951" d="M1061.66,267.832c-59.651-5.96-116.622-15.464-169.349-28.251-27.5-6.63-52.622-13.907-76.91-20.945-25.508-7.393-49.6-14.375-74.3-20a322.864,322.864,0,0,0-72.218-7.813c-29.035,0-60.308,3.37-95.015,10.126-29.9,5.724-59.226,13.375-87.589,20.777-34.105,8.9-66.32,17.3-99.16,22.549-19.065,3.048-39.268,5.779-59.371,5.779q-5.344,0-10.667-.27a150.658,150.658,0,0,1-35.8-5.9,112.467,112.467,0,0,1-33.311-16.166c-12.693-9.09-23.733-20.97-33.752-36.317-8.713-13.346-15.429-27.43-21.356-39.858-3.918-8.21-7.619-15.977-11.411-22.52-2.011-3.46-3.995-7.242-6.1-11.247-11.525-21.905-25.866-49.165-59.484-55.322C84.215,56.665,48.205,71.323,19.271,83.1,12.6,85.818,6.3,88.382.4,90.57L.34,90.418c5.9-2.188,12.2-4.752,18.869-7.466,14.512-5.908,30.96-12.6,47.488-16.994,18.993-5.047,35.084-6.243,49.2-3.66,33.7,6.171,48.061,33.47,59.6,55.405,2.106,4,4.1,7.785,6.1,11.242,3.8,6.55,7.5,14.313,11.418,22.532,11.838,24.822,26.57,55.714,55.055,76.112,40.818,29.231,93.163,23.859,139.03,16.528,32.832-5.248,65.042-13.651,99.144-22.547,28.366-7.4,57.7-15.05,87.6-20.777,31.972-6.225,60.57-9.507,87.424-10.035,28.457-.558,54.583,1.967,79.869,7.723,24.705,5.625,48.8,12.607,74.311,20,24.3,7.037,49.408,14.32,76.91,20.945,52.716,12.785,109.686,22.285,169.328,28.247Z" transform="translate(0.655 117.3)" fill="#0e0e0e"/>
        <path id="パス_7952" data-name="パス 7952" d="M1067.3,284.8c-31.123-2.394-59.08-5.446-85.469-9.326a840.344,840.344,0,0,1-85.973-16.991c-32.017-8.122-61.03-17.864-89.09-27.284-21.917-7.359-42.619-14.31-64.048-20.31-51.056-14.3-106.3-15.7-168.88-4.286-34.734,6.235-68.546,15.66-101.243,24.774-29.616,8.256-57.589,16.054-86.243,21.7-20.087,3.959-43.279,8.137-66.169,8.137-1.153,0-2.3-.01-3.45-.032a139.241,139.241,0,0,1-35.652-4.938,101.9,101.9,0,0,1-32.954-15.974c-12.981-9.593-24.087-22.361-33.954-39.041-8.587-14.514-15.06-29.993-20.777-43.648-3.445-8.236-6.7-16.014-10.065-22.788-1.768-3.556-3.53-7.411-5.4-11.491-11.327-24.775-25.422-55.608-59.986-62.887C85.278,53.531,48.1,69.963,18.228,83.159,11.94,85.939,6,88.563.415,90.84l-.06-.151c5.588-2.272,11.53-4.888,17.815-7.674C33.1,76.414,50.033,68.94,67.122,64.052c19.667-5.622,36.307-6.87,50.87-3.8C133.386,63.5,146.1,71.689,156.837,85.3c9.291,11.768,15.648,25.672,21.257,37.939,1.865,4.08,3.626,7.934,5.394,11.488,3.37,6.778,6.624,14.559,10.069,22.788,11.384,27.222,25.553,61.1,54.671,82.615,42.728,31.575,102.429,19.809,138.1,12.78,28.653-5.647,56.618-13.443,86.23-21.7,32.7-9.117,66.521-18.542,101.26-24.779,31.421-5.731,60.245-8.2,88.11-7.54a340.976,340.976,0,0,1,41.166,3.43,317.928,317.928,0,0,1,39.677,8.4c21.434,6,42.138,12.952,64.057,20.312,28.056,9.42,57.068,19.16,89.078,27.282,50.312,12.825,104.779,21.185,171.414,26.307Z" transform="translate(0.684 112.764)" fill="#0e0e0e"/>
        <path id="パス_7953" data-name="パス 7953" d="M1072.939,301.753c-33.361-1.825-60.92-4.241-86.727-7.606a667.953,667.953,0,0,1-86.806-16.776c-35.037-9.325-66.742-21.448-97.4-33.185-19.693-7.54-38.3-14.651-57.657-21.056-53.6-17.726-109.378-21.28-170.534-10.891-39.1,6.56-76.9,17.885-113.448,28.839-24.519,7.348-49.873,14.945-74.775,20.791-22.24,5.221-45.911,10.347-69.2,10.689a129.429,129.429,0,0,1-35.5-3.973,92.771,92.771,0,0,1-32.6-15.776c-13.21-10.069-24.335-23.7-34.015-41.682-8.428-15.665-14.633-32.54-20.107-47.43-3.053-8.3-5.935-16.138-8.946-23.135-1.543-3.587-3.088-7.441-4.722-11.52C169.394,101.311,155.572,66.8,120.044,58.37,86.389,50.386,48.092,68.608,17.32,83.251,11.364,86.085,5.741,88.761.44,91.115l-.067-.149C5.674,88.62,11.3,85.939,17.249,83.1,48.043,68.456,86.376,50.217,120.094,58.216c15.814,3.752,28.755,13.031,39.563,28.37,9.328,13.237,15.533,28.73,21.009,42.393,1.634,4.08,3.184,7.932,4.719,11.518,3.016,7,5.9,14.842,8.949,23.143,10.891,29.61,24.439,66.461,54.062,89.036,41.359,31.521,99.013,17.988,137.163,9.031,24.9-5.844,50.25-13.442,74.765-20.789,36.557-10.953,74.356-22.285,113.468-28.842a409.955,409.955,0,0,1,45.4-5.194,357.276,357.276,0,0,1,43.388.152,327.488,327.488,0,0,1,81.83,15.938c19.365,6.4,37.967,13.522,57.664,21.057,30.663,11.729,62.357,23.857,97.386,33.177,62.1,16.588,125.335,21.741,173.5,24.375Z" transform="translate(0.718 108.236)" fill="#0e0e0e"/>
        <path id="パス_7954" data-name="パス 7954" d="M1078.567,318.725c-35.494-1.173-62.631-2.994-87.986-5.883-32.2-3.671-60.869-9.089-87.634-16.563-37.229-10.365-70.977-24.854-103.614-38.864-17.406-7.472-35.405-15.2-53.366-22.022-55.895-21.238-112.217-26.957-172.188-17.487-43.145,6.734-84.574,20.124-124.638,33.075-21.076,6.811-42.869,13.854-64.323,19.707-19.718,5.38-44.259,12.076-68.793,13.264-13.1.635-24.655-.347-35.337-3a84.911,84.911,0,0,1-32.244-15.571c-13.391-10.523-24.5-25-33.943-44.258-8.242-16.8-14.162-35.072-19.385-51.195-2.723-8.4-5.295-16.34-8-23.569-1.34-3.549-2.666-7.329-4.078-11.33-10.29-29.147-24.38-69.065-60.9-78.674C87.537,47.244,48.154,67.29,16.51,83.4c-5.655,2.877-11,5.595-16.046,8.014l-.07-.147c5.049-2.418,10.389-5.136,16.042-8.013C48.105,67.132,87.519,47.07,122.18,56.192c16.243,4.274,29.419,14.68,40.283,31.813,9.355,14.755,15.4,31.867,20.725,46.965,1.413,4,2.746,7.78,4.077,11.327,2.713,7.232,5.285,15.171,8.008,23.577,10.891,33.648,23.256,71.784,53.272,95.373,40.1,31.5,95.66,16.35,136.226,5.282,21.448-5.851,43.242-12.9,64.315-19.705,40.072-12.951,81.508-26.344,124.665-33.08a356.087,356.087,0,0,1,45.66-4.266A328.5,328.5,0,0,1,663.2,215.2a324.73,324.73,0,0,1,42.13,7.373,344.623,344.623,0,0,1,40.694,12.674c17.964,6.826,35.965,14.553,53.373,22.026,32.632,14.008,66.376,28.485,103.6,38.857,59.326,16.567,119.45,20.576,175.586,22.441Z" transform="translate(0.76 103.701)" fill="#0e0e0e"/>
        <path id="パス_7955" data-name="パス 7955" d="M1084.207,335.69c-54.216-.67-117.125-2.872-177.714-20.511-38.914-11.309-74.32-28.138-108.56-44.413-16.408-7.8-33.375-15.863-50.343-23.123-58.009-24.809-114.873-32.686-173.84-24.085-46.959,6.79-91.774,22.436-135.114,37.567-17.877,6.24-36.361,12.694-54.586,18.368l-.034.01c-23.646,7.361-52.371,16.3-79.938,16.3-19.871,0-39.14-4.645-55.476-17.877-13.5-10.933-24.526-26.19-33.708-46.649-8.021-17.865-13.639-37.49-18.6-54.805-2.473-8.641-4.811-16.8-7.3-24.345-1.1-3.376-2.213-6.934-3.386-10.7-10.028-32.183-23.768-76.268-61.381-87.113C88.706,44.077,48.267,65.967,15.772,83.557,10.389,86.469,5.3,89.222.486,91.7L.41,91.557c4.819-2.473,9.9-5.225,15.283-8.137C31.8,74.707,50.058,64.821,68.721,58.4c21.565-7.42,39.739-8.805,55.553-4.236,16.716,4.819,30.161,16.421,41.082,35.481,9.383,16.374,15.248,35.166,20.412,51.746,1.173,3.765,2.282,7.322,3.385,10.7,2.492,7.54,4.827,15.709,7.3,24.351,10.315,36.025,22.006,76.87,52.249,101.374,38.931,31.535,94.608,14.2,135.261,1.545l.035-.01c18.22-5.674,36.706-12.126,54.581-18.366,43.348-15.134,88.17-30.782,135.142-37.575a316.059,316.059,0,0,1,45.446-3.333h.477a306.771,306.771,0,0,1,44.177,3.286,321.813,321.813,0,0,1,42.609,9.335,362.19,362.19,0,0,1,41.22,14.809c16.972,7.259,33.941,15.323,50.35,23.123,34.234,16.273,69.633,33.1,108.535,44.4C967.1,332.669,1030,334.865,1084.21,335.541Z" transform="translate(0.791 99.155)" fill="#0e0e0e"/>
        <path id="パス_7956" data-name="パス 7956" d="M1072.554,352.741c-23.815,0-48.643-.491-73.2-2.513-33.306-2.745-62.517-8.023-89.309-16.136-40.266-12.185-77.078-31.347-112.681-49.878-15.685-8.164-31.9-16.605-48.143-24.3-59.987-28.428-117.386-38.465-175.5-30.684-50.613,6.743-98.644,24.864-145.094,42.393-14.847,5.6-30.2,11.394-45.342,16.7l-1.34.468c-24.2,8.48-53.787,18.845-81.784,18.847-18.505,0-36.309-4.524-51.4-17.13-13.623-11.372-24.583-27.451-33.512-49.157-7.807-18.983-12.89-39.112-17.8-58.576-2.218-8.78-4.311-17.071-6.56-24.837-.933-3.237-1.872-6.624-2.864-10.209-9.749-35.2-23.1-83.4-61.7-95.422C89.929,40.882,48.458,64.645,15.137,83.738,9.986,86.689,5.124,89.477.5,92L.424,91.86c4.62-2.527,9.482-5.313,14.631-8.262,16.474-9.44,35.146-20.139,54.3-27.076,22.161-8.026,40.809-9.455,57.006-4.372,38.706,12.041,52.068,60.295,61.83,95.526.992,3.586,1.93,6.97,2.864,10.208,2.249,7.768,4.343,16.062,6.56,24.841,9.729,38.522,20.756,82.183,51.26,107.649,37.857,31.6,92.865,12.327,133.031-1.746l1.332-.467c15.141-5.3,30.5-11.094,45.338-16.7,46.458-17.528,94.5-35.653,145.13-42.393a284.957,284.957,0,0,1,46.181-2.4,289.937,289.937,0,0,1,44.571,4.859,321.706,321.706,0,0,1,43.086,11.3A383.455,383.455,0,0,1,749.3,259.775c16.243,7.7,32.463,16.141,48.148,24.3,35.593,18.529,72.4,37.688,112.652,49.866,59.266,17.951,121.3,19.016,179.758,18.571v.168Q1081.314,352.732,1072.554,352.741Z" transform="translate(0.816 94.606)" fill="#0e0e0e"/>
        <path id="パス_7957" data-name="パス 7957" d="M1051.621,370.353c-15.751,0-31.961-.364-47.9-1.434-33.8-2.27-63.286-7.478-90.139-15.918-41.387-13.016-79.442-34.5-116.241-55.285-15.144-8.554-30.806-17.4-46.5-25.543-50.6-26.255-98.6-39.192-145.8-39.192a258.484,258.484,0,0,0-31.344,1.908C519.515,241.5,468.386,262.342,418.937,282.5c-11.927,4.859-24.261,9.886-36.424,14.63l-2.4.938c-24.685,9.63-55.038,21.469-83.341,21.471-17.3,0-33.835-4.42-47.852-16.476-13.713-11.795-24.586-28.68-33.241-51.608-7.58-20.087-12.363-41.555-16.989-62.332-1.994-8.948-3.876-17.4-5.913-25.4-.764-3-1.532-6.116-2.346-9.41-4.578-18.549-10.276-41.634-19.661-61.241-10.957-22.9-24.812-36.9-42.356-42.8-37.294-12.549-79.8,13.1-113.941,33.711-4.906,2.956-9.532,5.754-13.941,8.3l-.082-.141c4.407-2.552,9.033-5.343,13.931-8.3C31.216,73.679,50.3,62.161,69.96,54.686c22.771-8.659,41.907-10.154,58.5-4.571A61.031,61.031,0,0,1,153.616,66.7c6.491,6.935,12.15,15.536,17.3,26.294,9.393,19.623,15.094,42.718,19.673,61.273.813,3.294,1.582,6.406,2.346,9.408,2.038,8.006,3.921,16.458,5.913,25.407,9.132,40.99,19.481,87.45,50.178,113.852,36.863,31.711,91.29,10.479,131.032-5.027l2.4-.937c12.161-4.74,24.5-9.767,36.424-14.63,24.7-10.069,50.241-20.481,75.89-29,28.785-9.563,54.593-15.653,78.9-18.619,57.394-7,115.373,5.194,177.245,37.3,15.7,8.148,31.362,16.992,46.508,25.546,36.791,20.777,74.836,42.26,116.211,55.271,58.3,18.331,119.283,18.328,181.843,16.634v.168C1081.729,370.011,1066.887,370.353,1051.621,370.353Z" transform="translate(0.861 90.064)" fill="#0e0e0e"/>
        <path id="パス_7958" data-name="パス 7958" d="M1086.687,369.836c-25.91-.168-53.515-.5-81.128-2.751-30.05-2.443-56.329-6.885-80.338-13.572-5.437-1.508-10.866-3.184-16.134-4.951-39.241-13.112-75.685-33.983-110.925-54.167-16.134-9.239-32.818-18.8-49.581-27.5a365.418,365.418,0,0,0-62.069-25.668c-38.5-11.629-75.6-14.641-113.415-9.216-28.661,4.122-58.324,12.411-96.179,26.875-15,5.747-30.161,12.048-44.821,18.138-15.457,6.424-31.441,13.07-47.3,19.085-11.97,4.514-28.366,10.7-44.842,14.931-18.252,4.692-33.815,6.325-47.577,5a77.386,77.386,0,0,1-21.175-4.98,67.733,67.733,0,0,1-19.251-11.7c-30.59-26.413-41.61-72.245-51.332-112.684-2.153-8.956-4.189-17.414-6.367-25.444-.888-3.251-1.781-6.629-2.726-10.2-3.814-14.41-8.133-30.761-14.2-46.282-11.97-30.895-27.713-49.336-48.142-56.382A62.349,62.349,0,0,0,106.8,45.069c-14.124.447-29.4,4.692-49.527,13.74-14.254,6.448-28.222,14.35-40.55,21.32-5.419,3.065-10.538,5.96-15.4,8.582l-.079-.144c4.859-2.621,9.978-5.516,15.4-8.581C28.97,73.015,42.941,65.111,57.2,58.66,77.36,49.6,92.651,45.354,106.8,44.905a62.5,62.5,0,0,1,22.443,3.3c20.477,7.066,36.257,25.538,48.227,56.478,6.074,15.531,10.389,31.878,14.209,46.3.945,3.574,1.843,6.95,2.726,10.2,2.188,8.031,4.223,16.491,6.367,25.447,9.718,40.415,20.729,86.221,51.273,112.6,11.186,9.655,24.38,15.1,40.333,16.639,31.478,3.033,66.659-10.235,92.346-19.921,15.853-6.017,31.836-12.659,47.292-19.083,14.66-6.092,29.826-12.391,44.824-18.14,37.869-14.469,67.545-22.761,96.218-26.885a253.769,253.769,0,0,1,57.684-1.649,274.851,274.851,0,0,1,55.8,10.87,365.545,365.545,0,0,1,62.1,25.679c16.766,8.713,33.45,18.264,49.586,27.5,35.238,20.181,71.674,41.052,110.9,54.154,5.266,1.771,10.692,3.437,16.126,4.95,51.965,14.489,103.85,15.965,161.422,16.324Z" transform="translate(2.401 86.323)" fill="#0e0e0e"/>
        <path id="パス_7959" data-name="パス 7959" d="M1077.886,370.045c-26.558-1.106-52.58-2.346-78.929-5.286-29.412-3.286-55.109-8.329-78.559-15.416-5.32-1.6-10.64-3.351-15.813-5.214-37.123-13.167-71.952-33.417-105.635-53-17.115-9.951-34.81-20.241-52.639-29.507a347.4,347.4,0,0,0-61.662-25.276c-37.808-11.092-74.494-13.45-112.153-7.205-35.04,5.833-67.359,17.657-94.361,28.457-11.865,4.77-23.9,9.916-35.539,14.893-18.1,7.736-36.8,15.736-55.523,22.609-13.262,4.868-28.958,10.335-44.816,13.985-18.014,4.144-33.457,5.362-47.212,3.735a79.456,79.456,0,0,1-20.968-5.342,69.926,69.926,0,0,1-19.1-11.8c-30.451-26.391-42.131-71.587-52.436-111.463-2.312-8.949-4.5-17.4-6.833-25.447-.987-3.378-1.981-6.885-3.033-10.6-4-14.139-8.546-30.161-14.626-45.387-12.306-30.8-28.038-49.214-48.09-56.3a59.263,59.263,0,0,0-22.311-3.321c-16.82.7-33.68,7.038-49.4,13.8C44.589,62.888,31.1,70.026,19.193,76.313,13.178,79.48,7.5,82.484,2.124,85.165l-.072-.146c5.374-2.681,11.059-5.689,17.061-8.866,11.907-6.294,25.4-13.428,39.067-19.362,15.732-6.763,32.612-13.117,49.459-13.814a59.421,59.421,0,0,1,22.371,3.329c20.107,7.1,35.858,25.553,48.19,56.4,6.086,15.23,10.627,31.26,14.633,45.409,1.052,3.712,2.046,7.219,3.033,10.6,2.346,8.043,4.524,16.5,6.835,25.452,10.3,39.853,21.972,85.022,52.384,111.381,11.119,9.63,24.2,15.226,39.978,17.106,29.025,3.442,61.345-6.478,91.95-17.711,18.718-6.87,37.426-14.869,55.516-22.606,11.639-4.977,23.675-10.122,35.541-14.893,17.718-7.086,32.461-12.418,46.4-16.778a355.136,355.136,0,0,1,48-11.689,246.553,246.553,0,0,1,56.825-2.81,259.2,259.2,0,0,1,55.4,10.02,348.961,348.961,0,0,1,61.694,25.288c17.832,9.269,35.531,19.559,52.646,29.511,33.679,19.579,68.5,39.826,105.608,52.987,5.169,1.855,10.488,3.609,15.8,5.213,50.169,15.168,100.988,18.348,157.448,20.7Z" transform="translate(3.949 82.57)" fill="#0e0e0e"/>
        <path id="パス_7960" data-name="パス 7960" d="M1069.093,370.24c-27.249-2.163-51.828-4.243-76.732-7.823-28.787-4.137-53.9-9.782-76.781-17.259-4.971-1.619-10.038-3.411-15.489-5.479-34.976-13.264-68.167-32.842-100.264-51.776-18.117-10.674-36.853-21.717-55.774-31.568a331.921,331.921,0,0,0-61.26-24.884c-37.15-10.575-73.423-12.275-110.891-5.194-33.524,6.367-65.593,18.757-92.543,30.038-9.584,4.042-19.335,8.348-28.765,12.513-19.891,8.787-40.459,17.872-61.243,25.266-11.04,3.928-27.7,9.551-44.792,13.024-17.778,3.613-33.1,4.424-46.84,2.482a81.857,81.857,0,0,1-20.764-5.7,72.45,72.45,0,0,1-18.944-11.91c-30.318-26.386-42.652-70.96-53.544-110.286-2.473-8.931-4.807-17.366-7.292-25.417-1.109-3.564-2.227-7.265-3.41-11.183-4.167-13.807-8.889-29.457-14.98-44.3C166.192,70.1,150.466,51.71,130.724,44.559a56.515,56.515,0,0,0-22.235-3.351c-16.577.838-32.766,7.038-49.273,13.852-13.029,5.38-25.422,11.5-37.408,17.411C15.15,75.757,8.86,78.862,2.921,81.6l-.069-.149c5.937-2.741,12.232-5.845,18.884-9.13C33.722,66.414,46.121,60.3,59.159,54.912,75.679,48.091,91.884,41.9,108.486,41.05a56.648,56.648,0,0,1,22.3,3.351c10.891,3.943,20.766,11.515,29.357,22.5,6.974,8.923,13.123,19.983,18.8,33.814,6.094,14.851,10.818,30.5,14.987,44.313,1.181,3.919,2.3,7.619,3.41,11.185,2.485,8.043,4.819,16.488,7.292,25.421,10.878,39.3,23.207,83.852,53.489,110.2,11.059,9.61,24.016,15.357,39.625,17.575,30.441,4.3,64.918-6.024,91.555-15.5,20.777-7.393,41.342-16.476,61.231-25.261,9.43-4.166,19.181-8.474,28.767-12.513,26.959-11.287,59.038-23.681,92.577-30.048a239.783,239.783,0,0,1,55.965-3.971,244.609,244.609,0,0,1,55,9.171,332.6,332.6,0,0,1,61.29,24.9c18.926,9.846,37.663,20.9,55.783,31.582C832,306.7,865.19,326.266,900.151,339.525c5.449,2.066,10.514,3.854,15.484,5.476,52.111,17.034,105.965,21.307,153.475,25.075Z" transform="translate(5.489 78.827)" fill="#0e0e0e"/>
        <path id="パス_7961" data-name="パス 7961" d="M1060.293,370.448h-.029c-49.046-5.865-99.762-11.927-149.507-29.457-4.75-1.665-9.718-3.544-15.169-5.742-32.872-13.237-64.393-32.145-94.877-50.427-19.12-11.469-38.894-23.329-58.924-33.76a316.46,316.46,0,0,0-60.856-24.492A225.822,225.822,0,0,0,571.3,223.385c-31.877,6.826-62.443,19.231-90.725,31.62-7.788,3.442-15.727,7.076-23.406,10.59-21.211,9.7-43.147,19.74-65.546,27.46a294.56,294.56,0,0,1-44.772,12.064c-17.292,3.043-32.926,3.457-46.466,1.228a84.248,84.248,0,0,1-20.558-6.062,75.109,75.109,0,0,1-18.792-12.017c-30.2-26.372-43.189-70.34-54.65-109.132-2.629-8.9-5.112-17.3-7.743-25.347-1.242-3.75-2.49-7.642-3.81-11.764-4.318-13.475-9.216-28.748-15.312-43.217-12.889-30.576-28.6-48.944-48.024-56.151a53.931,53.931,0,0,0-22.16-3.373c-16.379.992-32.158,7.205-48.864,13.792l-.282.111C47.911,58.025,36.14,63.421,24.756,68.637c-7.423,3.4-14.435,6.617-21.035,9.415L3.657,77.9c6.6-2.8,13.609-6.01,21.03-9.412,11.386-5.219,23.16-10.615,35.446-15.456l.282-.111c16.719-6.587,32.507-12.808,48.914-13.8A54.135,54.135,0,0,1,131.555,42.5c10.764,3.993,20.61,11.637,29.254,22.723,6.93,8.881,13.1,19.844,18.864,33.512,6.1,14.476,11,29.752,15.317,43.23,1.32,4.122,2.569,8.014,3.809,11.764,2.632,8.043,5.116,16.451,7.745,25.35,11.456,38.772,24.44,82.714,54.6,109.055,10.99,9.586,23.834,15.488,39.268,18.043,31.9,5.25,67.305-5.07,91.153-13.289,22.393-7.708,44.323-17.753,65.533-27.46,7.678-3.519,15.618-7.148,23.408-10.591,28.291-12.4,58.865-24.8,90.755-31.63a227.034,227.034,0,0,1,109.707,3.2,316.99,316.99,0,0,1,60.89,24.5c20.042,10.434,39.814,22.3,58.939,33.765,30.477,18.281,62,37.183,94.854,50.417,5.454,2.2,10.414,4.073,15.163,5.739,49.727,17.525,100.434,23.586,149.472,29.449h.028Z" transform="translate(7.035 75.081)" fill="#0e0e0e"/>
        <path id="パス_7962" data-name="パス 7962" d="M1051.5,370.651l-4.578-.742c-46.146-7.488-93.864-15.231-140.98-33.093-4.524-1.7-9.383-3.67-14.847-6.007-30.789-13.153-60.618-31.372-89.465-48.991-20.129-12.294-40.943-25.007-62.1-36.035a302.413,302.413,0,0,0-60.454-24.1c-35.913-9.593-71.36-9.978-108.366-1.173-31.781,7.607-61.347,20.573-88.9,33.2-6.33,2.931-12.792,6-19.041,8.971-22.2,10.556-45.149,21.459-68.857,29.362a267.744,267.744,0,0,1-44.75,11.106c-17.049,2.534-32.559,2.527-46.1-.022a87.111,87.111,0,0,1-20.352-6.424,78.036,78.036,0,0,1-18.638-12.131c-13.38-11.729-24.656-27.815-34.474-49.187-8.631-18.787-14.97-38.892-21.1-58.336-2.849-9.031-5.529-17.562-8.378-25.737-1.278-3.671-2.564-7.465-3.924-11.481-4.543-13.4-9.69-28.6-15.928-43-13.2-30.477-28.9-48.82-47.994-56.074a51.629,51.629,0,0,0-22.084-3.4C95.288,38.4,81.032,43.8,65.942,49.509q-2.378.9-4.772,1.8c-11.394,4.269-22.388,8.934-33.026,13.445C19.8,68.294,11.914,71.637,4.518,74.5l-.06-.152c7.389-2.859,15.271-6.2,23.626-9.739,10.64-4.511,21.644-9.176,33.033-13.448q2.4-.9,4.77-1.8c15.1-5.717,29.37-11.116,44.293-12.165A51.744,51.744,0,0,1,132.331,40.6c10.64,4.042,20.442,11.759,29.155,22.939,6.878,8.832,13.07,19.7,18.934,33.222,6.24,14.41,11.394,29.6,15.932,43.011,1.361,4.021,2.646,7.81,3.924,11.481,2.848,8.179,5.529,16.709,8.378,25.742,12,38.071,25.607,81.221,55.524,107.449,10.927,9.566,23.661,15.62,38.909,18.51,24.4,4.593,54.933.866,90.764-11.077,23.7-7.9,46.647-18.807,68.839-29.355,6.25-2.969,12.713-6.032,19.043-8.973,27.565-12.632,57.138-25.6,88.934-33.212a226.152,226.152,0,0,1,54.239-6.29,218.332,218.332,0,0,1,54.209,7.471A302.353,302.353,0,0,1,739.6,245.636c21.161,11.032,41.977,23.747,62.109,36.042,28.842,17.616,58.666,35.831,89.444,48.981,5.469,2.336,10.325,4.3,14.841,6,47.1,17.855,94.811,25.6,140.95,33.083l4.578.744Z" transform="translate(8.576 71.334)" fill="#0e0e0e"/>
        <path id="パス_7963" data-name="パス 7963" d="M1042.713,370.862l-9.551-1.982c-43.13-8.946-87.728-18.2-132.037-36.23-4.348-1.758-8.963-3.75-14.526-6.27-28.728-13.008-56.841-30.518-84.03-47.451-21.139-13.165-43-26.778-65.3-38.416A288.967,288.967,0,0,0,677.221,216.8c-35.338-9.127-70.375-8.857-107.1.828-30.7,8.152-59.856,21.654-87.086,34.784-5.529,2.668-11.181,5.454-16.645,8.15-22.539,11.119-45.844,22.621-70.2,30.461a241.877,241.877,0,0,1-44.739,10.144c-16.8,2.032-32.183,1.605-45.722-1.273a90.2,90.2,0,0,1-20.147-6.784,81.324,81.324,0,0,1-18.485-12.232c-13.328-11.729-24.692-27.683-34.742-48.773-8.842-18.556-15.489-38.41-21.919-57.61-3.016-9-5.865-17.493-8.857-25.662-1.4-3.809-2.807-7.74-4.3-11.9-4.692-13.122-10.018-27.993-16.285-42.078-13.5-30.328-29.182-48.648-47.957-56a49.418,49.418,0,0,0-22.009-3.428c-13.668,1.062-26.642,5.843-40.382,10.9-2.776,1.022-5.647,2.079-8.514,3.1C51.869,53.1,41.859,57.006,32.19,60.786,22.678,64.5,13.692,68.011,5.309,70.95L5.255,70.8c8.378-2.939,17.364-6.448,26.877-10.163,9.675-3.78,19.68-7.688,29.946-11.345,2.88-1.022,5.757-2.081,8.534-3.1,13.74-5.065,26.729-9.849,40.419-10.915a49.647,49.647,0,0,1,22.083,3.44c10.513,4.115,20.286,11.912,29.052,23.174,6.836,8.782,13.048,19.549,18.995,32.91,6.27,14.092,11.594,28.966,16.29,42.089,1.49,4.161,2.9,8.091,4.295,11.9,3,8.172,5.848,16.669,8.859,25.667,12.567,37.533,26.81,80.094,56.615,106.313,10.863,9.551,23.475,15.751,38.557,18.978,31.3,6.65,66.416-1.151,90.368-8.867,24.341-7.842,47.642-19.336,70.174-30.452,5.466-2.7,11.116-5.483,16.649-8.15,27.237-13.133,56.4-26.642,87.114-34.794a219.579,219.579,0,0,1,53.376-7.451,206.079,206.079,0,0,1,53.81,6.622,289.144,289.144,0,0,1,60.084,23.723c22.309,11.64,44.169,25.256,65.31,38.423,27.185,16.924,55.295,34.437,84.011,47.44,5.561,2.513,10.174,4.511,14.519,6.268,44.3,18.028,88.887,27.277,132.011,36.22q4.785.992,9.543,1.984Z" transform="translate(10.11 67.579)" fill="#0e0e0e"/>
        <path id="パス_7964" data-name="パス 7964" d="M1033.909,371.07c-4.941-1.275-10.013-2.567-14.913-3.819-40-10.2-81.359-20.742-122.686-38.768-4.112-1.783-8.624-3.854-14.2-6.535-26.689-12.8-53.065-29.573-78.572-45.8-22.15-14.087-45.052-28.653-68.522-40.911a276.229,276.229,0,0,0-59.651-23.318c-34.791-8.676-69.412-7.748-105.843,2.837-29.075,8.512-55.818,21.5-85.266,36.361-4.534,2.287-9.169,4.667-13.651,6.969-23.061,11.835-46.907,24.073-72.136,31.92a220,220,0,0,1-44.71,9.182c-16.547,1.54-31.8.69-45.35-2.523a86.826,86.826,0,0,1-38.272-19.482c-13.282-11.729-24.739-27.56-35.02-48.385-9.048-18.334-16.012-37.946-22.741-56.913-3.172-8.941-6.168-17.386-9.318-25.531-1.528-3.951-3.063-8.021-4.692-12.331-4.841-12.833-10.328-27.379-16.624-41.146-13.829-30.243-29.5-48.534-47.922-55.921a47.539,47.539,0,0,0-21.94-3.45C99.182,34.616,87.224,38.941,74.563,43.52c-3.722,1.34-7.569,2.738-11.448,4.047-8.773,2.961-17.4,6.056-25.751,9.048C26.284,60.59,15.815,64.341,6.113,67.4l-.049-.156c9.7-3.045,20.166-6.806,31.245-10.779,8.348-2.989,16.979-6.087,25.757-9.048,3.879-1.309,7.726-2.7,11.446-4.047,12.671-4.583,24.64-8.911,37.356-10.02a47.628,47.628,0,0,1,22.009,3.467c10.389,4.166,20.131,12.036,28.954,23.391,6.774,8.713,13.008,19.383,19.057,32.612,6.3,13.772,11.784,28.318,16.627,41.158,1.625,4.31,3.162,8.378,4.692,12.327,3.15,8.148,6.148,16.588,9.32,25.538,13.137,37.031,28.028,79,57.718,105.228a86.512,86.512,0,0,0,38.2,19.437c32.143,7.627,66.669.59,89.98-6.657,25.216-7.842,49.055-20.077,72.109-31.908,4.484-2.3,9.119-4.68,13.654-6.969,29.455-14.864,56.2-27.862,85.288-36.376,36.459-10.595,71.109-11.523,105.928-2.838a276.539,276.539,0,0,1,59.68,23.329c23.475,12.262,46.382,26.831,68.532,40.92,25.5,16.22,51.875,32.991,78.554,45.786,5.576,2.681,10.087,4.75,14.2,6.535,41.315,18.021,82.669,28.566,122.654,38.762,4.906,1.25,9.978,2.544,14.913,3.819Z" transform="translate(11.667 63.827)" fill="#0e0e0e"/>
        <path id="パス_7965" data-name="パス 7965" d="M1025.113,371.277c-6.828-2.125-13.879-4.274-20.7-6.354-36.756-11.206-74.764-22.788-112.935-40.61-5.027-2.329-10.054-4.859-13.882-6.8-24.67-12.523-49.284-28.534-73.09-44.015-23.16-15.064-47.109-30.64-71.768-43.532-20.107-10.514-40.035-18.227-59.241-22.926-34.269-8.242-68.477-6.657-104.579,4.846-29.539,9.481-56.944,23.951-83.445,37.946-3.666,1.937-7.416,3.941-11.042,5.878-23.45,12.534-47.7,25.494-73.691,33.287a194.943,194.943,0,0,1-55.508,8.574,134.891,134.891,0,0,1-34.159-4.127,90.864,90.864,0,0,1-37.914-19.94c-13.237-11.744-24.8-27.453-35.315-48.024-9.269-18.125-16.54-37.5-23.569-56.245-3.326-8.867-6.468-17.242-9.76-25.345-1.662-4.092-3.333-8.3-5.1-12.761-5.221-13.159-10.62-26.766-16.94-40.214-14.171-30.176-29.836-48.44-47.887-55.851a45.634,45.634,0,0,0-21.86-3.482C100.85,32.73,89.748,36.7,77.992,40.907c-4.5,1.609-9.155,3.274-13.907,4.787-6.619,2.11-13.2,4.273-19.571,6.367-13.371,4.392-26,8.546-37.605,11.785l-.045-.158c11.6-3.242,24.229-7.391,37.6-11.781,6.367-2.093,12.954-4.256,19.573-6.367,4.742-1.508,9.4-3.184,13.9-4.786,11.766-4.209,22.879-8.184,34.774-9.331a45.769,45.769,0,0,1,21.939,3.494c18.1,7.426,33.792,25.719,47.986,55.923,6.322,13.452,11.729,27.063,16.944,40.223,1.768,4.457,3.438,8.668,5.1,12.76,3.293,8.107,6.434,16.481,9.76,25.348,13.706,36.541,29.243,77.957,58.839,104.2a90.564,90.564,0,0,0,37.847,19.915c25.7,6.748,57.508,5.169,89.579-4.445,25.972-7.79,50.219-20.746,73.661-33.276,3.626-1.939,7.373-3.943,11.042-5.878,26.51-14,53.921-28.472,83.473-37.957,36.133-11.513,70.375-13.1,104.668-4.849,19.219,4.7,39.162,12.42,59.278,22.939,24.666,12.9,48.617,28.475,71.781,43.54,23.8,15.479,48.413,31.486,73.075,44.006,3.822,1.94,8.854,4.467,13.877,6.8,38.155,17.808,76.156,29.4,112.907,40.6,6.82,2.079,13.872,4.229,20.7,6.354Z" transform="translate(13.203 60.077)" fill="#0e0e0e"/>
        <path id="パス_7966" data-name="パス 7966" d="M1016.306,371.481c-8.81-3.249-17.579-6.379-26.862-9.7-33.411-11.932-67.959-24.271-102.788-41.644-4.663-2.311-9.274-4.76-13.561-7.063-22.678-12.18-44.5-26.712-67.594-42.1-24.167-16.1-49.157-32.748-75.028-46.288-20.39-10.673-39.636-18.045-58.835-22.533-33.648-7.865-67.443-5.623-103.319,6.855-27.629,9.682-53.7,24.092-78.921,38.036l-2.713,1.5c-2.9,1.6-5.865,3.254-8.735,4.859C454.219,266.627,429.678,280.3,403.006,288a185.63,185.63,0,0,1-44.67,7.257,142.111,142.111,0,0,1-44.6-5.027,95.109,95.109,0,0,1-37.555-20.417c-13.21-11.761-24.864-27.363-35.625-47.693-9.487-17.929-17.069-37.084-24.4-55.61-3.47-8.77-6.749-17.051-10.178-25.094-1.806-4.239-3.619-8.592-5.54-13.2-5.362-12.855-10.891-26.139-17.232-39.274-14.544-30.1-30.2-48.343-47.855-55.766a43.9,43.9,0,0,0-21.783-3.51c-11.175,1.186-21.548,4.876-32.53,8.783-5.154,1.833-10.484,3.73-15.977,5.379q-4.638,1.392-9.216,2.78C38.654,51.792,22.419,56.693,7.709,60.3l-.039-.158c14.705-3.6,30.938-8.5,48.123-13.69l9.216-2.778c5.489-1.649,10.818-3.544,15.97-5.377,10.99-3.911,21.372-7.6,32.567-8.792a44.083,44.083,0,0,1,21.865,3.519c10.139,4.263,19.817,12.279,28.765,23.824,6.615,8.536,12.887,19.01,19.172,32.022,6.346,13.132,11.882,26.424,17.239,39.281,1.919,4.608,3.732,8.961,5.53,13.2,3.428,8.043,6.7,16.329,10.179,25.1,14.279,36.072,30.464,76.96,59.986,103.24a95,95,0,0,0,37.492,20.382c26.267,7.579,57.939,6.784,89.182-2.235,26.659-7.693,51.2-21.366,74.916-34.581,2.869-1.6,5.834-3.251,8.735-4.859l2.713-1.508c25.219-13.939,51.3-28.354,78.939-38.036a199.2,199.2,0,0,1,50.8-10.958,170.82,170.82,0,0,1,52.614,4.1c19.212,4.492,38.472,11.868,58.876,22.549,25.876,13.544,50.871,30.194,75.043,46.3,23.093,15.385,44.906,29.916,67.579,42.093,4.286,2.3,8.894,4.75,13.556,7.059,34.821,17.369,69.37,29.707,102.771,41.637,9.283,3.316,18.051,6.448,26.862,9.7Z" transform="translate(14.756 56.328)" fill="#0e0e0e"/>
        <path id="パス_7967" data-name="パス 7967" d="M1007.512,371.705c-10.868-4.682-21.8-9.182-33.381-13.946-29.97-12.332-60.96-25.084-92.292-41.768-4.544-2.4-9.216-5.042-13.237-7.326-20.71-11.763-40.806-25.5-62.081-40.037-25.171-17.207-51.2-34.993-78.306-49.2-20.246-10.61-39.36-17.853-58.431-22.141-33.177-7.461-66.563-4.563-102.056,8.862-25.878,9.861-50.281,24-73.882,37.679l-5.925,3.43q-3.321,1.919-6.664,3.864c-23.931,13.907-48.678,28.284-75.962,35.858a171.982,171.982,0,0,1-44.651,6.29,143.5,143.5,0,0,1-44.236-6.268,100.14,100.14,0,0,1-37.2-20.883c-13.189-11.786-24.95-27.291-35.953-47.4-9.718-17.741-17.611-36.7-25.251-55.01-3.606-8.648-7.012-16.815-10.556-24.775-1.959-4.39-3.923-8.881-6-13.649-5.478-12.545-11.141-25.519-17.5-38.323C169.027,56.919,153.377,38.7,136.128,31.282a42.227,42.227,0,0,0-21.709-3.537c-10.57,1.22-20.312,4.692-30.623,8.353-5.705,2.029-11.605,4.127-17.761,5.865C43.54,48.3,25.15,53.241,8.5,56.753l-.034-.168C25.11,53.066,43.5,48.135,65.991,41.8c6.148-1.733,12.044-3.83,17.746-5.865,10.322-3.671,20.072-7.138,30.663-8.361a42.449,42.449,0,0,1,21.793,3.549c10.015,4.31,19.661,12.4,28.673,24.038,6.513,8.417,12.8,18.8,19.227,31.729,6.367,12.807,12.027,25.781,17.5,38.329,2.079,4.762,4.043,9.259,6,13.648,3.552,7.962,6.959,16.131,10.556,24.779,15.583,37.366,31.7,76.015,61.159,102.347a99.837,99.837,0,0,0,37.136,20.85c26.4,8.318,58.765,8.309,88.787-.023,27.264-7.569,52-21.94,75.923-35.841l6.664-3.864,5.932-3.423c23.606-13.68,48.016-27.825,73.907-37.691A193.781,193.781,0,0,1,617.6,193.877a162.039,162.039,0,0,1,52.21,3.254c19.087,4.291,38.214,11.538,58.478,22.156,27.114,14.206,53.145,32,78.319,49.2,21.28,14.538,41.366,28.269,62.071,40.028,4.021,2.284,8.69,4.921,13.237,7.324,31.325,16.679,62.312,29.43,92.279,41.761,11.577,4.764,22.513,9.264,33.381,13.946Z" transform="translate(16.296 52.564)" fill="#0e0e0e"/>
        <path id="パス_7968" data-name="パス 7968" d="M998.712,371.905c-12.968-6.464-26.2-12.651-40.206-19.2-26.448-12.369-53.8-25.159-81.49-40.885-4.189-2.358-8.324-4.832-12.917-7.589-18.767-11.268-37.123-24.16-56.557-37.808-26.164-18.376-53.22-37.379-81.592-52.259-20.107-10.545-39.082-17.659-58.029-21.749-32.741-7.069-65.71-3.519-100.792,10.87-24.273,10.025-47.146,23.939-69.266,37.394-2.862,1.743-5.821,3.542-8.723,5.3q-2.383,1.441-4.779,2.9c-24.063,14.591-48.953,29.682-76.791,37.109a160.007,160.007,0,0,1-44.633,5.325,144.763,144.763,0,0,1-43.854-7.513,105.488,105.488,0,0,1-36.836-21.351C269.072,250.621,257.2,235.2,245.94,215.3c-9.938-17.569-18.162-36.319-26.114-54.457-3.727-8.5-7.247-16.525-10.91-24.377-2.12-4.546-4.243-9.191-6.49-14.11-5.59-12.232-11.371-24.884-17.745-37.366C174.9,65.842,159.3,39.249,136.9,29.381a40.766,40.766,0,0,0-21.634-3.566C105.222,27.07,96.033,30.351,86.3,33.825c-6.173,2.2-12.555,4.482-19.293,6.257C44.536,46,25.661,50.291,9.3,53.2l-.028-.168C25.4,50.165,44.811,45.755,66.968,39.921c6.731-1.773,13.11-4.05,19.279-6.253,9.739-3.475,18.934-6.759,28.988-8.016a40.917,40.917,0,0,1,21.721,3.576c22.453,9.886,38.07,36.516,47.865,55.689,6.367,12.478,12.156,25.134,17.748,37.366,2.247,4.918,4.368,9.563,6.488,14.107,3.665,7.855,7.185,15.883,10.911,24.382,16.2,36.935,32.951,75.129,62.381,101.531a105.334,105.334,0,0,0,36.781,21.317c26.878,9.2,59.1,9.993,88.391,2.178,27.815-7.415,52.694-22.5,76.742-37.084q2.4-1.454,4.78-2.9c2.9-1.756,5.865-3.556,8.723-5.3,22.118-13.46,45-27.378,69.288-37.408,17.054-6.992,33.108-11.337,49.075-13.282a153.728,153.728,0,0,1,51.815,2.4c18.961,4.094,37.956,11.213,58.07,21.764,28.38,14.886,55.441,33.891,81.61,52.279,19.437,13.646,37.785,26.536,56.547,37.8,4.591,2.756,8.733,5.23,12.914,7.589,27.689,15.722,55.035,28.51,81.479,40.885,14.008,6.552,27.238,12.735,40.215,19.206Z" transform="translate(17.843 48.813)" fill="#0e0e0e"/>
        <path id="パス_7969" data-name="パス 7969" d="M989.909,372.114c-15.08-8.629-30.72-16.848-47.284-25.551-22.857-12.009-46.491-24.427-70.432-38.912-4.112-2.472-8.157-5.039-12.44-7.756l-.156-.1c-16.85-10.692-33.45-22.694-51.024-35.4-27.145-19.631-55.223-39.93-84.889-55.508-19.951-10.478-38.8-17.463-57.624-21.357-32.78-6.779-64.407-2.681-99.531,12.879-22.8,10.178-44.271,23.9-65.033,37.178-3.654,2.336-7.433,4.752-11.136,7.094L487.3,246.62c-24.129,15.288-49.1,31.1-77.456,38.339a149.558,149.558,0,0,1-44.615,4.357,146.513,146.513,0,0,1-43.48-8.76,111.732,111.732,0,0,1-36.478-21.818c-13.172-11.863-25.173-27.21-36.7-46.917-10.174-17.413-18.726-35.98-27-53.936-3.83-8.318-7.45-16.173-11.206-23.891-2.291-4.7-4.579-9.5-7-14.578-5.7-11.92-11.577-24.248-17.961-36.394-10.054-19.14-25.955-45.72-47.755-55.536-7.373-3.316-14.62-4.524-21.56-3.591-9.574,1.289-18.281,4.419-27.5,7.731a204.01,204.01,0,0,1-20.628,6.585C48.043,43.1,28.031,47.051,10.1,49.645l-.023-.168c17.929-2.594,37.936-6.545,57.867-11.428a204.05,204.05,0,0,0,20.61-6.58c9.226-3.318,17.941-6.451,27.532-7.741,6.97-.937,14.254.275,21.649,3.6,9.767,4.4,19.353,12.631,28.485,24.464,8.331,10.789,15.025,22.942,19.336,31.144,6.386,12.15,12.272,24.477,17.964,36.4,2.423,5.075,4.712,9.871,7,14.578,3.757,7.719,7.373,15.583,11.208,23.9,16.826,36.528,34.227,74.308,63.648,100.8A111.477,111.477,0,0,0,321.8,280.4c27.312,10.1,59.385,11.7,88,4.4,28.341-7.239,53.284-23.039,77.413-38.319l3.06-1.939c3.7-2.346,7.482-4.757,11.136-7.093,20.767-13.279,42.242-27.007,65.055-37.2,16.79-7.441,32.56-12.167,48.214-14.445a145.961,145.961,0,0,1,51.416,1.557c18.84,3.9,37.7,10.891,57.667,21.372,29.677,15.583,57.756,35.885,84.909,55.519,17.572,12.7,34.171,24.705,51.015,35.394l.156.1c4.281,2.718,8.326,5.283,12.436,7.753,23.938,14.484,47.57,26.9,70.425,38.909,16.565,8.7,32.21,16.924,47.289,25.553Z" transform="translate(19.39 45.06)" fill="#0e0e0e"/>
        <path id="パス_7970" data-name="パス 7970" d="M981.113,372.318c-17.15-11.2-35.315-21.813-54.547-33.048s-39.087-22.832-59.192-35.789c-3.72-2.381-7.383-4.837-11.258-7.438l-1.016-.68c-14.955-10.027-29.78-21.084-45.478-32.792-28.122-20.973-57.2-42.661-88.2-58.954-19.8-10.409-38.515-17.259-57.22-20.965-32.388-6.406-63.612-1.676-98.269,14.886-21.451,10.322-41.625,23.894-61.141,37.017-4.336,2.917-8.82,5.933-13.209,8.837l-1.466.97c-24.155,16-49.134,32.533-78,39.584a140.436,140.436,0,0,1-44.6,3.39,148.391,148.391,0,0,1-43.1-10.005A118.815,118.815,0,0,1,288.3,255.047c-13.182-11.919-25.32-27.212-37.106-46.749-10.421-17.275-19.31-35.679-27.907-53.475-3.914-8.1-7.612-15.751-11.443-23.3-2.468-4.868-4.933-9.814-7.54-15.05-5.781-11.6-11.759-23.6-18.15-35.417-11.226-20.761-26.8-45.826-47.718-55.462-7.373-3.393-14.6-4.611-21.483-3.619-9.162,1.32-17.44,4.326-26.2,7.51a179.361,179.361,0,0,1-21.8,6.86A532.455,532.455,0,0,1,10.9,46.093l-.018-.168a532.531,532.531,0,0,0,58.041-9.749A180.288,180.288,0,0,0,90.7,29.322c8.772-3.184,17.056-6.2,26.235-7.517,6.9-.992,14.169.231,21.567,3.638,9.645,4.44,19.2,12.743,28.4,24.677,8.013,10.389,14.578,21.95,19.388,30.853,6.391,11.816,12.371,23.817,18.153,35.421,2.609,5.238,5.074,10.184,7.54,15.049,3.839,7.552,7.525,15.2,11.444,23.3,17.471,36.164,35.538,73.559,64.976,100.177a118.664,118.664,0,0,0,36.071,22.255c27.7,11.032,59.631,13.44,87.6,6.607,28.834-7.038,53.8-23.574,77.944-39.561l1.466-.97c4.388-2.905,8.881-5.92,13.207-8.837,19.519-13.128,39.7-26.7,61.159-37.031,16.516-7.894,32-13,47.353-15.6a138.821,138.821,0,0,1,51.019.705c18.72,3.7,37.451,10.565,57.264,20.982,31.01,16.3,60.094,37.991,88.22,58.968,15.7,11.706,30.519,22.761,45.472,32.786l1.014.68c3.876,2.6,7.54,5.055,11.257,7.436,20.107,12.951,39.971,24.559,59.187,35.786s37.4,21.85,54.554,33.053Z" transform="translate(20.932 41.309)" fill="#0e0e0e"/>
        <path id="パス_7971" data-name="パス 7971" d="M972.318,372.526c-19.145-14.2-39.921-27.575-61.915-41.734-15.548-10.007-31.624-20.353-47.847-31.478-3.37-2.3-6.689-4.65-10.2-7.141l-1.749-1.24c-13.085-9.269-26.124-19.321-39.928-29.961-29.077-22.414-59.149-45.59-91.513-62.624-19.643-10.34-38.229-17.063-56.818-20.581-32.022-6.032-62.847-.67-97.005,16.9-20.209,10.459-39.2,23.906-57.558,36.91-4.916,3.482-10,7.083-14.973,10.526-11.848,8.21-24.1,16.694-37.081,24-14.688,8.266-28.205,13.773-41.325,16.833a132.3,132.3,0,0,1-44.579,2.42A150.552,150.552,0,0,1,327.094,274.1a126.947,126.947,0,0,1-35.759-22.751c-13.209-11.991-25.5-27.249-37.57-46.647-10.677-17.158-19.916-35.419-28.852-53.076-3.969-7.845-7.719-15.248-11.6-22.594-2.658-5.027-5.3-10.131-8.108-15.528-5.865-11.285-11.924-22.956-18.316-34.437-8.065-14.487-24.847-44.631-47.683-55.382-7.373-3.47-14.578-4.692-21.409-3.646-8.792,1.351-16.689,4.254-25.049,7.329C85.547,30.02,78.1,32.759,69.928,34.462A466.641,466.641,0,0,1,11.7,42.545l-.013-.168A466.187,466.187,0,0,0,69.9,34.309c8.155-1.7,15.6-4.439,22.8-7.086,8.368-3.076,16.272-5.984,25.08-7.337,6.87-1.054,14.105.176,21.5,3.661C148.8,28.029,158.328,36.4,167.6,48.434c7.669,9.955,13.874,20.571,19.437,30.561,6.392,11.485,12.455,23.155,18.316,34.442,2.8,5.4,5.452,10.5,8.11,15.526,3.877,7.342,7.627,14.745,11.6,22.6,18.137,35.843,36.892,72.905,66.386,99.675a126.681,126.681,0,0,0,35.715,22.723c28.465,12.163,59.435,15.295,87.2,8.819,29.3-6.835,54.237-24.105,78.351-40.808,4.97-3.443,10.054-7.038,14.971-10.526,18.366-13.008,37.358-26.458,57.577-36.922,16.235-8.348,31.443-13.832,46.491-16.756a132.026,132.026,0,0,1,50.62-.146c18.6,3.509,37.2,10.243,56.863,20.59,32.381,17.041,62.453,40.214,91.535,62.639,13.8,10.642,26.841,20.692,39.923,29.958l1.749,1.242c3.519,2.492,6.831,4.844,10.2,7.14,16.221,11.121,32.3,21.468,47.843,31.474,22,14.159,42.773,27.533,61.924,41.741Z" transform="translate(22.474 37.556)" fill="#0e0e0e"/>
        <path id="パス_7972" data-name="パス 7972" d="M963.51,372.738c-21.019-17.658-44.475-34.152-69.311-51.609-11.867-8.346-24.139-16.976-36.473-25.972-3.058-2.215-6.069-4.474-9.258-6.87l-2.373-1.778c-11.226-8.408-22.47-17.381-34.367-26.88-30.013-23.961-61.047-48.743-94.839-66.546C697.4,182.815,678.95,176.213,660.48,172.9c-31.682-5.68-62.106.335-95.745,18.9-19.057,10.59-36.952,23.939-54.244,36.85-5.407,4.035-11,8.21-16.46,12.167-10.3,7.466-23.123,16.756-36.4,24.407-14.461,8.329-27.857,13.792-40.957,16.7a125.008,125.008,0,0,1-44.561,1.449,152.894,152.894,0,0,1-42.352-12.488,136.233,136.233,0,0,1-35.4-23.219c-29.613-26.977-49.1-63.778-67.93-99.363-3.99-7.54-7.758-14.655-11.649-21.739-2.849-5.194-5.7-10.447-8.7-16C200.152,99.6,194.02,88.256,187.629,77.106,178.671,61.481,161.992,32.4,139.98,21.8c-7.373-3.546-14.546-4.782-21.334-3.675-8.462,1.382-16.017,4.2-24.016,7.185C87.172,28.093,79.461,30.97,70.9,32.6c-22.329,4.251-44.03,5.684-58.411,6.392v-.168c14.377-.707,36.071-2.14,58.388-6.389,8.546-1.629,16.253-4.5,23.7-7.282,8.006-2.986,15.568-5.808,24.047-7.192,6.823-1.114,14.033.127,21.431,3.686C162.106,32.274,178.8,61.383,187.77,77.026c6.394,11.151,12.527,22.493,18.458,33.462,3,5.558,5.843,10.808,8.7,16,3.892,7.084,7.661,14.2,11.65,21.741,18.832,35.571,38.306,72.354,67.9,99.318a136.067,136.067,0,0,0,35.355,23.19c28.78,13.155,59.609,17.071,86.81,11.029,29.734-6.605,55-24.923,77.29-41.082,5.461-3.959,11.059-8.13,16.458-12.165,17.3-12.914,35.2-26.267,54.271-36.863,33.68-18.6,64.13-24.606,95.844-18.919,18.489,3.314,36.955,9.921,56.468,20.2,33.8,17.81,64.846,42.594,94.864,66.563,11.9,9.5,23.132,18.47,34.362,26.875l2.373,1.779c3.184,2.391,6.2,4.65,9.256,6.87,12.334,9,24.6,17.626,36.473,25.972,24.836,17.465,48.3,33.963,69.321,51.624Z" transform="translate(24.028 33.798)" fill="#0e0e0e"/>
        <path id="パス_7973" data-name="パス 7973" d="M954.721,372.947c-22.725-21.567-48.914-41.53-76.642-62.667-8.21-6.253-16.686-12.718-25.166-19.3-2.77-2.136-5.5-4.3-8.393-6.6l-2.915-2.311c-9.4-7.431-18.817-15.248-28.792-23.512-30.927-25.637-62.905-52.148-98.177-70.752-19.06-10.054-37.9-16.714-56.007-19.79-31.366-5.328-61.387,1.315-94.482,20.91-18.009,10.724-34.881,24-51.2,36.841-5.814,4.574-11.825,9.306-17.694,13.76-11.707,8.881-23.249,17.468-35.707,24.814-14.243,8.391-27.513,13.812-40.59,16.573a118.6,118.6,0,0,1-44.544.478,155.682,155.682,0,0,1-41.977-13.73,146.954,146.954,0,0,1-35.042-23.685c-29.764-27.227-50-63.807-69.571-99.18-3.792-6.852-7.708-13.938-11.572-20.7-3.06-5.362-6.092-10.756-9.3-16.466-5.994-10.655-12.19-21.674-18.581-32.495l-.282-.479c-9.8-16.588-26.19-44.35-47.332-54.75-7.373-3.621-14.516-4.859-21.26-3.7-8.165,1.413-15.415,4.159-23.088,7.069S80.8,29.192,71.876,30.731c-20.8,3.584-41.287,4.393-58.587,4.712v-.168c17.3-.318,37.778-1.128,58.562-4.71,8.907-1.537,16.835-4.541,24.5-7.448s14.938-5.662,23.123-7.076c6.778-1.173,13.964.077,21.359,3.715,21.186,10.421,37.6,38.2,47.4,54.814l.283.478c6.392,10.823,12.589,21.841,18.582,32.507,3.212,5.71,6.245,11.1,9.3,16.466,3.854,6.768,7.781,13.852,11.572,20.7,19.564,35.355,39.8,71.932,69.537,99.14a146.815,146.815,0,0,0,35,23.659c29.058,14.167,59.747,18.869,86.416,13.237,27.847-5.878,51-22.208,76.24-41.357,5.865-4.454,11.878-9.184,17.693-13.758,16.32-12.842,33.2-26.123,51.215-36.853,33.13-19.616,63.187-26.267,94.594-20.93,18.118,3.078,36.979,9.742,56.056,19.807,35.285,18.611,67.27,45.127,98.2,70.771,9.975,8.269,19.4,16.086,28.79,23.51q1.464,1.158,2.915,2.311c2.89,2.294,5.622,4.46,8.391,6.6,8.48,6.577,16.962,13.043,25.164,19.295,27.711,21.138,53.909,41.1,76.639,62.678Z" transform="translate(25.563 30.042)" fill="#0e0e0e"/>
        <path id="パス_7974" data-name="パス 7974" d="M945.928,373.153c-24.226-25.94-53.18-49.69-83.835-74.832-4.571-3.752-9.3-7.629-14-11.5-2.495-2.046-4.955-4.112-7.56-6.3q-1.7-1.428-3.427-2.874c-7.572-6.33-15.169-12.887-23.212-19.826-30.328-26.173-64.7-55.836-101.52-75.278-18.9-9.985-37.612-16.511-55.6-19.4-31.074-4.987-60.7,2.3-93.22,22.917-17.034,10.856-32.966,24.083-48.373,36.875-6.144,5.1-12.5,10.389-18.7,15.307-23.584,18.743-47.084,36.025-75.243,41.667a112.768,112.768,0,0,1-44.527-.5,158.528,158.528,0,0,1-41.6-14.966,159.759,159.759,0,0,1-34.685-24.152c-29.993-27.537-51.032-63.983-71.381-99.229-3.71-6.423-7.54-13.07-11.32-19.437-3.262-5.511-6.491-11.035-9.91-16.883-6.052-10.357-12.311-21.067-18.7-31.575L187.858,71.1c-9.737-16.041-26.034-42.9-46.329-53.088-7.356-3.7-14.484-4.95-21.183-3.728-7.9,1.443-15.193,4.258-22.25,6.981-7.859,3.031-15.985,6.166-25.24,7.6-20.7,3.2-41.193,3.244-58.767,3.034v-.168c17.567.208,38.036.168,58.736-3.031,9.238-1.428,17.356-4.559,25.206-7.589,7.064-2.725,14.368-5.541,22.285-6.987,6.736-1.228,13.907.03,21.28,3.743,8.961,4.5,17.818,12.43,27.074,24.229,7.8,9.948,14.189,20.467,19.32,28.921l1.253,2.063c6.4,10.509,12.654,21.22,18.708,31.578,3.417,5.848,6.645,11.371,9.908,16.883,3.775,6.367,7.611,13.016,11.32,19.437,20.348,35.235,41.387,71.669,71.355,99.2A159.568,159.568,0,0,0,335.185,264.3c20.725,10.752,52.471,22.161,86.02,15.449,28.122-5.627,51.608-22.9,75.172-41.634,6.2-4.926,12.554-10.2,18.7-15.3,15.415-12.795,31.347-26.025,48.388-36.887,15.347-9.73,29.708-16.35,43.9-20.243a114.549,114.549,0,0,1,49.43-2.7c18.009,2.89,36.734,9.424,55.653,19.415,16.469,8.7,33.788,20.107,52.949,34.9,16.9,13.045,33.009,26.95,48.6,40.4,8.043,6.939,15.638,13.494,23.209,19.824q1.729,1.446,3.428,2.874c2.6,2.178,5.064,4.253,7.559,6.3,4.692,3.872,9.425,7.751,14,11.5,30.664,25.147,59.618,48.9,83.85,74.847Z" transform="translate(27.105 26.29)" fill="#0e0e0e"/>
        <path id="パス_7975" data-name="パス 7975" d="M937.131,373.365c-25.481-30.776-57.208-58.591-90.8-88.029l-3.055-2.681c-2.237-1.95-4.442-3.911-6.776-5.985q-1.929-1.714-3.891-3.452c-5.749-5.082-11.5-10.266-17.594-15.751-31.144-28.056-66.444-59.856-104.893-80.187-18.654-9.864-37.225-16.253-55.2-19.006-30.873-4.6-60.094,3.319-91.959,24.926-16.129,10.989-31.19,24.189-45.744,36.955-6.7,5.876-13.038,11.429-19.5,16.808-9.96,8.291-21.649,17.793-34.333,25.627-13.8,8.519-26.831,13.855-39.856,16.317a97.655,97.655,0,0,1-18.165,1.676c-26.267,0-50.546-9.971-67.567-19.348a177.269,177.269,0,0,1-34.326-24.62c-30.295-27.931-52.225-64.343-73.433-99.574-3.552-5.9-7.225-12-10.834-17.877-3.46-5.64-7.038-11.53-10.489-17.227-6.131-10.09-12.46-20.518-18.866-30.737q-1.049-1.676-2.2-3.519C177.36,51.139,161.8,26.141,142.3,16.131c-7.347-3.772-14.45-5.035-21.113-3.755-7.656,1.461-14.69,4.229-21.488,6.9C91.687,22.431,83.4,25.69,73.832,26.987c-19.752,2.7-39.15,2.178-58.939,1.354v-.168C34.664,29,54.063,29.514,73.8,26.823c9.551-1.3,17.827-4.559,25.836-7.708,6.808-2.681,13.851-5.444,21.518-6.919,6.7-1.289,13.834-.018,21.215,3.77,8.616,4.424,17.207,12.113,26.263,23.507,7.651,9.625,14.025,19.871,19.149,28.1.766,1.232,1.5,2.41,2.2,3.519,6.413,10.221,12.735,20.648,18.857,30.734,3.455,5.7,7.027,11.585,10.489,17.225,3.609,5.88,7.282,11.981,10.833,17.879,21.2,35.213,43.128,71.624,73.4,99.531a176.778,176.778,0,0,0,34.294,24.6c20.868,11.5,52.662,23.891,85.623,17.661,28.38-5.362,52.175-23.646,74.115-41.91,6.46-5.379,12.793-10.928,19.5-16.806,14.566-12.768,29.63-25.972,45.769-36.967,15.01-10.178,29.089-17.17,43.038-21.376a110.1,110.1,0,0,1,49.035-3.576c17.992,2.75,36.582,9.15,55.251,19.023,38.472,20.342,73.78,52.148,104.931,80.211,6.094,5.489,11.848,10.674,17.594,15.751q1.962,1.738,3.891,3.452c2.334,2.074,4.539,4.035,6.774,5.985l3.056,2.681c33.594,29.449,65.327,57.264,90.818,88.048Z" transform="translate(28.648 22.531)" fill="#0e0e0e"/>
        <path id="パス_7976" data-name="パス 7976" d="M928.34,373.563c-24.253-33.055-55.054-62.617-89.878-95.082-1.97-1.83-3.916-3.659-5.975-5.6q-2.161-2.034-4.368-4.1c-3.921-3.666-7.827-7.351-11.962-11.253-31.922-30.116-68.1-64.251-108.3-85.529-18.505-9.8-36.94-16.061-54.792-18.614-30.6-4.268-59.425,4.278-90.7,26.932-15.295,11.126-29.544,24.321-43.323,37.081-6.917,6.4-13.448,12.453-20.107,18.264-10.3,8.986-21.506,18.358-33.646,26.03-13.572,8.582-26.495,13.879-39.489,16.191-13.941,2.482-28.911,1.659-44.492-2.446A165.555,165.555,0,0,1,340.459,258a195.711,195.711,0,0,1-33.966-25.085C275.454,204.18,252.348,167.253,230,131.536c-3.063-4.9-6.23-9.958-9.338-14.868-4.058-6.357-8.227-12.986-12.259-19.4-5.794-9.216-11.786-18.742-17.818-28.058-.989-1.528-2.049-3.2-3.174-4.965-10.194-16.03-25.6-40.256-44.338-50.033-7.294-3.844-14.372-5.116-21.034-3.784-7.408,1.508-14.184,4.226-20.737,6.85-8.164,3.279-16.622,6.667-26.5,7.84-20.422,2.423-40.978.962-59.115-.335l.012-.168c18.13,1.289,38.678,2.75,59.085.335,9.853-1.173,18.294-4.549,26.456-7.818,6.56-2.629,13.344-5.345,20.766-6.858,6.7-1.34,13.815-.064,21.143,3.8,18.777,9.8,34.2,34.047,44.4,50.09,1.124,1.768,2.178,3.437,3.174,4.965,6.032,9.316,12.024,18.845,17.82,28.06,4.031,6.411,8.2,13.04,12.257,19.4,3.108,4.91,6.277,9.971,9.34,14.868,22.344,35.7,45.437,72.622,76.466,101.335a195.617,195.617,0,0,0,33.931,25.074c30.1,17.565,59.568,24.437,85.229,19.869,28.633-5.1,51.789-23.626,73.056-42.185,6.66-5.809,13.19-11.858,20.107-18.264,13.784-12.763,28.036-25.962,43.339-37.093,14.693-10.645,28.485-18.016,42.177-22.537a105.294,105.294,0,0,1,48.638-4.425c17.874,2.557,36.327,8.825,54.849,18.633,40.214,21.28,76.407,55.432,108.333,85.554,4.135,3.9,8.043,7.587,11.962,11.253q2.21,2.064,4.368,4.1c2.059,1.939,4,3.768,5.975,5.6,34.831,32.47,65.635,62.039,89.9,95.105Z" transform="translate(30.185 18.786)" fill="#0e0e0e"/>
        <path id="パス_7977" data-name="パス 7977" d="M919.547,373.786c-24.045-37.031-56.947-70.754-85.9-99.457-1.686-1.664-3.351-3.321-5.106-5.075-1.6-1.6-3.256-3.246-4.916-4.889q-3.107-3.071-6.28-6.223c-32.656-32.386-69.666-69.1-111.744-91.4-18.356-9.732-36.655-15.87-54.39-18.215-30.37-3.954-58.789,5.241-89.434,28.941-14.519,11.257-28.013,24.465-41.055,37.245-7.068,6.92-13.74,13.455-20.553,19.682-19.717,18.031-43.175,37.674-72.079,42.5A87.31,87.31,0,0,1,413.7,278.07c-21.821,0-45.481-7.8-70.558-23.279a218.4,218.4,0,0,1-33.608-25.551c-31.647-29.405-55.886-66.635-79.328-102.661-2.647-4.067-5.385-8.272-8.071-12.371-4.189-6.335-8.465-12.9-12.607-19.269-5.93-9.1-12.064-18.505-18.2-27.691-1.24-1.855-2.606-3.961-4.053-6.19-10.107-15.575-25.382-39.11-43.425-48.733-7.291-3.918-14.341-5.194-20.96-3.809-7.205,1.538-13.772,4.221-20.117,6.816-8.284,3.388-16.852,6.89-26.991,7.914-19.566,1.974-38.874.04-57.532-1.831l-1.759-.176.017-.168,1.758.176c18.658,1.87,37.952,3.8,57.5,1.831,10.116-1.02,18.671-4.524,26.945-7.9,6.352-2.6,12.922-5.283,20.146-6.826,6.657-1.4,13.74-.111,21.071,3.825,18.08,9.643,33.368,33.2,43.485,48.788,1.448,2.229,2.813,4.333,4.052,6.188,6.139,9.186,12.27,18.6,18.2,27.691,4.14,6.356,8.423,12.926,12.606,19.269,2.681,4.1,5.426,8.3,8.073,12.371,23.437,36,47.671,73.232,79.294,102.619a218.276,218.276,0,0,0,33.582,25.533c30.664,18.934,59.2,26.359,84.834,22.079,28.861-4.817,52.3-24.442,72-42.458,6.806-6.225,13.482-12.76,20.55-19.678,13.053-12.776,26.55-25.989,41.076-37.259,14.372-11.114,27.885-18.866,41.315-23.7a100.8,100.8,0,0,1,48.239-5.275c17.761,2.363,36.072,8.5,54.447,18.239,42.1,22.326,79.119,59.046,111.783,91.441q3.172,3.147,6.279,6.223c1.662,1.644,3.316,3.294,4.918,4.889,1.759,1.754,3.42,3.412,5.106,5.075,14.306,14.182,31.022,31.042,46.538,48.557,15.918,17.966,28.8,34.625,39.385,50.925Z" transform="translate(31.726 15.017)" fill="#0e0e0e"/>
        <path id="パス_7978" data-name="パス 7978" d="M910.755,373.982c-22.218-38.757-52.5-72.806-81.925-103.83q-2.021-2.123-4.077-4.3c-1.828-1.934-3.718-3.931-5.623-5.927l-.551-.576c-31.679-33.177-71.106-74.462-115.238-97.885-18.207-9.663-36.37-15.663-53.986-17.83-30.146-3.641-58.164,6.2-88.172,30.947-13.676,11.312-26.354,24.442-38.614,37.138-7.282,7.54-14.16,14.663-21.18,21.372-9.048,8.713-19.963,18.72-32.255,26.853-13.145,8.7-25.828,13.908-38.77,15.918-13.929,2.178-28.887.69-44.459-4.4-12.721-4.16-26.211-10.86-40.1-19.913a246.928,246.928,0,0,1-33.249-26.019c-32.488-30.308-58.071-68.143-82.811-104.725q-3.078-4.556-6.144-9.072c-4.212-6.176-8.51-12.545-12.668-18.7-6.154-9.119-12.522-18.552-18.867-27.746-1.473-2.136-3.142-4.66-4.906-7.331C177.149,42.8,162.013,19.913,144.627,10.434c-7.284-3.995-14.311-5.28-20.888-3.837-7.038,1.568-13.4,4.228-19.554,6.8-8.378,3.5-17.043,7.118-27.428,7.983-18.869,1.57-37.616-.858-55.747-3.207l-3.716-.479.022-.168,3.71.486c18.122,2.346,36.863,4.774,55.715,3.205,10.36-.861,19.011-4.476,27.378-7.971,6.165-2.575,12.539-5.238,19.583-6.808,6.614-1.458,13.678-.168,21,3.854,17.426,9.494,32.572,32.406,42.6,47.569,1.766,2.669,3.433,5.194,4.906,7.326,6.346,9.2,12.711,18.628,18.869,27.75,4.157,6.158,8.455,12.527,12.668,18.7q3.066,4.524,6.141,9.073c24.737,36.58,50.315,74.407,82.79,104.7a246.631,246.631,0,0,0,33.227,26c30.762,20.057,59.172,28.229,84.438,24.3,27.838-4.34,50.546-23.1,70.937-42.728,7.017-6.7,13.894-13.829,21.175-21.367,12.265-12.7,24.946-25.833,38.629-37.151,14.042-11.582,27.274-19.713,40.454-24.858a96.5,96.5,0,0,1,47.848-6.139c17.634,2.17,35.818,8.175,54.043,17.848,19.665,10.437,39.965,25.167,62.059,45.035,19.253,17.311,37.3,36.208,53.22,52.882l.55.575c1.907,2,3.8,3.995,5.625,5.928q2.059,2.178,4.077,4.3c18.767,19.792,32.574,35.337,44.76,50.4,15.1,18.658,27.26,36.146,37.188,53.462Z" transform="translate(33.266 11.274)" fill="#0e0e0e"/>
        <path id="パス_7979" data-name="パス 7979" d="M901.958,374.189c-21.237-42.1-51.322-78.324-77.949-108.2l-2.681-3c-2.178-2.44-4.422-4.961-6.7-7.493-34.105-37.835-70.967-76.67-113.552-99.3-18.056-9.6-36.082-15.464-53.579-17.44-29.945-3.329-57.56,7.141-86.91,32.956-13.048,11.5-25.107,24.713-36.771,37.5-7.291,7.991-14.177,15.539-21.2,22.6-8.227,8.3-19.251,18.9-31.568,27.252-12.936,8.765-25.5,13.934-38.4,15.8-13.934,2.011-28.886.208-44.444-5.382-12.632-4.539-25.623-11.456-39.712-21.144a283.584,283.584,0,0,1-32.89-26.486c-33.725-31.587-60.992-70.467-87.347-108.068l-3.17-4.524c-4.1-5.818-8.262-11.783-12.292-17.552-6.525-9.341-13.272-19-19.973-28.4-1.694-2.374-3.659-5.3-5.739-8.393-9.918-14.745-24.9-37.031-41.672-46.376-7.275-4.07-14.278-5.362-20.809-3.864-6.87,1.6-13.055,4.238-19.04,6.793-8.455,3.611-17.2,7.344-27.815,8.043-2.909.191-5.819.278-8.725.278-15.375,0-30.675-2.431-45.553-4.8q-2.694-.429-5.362-.848l.025-.168q2.671.417,5.362.848c17.679,2.81,35.962,5.715,54.241,4.524,10.588-.694,19.32-4.422,27.761-8.028,5.985-2.559,12.185-5.2,19.065-6.8,6.573-1.516,13.614-.209,20.935,3.889,16.8,9.355,31.8,31.669,41.722,46.428,2.079,3.093,4.045,6.015,5.736,8.388,6.7,9.4,13.45,19.057,19.975,28.4,4.021,5.767,8.2,11.729,12.292,17.55q1.583,2.257,3.17,4.524c26.359,37.594,53.619,76.468,87.326,108.043a283.416,283.416,0,0,0,32.87,26.475c31.267,21.495,58.758,30.161,84.045,26.5,27.982-4.052,50.117-23.066,69.873-43.009,7.024-7.053,13.907-14.6,21.2-22.59,11.666-12.785,23.73-26.007,36.784-37.508,13.7-12.053,26.654-20.563,39.591-26.019a92.747,92.747,0,0,1,47.443-6.977c17.517,1.977,35.565,7.85,53.641,17.458C720.869,166.544,741,181.4,762.7,201.475c19.13,17.7,36.9,37.118,52.049,53.926,2.28,2.53,4.524,5.054,6.7,7.493q1.34,1.508,2.681,3c17.522,19.66,31.18,36.26,42.984,52.24a388.554,388.554,0,0,1,34.99,56Z" transform="translate(34.811 7.519)" fill="#0e0e0e"/>
        <path id="パス_7980" data-name="パス 7980" d="M893.164,374.4c-15.657-35.442-38.472-70.162-73.974-112.577-2.43-2.9-5.657-6.746-9.057-10.756-33.163-38.894-69.6-77.944-111.315-100.139-17.91-9.531-35.8-15.266-53.178-17.048-29.757-3.016-56.97,8.085-85.647,34.961-12.461,11.692-23.943,25.018-35.047,37.905-7.259,8.427-14.115,16.384-21.113,23.77-7.929,8.393-18.6,19.12-30.883,27.636-12.723,8.825-25.164,13.961-38.036,15.7a79.476,79.476,0,0,1-22.652-.352,103.784,103.784,0,0,1-21.783-6.032c-12.384-4.849-25.253-12.165-39.34-22.361a332.909,332.909,0,0,1-32.53-26.952c-35.583-33.467-65.585-74.854-92.059-111.367-3.778-5.2-7.611-10.508-11.317-15.638-7.089-9.817-14.422-19.968-21.679-29.809-1.9-2.575-4.055-5.732-6.552-9.383C176.6,36.72,162.349,15.852,146.17,6.652,138.9,2.506,131.927,1.2,125.436,2.759c-6.714,1.624-12.735,4.256-18.561,6.8-8.52,3.725-17.331,7.575-28.167,8.085-1.932.094-3.871.139-5.8.139-15.843,0-31.7-2.989-47.084-5.891-2.275-.429-4.626-.873-6.922-1.3l.028-.168c2.3.422,4.648.866,6.924,1.3,17.259,3.254,35.112,6.62,52.857,5.749,10.806-.5,19.211-4.189,28.11-8.07,5.829-2.549,11.858-5.184,18.587-6.811,6.535-1.572,13.547-.258,20.853,3.909,7.173,4.08,14.606,10.811,22.724,20.576,6.925,8.328,13.153,17.45,18.157,24.777,2.495,3.654,4.648,6.81,6.547,9.383,7.259,9.842,14.591,19.993,21.681,29.811,3.706,5.131,7.54,10.436,11.317,15.637,26.474,36.51,56.468,77.889,92.057,111.35a332.619,332.619,0,0,0,32.517,26.939c31.27,22.636,58.632,32.027,83.648,28.71,28.211-3.809,50.62-24.018,68.819-43.284,6.994-7.383,13.849-15.34,21.113-23.765,11.106-12.89,22.589-26.22,35.057-37.917,13.358-12.52,26.027-21.411,38.73-27.178a89.1,89.1,0,0,1,47.046-7.827c17.386,1.79,35.3,7.532,53.234,17.073,19.636,10.447,39.487,25.333,60.689,45.506,18.959,18.043,36.257,37.761,50.675,54.67,3.4,4.011,6.627,7.857,9.058,10.757A654.631,654.631,0,0,1,860.53,315.8a376.545,376.545,0,0,1,32.793,58.534Z" transform="translate(36.353 3.759)" fill="#0e0e0e"/>
        <path id="パス_7981" data-name="パス 7981" d="M884.373,374.612c-14.313-37.22-36.555-74.382-70-116.957-30.915-39.343-63.9-77.188-100.286-101.623a270.2,270.2,0,0,1,26.324,20.226c28.066,24.3,52.2,53.433,74.092,81.3a593.583,593.583,0,0,1,39.429,55.925,369.2,369.2,0,0,1,30.595,61.069ZM428.409,273.377A78.922,78.922,0,0,1,414.5,272.12a101.5,101.5,0,0,1-21.7-6.62c-12.12-5.149-24.866-12.87-38.966-23.606-53.661-40.851-95.281-96.635-135.524-150.581-7.86-10.535-15.989-21.428-24.011-31.939-2.093-2.743-4.524-6.255-7.341-10.322-7.391-10.675-16.588-23.961-27.053-34.139C147.515,2.873,136.521-1.73,126.287.842a109.485,109.485,0,0,0-18.142,6.816c-8.961,4-17.426,7.783-28.458,8.12q-1.642.05-3.284.049c-16.312,0-32.74-3.576-48.661-7.038C25.1,8.215,22.361,7.617,19.7,7.056l.034-.168c2.671.565,5.405,1.16,8.043,1.736,16.981,3.7,34.534,7.518,51.907,6.989,11-.335,19.45-4.109,28.4-8.1A110.192,110.192,0,0,1,126.247.675c5.469-1.374,11.3-.655,17.339,2.138,5.194,2.4,10.724,6.434,16.421,11.977,10.473,10.188,19.678,23.482,27.074,34.164,2.813,4.065,5.245,7.575,7.336,10.315,8.023,10.511,16.151,21.4,24.011,31.94,40.245,53.936,81.858,109.71,135.5,150.548,19.976,15.209,50.342,34.961,83.254,30.92,28.284-3.472,50.125-23.961,67.76-43.566,6.925-7.693,13.715-16.046,20.9-24.889,15.643-19.243,31.82-39.14,50.836-53.822,10.295-7.949,20.37-13.572,30.8-17.2a85.918,85.918,0,0,1,36.314-4.367c16.614,1.53,33.695,6.774,50.771,15.583q2.9,1.5,5.828,3.147c-17.993-10.112-36.813-16.756-56.608-18.572-52.632-4.846-87.26,37.751-117.811,75.332-7.192,8.844-13.983,17.2-20.91,24.894-17.656,19.615-39.524,40.134-67.862,43.612a71.981,71.981,0,0,1-8.8.55Z" transform="translate(37.893 0.002)" fill="#0e0e0e"/>
      </g>
    </g>
  </g>
</svg>
